<?xml version="1.0" encoding="iso-8859-1"?>
<!-- Generator: Adobe Illustrator 19.0.0, SVG Export Plug-In . SVG Version: 6.00 Build 0)  -->
<svg xmlns="http://www.w3.org/2000/svg" xmlns:xlink="http://www.w3.org/1999/xlink" version="1.1" id="Capa_1" x="0px" y="0px" viewBox="0 0 512 512" style="enable-background:new 0 0 512 512;" xml:space="preserve">
<g>
	<g>
		<path d="M512,165l-35.269-26.779L350.744,273.209l-0.711-11.835l-1.527-25.414l-7.553-125.674    c-0.013-1.699-0.116-3.387-0.305-5.068l-0.123-2.045h-0.143c-3.684-23.694-24.968-45.423-63.411-64.688    c-30.274-15.171-60.047-23.112-61.299-23.442l-6.224-1.643l-38.925,89.773H86.4l-1.819,30.268H57.897    C25.973,133.443,0,159.416,0,191.341v103.58c0,30.716,24.99,55.704,55.705,55.704H71.53l-8.894,147.974h301.653l-5.596-93.118    L512,165z M218.032,31.271c32.818,9.713,98.693,36.335,107.064,71.904H186.855L218.032,31.271z M86.541,350.626l8.445-140.524    l5.526-91.942h63.514h162.39l1.791,29.8h-0.001l6.871,114.317l1.565,26.045l-0.176,0.188l7.156,115.972l2.794,46.483H80.509    L86.541,350.626z M72.43,335.642H55.705c-22.454,0-40.721-18.267-40.721-40.721v-103.58c0-23.662,19.251-42.913,42.913-42.913    h25.785l-1.188,19.764H61.659c-17.016,0-30.861,13.843-30.861,30.86v84.642c0,17.746,14.438,32.184,32.184,32.184h10.635    L72.43,335.642z M62.983,300.893c-9.484,0-17.2-7.716-17.2-17.2v-84.642c0-8.754,7.122-15.876,15.876-15.876h19.934    l-7.075,117.718H62.983z M78.547,483.616l1.062-17.669h267.707l1.062,17.669H78.547z M478.451,158.341l13.494,10.245    l-6.907,10.833l-15.217-11.831L478.451,158.341z M351.983,293.842l107.572-115.256l17.393,13.523l-119.786,187.9L351.983,293.842z    "/>
	</g>
</g>
<g>
	<g>
		<rect x="306.867" y="130.453" transform="matrix(0.9982 -0.06 0.06 0.9982 -9.7188 19.1703)" width="14.984" height="81.934"/>
	</g>
</g>
<g>
	<g>
		<rect x="310.78" y="220.639" transform="matrix(0.9982 -0.06 0.06 0.9982 -13.3984 19.5157)" width="14.984" height="24.449"/>
	</g>
</g>
<g>
</g>
<g>
</g>
<g>
</g>
<g>
</g>
<g>
</g>
<g>
</g>
<g>
</g>
<g>
</g>
<g>
</g>
<g>
</g>
<g>
</g>
<g>
</g>
<g>
</g>
<g>
</g>
<g>
</g>
</svg>
