<?xml version="1.0" encoding="iso-8859-1"?>
<!-- Generator: Adobe Illustrator 19.0.0, SVG Export Plug-In . SVG Version: 6.00 Build 0)  -->
<svg xmlns="http://www.w3.org/2000/svg" xmlns:xlink="http://www.w3.org/1999/xlink" version="1.1" id="Layer_1" x="0px" y="0px" viewBox="0 0 512 512" style="enable-background:new 0 0 512 512;" xml:space="preserve">
<g>
	<g>
		<path d="M374.75,324.352c-4.061-0.745-7.97,1.96-8.708,6.03c-13.009,71.611-66.455,87.171-97.747,90    c-0.365-0.004-0.732,0.009-1.1,0.055c-0.089,0.012-0.853,0.101-2.1,0.199c-3.051,0.206-6.112,0.313-9.074,0.318    c-2.987-0.005-6.048-0.112-9.022-0.312c-1.324-0.104-2.088-0.193-2.167-0.203c-0.372-0.048-0.745-0.066-1.107-0.056    c-24.684-2.225-58.249-11.598-79.706-43.339c-28.453-42.088-28.18-111.398,0.814-206.017l46.761-132.999    c3.067-8.723,1.707-18.434-3.638-25.979C202.612,4.505,193.9,0,184.654,0H55.486c-6.939,0-12.585,5.646-12.585,12.586v46.701    c0,6.94,5.646,12.586,12.585,12.586h54.434c-6.654,12.247-16.436,31.394-26.745,55.499c-1.627,3.804,0.137,8.205,3.941,9.832    c3.806,1.63,8.206-0.138,9.832-3.941c10.529-24.618,20.481-43.921,26.975-55.778c2.384-4.352,2.297-9.498-0.233-13.767    c-2.532-4.274-7.009-6.825-11.977-6.825H57.882V14.979h126.772c4.462,0,8.499,2.088,11.079,5.729    c2.578,3.641,3.208,8.143,1.729,12.352l-46.811,133.143c-0.035,0.096-0.066,0.191-0.096,0.288    c-30.43,99.234-30.075,172.897,1.053,218.943c25.004,36.989,63.642,47.576,91.653,49.945c0.216,0.019,0.428,0.033,0.647,0.025    c0.489,0.05,1.16,0.112,2.007,0.178c3.375,0.227,6.767,0.345,10.106,0.351c3.314-0.006,6.706-0.124,10.158-0.357    c0.802-0.063,1.449-0.123,1.926-0.171c0.211-0.009,0.433-0.007,0.65-0.026c16.8-1.421,41.464-6.312,63.561-21.55    c25.634-17.675,41.939-44.851,48.464-80.769C381.519,328.989,378.82,325.091,374.75,324.352z"/>
	</g>
</g>
<g>
	<g>
		<path d="M466.964,252.205c-13.484-79.459-49.192-151.477-64.867-180.331h54.433c6.939,0,12.585-5.646,12.585-12.586V12.586    C469.115,5.646,463.469,0,456.53,0H327.363c-9.247,0-17.958,4.505-23.301,12.049c-5.346,7.545-6.705,17.256-3.638,25.979    l46.761,133c13.839,45.161,21.176,85.113,21.811,118.756c0.078,4.136,3.491,7.448,7.63,7.348c4.136-0.078,7.426-3.494,7.348-7.63    c-0.662-35.071-8.236-76.458-22.512-123.01c-0.03-0.097-0.061-0.192-0.095-0.288L314.555,33.061    c-1.48-4.21-0.85-8.711,1.729-12.352c2.58-3.641,6.617-5.729,11.079-5.729h126.772v41.915h-53.831    c-4.968,0-9.445,2.551-11.977,6.825c-2.53,4.269-2.617,9.415-0.233,13.767c14.823,27.064,50.743,98.51,64.101,177.226    c16.73,98.587-7.932,170.944-73.308,215.068c-2.134,1.315-48.9,29.43-122.641,27.1c-0.16-0.006-0.317-0.006-0.475,0    c-73.524,2.331-120.578-25.837-122.648-27.103C28.077,398.87,47.636,267.585,82.553,169.919c1.393-3.896-0.637-8.182-4.532-9.575    s-8.181,0.636-9.574,4.532c-21.88,61.2-31.297,116.789-27.989,165.223c4.527,66.279,32.926,117.478,84.409,152.178    c0.06,0.04,0.121,0.08,0.182,0.119c1.985,1.255,47.696,29.606,121.894,29.604c2.974,0,6-0.045,9.065-0.14    c3.07,0.094,6.086,0.14,9.065,0.14c74.191-0.002,119.909-28.349,121.895-29.604c0.061-0.039,0.122-0.079,0.182-0.119    c38.551-25.984,64.328-61.508,76.615-105.588C473.798,340.696,474.873,298.814,466.964,252.205z"/>
	</g>
</g>
<g>
	<g>
		<g>
			<path d="M98.78,357.712c-2.413-11.697-3.644-24.546-3.661-38.191c-0.005-4.134-3.358-7.481-7.49-7.481c-0.003,0-0.006,0-0.009,0     c-4.137,0.005-7.486,3.363-7.481,7.499c0.017,14.653,1.353,28.515,3.969,41.199c0.73,3.541,3.848,5.979,7.328,5.979     c0.502,0,1.011-0.051,1.521-0.156C97.008,365.725,99.616,361.763,98.78,357.712z"/>
			<path d="M89.486,287.117c0.348,0.049,0.695,0.072,1.037,0.072c3.68,0,6.89-2.715,7.409-6.464     c1.695-12.24,4.188-25.198,7.408-38.513c0.972-4.02-1.499-8.069-5.52-9.041c-4.017-0.978-8.068,1.499-9.041,5.52     c-3.336,13.796-5.923,27.248-7.685,39.98C82.527,282.768,85.388,286.55,89.486,287.117z"/>
			<path d="M159.318,85.026c-3.653-1.943-8.189-0.55-10.127,3.103c-4.075,7.676-10.479,20.208-17.847,36.321     c-1.721,3.762-0.066,8.206,3.696,9.926c1.009,0.463,2.068,0.681,3.11,0.681c2.841,0,5.558-1.624,6.816-4.377     c7.216-15.78,13.475-28.029,17.455-35.527C164.361,91.5,162.971,86.965,159.318,85.026z"/>
			<path d="M134.204,422.434c-9.235-8.313-16.932-18.152-22.877-29.243c-1.955-3.646-6.495-5.017-10.14-3.063     c-3.646,1.955-5.017,6.494-3.063,10.14c6.765,12.621,15.532,23.825,26.058,33.3c1.432,1.288,3.223,1.923,5.009,1.923     c2.049,0,4.09-0.836,5.569-2.479C137.528,429.938,137.279,425.202,134.204,422.434z"/>
			<path d="M106.677,209.123c0.766,0.249,1.543,0.367,2.309,0.367c3.16,0,6.098-2.016,7.124-5.185     c3.924-12.118,8.42-24.633,13.362-37.194c1.514-3.851-0.379-8.198-4.228-9.713c-3.855-1.513-8.198,0.38-9.713,4.228     c-5.054,12.849-9.654,25.655-13.672,38.064C100.585,203.625,102.742,207.849,106.677,209.123z"/>
			<path d="M404.769,234.61c3.438,13.244,6.182,26.167,8.158,38.409c0.594,3.679,3.775,6.297,7.386,6.297     c0.396,0,0.799-0.032,1.202-0.096c4.084-0.659,6.86-4.504,6.201-8.588c-2.051-12.703-4.893-26.088-8.447-39.784     c-1.038-4.004-5.128-6.412-9.131-5.369C406.133,226.518,403.73,230.607,404.769,234.61z"/>
			<path d="M400.527,201.93c0.797,0,1.606-0.127,2.403-0.397c3.918-1.326,6.019-5.577,4.692-9.496     c-4.193-12.385-8.945-25.13-14.126-37.882c-1.557-3.833-5.924-5.679-9.758-4.12c-3.832,1.556-5.677,5.925-4.12,9.758     c5.069,12.477,9.718,24.941,13.816,37.047C394.49,199.962,397.404,201.93,400.527,201.93z"/>
			<path d="M413.922,382.791c-3.762-1.716-8.206-0.055-9.921,3.709c-5.284,11.591-12.295,21.946-20.839,30.777     c-2.876,2.972-2.797,7.714,0.176,10.591c1.454,1.407,3.332,2.107,5.207,2.107c1.958,0,3.915-0.763,5.383-2.282     c9.734-10.062,17.709-21.831,23.703-34.981C419.347,388.949,417.687,384.506,413.922,382.791z"/>
			<path d="M358.9,80.911c-2.042-3.598-6.611-4.857-10.21-2.819c-3.597,2.041-4.859,6.612-2.819,10.21     c0.076,0.135,7.729,13.674,17.86,35.22c1.276,2.713,3.971,4.305,6.783,4.305c1.068,0,2.153-0.229,3.182-0.714     c3.743-1.76,5.351-6.221,3.591-9.965C366.889,95.036,359.221,81.478,358.9,80.911z"/>
			<path d="M202.054,454.435c-13.31-2.834-25.548-6.769-36.371-11.697c-3.765-1.713-8.205-0.051-9.92,3.714     c-1.713,3.764-0.051,8.205,3.714,9.92c11.81,5.376,25.087,9.655,39.458,12.715c0.525,0.111,1.05,0.166,1.567,0.166     c3.459,0,6.569-2.412,7.319-5.932C208.682,459.275,206.1,455.297,202.054,454.435z"/>
			<path d="M431.755,311.342c-0.123-4.057-3.45-7.262-7.482-7.262c-0.077,0-0.154,0.001-0.232,0.004     c-4.134,0.125-7.385,3.579-7.258,7.714c0.075,2.485,0.114,4.985,0.115,7.428c0,10.904-0.775,21.333-2.302,31.001     c-0.646,4.086,2.144,7.921,6.23,8.567c0.396,0.063,0.789,0.093,1.177,0.093c3.621,0,6.807-2.632,7.39-6.324     c1.649-10.437,2.485-21.653,2.485-33.34C431.877,316.628,431.836,313.976,431.755,311.342z"/>
			<path d="M279.262,458.937c-5.415,0.477-11.057,0.822-16.773,1.026h-12.958c-3.041-0.109-6.079-0.259-9.033-0.444     c-4.123-0.262-7.686,2.879-7.944,7.007c-0.259,4.129,2.878,7.686,7.007,7.944c3.129,0.196,6.349,0.354,9.568,0.468     c0.088,0.003,0.177,0.005,0.266,0.005h13.227c0.087,0,0.176-0.002,0.266-0.005c6.022-0.213,11.973-0.576,17.689-1.08     c4.12-0.363,7.167-3.998,6.803-8.118C287.017,461.619,283.374,458.562,279.262,458.937z"/>
			<path d="M353.112,439.431c-10.526,5.497-22.527,9.962-35.672,13.27c-4.011,1.01-6.444,5.081-5.435,9.092     c0.855,3.397,3.907,5.663,7.258,5.663c0.606,0,1.221-0.074,1.834-0.226c14.28-3.595,27.384-8.48,38.949-14.519     c3.667-1.916,5.087-6.44,3.173-10.107C361.302,438.936,356.776,437.518,353.112,439.431z"/>
		</g>
	</g>
</g>
<g>
</g>
<g>
</g>
<g>
</g>
<g>
</g>
<g>
</g>
<g>
</g>
<g>
</g>
<g>
</g>
<g>
</g>
<g>
</g>
<g>
</g>
<g>
</g>
<g>
</g>
<g>
</g>
<g>
</g>
</svg>
