<?xml version="1.0" encoding="iso-8859-1"?>
<!-- Generator: Adobe Illustrator 19.0.0, SVG Export Plug-In . SVG Version: 6.00 Build 0)  -->
<svg xmlns="http://www.w3.org/2000/svg" xmlns:xlink="http://www.w3.org/1999/xlink" version="1.1" id="Layer_1" x="0px" y="0px" viewBox="0 0 512 512" style="enable-background:new 0 0 512 512;" xml:space="preserve">
<g>
	<g>
		<path d="M405.743,272.562h-60.715c-10.666,0-19.345-8.678-19.345-19.345V143.13c0-4.143-3.357-7.499-7.499-7.499    s-7.499,3.357-7.499,7.499v110.088c0,18.937,15.406,34.344,34.344,34.344h60.715c50.319,0,91.258,40.937,91.258,91.257v39.38    h-138.78v-39.38c0-58.59-47.667-106.256-106.256-106.256H191.25c-10.666,0-19.345-8.678-19.345-19.345V45.971h138.779v53.82    c0,4.143,3.357,7.499,7.499,7.499s7.499-3.357,7.499-7.499v-56.32c0-6.893-5.607-12.499-12.499-12.499H12.499    C5.607,30.972,0,36.579,0,43.471v206.692c0,4.143,3.357,7.499,7.499,7.499s7.499-3.357,7.499-7.499V45.971h141.909v207.247    c0,18.937,15.406,34.344,34.344,34.344h60.715c50.319,0,91.257,40.937,91.257,91.257v39.38H168.101h-44.942H14.999V289.782    c0-4.143-3.357-7.499-7.499-7.499S0,285.639,0,289.782l0.174,178.747c0,6.893,5.607,12.499,12.499,12.499h105.486    c6.892,0,12.499-5.607,12.499-12.499v-35.331h29.943v35.331c0,6.893,5.607,12.499,12.499,12.499h172.375h0.247h153.779    c6.893,0,12.499-5.607,12.499-12.499v-89.711C512,320.228,464.333,272.562,405.743,272.562z M115.66,466.029H15.173v-32.832    H115.66V466.029z M343.222,466.029H175.6v-32.832h167.622V466.029z M497.001,466.029h-138.78v-32.832h138.78V466.029z"/>
	</g>
</g>
<g>
	<g>
		<circle cx="274.65" cy="76.514" r="8.584"/>
	</g>
</g>
<g>
	<g>
		<circle cx="262.181" cy="127.46" r="8.584"/>
	</g>
</g>
<g>
	<g>
		<circle cx="91.243" cy="338.045" r="8.584"/>
	</g>
</g>
<g>
	<g>
		<circle cx="120.871" cy="76.514" r="8.584"/>
	</g>
</g>
<g>
	<g>
		<circle cx="108.412" cy="127.46" r="8.584"/>
	</g>
</g>
<g>
	<g>
		<circle cx="67.085" cy="392.071" r="8.584"/>
	</g>
</g>
<g>
	<g>
		<circle cx="39.593" cy="358.604" r="8.584"/>
	</g>
</g>
<g>
</g>
<g>
</g>
<g>
</g>
<g>
</g>
<g>
</g>
<g>
</g>
<g>
</g>
<g>
</g>
<g>
</g>
<g>
</g>
<g>
</g>
<g>
</g>
<g>
</g>
<g>
</g>
<g>
</g>
</svg>
