<?xml version="1.0" encoding="iso-8859-1"?>
<!-- Generator: Adobe Illustrator 19.0.0, SVG Export Plug-In . SVG Version: 6.00 Build 0)  -->
<svg xmlns="http://www.w3.org/2000/svg" xmlns:xlink="http://www.w3.org/1999/xlink" version="1.1" id="Capa_1" x="0px" y="0px" viewBox="0 0 512 512" style="enable-background:new 0 0 512 512;" xml:space="preserve">
<g>
	<g>
		<path d="M372.77,73.854h-1.063V57.303h12.491V0H127.8v57.303h12.492v16.551h-1.063c-28.133,0-51.021,22.888-51.021,51.021V486.37    c0,14.133,11.498,25.63,25.63,25.63h284.324c14.133,0,25.63-11.498,25.63-25.63V124.875    C423.791,96.742,400.903,73.854,372.77,73.854z M142.8,15h226.398v27.303H142.8V15z M356.707,57.303v16.551H155.291V57.303    H356.707z M408.791,486.37c0,5.861-4.769,10.63-10.63,10.63H113.837c-5.862,0-10.63-4.769-10.63-10.63V124.875    c0-19.862,16.159-36.021,36.021-36.021h1.063h231.416h1.063c19.861,0,36.021,16.159,36.021,36.021V486.37z"/>
	</g>
</g>
<g>
	<g>
		<path d="M132.678,163.848V435.48h246.643V163.848H132.678z M364.321,420.48H147.678V178.848h216.643V420.48z"/>
	</g>
</g>
<g>
	<g>
		<rect x="210.879" y="472.57" width="36.989" height="15"/>
	</g>
</g>
<g>
	<g>
		<rect x="126.109" y="472.57" width="74.52" height="15"/>
	</g>
</g>
<g>
	<g>
		<rect x="266.939" y="98.4" width="32.33" height="15"/>
	</g>
</g>
<g>
	<g>
		<path d="M368.065,98.397h-57.19v15h57.19c9.296,0,16.859,7.563,16.859,16.86v4.133h15v-4.133    C399.925,112.689,385.633,98.397,368.065,98.397z"/>
	</g>
</g>
<g>
	<g>
		<path d="M318.812,293.815c24.186-8.593,39.381-25.269,35.621-39.533c-2.637-10.001-13.506-15.973-29.074-15.973    c-7.504,0-15.784,1.385-23.945,4.004c-6.734,2.161-12.995,5.034-18.506,8.429c-2.639-4.287-5.652-7.855-8.953-10.628l6.485-11.838    l-13.156-7.207l-6.851,12.506c-1.456-0.254-2.934-0.393-4.433-0.393c-1.5,0-2.978,0.139-4.433,0.393l-6.852-12.506l-13.155,7.207    l6.485,11.838c-3.301,2.773-6.314,6.342-8.953,10.628c-5.511-3.395-11.773-6.268-18.506-8.429    c-8.161-2.619-16.441-4.004-23.945-4.004c-15.568,0-26.437,5.971-29.074,15.973c-3.761,14.264,11.433,30.94,35.62,39.535    c-19.813,12.059-36.72,33.065-29.108,48.353c1.929,3.876,7.11,10.378,20.129,10.379h0.001c10.053,0,22.53-4.068,34.234-11.162    c3.717-2.253,7.267-4.772,10.555-7.453c5.229,8.494,12.016,14.265,19.501,16.588v10.235h15v-10.235    c7.486-2.323,14.273-8.094,19.502-16.588c3.288,2.68,6.838,5.199,10.555,7.452c11.702,7.093,24.181,11.162,34.234,11.162    c0.001,0,0.001,0,0.002,0c13.018,0,18.199-6.502,20.129-10.379C355.532,326.881,338.625,305.875,318.812,293.815z M210.667,328.56    c-9.288,5.629-19.179,8.99-26.46,8.99c-3.447,0-6.078-0.81-6.702-2.064c-1.972-3.961,5.488-17.953,23.596-28.928    c5.828-3.532,11.805-6.158,17.388-7.646c0.455,7.437,1.691,14.605,3.653,21.17C218.726,323.154,214.823,326.042,210.667,328.56z     M218.671,283.482c-0.351,0.068-0.704,0.14-1.058,0.215c-5.379-0.248-11.267-1.358-17.089-3.227    c-20.492-6.576-29.546-18.223-28.454-22.364c0.613-2.326,5.927-4.797,14.569-4.797c5.968,0,12.663,1.136,19.361,3.286    c5.96,1.913,11.593,4.544,16.315,7.59C220.479,270.168,219.248,276.69,218.671,283.482z M273.604,319.36    c-4.367,10.681-11.113,17.316-17.605,17.316c-6.492,0-13.238-6.635-17.605-17.317c-3.215-7.863-4.914-17.175-4.914-26.93    c0-0.323,0.007-0.643,0.013-0.962l0.017-1.093l0.001-0.063c0.242-9.497,2.092-18.466,5.351-25.94    c4.419-10.136,10.825-16.188,17.137-16.188c6.311,0,12.717,6.052,17.137,16.188c3.226,7.399,5.071,16.265,5.344,25.654    l0.024,1.423c0.007,0.327,0.014,0.653,0.014,0.982C278.518,302.186,276.819,311.498,273.604,319.36z M305.996,256.595    c6.698-2.15,13.394-3.286,19.361-3.286c8.643,0,13.957,2.472,14.57,4.796c1.093,4.142-7.962,15.79-28.454,22.366    c-5.823,1.869-11.71,2.979-17.089,3.227c-0.354-0.076-0.707-0.147-1.058-0.216c-0.576-6.791-1.808-13.313-3.644-19.297    C294.403,261.139,300.036,258.508,305.996,256.595z M334.493,335.486c-0.624,1.254-3.254,2.064-6.701,2.064h-0.001    c-7.282,0-17.174-3.361-26.46-8.99c-4.156-2.519-8.06-5.406-11.476-8.479c1.962-6.564,3.199-13.733,3.653-21.17    c5.582,1.488,11.56,4.114,17.388,7.646C329.004,317.533,336.465,331.525,334.493,335.486z"/>
	</g>
</g>
<g>
</g>
<g>
</g>
<g>
</g>
<g>
</g>
<g>
</g>
<g>
</g>
<g>
</g>
<g>
</g>
<g>
</g>
<g>
</g>
<g>
</g>
<g>
</g>
<g>
</g>
<g>
</g>
<g>
</g>
</svg>
