<?xml version="1.0" encoding="iso-8859-1"?>
<!-- Generator: Adobe Illustrator 19.0.0, SVG Export Plug-In . SVG Version: 6.00 Build 0)  -->
<svg xmlns="http://www.w3.org/2000/svg" xmlns:xlink="http://www.w3.org/1999/xlink" version="1.1" id="Layer_1" x="0px" y="0px" viewBox="0 0 512.003 512.003" style="enable-background:new 0 0 512.003 512.003;" xml:space="preserve">
<g>
	<g>
		<path d="M511.804,421.73c-2.412-29.909-27.845-53.458-58.283-54.336c11.535-11.214,18.249-27.155,17.824-44.407    c-0.785-31.828-27.799-57.722-60.22-57.722h-2.322c11.518-11.213,18.223-27.143,17.798-44.383    c-0.785-31.828-27.799-57.722-60.22-57.722c-1.188,0-2.305-0.463-3.145-1.304c-0.828-0.829-1.284-1.929-1.283-3.094    c0.093-84.935-75.468-118.884-120.517-131.56c-9.282-2.61-19.042,0.264-25.471,7.504c-6.412,7.222-8.107,17.227-4.424,26.109    c8.562,20.647,11.936,39.535,10.03,56.141c-3.022,26.34-25.677,46.204-52.696,46.204h-23.254    c-32.385,0-59.398,25.862-60.218,57.649c-0.444,17.219,6.488,33.185,18.398,44.455h-2.924c-32.384,0-59.397,25.862-60.218,57.649    c-0.436,16.913,6.915,33.053,19.218,44.455c-31.052,0.186-57.231,23.996-59.679,54.36c-1.343,16.654,4.168,32.6,15.516,44.901    c11.21,12.15,27.057,19.118,43.479,19.118h393.613c16.422,0,32.269-6.969,43.479-19.118    C507.636,454.33,513.147,438.384,511.804,421.73z M485.285,456.48c-8.385,9.087-20.222,14.3-32.477,14.3H59.195    c-12.255,0-24.092-5.212-32.476-14.3c-8.482-9.193-12.601-21.107-11.598-33.547c1.836-22.763,21.656-40.593,45.123-40.593h23.718    c0.502,0,0.994-0.045,1.472-0.131h50.902c4.134,0,7.485-3.351,7.485-7.485c0-4.134-3.351-7.485-7.485-7.485H88.555    c-0.585-0.389-1.228-0.711-1.922-0.947c-18.745-6.385-31.495-24.063-31.006-42.99c0.613-23.746,20.913-43.065,45.252-43.065    h20.807h5.988h78.427c4.134,0,7.485-3.351,7.485-7.485s-3.351-7.485-7.485-7.485h-73.653c-0.63-0.445-1.329-0.811-2.093-1.072    c-18.435-6.319-30.485-23.598-29.985-42.997c0.612-23.746,20.912-43.065,45.252-43.065h23.254    c34.631,0,63.679-25.566,67.569-59.468c2.199-19.164-1.527-40.556-11.074-63.582c-1.49-3.593-0.821-7.495,1.79-10.436    c2.628-2.959,6.448-4.092,10.22-3.031c50.043,14.081,109.68,45.833,109.602,117.132c-0.006,5.167,2.005,10.029,5.662,13.691    c3.668,3.672,8.547,5.695,13.736,5.695c24.367,0,44.668,19.344,45.254,43.12c0.482,19.546-11.157,36.806-28.959,42.947    c-0.758,0.261-1.452,0.625-2.079,1.067h-61.72c-4.134,0-7.485,3.351-7.485,7.485c0,4.134,3.351,7.485,7.485,7.485h66.493h2.37    h23.384c24.367,0,44.667,19.344,45.253,43.12c0.482,19.546-11.157,36.805-28.967,42.949c-0.679,0.235-1.306,0.553-1.88,0.934    H249.749c-4.134,0-7.485,3.351-7.485,7.485c0,4.134,3.351,7.485,7.485,7.485h178.893c0.478,0.086,0.97,0.131,1.471,0.131h21.645    c23.467,0,43.287,17.831,45.123,40.593C497.885,435.373,493.766,447.286,485.285,456.48z"/>
	</g>
</g>
<g>
	<g>
		<path d="M276.226,265.266h-26.477c-4.134,0-7.485,3.351-7.485,7.485s3.351,7.485,7.485,7.485h26.477    c4.134,0,7.485-3.351,7.485-7.485S280.36,265.266,276.226,265.266z"/>
	</g>
</g>
<g>
	<g>
		<path d="M207.086,367.239h-26.478c-4.134,0-7.485,3.351-7.485,7.485c0,4.134,3.351,7.485,7.485,7.485h26.478    c4.134,0,7.485-3.351,7.485-7.485C214.571,370.589,211.22,367.239,207.086,367.239z"/>
	</g>
</g>
<g>
</g>
<g>
</g>
<g>
</g>
<g>
</g>
<g>
</g>
<g>
</g>
<g>
</g>
<g>
</g>
<g>
</g>
<g>
</g>
<g>
</g>
<g>
</g>
<g>
</g>
<g>
</g>
<g>
</g>
</svg>
