<?xml version="1.0" encoding="iso-8859-1"?>
<!-- Generator: Adobe Illustrator 19.0.0, SVG Export Plug-In . SVG Version: 6.00 Build 0)  -->
<svg xmlns="http://www.w3.org/2000/svg" xmlns:xlink="http://www.w3.org/1999/xlink" version="1.1" id="Capa_1" x="0px" y="0px" viewBox="0 0 511.999 511.999" style="enable-background:new 0 0 511.999 511.999;" xml:space="preserve">
<g>
	<g>
		<path d="M263.595,275.486V190.15l32.644-32.644c4.115,0.801,8.306,1.208,12.51,1.208c0.001,0,0.001,0,0.002,0    c17.396,0,33.75-6.772,46.047-19.069c16.384-16.384,22.843-40.493,16.859-62.918l-1.133-4.248l-4.248-1.133    c-5.495-1.466-11.171-2.21-16.87-2.21c-17.398,0-33.752,6.772-46.049,19.069c-15.326,15.326-21.966,37.414-17.86,58.559    l-21.901,21.901V112.65c17.855-12.049,28.778-32.362,28.778-54.036c0-23.17-12.479-44.786-32.569-56.411L255.999,0l-3.805,2.202    c-20.089,11.626-32.569,33.241-32.569,56.411c0,21.674,10.923,41.987,28.778,54.036v111.615l-21.96-21.96    c4.106-21.146-2.534-43.233-17.86-58.559c-12.297-12.297-28.65-19.069-46.049-19.069c-5.699,0-11.374,0.743-16.87,2.21    l-4.248,1.133l-1.133,4.248c-5.984,22.427,0.476,46.536,16.859,62.918c12.296,12.296,28.65,19.068,46.049,19.069    c0.001,0,0.001,0,0.001,0c4.203,0,8.394-0.408,12.51-1.208l32.702,32.702v29.737H98.786v69.835h14.464l18.81,166.679h247.878    l18.81-166.679h14.464v-69.835H263.595z M314.099,98.947c9.428-9.428,21.966-14.619,35.307-14.619    c2.865,0,5.723,0.245,8.539,0.729c2.727,15.894-2.395,32.353-13.888,43.847c-9.428,9.428-21.967,14.62-35.306,14.619    c-2.866,0-5.723-0.245-8.539-0.729C297.483,126.899,302.606,110.441,314.099,98.947z M211.73,198.335    c-2.815,0.485-5.672,0.729-8.538,0.729h-0.001c-13.341,0-25.88-5.193-35.307-14.619c-11.494-11.494-16.617-27.953-13.888-43.847    c2.815-0.485,5.674-0.729,8.539-0.729c13.34,0,25.879,5.191,35.307,14.619C209.335,165.983,214.459,182.439,211.73,198.335z     M234.817,58.614c0-16.255,8.015-31.514,21.182-40.825c13.167,9.309,21.182,24.57,21.182,40.825    c0,16.254-8.015,31.514-21.182,40.824C242.832,90.127,234.817,74.868,234.817,58.614z M366.365,496.808H145.634l-14.273-126.47    h55.607v-15.192h-57.322l-1.109-9.827H383.46L366.365,496.808z M398.022,330.13h-0.001H113.978v-39.451h284.045V330.13z"/>
	</g>
</g>
<g>
	<g>
		<rect x="239.125" y="472.214" width="86.177" height="15.192"/>
	</g>
</g>
<g>
	<g>
		<rect x="335.287" y="472.214" width="23.876" height="15.192"/>
	</g>
</g>
<g>
	<g>
		<rect x="199.981" y="355.148" width="18.176" height="15.192"/>
	</g>
</g>
<g>
</g>
<g>
</g>
<g>
</g>
<g>
</g>
<g>
</g>
<g>
</g>
<g>
</g>
<g>
</g>
<g>
</g>
<g>
</g>
<g>
</g>
<g>
</g>
<g>
</g>
<g>
</g>
<g>
</g>
</svg>
