<?xml version="1.0" encoding="iso-8859-1"?>
<!-- Generator: Adobe Illustrator 19.0.0, SVG Export Plug-In . SVG Version: 6.00 Build 0)  -->
<svg xmlns="http://www.w3.org/2000/svg" xmlns:xlink="http://www.w3.org/1999/xlink" version="1.1" id="Capa_1" x="0px" y="0px" viewBox="0 0 512 512" style="enable-background:new 0 0 512 512;" xml:space="preserve">
<g>
	<g>
		<path d="M262.152,181.742c-26.868,0-48.727,21.858-48.727,48.726c0,26.868,21.859,48.727,48.727,48.727    c26.868,0,48.727-21.859,48.727-48.727C310.879,203.6,289.02,181.742,262.152,181.742z M262.152,264.194    c-18.597,0-33.727-15.13-33.727-33.727s15.13-33.726,33.727-33.726c18.597,0,33.727,15.129,33.727,33.726    S280.749,264.194,262.152,264.194z"/>
	</g>
</g>
<g>
	<g>
		<path d="M262.152,121.161c-60.272,0-109.307,49.035-109.307,109.307c0,60.272,49.035,109.307,109.307,109.307    c60.272,0,109.307-49.035,109.307-109.307C371.459,170.196,322.424,121.161,262.152,121.161z M262.152,324.775    c-52.001,0-94.307-42.306-94.307-94.307c0-52.001,42.306-94.307,94.307-94.307c52.001,0,94.307,42.306,94.307,94.307    C356.459,282.469,314.153,324.775,262.152,324.775z"/>
	</g>
</g>
<g>
	<g>
		<path d="M492.62,409.038v-103.85V266.75v-36.282c0-61.56-23.973-119.436-67.503-162.965C381.587,23.974,323.712,0,262.152,0    S142.717,23.973,99.187,67.502c-43.53,43.529-67.503,101.406-67.503,162.966v195.164H20.99V475.5h-7.338v15h7.338V512h96.968    v-21.5h7.338v-15h-7.338v-49.868h-10.694v-24.513c18.351,16.697,39.105,30.215,61.908,40.284    c29.354,12.961,60.638,19.534,92.98,19.534c32.342,0,63.625-6.572,92.98-19.534c22.802-10.068,43.557-23.587,61.908-40.284v7.919    h-5.728v15h5.728h0.813L428.248,512h53.164l10.396-87.962h0.812h5.728v-15H492.62z M46.684,425.632V312.429    c0.19,0.499,0.394,0.992,0.587,1.49c0.328,0.845,0.658,1.689,0.997,2.53c0.335,0.833,0.677,1.662,1.022,2.491    c0.347,0.834,0.696,1.667,1.053,2.497c0.355,0.826,0.717,1.648,1.082,2.469c0.366,0.825,0.735,1.649,1.111,2.47    c0.375,0.819,0.757,1.634,1.142,2.448c0.385,0.815,0.773,1.629,1.167,2.44c0.395,0.811,0.797,1.618,1.201,2.424    c0.404,0.806,0.811,1.61,1.225,2.411c0.415,0.804,0.837,1.604,1.262,2.402c0.422,0.794,0.847,1.587,1.279,2.377    c0.435,0.795,0.876,1.586,1.321,2.376c0.441,0.785,0.885,1.569,1.336,2.349c0.453,0.784,0.913,1.563,1.375,2.342    c0.462,0.778,0.927,1.555,1.398,2.328c0.47,0.771,0.947,1.539,1.427,2.305c0.482,0.769,0.966,1.536,1.457,2.3    c0.489,0.76,0.984,1.517,1.483,2.272c0.501,0.76,1.005,1.518,1.516,2.272c0.506,0.748,1.019,1.492,1.534,2.234    c0.522,0.751,1.046,1.501,1.577,2.247c0.523,0.735,1.052,1.465,1.584,2.194c0.541,0.741,1.085,1.481,1.635,2.217    c0.542,0.724,1.09,1.444,1.64,2.163c0.559,0.728,1.12,1.455,1.688,2.177c0.561,0.714,1.128,1.423,1.697,2.131    c0.577,0.716,1.156,1.43,1.742,2.141c0.579,0.702,1.164,1.401,1.752,2.097c0.594,0.703,1.191,1.404,1.794,2.101    c0.599,0.693,1.204,1.381,1.812,2.067c0.609,0.688,1.222,1.373,1.84,2.054c0.284,0.313,0.559,0.631,0.844,0.943v39.444    L46.684,425.632L46.684,425.632z M102.958,497H35.99v-6.5h66.968V497z M102.958,475.5H35.99v-34.868h66.968V475.5z     M262.152,385.356c-85.406,0-154.888-69.482-154.888-154.888S176.747,75.581,262.152,75.581S417.04,145.063,417.04,230.468    S347.558,385.356,262.152,385.356z M262.152,60.581c-93.677,0-169.888,76.211-169.888,169.887s76.211,169.888,169.888,169.888    c1.313,0,2.622-0.02,3.928-0.05c0.378-0.009,0.755-0.021,1.132-0.032c0.993-0.029,1.985-0.067,2.974-0.114    c0.349-0.016,0.699-0.03,1.047-0.049c1.292-0.068,2.58-0.148,3.864-0.246c0.183-0.014,0.366-0.032,0.549-0.046    c1.114-0.088,2.225-0.187,3.333-0.297c0.376-0.037,0.752-0.076,1.127-0.116c1.01-0.107,2.018-0.222,3.023-0.347    c0.29-0.036,0.58-0.068,0.869-0.106c1.268-0.164,2.531-0.341,3.79-0.532c0.262-0.04,0.523-0.084,0.784-0.125    c1.02-0.16,2.038-0.329,3.052-0.507c0.359-0.063,0.719-0.127,1.077-0.192c1.067-0.195,2.131-0.399,3.192-0.613    c0.192-0.039,0.385-0.075,0.577-0.114c1.247-0.257,2.487-0.529,3.724-0.813c0.292-0.067,0.582-0.138,0.873-0.206    c0.977-0.23,1.95-0.468,2.92-0.714c0.327-0.083,0.654-0.166,0.98-0.251c1.213-0.316,2.422-0.641,3.624-0.983    c0.007-0.002,0.013-0.004,0.02-0.006c1.229-0.35,2.45-0.717,3.667-1.093c0.297-0.092,0.593-0.187,0.89-0.28    c0.959-0.303,1.915-0.614,2.867-0.933c0.282-0.095,0.565-0.188,0.847-0.284c1.205-0.411,2.406-0.833,3.598-1.27    c0.047-0.017,0.093-0.035,0.14-0.052c1.133-0.417,2.259-0.848,3.38-1.288c0.289-0.114,0.578-0.229,0.867-0.344    c0.968-0.386,1.932-0.78,2.891-1.183c0.216-0.091,0.433-0.179,0.648-0.271c1.172-0.498,2.337-1.008,3.496-1.532    c0.142-0.064,0.282-0.131,0.424-0.195c1.008-0.459,2.011-0.929,3.008-1.407c0.269-0.129,0.537-0.258,0.805-0.388    c1.008-0.49,2.011-0.988,3.008-1.497c0.121-0.062,0.244-0.122,0.365-0.184c1.137-0.584,2.265-1.181,3.387-1.789    c0.184-0.1,0.366-0.202,0.55-0.302c0.936-0.512,1.867-1.033,2.792-1.563c0.241-0.138,0.481-0.275,0.721-0.414    c2.188-1.266,4.346-2.578,6.472-3.938c0.203-0.13,0.405-0.262,0.608-0.393c0.886-0.572,1.767-1.152,2.642-1.74    c0.206-0.139,0.413-0.276,0.619-0.416c2.089-1.418,4.145-2.881,6.167-4.388c0.209-0.156,0.416-0.313,0.624-0.469    c0.856-0.644,1.706-1.296,2.549-1.956c0.161-0.125,0.322-0.25,0.482-0.376c1.006-0.793,2.005-1.596,2.992-2.411    c0.056-0.046,0.111-0.094,0.168-0.14c0.905-0.749,1.8-1.508,2.689-2.274c0.203-0.176,0.406-0.351,0.608-0.528    c0.844-0.735,1.682-1.477,2.511-2.229c0.101-0.091,0.203-0.181,0.304-0.273c0.945-0.86,1.88-1.731,2.805-2.612    c0.124-0.118,0.246-0.238,0.37-0.357c0.786-0.753,1.565-1.514,2.336-2.281c0.193-0.192,0.385-0.383,0.577-0.576    c0.853-0.857,1.699-1.72,2.534-2.595c0.022-0.023,0.045-0.047,0.068-0.07c0.879-0.922,1.746-1.856,2.605-2.798    c0.157-0.173,0.313-0.347,0.469-0.52c0.701-0.775,1.395-1.557,2.081-2.345c0.175-0.2,0.35-0.4,0.524-0.601    c1.636-1.895,3.231-3.827,4.783-5.794c0.172-0.219,0.343-0.438,0.515-0.658c0.632-0.808,1.256-1.622,1.874-2.442    c0.152-0.202,0.306-0.403,0.458-0.607c0.753-1.01,1.497-2.027,2.229-3.053c0.052-0.073,0.102-0.146,0.154-0.219    c0.664-0.935,1.316-1.878,1.961-2.827c0.177-0.26,0.352-0.52,0.527-0.781c0.574-0.855,1.141-1.715,1.701-2.581    c0.123-0.191,0.248-0.38,0.371-0.571c0.672-1.05,1.333-2.107,1.982-3.172c0.115-0.189,0.227-0.38,0.342-0.57    c0.531-0.879,1.054-1.763,1.57-2.652c0.169-0.291,0.337-0.582,0.504-0.874c0.531-0.929,1.054-1.863,1.568-2.802    c0.084-0.154,0.171-0.306,0.254-0.46c0.59-1.086,1.167-2.181,1.733-3.281c0.139-0.27,0.275-0.542,0.412-0.813    c0.435-0.856,0.863-1.716,1.284-2.58c0.154-0.317,0.309-0.633,0.461-0.951c0.505-1.053,1.001-2.11,1.484-3.175    c0.029-0.064,0.06-0.128,0.089-0.193c0.006-0.013,0.012-0.025,0.018-0.038v79.988c-40.962,42.392-95.848,65.7-154.888,65.7    c-60.025,0-115.756-24.091-156.926-67.835c-37.751-40.112-58.542-92.542-58.542-147.633C46.684,111.659,143.343,15,262.152,15    c118.81,0,215.468,96.659,215.468,215.468v36.282h-45.58v-36.282C432.04,136.792,355.829,60.581,262.152,60.581z M477.62,281.75    v8.438h-45.474v-8.438H477.62z M468.08,497h-26.501l-1.53-12.943h29.56L468.08,497z M471.383,469.057h-33.106l-5.321-45.019    h43.747L471.383,469.057z M477.621,409.038h-0.001h-45.58v-22.823v-81.028h45.581V409.038z"/>
	</g>
</g>
<g>
</g>
<g>
</g>
<g>
</g>
<g>
</g>
<g>
</g>
<g>
</g>
<g>
</g>
<g>
</g>
<g>
</g>
<g>
</g>
<g>
</g>
<g>
</g>
<g>
</g>
<g>
</g>
<g>
</g>
</svg>
