<?xml version="1.0" encoding="iso-8859-1"?>
<!-- Generator: Adobe Illustrator 19.0.0, SVG Export Plug-In . SVG Version: 6.00 Build 0)  -->
<svg xmlns="http://www.w3.org/2000/svg" xmlns:xlink="http://www.w3.org/1999/xlink" version="1.1" id="Layer_1" x="0px" y="0px" viewBox="0 0 512 512" style="enable-background:new 0 0 512 512;" xml:space="preserve">
<g>
	<g>
		<path d="M498.91,242.072c-1.61-3.819-6.012-5.614-9.832-4.001c-3.82,1.609-5.612,6.012-4.002,9.832    c7.903,18.751,11.91,38.668,11.91,59.198c0,83.185-67.655,151.63-150.814,152.574c-0.586,0.007-1.164,0.011-1.748,0.011    c-16.365,0-32.158-2.622-46.987-7.455c10.971-6.312,21.268-13.905,30.718-22.716c32.447-30.253,51.317-71.34,53.136-115.694    c1.82-44.388-13.659-86.917-43.586-119.754c-21.095-23.146-47.578-39.552-76.883-48.042c0.071-1.303,0.115-2.609,0.115-3.917    v-6.331c0-46.021,37.442-83.463,83.464-83.463c46.021,0,83.463,37.441,83.463,83.463v6.328c0,21.253,8.457,41.319,23.812,56.501    c5.333,5.273,10.317,10.982,14.812,16.967c2.489,3.314,7.195,3.982,10.51,1.494c3.315-2.489,3.983-7.195,1.494-10.51    c-4.936-6.572-10.407-12.839-16.261-18.627c-12.481-12.341-19.354-28.615-19.354-45.826v-6.328    c0-54.299-44.177-98.476-98.476-98.476s-98.476,44.177-98.476,98.476v6.331c0,0.11-0.009,0.218-0.009,0.328    c-8.261-1.59-16.699-2.575-25.267-2.924c-17.536-0.713-33.579-8.111-45.173-20.832l-4.264-4.678    c-36.576-40.131-98.983-43.028-139.117-6.449c-40.132,36.576-43.026,98.983-6.45,139.117l4.264,4.679    c11.607,12.736,17.491,29.343,16.569,46.763c-2.45,46.31,13.765,90.378,45.66,124.088c1.981,2.094,4.032,4.154,6.1,6.125    c3.001,2.859,7.753,2.746,10.613-0.253c2.86-3.001,2.747-7.753-0.253-10.613c-1.882-1.794-3.75-3.669-5.554-5.576    c-29.04-30.693-43.804-70.816-41.573-112.977c1.119-21.15-6.34-42.17-20.465-57.668l-4.264-4.679    c-31-34.014-28.548-86.908,5.467-117.91c34.014-31,86.907-28.547,117.908,5.467l4.264,4.678    c14.316,15.708,34.083,24.843,55.659,25.721c41.054,1.668,78.901,19.307,106.57,49.666    c56.033,61.482,52.134,157.642-8.692,214.356c-48.492,45.215-120.12,53.965-178.234,21.778c-3.626-2.009-8.195-0.698-10.204,2.93    c-2.009,3.626-0.697,8.195,2.93,10.203c24.776,13.723,53.218,20.94,81.725,20.94c6.329,0,12.665-0.355,18.961-1.076    c16.019-1.831,31.438-5.872,45.948-11.966c20.133,8.59,42.238,13.357,65.38,13.356c0.637,0,1.281-0.004,1.92-0.011    c44.359-0.504,85.983-18.161,117.204-49.717C494.792,393.391,512,351.53,512,307.101C512,284.559,507.596,262.679,498.91,242.072z    "/>
	</g>
</g>
<g>
	<g>
		<path d="M284.082,257.821c-15.203-16.682-36.036-26.401-58.661-27.367c-22.609-0.958-44.292,6.924-61.069,22.214    c-16.777,15.289-26.64,36.155-27.77,58.751c-1.131,22.617,6.619,44.26,21.822,60.941c15.203,16.682,36.036,26.401,58.66,27.367    c1.239,0.053,2.472,0.079,3.705,0.079c21.259,0,41.507-7.841,57.365-22.293c16.777-15.29,26.639-36.156,27.77-58.751    C307.035,296.145,299.285,274.502,284.082,257.821z M290.91,318.011c-0.931,18.612-9.06,35.803-22.888,48.406    c-13.828,12.603-31.694,19.107-50.316,18.311c-18.598-0.795-35.717-8.779-48.205-22.48    c-12.489-13.703-18.853-31.487-17.924-50.079c0.931-18.612,9.06-35.802,22.889-48.405c13.072-11.913,29.753-18.376,47.266-18.376    c1.013,0,2.031,0.021,3.05,0.065c18.598,0.795,35.717,8.779,48.206,22.48C285.474,281.635,291.84,299.42,290.91,318.011z"/>
	</g>
</g>
<g>
</g>
<g>
</g>
<g>
</g>
<g>
</g>
<g>
</g>
<g>
</g>
<g>
</g>
<g>
</g>
<g>
</g>
<g>
</g>
<g>
</g>
<g>
</g>
<g>
</g>
<g>
</g>
<g>
</g>
</svg>
