<?xml version="1.0" encoding="iso-8859-1"?>
<!-- Generator: Adobe Illustrator 19.0.0, SVG Export Plug-In . SVG Version: 6.00 Build 0)  -->
<svg xmlns="http://www.w3.org/2000/svg" xmlns:xlink="http://www.w3.org/1999/xlink" version="1.1" id="Capa_1" x="0px" y="0px" viewBox="0 0 512 512" style="enable-background:new 0 0 512 512;" xml:space="preserve">
<g>
	<g>
		<path d="M258.275,0v60v60.313v83.281c0,39.994-32.537,72.531-72.531,72.531H165.4c-85.812,0-155.625,69.813-155.625,155.625    v26.527v15V512h492.45v-38.723v-15V325.515V120.313V60V0H258.275z M273.275,15h213.95v45h-213.95V15z M273.275,75L273.275,75    h213.95v30.313h-213.95V75z M40.056,497H24.775v-23.723h15.281V497z M74.561,497H55.056v-23.723h19.505V497z M109.067,497H89.561    v-23.723h19.506V497z M143.572,497h-19.505v-23.723h19.505V497z M178.077,497h-19.505v-23.723h19.505V497z M212.583,497h-19.506    v-23.723h19.506V497z M247.087,497h-19.505v-23.723h19.505V497z M281.592,497h-19.505v-23.723h19.505V497z M316.098,497h-19.506    v-23.723h19.506V497z M350.603,497h-19.505v-23.723h19.505V497z M385.108,497h-19.505v-23.723h19.505V497z M369.684,458.277    L369.684,458.277c3.743-63.113,54.428-113.797,117.541-117.541v117.541H369.684z M419.614,497h-19.506v-23.723h19.506V497z     M454.119,497h-19.505v-23.723h19.505V497z M487.225,497h-18.106v-23.723h18.106V497z M354.664,458.277H24.775V431.75    c0-77.541,63.084-140.625,140.625-140.625h20.344c48.265,0,87.531-39.267,87.531-87.531v-83.281h213.95v205.403h0    C415.842,329.496,358.444,386.893,354.664,458.277z"/>
	</g>
</g>
<g>
	<g>
		<path d="M59.575,363.335c-5.659,8.392-10.393,17.414-14.069,26.814l13.969,5.463c3.275-8.374,7.493-16.412,12.536-23.889    L59.575,363.335z"/>
	</g>
</g>
<g>
	<g>
		<path d="M69.714,350.098l11.338,9.821c23.393-27.006,57.28-42.495,92.976-42.495v-15C133.978,302.424,95.958,319.8,69.714,350.098    z"/>
	</g>
</g>
<g>
</g>
<g>
</g>
<g>
</g>
<g>
</g>
<g>
</g>
<g>
</g>
<g>
</g>
<g>
</g>
<g>
</g>
<g>
</g>
<g>
</g>
<g>
</g>
<g>
</g>
<g>
</g>
<g>
</g>
</svg>
