<?xml version="1.0" encoding="iso-8859-1"?>
<!-- Generator: Adobe Illustrator 19.0.0, SVG Export Plug-In . SVG Version: 6.00 Build 0)  -->
<svg xmlns="http://www.w3.org/2000/svg" xmlns:xlink="http://www.w3.org/1999/xlink" version="1.1" id="Capa_1" x="0px" y="0px" viewBox="0 0 511.999 511.999" style="enable-background:new 0 0 511.999 511.999;" xml:space="preserve">
<g>
	<g>
		<path d="M509.808,147.966c-17.648-30.494-50.457-49.438-85.625-49.438c-14.944,0-29.458,3.432-42.568,9.706    c2.317-7.53,3.544-15.445,3.544-23.514c0-28.602-15.407-55.286-40.208-69.64l-3.788-2.192l-3.789,2.192    c-24.801,14.352-40.208,41.037-40.208,69.64c0,12.31,2.861,24.264,8.089,35.033c-4.518-0.984-9.189-1.501-13.991-1.501    c-19.792,0-39.955,8.809-55.316,24.171C176.611,201.762,16.264,423.417,8.385,434.324c-12.352,15.966-10.914,38.731,3.37,53.015    c7.592,7.591,17.689,11.773,28.431,11.773c8.846,0,17.564-2.978,24.567-8.39c11.136-7.96,233.663-167.272,292.01-227.67    c13.79-14.275,22.205-32.012,23.694-49.945c0.541-6.503,0.119-12.87-1.174-18.985c13.711,7.007,29.063,10.859,44.899,10.859    c35.167,0,67.977-18.943,85.625-49.438l2.192-3.789L509.808,147.966z M348.726,36.506c13.383,12.25,21.308,29.738,21.308,48.213    c0,18.477-7.925,35.964-21.308,48.215V36.506z M333.6,36.506v96.427c-13.383-12.25-21.308-29.738-21.308-48.215    C312.292,66.244,320.217,48.756,333.6,36.506z M345.883,252.542c-8.674,8.98-21.262,20.341-36.388,33.166    c-9.251-4.894-29.314-16.505-40.186-30.343l-11.894,9.346c10.776,13.713,28.269,25.008,39.61,31.43    c-49.537,40.946-119.052,93.097-170.74,131.136c-24.763-20.026-36.906-37.914-37.035-38.105l-12.58,8.399    c0.548,0.823,12.456,18.461,37.032,38.947c-33.623,24.642-57.132,41.464-57.865,41.987l-0.252,0.188    c-4.445,3.465-9.77,5.296-15.4,5.296c-6.702,0-13.001-2.608-17.735-7.343c-8.929-8.929-9.81-23.174-2.047-33.134l0.166-0.221    c0.785-1.086,37.867-52.367,83.033-112.49c8.049,10.869,22.077,29.086,32.912,39.294l10.371-11.009    c-11.178-10.532-26.836-31.395-33.78-40.905c42.377-56.148,89.916-117.325,120.788-151.533    c9.37,12.205,29.474,36.612,52.381,53.532l8.987-12.167c-22.515-16.63-42.83-41.959-50.884-52.59c0.77-0.791,1.53-1.562,2.268-2.3    c12.544-12.545,28.808-19.741,44.62-19.741c13.335,0,25.434,5.051,34.989,14.607l24.855,24.855    C375.076,196.805,366.622,231.075,345.883,252.542z M424.183,189.855c-25.14,0-48.851-11.438-64.63-30.538h129.259    C473.033,178.417,449.322,189.855,424.183,189.855z M359.553,144.191c15.779-19.1,39.49-30.538,64.63-30.538    c25.139,0,48.85,11.438,64.629,30.538H359.553z"/>
	</g>
</g>
<g>
	<g>
		<path d="M171.449,262.272l-6.083,4.494l-6.083,4.494c1.229,1.663,30.478,40.949,62.449,57.811l7.057-13.379    C199.942,300.478,171.811,262.761,171.449,262.272z"/>
	</g>
</g>
<g>
</g>
<g>
</g>
<g>
</g>
<g>
</g>
<g>
</g>
<g>
</g>
<g>
</g>
<g>
</g>
<g>
</g>
<g>
</g>
<g>
</g>
<g>
</g>
<g>
</g>
<g>
</g>
<g>
</g>
</svg>
