<?xml version="1.0" encoding="iso-8859-1"?>
<!-- Generator: Adobe Illustrator 19.0.0, SVG Export Plug-In . SVG Version: 6.00 Build 0)  -->
<svg xmlns="http://www.w3.org/2000/svg" xmlns:xlink="http://www.w3.org/1999/xlink" version="1.1" id="Layer_1" x="0px" y="0px" viewBox="0 0 511.997 511.997" style="enable-background:new 0 0 511.997 511.997;" xml:space="preserve">
<g>
	<g>
		<path d="M356.615,496.9h-74.158V348.026c63.637-5.142,113.896-59.007,113.611-123.753c-0.157-35.848-16.146-70.07-43.194-93.311    c3.982-3.961,7.329-8.452,9.997-13.309c0.279-0.097,0.556-0.209,0.828-0.342l22.88-11.1c3.131-1.519,5.188-4.495,5.499-7.961    c0.313-3.467-1.18-6.764-3.991-8.818l-19.862-14.508c-2.454-9.437-7.207-17.906-13.576-24.832    c4.866-6.654,6.83-15.052,5.267-23.274c-1.107-5.829-3.901-11.136-8.081-15.347c-6.208-6.258-14.826-9.409-23.663-8.651    c-5.839,0.501-11.402,2.714-15.982,6.312c-0.116-0.12-0.233-0.24-0.352-0.359c-6.291-6.341-15.019-9.49-23.945-8.635    c-6.878,0.654-13.376,3.705-18.298,8.59c-0.687,0.682-1.365,1.428-2.018,2.22c-0.149,0.181-0.289,0.364-0.448,0.582    c-0.383,0.488-0.828,1.068-1.253,1.696c-0.217,0.32-0.417,0.646-0.613,0.976l-0.24,0.395c-0.209,0.338-0.415,0.677-0.607,1.028    c-0.275,0.505-0.523,1.019-0.766,1.529c-0.126,0.242-0.247,0.485-0.356,0.733c-0.064,0.146-0.124,0.295-0.179,0.444    c-0.681,1.604-1.218,3.256-1.607,4.937c-2.22-0.313-4.482-0.373-6.76-0.175c-6.979,0.606-13.565,3.662-18.545,8.605    c-0.687,0.682-1.365,1.428-2.021,2.224c-0.144,0.175-0.278,0.353-0.435,0.565c-0.405,0.515-0.839,1.08-1.253,1.695    c-0.222,0.325-0.426,0.658-0.627,0.993l-0.252,0.414c-0.206,0.335-0.409,0.671-0.584,0.991c-0.269,0.489-0.51,0.988-0.748,1.488    c-0.005,0.012-0.052,0.109-0.057,0.121l0.022-0.051c-0.12,0.231-0.236,0.466-0.341,0.702c-0.068,0.153-0.131,0.308-0.188,0.463    c-4.771,11.232-2.359,23.985,6.214,32.625c4.829,4.866,11.077,7.821,17.703,8.566c-0.276,2.322-0.433,4.673-0.433,7.051    c0,12.686,4.156,25.062,11.756,35.152v92.625h-98.667v-20.55c0-5.094-3.043-9.642-7.751-11.586    c-4.708-1.94-10.072-0.867-13.665,2.743l-25.292,25.405c-3.585,3.602-4.642,8.96-2.691,13.652    c1.951,4.692,6.493,7.725,11.574,7.725h20.782c4.931,62.003,55.835,111.053,118.107,113.609v148.575h-74.158    c-4.17,0-7.551,3.38-7.551,7.551c0,4.17,3.38,7.551,7.551,7.551h163.418c4.171,0,7.551-3.38,7.551-7.551    C364.166,500.28,360.786,496.9,356.615,496.9z M369.857,94.693l2.434,1.778l-2.8,1.358    C369.641,96.79,369.765,95.745,369.857,94.693z M151.292,219.715h-16.891l16.891-16.966V219.715z M257.421,67.679    c-4.04,0.117-7.959-1.41-10.841-4.313c-4.304-4.337-5.461-10.791-2.947-16.442c0.012-0.027,0.023-0.055,0.036-0.082    c0.051-0.102,0.104-0.21,0.162-0.335c0.112-0.235,0.22-0.474,0.358-0.726c0.06-0.107,0.127-0.211,0.191-0.316l0.352-0.578    c0.054-0.088,0.104-0.178,0.178-0.288c0.2-0.298,0.425-0.582,0.624-0.835c0.098-0.123,0.191-0.247,0.301-0.396    c0.311-0.37,0.624-0.714,0.935-1.022c2.528-2.51,5.735-3.999,9.278-4.307c3.04-0.267,6.049,0.403,8.69,1.938    c2.497,1.45,5.612,1.339,7.999-0.294c2.388-1.632,3.624-4.49,3.178-7.348c-0.444-2.85-0.061-5.748,1.11-8.381    c0.011-0.025,0.021-0.05,0.032-0.075c0.047-0.093,0.096-0.191,0.149-0.306c0.119-0.252,0.234-0.505,0.366-0.745    c0.063-0.117,0.138-0.23,0.208-0.345l0.35-0.573c0.054-0.09,0.105-0.182,0.167-0.275c0.202-0.299,0.428-0.585,0.646-0.861    c0.093-0.117,0.181-0.235,0.285-0.377c0.313-0.374,0.619-0.709,0.933-1.021c2.502-2.483,5.667-3.972,9.154-4.304    c4.434-0.42,8.762,1.132,11.875,4.27c1.379,1.39,2.449,3.012,3.18,4.822c1.071,2.656,3.555,4.484,6.412,4.689    c2.854,0.198,5.573-1.222,7.012-3.698l0.334-0.545c0.056-0.094,0.109-0.188,0.161-0.267c0.205-0.302,0.433-0.592,0.656-0.876    c0.091-0.114,0.178-0.23,0.28-0.371c0.313-0.374,0.619-0.71,0.934-1.021c2.532-2.514,5.746-4.003,9.296-4.307    c4.392-0.381,8.663,1.179,11.731,4.271c2.064,2.08,3.445,4.702,3.992,7.582c0.715,3.759-0.05,7.595-2.054,10.771    c-8.548-5.505-18.56-8.842-29.203-9.247c-16.061-0.609-31.256,5.176-42.804,16.293C265.068,53.263,260.456,60.147,257.421,67.679z     M272.477,333.437c-57.089-0.001-104.407-44.494-108.36-100.942c0.054-0.054,0.102-0.114,0.154-0.169h108.188    c4.143,0,7.5-3.357,7.5-7.5v-102.73c0-1.752-0.613-3.448-1.733-4.795c-6.463-7.773-10.022-17.629-10.022-27.752    c0-11.919,4.73-23.036,13.318-31.305c8.583-8.264,19.862-12.563,31.831-12.11c20.367,0.775,37.662,15.963,41.124,36.113    c0.354,2.061,0.56,4.171,0.607,6.271c0.334,14.476-6.533,28.122-18.367,36.502c-1.968,1.394-3.146,3.647-3.166,6.059    c-0.02,2.411,1.12,4.685,3.064,6.11c27.685,20.305,44.303,52.884,44.453,87.15c0.261,59.322-47.764,108.258-107.053,109.087    C273.5,333.433,272.99,333.437,272.477,333.437z"/>
	</g>
</g>
<g>
	<g>
		<circle cx="325.868" cy="83.948" r="8.585"/>
	</g>
</g>
<g>
	<g>
		<circle cx="244.138" cy="315.381" r="8.585"/>
	</g>
</g>
<g>
	<g>
		<circle cx="214.528" cy="286.541" r="8.585"/>
	</g>
</g>
<g>
	<g>
		<circle cx="254.028" cy="286.541" r="8.585"/>
	</g>
</g>
<g>
</g>
<g>
</g>
<g>
</g>
<g>
</g>
<g>
</g>
<g>
</g>
<g>
</g>
<g>
</g>
<g>
</g>
<g>
</g>
<g>
</g>
<g>
</g>
<g>
</g>
<g>
</g>
<g>
</g>
</svg>
