<?xml version="1.0" encoding="iso-8859-1"?>
<!-- Generator: Adobe Illustrator 19.0.0, SVG Export Plug-In . SVG Version: 6.00 Build 0)  -->
<svg xmlns="http://www.w3.org/2000/svg" xmlns:xlink="http://www.w3.org/1999/xlink" version="1.1" id="Layer_1" x="0px" y="0px" viewBox="0 0 512 512" style="enable-background:new 0 0 512 512;" xml:space="preserve">
<g>
	<g>
		<path d="M431.613,340.675l0.002,0.003L321.687,199.743c-3.247-4.161-7.548-7.408-12.437-9.389l-25.024-10.145    c0.083-0.885,0.131-1.779,0.131-2.685s-0.047-1.802-0.131-2.686l25.025-10.145c4.891-1.983,9.19-5.23,12.437-9.391L431.615,14.37    v0.001c2.796-3.586,2.494-8.523-0.723-11.739c-3.214-3.214-8.152-3.52-11.738-0.723L278.221,111.837    c-4.161,3.246-7.409,7.547-9.39,12.436l-10.145,25.025c-0.885-0.084-1.78-0.131-2.687-0.131c-0.906,0-1.802,0.047-2.686,0.131    l-10.145-25.024c-1.982-4.891-5.23-9.191-9.391-12.437L92.844,1.908c-3.586-2.795-8.522-2.491-11.737,0.724    c-3.215,3.215-3.519,8.152-0.723,11.737c0,0.001,0.001,0.001,0.001,0.001l109.926,140.932c3.245,4.16,7.545,7.408,12.437,9.391    l25.025,10.145c-0.084,0.885-0.131,1.78-0.131,2.686s0.047,1.8,0.131,2.685l-25.024,10.144c-4.89,1.982-9.19,5.229-12.437,9.391    L80.385,340.677c-2.798,3.585-2.494,8.523,0.722,11.739c1.745,1.745,3.997,2.632,6.264,2.632c1.911,0,3.834-0.631,5.474-1.91    l140.519-109.605l0.011,260.969c0,4.142,3.357,7.498,7.498,7.498h30.265c1.989,0,3.896-0.79,5.303-2.197    c1.406-1.406,2.196-3.313,2.196-5.302l-0.006-150.723c0-4.142-3.358-7.498-7.498-7.498c-4.142,0-7.498,3.358-7.498,7.498    l0.006,143.225h-15.269l-0.011-279.035l4.953-12.217c0.885,0.084,1.78,0.131,2.687,0.131c0.907,0,1.802-0.047,2.687-0.131    l4.941,12.188l0.004,95.347c0,4.142,3.358,7.498,7.498,7.498c4.142,0,7.498-3.358,7.498-7.498l-0.003-69.761l140.526,109.61    c1.641,1.281,3.564,1.912,5.476,1.912c2.267,0,4.52-0.888,6.264-2.632C434.11,349.198,434.412,344.261,431.613,340.675z     M229.272,225.14c-0.998,2.456-2.628,4.616-4.718,6.246l-101.897,79.48l79.479-101.897c1.631-2.09,3.791-3.721,6.247-4.717    l24.722-10.022c1.732,2.368,3.821,4.457,6.189,6.189L229.272,225.14z M233.106,160.818l-24.723-10.022    c-2.457-0.997-4.617-2.627-6.247-4.717l-79.48-101.898l101.899,79.481c2.089,1.63,3.72,3.789,4.716,6.245l10.023,24.723    C236.927,156.362,234.838,158.451,233.106,160.818z M256,190.886c-7.368,0-13.361-5.994-13.361-13.361s5.994-13.361,13.361-13.361    c7.367,0,13.361,5.994,13.361,13.361C269.361,184.892,263.367,190.886,256,190.886z M282.73,129.906    c0.995-2.455,2.625-4.614,4.715-6.244l101.898-79.48l-79.479,101.896c-1.631,2.09-3.791,3.722-6.247,4.718l-24.723,10.022    c-1.732-2.367-3.821-4.456-6.188-6.188L282.73,129.906z M287.446,231.386c-2.09-1.63-3.721-3.789-4.717-6.245l-10.023-24.722    c2.367-1.732,4.456-3.821,6.188-6.188l24.723,10.023c2.455,0.995,4.614,2.625,6.245,4.715l79.479,101.897L287.446,231.386z"/>
	</g>
</g>
<g>
</g>
<g>
</g>
<g>
</g>
<g>
</g>
<g>
</g>
<g>
</g>
<g>
</g>
<g>
</g>
<g>
</g>
<g>
</g>
<g>
</g>
<g>
</g>
<g>
</g>
<g>
</g>
<g>
</g>
</svg>
