<?xml version="1.0" encoding="iso-8859-1"?>
<!-- Generator: Adobe Illustrator 19.0.0, SVG Export Plug-In . SVG Version: 6.00 Build 0)  -->
<svg xmlns="http://www.w3.org/2000/svg" xmlns:xlink="http://www.w3.org/1999/xlink" version="1.1" id="Capa_1" x="0px" y="0px" viewBox="0 0 512 512" style="enable-background:new 0 0 512 512;" xml:space="preserve">
<g>
	<g>
		<rect x="218.535" y="109.293" width="15.195" height="51.239"/>
	</g>
</g>
<g>
	<g>
		
			<rect x="272.747" y="150.608" transform="matrix(0.7071 -0.7071 0.7071 0.7071 -24.4786 257.3147)" width="51.239" height="15.195"/>
	</g>
</g>
<g>
	<g>
		
			<rect x="146.278" y="132.576" transform="matrix(0.7071 -0.7071 0.7071 0.7071 -66.7919 155.1411)" width="15.195" height="51.238"/>
	</g>
</g>
<g>
	<g>
		<path d="M56.079,396.179c-12.568,0-22.793,10.224-22.793,22.792c0,12.567,10.224,22.793,22.793,22.793    s22.792-10.225,22.792-22.793C78.871,406.403,68.647,396.179,56.079,396.179z M56.079,426.568c-4.19,0-7.598-3.408-7.598-7.598    c0-4.189,3.408-7.596,7.598-7.596c4.19,0,7.597,3.408,7.597,7.596C63.676,423.16,60.268,426.568,56.079,426.568z"/>
	</g>
</g>
<g>
	<g>
		<path d="M432.113,396.179c-12.567,0-22.793,10.224-22.793,22.792c0,12.567,10.225,22.793,22.793,22.793    c12.567,0,22.792-10.225,22.792-22.793C454.905,406.403,444.68,396.179,432.113,396.179z M432.113,426.568    c-4.19,0-7.598-3.408-7.598-7.598c0-4.189,3.408-7.596,7.598-7.596s7.597,3.409,7.597,7.596    C439.71,423.16,436.302,426.568,432.113,426.568z"/>
	</g>
</g>
<g>
	<g>
		<path d="M511.052,66.829c2.089-7.234,0.69-14.833-3.835-20.85c-4.526-6.016-11.439-9.467-18.969-9.467    c-10.51,0-19.886,7.052-22.803,17.151l-8.353,28.931l-62.778-19.039l-11.227,37.023l63.273,19.188l-53.553,185.492h-32.784    v-45.962h-35.937v-36.458H164.103v36.458h-35.937v24.131v37.026v12.807H86.15c-18.322,0-33.625,13.153-36.978,30.512    C21.499,367.187,0,390.826,0,419.409c0,30.922,25.157,56.079,56.079,56.079c28.345,0,51.829-21.142,55.551-48.481h57.253v10.597    h-17.691v15.195h17.691h153.035h17.692v-15.195h-17.692v-10.597h54.644c3.721,27.34,27.206,48.481,55.551,48.481    c30.922,0,56.08-25.157,56.08-56.079c0-28.344-21.142-51.829-48.482-55.55v-15.405V333.26h0v-19.331L511.052,66.829z     M402.039,90.446l2.409-7.941l48.255,14.635l-2.409,7.941L402.039,90.446z M360.026,320.452h28.396h36.094v12.807h-64.491V320.452    z M179.3,238.032h129.593v21.263H179.3V238.032z M143.363,298.622h86.404c1.829,0,3.318,1.489,3.318,3.318    c0,1.828-1.488,3.318-3.318,3.318h-86.404V298.622z M143.363,320.452h86.404c10.208,0,18.513-8.305,18.513-18.513    s-8.305-18.513-18.513-18.513h-86.404v-8.936h20.742h159.983h20.742v30.767v28.002H143.363V320.452z M56.079,460.293    c-22.543,0-40.884-18.34-40.884-40.884s18.34-40.884,40.884-40.884s40.885,18.34,40.885,40.884S78.623,460.293,56.079,460.293z     M306.723,437.604H184.078v-10.023h122.645V437.604z M390.237,382.162c-0.384,0.432-0.764,0.867-1.136,1.31    c-0.193,0.232-0.384,0.466-0.574,0.701c-0.343,0.424-0.681,0.853-1.012,1.286c-0.184,0.241-0.368,0.482-0.548,0.726    c-0.342,0.464-0.676,0.936-1.004,1.411c-0.149,0.215-0.301,0.426-0.447,0.643c-0.931,1.388-1.802,2.818-2.608,4.289    c-0.126,0.229-0.243,0.463-0.366,0.694c-0.273,0.514-0.54,1.031-0.797,1.554c-0.135,0.275-0.264,0.55-0.395,0.828    c-0.235,0.498-0.462,1.001-0.683,1.507c-0.123,0.281-0.244,0.562-0.363,0.846c-0.225,0.541-0.438,1.087-0.646,1.636    c-0.093,0.247-0.191,0.492-0.282,0.741c-0.579,1.595-1.087,3.224-1.522,4.883c-0.068,0.258-0.127,0.519-0.19,0.779    c-0.143,0.578-0.28,1.159-0.403,1.744c-0.065,0.306-0.125,0.613-0.184,0.921c-0.108,0.556-0.209,1.114-0.3,1.675    c-0.051,0.311-0.101,0.623-0.147,0.936c-0.026,0.18-0.061,0.359-0.085,0.54h-264.9c-0.025-0.183-0.059-0.363-0.086-0.546    c-0.045-0.304-0.093-0.607-0.143-0.91c-0.093-0.569-0.195-1.136-0.304-1.699c-0.058-0.296-0.114-0.593-0.177-0.886    c-0.13-0.614-0.273-1.223-0.423-1.828c-0.056-0.226-0.106-0.454-0.165-0.679c-0.216-0.827-0.448-1.647-0.7-2.46    c-0.038-0.125-0.083-0.247-0.124-0.371c-0.218-0.686-0.448-1.366-0.691-2.039c-0.093-0.257-0.192-0.511-0.289-0.767    c-0.206-0.543-0.417-1.082-0.638-1.617c-0.113-0.273-0.228-0.544-0.345-0.814c-0.23-0.532-0.47-1.058-0.716-1.581    c-0.114-0.243-0.226-0.488-0.344-0.729c-0.313-0.642-0.639-1.276-0.977-1.904c-0.058-0.108-0.111-0.219-0.17-0.327    c-0.404-0.74-0.826-1.47-1.261-2.19c-0.105-0.173-0.216-0.342-0.323-0.515c-0.334-0.539-0.676-1.075-1.028-1.602    c-0.152-0.228-0.309-0.454-0.464-0.679c-0.326-0.474-0.659-0.942-1-1.406c-0.164-0.223-0.328-0.446-0.495-0.666    c-0.371-0.489-0.751-0.97-1.138-1.447c-0.14-0.172-0.276-0.347-0.417-0.518c-1.069-1.288-2.195-2.525-3.373-3.712    c-0.166-0.167-0.337-0.33-0.505-0.495c-0.43-0.421-0.864-0.838-1.307-1.246c-0.201-0.185-0.404-0.368-0.608-0.55    c-0.437-0.39-0.879-0.774-1.328-1.151c-0.198-0.166-0.394-0.333-0.594-0.496c-0.528-0.432-1.065-0.852-1.609-1.264    c-0.121-0.091-0.238-0.187-0.36-0.278c-0.677-0.505-1.365-0.995-2.065-1.47c-0.128-0.086-0.259-0.168-0.388-0.253    c-0.566-0.377-1.138-0.746-1.718-1.102c-0.223-0.137-0.449-0.269-0.674-0.403c-0.503-0.3-1.011-0.593-1.524-0.877    c-0.243-0.135-0.486-0.268-0.731-0.399c-0.532-0.285-1.07-0.559-1.612-0.827c-0.218-0.107-0.433-0.219-0.651-0.323    c-0.753-0.36-1.512-0.707-2.283-1.034c-0.004-0.002-0.008-0.004-0.013-0.006c-0.784-0.332-1.578-0.643-2.38-0.94    c-0.218-0.081-0.44-0.154-0.658-0.232c-0.581-0.207-1.166-0.407-1.757-0.596c-0.275-0.087-0.55-0.171-0.826-0.254    c-0.557-0.168-1.117-0.327-1.681-0.478c-0.278-0.074-0.554-0.15-0.834-0.22c-0.623-0.157-1.251-0.3-1.881-0.436    c-0.213-0.046-0.423-0.097-0.637-0.141c-0.815-0.165-1.636-0.316-2.464-0.446c2.927-9.012,11.405-15.548,21.381-15.548h42.018    h216.662h15.195h64.491v15.385h0.001c-0.181,0.024-0.36,0.059-0.54,0.085c-0.313,0.046-0.624,0.096-0.936,0.148    c-0.561,0.091-1.119,0.191-1.675,0.3c-0.307,0.06-0.615,0.12-0.921,0.184c-0.586,0.125-1.166,0.261-1.744,0.403    c-0.259,0.064-0.521,0.123-0.779,0.19c-1.658,0.434-3.287,0.942-4.883,1.522c-0.249,0.09-0.494,0.188-0.742,0.283    c-0.548,0.208-1.094,0.421-1.634,0.645c-0.285,0.117-0.566,0.24-0.848,0.363c-0.507,0.221-1.008,0.448-1.506,0.682    c-0.277,0.131-0.553,0.26-0.828,0.395c-0.523,0.257-1.04,0.525-1.554,0.797c-0.231,0.123-0.464,0.24-0.693,0.366    c-1.471,0.806-2.901,1.677-4.289,2.608c-0.217,0.146-0.429,0.298-0.643,0.447c-0.475,0.328-0.947,0.661-1.411,1.004    c-0.244,0.18-0.485,0.364-0.726,0.548c-0.434,0.331-0.863,0.669-1.286,1.012c-0.235,0.19-0.469,0.38-0.701,0.574    c-0.444,0.371-0.878,0.751-1.31,1.136c-0.193,0.172-0.39,0.34-0.58,0.516c-1.229,1.124-2.407,2.304-3.532,3.532    C390.578,381.772,390.41,381.969,390.237,382.162z M472.998,419.409c0,22.543-18.34,40.884-40.885,40.884    c-22.543,0-40.884-18.34-40.884-40.884s18.34-40.884,40.884-40.884C454.657,378.525,472.998,396.866,472.998,419.409z     M426.399,305.257h-17.775l62.657-217.021l0.372-1.225l-0.016-0.005l8.409-29.127c1.048-3.634,4.422-6.171,8.203-6.171    c2.709,0,5.197,1.242,6.825,3.406c1.627,2.165,2.131,4.899,1.379,7.501L426.399,305.257z"/>
	</g>
</g>
<g>
	<g>
		<rect x="222.171" y="362.088" width="15.195" height="36.099"/>
	</g>
</g>
<g>
	<g>
		<rect x="250.373" y="362.088" width="15.195" height="36.099"/>
	</g>
</g>
<g>
	<g>
		<rect x="278.575" y="362.088" width="15.195" height="36.099"/>
	</g>
</g>
<g>
	<g>
		<rect x="306.787" y="362.088" width="15.195" height="36.099"/>
	</g>
</g>
<g>
</g>
<g>
</g>
<g>
</g>
<g>
</g>
<g>
</g>
<g>
</g>
<g>
</g>
<g>
</g>
<g>
</g>
<g>
</g>
<g>
</g>
<g>
</g>
<g>
</g>
<g>
</g>
<g>
</g>
</svg>
