<?xml version="1.0" encoding="iso-8859-1"?>
<!-- Generator: Adobe Illustrator 19.0.0, SVG Export Plug-In . SVG Version: 6.00 Build 0)  -->
<svg xmlns="http://www.w3.org/2000/svg" xmlns:xlink="http://www.w3.org/1999/xlink" version="1.1" id="Capa_1" x="0px" y="0px" viewBox="0 0 512 512" style="enable-background:new 0 0 512 512;" xml:space="preserve">
<g>
	<g>
		<path d="M393.432,295.098c0-36.068-13.704-69.827-38.694-95.589c3.02-9.818,4.548-20.008,4.548-30.359    c0-27.187-10.325-52.542-29.175-71.91c1.827-6.637,2.751-13.471,2.751-20.378C332.862,34.48,298.382,0,256,0    c-42.382,0-76.862,34.48-76.862,76.862c0,6.907,0.924,13.741,2.751,20.378c-18.85,19.368-29.175,44.724-29.175,71.91    c0,10.352,1.528,20.542,4.548,30.359c-24.99,25.762-38.694,59.521-38.694,95.589c0,73.264,57.626,133.317,129.932,137.226V497    h-69.453v15h153.906v-15H263.5v-64.676C335.806,428.416,393.432,368.362,393.432,295.098z M248.501,168.374v106.752    l-55.185-55.186l-10.606,10.607l65.791,65.791v120.956c-64.029-3.889-114.932-57.206-114.932-122.196    c0-33.55,13.311-64.857,37.48-88.155l3.495-3.368l-1.642-4.567c-3.442-9.578-5.188-19.623-5.188-29.857    c0-24.586,9.881-47.421,27.824-64.299l3.527-3.318l-1.572-4.58c-2.226-6.483-3.355-13.243-3.355-20.091    C194.138,42.751,221.889,15,256,15c34.111,0,61.862,27.751,61.862,61.862c0,6.848-1.129,13.607-3.355,20.091l-1.572,4.58    l3.527,3.318c17.942,16.878,27.824,39.713,27.824,64.299c0,10.232-1.745,20.278-5.188,29.857l-1.642,4.567l3.495,3.368    c24.171,23.299,37.481,54.607,37.481,88.157c0,64.991-50.903,118.307-114.932,122.196V294.911l64.973-64.973l-10.606-10.607    L263.5,273.698V168.673l43.891-43.89l-10.606-10.607L263.5,147.46V98.497h-15v48.664l-33.284-33.285l-10.606,10.607    L248.501,168.374z"/>
	</g>
</g>
<g>
	<g>
		<path d="M161.688,230.124c-10.441,15.085-17.158,32.665-19.426,50.839l14.885,1.857c1.969-15.785,7.805-31.055,16.875-44.159    L161.688,230.124z"/>
	</g>
</g>
<g>
	<g>
		<path d="M330.235,361.731c-4.615,5.152-9.779,9.836-15.347,13.924l8.876,12.092c6.402-4.699,12.338-10.085,17.644-16.008    L330.235,361.731z"/>
	</g>
</g>
<g>
	<g>
		<path d="M367.729,269.58l-14.621,3.352c1.67,7.285,2.517,14.808,2.517,22.356c0,18.741-5.23,36.998-15.124,52.798l12.713,7.961    c11.391-18.188,17.411-39.198,17.411-60.759C370.625,286.612,369.65,277.963,367.729,269.58z"/>
	</g>
</g>
<g>
	<g>
		<path d="M241.627,23.579l3.965,14.467c5.582-1.531,11.6-1.813,17.304-0.824l2.557-14.781    C257.586,21.082,249.323,21.47,241.627,23.579z"/>
	</g>
</g>
<g>
	<g>
		<path d="M231.803,27.326c-17.643,8.777-29.233,26.429-30.246,46.07l14.98,0.773c0.734-14.242,9.144-27.045,21.946-33.411    L231.803,27.326z"/>
	</g>
</g>
<g>
</g>
<g>
</g>
<g>
</g>
<g>
</g>
<g>
</g>
<g>
</g>
<g>
</g>
<g>
</g>
<g>
</g>
<g>
</g>
<g>
</g>
<g>
</g>
<g>
</g>
<g>
</g>
<g>
</g>
</svg>
