<?xml version="1.0" encoding="iso-8859-1"?>
<!-- Generator: Adobe Illustrator 19.0.0, SVG Export Plug-In . SVG Version: 6.00 Build 0)  -->
<svg xmlns="http://www.w3.org/2000/svg" xmlns:xlink="http://www.w3.org/1999/xlink" version="1.1" id="Layer_1" x="0px" y="0px" viewBox="0 0 512 512" style="enable-background:new 0 0 512 512;" xml:space="preserve">
<g>
	<g>
		<path d="M431.666,180.876h-32.26v-14.501c0-4.135-3.351-7.485-7.485-7.485h-16.29v-43.914h38.94    c6.339,0,11.898-3.589,14.508-9.365s1.629-12.32-2.56-17.076L359.17,12.049C352.428,4.392,342.71,0,332.507,0H170.862    c-10.203,0-19.921,4.392-26.663,12.049L126.402,32.26c-2.732,3.102-2.431,7.832,0.671,10.564    c3.104,2.733,7.833,2.432,10.565-0.672l17.797-20.212c3.901-4.43,9.524-6.971,15.427-6.971h161.645    c5.904,0,11.526,2.541,15.427,6.971l67.348,76.487c0.132,0.149,0.405,0.459,0.153,1.018c-0.252,0.558-0.682,0.558-0.866,0.558    H88.798c-0.199,0-0.613,0-0.865-0.558c-0.252-0.558,0.021-0.869,0.153-1.019l23.311-26.475c2.732-3.102,2.431-7.832-0.671-10.564    c-3.103-2.732-7.832-2.431-10.565,0.672L76.85,88.535c-4.189,4.757-5.17,11.3-2.559,17.076c2.61,5.777,8.17,9.365,14.508,9.365    h38.94v145.408H108.54c-14.481,0-26.261,11.781-26.261,26.262v199.092C82.279,500.219,94.06,512,108.54,512h286.29    c14.48,0,26.262-11.781,26.262-26.262V286.646c0-14.482-11.781-26.262-26.262-26.262h-19.199v-86.523h8.805v14.501    c0,4.134,3.351,7.485,7.485,7.485h39.745c4.134,0,7.485-3.351,7.485-7.485C439.152,184.227,435.8,180.876,431.666,180.876z     M142.708,114.976L142.708,114.976H360.66v43.914h-31.199v-2.585c0-7.16-5.825-12.984-12.983-12.984H186.891    c-7.159,0-12.984,5.825-12.984,12.984v2.585h-31.199V114.976z M181.929,322.515h62.27v32.73h-62.27V322.515z M143.308,307.544    v-32.189h62.27v32.189H143.308z M220.549,307.544v-32.189h62.27v32.189H220.549z M205.578,370.215v32.73h-62.27v-32.73H205.578z     M181.929,417.916h62.27v32.729h-62.27V417.916z M220.549,402.945v-32.73h62.27v32.73H220.549z M259.17,417.916h62.27v32.729    h-62.27V417.916z M297.79,402.945v-32.73h62.271v32.73H297.79z M321.44,355.245h-62.27v-32.73h62.27V355.245z M297.79,307.544    v-32.189h62.271v32.189H297.79z M142.709,260.384v-86.523h31.199v3.015c0,7.159,5.825,12.983,12.984,12.983h129.586    c7.159,0,12.983-5.825,12.983-12.983v-3.015h31.199v86.523H142.709z M188.878,174.887v-16.596h34.643v0l-9.482,16.596H188.878z     M231.28,174.887l9.482-16.596h6.5v0l-9.482,16.596H231.28z M255.023,174.887l9.482-16.596h6.499v0l-9.481,16.596H255.023z     M278.764,174.887l9.481-16.596l26.245,0v16.596H278.764z M97.248,286.646c0-6.226,5.065-11.291,11.29-11.291h19.798v32.189    H97.248V286.646z M97.248,322.515h69.71v32.73h-69.71V322.515z M97.248,370.215h31.089v32.73H97.248V370.215z M97.248,417.916    h69.71v32.729h-69.71V417.916z M128.338,497.029L128.338,497.029h-19.799c-6.226,0-11.29-5.065-11.29-11.291v-20.122h31.089    V497.029z M205.578,497.029h-62.27v-31.413h62.27V497.029z M282.819,497.029h-62.27v-31.413h62.27V497.029z M360.061,497.029    H297.79v-31.413h62.271V497.029z M406.121,485.738c0,6.226-5.065,11.291-11.291,11.291h-19.798v-31.413h31.089V485.738z     M406.121,450.645h-69.71v-32.729h69.71V450.645z M406.121,402.945h-31.089v-32.73h31.089V402.945z M406.121,355.245h-69.71    v-32.73h69.71V355.245z M394.83,275.355c6.226,0,11.291,5.065,11.291,11.291v20.898h-31.089v-32.189H394.83z"/>
	</g>
</g>
<g>
</g>
<g>
</g>
<g>
</g>
<g>
</g>
<g>
</g>
<g>
</g>
<g>
</g>
<g>
</g>
<g>
</g>
<g>
</g>
<g>
</g>
<g>
</g>
<g>
</g>
<g>
</g>
<g>
</g>
</svg>
