<?xml version="1.0" encoding="iso-8859-1"?>
<!-- Generator: Adobe Illustrator 19.0.0, SVG Export Plug-In . SVG Version: 6.00 Build 0)  -->
<svg xmlns="http://www.w3.org/2000/svg" xmlns:xlink="http://www.w3.org/1999/xlink" version="1.1" id="Capa_1" x="0px" y="0px" viewBox="0 0 512 512" style="enable-background:new 0 0 512 512;" xml:space="preserve">
<g>
	<g>
		<path d="M445.101,165.833l20.293-20.293l-45.646-45.646l-20.056,20.056c-30.43-33.006-64.875-75.578-82.827-115.525l-1.966-4.376    L309.997,0c-1.667,0-41.397,0.578-91.661,50.841c-50.672,50.673-50.858,90.11-50.841,91.764l0.049,4.798l4.376,1.967    c39.756,17.866,82.137,52.097,115.09,82.436L55.043,432.049c-8.383,7.031-10.826,18.767-5.939,28.564l19.126,38.341    C72.244,507,80.334,511.999,89.343,512c0.001,0,0.001,0,0.002,0c6.271,0,12.176-2.452,16.629-6.905L333.328,277.61    c7.664,8.138,12.117,13.19,12.315,13.417l5.28,6.027l113.628-113.626l-6.03-5.28C458.294,177.95,453.241,173.497,445.101,165.833z     M182.942,137.946c1.656-10.79,9.443-39.94,46.001-76.498c36.214-36.215,65.672-44.199,76.52-45.955    c3.56,7.452,7.616,14.944,12.04,22.414C301.529,43.605,276.924,53.58,249,81.504c-27.922,27.922-37.908,52.507-43.605,68.499    C197.913,145.572,190.406,141.511,182.942,137.946z M95.366,494.489c-1.619,1.619-3.757,2.511-6.021,2.511    c-2.576,0-5.948-1.246-7.692-4.741l-19.126-38.341c-1.78-3.567-0.885-7.842,2.176-10.395l13.65-11.783l26.56,53.196    L95.366,494.489z M116.094,473.75L90.07,421.626l207.632-179.235l24.422,25.208L116.094,473.75z M351.582,275.182    c-8.781-9.646-27.514-29.631-51.673-52.07l-1.288-1.33l-0.076,0.066c-23.165-21.421-51.159-44.921-80.104-63.737    c5.41-15.465,13.733-38.568,41.166-66c27.432-27.432,50.553-35.744,66.006-41.161c38.974,59.951,98.067,115.843,117.064,133.137    L351.582,275.182z M434.92,154.801l-24.433-24.433l9.26-9.261l24.433,24.433L434.92,154.801z"/>
	</g>
</g>
<g>
	<g>
		<polygon points="412.624,162.053 402.017,172.66 412.71,183.353 389.888,206.175 400.494,216.782 433.923,183.353   "/>
	</g>
</g>
<g>
	<g>
		<rect x="387.178" y="145.431" transform="matrix(0.7071 -0.7071 0.7071 0.7071 6.2196 324.3861)" width="15" height="18.508"/>
	</g>
</g>
<g>
</g>
<g>
</g>
<g>
</g>
<g>
</g>
<g>
</g>
<g>
</g>
<g>
</g>
<g>
</g>
<g>
</g>
<g>
</g>
<g>
</g>
<g>
</g>
<g>
</g>
<g>
</g>
<g>
</g>
</svg>
