<?xml version="1.0" encoding="iso-8859-1"?>
<!-- Generator: Adobe Illustrator 19.0.0, SVG Export Plug-In . SVG Version: 6.00 Build 0)  -->
<svg xmlns="http://www.w3.org/2000/svg" xmlns:xlink="http://www.w3.org/1999/xlink" version="1.1" id="Layer_1" x="0px" y="0px" viewBox="0 0 511.999 511.999" style="enable-background:new 0 0 511.999 511.999;" xml:space="preserve">
<g>
	<g>
		<g>
			<path d="M154.386,473.05c-3.948-1.218-8.137,1.001-9.353,4.951l-7.337,23.84c-1.216,3.95,1.001,8.138,4.951,9.353     c0.734,0.227,1.474,0.333,2.204,0.333c3.198,0,6.16-2.067,7.149-5.284l7.337-23.84     C160.553,478.453,158.336,474.265,154.386,473.05z"/>
			<path d="M183.736,377.693c-3.95-1.219-8.137,1.001-9.353,4.951l-7.337,23.839c-1.216,3.95,1.001,8.137,4.951,9.353     c0.734,0.227,1.474,0.333,2.204,0.333c3.198,0,6.159-2.068,7.149-5.284l7.337-23.839     C189.903,383.096,187.686,378.909,183.736,377.693z"/>
			<path d="M169.061,425.372c-3.949-1.216-8.137,1.002-9.353,4.951l-7.337,23.839c-1.216,3.95,1.001,8.137,4.951,9.353     c0.734,0.227,1.474,0.333,2.204,0.333c3.198,0,6.159-2.068,7.149-5.284l7.337-23.839     C175.228,430.775,173.011,426.587,169.061,425.372z"/>
		</g>
	</g>
</g>
<g>
	<g>
		<g>
			<path d="M185.415,473.05c-3.95-1.218-8.137,1.001-9.353,4.951l-7.337,23.84c-1.216,3.95,1.001,8.138,4.951,9.353     c0.734,0.227,1.474,0.333,2.204,0.333c3.198,0,6.16-2.067,7.149-5.284l7.337-23.84     C191.582,478.453,189.365,474.265,185.415,473.05z"/>
			<path d="M214.765,377.693c-3.949-1.219-8.137,1.001-9.353,4.951l-7.337,23.839c-1.216,3.95,1.001,8.137,4.951,9.353     c0.734,0.227,1.474,0.333,2.204,0.333c3.198,0,6.159-2.068,7.149-5.284l7.337-23.839     C220.931,383.096,218.715,378.909,214.765,377.693z"/>
			<path d="M200.09,425.372c-3.948-1.216-8.137,1.002-9.353,4.951l-7.337,23.839c-1.216,3.95,1.001,8.137,4.951,9.353     c0.734,0.227,1.474,0.333,2.204,0.333c3.198,0,6.159-2.068,7.149-5.284l7.337-23.839     C206.257,430.775,204.04,426.587,200.09,425.372z"/>
		</g>
	</g>
</g>
<g>
	<g>
		<g>
			<path d="M245.793,377.693c-3.948-1.219-8.137,1.001-9.353,4.951l-7.337,23.839c-1.216,3.95,1.001,8.137,4.951,9.353     c0.734,0.227,1.474,0.333,2.204,0.333c3.198,0,6.16-2.068,7.149-5.284l7.337-23.839     C251.959,383.096,249.742,378.909,245.793,377.693z"/>
			<path d="M216.444,473.05c-3.949-1.218-8.137,1.001-9.353,4.951l-7.337,23.84c-1.216,3.95,1.001,8.137,4.951,9.353     c0.734,0.227,1.474,0.333,2.204,0.333c3.198,0,6.159-2.067,7.149-5.284l7.337-23.84     C222.61,478.453,220.394,474.266,216.444,473.05z"/>
			<path d="M231.119,425.372c-3.95-1.216-8.137,1.002-9.353,4.951l-7.337,23.839c-1.216,3.95,1.001,8.137,4.951,9.353     c0.734,0.227,1.474,0.333,2.204,0.333c3.198,0,6.159-2.068,7.149-5.284l7.337-23.839     C237.285,430.775,235.068,426.587,231.119,425.372z"/>
		</g>
	</g>
</g>
<g>
	<g>
		<g>
			<path d="M247.473,473.05c-3.949-1.218-8.137,1.001-9.353,4.951l-7.337,23.84c-1.216,3.95,1.001,8.137,4.951,9.353     c0.734,0.227,1.474,0.333,2.204,0.333c3.198,0,6.159-2.067,7.149-5.284l7.337-23.84     C253.639,478.453,251.422,474.266,247.473,473.05z"/>
			<path d="M262.147,425.372c-3.949-1.216-8.137,1.002-9.353,4.951l-7.337,23.839c-1.216,3.95,1.001,8.137,4.951,9.353     c0.734,0.227,1.474,0.333,2.204,0.333c3.198,0,6.159-2.068,7.149-5.284l7.337-23.839     C268.314,430.775,266.097,426.587,262.147,425.372z"/>
			<path d="M276.821,377.693c-3.95-1.219-8.137,1.001-9.353,4.951l-7.337,23.839c-1.216,3.95,1.001,8.137,4.951,9.353     c0.734,0.227,1.474,0.333,2.204,0.333c3.198,0,6.16-2.068,7.149-5.284l7.337-23.839     C282.988,383.096,280.771,378.909,276.821,377.693z"/>
		</g>
	</g>
</g>
<g>
	<g>
		<g>
			<path d="M293.176,425.372c-3.948-1.216-8.137,1.002-9.353,4.951l-7.337,23.839c-1.216,3.95,1.001,8.137,4.951,9.353     c0.734,0.227,1.474,0.333,2.204,0.333c3.198,0,6.159-2.068,7.149-5.284l7.337-23.839     C299.343,430.775,297.126,426.587,293.176,425.372z"/>
			<path d="M278.501,473.05c-3.948-1.218-8.137,1.001-9.353,4.951l-7.337,23.84c-1.216,3.95,1.001,8.137,4.951,9.353     c0.734,0.227,1.474,0.333,2.204,0.333c3.198,0,6.159-2.067,7.149-5.284l7.337-23.84     C284.668,478.453,282.451,474.266,278.501,473.05z"/>
			<path d="M307.85,377.693c-3.949-1.219-8.137,1.001-9.353,4.951l-7.337,23.839c-1.216,3.95,1.001,8.137,4.951,9.353     c0.734,0.227,1.474,0.333,2.204,0.333c3.199,0,6.16-2.068,7.149-5.284l7.337-23.839     C314.017,383.096,311.8,378.909,307.85,377.693z"/>
		</g>
	</g>
</g>
<g>
	<g>
		<g>
			<path d="M309.53,473.05c-3.95-1.218-8.137,1.001-9.353,4.951l-7.337,23.84c-1.216,3.95,1.001,8.137,4.951,9.353     c0.734,0.227,1.474,0.333,2.204,0.333c3.198,0,6.159-2.067,7.149-5.284l7.337-23.84     C315.696,478.453,313.48,474.266,309.53,473.05z"/>
			<path d="M338.879,377.693c-3.948-1.219-8.137,1.001-9.353,4.951l-7.337,23.839c-1.216,3.95,1.001,8.137,4.951,9.353     c0.734,0.227,1.474,0.333,2.204,0.333c3.199,0,6.16-2.068,7.149-5.284l7.337-23.839     C345.045,383.096,342.828,378.909,338.879,377.693z"/>
			<path d="M324.205,425.372c-3.948-1.216-8.137,1.002-9.353,4.951l-7.337,23.839c-1.216,3.95,1.001,8.137,4.951,9.353     c0.734,0.227,1.474,0.333,2.204,0.333c3.198,0,6.159-2.068,7.149-5.284l7.337-23.839     C330.371,430.775,328.154,426.587,324.205,425.372z"/>
		</g>
	</g>
</g>
<g>
	<g>
		<g>
			<path d="M340.559,473.05c-3.949-1.218-8.137,1.001-9.353,4.951l-7.337,23.84c-1.216,3.95,1.001,8.137,4.951,9.353     c0.734,0.227,1.474,0.333,2.204,0.333c3.198,0,6.159-2.067,7.149-5.284l7.337-23.84     C346.725,478.453,344.508,474.266,340.559,473.05z"/>
			<path d="M369.907,377.693c-3.95-1.219-8.137,1.001-9.353,4.951l-7.337,23.839c-1.216,3.95,1.001,8.137,4.951,9.353     c0.734,0.227,1.474,0.333,2.204,0.333c3.199,0,6.16-2.068,7.149-5.284l7.337-23.839     C376.074,383.096,373.857,378.909,369.907,377.693z"/>
			<path d="M355.233,425.372c-3.949-1.216-8.137,1.002-9.353,4.951l-7.337,23.839c-1.216,3.95,1.001,8.137,4.951,9.353     c0.734,0.227,1.474,0.333,2.204,0.333c3.198,0,6.159-2.068,7.149-5.284l7.337-23.839     C361.4,430.775,359.183,426.587,355.233,425.372z"/>
		</g>
	</g>
</g>
<g>
	<g>
		<path d="M511.99,198.642c-0.34-24.411-10.078-47.461-27.419-64.904c-17.343-17.444-40.336-27.314-64.744-27.791    c-16.674-0.298-32.976,3.721-47.429,11.737c-3.363-16.459-9.491-32.085-18.25-46.51c-2.144-3.531-6.747-4.657-10.28-2.512    c-3.532,2.145-4.657,6.747-2.512,10.28c8.567,14.11,14.331,29.499,17.133,45.739c0.667,3.866,3.199,7.136,6.774,8.745    c3.602,1.621,7.764,1.344,11.131-0.742c12.927-8.001,27.848-12.044,43.14-11.774c42.142,0.824,76.905,35.788,77.493,77.941    c0.297,21.35-7.788,41.471-22.765,56.659c-14.981,15.191-34.98,23.557-56.314,23.557h-7.385    c-2.627-5.128-6.05-9.883-10.228-14.085c-10.34-10.399-24.052-16.283-38.611-16.568c-8.495-0.148-16.813,1.569-24.429,5.053    c-9.623-37.626-43.488-64.266-82.986-64.266c-37.284,0-70.336,24.303-81.611,59.529c-19.43,2.068-35.66,13.845-43.987,30.338    H95.129c-43.774,0-79.735-35.119-80.16-78.287c-0.423-42.915,32.798-77.97,75.632-79.807c5.143-0.221,9.51-3.694,10.867-8.642    c15.633-57.051,67.912-96.895,127.133-96.895c33.197,0,64.912,12.382,89.304,34.864c3.038,2.801,7.773,2.609,10.573-0.43    c2.801-3.039,2.608-7.774-0.43-10.573c-27.164-25.037-62.481-38.825-99.446-38.825c-65.17,0-122.791,43.337-140.938,105.677    c-23.546,1.579-45.402,11.827-61.755,29.011C8.961,152.967-0.239,176.325,0.005,200.929c0.507,51.338,43.179,93.105,95.125,93.105    h28.528c-0.663,3.564-0.998,7.247-0.961,11.017c0.302,30.611,25.73,55.516,56.684,55.516h181.225    c15.128,0,29.31-5.933,39.932-16.705c10.621-10.769,16.355-25.038,16.144-40.174c-0.046-3.27-0.389-6.495-0.988-9.655h2.253    c25.37,0,49.154-9.949,66.969-28.015C502.729,247.956,512.344,224.028,511.99,198.642z M389.882,333.354    c-7.789,7.898-18.186,12.247-29.277,12.247H179.38c-22.782,0-41.497-18.257-41.719-40.699    c-0.221-22.312,17.049-40.536,39.317-41.491c4.318-0.185,7.985-3.104,9.126-7.264c8.386-30.605,36.434-51.981,68.205-51.981    c34.519,0,63.824,24.646,69.681,58.603c0.559,3.247,2.686,5.992,5.688,7.344c3.018,1.359,6.504,1.128,9.326-0.618    c6.718-4.159,14.474-6.281,22.426-6.118c21.909,0.428,39.98,18.605,40.286,40.519    C401.872,314.996,397.669,325.458,389.882,333.354z"/>
	</g>
</g>
<g>
	<g>
		<path d="M361.724,248.414L361.724,248.414L361.724,248.414z"/>
	</g>
</g>
<g>
	<g>
		<circle cx="174.238" cy="299.436" r="8.565"/>
	</g>
</g>
<g>
	<g>
		<circle cx="202.036" cy="324.33" r="8.565"/>
	</g>
</g>
<g>
	<g>
		<circle cx="291.371" cy="268.563" r="8.565"/>
	</g>
</g>
<g>
</g>
<g>
</g>
<g>
</g>
<g>
</g>
<g>
</g>
<g>
</g>
<g>
</g>
<g>
</g>
<g>
</g>
<g>
</g>
<g>
</g>
<g>
</g>
<g>
</g>
<g>
</g>
<g>
</g>
</svg>
