<?xml version="1.0" encoding="iso-8859-1"?>
<!-- Generator: Adobe Illustrator 19.0.0, SVG Export Plug-In . SVG Version: 6.00 Build 0)  -->
<svg xmlns="http://www.w3.org/2000/svg" xmlns:xlink="http://www.w3.org/1999/xlink" version="1.1" id="Capa_1" x="0px" y="0px" viewBox="0 0 511.999 511.999" style="enable-background:new 0 0 511.999 511.999;" xml:space="preserve">
<g>
	<g>
		<path d="M463.02,195.632l0.254-0.255L294.412,26.974l-0.373-0.348C274.306,9.456,249.017,0,222.83,0h-102.31    C60.676,0,11.989,48.686,11.989,108.53c0,25.124,8.715,49.445,24.596,68.805v161.622l170.846,170.846l2.197,2.196h265.785V345.984    c15.881-19.358,24.596-43.68,24.596-68.805C500.01,244.715,485.684,215.537,463.02,195.632z M205.236,486.398l-27.665-27.665    v-83.735h-14.997v68.737L124.9,406.061V326.64h-14.997v64.425l-22.824-22.824v-69.175H72.081v54.178l-20.498-20.498V194.252    l73.44,73.439l10.605-10.605l-84.046-84.045v-1.236l-1.828-2.113C35.072,152.721,26.987,131,26.987,108.53    c0-51.575,41.958-93.533,93.533-93.533h102.31c22.485,0,44.201,8.089,61.177,22.779l40.679,40.568    c-8.741-2.238-17.811-3.399-27.038-3.399h-15.189v14.997h15.189c24.184,0,47.129,9.197,64.607,25.899l0.015-0.016l5.909,5.893    c-8.79-2.265-17.914-3.439-27.197-3.439h-3.542v14.997h3.542c24.184,0,47.129,9.197,64.607,25.899l0.073-0.076l13.042,13.007    c-8.702-2.256-17.826-3.456-27.224-3.456H289.169c-59.843,0-108.53,48.686-108.53,108.53c0,9.819,1.349,19.511,3.919,28.837    l-35.161-35.162l-10.605,10.605l23.782,23.783v50.95h14.997v-35.952l27.665,27.665V486.398z M462.244,338.341l-1.828,2.113    v156.548H220.232V340.455l-1.828-2.113c-14.682-16.971-22.768-38.692-22.768-61.163c0-51.573,41.958-93.532,93.533-93.532h102.31    c51.575,0,93.533,41.958,93.533,93.533C485.012,299.65,476.926,321.371,462.244,338.341z"/>
	</g>
</g>
<g>
	<g>
		<rect x="238.776" y="118.278" width="80.585" height="14.997"/>
	</g>
</g>
<g>
	<g>
		<path d="M246.435,29.733H171.25V44.73h75.185c0.743-0.001,1.485,0.008,2.224,0.026l0.35-14.993    C248.153,29.743,247.295,29.733,246.435,29.733z"/>
	</g>
</g>
<g>
	<g>
		<path d="M253.6,74.931h-75.185v14.997h75.184c0.743,0,1.485,0.008,2.225,0.025l0.35-14.993    C255.318,74.94,254.46,74.931,253.6,74.931z"/>
	</g>
</g>
<g>
	<g>
		<path d="M159.486,29.719h-22.128v14.997h22.128l0.117,0.004l1.18-14.95C160.351,29.736,159.92,29.719,159.486,29.719z"/>
	</g>
</g>
<g>
	<g>
		<rect x="72.076" y="240.666" width="14.997" height="42.312"/>
	</g>
</g>
<g>
	<g>
		<path d="M279.548,189.896c-9.156,1.002-18.037,3.446-26.397,7.267l6.233,13.641c6.901-3.153,14.232-5.172,21.795-5.998    L279.548,189.896z"/>
	</g>
</g>
<g>
	<g>
		<path d="M244.468,201.747c-21.942,13.23-36.81,35.271-40.793,60.473l14.813,2.342c3.289-20.818,15.581-39.033,33.724-49.971    L244.468,201.747z"/>
	</g>
</g>
<g>
	<g>
		<path d="M69.535,57.794L59.129,46.995C40.678,64.773,31.082,89.57,32.801,115.026l14.964-1.012    C46.344,92.986,54.28,72.495,69.535,57.794z"/>
	</g>
</g>
<g>
	<g>
		<polygon points="439.369,406.894 439.369,476.635 415.972,476.635 415.972,491.633 454.366,491.633 454.366,406.894   "/>
	</g>
</g>
<g>
	<g>
		<rect x="265.551" y="326.43" width="14.997" height="14.997"/>
	</g>
</g>
<g>
	<g>
		<rect x="380.98" y="268.661" width="14.997" height="14.997"/>
	</g>
</g>
<g>
	<g>
		<rect x="403.265" y="313.792" width="14.997" height="14.997"/>
	</g>
</g>
<g>
	<g>
		<rect x="343.456" y="406.895" width="14.997" height="14.997"/>
	</g>
</g>
<g>
	<g>
		<rect x="282.458" y="438.02" width="14.997" height="14.997"/>
	</g>
</g>
<g>
	<g>
		<rect x="309.953" y="233.167" width="14.997" height="14.997"/>
	</g>
</g>
<g>
	<g>
		<rect x="152.691" y="123.787" width="14.997" height="14.997"/>
	</g>
</g>
<g>
	<g>
		<rect x="81.025" y="146.253" width="14.997" height="14.997"/>
	</g>
</g>
<g>
	<g>
		<rect x="160.19" y="212.581" width="14.997" height="14.997"/>
	</g>
</g>
<g>
</g>
<g>
</g>
<g>
</g>
<g>
</g>
<g>
</g>
<g>
</g>
<g>
</g>
<g>
</g>
<g>
</g>
<g>
</g>
<g>
</g>
<g>
</g>
<g>
</g>
<g>
</g>
<g>
</g>
</svg>
