<?xml version="1.0" encoding="iso-8859-1"?>
<!-- Generator: Adobe Illustrator 19.0.0, SVG Export Plug-In . SVG Version: 6.00 Build 0)  -->
<svg xmlns="http://www.w3.org/2000/svg" xmlns:xlink="http://www.w3.org/1999/xlink" version="1.1" id="Layer_1" x="0px" y="0px" viewBox="0 0 512.002 512.002" style="enable-background:new 0 0 512.002 512.002;" xml:space="preserve">
<g>
	<g>
		<path d="M256.003,262.848c-25.119,0-45.556,20.562-45.556,45.835c0,25.273,20.436,45.834,45.556,45.834    c25.119,0,45.555-20.562,45.555-45.834C301.557,283.41,281.122,262.848,256.003,262.848z M256.003,339.537    c-16.859,0-30.574-13.84-30.574-30.853c0-17.013,13.715-30.853,30.574-30.853c16.858,0,30.573,13.84,30.573,30.853    C286.576,325.697,272.861,339.537,256.003,339.537z"/>
	</g>
</g>
<g>
	<g>
		<path d="M410.794,260.731l-33.007-25.142l-4.315-50.421c-0.713-8.334-3.453-16.475-7.926-23.545l-27.777-43.91l73.025-55.624    c2.651-2.019,4.318-5.085,4.574-8.407c0.256-3.322-0.923-6.605-3.233-9.008l-32.891-34.197c-2.309-2.402-5.53-3.718-8.875-3.583    c-3.331,0.126-6.458,1.673-8.581,4.244l-51.759,62.723L267.215,6.176C264.769,2.309,260.577,0,256.002,0    c-4.574,0-8.766,2.309-11.212,6.175l-42.816,67.686l-51.76-62.725c-2.121-2.57-5.249-4.117-8.578-4.243    c-3.32-0.14-6.565,1.18-8.875,3.581L99.865,44.675c-2.309,2.402-3.487,5.685-3.23,9.008c0.257,3.323,1.924,6.386,4.574,8.407    l73.024,55.622l-27.777,43.91c-4.474,7.07-7.213,15.211-7.926,23.544l-4.315,50.422l-33.006,25.142    c-2.651,2.018-4.319,5.083-4.575,8.406c-0.257,3.323,0.922,6.607,3.231,9.01l28.199,29.32l-5.022,58.687    c-0.354,4.122,2.703,7.749,6.825,8.102c4.119,0.353,7.749-2.702,8.102-6.825l4.414-51.572c3.046-0.314,5.869-1.8,7.829-4.176    l81.132-98.317c3.782-4.583,3.529-11.269-0.591-15.555l-0.266-0.276l10.591-10.306c4.357,2.643,9.464,4.166,14.921,4.166    c5.457,0,10.565-1.523,14.923-4.166l10.591,10.307l-0.266,0.276c-4.121,4.284-4.376,10.97-0.593,15.554l81.133,98.318    c1.961,2.376,4.784,3.862,7.83,4.176l14.875,173.816c0.164,1.912-0.461,3.742-1.759,5.156c-1.297,1.412-3.067,2.19-4.986,2.19    h-69.71v-77.652c0-0.089-0.002-0.178-0.005-0.268c-0.504-14.164-6.491-26.518-17.311-35.727c-19.795-16.848-49.65-16.85-69.444,0    c-10.819,9.209-16.804,21.563-17.311,35.727c-0.003,0.089-0.005,0.179-0.005,0.268v77.652h-69.71    c-1.919,0-3.688-0.778-4.986-2.191c-1.297-1.412-1.922-3.243-1.758-5.154l6.741-78.775c0.354-4.122-2.703-7.749-6.825-8.102    c-4.111-0.345-7.75,2.703-8.102,6.825l-6.741,78.775c-0.518,6.053,1.54,12.089,5.648,16.564c4.107,4.474,9.948,7.041,16.022,7.041    h243.496c6.074,0,11.914-2.566,16.022-7.04c4.108-4.474,6.167-10.512,5.649-16.565l-15.484-180.931l28.197-29.319    c2.31-2.401,3.49-5.684,3.234-9.009C415.113,265.814,413.445,262.749,410.794,260.731z M293.059,496.964h-74.113v-77.458h-0.001    c0.391-10.072,4.331-18.161,12.045-24.727c14.258-12.137,35.763-12.137,50.023,0c7.715,6.566,11.656,14.656,12.045,24.727V496.964    z M371,23.515l27.784,28.888l-96.146,73.236l-8.564-8.905L371,23.515z M113.22,52.403l27.784-28.888l76.926,93.219l-8.564,8.905    L113.22,52.403z M141.003,299.303l-27.784-28.888l96.146-73.236l8.564,8.905L141.003,299.303z M230.639,176.482l-10.534,10.253    l-1.971-2.049c-4.121-4.285-10.793-4.795-15.518-1.198c-0.001,0.001-0.001,0.001-0.002,0.002l-52.313,39.847l3.157-36.893    c0.509-5.95,2.466-11.763,5.659-16.811l27.08-42.807l16.417,12.505c2.107,1.606,4.602,2.393,7.085,2.393    c3.085,0,6.151-1.217,8.435-3.59l1.135-1.18l11.647,11.335c-2.397,4.206-3.774,9.064-3.774,14.241    c0,6.202,1.974,11.948,5.315,16.659C231.714,178.366,231.109,177.462,230.639,176.482z M256.002,176.41    c-7.653,0-13.879-6.226-13.879-13.879s6.225-13.879,13.879-13.879s13.879,6.225,13.879,13.879S263.654,176.41,256.002,176.41z     M270.564,137.626c-4.278-2.511-9.253-3.958-14.561-3.958s-10.282,1.446-14.56,3.957l-11.787-11.472l1.102-1.146    c4.118-4.284,4.373-10.969,0.591-15.554l-19.339-23.435l43.994-69.545l43.994,69.546l-19.34,23.436    c-3.781,4.584-3.526,11.271,0.593,15.553l1.102,1.146L270.564,137.626z M291.899,186.734l-10.605-10.321    c2.271-4.122,3.568-8.853,3.568-13.883c0-5.177-1.377-10.036-3.774-14.241l11.647-11.335l1.135,1.18    c2.283,2.374,5.349,3.59,8.435,3.59c2.482,0,4.977-0.787,7.085-2.393l16.418-12.506l27.079,42.807    c3.193,5.049,5.15,10.862,5.659,16.812l3.157,36.893l-52.313-39.847c-0.001-0.001-0.001-0.001-0.002-0.002    c-4.726-3.6-11.398-3.081-15.518,1.199L291.899,186.734z M371,299.303l-76.925-93.219l8.563-8.904l96.146,73.235L371,299.303z"/>
	</g>
</g>
<g>
	<g>
		<circle cx="149.208" cy="448.387" r="8.574"/>
	</g>
</g>
<g>
	<g>
		<circle cx="177.034" cy="473.317" r="8.574"/>
	</g>
</g>
<g>
	<g>
		<circle cx="328.487" cy="308.68" r="8.574"/>
	</g>
</g>
<g>
</g>
<g>
</g>
<g>
</g>
<g>
</g>
<g>
</g>
<g>
</g>
<g>
</g>
<g>
</g>
<g>
</g>
<g>
</g>
<g>
</g>
<g>
</g>
<g>
</g>
<g>
</g>
<g>
</g>
</svg>
