<?xml version="1.0" encoding="iso-8859-1"?>
<!-- Generator: Adobe Illustrator 19.0.0, SVG Export Plug-In . SVG Version: 6.00 Build 0)  -->
<svg xmlns="http://www.w3.org/2000/svg" xmlns:xlink="http://www.w3.org/1999/xlink" version="1.1" id="Capa_1" x="0px" y="0px" viewBox="0 0 512 512" style="enable-background:new 0 0 512 512;" xml:space="preserve">
<g>
	<g>
		<path d="M481.909,1.048c-16.592,0-30.091,13.499-30.091,30.091v100.468c0,8.321-6.77,15.091-15.091,15.091    c-8.321,0-15.091-6.77-15.091-15.091V31.139c0-16.592-13.499-30.091-30.092-30.091c-16.592,0-30.091,13.499-30.091,30.091v100.468    c0,8.321-6.77,15.091-15.091,15.091c-8.321,0-15.091-6.77-15.091-15.091V31.139c0-16.592-13.499-30.091-30.091-30.091    c-16.592,0-30.091,13.499-30.091,30.091v100.468c0,8.321-6.77,15.091-15.091,15.091c-8.321,0-15.091-6.77-15.091-15.091V31.139    c0-16.592-13.499-30.091-30.091-30.091c-16.592,0-30.091,13.499-30.091,30.091v100.468c0,8.321-6.77,15.091-15.091,15.091    c-8.321,0-15.091-6.77-15.091-15.091V31.139c0-16.592-13.499-30.091-30.092-30.091c-16.592,0-30.091,13.499-30.091,30.091v100.468    c0,8.321-6.77,15.091-15.091,15.091c-8.321,0-15.091-6.77-15.091-15.091V31.139c0-16.592-13.499-30.091-30.091-30.091    C13.495,1.048,0,14.547,0,31.139v149.658c0,21.632,17.599,39.23,39.23,39.23H206v41.367h18.5v36.903H206V484.5    c0,14.586,11.866,26.452,26.452,26.452h46.596c14.586,0,26.452-11.866,26.452-26.452v-7.248v-40.055v-12.77v-40.055v-12.771    v-40.055v-33.25h-19v-36.903H306v-41.367h166.77c21.632,0,39.23-17.599,39.23-39.23V31.139    C512,14.547,498.501,1.048,481.909,1.048z M290.5,462.252h-37.089c-2.156,0-3.911-1.755-3.911-3.911v-2.232    c0-2.156,1.755-3.911,3.911-3.911H290.5V462.252z M290.5,409.428h-37.089c-2.156,0-3.911-1.755-3.911-3.912v-2.231    c0-2.156,1.755-3.911,3.911-3.911H290.5V409.428z M290.5,356.603h-37.089c-2.156,0-3.911-1.755-3.911-3.911v-2.232    c0-2.156,1.755-3.911,3.911-3.911H290.5V356.603z M290.5,313.298v18.25h-37.089c-10.428,0-18.911,8.483-18.911,18.911v2.232    c0,10.428,8.483,18.911,18.911,18.911H290.5v12.771h-37.089c-10.428,0-18.911,8.483-18.911,18.911v2.231    c0,10.428,8.483,18.912,18.911,18.912H290.5v12.77h-37.089c-10.428,0-18.911,8.483-18.911,18.911v2.232    c0,10.428,8.483,18.911,18.911,18.911H290.5v7.248c0,6.314-5.138,11.452-11.452,11.452h-46.596    c-6.314,0-11.452-5.138-11.452-11.452V313.298h3.5h62H290.5z M239.5,298.298v-36.903h32v36.903H239.5z M497,180.797    c0,13.36-10.87,24.23-24.23,24.23H298.5H291h-12v15h12v26.367h-4.5v-0.722h-62v0.722H221v-26.367h34.5v-15H221h-7.5H39.23    c-13.36,0-24.23-10.87-24.23-24.23V31.139c0-8.321,6.77-15.091,15.091-15.091s15.091,6.77,15.091,15.091v100.468    c0,16.592,13.499,30.091,30.091,30.091s30.091-13.499,30.091-30.091V31.139c0-8.321,6.771-15.091,15.092-15.091    c8.321,0,15.091,6.77,15.091,15.091v100.468c0,16.592,13.499,30.091,30.091,30.091c16.592,0,30.091-13.499,30.091-30.091V31.139    c0-8.321,6.77-15.091,15.091-15.091s15.091,6.77,15.091,15.091v100.468c0,16.592,13.499,30.091,30.091,30.091    c16.592,0,30.091-13.499,30.091-30.091V31.139c0-8.321,6.77-15.091,15.091-15.091c8.321,0,15.091,6.77,15.091,15.091v100.468    c0,16.592,13.499,30.091,30.091,30.091c16.592,0,30.091-13.499,30.091-30.091V31.139c0-8.321,6.771-15.091,15.092-15.091    c8.321,0,15.091,6.77,15.091,15.091v100.468c0,16.592,13.499,30.091,30.091,30.091c16.592,0,30.091-13.499,30.091-30.091V31.139    c0-8.321,6.77-15.091,15.091-15.091c8.321,0,15.087,6.769,15.087,15.091V180.797z"/>
	</g>
</g>
<g>
	<g>
		<path d="M42.744,185.768c-4.532,0-8.219-3.687-8.219-8.219v-14.12h-15v14.12c0,12.803,10.416,23.219,23.219,23.219h22.809v-15    H42.744z"/>
	</g>
</g>
<g>
	<g>
		<rect x="76.24" y="185.77" width="20.907" height="15"/>
	</g>
</g>
<g>
	<g>
		<rect x="366.55" y="185.77" width="75.861" height="15"/>
	</g>
</g>
<g>
</g>
<g>
</g>
<g>
</g>
<g>
</g>
<g>
</g>
<g>
</g>
<g>
</g>
<g>
</g>
<g>
</g>
<g>
</g>
<g>
</g>
<g>
</g>
<g>
</g>
<g>
</g>
<g>
</g>
</svg>
