<?xml version="1.0" encoding="iso-8859-1"?>
<!-- Generator: Adobe Illustrator 19.0.0, SVG Export Plug-In . SVG Version: 6.00 Build 0)  -->
<svg xmlns="http://www.w3.org/2000/svg" xmlns:xlink="http://www.w3.org/1999/xlink" version="1.1" id="Layer_1" x="0px" y="0px" viewBox="0 0 512.001 512.001" style="enable-background:new 0 0 512.001 512.001;" xml:space="preserve">
<g>
	<g>
		<path d="M406.895,408.367c-4.138,0-7.492,3.353-7.492,7.492v62.967c0,10.031-8.161,18.192-18.192,18.192H94.945    c-10.031,0-18.192-8.161-18.192-18.192V279.118c0-4.138-3.353-7.492-7.492-7.492s-7.492,3.353-7.492,7.492v199.708    c0,18.292,14.881,33.175,33.175,33.175h286.267c18.292,0,33.175-14.881,33.175-33.175v-62.967    C414.386,411.72,411.033,408.367,406.895,408.367z"/>
	</g>
</g>
<g>
	<g>
		<path d="M444.327,38.334c4.34-4.152,6.352-9.654,5.82-15.909c-0.961-11.317-10.012-20.65-21.523-22.188    c-12.366-1.651-23.008,5.636-30.234,12.762c-4.567-7.512-12.83-12.54-22.245-12.54h-271.39c-14.343,0-26.013,11.67-26.013,26.013    c0,8.207,3.825,15.533,9.78,20.303L71.966,89.906c-2.898,5.923-4.051,12.541-3.334,19.164    c1.533,14.165,11.495,25.696,24.726,29.612v12.105c0,7.007-2.728,13.594-7.683,18.547l-11.834,11.833    c-7.783,7.784-12.07,18.134-12.07,29.143v25.423c0,4.138,3.353,7.492,7.492,7.492c4.138,0,7.492-3.353,7.492-7.492v-25.423    c0-7.007,2.728-13.594,7.682-18.547l11.832-11.833c7.785-7.783,12.072-18.134,12.072-29.143v-11.021    c6.473-0.921,12.494-3.621,17.459-7.827c6.221,5.222,14.149,8.183,22.441,8.183c8.3,0,16.237-2.969,22.459-8.2    c6.222,5.231,14.16,8.2,22.46,8.2s16.237-2.969,22.459-8.2c6.222,5.231,14.16,8.2,22.46,8.2s16.237-2.969,22.459-8.2    c6.223,5.232,14.16,8.2,22.46,8.2s16.237-2.969,22.459-8.2c6.223,5.232,14.16,8.2,22.46,8.2s16.237-2.969,22.459-8.2    c4.954,4.165,10.996,6.889,17.44,7.829v11.036c0,11.009,4.287,21.359,12.071,29.143l11.833,11.833    c4.954,4.953,7.682,11.541,7.682,18.547v163.934c0,4.138,3.353,7.492,7.492,7.492c4.138,0,7.492-3.353,7.492-7.492V210.31    c0-11.009-4.287-21.359-12.071-29.143l-11.833-11.833c-4.954-4.953-7.682-11.541-7.682-18.547v-12.121    c14.403-4.299,24.935-17.66,24.935-33.44c0-3.797-1.377-9.479-1.653-10.58c-0.073-0.294-0.165-0.582-0.273-0.865l-0.039-0.1    c-0.255-0.728-0.512-1.398-0.783-2.044l-11.289-29.41c6.002,10.241,15.533,24.066,28.464,35.42    c1.422,1.25,3.184,1.862,4.939,1.862c2.081,0,4.151-0.862,5.633-2.549c2.73-3.109,2.423-7.842-0.687-10.572    c-15.566-13.669-25.874-31.986-30.038-40.251c4.401,0.39,8.49,0.584,12.272,0.584C428.558,46.721,438.466,43.94,444.327,38.334z     M104.755,15.442h271.391c6.082,0,11.03,4.947,11.03,11.03c0,6.081-4.947,11.029-11.03,11.029H104.755    c-6.082,0-11.03-4.947-11.03-11.029C93.725,20.39,98.673,15.442,104.755,15.442z M372.836,125.139    c-6.488,0-12.59-3.183-16.324-8.514c-1.402-2.002-3.693-3.193-6.137-3.193c-2.444,0-4.735,1.192-6.137,3.194    c-3.733,5.331-9.835,8.513-16.323,8.513c-6.488,0-12.59-3.183-16.324-8.514c-1.402-2.002-3.693-3.193-6.137-3.193    c-2.444,0-4.735,1.192-6.137,3.194c-3.733,5.331-9.835,8.513-16.323,8.513c-6.488,0-12.59-3.183-16.324-8.514    c-1.402-2.002-3.693-3.193-6.137-3.193s-4.735,1.192-6.137,3.194c-3.733,5.331-9.835,8.513-16.323,8.513    c-6.488,0-12.59-3.183-16.324-8.513c-1.401-2.003-3.692-3.194-6.137-3.194s-4.735,1.192-6.137,3.194    c-3.733,5.331-9.835,8.513-16.323,8.513c-6.488,0-12.59-3.183-16.324-8.513c-1.401-2.003-3.692-3.194-6.137-3.194    s-4.735,1.192-6.137,3.194c-3.733,5.331-9.835,8.513-16.323,8.513s-12.59-3.183-16.324-8.513    c-1.401-2.003-3.692-3.194-6.137-3.194c-2.445,0-4.735,1.192-6.137,3.194c-4.091,5.843-10.804,8.997-17.92,8.453    c-9.364-0.723-17.187-8.298-18.197-17.62c-0.42-3.879,0.271-7.74,1.998-11.168c0.112-0.224,0.214-0.453,0.304-0.686l16.517-43.032    h271.596l17.103,44.556c0.034,0.088,0.069,0.175,0.106,0.262c0.165,0.386,0.326,0.805,0.491,1.282    c0.492,2.049,1.109,5.242,1.109,6.554C392.751,116.205,383.817,125.139,372.836,125.139z M426.638,15.088    c4.6,0.615,8.209,4.234,8.58,8.605c0.181,2.129-0.494,3.092-1.251,3.814c-1.981,1.896-8.897,5.764-31.476,3.632    C406.939,24.873,416.969,13.799,426.638,15.088z"/>
	</g>
</g>
<g>
	<g>
		<circle cx="125.35" cy="438.289" r="8.575"/>
	</g>
</g>
<g>
	<g>
		<circle cx="153.179" cy="463.221" r="8.575"/>
	</g>
</g>
<g>
	<g>
		<circle cx="290.175" cy="203.592" r="8.575"/>
	</g>
</g>
<g>
	<g>
		<circle cx="325.495" cy="238.912" r="8.575"/>
	</g>
</g>
<g>
	<g>
		<circle cx="325.495" cy="332.817" r="8.575"/>
	</g>
</g>
<g>
</g>
<g>
</g>
<g>
</g>
<g>
</g>
<g>
</g>
<g>
</g>
<g>
</g>
<g>
</g>
<g>
</g>
<g>
</g>
<g>
</g>
<g>
</g>
<g>
</g>
<g>
</g>
<g>
</g>
</svg>
