<?xml version="1.0" encoding="iso-8859-1"?>
<!-- Generator: Adobe Illustrator 19.0.0, SVG Export Plug-In . SVG Version: 6.00 Build 0)  -->
<svg xmlns="http://www.w3.org/2000/svg" xmlns:xlink="http://www.w3.org/1999/xlink" version="1.1" id="Layer_1" x="0px" y="0px" viewBox="0 0 511.999 511.999" style="enable-background:new 0 0 511.999 511.999;" xml:space="preserve">
<g>
	<g>
		<path d="M403.974,90.945c-12.193-12.263-28.359-19.202-45.522-19.538c-10.634-0.183-21.034,2.111-30.456,6.741    c-3.496-14.64-10.258-28.432-19.757-40.208c-2.609-3.233-7.343-3.74-10.576-1.132c-3.232,2.608-3.74,7.342-1.132,10.576    c9.239,11.453,15.439,25.139,17.929,39.577c0.59,3.422,2.832,6.317,5.998,7.741c3.183,1.433,6.86,1.188,9.835-0.654    c8.347-5.167,18.005-7.807,27.864-7.603c27.222,0.531,49.675,23.116,50.055,50.343c0.191,13.791-5.031,26.789-14.706,36.6    c-9.677,9.811-22.596,15.216-36.376,15.216h-218.54c-28.295,0-51.537-22.684-51.812-50.567    c-0.273-27.72,21.185-50.365,48.85-51.551c4.553-0.194,8.419-3.27,9.621-7.655c10.292-37.559,44.71-63.79,83.698-63.79    c14.039,0,27.433,3.246,39.808,9.648c3.688,1.908,8.226,0.466,10.135-3.223c1.909-3.69,0.465-8.227-3.223-10.135    C261.34,3.918,245.185,0,228.949,0c-44.64,0-84.174,29.311-97.281,71.684c-15.905,1.475-30.613,8.593-41.717,20.261    c-11.916,12.52-18.383,28.942-18.212,46.241c0.356,36.094,30.345,65.46,66.852,65.46h218.54c17.837,0,34.56-6.995,47.085-19.694    c12.524-12.7,19.284-29.523,19.035-47.371C423.012,119.414,416.166,103.207,403.974,90.945z"/>
	</g>
</g>
<g>
	<g>
		<circle cx="107.689" cy="144.896" r="8.608"/>
	</g>
</g>
<g>
	<g>
		<circle cx="135.62" cy="169.924" r="8.608"/>
	</g>
</g>
<g>
	<g>
		<circle cx="262.953" cy="74.455" r="8.608"/>
	</g>
</g>
<g>
	<g>
		<g>
			<path d="M170.23,310.592c-4.153,0-7.521,3.367-7.521,7.521v20.505c0,4.154,3.367,7.521,7.521,7.521     c4.153,0,7.521-3.366,7.521-7.521v-20.505C177.75,313.959,174.383,310.592,170.23,310.592z"/>
			<path d="M170.23,260.455c-4.153,0-7.521,3.366-7.521,7.521v25.068c0,4.154,3.367,7.521,7.521,7.521     c4.153,0,7.521-3.366,7.521-7.521v-25.068C177.75,263.821,174.383,260.455,170.23,260.455z"/>
			<path d="M170.23,210.317c-4.153,0-7.521,3.366-7.521,7.521v25.068c0,4.154,3.367,7.521,7.521,7.521     c4.153,0,7.521-3.367,7.521-7.521v-25.068C177.75,213.684,174.383,210.317,170.23,210.317z"/>
		</g>
	</g>
</g>
<g>
	<g>
		<g>
			<path d="M201.137,260.455c-4.153,0-7.521,3.366-7.521,7.521v25.068c0,4.154,3.367,7.521,7.521,7.521     c4.154,0,7.521-3.366,7.521-7.521v-25.068C208.657,263.821,205.29,260.455,201.137,260.455z"/>
			<path d="M201.137,310.592c-4.153,0-7.521,3.367-7.521,7.521v20.505c0,4.154,3.367,7.521,7.521,7.521     c4.154,0,7.521-3.366,7.521-7.521v-20.505C208.657,313.959,205.29,310.592,201.137,310.592z"/>
			<path d="M201.137,210.317c-4.153,0-7.521,3.366-7.521,7.521v25.068c0,4.154,3.367,7.521,7.521,7.521     c4.154,0,7.521-3.367,7.521-7.521v-25.068C208.657,213.684,205.29,210.317,201.137,210.317z"/>
		</g>
	</g>
</g>
<g>
	<g>
		<g>
			<path d="M232.044,310.592c-4.153,0-7.521,3.367-7.521,7.521v20.505c0,4.154,3.367,7.521,7.521,7.521     c4.154,0,7.521-3.366,7.521-7.521v-20.505C239.565,313.959,236.197,310.592,232.044,310.592z"/>
			<path d="M232.044,210.317c-4.153,0-7.521,3.366-7.521,7.521v25.068c0,4.154,3.367,7.521,7.521,7.521     c4.154,0,7.521-3.367,7.521-7.521v-25.068C239.565,213.684,236.197,210.317,232.044,210.317z"/>
			<path d="M232.044,260.455c-4.153,0-7.521,3.366-7.521,7.521v25.068c0,4.154,3.367,7.521,7.521,7.521     c4.154,0,7.521-3.366,7.521-7.521v-25.068C239.565,263.821,236.197,260.455,232.044,260.455z"/>
		</g>
	</g>
</g>
<g>
	<g>
		<g>
			<path d="M262.952,310.592c-4.154,0-7.52,3.367-7.52,7.521v20.505c0,4.154,3.366,7.521,7.52,7.521s7.521-3.366,7.521-7.521     v-20.505C270.472,313.959,267.106,310.592,262.952,310.592z"/>
			<path d="M262.952,260.455c-4.154,0-7.52,3.366-7.52,7.521v25.068c0,4.154,3.366,7.521,7.52,7.521s7.521-3.366,7.521-7.521     v-25.068C270.472,263.821,267.106,260.455,262.952,260.455z"/>
			<path d="M262.952,210.317c-4.154,0-7.52,3.366-7.52,7.521v25.068c0,4.154,3.366,7.521,7.52,7.521s7.521-3.367,7.521-7.521     v-25.068C270.472,213.684,267.106,210.317,262.952,210.317z"/>
		</g>
	</g>
</g>
<g>
	<g>
		<g>
			<path d="M293.859,260.455c-4.154,0-7.521,3.366-7.521,7.521v25.068c0,4.154,3.367,7.521,7.521,7.521     c4.154,0,7.52-3.366,7.521-7.521v-25.068C301.379,263.821,298.013,260.455,293.859,260.455z"/>
			<path d="M293.859,310.592c-4.154,0-7.521,3.367-7.521,7.521v20.505c0,4.154,3.367,7.521,7.521,7.521     c4.154,0,7.52-3.366,7.521-7.521v-20.505C301.379,313.959,298.013,310.592,293.859,310.592z"/>
			<path d="M293.859,210.317c-4.154,0-7.521,3.366-7.521,7.521v25.068c0,4.154,3.367,7.521,7.521,7.521     c4.154,0,7.52-3.367,7.521-7.521v-25.068C301.379,213.684,298.013,210.317,293.859,210.317z"/>
		</g>
	</g>
</g>
<g>
	<g>
		<g>
			<path d="M324.767,260.455c-4.154,0-7.521,3.366-7.521,7.521v25.068c0,4.154,3.367,7.521,7.521,7.521     c4.154,0,7.521-3.366,7.521-7.521v-25.068C332.288,263.821,328.921,260.455,324.767,260.455z"/>
			<path d="M324.767,310.592c-4.154,0-7.521,3.367-7.521,7.521v20.505c0,4.154,3.367,7.521,7.521,7.521     c4.154,0,7.521-3.366,7.521-7.521v-20.505C332.288,313.959,328.921,310.592,324.767,310.592z"/>
			<path d="M324.767,210.317c-4.154,0-7.521,3.366-7.521,7.521v25.068c0,4.154,3.367,7.521,7.521,7.521     c4.154,0,7.521-3.367,7.521-7.521v-25.068C332.288,213.684,328.921,210.317,324.767,210.317z"/>
		</g>
	</g>
</g>
<g>
	<g>
		<path d="M437.765,471.783c-3.072-7.044-9.045-14.834-13.536-20.149c-2.103-2.488-5.175-3.916-8.43-3.916    c-3.254,0-6.328,1.428-8.429,3.915c-4.492,5.317-10.466,13.106-13.538,20.149c-1.657,3.383-2.498,6.995-2.498,10.74    c0,6.897,2.934,13.51,8.05,18.141c4.509,4.081,10.4,6.321,16.461,6.321c0.812,0,1.626-0.04,2.441-0.121    c10.951-1.092,19.852-9.442,21.646-20.308C440.767,481.486,440.019,476.382,437.765,471.783z M425.092,484.107    c-0.678,4.101-4.167,7.376-8.298,7.789c-2.718,0.268-5.318-0.576-7.316-2.384c-2-1.812-3.103-4.295-3.103-6.991    c0-1.459,0.338-2.873,1.006-4.204c0.067-0.133,0.129-0.267,0.187-0.404c1.426-3.32,4.35-7.858,8.232-12.814    c3.881,4.957,6.805,9.493,8.23,12.815c0.058,0.137,0.12,0.271,0.187,0.404C425.13,480.139,425.425,482.087,425.092,484.107z"/>
	</g>
</g>
<g>
	<g>
		<path d="M401.588,386.38H365.27v-59.862c0-4.154-3.367-7.521-7.521-7.521s-7.521,3.367-7.521,7.521v62.369    c0,6.911,5.623,12.534,12.534,12.534h38.825c9.124,0,16.545,7.421,16.545,16.545v7.189h-6.593v-4.723    c0-6.544-5.324-11.868-11.868-11.868h-36.91c-6.911,0-12.534,5.623-12.534,12.534v67.999c0,4.334-3.527,7.861-7.861,7.861h-187.5    c-4.334,0-7.861-3.527-7.861-7.861v-162.58c0-4.154-3.367-7.521-7.521-7.521c-4.153,0-7.521,3.367-7.521,7.521v162.58    c0,12.628,10.274,22.902,22.902,22.902h187.5c12.628,0,22.902-10.273,22.903-22.9v-65.492H396.5v4.723    c0,6.544,5.324,11.868,11.868,11.868h12.94c6.544,0,11.868-5.324,11.868-11.868v-10.364    C433.176,400.549,419.005,386.38,401.588,386.38z"/>
	</g>
</g>
<g>
	<g>
		<path d="M331.078,374.956c-8.183,0-12.578,4.313-15.486,7.166c-2.439,2.392-3.08,2.861-4.955,2.861    c-1.873,0-2.514-0.468-4.953-2.861c-2.909-2.854-7.303-7.166-15.487-7.166s-12.579,4.313-15.487,7.166    c-2.438,2.392-3.078,2.861-4.952,2.861c-1.871,0-2.513-0.468-4.951-2.861c-2.908-2.854-7.302-7.166-15.486-7.166    c-8.183,0-12.578,4.313-15.486,7.166c-2.438,2.392-3.079,2.861-4.952,2.861c-1.871,0-2.513-0.468-4.951-2.861    c-2.908-2.854-7.303-7.166-15.486-7.166c-8.183,0-12.577,4.313-15.485,7.167c-2.437,2.391-3.077,2.86-4.95,2.86    c-1.87,0-2.512-0.468-4.949-2.86c-2.908-2.855-7.302-7.167-15.485-7.167c-4.153,0-7.521,3.367-7.521,7.521    c0,4.154,3.367,7.521,7.521,7.521c1.871,0,2.512,0.468,4.95,2.86c2.908,2.855,7.302,7.167,15.485,7.167    c8.184,0,12.578-4.313,15.486-7.167c2.438-2.391,3.078-2.86,4.95-2.86c1.872,0,2.514,0.468,4.952,2.861    c2.909,2.854,7.303,7.166,15.486,7.166s12.578-4.313,15.486-7.166c2.438-2.392,3.079-2.861,4.952-2.861s2.513,0.468,4.952,2.861    c2.909,2.854,7.303,7.166,15.486,7.166c8.183,0,12.578-4.313,15.486-7.166c2.438-2.392,3.078-2.861,4.952-2.861    c1.873,0,2.514,0.468,4.953,2.861c2.909,2.854,7.303,7.166,15.487,7.166s12.58-4.313,15.485-7.166    c2.438-2.392,3.079-2.861,4.953-2.861c4.154,0,7.521-3.367,7.521-7.521C338.598,378.322,335.232,374.956,331.078,374.956z"/>
	</g>
</g>
<g>
	<g>
		<path d="M331.078,409.904c-8.183,0-12.578,4.313-15.486,7.166c-2.439,2.392-3.08,2.861-4.955,2.861    c-1.873,0-2.514-0.468-4.953-2.861c-2.909-2.854-7.303-7.166-15.487-7.166s-12.579,4.313-15.487,7.166    c-2.438,2.392-3.078,2.861-4.952,2.861c-1.871,0-2.513-0.468-4.951-2.861c-2.908-2.854-7.302-7.166-15.486-7.166    c-8.183,0-12.578,4.313-15.486,7.166c-2.438,2.392-3.079,2.861-4.952,2.861c-1.871,0-2.513-0.468-4.951-2.861    c-2.908-2.854-7.303-7.166-15.486-7.166c-8.183,0-12.577,4.313-15.485,7.167c-2.437,2.391-3.077,2.86-4.95,2.86    c-1.87,0-2.512-0.468-4.949-2.86c-2.908-2.855-7.302-7.167-15.485-7.167c-4.153,0-7.521,3.367-7.521,7.521    c0,4.154,3.367,7.521,7.521,7.521c1.871,0,2.512,0.468,4.95,2.86c2.908,2.855,7.302,7.167,15.485,7.167    c8.184,0,12.578-4.313,15.486-7.167c2.438-2.391,3.078-2.86,4.95-2.86c1.872,0,2.514,0.468,4.952,2.861    c2.909,2.854,7.303,7.166,15.486,7.166s12.578-4.313,15.486-7.166c2.438-2.392,3.079-2.861,4.952-2.861s2.513,0.468,4.952,2.861    c2.909,2.854,7.303,7.166,15.486,7.166c8.183,0,12.578-4.313,15.486-7.166c2.438-2.392,3.078-2.861,4.952-2.861    c1.873,0,2.514,0.468,4.953,2.861c2.909,2.854,7.303,7.166,15.487,7.166s12.58-4.313,15.485-7.166    c2.438-2.392,3.079-2.861,4.953-2.861c4.154,0,7.521-3.367,7.521-7.521C338.598,413.271,335.232,409.904,331.078,409.904z"/>
	</g>
</g>
<g>
	<g>
		<path d="M331.078,444.852c-8.183,0-12.578,4.313-15.486,7.166c-2.439,2.392-3.08,2.861-4.955,2.861    c-1.873,0-2.514-0.468-4.953-2.861c-2.909-2.854-7.303-7.166-15.487-7.166s-12.579,4.313-15.487,7.166    c-2.438,2.392-3.078,2.861-4.952,2.861c-1.871,0-2.513-0.468-4.951-2.861c-2.908-2.854-7.302-7.166-15.486-7.166    c-8.183,0-12.578,4.313-15.486,7.166c-2.438,2.392-3.079,2.861-4.952,2.861c-1.871,0-2.513-0.468-4.951-2.861    c-2.908-2.854-7.303-7.166-15.486-7.166c-8.183,0-12.577,4.313-15.485,7.167c-2.437,2.391-3.077,2.86-4.95,2.86    c-1.87,0-2.512-0.468-4.949-2.86c-2.908-2.855-7.302-7.167-15.485-7.167c-4.153,0-7.521,3.366-7.521,7.521    s3.367,7.521,7.521,7.521c1.871,0,2.512,0.468,4.95,2.86c2.908,2.855,7.302,7.167,15.485,7.167c8.184,0,12.578-4.313,15.486-7.167    c2.438-2.391,3.078-2.86,4.95-2.86c1.872,0,2.514,0.468,4.952,2.861c2.909,2.854,7.303,7.166,15.486,7.166    s12.578-4.313,15.486-7.166c2.438-2.392,3.079-2.861,4.952-2.861s2.513,0.468,4.952,2.861c2.909,2.854,7.303,7.166,15.486,7.166    c8.183,0,12.578-4.313,15.486-7.166c2.438-2.392,3.078-2.861,4.952-2.861c1.873,0,2.514,0.468,4.953,2.861    c2.909,2.854,7.303,7.166,15.487,7.166s12.58-4.313,15.485-7.166c2.438-2.392,3.079-2.861,4.953-2.861    c4.154,0,7.521-3.366,7.521-7.521S335.232,444.852,331.078,444.852z"/>
	</g>
</g>
<g>
	<g>
		<path d="M401.59,386.375h-36.32v-59.854c0-4.161-3.369-7.521-7.521-7.521s-7.521,3.359-7.521,7.521v62.361    c0,6.919,5.625,12.534,12.534,12.534h38.826c9.125,0,16.545,7.43,16.545,16.545v7.19h-6.598v-4.723    c0-6.538-5.325-11.863-11.863-11.863h-36.911c-6.909,0-12.534,5.625-12.534,12.534v67.997c0,4.332-3.53,7.862-7.862,7.862H154.864    c-4.332,0-7.852-3.53-7.852-7.862V326.52c0-4.161-3.369-7.521-7.521-7.521c-4.161,0-7.521,3.359-7.521,7.521v162.576    c0,12.624,10.269,22.903,22.893,22.903h187.504c12.624,0,22.903-10.279,22.903-22.903v-65.49h31.226v4.723    c0,6.538,5.325,11.863,11.873,11.863h12.935c6.548,0,11.873-5.325,11.873-11.863v-10.369    C433.178,400.543,419.009,386.375,401.59,386.375z"/>
	</g>
</g>
<g>
</g>
<g>
</g>
<g>
</g>
<g>
</g>
<g>
</g>
<g>
</g>
<g>
</g>
<g>
</g>
<g>
</g>
<g>
</g>
<g>
</g>
<g>
</g>
<g>
</g>
<g>
</g>
<g>
</g>
</svg>
