<?xml version="1.0" encoding="iso-8859-1"?>
<!-- Generator: Adobe Illustrator 19.0.0, SVG Export Plug-In . SVG Version: 6.00 Build 0)  -->
<svg xmlns="http://www.w3.org/2000/svg" xmlns:xlink="http://www.w3.org/1999/xlink" version="1.1" id="Capa_1" x="0px" y="0px" viewBox="0 0 512.001 512.001" style="enable-background:new 0 0 512.001 512.001;" xml:space="preserve">
<g>
	<g>
		<path d="M260.795,3.98L256,0l-4.795,3.98C186.77,57.444,149.816,136.127,149.816,219.857v41.941    c0,13.498,10.982,24.481,24.481,24.481h50.752v25.506h-8.78v173.729c0,14.606,11.882,26.487,26.487,26.487h26.488    c14.605,0,26.487-11.882,26.487-26.487v-3.139v-40.014V429.68v-40.014v-12.681v-40.014v-25.187h-8.779v-25.506h50.751    c13.499,0,24.482-10.983,24.482-24.481v-41.941C362.185,136.128,325.231,57.445,260.795,3.98z M271.932,286.278v25.506h-31.865    v-25.506H271.932z M225.048,271.258h-50.751v0c-5.217,0-9.461-4.244-9.461-9.461v-41.941c0-73.745,30.304-143.336,83.654-193.424    v244.826H225.048z M280.711,467.354h-27c-2.16,0-3.917-1.757-3.917-3.917v-2.14c0-2.159,1.757-3.916,3.917-3.916h27V467.354z     M280.711,414.66h-27c-2.16,0-3.917-1.757-3.917-3.917v-2.14c0-2.159,1.757-3.916,3.917-3.916h27V414.66z M280.711,361.964h-27    c-2.16,0-3.917-1.757-3.917-3.917v-2.14c0-2.159,1.757-3.916,3.917-3.916h27V361.964z M280.711,336.971h-27v0.001    c-10.442,0-18.937,8.494-18.937,18.936v2.14c0,10.442,8.495,18.937,18.937,18.937h27v12.681h-27    c-10.442,0-18.937,8.494-18.937,18.936v2.14c0,10.442,8.495,18.937,18.937,18.937h27v12.681h-27    c-10.442,0-18.937,8.494-18.937,18.936v2.14c0,10.442,8.495,18.937,18.937,18.937h27v3.139c0,6.323-5.144,11.467-11.466,11.467    h-26.488c-6.323,0-11.467-5.145-11.467-11.467v-158.71h49.422V336.971z M347.165,261.797c0,5.217-4.245,9.461-9.462,9.461h-50.751    H263.51V26.432c53.352,50.088,83.655,119.679,83.655,193.424V261.797z"/>
	</g>
</g>
<g>
	<g>
		<path d="M307.393,95.001l-12.708,8.005c11.283,17.914,19.624,37.403,24.79,57.927l14.566-3.667    C328.486,135.205,319.521,114.256,307.393,95.001z"/>
	</g>
</g>
<g>
	<g>
		<rect x="206.527" y="250.786" width="16.989" height="15.02"/>
	</g>
</g>
<g>
	<g>
		<path d="M187.021,250.788c-0.306-0.001-0.556-0.25-0.556-0.557v-39.381h-15.02v39.381c0,8.589,6.987,15.577,15.576,15.577h10.782    v-15.02H187.021z"/>
	</g>
</g>
<g>
</g>
<g>
</g>
<g>
</g>
<g>
</g>
<g>
</g>
<g>
</g>
<g>
</g>
<g>
</g>
<g>
</g>
<g>
</g>
<g>
</g>
<g>
</g>
<g>
</g>
<g>
</g>
<g>
</g>
</svg>
