<?xml version="1.0" encoding="iso-8859-1"?>
<!-- Generator: Adobe Illustrator 19.0.0, SVG Export Plug-In . SVG Version: 6.00 Build 0)  -->
<svg xmlns="http://www.w3.org/2000/svg" xmlns:xlink="http://www.w3.org/1999/xlink" version="1.1" id="Capa_1" x="0px" y="0px" viewBox="0 0 512 512" style="enable-background:new 0 0 512 512;" xml:space="preserve">
<g>
	<g>
		<path d="M512,199.818c0-48.194-23.814-87.365-68.866-113.28c-33.392-19.207-66.34-24.288-67.726-24.495l-1.852-0.276    L0.133,192.203l0.011,0.032H0v143.712l9.47-2.433c2.341-0.602,4.768-0.906,7.211-0.906c15.922,0,28.876,12.953,28.876,28.876    c0,15.921-12.953,28.876-28.876,28.876c-2.443,0-4.871-0.305-7.214-0.906L0,387.025v63.209h512V200.789    c0-0.329-0.023-0.652-0.06-0.971H512z M374.939,77.345c7.035,1.293,33.919,6.971,60.634,22.338    c38.233,21.991,58.734,53.103,61.039,92.553H46.024L374.939,77.345z M496.836,435.069H15.164v-29.571    c0.505,0.017,1.011,0.025,1.516,0.025c24.284,0,44.04-19.756,44.04-44.04c0-24.284-19.756-44.04-44.04-44.04    c-0.505,0-1.011,0.009-1.516,0.025V207.4h481.672V435.069z"/>
	</g>
</g>
<g>
	<g>
		<path d="M310.503,233.15c-19.742,0-35.803,16.061-35.803,35.803c0,19.742,16.061,35.803,35.803,35.803    c19.742,0,35.803-16.061,35.803-35.803C346.306,249.211,330.245,233.15,310.503,233.15z M310.503,289.591    c-11.38,0-20.639-9.258-20.639-20.639c0-11.38,9.258-20.639,20.639-20.639c11.38,0,20.639,9.258,20.639,20.639    C331.142,280.333,321.884,289.591,310.503,289.591z"/>
	</g>
</g>
<g>
	<g>
		<path d="M402.312,316.767c-27.452,0-49.786,22.334-49.786,49.785c0.001,27.452,22.334,49.786,49.786,49.786    c27.452,0,49.786-22.334,49.786-49.786C452.098,339.101,429.764,316.767,402.312,316.767z M402.312,401.173    c-19.091,0-34.622-15.531-34.622-34.622c0-19.091,15.531-34.621,34.622-34.621c19.091,0,34.622,15.53,34.622,34.621    C436.934,385.642,421.403,401.173,402.312,401.173z"/>
	</g>
</g>
<g>
	<g>
		<path d="M147.424,262.325c-25.502,0-46.249,20.747-46.249,46.249c0,25.502,20.747,46.249,46.249,46.249    c25.502,0,46.249-20.747,46.249-46.249C193.673,283.072,172.926,262.325,147.424,262.325z M147.424,339.659    c-17.141,0-31.085-13.945-31.085-31.085c0-17.14,13.944-31.085,31.085-31.085s31.085,13.945,31.085,31.085    C178.509,325.714,164.565,339.659,147.424,339.659z"/>
	</g>
</g>
<g>
	<g>
		<path d="M256,369.286c-14.706,0-26.669,11.964-26.669,26.67c0,14.705,11.964,26.669,26.669,26.669    c14.705,0,26.67-11.964,26.67-26.669C282.67,381.249,270.706,369.286,256,369.286z M256,407.461    c-6.345,0-11.505-5.161-11.505-11.505c0-6.345,5.161-11.506,11.505-11.506c6.344,0,11.506,5.161,11.506,11.506    C267.506,402.299,262.345,407.461,256,407.461z"/>
	</g>
</g>
<g>
	<g>
		<path d="M67.816,221.946c-15.05,0-27.295,12.244-27.295,27.295c0,15.051,12.244,27.295,27.295,27.295    c15.05,0,27.295-12.244,27.295-27.295C95.11,234.189,82.866,221.946,67.816,221.946z M67.816,261.371    c-6.688,0-12.13-5.442-12.13-12.13c0-6.688,5.441-12.13,12.13-12.13c6.688,0,12.13,5.442,12.13,12.13    C79.946,255.929,74.504,261.371,67.816,261.371z"/>
	</g>
</g>
<g>
	<g>
		<polygon points="444.516,213.359 444.516,228.523 475.107,228.523 475.107,278.479 490.272,278.479 490.272,213.359   "/>
	</g>
</g>
<g>
	<g>
		<rect x="475.106" y="287.332" width="15.164" height="15.995"/>
	</g>
</g>
<g>
	<g>
		<rect x="59.371" y="413.094" width="82.2" height="15.164"/>
	</g>
</g>
<g>
	<g>
		<path d="M323.637,127.097c-20.614,0-36.762,11.805-36.762,26.875s16.148,26.876,36.762,26.876s36.762-11.806,36.762-26.876    S344.251,127.097,323.637,127.097z M323.637,165.684c-12.362,0-21.598-6.183-21.598-11.712c0-5.528,9.237-11.711,21.598-11.711    s21.598,6.183,21.598,11.711C345.236,159.501,335.999,165.684,323.637,165.684z"/>
	</g>
</g>
<g>
	<g>
		<path d="M220.473,143.267c-13.47,0-24.021,8.253-24.021,18.791c0,10.537,10.551,18.791,24.021,18.791s24.022-8.253,24.022-18.791    C244.495,151.521,233.943,143.267,220.473,143.267z M220.473,165.684c-5.619,0-8.857-2.752-8.857-3.626    c0-0.874,3.239-3.626,8.857-3.626c5.619,0,8.858,2.752,8.858,3.626C229.331,162.932,226.092,165.684,220.473,165.684z"/>
	</g>
</g>
<g>
	<g>
		<path d="M376.636,83.519c-13.519,0-24.11,7.938-24.11,18.071c0,10.133,10.591,18.071,24.11,18.071s24.11-7.938,24.11-18.071    C400.746,91.457,390.155,83.519,376.636,83.519z M376.636,104.496c-4.981,0-8.104-1.912-8.846-2.906    c0.741-0.995,3.864-2.906,8.846-2.906s8.104,1.912,8.846,2.906C384.741,102.585,381.618,104.496,376.636,104.496z"/>
	</g>
</g>
<g>
	<g>
		<path d="M462.551,134.226c-12.112,0-21.967,8.429-21.967,18.791c0,10.36,9.855,18.789,21.967,18.789    c12.112,0,21.967-8.429,21.967-18.789C484.518,142.656,474.664,134.226,462.551,134.226z M462.551,156.642    c-4.089,0-6.803-2.182-6.803-3.625c0-1.444,2.713-3.626,6.803-3.626c4.089,0,6.803,2.183,6.803,3.626    C469.354,154.461,466.641,156.642,462.551,156.642z"/>
	</g>
</g>
<g>
	<g>
		<rect x="154.918" y="413.094" width="43.256" height="15.164"/>
	</g>
</g>
<g>
</g>
<g>
</g>
<g>
</g>
<g>
</g>
<g>
</g>
<g>
</g>
<g>
</g>
<g>
</g>
<g>
</g>
<g>
</g>
<g>
</g>
<g>
</g>
<g>
</g>
<g>
</g>
<g>
</g>
</svg>
