<?xml version="1.0" encoding="iso-8859-1"?>
<!-- Generator: Adobe Illustrator 19.0.0, SVG Export Plug-In . SVG Version: 6.00 Build 0)  -->
<svg xmlns="http://www.w3.org/2000/svg" xmlns:xlink="http://www.w3.org/1999/xlink" version="1.1" id="Layer_1" x="0px" y="0px" viewBox="0 0 511.999 511.999" style="enable-background:new 0 0 511.999 511.999;" xml:space="preserve">
<g>
	<g>
		<path d="M500.117,150.54h-5.522l-13.255-85.732c-0.564-3.652-3.708-6.347-7.403-6.347h-28.468c-3.696,0-6.839,2.695-7.403,6.347    l-13.255,85.732h-5.522c-6.552,0-11.882,5.331-11.882,11.882v22.809c0,6.553,5.331,11.883,11.882,11.883h2.915v133.143    c0,47.818-38.233,86.872-85.735,88.207c21.773-30.399,34.607-67.616,34.607-107.777c0-102.306-83.232-185.539-185.538-185.539    c-32.558,0-64.589,8.555-92.629,24.742c-3.583,2.068-4.811,6.649-2.743,10.232c2.069,3.584,6.65,4.81,10.233,2.743    c25.766-14.873,55.207-22.735,85.138-22.735c94.045,0,170.555,76.511,170.555,170.556c0,94.044-76.511,170.555-170.555,170.555    S14.983,404.73,14.983,310.686c0-47.635,19.144-91.824,53.904-124.427c3.018-2.831,3.169-7.571,0.339-10.59    c-2.83-3.017-7.571-3.169-10.589-0.34c-18.314,17.177-32.731,37.482-42.849,60.349C5.312,259.355,0,284.591,0,310.686    c0,102.306,83.232,185.538,185.539,185.538c3.734,0,7.438-0.124,11.118-0.343c0.695,0.216,1.43,0.343,2.197,0.343h145.681    c84.886,0,153.944-69.06,153.944-153.944v-75.02c0-4.138-3.354-7.491-7.491-7.491c-4.137,0-7.491,3.353-7.491,7.491v75.019    c0,76.624-62.338,138.962-138.962,138.962h-85.98c25.393-10.912,47.874-27.339,65.941-47.758h9.463    c56.92,0,103.227-46.307,103.227-103.227V197.115h46.309v28.623c0,4.138,3.354,7.491,7.491,7.491s7.491-3.353,7.491-7.491v-28.623    h1.638c6.552,0,11.882-5.331,11.882-11.883v-22.809C512,155.871,506.669,150.54,500.117,150.54z M451.892,73.444h15.624    l11.919,77.097h-39.462L451.892,73.444z M497.017,182.132H422.39v-16.61h74.627V182.132z"/>
	</g>
</g>
<g>
	<g>
		<path d="M185.539,182.132c-71.552,0-129.763,58.21-129.763,129.762s58.211,129.762,129.763,129.762    c71.551,0,129.762-58.21,129.762-129.762S257.09,182.132,185.539,182.132z M185.539,426.675    c-63.291,0-114.781-51.49-114.781-114.78s51.49-114.78,114.781-114.78c63.29,0,114.78,51.49,114.78,114.78    S248.828,426.675,185.539,426.675z"/>
	</g>
</g>
<g>
	<g>
		<path d="M185.539,246.98c-35.794,0-64.915,29.12-64.915,64.915c0,35.793,29.12,64.914,64.915,64.914    c35.793,0,64.915-29.12,64.915-64.914C250.453,276.1,221.332,246.98,185.539,246.98z M185.539,361.826    c-27.533,0-49.932-22.399-49.932-49.931s22.399-49.932,49.932-49.932c27.532,0,49.932,22.4,49.932,49.932    C235.471,339.427,213.071,361.826,185.539,361.826z"/>
	</g>
</g>
<g>
	<g>
		<path d="M418.263,57.637c-5.494-12.682-16.502-27.015-24.791-36.827c-2.702-3.199-6.652-5.034-10.835-5.034    c-4.184,0-8.134,1.835-10.836,5.034c-8.289,9.813-19.298,24.145-24.792,36.827c-2.739,5.539-4.127,11.451-4.127,17.578    c0,11.209,4.768,21.954,13.083,29.48c7.326,6.631,16.901,10.27,26.758,10.27c1.32,0,2.647-0.065,3.973-0.198    c17.787-1.775,32.243-15.338,35.153-32.983C423.216,73.492,421.976,65.148,418.263,57.637z M407.065,79.345    c-1.782,10.799-10.974,19.426-21.858,20.512c-7.119,0.711-13.937-1.517-19.19-6.272c-5.182-4.692-8.155-11.388-8.155-18.372    c0-3.849,0.889-7.572,2.64-11.066c0.066-0.131,0.128-0.265,0.187-0.401c4.828-11.25,15.565-24.934,21.946-32.543    c6.38,7.608,17.116,21.292,21.945,32.543c0.059,0.136,0.122,0.27,0.188,0.403C407.133,68.867,407.927,74.122,407.065,79.345z"/>
	</g>
</g>
<g>
</g>
<g>
</g>
<g>
</g>
<g>
</g>
<g>
</g>
<g>
</g>
<g>
</g>
<g>
</g>
<g>
</g>
<g>
</g>
<g>
</g>
<g>
</g>
<g>
</g>
<g>
</g>
<g>
</g>
</svg>
