<?xml version="1.0" encoding="iso-8859-1"?>
<!-- Generator: Adobe Illustrator 19.0.0, SVG Export Plug-In . SVG Version: 6.00 Build 0)  -->
<svg xmlns="http://www.w3.org/2000/svg" xmlns:xlink="http://www.w3.org/1999/xlink" version="1.1" id="Layer_1" x="0px" y="0px" viewBox="0 0 511.998 511.998" style="enable-background:new 0 0 511.998 511.998;" xml:space="preserve">
<g>
	<g>
		<g>
			<path d="M388.125,29.161L367.4,43.103c-3.434,2.309-4.345,6.965-2.035,10.4c1.447,2.15,3.814,3.311,6.225,3.311     c1.439,0,2.893-0.414,4.175-1.277l20.725-13.942c3.434-2.309,4.345-6.965,2.035-10.4     C396.215,27.762,391.558,26.85,388.125,29.161z"/>
			<path d="M346.675,57.046L325.95,70.988c-3.434,2.309-4.345,6.965-2.035,10.4c1.447,2.15,3.814,3.311,6.225,3.311     c1.438,0,2.892-0.414,4.175-1.277L355.04,69.48c3.434-2.309,4.345-6.965,2.035-10.4     C354.765,55.647,350.108,54.734,346.675,57.046z"/>
			<path d="M439.976,3.311c-2.31-3.433-6.967-4.345-10.4-2.034l-20.725,13.942c-3.434,2.309-4.345,6.965-2.035,10.4     c1.447,2.15,3.814,3.311,6.225,3.311c1.438,0,2.893-0.414,4.175-1.277l20.725-13.942C441.375,11.402,442.286,6.745,439.976,3.311     z"/>
		</g>
	</g>
</g>
<g>
	<g>
		<g>
			<path d="M355.04,137.158l-20.725-13.942c-3.432-2.31-8.089-1.4-10.4,2.034c-2.31,3.434-1.399,8.09,2.035,10.4l20.725,13.942     c1.283,0.863,2.737,1.277,4.175,1.277c2.411,0,4.778-1.161,6.225-3.311C359.385,144.124,358.474,139.468,355.04,137.158z"/>
			<path d="M396.491,165.042L375.766,151.1c-3.433-2.311-8.09-1.4-10.4,2.034c-2.31,3.434-1.399,8.09,2.035,10.4l20.725,13.942     c1.283,0.863,2.737,1.277,4.175,1.277c2.41,0,4.777-1.161,6.225-3.311C400.836,172.008,399.925,167.352,396.491,165.042z"/>
			<path d="M437.942,192.927l-20.725-13.942c-3.433-2.311-8.089-1.401-10.4,2.034c-2.31,3.434-1.399,8.09,2.035,10.4l20.725,13.942     c1.283,0.863,2.737,1.277,4.175,1.277c2.41,0,4.777-1.161,6.225-3.311C442.287,199.892,441.376,195.237,437.942,192.927z"/>
		</g>
	</g>
</g>
<g>
	<g>
		<g>
			<path d="M444.563,95.795h-14.517c-4.138,0-7.494,3.354-7.494,7.494s3.355,7.493,7.494,7.493h14.517     c4.138,0,7.494-3.354,7.494-7.493S448.702,95.795,444.563,95.795z"/>
			<path d="M355.111,95.795h-24.978c-4.138,0-7.493,3.354-7.493,7.494s3.355,7.493,7.493,7.493h24.978     c4.138,0,7.493-3.354,7.493-7.493S359.249,95.795,355.111,95.795z"/>
			<path d="M405.068,95.795h-24.978c-4.138,0-7.493,3.354-7.493,7.494s3.355,7.493,7.493,7.493h24.978     c4.138,0,7.494-3.354,7.494-7.493S409.206,95.795,405.068,95.795z"/>
		</g>
	</g>
</g>
<g>
	<g>
		<circle cx="106.127" cy="451.117" r="8.578"/>
	</g>
</g>
<g>
	<g>
		<circle cx="133.963" cy="476.045" r="8.578"/>
	</g>
</g>
<g>
	<g>
		<circle cx="159.531" cy="421.773" r="8.578"/>
	</g>
</g>
<g>
	<g>
		<path d="M301.34,83.795H284.45v-0.54c0-3.627-1.57-7.071-4.308-9.45c-2.739-2.379-6.363-3.453-9.959-2.946L124.876,91.342    c-3.76,0.53-7.036,2.701-8.989,5.956c-1.953,3.256-2.327,7.169-1.024,10.735l19.428,53.203h-2.147    c-7.654,0-13.882,6.227-13.882,13.882v24.833c-7.093,1.893-12.339,8.355-12.339,16.035v36.074c0,3.382,1.021,6.527,2.765,9.155    c-0.166,0.253-0.33,0.509-0.483,0.771l-9.781,16.858c-2.077,3.58-0.858,8.166,2.722,10.242c3.58,2.077,8.165,0.858,10.242-2.722    l9.781-16.858c0.304-0.523,0.787-0.835,1.294-0.835h0.074H186.7h0.074c0.507,0,0.99,0.313,1.294,0.835l35.081,60.469    c1.216,2.096,2.327,4.247,3.35,6.438h-23.415c-4.138,0-7.493,3.354-7.493,7.493s3.355,7.494,7.493,7.494h28.722    c1.647,6.6,2.503,13.421,2.503,20.306v3.639h-31.224c-4.138,0-7.494,3.354-7.494,7.493s3.355,7.493,7.494,7.493h31.224v23.946    h-31.224c-4.138,0-7.494,3.354-7.494,7.493s3.355,7.493,7.494,7.493h31.224v23.945h-31.224c-4.138,0-7.494,3.354-7.494,7.494    s3.355,7.493,7.494,7.493h31.224v27.106c0,0.925-0.614,1.706-1.342,1.706H76.271c-0.727,0-1.342-0.78-1.342-1.706V371.709    c0-14.716,3.859-29.148,11.159-41.733l5.282-9.104c2.077-3.58,0.858-8.165-2.722-10.242c-3.579-2.077-8.165-0.859-10.242,2.722    l-5.282,9.104c-8.625,14.867-13.184,31.899-13.184,49.253v123.597c0,9.204,7.326,16.693,16.329,16.693h156.695    c9.004,0,16.329-7.488,16.329-16.693V371.709c0-10.232-1.597-20.348-4.666-29.979c-0.012-0.041-0.026-0.08-0.039-0.12    c-2.131-6.66-4.961-13.09-8.48-19.154l-35.081-60.469c-0.153-0.264-0.317-0.519-0.483-0.771c1.742-2.628,2.765-5.773,2.765-9.155    v-36.074c0-7.68-5.247-14.142-12.339-16.035v-24.834c0-2.54-0.697-4.915-1.893-6.965l31.851-10.554l38.024,72.21    c1.672,3.176,4.892,5.075,8.368,5.075c0.604,0,1.218-0.058,1.831-0.176l17.901-3.455c2.773-0.534,5.146-2.259,6.511-4.731    c1.366-2.472,1.562-5.399,0.537-8.031l-29.342-75.414l11.106-3.68c4.183-1.386,7.247-4.813,8.238-8.96h17.234    c6.388,0,11.586-5.198,11.586-11.586V95.381C312.926,88.994,307.728,83.795,301.34,83.795z M144.494,176.222    c0.176,0.012,0.349,0.041,0.528,0.041h18.371c0.171,0,0.34-0.029,0.511-0.041h12.085v23.058h-42.736v-23.058H144.494z     M188.326,252.06c0,0.881-0.744,1.626-1.626,1.626h-64.164c-0.881,0-1.626-0.744-1.626-1.626v-36.074    c0-0.881,0.744-1.626,1.626-1.626H186.7c0.881,0,1.626,0.744,1.626,1.626V252.06z M277.747,217.785l-7.431,1.434l-34.965-66.399    l15.163-5.025L277.747,217.785z M269.463,95.381v23.468v6.879l-15.927,5.277c-0.336,0.062-0.671,0.139-1.004,0.249l-30.323,10.048    c-0.33,0.109-0.644,0.248-0.952,0.399l-58.951,19.534h-12.059l-20.261-55.478l139.477-19.661V95.381z M297.939,115.448H284.45    V98.782h13.488V115.448z"/>
	</g>
</g>
<g>
</g>
<g>
</g>
<g>
</g>
<g>
</g>
<g>
</g>
<g>
</g>
<g>
</g>
<g>
</g>
<g>
</g>
<g>
</g>
<g>
</g>
<g>
</g>
<g>
</g>
<g>
</g>
<g>
</g>
</svg>
