<?xml version="1.0" encoding="iso-8859-1"?>
<!-- Generator: Adobe Illustrator 19.0.0, SVG Export Plug-In . SVG Version: 6.00 Build 0)  -->
<svg xmlns="http://www.w3.org/2000/svg" xmlns:xlink="http://www.w3.org/1999/xlink" version="1.1" id="Capa_1" x="0px" y="0px" viewBox="0 0 512 512" style="enable-background:new 0 0 512 512;" xml:space="preserve">
<g>
	<g>
		<path d="M438.979,59.893H46.416v169.951v44.561v63.688H31.708v-20.069h9.458v-15H7.25v15h9.458v20.069H0v44.588h46.416h15h216.997    c2.3,22.298,14.108,41.81,31.283,54.426h-65.873v15h223.208v-15h-65.873c17.175-12.616,28.983-32.127,31.283-54.426H512v-42.359    v-56.366v-9.55v-44.561v-96.93C512,92.649,479.243,59.893,438.979,59.893z M46.416,367.68H15v-14.588h31.416V367.68z     M347.431,74.893h84.048v43.152h-84.048V74.893z M347.431,133.045h84.048v38.675h-84.048V133.045z M347.431,186.72h84.048v43.124    h-84.048V186.72z M248.383,74.893h84.048v43.152h-84.048V74.893z M248.383,133.045h84.048v38.675h-84.048V133.045z     M248.383,186.72h84.048v43.124h-84.048V186.72z M149.335,74.893h84.048v43.152h-84.048V74.893z M149.335,133.045h84.048v38.675    h-84.048V133.045z M149.335,186.72h84.048v43.124h-84.048V186.72z M61.416,74.893h72.92v154.951h-72.92V74.893z M355.428,437.105    c-34.423,0-62.428-28.006-62.428-62.429s28.005-62.428,62.428-62.428c34.423,0,62.428,28.005,62.428,62.428    C417.856,409.099,389.851,437.105,355.428,437.105z M497,325.32h-14.376v-26.366H497V325.32z M497,283.954h-29.376v56.366H497    v27.359h-64.476c-3.55-39.425-36.762-70.431-77.096-70.431c-40.334,0-73.546,31.006-77.096,70.431H61.416v-29.588v-63.688H497    V283.954z M497,259.405H61.416v-14.561H497V259.405z M497,229.844h-50.521V75.394C474.94,79.086,497,103.464,497,132.914V229.844z    "/>
	</g>
</g>
<g>
	<g>
		<path d="M355.428,338.092c-20.173,0-36.585,16.412-36.585,36.585c0,20.174,16.412,36.586,36.585,36.586    c20.173,0,36.585-16.412,36.585-36.586C392.013,354.504,375.601,338.092,355.428,338.092z M355.428,396.263    c-11.902,0-21.585-9.684-21.585-21.586c0-11.902,9.683-21.585,21.585-21.585s21.585,9.683,21.585,21.585    S367.33,396.263,355.428,396.263z"/>
	</g>
</g>
<g>
	<g>
		<rect x="75.72" y="348.139" width="74.888" height="15"/>
	</g>
</g>
<g>
	<g>
		<rect x="162.74" y="348.139" width="24.25" height="15"/>
	</g>
</g>
<g>
	<g>
		<polygon points="66.657,79.975 66.657,125.545 81.657,125.545 81.657,94.975 91.987,94.975 91.987,79.975   "/>
	</g>
</g>
<g>
	<g>
		<rect x="66.66" y="132.259" width="15" height="23.684"/>
	</g>
</g>
<g>
	<g>
		<path d="M463.464,88.234l-5.64,13.9c8.988,3.646,16.087,14.303,19.134,23.245l14.198-4.838    C487.129,108.721,477.739,94.026,463.464,88.234z"/>
	</g>
</g>
<g>
</g>
<g>
</g>
<g>
</g>
<g>
</g>
<g>
</g>
<g>
</g>
<g>
</g>
<g>
</g>
<g>
</g>
<g>
</g>
<g>
</g>
<g>
</g>
<g>
</g>
<g>
</g>
<g>
</g>
</svg>
