<?xml version="1.0" encoding="iso-8859-1"?>
<!-- Generator: Adobe Illustrator 19.0.0, SVG Export Plug-In . SVG Version: 6.00 Build 0)  -->
<svg xmlns="http://www.w3.org/2000/svg" xmlns:xlink="http://www.w3.org/1999/xlink" version="1.1" id="Capa_1" x="0px" y="0px" viewBox="0 0 512 512" style="enable-background:new 0 0 512 512;" xml:space="preserve">
<g>
	<g>
		<path d="M256,0L21.143,199.351l30.218,34.504l15.328-13.308l27.736,244.871H66.941V512h378.12v-46.583h-27.484l27.736-244.871    l15.327,13.308l30.218-34.504L256,0z M430.04,480.435v16.544H81.96v-16.544h14.166h319.747H430.04z M402.459,465.416H109.54    L80.458,208.654L256,59.89l175.541,148.764L402.459,465.416z M459.194,212.709l-11.831-10.272l0.007-0.058L256,40.202    L64.632,202.379l0.007,0.058l-11.832,10.272l-10.315-11.778L256,19.701l213.508,181.229L459.194,212.709z"/>
	</g>
</g>
<g>
	<g>
		<path d="M256,167.687c-51.722,0-93.799,42.078-93.799,93.799s42.077,93.799,93.799,93.799c51.722,0,93.799-42.077,93.799-93.799    S307.722,167.687,256,167.687z M256,340.266c-43.439,0-78.78-35.341-78.78-78.78s35.341-78.78,78.78-78.78    c43.439,0,78.78,35.342,78.78,78.78C334.78,304.925,299.439,340.266,256,340.266z"/>
	</g>
</g>
<g>
	<g>
		<path d="M256,380.202c-15.219,0-27.6,12.381-27.6,27.599c0,15.219,12.381,27.6,27.6,27.6c15.219,0,27.6-12.381,27.6-27.6    C283.6,392.583,271.219,380.202,256,380.202z M256,420.382c-6.937,0-12.58-5.644-12.58-12.58s5.644-12.579,12.58-12.579    s12.58,5.643,12.58,12.579S262.937,420.382,256,420.382z"/>
	</g>
</g>
<g>
	<g>
		
			<rect x="104.889" y="327.019" transform="matrix(0.9937 -0.1125 0.1125 0.9937 -40.7162 14.9821)" width="15.02" height="82.521"/>
	</g>
</g>
<g>
	<g>
		
			<rect x="112.029" y="418.022" transform="matrix(0.9937 -0.1125 0.1125 0.9937 -47.5221 16.1735)" width="15.019" height="22.238"/>
	</g>
</g>
<g>
	<g>
		<polygon points="381.899,174.939 372.189,186.397 409.855,218.318 406.164,251.227 421.089,252.901 425.674,212.037   "/>
	</g>
</g>
<g>
	<g>
		
			<rect x="400.448" y="264.118" transform="matrix(0.1125 -0.9937 0.9937 0.1125 95.1985 649.8405)" width="21.866" height="15.02"/>
	</g>
</g>
<g>
</g>
<g>
</g>
<g>
</g>
<g>
</g>
<g>
</g>
<g>
</g>
<g>
</g>
<g>
</g>
<g>
</g>
<g>
</g>
<g>
</g>
<g>
</g>
<g>
</g>
<g>
</g>
<g>
</g>
</svg>
