<?xml version="1.0" encoding="iso-8859-1"?>
<!-- Generator: Adobe Illustrator 19.0.0, SVG Export Plug-In . SVG Version: 6.00 Build 0)  -->
<svg xmlns="http://www.w3.org/2000/svg" xmlns:xlink="http://www.w3.org/1999/xlink" version="1.1" id="Layer_1" x="0px" y="0px" viewBox="0 0 512 512" style="enable-background:new 0 0 512 512;" xml:space="preserve">
<g>
	<g>
		<circle cx="335.406" cy="170.002" r="8.578"/>
	</g>
</g>
<g>
	<g>
		<path d="M305.445,16.631c-4.139,0-7.494,3.355-7.494,7.494V75.18c0,4.139,3.356,7.494,7.494,7.494    c4.139,0,7.494-3.355,7.494-7.494V24.125C312.939,19.985,309.584,16.631,305.445,16.631z"/>
	</g>
</g>
<g>
	<g>
		<path d="M237.933,91.263l-25.528-44.215c-2.068-3.585-6.654-4.811-10.237-2.743c-3.584,2.069-4.812,6.653-2.743,10.237    l25.528,44.215c1.387,2.404,3.907,3.747,6.496,3.747c1.271,0,2.56-0.324,3.74-1.005C238.774,99.43,240.002,94.846,237.933,91.263z    "/>
	</g>
</g>
<g>
	<g>
		<path d="M181.017,142.693l-44.215-25.528c-3.586-2.068-8.169-0.842-10.237,2.743c-2.07,3.585-0.842,8.168,2.743,10.237    l44.215,25.528c1.181,0.681,2.469,1.005,3.74,1.005c2.59,0,5.109-1.343,6.496-3.747    C185.829,149.346,184.6,144.762,181.017,142.693z"/>
	</g>
</g>
<g>
	<g>
		<path d="M481.585,316.227l-44.215-25.529c-3.584-2.068-8.169-0.843-10.237,2.743c-2.069,3.584-0.841,8.168,2.743,10.237    l44.215,25.529c1.18,0.681,2.469,1.005,3.741,1.005c2.59,0,5.109-1.343,6.496-3.747    C486.398,322.879,485.169,318.296,481.585,316.227z"/>
	</g>
</g>
<g>
	<g>
		<path d="M157.441,215.692h-51.056c-4.139,0-7.494,3.355-7.494,7.494c0,4.139,3.355,7.494,7.494,7.494h51.056    c4.139,0,7.494-3.355,7.494-7.494C164.935,219.046,161.581,215.692,157.441,215.692z"/>
	</g>
</g>
<g>
	<g>
		<path d="M504.506,215.692h-51.056c-4.139,0-7.494,3.355-7.494,7.494c0,4.139,3.355,7.494,7.494,7.494h51.056    c4.139,0,7.494-3.355,7.494-7.494C512,219.046,508.646,215.692,504.506,215.692z"/>
	</g>
</g>
<g>
	<g>
		<path d="M484.327,119.908c-2.068-3.585-6.654-4.811-10.237-2.743l-44.215,25.528c-3.584,2.069-4.812,6.653-2.743,10.237    c1.387,2.404,3.906,3.747,6.496,3.747c1.271,0,2.56-0.324,3.741-1.005l44.215-25.528    C485.168,128.076,486.397,123.492,484.327,119.908z"/>
	</g>
</g>
<g>
	<g>
		<path d="M408.724,44.304c-3.586-2.068-8.169-0.842-10.237,2.743l-25.528,44.215c-2.07,3.584-0.842,8.167,2.743,10.237    c1.181,0.681,2.469,1.005,3.741,1.005c2.59,0,5.109-1.344,6.496-3.747l25.528-44.215    C413.536,50.958,412.307,46.374,408.724,44.304z"/>
	</g>
</g>
<g>
	<g>
		<path d="M451.754,345.324c-16.233-16.328-37.757-25.566-60.605-26.014c-7.36-0.129-14.645,0.65-21.713,2.286    c30.605-20.635,50.784-55.601,50.784-95.209c0-8.296-0.89-16.574-2.644-24.603c-0.255-1.165-0.527-2.323-0.817-3.475    c-1.011-4.013-5.086-6.445-9.096-5.439c-4.013,1.01-6.449,5.082-5.439,9.096c0.251,0.998,0.488,2.002,0.709,3.015    c1.526,6.981,2.3,14.184,2.3,21.405c0,41.219-25.132,76.661-60.869,91.859c-7.613-24.911-22.293-47.377-42.372-64.454    c-24.731-21.034-56.256-32.617-88.767-32.617c-2.492,0-4.971,0.075-7.438,0.209c2.615-52.707,46.316-94.783,99.66-94.783    c30.707,0,59.254,13.832,78.323,37.95c2.565,3.247,7.28,3.797,10.526,1.232c3.247-2.567,3.797-7.28,1.232-10.527    c-21.929-27.736-54.762-43.643-90.08-43.643c-62.166,0-112.943,49.682-114.721,111.426    c-51.165,8.543-94.114,45.736-109.036,96.483c-21.898,1.561-42.213,11.136-57.435,27.131    c-15.866,16.67-24.477,38.535-24.25,61.564c0.475,48.055,40.417,87.151,89.037,87.151H389.39c23.748,0,46.011-9.313,62.687-26.224    c16.674-16.907,25.674-39.304,25.343-63.068C477.102,383.228,467.986,361.651,451.754,345.324z M441.407,458.624    c-13.837,14.031-32.311,21.759-52.016,21.759H89.042c-40.438,0-73.654-32.439-74.049-72.311    c-0.392-39.639,30.294-72.018,69.857-73.716c5.018-0.215,9.279-3.604,10.602-8.432c14.481-52.849,62.912-89.759,117.772-89.759    c59.604,0,110.208,42.561,120.322,101.2c0.65,3.772,3.122,6.961,6.61,8.532c3.513,1.578,7.571,1.31,10.854-0.724    c11.939-7.391,25.715-11.165,39.848-10.874c38.925,0.761,71.036,33.057,71.578,71.992    C462.709,426.009,455.241,444.594,441.407,458.624z"/>
	</g>
</g>
<g>
	<g>
		<circle cx="63.205" cy="429.588" r="8.578"/>
	</g>
</g>
<g>
	<g>
		<circle cx="91.044" cy="454.528" r="8.578"/>
	</g>
</g>
<g>
	<g>
		<circle cx="189.584" cy="297.191" r="8.578"/>
	</g>
</g>
<g>
</g>
<g>
</g>
<g>
</g>
<g>
</g>
<g>
</g>
<g>
</g>
<g>
</g>
<g>
</g>
<g>
</g>
<g>
</g>
<g>
</g>
<g>
</g>
<g>
</g>
<g>
</g>
<g>
</g>
</svg>
