<?xml version="1.0" encoding="iso-8859-1"?>
<!-- Generator: Adobe Illustrator 19.0.0, SVG Export Plug-In . SVG Version: 6.00 Build 0)  -->
<svg xmlns="http://www.w3.org/2000/svg" xmlns:xlink="http://www.w3.org/1999/xlink" version="1.1" id="Layer_1" x="0px" y="0px" viewBox="0 0 512 512" style="enable-background:new 0 0 512 512;" xml:space="preserve">
<g>
	<g>
		<circle cx="109.092" cy="439.574" r="8.572"/>
	</g>
</g>
<g>
	<g>
		<circle cx="316.803" cy="462.139" r="8.572"/>
	</g>
</g>
<g>
	<g>
		<circle cx="290.444" cy="434.142" r="8.572"/>
	</g>
</g>
<g>
	<g>
		<path d="M468.593,421.637c-3.401-2.353-8.066-1.506-10.419,1.896c-2.353,3.4-1.505,8.065,1.896,10.419    c21.07,14.582,34.408,37.722,36.626,62.959H15.301c3.807-43.708,40.602-78.116,85.28-78.116c8.952,0,17.802,1.391,26.303,4.135    c3.544,1.144,7.387-0.488,9.025-3.832c20.121-41.063,60.999-66.573,106.679-66.573c0.764,0,1.523,0.03,2.284,0.045v13.807    c0,4.137,3.352,7.488,7.488,7.488s7.489-3.352,7.489-7.488V353.82c41.95,6.255,78.4,34.923,93.74,75.266    c0.807,2.119,2.528,3.759,4.684,4.46c2.155,0.699,4.513,0.387,6.411-0.853c13.918-9.091,30.079-13.898,46.734-13.898    c5.503,0,11.002,0.523,16.346,1.557c4.063,0.792,7.989-1.87,8.773-5.931c0.785-4.06-1.87-7.988-5.931-8.773    c-6.277-1.214-12.733-1.829-19.188-1.829c-16.579,0-32.742,4.054-47.24,11.788c-9.869-21.578-25.241-40.069-44.849-53.843    c-17.811-12.511-38.11-20.342-59.479-23.091v-6.048l22.372-17.688c2.242,0.9,5.523,2.102,9.585,3.256    c6.268,1.78,12.669,2.679,19.075,2.679c1.208,0,2.417-0.032,3.624-0.097c4.131-0.219,7.302-3.744,7.082-7.874    c-0.219-4.132-3.762-7.339-7.874-7.082c-5.963,0.318-11.954-0.368-17.814-2.034c-2.858-0.812-5.247-1.646-7.014-2.321    c-0.253-1.877-0.519-4.391-0.655-7.36c-0.815-17.716,6.725-34.22,20.687-45.282c13.962-11.06,31.756-14.624,48.813-9.779    c2.842,0.808,5.208,1.63,7.016,2.32c0.247,1.835,0.517,4.366,0.654,7.363c0.821,17.844-6.812,34.421-20.942,45.481    c-3.257,2.55-3.83,7.257-1.281,10.513c2.549,3.256,7.257,3.829,10.513,1.281c17.996-14.087,27.717-35.215,26.671-57.964    c-0.229-4.974-0.764-8.899-1.171-11.315c-0.633-3.754-3.105-6.878-6.62-8.357c-2.263-0.951-5.963-2.369-10.747-3.729    c-21.753-6.179-44.424-1.643-62.207,12.447c-17.785,14.088-27.388,35.123-26.349,57.709c0.136,2.943,0.381,5.522,0.64,7.625    l-14.059,11.116v-72.376c13.556-1.933,25.703-9.055,34.013-20.053c16.123,2.242,32.23-3.093,43.917-14.777    c11.684-11.685,17.022-27.788,14.776-43.916c12.992-9.816,20.604-24.978,20.604-41.501c0-16.524-7.612-31.685-20.604-41.501    c2.246-16.127-3.092-32.23-14.776-43.917c-11.685-11.684-27.787-17.021-43.917-14.777c-9.817-12.991-24.978-20.604-41.501-20.604    s-31.684,7.613-41.501,20.604c-16.132-2.244-32.23,3.093-43.917,14.777c-11.684,11.685-17.022,27.788-14.777,43.917    c-12.991,9.817-20.604,24.978-20.604,41.501c0,16.524,7.613,31.684,20.604,41.501c-2.245,16.127,3.093,32.232,14.778,43.917    c11.686,11.685,27.799,17.024,43.914,14.776c8.311,10.999,20.459,18.121,34.014,20.053v96.432    c-0.762-0.013-1.521-0.043-2.284-0.043c-25.497,0-50.292,7.207-71.703,20.841c-19.052,12.13-34.687,28.823-45.519,48.524    c-8.089-2.056-16.399-3.095-24.784-3.095C45.121,403.818,0,448.938,0,504.399c0,4.137,3.352,7.488,7.488,7.488h497.023    c4.137,0,7.488-3.352,7.488-7.488C512,471.387,495.773,440.447,468.593,421.637z M220.673,208.937    c-1.382-2.262-3.823-3.586-6.389-3.586c-0.583,0-1.174,0.069-1.759,0.211c-12.693,3.064-25.773-0.607-34.99-9.825    c-9.218-9.217-12.89-22.298-9.826-34.99c0.764-3.161-0.6-6.453-3.375-8.148c-11.143-6.807-17.795-18.654-17.795-31.688    c0-13.034,6.652-24.881,17.795-31.688c2.775-1.695,4.139-4.987,3.375-8.148c-3.064-12.693,0.608-25.773,9.826-34.99    c9.217-9.218,22.301-12.886,34.99-9.826c3.16,0.763,6.452-0.599,8.148-3.375c6.807-11.143,18.654-17.795,31.688-17.795    c13.034,0,24.881,6.652,31.688,17.795c1.695,2.775,4.989,4.138,8.148,3.375c12.693-3.063,25.773,0.608,34.99,9.825    c9.217,9.218,12.89,22.299,9.825,34.991c-0.764,3.16,0.6,6.453,3.375,8.148c11.143,6.807,17.795,18.653,17.795,31.688    s-6.652,24.882-17.795,31.688c-2.775,1.695-4.139,4.988-3.375,8.148c3.065,12.691-0.607,25.773-9.824,34.99    c-9.219,9.217-22.299,12.89-34.991,9.825c-3.153-0.762-6.452,0.601-8.148,3.375c-6.807,11.143-18.653,17.795-31.688,17.795    C239.326,226.732,227.479,220.08,220.673,208.937z"/>
	</g>
</g>
<g>
	<g>
		<path d="M252.361,75.958c-24.787,0-44.953,20.166-44.953,44.953c0,24.787,20.166,44.953,44.953,44.953    c24.787,0,44.953-20.166,44.953-44.953C297.314,96.124,277.148,75.958,252.361,75.958z M252.36,150.888    c-16.53,0-29.976-13.447-29.976-29.976c0-16.529,13.447-29.976,29.976-29.976c16.529,0,29.976,13.447,29.976,29.976    C282.336,137.44,268.89,150.888,252.36,150.888z"/>
	</g>
</g>
<g>
</g>
<g>
</g>
<g>
</g>
<g>
</g>
<g>
</g>
<g>
</g>
<g>
</g>
<g>
</g>
<g>
</g>
<g>
</g>
<g>
</g>
<g>
</g>
<g>
</g>
<g>
</g>
<g>
</g>
</svg>
