<?xml version="1.0" encoding="iso-8859-1"?>
<!-- Generator: Adobe Illustrator 19.0.0, SVG Export Plug-In . SVG Version: 6.00 Build 0)  -->
<svg xmlns="http://www.w3.org/2000/svg" xmlns:xlink="http://www.w3.org/1999/xlink" version="1.1" id="Capa_1" x="0px" y="0px" viewBox="0 0 512 512" style="enable-background:new 0 0 512 512;" xml:space="preserve">
<g>
	<g>
		<path d="M500.553,33.714c-2.986-5.926-5.919-10.288-8.965-13.333c-3.045-3.045-7.406-5.977-13.333-8.965    C463.475,3.967,446.885,0.03,430.279,0.03c-28.664,0-56.789,11.686-77.164,32.061L318.86,66.347    c-15.282,15.283-15.282,40.148,0,55.431l5.492,5.492c3.454,3.453,3.454,9.072,0.001,12.525l-31.284,31.283l6.961,6.961    L46.945,431.12l-17.972-17.973L0,442.122l69.849,69.849l28.973-28.973L80.85,465.025l253.084-253.084l6.961,6.961l31.283-31.283    c1.672-1.673,3.896-2.594,6.263-2.594c2.365,0,4.59,0.921,6.263,2.594l5.491,5.491c7.404,7.404,17.246,11.48,27.715,11.48    s20.312-4.077,27.714-11.48l34.257-34.255C513.185,125.55,521.493,75.259,500.553,33.714z M69.849,490.591l-48.469-48.469    l7.594-7.594l48.47,48.469L69.849,490.591z M70.16,454.336l-12.525-12.526l253.084-253.084l6.263,6.263l6.263,6.264L70.16,454.336    z M469.19,148.165l-34.256,34.256c-4.547,4.547-10.594,7.052-17.025,7.052s-12.478-2.504-17.026-7.053l-5.491-5.491    c-4.528-4.528-10.549-7.022-16.952-7.022c-6.404,0-12.425,2.493-16.953,7.022l-20.593,20.593l-13.225-13.224l-13.224-13.224    l20.594-20.593c9.346-9.348,9.346-24.557,0-33.904l-5.492-5.492c-9.388-9.388-9.388-24.664,0-34.051l34.255-34.256    c17.561-17.56,41.791-27.633,66.474-27.633c14.255,0,28.492,3.378,41.173,9.77c1.197,0.604,2.255,1.174,3.2,1.713L382.7,118.581    l10.69,10.689l91.951-91.951c0.539,0.945,1.11,2.002,1.713,3.199C505.05,76.223,497.871,119.484,469.19,148.165z"/>
	</g>
</g>
<g>
</g>
<g>
</g>
<g>
</g>
<g>
</g>
<g>
</g>
<g>
</g>
<g>
</g>
<g>
</g>
<g>
</g>
<g>
</g>
<g>
</g>
<g>
</g>
<g>
</g>
<g>
</g>
<g>
</g>
</svg>
