<?xml version="1.0" encoding="iso-8859-1"?>
<!-- Generator: Adobe Illustrator 19.0.0, SVG Export Plug-In . SVG Version: 6.00 Build 0)  -->
<svg xmlns="http://www.w3.org/2000/svg" xmlns:xlink="http://www.w3.org/1999/xlink" version="1.1" id="Capa_1" x="0px" y="0px" viewBox="0 0 512 512" style="enable-background:new 0 0 512 512;" xml:space="preserve">
<g>
	<g>
		<path d="M153.028,272.15l-5.924-7.628l-5.924,7.629c-2.091,2.692-20.428,26.831-20.428,45.006    c0,14.531,11.821,26.353,26.352,26.353s26.353-11.821,26.353-26.353C173.457,298.981,155.119,274.844,153.028,272.15z     M147.104,328.509c-6.259,0-11.352-5.093-11.352-11.353c0-7.203,5.676-18.425,11.338-27.304    c5.255,8.231,11.366,19.653,11.366,27.304C158.457,323.416,153.364,328.509,147.104,328.509z"/>
	</g>
</g>
<g>
	<g>
		<path d="M261.925,272.15l-5.924-7.627l-5.924,7.627c-2.091,2.693-20.429,26.831-20.429,45.007    c0,14.531,11.821,26.353,26.353,26.353c14.532,0,26.353-11.821,26.353-26.353C282.354,298.981,264.016,274.844,261.925,272.15z     M256.001,328.509c-6.26,0-11.353-5.093-11.353-11.353c0-7.203,5.677-18.426,11.339-27.304    c5.255,8.231,11.366,19.653,11.366,27.304C267.353,323.416,262.261,328.509,256.001,328.509z"/>
	</g>
</g>
<g>
	<g>
		<path d="M370.821,272.151l-5.924-7.629l-5.924,7.628c-2.091,2.693-20.429,26.831-20.429,45.007    c0,14.531,11.821,26.353,26.353,26.353c14.53,0,26.352-11.821,26.352-26.353C391.249,298.982,372.912,274.844,370.821,272.151z     M364.897,328.509c-6.26,0-11.353-5.093-11.353-11.353c0-7.209,5.686-18.443,11.353-27.325    c5.667,8.883,11.352,20.116,11.352,27.325C376.249,323.416,371.156,328.509,364.897,328.509z"/>
	</g>
</g>
<g>
	<g>
		<path d="M207.477,352.441l-5.924-7.629l-5.924,7.629c-2.091,2.692-20.429,26.832-20.429,45.007    c0,14.53,11.821,26.352,26.353,26.352s26.353-11.821,26.353-26.352C227.906,379.273,209.568,355.134,207.477,352.441z     M201.553,408.799c-6.26,0-11.353-5.093-11.353-11.352c0-7.203,5.677-18.426,11.339-27.305    c5.255,8.231,11.366,19.654,11.366,27.305C212.905,403.706,207.812,408.799,201.553,408.799z"/>
	</g>
</g>
<g>
	<g>
		<path d="M316.373,352.441l-5.924-7.629l-5.924,7.629c-2.091,2.692-20.429,26.832-20.429,45.007    c0,14.53,11.821,26.352,26.353,26.352s26.353-11.821,26.353-26.352C336.802,379.273,318.464,355.134,316.373,352.441z     M310.449,408.799c-6.26,0-11.353-5.093-11.353-11.352c0-7.203,5.677-18.426,11.339-27.305    c5.255,8.231,11.366,19.654,11.366,27.305C321.802,403.706,316.709,408.799,310.449,408.799z"/>
	</g>
</g>
<g>
	<g>
		<path d="M153.028,434.891l-5.924-7.628l-5.924,7.629c-2.091,2.692-20.428,26.831-20.428,45.006    c0,14.531,11.821,26.353,26.352,26.353s26.353-11.821,26.353-26.353C173.457,461.722,155.119,437.585,153.028,434.891z     M147.104,491.25c-6.259,0-11.352-5.093-11.352-11.353c0-7.203,5.676-18.425,11.338-27.304    c5.255,8.231,11.366,19.653,11.366,27.304C158.457,486.157,153.364,491.25,147.104,491.25z"/>
	</g>
</g>
<g>
	<g>
		<path d="M261.925,434.891l-5.924-7.627l-5.924,7.627c-2.091,2.693-20.429,26.831-20.429,45.007    c0,14.531,11.821,26.353,26.353,26.353c14.532,0,26.353-11.821,26.353-26.353C282.354,461.722,264.016,437.585,261.925,434.891z     M256.001,491.25c-6.26,0-11.353-5.093-11.353-11.353c0-7.203,5.677-18.426,11.339-27.304    c5.255,8.231,11.366,19.653,11.366,27.304C267.353,486.157,262.261,491.25,256.001,491.25z"/>
	</g>
</g>
<g>
	<g>
		<path d="M370.821,434.892l-5.924-7.629l-5.924,7.628c-2.091,2.693-20.429,26.831-20.429,45.007    c0,14.531,11.821,26.353,26.353,26.353c14.53,0,26.352-11.821,26.352-26.353C391.249,461.723,372.912,437.585,370.821,434.892z     M364.897,491.25c-6.26,0-11.353-5.093-11.353-11.353c0-7.209,5.686-18.443,11.353-27.325    c5.667,8.883,11.352,20.116,11.352,27.325C376.249,486.157,371.156,491.25,364.897,491.25z"/>
	</g>
</g>
<g>
	<g>
		<path d="M486.774,112.59c-16.021-16.422-37.371-25.902-60.118-26.694c-1.051-0.037-2.1-0.055-3.143-0.055    c-11.152,0-22.202,2.147-32.515,6.22l-0.013-0.034c-0.595,0.234-1.18,0.491-1.77,0.739c-0.104,0.044-0.211,0.08-0.315,0.125    C372.034,41.147,323.817,5.75,268.614,5.75c-47.743,0-91.271,26.901-112.783,69.108c-12.66-4.189-25.873-6.173-39.425-5.949    C85.649,69.465,56.654,81.846,34.76,103.77c-21.893,21.925-34.231,50.938-34.743,81.7c-0.015,0.905-0.02,1.807-0.015,2.705    c0.206,35.842,29.825,65.001,66.025,65.001h375.929c21.029,0,40.883-10.013,53.108-26.783    c11.285-15.48,17.139-33.824,16.931-53.047C511.748,150.584,502.791,129.007,486.774,112.59z M482.944,217.558    c-9.412,12.911-24.734,20.619-40.987,20.619H66.028c-27.977,0-50.867-22.469-51.025-50.088c-0.005-0.79,0-1.582,0.013-2.372    c0.917-55.143,46.522-100.814,101.662-101.81c0.64-0.012,1.277-0.018,1.915-0.018c11.228,0,22.208,1.779,32.726,5.283    l-0.047,0.139c19.017,6.438,35.654,18.234,48.115,34.116l11.801-9.26c-11.202-14.277-25.367-25.656-41.479-33.462    c19.134-36.646,57.189-59.956,98.906-59.956c49.548,0,92.698,32.347,106.801,79.312c-10.542,6.838-19.662,15.905-26.482,26.492    l12.609,8.123c6.601-10.247,15.793-18.774,26.42-24.66c0.548-0.303,1.099-0.598,1.654-0.887c0.181-0.094,0.362-0.187,0.543-0.279    c0.574-0.293,1.151-0.581,1.733-0.859c0.087-0.042,0.175-0.081,0.262-0.122c9.763-4.609,20.507-7.029,31.359-7.029    c0.87,0,1.744,0.015,2.621,0.045c39.308,1.37,70.435,33.27,70.861,72.623C497.17,189.477,492.31,204.708,482.944,217.558z"/>
	</g>
</g>
<g>
	<g>
		<path d="M218.304,124.285l-12.701,7.978c3.452,5.496,6.394,11.34,8.742,17.37l13.977-5.443    C225.631,137.278,222.26,130.581,218.304,124.285z"/>
	</g>
</g>
<g>
	<g>
		<path d="M443.756,110.751l-5.434,13.982c17.666,6.863,30.992,22.62,34.779,41.12l14.695-3.008    C482.998,139.404,466.122,119.443,443.756,110.751z"/>
	</g>
</g>
<g>
	<g>
		<rect x="355.971" y="217.41" width="85.42" height="15"/>
	</g>
</g>
<g>
	<g>
		<rect x="101.651" y="217.41" width="26.879" height="15"/>
	</g>
</g>
<g>
	<g>
		<path d="M70.685,217.406c-15.593,0-29.998-9.018-36.697-22.975l-13.523,6.491c9.181,19.126,28.894,31.484,50.221,31.484h17.821    v-15H70.685z"/>
	</g>
</g>
<g>
</g>
<g>
</g>
<g>
</g>
<g>
</g>
<g>
</g>
<g>
</g>
<g>
</g>
<g>
</g>
<g>
</g>
<g>
</g>
<g>
</g>
<g>
</g>
<g>
</g>
<g>
</g>
<g>
</g>
</svg>
