<?xml version="1.0" encoding="iso-8859-1"?>
<!-- Generator: Adobe Illustrator 19.0.0, SVG Export Plug-In . SVG Version: 6.00 Build 0)  -->
<svg xmlns="http://www.w3.org/2000/svg" xmlns:xlink="http://www.w3.org/1999/xlink" version="1.1" id="Layer_1" x="0px" y="0px" viewBox="0 0 512 512" style="enable-background:new 0 0 512 512;" xml:space="preserve">
<g>
	<g>
		<circle cx="282.683" cy="192.331" r="8.582"/>
	</g>
</g>
<g>
	<g>
		<circle cx="269.377" cy="411.673" r="8.582"/>
	</g>
</g>
<g>
	<g>
		<circle cx="236.807" cy="450.231" r="8.582"/>
	</g>
</g>
<g>
	<g>
		<circle cx="260.799" cy="474.224" r="8.582"/>
	</g>
</g>
<g>
	<g>
		<path d="M477.579,145.479c-0.256-0.49-0.564-0.949-0.919-1.368l-55.022-78.255c0.275-1.089,0.438-2.223,0.438-3.396V13.889    c0-7.658-6.23-13.889-13.889-13.889H218.373c-7.659,0-13.889,6.23-13.889,13.889v48.572c0,1.374,0.208,2.699,0.581,3.953    l-58.974,78.012c-0.044,0.058-0.081,0.12-0.124,0.179c-0.058,0.081-0.116,0.162-0.171,0.246c-1.62,2.32-2.515,5.119-2.515,7.951    v74.129H45.178c-3.705,0-7.222,1.604-9.649,4.404s-3.519,6.508-2.995,10.175l6.635,46.436c0.586,4.1,4.38,6.943,8.483,6.362    c4.1-0.586,6.948-4.384,6.362-8.482l-6.274-43.898h181.333L192.626,497h-12.171c0,0.002,0.001,0.003,0.002,0.005H84.188    L60.022,327.88c-0.586-4.101-4.38-6.944-8.483-6.362c-4.099,0.586-6.947,4.384-6.362,8.482l24.438,171.034    C70.509,507.285,75.944,512,82.259,512h112.293c0.035,0,0.07-0.005,0.105-0.005h255.791c16.071,0,29.146-13.075,29.146-29.147    V152.679C479.596,150.118,478.898,147.648,477.579,145.479z M414.578,81.886l41.879,59.563h-83.759L414.578,81.886z     M219.48,14.995h187.6v46.358h-187.6V14.995z M216.353,76.349H400.14l-45.773,65.099H167.14L216.353,76.349z M450.45,497h-85.892    V233.492c0-4.142-3.357-7.498-7.498-7.498c-4.141,0-7.498,3.356-7.498,7.498V497H207.775l36.506-255.491    c0.524-3.667-0.568-7.376-2.995-10.175c-2.427-2.799-5.945-4.404-9.65-4.404h-73.358v-70.486h191.284v35.884    c0,4.142,3.357,7.498,7.498,7.498c4.141,0,7.498-3.356,7.498-7.498v-35.884h100.043v326.404h0.001    C464.6,490.652,458.252,497,450.45,497z"/>
	</g>
</g>
<g>
</g>
<g>
</g>
<g>
</g>
<g>
</g>
<g>
</g>
<g>
</g>
<g>
</g>
<g>
</g>
<g>
</g>
<g>
</g>
<g>
</g>
<g>
</g>
<g>
</g>
<g>
</g>
<g>
</g>
</svg>
