<?xml version="1.0" encoding="iso-8859-1"?>
<!-- Generator: Adobe Illustrator 19.0.0, SVG Export Plug-In . SVG Version: 6.00 Build 0)  -->
<svg xmlns="http://www.w3.org/2000/svg" xmlns:xlink="http://www.w3.org/1999/xlink" version="1.1" id="Capa_1" x="0px" y="0px" viewBox="0 0 512 512" style="enable-background:new 0 0 512 512;" xml:space="preserve">
<g>
	<g>
		<path d="M491.131,121.861V70.029h-33.01V21.453h-44.974v48.576H371.72V41.055H119.411v28.974H77.984V21.453H33.01v48.576H7.601    v15.202H33.01v214.133H0v58.212h12.989v29.168v15.108v29.216v15.156v44.324h89.99h15.202h74.788h15.202h74.787h15.202h74.788    h15.202h89.991v-59.479v-29.216v-44.277h12.989v-58.212h-33.01V85.231h17.808v51.833H512v-0.001v-15.202H491.131z M428.349,36.655    h14.57v262.709h-14.57V36.655z M346.827,56.257h9.692v42.747h-9.692V56.257z M315.606,56.257h16.018v42.747h-16.018V56.257z     M284.387,56.257h16.018v42.747h-16.018V56.257z M253.167,56.257h16.017v42.747h-16.017V56.257z M223.233,195.608    c2.679-9.824,11.673-17.068,22.334-17.068s19.655,7.244,22.334,17.068H223.233z M273.568,210.81l-8.268,47.533h-39.468    l-8.268-47.533H273.568z M221.948,56.257h16.018v42.747h-16.018V56.257z M190.727,56.257h16.018v42.747h-16.018V56.257z     M159.507,56.257h16.018v42.747h-16.018V56.257z M134.614,56.257h9.691v42.747h-9.691V56.257z M77.984,85.231h41.427v28.974    h118.553v49.892c-15.563,3.142-27.739,15.735-30.264,31.511h-8.211l13.555,77.938h65.04l13.556-77.938h-8.211    c-2.526-15.775-14.701-28.368-30.264-31.511v-49.892H371.72V85.231h41.427v214.133H77.984V85.231z M48.212,36.655h14.569v262.709    H48.212V36.655z M102.979,475.346H28.191v-29.075h74.788V475.346z M102.979,386.651H28.191v-29.075h74.788V386.651z     M57.911,401.948v29.075h-29.72v-29.075H57.911z M73.187,431.022v-29.075h74.788v29.075H73.187z M118.182,386.651v-29.075h74.788    v29.075H118.182z M192.97,475.346h-74.788v-29.075h74.788V475.346z M163.177,431.022v-29.075h74.788v29.075H163.177z     M208.172,386.651v-29.075h74.787v29.075H208.172z M282.959,475.346h-74.787v-29.075h74.787V475.346z M253.168,431.022v-29.075    h74.787v29.075H253.168z M298.161,386.651v-29.075h74.788v29.075H298.161z M372.949,475.346h-74.788v-29.075h74.788V475.346z     M343.157,431.022v-29.075h74.789v29.075H343.157z M462.94,475.346h-74.789v-29.075h74.789V475.346z M433.148,431.022v-29.075    h29.719v29.075H433.148z M462.94,386.651h-74.789v-29.075h74.789V386.651z M458.121,314.566h17.809v27.808h-87.778H372.95h-74.788    H282.96h-74.787h-15.202h-74.789H102.98H15.202v-27.808H33.01h44.973h335.164H458.121z"/>
	</g>
</g>
<g>
</g>
<g>
</g>
<g>
</g>
<g>
</g>
<g>
</g>
<g>
</g>
<g>
</g>
<g>
</g>
<g>
</g>
<g>
</g>
<g>
</g>
<g>
</g>
<g>
</g>
<g>
</g>
<g>
</g>
</svg>
