<?xml version="1.0" encoding="iso-8859-1"?>
<!-- Generator: Adobe Illustrator 19.0.0, SVG Export Plug-In . SVG Version: 6.00 Build 0)  -->
<svg xmlns="http://www.w3.org/2000/svg" xmlns:xlink="http://www.w3.org/1999/xlink" version="1.1" id="Capa_1" x="0px" y="0px" viewBox="0 0 512 512" style="enable-background:new 0 0 512 512;" xml:space="preserve">
<g>
	<g>
		<path d="M419.567,111.382L256.005,0L92.407,110.588L25.191,229.06l36.517,19.311V512h64.111h260.34h64.111V248.371l36.539-19.323    L419.567,111.382z M370.955,496.797H141.022v-21.005h229.933V496.797z M370.955,460.588H141.022v-21.602h229.933V460.588z     M370.955,423.782H141.022v-21.603h229.933V423.782z M370.955,386.974H141.022v-21.603h229.933V386.974z M370.955,350.168H141.022    v-21.602h229.933V350.168z M370.955,313.362H141.022v-22.574h229.933V313.362z M435.068,496.797L435.068,496.797h-48.909V275.584    h-260.34v221.213H76.911V235.546l51.08-90.96l127.983-86.513l128.018,87.177l51.076,90.309V496.797z M450.103,231.262    l-54.624-96.584L256.005,39.699l-139.51,94.305l-54.617,97.259l-15.737-8.322l57.732-101.752l152.1-102.816l152.136,103.601    l57.706,100.98L450.103,231.262z"/>
	</g>
</g>
<g>
	<g>
		<path d="M255.989,122.045c-22.081,0-40.045,17.964-40.045,40.046c-0.001,22.081,17.964,40.045,40.045,40.045    s40.045-17.964,40.045-40.045C296.034,140.009,278.07,122.045,255.989,122.045z M255.989,186.932    c-13.697,0-24.842-11.143-24.842-24.842c0-13.698,11.143-24.843,24.842-24.843s24.842,11.144,24.842,24.843    C280.831,175.789,269.687,186.932,255.989,186.932z"/>
	</g>
</g>
<g>
	<g>
		<rect x="171.363" y="236.192" width="169.246" height="15.204"/>
	</g>
</g>
<g>
	<g>
		<rect x="82.595" y="388.217" width="15.203" height="71.861"/>
	</g>
</g>
<g>
	<g>
		<rect x="82.595" y="471.33" width="15.203" height="17.423"/>
	</g>
</g>
<g>
	<g>
		
			<rect x="400.255" y="186.839" transform="matrix(0.8704 -0.4923 0.4923 0.8704 -52.9545 228.642)" width="15.203" height="56.15"/>
	</g>
</g>
<g>
</g>
<g>
</g>
<g>
</g>
<g>
</g>
<g>
</g>
<g>
</g>
<g>
</g>
<g>
</g>
<g>
</g>
<g>
</g>
<g>
</g>
<g>
</g>
<g>
</g>
<g>
</g>
<g>
</g>
</svg>
