<?xml version="1.0" encoding="iso-8859-1"?>
<!-- Generator: Adobe Illustrator 19.0.0, SVG Export Plug-In . SVG Version: 6.00 Build 0)  -->
<svg xmlns="http://www.w3.org/2000/svg" xmlns:xlink="http://www.w3.org/1999/xlink" version="1.1" id="Layer_1" x="0px" y="0px" viewBox="0 0 511.999 511.999" style="enable-background:new 0 0 511.999 511.999;" xml:space="preserve">
<g>
	<g>
		<path d="M107.832,207.899c-27.111,0-49.167,22.056-49.167,49.167c0,27.111,22.056,49.167,49.167,49.167    s49.167-22.056,49.167-49.167C156.999,229.955,134.943,207.899,107.832,207.899z M107.832,291.251    c-18.85,0-34.184-15.336-34.184-34.184c0-18.849,15.335-34.185,34.184-34.185s34.185,15.336,34.185,34.185    C142.017,275.915,126.682,291.251,107.832,291.251z"/>
	</g>
</g>
<g>
	<g>
		<path d="M385.917,268.83c-27.111,0-49.167,22.056-49.167,49.167c0,27.111,22.056,49.167,49.167,49.167    c27.111,0,49.167-22.056,49.167-49.167C435.083,290.886,413.027,268.83,385.917,268.83z M385.917,352.181    c-18.85,0-34.185-15.336-34.185-34.185c0-18.849,15.335-34.184,34.185-34.184s34.184,15.336,34.184,34.184    C420.101,336.846,404.766,352.181,385.917,352.181z"/>
	</g>
</g>
<g>
	<g>
		<circle cx="63.145" cy="363.987" r="8.575"/>
	</g>
</g>
<g>
	<g>
		<circle cx="99.252" cy="402.941" r="8.575"/>
	</g>
</g>
<g>
	<g>
		<circle cx="327.821" cy="233.892" r="8.575"/>
	</g>
</g>
<g>
	<g>
		<circle cx="261.11" cy="293.631" r="8.575"/>
	</g>
</g>
<g>
	<g>
		<circle cx="310.672" cy="367.783" r="8.575"/>
	</g>
</g>
<g>
	<g>
		<circle cx="466.107" cy="257.064" r="8.575"/>
	</g>
</g>
<g>
	<g>
		<circle cx="192.742" cy="225.322" r="8.575"/>
	</g>
</g>
<g>
	<g>
		<circle cx="175.592" cy="112.256" r="8.575"/>
	</g>
</g>
<g>
	<g>
		<circle cx="107.832" cy="132.012" r="8.575"/>
	</g>
</g>
<g>
	<g>
		<circle cx="158.083" cy="333.953" r="8.575"/>
	</g>
</g>
<g>
	<g>
		<path d="M511.997,178.714c-0.002-0.338-0.033-0.669-0.078-0.995c-0.011-0.079-0.022-0.158-0.035-0.237    c-0.058-0.335-0.134-0.662-0.235-0.98c-0.017-0.053-0.038-0.103-0.056-0.155c-0.095-0.278-0.207-0.547-0.332-0.809    c-0.034-0.072-0.066-0.145-0.103-0.216c-0.146-0.281-0.309-0.55-0.487-0.809c-0.056-0.081-0.117-0.158-0.176-0.237    c-0.151-0.201-0.312-0.395-0.481-0.579c-0.061-0.067-0.118-0.136-0.181-0.201c-0.212-0.214-0.44-0.409-0.675-0.596    c-0.092-0.073-0.186-0.143-0.282-0.212c-0.249-0.179-0.504-0.348-0.774-0.495c-0.069-0.038-0.143-0.068-0.214-0.104    c-0.242-0.123-0.49-0.231-0.746-0.328c-0.059-0.022-0.112-0.055-0.172-0.075l-118.588-41.223    c-3.906-1.356-8.176,0.708-9.535,4.616c-1.358,3.908,0.708,8.177,4.617,9.536l76.227,26.498l-430.395-1.582L149.742,63.367    l95.111,33.064c-5.994,5.199-9.796,12.861-9.796,21.4c0,15.621,12.709,28.33,28.33,28.33c15.622,0,28.33-12.71,28.33-28.33    c0-1.806-0.177-3.57-0.501-5.283l54.587,18.977c3.905,1.358,8.177-0.707,9.535-4.616c1.358-3.908-0.708-8.177-4.617-9.536    L153.875,48.942c-4.617-1.602-9.756-0.592-13.42,2.638L4.594,171.331c-0.049,0.043-0.09,0.092-0.138,0.135    c-0.111,0.103-0.219,0.208-0.324,0.318C1.508,174.33,0,177.829,0,181.505v268.738c0,3.96,1.723,7.711,4.727,10.291    c2.478,2.128,5.611,3.272,8.83,3.272c0.684,0,1.372-0.052,2.059-0.157l167.172-25.615c4.09-0.626,6.897-4.45,6.271-8.539    c-0.626-4.09-4.446-6.905-8.539-6.27L14.982,448.589V184.46l482.036,1.772v188.5l-276.641,42.387    c-4.089,0.626-6.897,4.449-6.271,8.539c0.567,3.706,3.76,6.357,7.395,6.357c0.378,0,0.759-0.028,1.144-0.088l277.845-42.57    c6.669-1.021,11.509-6.659,11.509-13.406v-197.19C512,178.746,511.997,178.73,511.997,178.714z M263.385,104.481    c7.36,0,13.348,5.988,13.348,13.348c0,7.36-5.988,13.348-13.348,13.348s-13.348-5.988-13.348-13.348    C250.037,110.469,256.024,104.481,263.385,104.481z"/>
	</g>
</g>
<g>
	<g>
		<path d="M218.235,339.454c-15.621,0-28.33,12.71-28.33,28.33s12.709,28.33,28.33,28.33s28.33-12.71,28.33-28.33    S233.857,339.454,218.235,339.454z M218.235,381.132c-7.36,0-13.348-5.988-13.348-13.348s5.988-13.348,13.348-13.348    s13.348,5.988,13.348,13.348S225.596,381.132,218.235,381.132z"/>
	</g>
</g>
<g>
</g>
<g>
</g>
<g>
</g>
<g>
</g>
<g>
</g>
<g>
</g>
<g>
</g>
<g>
</g>
<g>
</g>
<g>
</g>
<g>
</g>
<g>
</g>
<g>
</g>
<g>
</g>
<g>
</g>
</svg>
