<?xml version="1.0" encoding="iso-8859-1"?>
<!-- Generator: Adobe Illustrator 19.0.0, SVG Export Plug-In . SVG Version: 6.00 Build 0)  -->
<svg xmlns="http://www.w3.org/2000/svg" xmlns:xlink="http://www.w3.org/1999/xlink" version="1.1" id="Capa_1" x="0px" y="0px" viewBox="0 0 512.001 512.001" style="enable-background:new 0 0 512.001 512.001;" xml:space="preserve">
<g>
	<g>
		<path d="M256,79.272c-97.449,0-176.729,79.28-176.729,176.729S158.551,432.729,256,432.729S432.729,353.449,432.729,256    S353.449,79.272,256,79.272z M256,417.624c-89.12,0-161.624-72.504-161.624-161.624S166.88,94.377,256,94.377    S417.624,166.881,417.624,256S345.12,417.624,256,417.624z"/>
	</g>
</g>
<g>
	<g>
		<path d="M256,0l-43.343,69.252h86.687L256,0z M256,28.472l16.07,25.674H239.93L256,28.472z"/>
	</g>
</g>
<g>
	<g>
		<path d="M212.657,442.749L256,512l43.343-69.252H212.657z M239.93,457.855h32.139L256,483.529L239.93,457.855z"/>
	</g>
</g>
<g>
	<g>
		<path d="M442.748,212.657v86.687L512.001,256L442.748,212.657z M457.854,239.931L483.529,256l-25.676,16.07V239.931z"/>
	</g>
</g>
<g>
	<g>
		<path d="M0,256l69.253,43.343v-86.687L0,256z M54.146,239.931v32.139L28.471,256L54.146,239.931z"/>
	</g>
</g>
<g>
	<g>
		<path d="M357.403,93.301l61.297,61.297l18.319-79.617L357.403,93.301z M410.095,124.632l-22.726-22.726l29.518-6.792    L410.095,124.632z"/>
	</g>
</g>
<g>
	<g>
		<path d="M93.3,357.404L74.98,437.02l79.617-18.319L93.3,357.404z M101.906,387.369l22.726,22.726l-29.518,6.792L101.906,387.369z"/>
	</g>
</g>
<g>
	<g>
		<path d="M418.7,357.404l-61.297,61.297l79.617,18.319L418.7,357.404z M387.369,410.096l22.726-22.726l6.792,29.518    L387.369,410.096z"/>
	</g>
</g>
<g>
	<g>
		<path d="M74.98,74.981L93.3,154.597l61.297-61.296L74.98,74.981z M95.113,95.114l29.518,6.792l-22.726,22.726L95.113,95.114z"/>
	</g>
</g>
<g>
	<g>
		<path d="M123.329,300.218l-14.331,4.773c11.771,35.337,35.962,65.295,68.116,84.356l7.703-12.992    C155.787,359.146,133.95,332.108,123.329,300.218z"/>
	</g>
</g>
<g>
	<g>
		<path d="M199.476,383.911l-6.113,13.813c8.411,3.723,17.208,6.705,26.146,8.864l3.547-14.683    C214.995,389.957,207.062,387.268,199.476,383.911z"/>
	</g>
</g>
<g>
	<g>
		<path d="M326.844,118.205l-6.917,13.427c32.051,16.509,56.233,44.296,68.092,78.241l14.26-4.982    C389.138,167.279,362.349,136.494,326.844,118.205z"/>
	</g>
</g>
<g>
</g>
<g>
</g>
<g>
</g>
<g>
</g>
<g>
</g>
<g>
</g>
<g>
</g>
<g>
</g>
<g>
</g>
<g>
</g>
<g>
</g>
<g>
</g>
<g>
</g>
<g>
</g>
<g>
</g>
</svg>
