<?xml version="1.0" encoding="iso-8859-1"?>
<!-- Generator: Adobe Illustrator 19.0.0, SVG Export Plug-In . SVG Version: 6.00 Build 0)  -->
<svg xmlns="http://www.w3.org/2000/svg" xmlns:xlink="http://www.w3.org/1999/xlink" version="1.1" id="Layer_1" x="0px" y="0px" viewBox="0 0 512.001 512.001" style="enable-background:new 0 0 512.001 512.001;" xml:space="preserve">
<g>
	<g>
		<path d="M396.417,80.433C364.394,30.068,309.688,0,250.078,0C154.522,0,76.78,77.741,76.781,173.297    c0,22.751,4.342,44.871,12.908,65.746c1.19,2.9,3.988,4.654,6.939,4.654c0.948,0,1.912-0.181,2.842-0.563    c3.831-1.571,5.663-5.951,4.091-9.782c-7.82-19.06-11.786-39.265-11.786-60.054c0-87.288,71.014-158.302,158.302-158.302    c54.453,0,104.429,27.471,133.685,73.484c2.223,3.493,6.855,4.523,10.351,2.304C397.607,88.562,398.639,83.928,396.417,80.433z"/>
	</g>
</g>
<g>
	<g>
		<path d="M393.586,270.309c18.789-27.699,29.788-61.091,29.788-97.011c0-17.832-2.698-35.416-8.021-52.262    c-1.247-3.948-5.455-6.137-9.408-4.89c-3.948,1.248-6.138,5.459-4.89,9.408c4.86,15.383,7.324,31.447,7.324,47.744    c0,34.107-10.851,65.72-29.272,91.589c-5.986-1.548-12.26-2.372-18.722-2.372c-37.893,0-69.276,28.316-74.155,64.896    c-9.269,2.174-18.843,3.546-28.654,4.006v-38.551l50.899-58.734c2.712-3.13,2.373-7.865-0.756-10.577    c-3.129-2.711-7.864-2.373-10.577,0.756l-39.567,45.657v-83.012c0-4.141-3.356-7.498-7.498-7.498    c-4.141,0-7.498,3.356-7.498,7.498V331.41c-47.222-2.173-90.262-24.814-118.98-62.898c-2.494-3.306-7.196-3.966-10.501-1.472    c-3.307,2.493-3.966,7.194-1.472,10.501c15.818,20.975,36.518,38.351,59.863,50.249c22.26,11.345,46.144,17.587,71.091,18.63    v158.083c0,4.141,3.356,7.498,7.498,7.498c4.141,0,7.498-3.356,7.498-7.498v-39.526l58.426-67.418    c12.427,9.185,27.779,14.627,44.383,14.627c41.264,0,74.835-33.57,74.835-74.835C435.22,308.006,418.234,282.566,393.586,270.309z     M257.576,442.078v-95.656c9.622-0.412,19.039-1.624,28.196-3.549c1.255,17.097,8.261,32.62,19.111,44.618L257.576,442.078z     M360.385,397.19c-32.996,0-59.84-26.844-59.84-59.839c0-32.996,26.844-59.84,59.84-59.84c32.995,0,59.839,26.844,59.839,59.84    C420.224,370.346,393.38,397.19,360.385,397.19z"/>
	</g>
</g>
<g>
	<g>
		<circle cx="293.05" cy="70.14" r="8.582"/>
	</g>
</g>
<g>
	<g>
		<circle cx="153.44" cy="256.71" r="8.582"/>
	</g>
</g>
<g>
	<g>
		<circle cx="177.44" cy="280.71" r="8.582"/>
	</g>
</g>
<g>
	<g>
		<circle cx="141.45" cy="114.72" r="8.582"/>
	</g>
</g>
<g>
	<g>
		<circle cx="186.02" cy="222.98" r="8.582"/>
	</g>
</g>
<g>
</g>
<g>
</g>
<g>
</g>
<g>
</g>
<g>
</g>
<g>
</g>
<g>
</g>
<g>
</g>
<g>
</g>
<g>
</g>
<g>
</g>
<g>
</g>
<g>
</g>
<g>
</g>
<g>
</g>
</svg>
