<?xml version="1.0" encoding="iso-8859-1"?>
<!-- Generator: Adobe Illustrator 19.0.0, SVG Export Plug-In . SVG Version: 6.00 Build 0)  -->
<svg xmlns="http://www.w3.org/2000/svg" xmlns:xlink="http://www.w3.org/1999/xlink" version="1.1" id="Capa_1" x="0px" y="0px" viewBox="0 0 512 512" style="enable-background:new 0 0 512 512;" xml:space="preserve">
<g>
	<g>
		<polygon points="162.328,473.869 162.328,402.324 147.328,402.324 147.328,488.869 198.461,488.869 198.461,473.869   "/>
	</g>
</g>
<g>
	<g>
		<rect x="208.67" y="473.87" width="21.405" height="15"/>
	</g>
</g>
<g>
	<g>
		<path d="M403.142,132.079l-21.423-27.304l-33.388,24.991l-12.385-17.151V65.69h12.811v-15h-12.811V26.349h-38.263V0h-84.488    v26.349h-38.264V50.69h-12.81v15h12.81v46.925L162.94,129.22l-32.659-24.445l-21.423,27.304l33.288,25.937l-18.814,26.055V512    h264.212V184.071l-18.41-25.494L403.142,132.079z M378.969,125.57l3.081,3.927l-21.703,16.911l-3.234-4.479L378.969,125.57z     M228.194,15h54.488v11.349h-54.488V15z M189.931,41.349h23.264h84.488h23.263v9.342H189.931V41.349z M189.931,65.69h131.015    v41.85H189.931V65.69z M129.95,129.497l3.081-3.927l21.126,15.813l-3.224,4.465L129.95,129.497z M372.544,193.996V497H138.332    V193.996h161.407v-15h-154.24l40.767-56.456H324.61l40.767,56.456h-43.681v15H372.544z"/>
	</g>
</g>
<g>
</g>
<g>
</g>
<g>
</g>
<g>
</g>
<g>
</g>
<g>
</g>
<g>
</g>
<g>
</g>
<g>
</g>
<g>
</g>
<g>
</g>
<g>
</g>
<g>
</g>
<g>
</g>
<g>
</g>
</svg>
