<?xml version="1.0" encoding="iso-8859-1"?>
<!-- Generator: Adobe Illustrator 19.0.0, SVG Export Plug-In . SVG Version: 6.00 Build 0)  -->
<svg xmlns="http://www.w3.org/2000/svg" xmlns:xlink="http://www.w3.org/1999/xlink" version="1.1" id="Layer_1" x="0px" y="0px" viewBox="0 0 512.004 512.004" style="enable-background:new 0 0 512.004 512.004;" xml:space="preserve">
<g>
	<g>
		<path d="M162.171,365.527h-24.35c-4.144,0-7.502,3.358-7.502,7.502s3.358,7.502,7.502,7.502h24.35    c4.144,0,7.502-3.358,7.502-7.502S166.315,365.527,162.171,365.527z"/>
	</g>
</g>
<g>
	<g>
		<path d="M316.124,365.527h-24.35c-4.144,0-7.502,3.358-7.502,7.502s3.358,7.502,7.502,7.502h24.35    c4.144,0,7.502-3.358,7.502-7.502S320.268,365.527,316.124,365.527z"/>
	</g>
</g>
<g>
	<g>
		<path d="M478.223,18.784c-1.46-4.936-2.968-8.742-3.976-11.066c-1.528-3.524-4.713-5.986-8.519-6.588    c-2.497-0.394-6.552-0.901-11.688-1.082c-23.304-0.831-44.86,9.314-59.179,27.799c-14.32,18.484-18.742,41.902-12.131,64.246    c1.248,4.219,2.537,7.615,3.492,9.917c-21.361,31.004-36.01,62.864-44.179,96.261l-29.286-35.856    c1.1-3.093,2.531-7.535,3.869-12.99c2.38-9.705,3.229-19.596,2.523-29.397c-0.297-4.132-3.896-7.242-8.021-6.944    c-4.133,0.297-7.241,3.888-6.944,8.021c0.592,8.238-0.124,16.565-2.13,24.747c-1.258,5.129-2.605,9.24-3.569,11.914    c-2.793,0.531-7.063,1.214-12.324,1.647c-25.818,2.12-50.313-7.999-67.199-27.791c-16.886-19.792-23.031-45.574-16.862-70.736    c1.243-5.069,2.559-9.122,3.566-11.914c2.917-0.556,7.125-1.216,12.329-1.646c31.103-2.565,61.081,13.524,76.365,40.989    c2.016,3.62,6.584,4.922,10.203,2.907c1.13-0.629,2.034-1.507,2.682-2.528c0.27-0.282,0.545-0.559,0.81-0.846    c17.381-18.811,23.443-44.631,16.212-69.066c-1.46-4.936-2.968-8.742-3.976-11.066c-1.528-3.524-4.713-5.986-8.519-6.588    c-2.497-0.394-6.552-0.901-11.688-1.082c-23.304-0.831-44.86,9.314-59.179,27.799c-1.285,1.659-2.489,3.359-3.612,5.093    c-6.727-0.928-13.607-1.134-20.535-0.563c-6.838,0.564-12.204,1.495-15.502,2.177c-4.207,0.869-7.628,3.796-9.151,7.826    c-1.19,3.147-2.952,8.292-4.581,14.937c-7.334,29.905-0.036,60.539,20.02,84.047c0.308,0.361,0.623,0.712,0.936,1.068    c-8.937,18.197-15.728,36.768-20.393,55.841l-29.286-35.856c1.1-3.093,2.531-7.535,3.869-12.99    c2.38-9.705,3.229-19.596,2.523-29.397c-0.297-4.132-3.896-7.242-8.021-6.944c-4.133,0.297-7.241,3.888-6.944,8.021    c0.592,8.238-0.124,16.565-2.13,24.747c-1.258,5.129-2.605,9.24-3.569,11.914c-2.793,0.531-7.063,1.214-12.324,1.647    c-25.818,2.12-50.313-7.999-67.199-27.791C48.121,111.833,41.981,86.05,48.15,60.889c1.243-5.069,2.559-9.122,3.566-11.914    c2.917-0.556,7.125-1.216,12.329-1.646c31.103-2.565,61.081,13.524,76.365,40.989c2.016,3.62,6.584,4.922,10.203,2.907    s4.921-6.583,2.907-10.203c-18.139-32.599-53.75-51.691-90.709-48.645c-6.838,0.564-12.204,1.495-15.502,2.177    c-4.207,0.869-7.628,3.796-9.151,7.826c-1.19,3.147-2.952,8.292-4.581,14.937c-7.334,29.905-0.036,60.539,20.02,84.047    c18.297,21.445,44.119,33.339,71.808,33.337c2.663,0,5.347-0.11,8.039-0.332c6.049-0.499,10.945-1.29,14.186-1.916l36.551,44.75    c-2.347,13.883-3.62,28.045-3.832,42.531h-13.347c-5.885,0-10.674,4.788-10.674,10.674v14.439    c-17.142,5.314-32.666,15-45.069,28.152c-13.224,14.024-22.294,31.359-26.229,50.127c-0.85,4.055,1.747,8.031,5.802,8.882    c4.053,0.845,8.031-1.747,8.881-5.803c6.798-32.42,31.844-59.045,63.807-67.83c4.599-1.263,7.811-5.489,7.811-10.278v-13.357    h31.942v13.357c0,4.789,3.212,9.016,7.808,10.277c15.922,4.377,29.86,12.968,40.761,24.357h-14.076    c-4.144,0-7.502,3.358-7.502,7.502s3.358,7.502,7.502,7.502h10.122c-4.037,8.016-7.048,16.542-8.904,25.393    c-0.85,4.055,1.747,8.031,5.802,8.882c4.053,0.845,8.031-1.747,8.881-5.803c6.798-32.42,31.844-59.045,63.806-67.83    c4.599-1.263,7.811-5.489,7.811-10.278v-13.357h31.942v13.357c0,4.789,3.212,9.016,7.808,10.277    c15.922,4.377,29.86,12.968,40.761,24.357h-14.076c-4.144,0-7.502,3.358-7.502,7.502s3.358,7.502,7.502,7.502h24.35    c0.427,0,0.842-0.044,1.249-0.112c8.554,13.816,13.432,30.005,13.432,47.048c0,41.046-27.757,76.725-67.498,86.765    c-8.604,2.173-16.065,7.794-20.47,15.424l-1.524,2.642l-1.524-2.642c-4.405-7.63-11.866-13.251-20.469-15.424    c-17.742-4.482-33.352-14.282-45.077-27.552h12.116c4.144,0,7.502-3.358,7.502-7.502s-3.358-7.502-7.502-7.502h-21.83    c-0.332,0-0.656,0.029-0.976,0.071c-4.741-8.293-8.192-17.398-10.073-27.036c-0.793-4.065-4.732-6.718-8.8-5.926    c-4.066,0.794-6.72,4.733-5.926,8.8c0.625,3.205,1.414,6.355,2.329,9.451h-18.635c-4.144,0-7.502,3.358-7.502,7.502    s3.358,7.502,7.502,7.502h21.83c0.821,0,1.609-0.137,2.349-0.38c2.38,5.077,5.161,9.931,8.298,14.531    c-11.662,13.429-27.347,23.438-45.568,28.041c-8.604,2.173-16.065,7.794-20.47,15.424l-1.524,2.642l-1.524-2.642    c-4.405-7.63-11.866-13.251-20.469-15.424c-17.742-4.482-33.352-14.282-45.077-27.552h12.116c4.144,0,7.502-3.358,7.502-7.502    s-3.358-7.502-7.502-7.502h-21.83c-0.332,0-0.656,0.029-0.976,0.071c-4.741-8.293-8.192-17.398-10.073-27.036    c-0.793-4.065-4.732-6.718-8.8-5.926c-4.066,0.794-6.72,4.733-5.926,8.8c7.702,39.468,37.884,71.338,76.893,81.193    c4.695,1.186,8.759,4.24,11.149,8.379l8.022,13.894c1.34,2.321,3.816,3.751,6.497,3.751c2.681,0,5.156-1.43,6.497-3.751    l8.022-13.894c2.391-4.139,6.454-7.193,11.15-8.379c20.328-5.135,37.949-16.031,51.357-30.664    c13.528,14.724,31.224,25.602,51.259,30.664c4.695,1.186,8.759,4.24,11.149,8.379l8.022,13.894    c1.34,2.321,3.816,3.751,6.497,3.751c2.681,0,5.156-1.43,6.497-3.751l8.022-13.894c2.391-4.139,6.454-7.193,11.15-8.379    c46.413-11.725,78.829-53.386,78.829-101.311c0-45.785-30.064-86.356-73.523-99.822v-14.443c0-5.885-4.788-10.674-10.674-10.674    h-12.252c0.832-53.578,17.038-102.535,49.476-149.509c2.219,0.255,4.974,0.492,8.135,0.604c0.854,0.03,1.708,0.045,2.563,0.045    c3.581,0,7.152-0.262,10.649-0.782c4.099-0.609,6.927-4.426,6.315-8.523c-0.609-4.099-4.428-6.927-8.523-6.316    c-3.429,0.51-6.957,0.705-10.477,0.583c-3.156-0.111-5.82-0.368-7.785-0.615c-0.729-1.84-1.644-4.355-2.54-7.382    c-5.225-17.661-1.724-36.178,9.605-50.801s28.387-22.654,46.79-21.993c3.187,0.112,5.867,0.374,7.784,0.614    c0.712,1.798,1.635,4.329,2.54,7.385c5.714,19.317,0.912,39.737-12.846,54.627c-0.462,0.5-0.934,0.993-1.413,1.477    c-2.917,2.943-2.896,7.692,0.048,10.609c2.942,2.916,7.692,2.896,10.609-0.048c0.603-0.608,1.195-1.227,1.776-1.855    C479.393,69.039,485.453,43.219,478.223,18.784z M299.561,15.042c3.187,0.112,5.867,0.374,7.784,0.614    c0.712,1.798,1.635,4.329,2.54,7.385c5.01,16.937,1.934,34.722-8.174,48.885c-12.076-16.887-29.225-29.193-48.545-35.371    C264.495,22.243,281.366,14.388,299.561,15.042z M334.302,259.731h-13.348c-5.885,0-10.674,4.788-10.674,10.674v14.439    c-17.142,5.314-32.666,15-45.069,28.152c-0.326,0.345-0.637,0.702-0.958,1.051c-12.229-13.356-27.947-23.616-45.978-29.203    v-14.439c0-5.885-4.788-10.674-10.674-10.674h-12.25c0.581-37.381,8.665-72.509,24.506-106.286    c16.783,13.777,37.552,21.256,59.499,21.254c2.663,0,5.347-0.11,8.039-0.332c6.049-0.499,10.945-1.29,14.186-1.916l36.551,44.75    C335.787,231.084,334.514,245.246,334.302,259.731z"/>
	</g>
</g>
<g>
	<g>
		<path d="M398.171,414.235h-21.83c-4.144,0-7.502,3.358-7.502,7.502c0,4.144,3.358,7.502,7.502,7.502h21.83    c4.144,0,7.502-3.358,7.502-7.502C405.673,417.593,402.315,414.235,398.171,414.235z"/>
	</g>
</g>
<g>
</g>
<g>
</g>
<g>
</g>
<g>
</g>
<g>
</g>
<g>
</g>
<g>
</g>
<g>
</g>
<g>
</g>
<g>
</g>
<g>
</g>
<g>
</g>
<g>
</g>
<g>
</g>
<g>
</g>
</svg>
