<?xml version="1.0" encoding="iso-8859-1"?>
<!-- Generator: Adobe Illustrator 19.0.0, SVG Export Plug-In . SVG Version: 6.00 Build 0)  -->
<svg xmlns="http://www.w3.org/2000/svg" xmlns:xlink="http://www.w3.org/1999/xlink" version="1.1" id="Capa_1" x="0px" y="0px" viewBox="0 0 512 512" style="enable-background:new 0 0 512 512;" xml:space="preserve">
<g>
	<g>
		<path d="M313.753,114.889v29.482h-27.827c-0.728-2.889-1.87-5.648-3.399-8.205l80.924-80.924l5.366-5.366l-31.58-31.581    l-66.613,66.613l20.847,20.847l-19.678,19.678c-2.557-1.529-5.316-2.671-8.204-3.399V94.206V7.589V0h-44.661v94.206h29.483v27.828    c-2.889,0.728-5.648,1.87-8.205,3.399l-80.925-80.924l-5.366-5.366l-31.58,31.58l66.614,66.613l20.847-20.847l19.678,19.678    c-1.529,2.557-2.672,5.316-3.399,8.205h-27.828H111.63h-7.589v44.66h94.206V159.55h27.828c0.728,2.889,1.87,5.648,3.399,8.205    l-80.925,80.925l-5.366,5.366l31.58,31.58l66.613-66.614l-20.847-20.846l19.678-19.678c2.557,1.529,5.316,2.671,8.205,3.399    v18.882h-0.001v120.349H213.34l-38.097,187.867L190.119,512l5.754-28.372H316.13L321.883,512l14.876-3.015l-38.097-187.867H263.59    V303.92h29.483v-94.207h-29.482v-27.827c2.889-0.728,5.648-1.87,8.205-3.399l80.924,80.923l5.367,5.367l31.58-31.58    l-66.616-66.613l-20.847,20.847l-19.678-19.678c1.529-2.557,2.671-5.316,3.399-8.205h27.828h86.617h7.589v-44.66H313.753z     M337.238,39.76l10.115,10.115l-45.148,45.148L292.09,84.908L337.238,39.76z M188.948,115.87l-45.149-45.148l10.115-10.115    l45.148,45.148L188.948,115.87z M183.066,173.853h-63.849v-14.304h63.849V173.853z M174.76,264.161l-10.115-10.115l45.148-45.148    l10.116,10.113L174.76,264.161z M234.106,79.028V15.178h14.305v63.849H234.106z M313.05,468.45H198.948l7.847-38.694h98.407    L313.05,468.45z M302.125,414.577h-92.252l7.847-38.694h76.558L302.125,414.577z M286.25,336.296l4.95,24.409h-70.402l4.95-24.409    H286.25z M277.892,224.892v63.851h-14.304v-63.851H277.892z M271.603,153.551c-0.008,0.078-0.025,0.155-0.034,0.233    c-0.053,0.448-0.114,0.894-0.203,1.331c-0.004,0.021-0.011,0.04-0.015,0.062c-1.378,6.589-6.901,11.671-13.708,12.383    c-0.014,0.001-0.028,0.005-0.042,0.006c-0.526,0.054-1.059,0.081-1.599,0.081c-0.54,0-1.074-0.027-1.6-0.081    c-0.011-0.001-0.021-0.004-0.032-0.005c-7.347-0.766-13.202-6.62-13.967-13.966c-0.001-0.012-0.004-0.023-0.005-0.035    c-0.054-0.526-0.081-1.059-0.081-1.6c0-0.539,0.027-1.074,0.081-1.599c0.001-0.014,0.005-0.028,0.006-0.043    c0.712-6.815,5.805-12.344,12.405-13.714c0.012-0.003,0.025-0.007,0.037-0.009c0.439-0.09,0.886-0.153,1.338-0.204    c0.076-0.009,0.15-0.026,0.227-0.033c0.523-0.053,1.053-0.081,1.59-0.081c0.536,0,1.067,0.027,1.589,0.081    c0.08,0.008,0.158,0.026,0.239,0.035c0.446,0.053,0.89,0.113,1.326,0.202c0.02,0.004,0.039,0.011,0.06,0.015    c6.075,1.27,10.869,6.063,12.138,12.138c0.004,0.02,0.011,0.039,0.015,0.06c0.089,0.434,0.151,0.878,0.202,1.326    c0.009,0.08,0.027,0.158,0.035,0.239c0.053,0.523,0.081,1.052,0.081,1.589S271.657,153.028,271.603,153.551z M323.051,188.05    l45.148,45.148l-10.114,10.114l-45.148-45.148L323.051,188.05z M392.782,144.371h-63.849v-14.304h63.849V144.371z"/>
	</g>
</g>
<g>
</g>
<g>
</g>
<g>
</g>
<g>
</g>
<g>
</g>
<g>
</g>
<g>
</g>
<g>
</g>
<g>
</g>
<g>
</g>
<g>
</g>
<g>
</g>
<g>
</g>
<g>
</g>
<g>
</g>
</svg>
