<?xml version="1.0" encoding="iso-8859-1"?>
<!-- Generator: Adobe Illustrator 19.0.0, SVG Export Plug-In . SVG Version: 6.00 Build 0)  -->
<svg xmlns="http://www.w3.org/2000/svg" xmlns:xlink="http://www.w3.org/1999/xlink" version="1.1" id="Layer_1" x="0px" y="0px" viewBox="0 0 512 512" style="enable-background:new 0 0 512 512;" xml:space="preserve">
<g>
	<g>
		<path d="M362.474,256.649h-19.457c-4.142,0-7.5,3.357-7.5,7.5c0,4.143,3.358,7.5,7.5,7.5h19.457c4.142,0,7.5-3.357,7.5-7.5    C369.974,260.006,366.616,256.649,362.474,256.649z"/>
	</g>
</g>
<g>
	<g>
		<path d="M512,300.431c0-22.453-16.998-41.01-38.801-43.479c6.552-7.521,10.525-17.347,10.525-28.081v-1.916    c0-21.751-16.31-39.765-37.341-42.454c6.262-7.313,10.048-16.804,10.048-27.163v-3.886c0-23.058-18.759-41.816-41.816-41.816    H263.497v-81.36c0-4.143-3.358-7.5-7.5-7.5c-4.142,0-7.5,3.357-7.5,7.5v81.36H97.386c-23.058,0-41.816,18.759-41.816,41.816v3.886    c0,10.359,3.787,19.851,10.048,27.163c-21.031,2.689-37.341,20.703-37.341,42.454v1.916c0,10.734,3.973,20.56,10.525,28.081    C16.998,259.421,0,277.978,0,300.431c0,22.452,16.997,41.009,38.8,43.479c-6.552,7.521-10.524,17.347-10.524,28.081v1.915    c0,21.751,16.31,39.765,37.341,42.454c-6.262,7.313-10.049,16.805-10.049,27.164v3.885c0,23.058,18.759,41.816,41.816,41.816    h317.23c23.058,0,41.816-18.759,41.816-41.816v-3.885c0-10.359-3.787-19.852-10.049-27.164    c21.032-2.689,37.341-20.703,37.341-42.454v-1.915c0-10.734-3.973-20.56-10.524-28.081C495.003,341.439,512,322.883,512,300.431z     M440.923,401.706l-24.926,0.001c-0.103-0.004-0.204-0.016-0.309-0.016H264.12c-4.142,0-7.5,3.357-7.5,7.5    c0,4.143,3.358,7.5,7.5,7.5h150.186c0.104,0.004,0.205,0.016,0.31,0.016c14.787,0,26.816,12.03,26.816,26.816v3.885    c0,14.787-12.03,26.816-26.816,26.816H97.386c-14.787,0-26.816-12.029-26.816-26.816v-3.885c0-14.786,12.03-26.816,26.816-26.816    c0.105,0,0.206-0.011,0.31-0.016h123.992c4.142,0,7.5-3.357,7.5-7.5c0-4.143-3.358-7.5-7.5-7.5H70.5    c-15.063-0.309-27.224-12.651-27.224-27.786v-1.915c0-13.885,10.23-25.424,23.549-27.477h72.84c4.142,0,7.5-3.357,7.5-7.5    c0-4.143-3.358-7.5-7.5-7.5H73.26c-0.691-0.21-1.424-0.325-2.184-0.325H43.759c-15.858,0-28.759-12.9-28.759-28.758    s12.901-28.759,28.759-28.759l27.318-0.001c0.143,0,0.284-0.014,0.425-0.021h88.214c-2.358,6.758-3.657,14.009-3.657,21.562    c0,36.187,29.439,65.626,65.625,65.626c15.436,0,29.634-5.37,40.853-14.323H441c0.652,0,1.281-0.092,1.884-0.248    c14.416,1.011,25.838,13.055,25.838,27.725v1.914h0.002C468.724,389.234,456.253,401.706,440.923,401.706z M171.062,293.211    c0-27.915,22.71-50.625,50.625-50.625s50.625,22.71,50.625,50.625c0,27.915-22.711,50.626-50.625,50.626    C193.772,343.837,171.062,321.126,171.062,293.211z M468.241,329.189h-27.318c-0.76,0-1.492,0.115-2.184,0.325H276.323    c6.936-10.404,10.989-22.887,10.989-36.303c0-7.552-1.298-14.803-3.657-21.562H300c4.142,0,7.5-3.357,7.5-7.5    c0-4.143-3.358-7.5-7.5-7.5h-23.844c-11.796-17.517-31.809-29.063-54.469-29.063c-22.661,0-42.673,11.547-54.469,29.063H70.23    c-14.939-0.45-26.954-12.734-26.954-27.779v-1.916c0-15.329,12.471-27.801,27.801-27.801l26.308-0.001H287.5    c4.142,0,7.5-3.357,7.5-7.5s-3.358-7.5-7.5-7.5H97.386c-14.787,0-26.816-12.029-26.816-26.815v-3.886    c0-14.787,12.03-26.816,26.816-26.816h317.23c14.787,0,26.816,12.029,26.816,26.816v3.886c0,14.786-12.03,26.815-26.816,26.815    h-85.615c-4.142,0-7.5,3.357-7.5,7.5s3.358,7.5,7.5,7.5h85.614l26.309,0.001c15.33,0,27.801,12.472,27.801,27.801v1.916    c0,15.045-12.016,27.329-26.954,27.779h-37.268c-4.142,0-7.5,3.357-7.5,7.5c0,4.143,3.358,7.5,7.5,7.5h35.996    c0.142,0.008,0.282,0.021,0.425,0.021l27.318,0.001c15.858,0,28.759,12.901,28.759,28.759S484.099,329.189,468.241,329.189z"/>
	</g>
</g>
<g>
</g>
<g>
</g>
<g>
</g>
<g>
</g>
<g>
</g>
<g>
</g>
<g>
</g>
<g>
</g>
<g>
</g>
<g>
</g>
<g>
</g>
<g>
</g>
<g>
</g>
<g>
</g>
<g>
</g>
</svg>
