<?xml version="1.0" encoding="iso-8859-1"?>
<!-- Generator: Adobe Illustrator 19.0.0, SVG Export Plug-In . SVG Version: 6.00 Build 0)  -->
<svg xmlns="http://www.w3.org/2000/svg" xmlns:xlink="http://www.w3.org/1999/xlink" version="1.1" id="Capa_1" x="0px" y="0px" viewBox="0 0 512 512" style="enable-background:new 0 0 512 512;" xml:space="preserve">
<g>
	<g>
		<path d="M101.325,310.89c-19.035,0-34.521,15.485-34.521,34.521s15.486,34.521,34.521,34.521    c19.035,0,34.521-15.485,34.521-34.521S120.359,310.89,101.325,310.89z M101.325,364.931c-10.764,0-19.521-8.757-19.521-19.521    c0-10.764,8.757-19.521,19.521-19.521s19.521,8.757,19.521,19.521C120.846,356.174,112.088,364.931,101.325,364.931z"/>
	</g>
</g>
<g>
	<g>
		<path d="M389.802,310.89c-19.035,0-34.521,15.485-34.521,34.521s15.485,34.521,34.521,34.521s34.521-15.485,34.521-34.521    S408.837,310.89,389.802,310.89z M389.802,364.931c-10.764,0-19.521-8.757-19.521-19.521c0-10.764,8.757-19.521,19.521-19.521    c10.764,0,19.521,8.757,19.521,19.521C409.323,356.174,400.565,364.931,389.802,364.931z"/>
	</g>
</g>
<g>
	<g>
		<path d="M465.795,104.528H295.427v35.014h-6.278V120.26c0-13.46-10.95-24.41-24.41-24.41v15c5.188,0,9.41,4.222,9.41,9.41v19.282    h-12.541v85.506H0V352.91h30.986c2.07,19.548,12.141,36.733,26.861,48.24H27.742v15h456.516v-15H433.28    c14.719-11.507,24.791-28.692,26.861-48.24H512v-43.746v-57.717v-24.093L465.795,104.528z M276.607,154.542h18.819v70.506h-18.819    V154.542z M15,337.91v-71.463h199.726v-15H15v-11.399h246.607h33.819v11.399h-64.55v15h64.55v71.463H171.663    c-3.758-35.492-33.866-63.24-70.338-63.24c-36.473,0-66.581,27.748-70.339,63.24H15z M101.324,401.15    c-30.735,0-55.74-25.004-55.74-55.74c0-30.735,25.005-55.74,55.74-55.74c30.735,0,55.74,25.005,55.74,55.74    S132.059,401.15,101.324,401.15z M144.803,401.15c14.719-11.507,24.791-28.692,26.86-48.24h123.764h15h9.036    c2.07,19.548,12.142,36.733,26.861,48.24H144.803z M389.802,401.15c-30.735,0-55.74-25.005-55.74-55.74s25.005-55.74,55.74-55.74    s55.74,25.005,55.74,55.74S420.537,401.15,389.802,401.15z M497,294.164h-12.658c-0.336,0-0.608-0.272-0.608-0.608v-26.5    c0-0.336,0.272-0.608,0.608-0.608H497V294.164z M497,251.447h-12.658v0c-8.606,0-15.608,7.002-15.608,15.608v26.5    c0,8.606,7.002,15.608,15.608,15.608H497v28.746h-36.859c-3.758-35.492-33.867-63.24-70.339-63.24s-66.581,27.748-70.339,63.24    h-9.036v-97.862v-15v-85.506v-20.014h144.985L497,230.083V251.447z"/>
	</g>
</g>
<g>
	<g>
		<path d="M441.514,134.081h-112.47v95.315h150.171L441.514,134.081z M344.044,149.081h87.272l25.834,65.315H344.044V149.081z"/>
	</g>
</g>
<g>
	<g>
		<rect x="320.16" y="241.13" width="29.643" height="15"/>
	</g>
</g>
<g>
</g>
<g>
</g>
<g>
</g>
<g>
</g>
<g>
</g>
<g>
</g>
<g>
</g>
<g>
</g>
<g>
</g>
<g>
</g>
<g>
</g>
<g>
</g>
<g>
</g>
<g>
</g>
<g>
</g>
</svg>
