<?xml version="1.0" encoding="iso-8859-1"?>
<!-- Generator: Adobe Illustrator 19.0.0, SVG Export Plug-In . SVG Version: 6.00 Build 0)  -->
<svg xmlns="http://www.w3.org/2000/svg" xmlns:xlink="http://www.w3.org/1999/xlink" version="1.1" id="Layer_1" x="0px" y="0px" viewBox="0 0 512.002 512.002" style="enable-background:new 0 0 512.002 512.002;" xml:space="preserve">
<g>
	<g>
		<path d="M230.506,425.839h-19.433c-4.137,0-7.491,3.354-7.491,7.491c0,4.138,3.354,7.491,7.491,7.491h19.433    c4.137,0,7.491-3.353,7.491-7.491C237.997,429.192,234.643,425.839,230.506,425.839z"/>
	</g>
</g>
<g>
	<g>
		<path d="M423.812,247.516h-160.32V86.443l36.824-37.768c2.888-2.962,2.828-7.704-0.134-10.592    c-2.963-2.889-7.705-2.829-10.593,0.135l-26.097,26.766V7.491c0-4.138-3.354-7.491-7.491-7.491c-4.137,0-7.491,3.353-7.491,7.491    v159.278l-29.036-48.282c-2.132-3.544-6.734-4.69-10.28-2.558c-3.545,2.132-4.691,6.734-2.559,10.279l41.875,69.629v51.679H88.19    c-6.363,0-11.539,5.176-11.539,11.539v32.793c0,5.678,4.125,10.399,9.533,11.353c0.124,8.866,0.545,18.158,1.266,27.712    c0.311,4.126,3.91,7.219,8.032,6.906c4.126-0.311,7.218-3.907,6.907-8.032c-0.687-9.106-1.096-17.961-1.224-26.4h303.221    c-0.376,25.239-3.265,53.59-8.603,84.392c-0.27,1.571-0.539,3.119-0.826,4.667c-0.005,0.028-0.01,0.058-0.015,0.086    c-0.055,0.309-0.567,3.131-0.845,4.605c-0.278,1.523-0.565,3.027-0.853,4.515c-0.381,1.978-2.834,13.322-5.245,24.189H261.883    c-4.137,0-7.491,3.353-7.491,7.491c0,4.137,3.354,7.491,7.491,7.491h122.732c-0.444,1.908-0.823,3.498-1.101,4.6    c-0.708,2.805,0.262,5.767,2.493,7.61c3.02,2.494,5.647,5.407,7.802,8.649c0.615,0.93,1.169,1.842,1.668,2.755    c0.159,0.287,0.32,0.579,0.489,0.912c0.329,0.637,0.645,1.281,0.935,1.923c0.593,1.316,1.106,2.648,1.54,4.002    c0.757,2.318,1.285,4.702,1.569,7.087c0.01,0.083,0.021,0.166,0.034,0.25l0.006,0.067c0.006,0.065,0.012,0.132,0.02,0.197    c0.147,1.299,0.225,2.626,0.232,3.946c0.002,0.442-0.002,0.885-0.017,1.328c-0.001,0.032-0.002,0.063-0.002,0.096    c-0.041,1.476-0.181,3.007-0.419,4.565c-0.177,1.174-0.412,2.367-0.69,3.512c-0.16,0.648-0.32,1.258-0.485,1.85    c-0.077,0.278-0.153,0.542-0.242,0.843c-0.142,0.491-0.284,0.953-0.421,1.383c-1.359,0.206-2.757,0.368-4.173,0.485    c-1.517,0.121-2.948,0.153-4.356,0.123c-0.023-0.001-0.046-0.001-0.069-0.001c-0.08-0.003-0.16-0.006-0.241-0.007l-0.779-0.035    c-0.114-0.008-0.226-0.015-0.338-0.02c-1.01-0.067-2.023-0.172-3.033-0.312c-0.773-0.114-1.431-0.228-2.01-0.35    c-0.051-0.01-0.101-0.021-0.152-0.029c-0.254-0.048-0.507-0.1-0.756-0.158c-0.144-0.038-0.289-0.072-0.435-0.102    c-0.145-0.03-0.29-0.064-0.499-0.119c-1.512-0.382-2.994-0.85-4.378-1.381c-0.214-0.083-0.428-0.166-0.635-0.254    c-0.057-0.024-0.115-0.049-0.173-0.071c-0.628-0.25-1.277-0.536-1.995-0.882c-10.159-4.864-17.742-13.858-20.805-24.676    c-0.913-3.224-3.856-5.45-7.207-5.45H159.557c-3.351,0-6.294,2.226-7.207,5.449c-5.073,17.91-22.164,29.807-40.645,28.276    c-1.403-0.116-2.82-0.281-4.182-0.487c-0.359-1.125-0.76-2.498-1.144-4.057c-3.58-14.605,1.459-29.665,13.15-39.303    c2.234-1.841,3.206-4.806,2.498-7.613c-0.37-1.465-0.752-3.004-1.145-4.601h58.208c4.137,0,7.491-3.353,7.491-7.491    c0-4.137-3.354-7.491-7.491-7.491h-61.733c-3.572-15.862-7.455-35.342-10.52-56.363c-0.596-4.094-4.393-6.919-8.493-6.332    c-4.094,0.597-6.928,4.4-6.331,8.493c4.225,28.982,9.97,55.077,14.397,73.066c-13.587,13.329-19.158,32.527-14.579,51.205    c0.636,2.587,1.387,5.09,2.233,7.439c1.376,3.834,4.716,6.684,8.72,7.439c2.465,0.463,5.052,0.809,7.689,1.026    c23.665,1.941,45.698-11.968,54.431-33.675h175.743c5.03,12.506,14.594,22.771,26.878,28.653c0.994,0.478,1.929,0.891,2.856,1.262    c0.331,0.139,0.671,0.273,1.034,0.414c1.964,0.754,4.018,1.404,6.04,1.913c0.32,0.084,0.64,0.162,0.96,0.231    c0.101,0.026,0.2,0.05,0.298,0.071c0.433,0.1,0.873,0.192,1.314,0.276c0.855,0.177,1.782,0.339,2.888,0.502    c1.463,0.203,2.855,0.345,4.256,0.436c0.035,0.002,0.126,0.007,0.161,0.009l0.109,0.007c0.157,0.01,0.316,0.02,0.553,0.029    l0.793,0.032c0.042,0.001,0.084,0.002,0.125,0.002c0.104,0.004,0.208,0.007,0.314,0.008c0.442,0.01,0.875,0.018,1.318,0.018    c1.457,0,2.974-0.062,4.526-0.187c2.642-0.217,5.232-0.563,7.66-1.019c1.498-0.273,2.908-0.833,4.192-1.664    c0.053-0.034,0.105-0.069,0.158-0.105c0.781-0.534,1.489-1.149,2.106-1.831c0.682-0.755,1.257-1.585,1.674-2.398    c0.265-0.504,0.447-0.958,0.576-1.295c0.023-0.06,0.045-0.122,0.067-0.182c0.363-1.029,0.843-2.43,1.326-4.102    c0.101-0.343,0.203-0.693,0.3-1.047c0.196-0.704,0.392-1.453,0.597-2.281c0.389-1.604,0.71-3.233,0.951-4.829    c0.333-2.178,0.529-4.352,0.585-6.464c0-0.019,0-0.037,0.001-0.056c0.018-0.602,0.024-1.203,0.021-1.799    c-0.01-1.821-0.116-3.656-0.316-5.456c-0.025-0.281-0.056-0.562-0.098-0.843c-0.404-3.311-1.139-6.613-2.173-9.777    c-0.592-1.849-1.31-3.715-2.138-5.554c-0.383-0.849-0.802-1.71-1.263-2.603c-0.236-0.462-0.48-0.915-0.701-1.311    c-0.675-1.233-1.446-2.506-2.299-3.796c-2.094-3.151-4.505-6.071-7.197-8.719c0.579-2.479,1.274-5.532,2.017-8.835    c0.206-0.576,0.348-1.181,0.407-1.812c2.734-12.203,5.935-26.97,6.43-29.541c0.297-1.53,0.592-3.086,0.873-4.619    c0.515-2.732,0.762-4.049,0.88-4.796c0.291-1.581,0.567-3.161,0.84-4.755c5.485-31.646,8.445-60.856,8.82-86.936h4.447    c6.363,0,11.539-5.176,11.539-11.539v-32.793C435.352,252.692,430.175,247.516,423.812,247.516z M420.371,288.406h-0.001h-10.331    H95.51h-3.878v-25.909h328.739V288.406z"/>
	</g>
</g>
<g>
	<g>
		<circle cx="348.751" cy="330.35" r="8.574"/>
	</g>
</g>
<g>
	<g>
		<circle cx="147.141" cy="370.56" r="8.574"/>
	</g>
</g>
<g>
	<g>
		<circle cx="171.111" cy="394.53" r="8.574"/>
	</g>
</g>
<g>
</g>
<g>
</g>
<g>
</g>
<g>
</g>
<g>
</g>
<g>
</g>
<g>
</g>
<g>
</g>
<g>
</g>
<g>
</g>
<g>
</g>
<g>
</g>
<g>
</g>
<g>
</g>
<g>
</g>
</svg>
