<?xml version="1.0" encoding="iso-8859-1"?>
<!-- Generator: Adobe Illustrator 19.0.0, SVG Export Plug-In . SVG Version: 6.00 Build 0)  -->
<svg xmlns="http://www.w3.org/2000/svg" xmlns:xlink="http://www.w3.org/1999/xlink" version="1.1" id="Capa_1" x="0px" y="0px" viewBox="0 0 512 512" style="enable-background:new 0 0 512 512;" xml:space="preserve">
<g>
	<g>
		<path d="M472.981,0.583C472.577,0.56,462.875,0,446.195,0C411.229,0,341.39,2.554,266.49,19.649    C175.129,40.502,103.601,76.281,53.894,125.988L31.965,147.92l29.527-9.502c0.305-0.098,31.256-9.925,97.12-19.627    c59.771-8.804,161.129-19.269,306.438-19.619v3.841L336.221,245.525v62.037h-43.869v43.414h10.655V512h81.415V350.975h10.654    v-43.414h-43.869v-56.266l128.828-142.514v-9.62V8.056V0.999L472.981,0.583z M369.435,364.618h-24.615v14.986h24.615v19.602    h-24.615v14.986h24.615v19.602h-24.615v14.986h24.615v19.602h-24.615v14.986h24.615v13.643h-51.442V350.975h51.442V364.618z     M380.09,322.548v13.441h-72.751v-13.441H380.09z M465.05,84.184c-146.627,0.352-248.95,10.959-309.302,19.881    c-30.134,4.455-52.932,8.893-68.999,12.462c2.277-1.853,4.59-3.661,6.917-5.448C160.32,88.199,231.74,84.135,314.368,79.441    c12.729-0.723,25.893-1.471,39.336-2.303l-0.926-14.957c-13.405,0.829-26.549,1.576-39.259,2.298    c-65.167,3.702-123.453,7.021-178.436,19.406c108.871-61.125,247.823-68.898,311.111-68.898c8.014,0,14.417,0.136,18.854,0.273    V58.39c-11.507,0.094-24.118,0.348-35.519,0.578c-3.697,0.075-7.261,0.147-10.612,0.21l0.282,14.984    c3.358-0.063,6.931-0.136,10.634-0.211c11.317-0.229,23.831-0.481,35.216-0.574V84.184z"/>
	</g>
</g>
<g>
	<g>
		<path d="M406.897,59.18c-15.664,0.408-31.084,0.976-45.832,1.691l0.726,14.968c14.637-0.709,29.944-1.274,45.496-1.679    L406.897,59.18z"/>
	</g>
</g>
<g>
</g>
<g>
</g>
<g>
</g>
<g>
</g>
<g>
</g>
<g>
</g>
<g>
</g>
<g>
</g>
<g>
</g>
<g>
</g>
<g>
</g>
<g>
</g>
<g>
</g>
<g>
</g>
<g>
</g>
</svg>
