<?xml version="1.0" encoding="iso-8859-1"?>
<!-- Generator: Adobe Illustrator 19.0.0, SVG Export Plug-In . SVG Version: 6.00 Build 0)  -->
<svg xmlns="http://www.w3.org/2000/svg" xmlns:xlink="http://www.w3.org/1999/xlink" version="1.1" id="Layer_1" x="0px" y="0px" viewBox="0 0 512 512" style="enable-background:new 0 0 512 512;" xml:space="preserve">
<g>
	<g>
		<circle cx="175.985" cy="290.104" r="13.685"/>
	</g>
</g>
<g>
	<g>
		<circle cx="336.324" cy="290.104" r="13.685"/>
	</g>
</g>
<g>
	<g>
		<path d="M511.987,234.43c-0.214-5.518-2.93-10.508-7.449-13.688l-70.434-49.551c1.057-4.612,1.635-9.404,1.635-14.332    c0-35.37-28.776-64.146-64.146-64.146c-2.222,0-4.445,0.115-6.654,0.343c-10.515-22.185-33.09-36.702-57.987-36.702    c-20.378,0-38.967,9.379-50.95,25.124c-11.983-15.746-30.572-25.124-50.95-25.124c-24.897,0-47.472,14.517-57.987,36.702    c-2.209-0.228-4.433-0.343-6.654-0.343c-35.37,0-64.146,28.776-64.146,64.146c0,4.928,0.577,9.72,1.635,14.332l-14.096,9.916    c-3.389,2.385-4.204,7.065-1.819,10.454c2.384,3.388,7.065,4.205,10.453,1.82l10.761-7.57    c8.292,16.318,23.347,28.641,41.463,33.231c-12.451,30.665-46.974,45.944-79.367,34.822c-12.875-4.421-23.052-11.53-29.323-16.716    c-0.881-0.729-0.98-1.651-0.962-2.135c0.019-0.473,0.185-1.362,1.089-1.998l22.4-15.758c3.389-2.384,4.204-7.065,1.819-10.454    c-2.383-3.387-7.061-4.204-10.453-1.82l-22.401,15.76c-4.519,3.18-7.234,8.169-7.448,13.688    c-0.216,5.538,2.115,10.745,6.394,14.283c7.231,5.981,19.001,14.19,34.013,19.344c8.534,2.93,17.356,4.388,26.144,4.388    c0.073,0,0.145-0.006,0.217-0.006c-0.224,3.436-0.348,6.897-0.348,10.385c0,95.294,83.461,172.822,186.049,172.822    c58.074,0,111.766-24.508,147.309-67.241c2.65-3.185,2.216-7.916-0.97-10.567c-3.185-2.649-7.917-2.215-10.567,0.97    c-32.684,39.294-82.171,61.83-135.773,61.83c-94.312,0-171.042-70.796-171.042-157.815c0-4.007,0.177-7.976,0.499-11.908    c5.87-1.161,11.635-2.97,17.186-5.468c18.737-8.431,33.004-23.554,40.175-42.587c0.233-0.619,0.433-1.245,0.648-1.868    c0.154,0.001,0.307,0.012,0.461,0.012c2.222,0,4.445-0.115,6.654-0.344c10.515,22.184,33.09,36.702,57.987,36.702    c20.378,0,38.967-9.379,50.95-25.124c11.983,15.746,30.572,25.124,50.95,25.124c24.897,0,47.472-14.517,57.987-36.702    c2.209,0.229,4.433,0.344,6.654,0.344c0.147,0,0.291-0.01,0.438-0.011c0.216,0.624,0.438,1.247,0.672,1.868    c7.171,19.032,21.439,34.157,40.175,42.586c3.262,1.468,6.604,2.679,9.991,3.686c0.423,4.514,0.655,9.077,0.655,13.691    c0,22.12-4.862,43.514-14.451,63.583c-1.786,3.74-0.203,8.219,3.535,10.004c3.74,1.786,8.22,0.203,10.005-3.536    c10.563-22.106,15.917-45.676,15.917-70.053c0-3.606-0.126-7.184-0.364-10.735c2.417,0.223,4.842,0.355,7.272,0.355    c8.787,0,17.612-1.459,26.144-4.388c15.011-5.154,26.782-13.365,34.012-19.344C509.871,245.175,512.202,239.969,511.987,234.43z     M371.591,205.998c-3.304,0-6.612-0.331-9.832-0.984c-3.654-0.743-7.293,1.311-8.554,4.816    c-6.989,19.455-25.578,32.527-46.255,32.527c-18.957,0-35.895-10.598-44.204-27.658c-1.258-2.58-3.876-4.218-6.746-4.218    s-5.488,1.638-6.746,4.218c-8.309,17.06-25.246,27.658-44.204,27.658c-20.677,0-39.266-13.072-46.255-32.527    c-1.26-3.507-4.908-5.558-8.554-4.816c-3.221,0.653-6.528,0.984-9.832,0.984c-27.096,0-49.14-22.044-49.14-49.14    s22.044-49.14,49.14-49.14c3.305,0,6.613,0.331,9.832,0.984c3.652,0.74,7.293-1.311,8.554-4.816    c6.989-19.455,25.578-32.527,46.255-32.527c18.957,0,35.895,10.598,44.204,27.658c1.258,2.58,3.876,4.218,6.746,4.218    s5.488-1.638,6.746-4.218c8.309-17.06,25.246-27.658,44.204-27.658c20.677,0,39.266,13.072,46.255,32.527    c1.26,3.505,4.908,5.556,8.554,4.816c3.219-0.653,6.527-0.984,9.832-0.984c27.096,0,49.14,22.044,49.14,49.14    S398.686,205.998,371.591,205.998z M496.028,237.15c-6.27,5.185-16.445,12.294-29.322,16.715    c-7.157,2.458-14.415,3.627-21.521,3.627c-25.054-0.002-48.156-14.555-57.855-38.446c18.12-4.589,33.178-16.913,41.472-33.234    l67.098,47.204c0.905,0.637,1.071,1.526,1.09,1.999C497.01,235.498,496.91,236.42,496.028,237.15z"/>
	</g>
</g>
<g>
</g>
<g>
</g>
<g>
</g>
<g>
</g>
<g>
</g>
<g>
</g>
<g>
</g>
<g>
</g>
<g>
</g>
<g>
</g>
<g>
</g>
<g>
</g>
<g>
</g>
<g>
</g>
<g>
</g>
</svg>
