<?xml version="1.0" encoding="iso-8859-1"?>
<!-- Generator: Adobe Illustrator 19.0.0, SVG Export Plug-In . SVG Version: 6.00 Build 0)  -->
<svg xmlns="http://www.w3.org/2000/svg" xmlns:xlink="http://www.w3.org/1999/xlink" version="1.1" id="Capa_1" x="0px" y="0px" viewBox="0 0 512 512" style="enable-background:new 0 0 512 512;" xml:space="preserve">
<g>
	<g>
		<path d="M474.083,497V380.941v-35.389l9.267,1.982l3.137-14.668l-234.41-50.125V110.955C252.076,49.774,202.302,0,141.121,0    S30.166,49.774,30.166,110.955V497H7.5v15h22.666h206.91h15h121.518h100.489H504.5v-15H474.083z M141.121,15    c50.386,0,91.825,39.037,95.663,88.455h-20.889h-70.637h-99.8C49.296,54.037,90.735,15,141.121,15z M160.259,324.939v-29.297    h40.637v29.297H160.259z M200.896,339.939v29.297h-40.637v-29.297H200.896z M160.259,280.643v-29.297h40.637v29.297H160.259z     M160.259,236.346v-29.297h40.637v29.297H160.259z M160.259,192.049v-29.297h40.637v29.297H160.259z M160.259,147.752v-29.297    h40.637v29.297H160.259z M237.077,279.513V497H45.166V118.455h100.093v29.297v15v29.297v15v29.297v15v29.297v15v29.297v15v29.297    v15v36.797h15v-36.797h40.637v36.797h15v-36.797v-15V339.94v-15v-29.297v-15v-29.297v-15v-29.297v-15v-29.297v-15v-29.297h21.181    V279.513z M459.083,497h-70.489v-8.529h70.489V497z M459.083,473.471h-70.489v-8h70.489V473.471z M459.083,450.471h-70.489v-8    h70.489V450.471z M459.083,427.471h-70.489v-8h70.489V427.471z M459.083,404.471h-70.489v-8.529h70.489V404.471z M459.083,380.942    h-85.489V497H252.076V323.307l207.007,43.333V380.942z M459.083,351.315l-207.007-43.333v-9.881l207.007,44.728V351.315z"/>
	</g>
</g>
<g>
	<g>
		<path d="M141.121,49.43c-10.552,0-19.137,8.585-19.137,19.137c0,10.553,8.585,19.138,19.137,19.138    c10.553,0,19.138-8.585,19.138-19.138C160.259,58.015,151.674,49.43,141.121,49.43z M141.121,72.706    c-2.282,0-4.137-1.856-4.137-4.138s1.856-4.137,4.137-4.137s4.138,1.855,4.138,4.137S143.403,72.706,141.121,72.706z"/>
	</g>
</g>
<g>
	<g>
		<path d="M286.094,356.463v47.031h47.031v-47.031H286.094z M318.125,388.494h-17.031v-17.031h17.031V388.494z"/>
	</g>
</g>
<g>
	<g>
		<rect x="53.37" y="343.77" width="15" height="88.973"/>
	</g>
</g>
<g>
	<g>
		<rect x="53.37" y="443.24" width="15" height="21.651"/>
	</g>
</g>
<g>
</g>
<g>
</g>
<g>
</g>
<g>
</g>
<g>
</g>
<g>
</g>
<g>
</g>
<g>
</g>
<g>
</g>
<g>
</g>
<g>
</g>
<g>
</g>
<g>
</g>
<g>
</g>
<g>
</g>
</svg>
