<?xml version="1.0" encoding="iso-8859-1"?>
<!-- Generator: Adobe Illustrator 19.0.0, SVG Export Plug-In . SVG Version: 6.00 Build 0)  -->
<svg xmlns="http://www.w3.org/2000/svg" xmlns:xlink="http://www.w3.org/1999/xlink" version="1.1" id="Layer_1" x="0px" y="0px" viewBox="0 0 512.002 512.002" style="enable-background:new 0 0 512.002 512.002;" xml:space="preserve">
<g>
	<g>
		<path d="M427.582,275.106h-21.248c-4.137,0-7.489,3.353-7.489,7.489c0,4.136,3.353,7.489,7.489,7.489h21.248    c4.137,0,7.489-3.353,7.489-7.489C435.071,278.459,431.719,275.106,427.582,275.106z"/>
	</g>
</g>
<g>
	<g>
		<path d="M389.528,333.796h-19.05c-4.137,0-7.489,3.353-7.489,7.489c0,4.136,3.352,7.489,7.489,7.489h19.05    c4.137,0,7.489-3.353,7.489-7.489S393.664,333.796,389.528,333.796z"/>
	</g>
</g>
<g>
	<g>
		<path d="M371.21,403.489h-19.049c-4.137,0-7.489,3.353-7.489,7.489c0,4.136,3.353,7.489,7.489,7.489h19.049    c4.137,0,7.489-3.353,7.489-7.489C378.699,406.842,375.347,403.489,371.21,403.489z"/>
	</g>
</g>
<g>
	<g>
		<path d="M411.813,454.708h-19.05c-4.137,0-7.489,3.353-7.489,7.489c0,4.136,3.353,7.489,7.489,7.489h19.05    c4.137,0,7.489-3.353,7.489-7.489C419.302,458.061,415.95,454.708,411.813,454.708z"/>
	</g>
</g>
<g>
	<g>
		<path d="M463.934,183.87c-12.399-13.098-30.755-21.166-53.654-23.713c1.751-17.023,9.43-61.416,42.392-78.573    c3.669-1.91,5.095-6.432,3.185-10.101c-1.909-3.669-6.432-5.094-10.101-3.185c-29.708,15.464-42.106,47.503-47.274,70.833v-69.08    c0-4.136-3.353-7.489-7.489-7.489c-4.136,0-7.489,3.353-7.489,7.489v73.558c-4.542-23.527-16.539-58.83-48.2-75.311    c-3.668-1.908-8.192-0.484-10.101,3.185c-1.91,3.669-0.484,8.191,3.185,10.101c33.476,17.426,40.883,63.218,42.474,79.507    c-6.877,1.137-13.28,2.824-19.197,5.017c-3.447-10.53-8.919-19.85-16.321-27.669c-14.189-14.989-35.325-24.147-61.762-26.903    c1.84-18.813,10.407-71.635,49.164-91.809c3.668-1.91,5.095-6.432,3.185-10.101c-1.909-3.67-6.433-5.093-10.101-3.185    c-38.681,20.135-51.451,65.173-55.658,91.475V7.489c0-4.136-3.353-7.489-7.489-7.489c-4.136,0-7.489,3.353-7.489,7.489v98.021    c-2.874-24.191-13.983-76.825-56.717-99.07c-3.668-1.907-8.191-0.485-10.101,3.185c-1.91,3.669-0.484,8.191,3.185,10.101    c39.459,20.54,47.624,74.919,49.258,92.796c-22.892,3.611-41.356,12.39-54.16,25.916c-7.399,7.816-12.87,17.133-16.317,27.658    c-7.78-2.884-16.411-4.888-25.833-5.937c1.779-17.038,9.521-61.472,42.38-78.576c3.669-1.91,5.095-6.433,3.185-10.101    c-1.909-3.669-6.433-5.094-10.101-3.185c-29.708,15.464-42.106,47.505-47.274,70.835V70.051c0-4.136-3.353-7.489-7.489-7.489    s-7.489,3.353-7.489,7.489v73.558c-4.542-23.527-16.539-58.83-48.2-75.311c-3.668-1.908-8.191-0.484-10.101,3.185    c-1.91,3.669-0.484,8.191,3.185,10.101c33.476,17.426,40.883,63.218,42.474,79.507c-19.811,3.275-35.837,10.977-47.008,22.779    c-13.115,13.855-19.398,33.005-18.17,55.377c0.032,0.572,0.206,4.532,0.415,9.28c0.554,12.575,0.796,17.949,0.854,18.675    l3.272,40.202c0.335,4.121,3.93,7.2,8.072,6.857c4.123-0.335,7.193-3.949,6.857-8.072l-3.269-40.154    c-0.062-0.919-0.474-10.233-0.773-17.034h17.125c4.137,0,7.489-3.353,7.489-7.489c0-4.136-3.353-7.489-7.489-7.489H44.746    c-0.034-16.232,4.827-29.949,14.204-39.855c12.329-13.025,32.781-19.909,59.181-19.909c15.01,0,28.081,2.252,38.848,6.579    c-0.904,6.407-1.196,13.134-0.81,20.155c0.036,0.662,0.24,5.282,0.483,10.792c0.628,14.258,0.902,20.349,0.967,21.157    l9.077,111.517c1.449,23.78,4.901,44.306,9.634,62.004c-5.458,24.482-14.329,45.219-26.585,61.882    c-12.999,17.675-26.104,25.524-31.632,28.266c-5.53-2.743-18.634-10.593-31.632-28.266    c-18.857-25.64-29.768-60.852-32.429-104.657c-0.003-0.051-0.007-0.103-0.011-0.154l-1.157-14.202    c-0.335-4.122-3.951-7.191-8.072-6.856c-4.123,0.335-7.193,3.95-6.857,8.072l1.151,14.123    c6.763,110.903,63.264,141.394,74.526,146.381c1.387,0.613,2.863,0.932,4.462,0.948c0.025,0,0.087,0,0.112,0    c1.524-0.015,3.001-0.334,4.389-0.948c8.524-3.775,42.974-22.175,62.145-79.008c22.257,56.168,57.461,74.93,66.577,78.967    c1.45,0.64,2.993,0.973,4.664,0.99c0.026,0,0.096,0,0.122,0c1.592-0.017,3.135-0.35,4.593-0.993    c9.112-4.035,44.321-22.801,66.577-78.984c19.17,56.837,53.613,75.254,62.139,79.03c1.387,0.613,2.863,0.932,4.462,0.948    c0.025,0,0.087,0,0.112,0c1.524-0.015,3.001-0.334,4.389-0.948c11.26-4.986,67.761-35.474,74.524-146.378l7.934-97.47    c0.059-0.726,0.3-6.101,0.854-18.676c0.21-4.748,0.383-8.708,0.414-9.278C483.332,216.875,477.049,197.726,463.934,183.87z     M467.147,238.43c-0.031,0.582-0.21,4.609-0.422,9.437c-0.301,6.848-0.758,17.197-0.82,18.12l-7.94,97.548    c-0.004,0.051-0.008,0.102-0.011,0.154c-2.66,43.805-13.571,79.017-32.429,104.657c-12.999,17.675-26.104,25.524-31.632,28.266    c-5.53-2.743-18.634-10.593-31.632-28.266c-12.254-16.662-21.132-37.39-26.587-61.871c4.734-17.7,8.188-38.23,9.637-62.015    l7.587-93.213c0.335-4.122-2.734-7.736-6.857-8.072c-4.115-0.346-7.737,2.733-8.072,6.857l-7.592,93.29    c-0.004,0.051-0.008,0.102-0.011,0.154c-3.057,50.324-15.608,90.799-37.306,120.302c-15.389,20.923-30.95,29.944-37.056,32.898    c-6.115-2.959-21.672-11.981-37.056-32.898c-21.698-29.503-34.249-69.978-37.306-120.302c-0.003-0.051-0.007-0.102-0.011-0.154    l-9.08-111.555c-0.073-1.064-0.593-12.841-0.936-20.638h20.719c4.137,0,7.489-3.353,7.489-7.489s-3.353-7.489-7.489-7.489h-21.347    c-0.264-19.324,5.419-35.655,16.552-47.415c14.313-15.121,37.98-23.112,68.486-23.112c30.463,0,54.129,7.992,68.443,23.112    c5.168,5.46,9.159,11.907,11.929,19.178c-1.321-1.168-3.051-1.882-4.953-1.882h-24.308c-4.137,0-7.489,3.353-7.489,7.489    s3.353,7.489,7.489,7.489h24.308c3.519,0,6.463-2.43,7.265-5.701c1.915,7.6,2.664,15.928,2.174,24.854    c-0.03,0.546-0.172,3.734-0.356,7.908c-0.183,4.132,3.019,7.63,7.151,7.812c4.118,0.184,7.63-3.019,7.812-7.151    c0.18-4.08,0.318-7.198,0.348-7.74c0.386-7.026,0.094-13.758-0.812-20.169c10.765-4.325,23.845-6.564,38.85-6.564h0.037    c26.363,0,46.815,6.884,59.144,19.909c3.825,4.041,6.9,8.715,9.2,13.934c-0.759-0.259-1.57-0.406-2.417-0.406h-21.248    c-4.137,0-7.489,3.353-7.489,7.489s3.353,7.489,7.489,7.489h21.248c2.483,0,4.678-1.214,6.04-3.074    C467.079,225.434,467.515,231.736,467.147,238.43z"/>
	</g>
</g>
<g>
	<g>
		<path d="M151.801,275.106h-21.247c-4.137,0-7.489,3.353-7.489,7.489c0,4.136,3.353,7.489,7.489,7.489h21.247    c4.137,0,7.489-3.353,7.489-7.489C159.29,278.459,155.937,275.106,151.801,275.106z"/>
	</g>
</g>
<g>
	<g>
		<path d="M113.747,333.795h-19.05c-4.137,0-7.489,3.353-7.489,7.489s3.353,7.489,7.489,7.489h19.05    c4.137,0,7.489-3.353,7.489-7.489C121.236,337.148,117.884,333.795,113.747,333.795z"/>
	</g>
</g>
<g>
	<g>
		<path d="M95.428,403.489H76.379c-4.136,0-7.489,3.353-7.489,7.489s3.353,7.489,7.489,7.489h19.049    c4.137,0,7.489-3.353,7.489-7.489C102.917,406.842,99.564,403.489,95.428,403.489z"/>
	</g>
</g>
<g>
	<g>
		<path d="M136.031,454.708h-19.05c-4.136,0-7.489,3.353-7.489,7.489s3.353,7.489,7.489,7.489h19.05    c4.137,0,7.489-3.353,7.489-7.489C143.52,458.061,140.167,454.708,136.031,454.708z"/>
	</g>
</g>
<g>
	<g>
		<path d="M294.543,243.15h-24.307c-4.137,0-7.489,3.353-7.489,7.489s3.353,7.489,7.489,7.489h24.307    c4.137,0,7.489-3.353,7.489-7.489S298.68,243.15,294.543,243.15z"/>
	</g>
</g>
<g>
	<g>
		<path d="M251.009,310.291h-21.794c-4.137,0-7.489,3.353-7.489,7.489s3.353,7.489,7.489,7.489h21.794    c4.137,0,7.489-3.353,7.489-7.489C258.498,313.644,255.145,310.291,251.009,310.291z"/>
	</g>
</g>
<g>
	<g>
		<path d="M230.054,390.021H208.26c-4.137,0-7.489,3.353-7.489,7.489c0,4.136,3.353,7.489,7.489,7.489h21.794    c4.137,0,7.489-3.353,7.489-7.489C237.543,393.374,234.19,390.021,230.054,390.021z"/>
	</g>
</g>
<g>
	<g>
		<path d="M276.503,448.615h-21.794c-4.137,0-7.489,3.353-7.489,7.489c0,4.136,3.353,7.489,7.489,7.489h21.794    c4.137,0,7.489-3.353,7.489-7.489C283.992,451.968,280.64,448.615,276.503,448.615z"/>
	</g>
</g>
<g>
</g>
<g>
</g>
<g>
</g>
<g>
</g>
<g>
</g>
<g>
</g>
<g>
</g>
<g>
</g>
<g>
</g>
<g>
</g>
<g>
</g>
<g>
</g>
<g>
</g>
<g>
</g>
<g>
</g>
</svg>
