<?xml version="1.0" encoding="iso-8859-1"?>
<!-- Generator: Adobe Illustrator 19.0.0, SVG Export Plug-In . SVG Version: 6.00 Build 0)  -->
<svg xmlns="http://www.w3.org/2000/svg" xmlns:xlink="http://www.w3.org/1999/xlink" version="1.1" id="Capa_1" x="0px" y="0px" viewBox="0 0 511.999 511.999" style="enable-background:new 0 0 511.999 511.999;" xml:space="preserve">
<g>
	<g>
		<path d="M504.988,99.732c-4.521-4.521-10.533-7.011-16.927-7.011c-6.394,0-12.405,2.49-16.927,7.011l-56.16,56.161    c-1.67,1.67-3.891,2.59-6.254,2.59s-4.584-0.92-6.253-2.59c-3.449-3.448-3.449-9.059,0-12.507l56.162-56.161    c9.331-9.333,9.331-24.52-0.001-33.854c-4.521-4.521-10.533-7.011-16.926-7.011c-6.393,0-12.405,2.49-16.927,7.011l-56.162,56.162    c-1.669,1.67-3.89,2.59-6.253,2.59c-2.362,0-4.583-0.92-6.253-2.59c-1.669-1.67-2.59-3.89-2.59-6.253    c0-2.362,0.921-4.583,2.591-6.253l56.16-56.161c4.522-4.521,7.012-10.533,7.012-16.927s-2.49-12.406-7.011-16.926    C407.745,2.491,401.734,0,395.34,0c-6.394,0-12.405,2.491-16.926,7.012l-78.436,78.436c-15.259,15.26-15.259,40.087,0,55.346    l5.483,5.484c1.669,1.67,2.589,3.89,2.589,6.253c0,2.362-0.92,4.583-2.59,6.253l-34.081,34.082l6.951,6.951L46.874,431.271    l-17.945-17.945L0,442.256l69.743,69.743l28.93-28.929l-17.945-17.946l231.454-231.455l6.951,6.951l34.083-34.082    c1.669-1.67,3.89-2.59,6.253-2.59c2.362,0,4.583,0.92,6.252,2.59l5.483,5.483c7.392,7.392,17.22,11.463,27.674,11.463    c10.453,0,20.281-4.071,27.673-11.463l78.435-78.436c4.522-4.521,7.013-10.533,7.013-16.927    C512,110.265,509.509,104.254,504.988,99.732z M69.743,490.652l-48.396-48.396l7.583-7.583l48.396,48.396L69.743,490.652z     M70.055,454.451l-12.507-12.507L289.003,210.49l12.506,12.506L70.055,454.451z M494.313,122.913l-78.436,78.436    c-4.54,4.54-10.578,7.042-17,7.042s-12.459-2.501-17-7.042l-5.483-5.483c-4.521-4.521-10.533-7.011-16.926-7.011    c-0.001,0,0,0-0.001,0c-6.394,0-12.405,2.491-16.926,7.011l-23.409,23.409l-26.408-26.408l23.407-23.408    c4.522-4.521,7.012-10.533,7.012-16.927c0-6.394-2.49-12.406-7.011-16.926l-5.482-5.484c-9.374-9.374-9.374-24.626,0-34    l78.436-78.436c1.669-1.67,3.89-2.59,6.252-2.59c2.363,0,4.584,0.92,6.254,2.591c1.669,1.67,2.589,3.89,2.589,6.253    c0,2.362-0.92,4.583-2.59,6.253l-56.161,56.161c-4.521,4.521-7.012,10.533-7.012,16.927c0,6.394,2.491,12.406,7.012,16.927    s10.533,7.011,16.926,7.011c6.394,0,12.406-2.49,16.927-7.011l56.161-56.161c1.67-1.67,3.891-2.59,6.254-2.59    s4.583,0.92,6.253,2.59c3.449,3.448,3.449,9.059,0,12.506l-56.162,56.162c-9.332,9.334-9.332,24.52,0.001,33.854    c4.521,4.521,10.533,7.011,16.926,7.011s12.405-2.49,16.927-7.011l56.16-56.161c1.67-1.67,3.891-2.59,6.254-2.59    s4.584,0.92,6.253,2.59c1.67,1.67,2.591,3.891,2.591,6.253C496.905,119.022,495.985,121.242,494.313,122.913z"/>
	</g>
</g>
<g>
</g>
<g>
</g>
<g>
</g>
<g>
</g>
<g>
</g>
<g>
</g>
<g>
</g>
<g>
</g>
<g>
</g>
<g>
</g>
<g>
</g>
<g>
</g>
<g>
</g>
<g>
</g>
<g>
</g>
</svg>
