<?xml version="1.0" encoding="iso-8859-1"?>
<!-- Generator: Adobe Illustrator 19.0.0, SVG Export Plug-In . SVG Version: 6.00 Build 0)  -->
<svg xmlns="http://www.w3.org/2000/svg" xmlns:xlink="http://www.w3.org/1999/xlink" version="1.1" id="Layer_1" x="0px" y="0px" viewBox="0 0 512 512" style="enable-background:new 0 0 512 512;" xml:space="preserve">
<g>
	<g>
		<path d="M489.966,276.668c12.149,0,22.034-9.885,22.034-22.034v-94.768c0-12.15-9.885-22.034-22.034-22.034h-8.157V93.243    c0-7.051-5.736-12.787-12.788-12.787h-49.627c-7.051,0-12.788,5.736-12.788,12.787v44.588H167.519    c-4.134,0-7.486,3.352-7.486,7.486c0,4.134,3.352,7.486,7.486,7.486h322.447c3.894,0,7.062,3.168,7.062,7.062v94.768    c0,3.894-3.168,7.062-7.062,7.062H22.034c-3.894,0-7.062-3.168-7.062-7.062v-94.768c0-3.894,3.168-7.062,7.062-7.062h102.232    c4.134,0,7.486-3.352,7.486-7.486c0-4.134-3.352-7.486-7.486-7.486h-18.874V93.243c0-7.051-5.736-12.787-12.788-12.787H42.977    c-7.051,0-12.787,5.736-12.787,12.787v44.588h-8.156C9.885,137.832,0,147.717,0,159.866v94.768    c0,12.15,9.885,22.034,22.034,22.034h8.156v16.039h-8.156C9.885,292.707,0,302.592,0,314.741v94.768    c0,12.15,9.885,22.034,22.034,22.034h467.932c12.149,0,22.034-9.885,22.034-22.034v-94.768c0-12.15-9.885-22.034-22.034-22.034    h-8.157v-16.039H489.966z M466.838,137.832H421.58V95.428h45.258V137.832z M45.162,95.428H90.42v42.403H45.162V95.428z     M421.58,276.668h45.258v16.039H421.58V276.668z M45.162,276.668H90.42v16.039H45.162V276.668z M489.966,307.679    c3.894,0,7.062,3.168,7.062,7.062v94.768c0,3.894-3.168,7.062-7.062,7.062H22.034c-3.894,0-7.062-3.168-7.062-7.062v-94.768    c0-3.894,3.168-7.062,7.062-7.062h325.813c4.135,0,7.486-3.352,7.486-7.486c0-4.134-3.351-7.486-7.486-7.486H105.392v-16.039    h301.216v16.039h-20.166c-4.135,0-7.486,3.352-7.486,7.486c0,4.134,3.351,7.486,7.486,7.486H489.966z"/>
	</g>
</g>
<g>
	<g>
		<circle cx="67.791" cy="207.25" r="8.569"/>
	</g>
</g>
<g>
	<g>
		<circle cx="67.791" cy="362.12" r="8.569"/>
	</g>
</g>
<g>
	<g>
		<circle cx="444.21" cy="207.25" r="8.569"/>
	</g>
</g>
<g>
	<g>
		<circle cx="444.21" cy="362.12" r="8.569"/>
	</g>
</g>
<g>
</g>
<g>
</g>
<g>
</g>
<g>
</g>
<g>
</g>
<g>
</g>
<g>
</g>
<g>
</g>
<g>
</g>
<g>
</g>
<g>
</g>
<g>
</g>
<g>
</g>
<g>
</g>
<g>
</g>
</svg>
