<?xml version="1.0" encoding="iso-8859-1"?>
<!-- Generator: Adobe Illustrator 19.0.0, SVG Export Plug-In . SVG Version: 6.00 Build 0)  -->
<svg xmlns="http://www.w3.org/2000/svg" xmlns:xlink="http://www.w3.org/1999/xlink" version="1.1" id="Layer_1" x="0px" y="0px" viewBox="0 0 512 512" style="enable-background:new 0 0 512 512;" xml:space="preserve">
<g>
	<g>
		<circle cx="150.13" cy="282.29" r="8.565"/>
	</g>
</g>
<g>
	<g>
		<circle cx="62.29" cy="434.85" r="8.565"/>
	</g>
</g>
<g>
	<g>
		<circle cx="86.23" cy="458.8" r="8.565"/>
	</g>
</g>
<g>
	<g>
		<path d="M494.991,21.981c-3.254-2.231-8.629-5.668-15.751-9.374C447.3-4.01,410.476-4.208,378.212,12.06    c-26.291,13.258-45.585,35.454-54.874,62.459c-6.62-23.223-17.146-39.002-31.493-47.105c-3.598-2.034-8.163-0.763-10.195,2.835    c-2.032,3.599-0.763,8.163,2.835,10.195c27.009,15.254,32.741,70.58,32.221,113.007c-48.876,2.716-87.807,43.333-87.807,92.876    c0,5.37,0.463,10.737,1.378,16.01c-7.664,6.5-14.528,13.705-20.541,21.479c-2.288-38.242-31.888-69.23-69.518-73.688    c0.066-5.533,0.011-11.469-0.229-17.613c1.264,0.711,2.607,1.444,4.045,2.192c5.159,2.684,10.555,4.895,16.038,6.572    c3.953,1.209,8.135-1.015,9.344-4.967c1.209-3.952-1.015-8.135-4.967-9.344c-4.612-1.411-9.157-3.274-13.508-5.537    c-4.622-2.405-8.249-4.657-10.595-6.21c0.146-2.811,0.492-7.066,1.305-12.208c4.007-25.324,19.491-46.497,42.481-58.091    c22.99-11.593,49.22-11.455,71.965,0.379c4.568,2.377,8.148,4.585,10.595,6.207c-0.151,2.936-0.503,7.127-1.308,12.212    c-5.172,32.676-30.613,58.882-63.309,65.211c-4.057,0.785-6.71,4.711-5.924,8.768c0.692,3.577,3.826,6.062,7.338,6.062    c0.472,0,0.95-0.045,1.43-0.138c18.648-3.61,35.602-12.6,49.03-25.999c14.027-13.996,23.092-31.827,26.216-51.566    c1.062-6.709,1.426-12.095,1.544-15.432c0.151-4.268-1.869-8.264-5.404-10.687c-2.749-1.884-7.288-4.788-13.301-7.916    c-27.066-14.083-58.269-14.251-85.61-0.465c-21.148,10.664-36.949,28.156-45.232,49.478    c-5.675-17.836-14.312-30.094-25.847-36.609c-3.597-2.031-8.163-0.763-10.195,2.835c-2.032,3.599-0.763,8.163,2.835,10.195    c21.897,12.368,26.696,57.297,26.352,92.315c-40.987,2.867-73.464,37.105-73.464,78.808c0,4.328,0.354,8.652,1.054,12.909    c-26.574,22.804-41.724,55.646-41.724,90.813C11.174,458.304,64.869,512,130.87,512c36.253,0,68.789-16.203,90.758-41.744    C247.292,496.02,282.772,512,321.925,512c48.701,0,93.407-24.559,119.587-65.696c2.219-3.487,1.192-8.112-2.295-10.33    c-3.487-2.219-8.112-1.191-10.33,2.295c-23.419,36.797-63.405,58.766-106.962,58.766c-35.774,0-68.119-14.917-91.178-38.843    c3.379-5.105,6.363-10.49,8.94-16.099c1.321,0.833,2.881,1.322,4.558,1.322c4.73,0,8.565-3.835,8.565-8.565    c0-4.268-3.125-7.796-7.209-8.447c3.221-10.812,4.965-22.254,4.965-34.1c0-33.228-13.532-64.375-37.44-86.946    c7.739-12.926,17.834-24.538,30.022-34.228c2.249-1.788,3.275-4.705,2.642-7.507c-1.277-5.648-1.925-11.468-1.925-17.295    c0-41.134,31.988-74.914,72.391-77.832c-0.45,9.408-1.162,17.656-1.918,23.954c-0.493,4.102,2.433,7.828,6.535,8.322    c0.304,0.037,0.605,0.054,0.904,0.054c3.733,0,6.961-2.789,7.419-6.587c0.089-0.742,1.26-10.66,1.96-25.408    c38.706,4.583,68.831,37.577,68.831,77.496c0,5.829-0.647,11.648-1.925,17.295c-0.633,2.802,0.393,5.72,2.641,7.507    c30.449,24.21,47.912,60.373,47.912,99.216c0,11.601-1.566,23.092-4.655,34.154c-1.111,3.98,1.214,8.108,5.194,9.219    c3.985,1.114,8.108-1.214,9.219-5.194c3.454-12.372,5.206-25.217,5.206-38.179c0-41.897-18.165-81-50.006-108.009    c0.915-5.272,1.378-10.638,1.378-16.01c0-48.02-36.574-87.656-83.328-92.521c0.114-7.744,0.036-16.182-0.37-24.935    c2.116,1.236,4.478,2.555,7.09,3.914c6.089,3.167,12.457,5.777,18.928,7.756c3.955,1.208,8.135-1.015,9.344-4.966    c1.209-3.952-1.015-8.135-4.966-9.344c-5.6-1.713-11.118-3.975-16.399-6.722c-6.052-3.149-10.697-6.084-13.495-7.966    c0.15-3.371,0.551-8.849,1.617-15.584c4.866-30.75,23.666-56.46,51.579-70.536c27.914-14.077,59.764-13.909,87.382,0.46    c5.962,3.102,10.535,5.97,13.495,7.963c-0.157,3.571-0.57,8.953-1.62,15.589c-6.534,41.286-38.845,73.354-80.402,79.797    c-4.084,0.633-6.881,4.457-6.248,8.541c0.573,3.696,3.758,6.337,7.385,6.337c0.381,0,0.767-0.029,1.156-0.089    c48.007-7.443,85.337-44.514,92.891-92.246c1.258-7.947,1.689-14.324,1.829-18.274C500.981,28.9,498.803,24.594,494.991,21.981z     M235.601,392.304c0,57.749-46.982,104.731-104.731,104.731S26.139,450.053,26.139,392.304c0-32.11,14.437-62.006,39.609-82.02    c2.248-1.788,3.275-4.705,2.641-7.507c-1.048-4.635-1.58-9.41-1.58-14.194c0-33.289,25.526-60.718,58.032-63.768    c-0.38,7.26-0.942,13.63-1.534,18.562c-0.493,4.102,2.433,7.828,6.536,8.322c0.303,0.037,0.605,0.055,0.903,0.055    c3.733,0,6.961-2.789,7.419-6.587c0.072-0.601,0.989-8.364,1.581-20.014c31.135,4.337,55.184,31.121,55.184,63.431    c0,4.784-0.531,9.559-1.58,14.194c-0.633,2.802,0.393,5.719,2.641,7.507C221.164,330.298,235.601,360.193,235.601,392.304z"/>
	</g>
</g>
<g>
	<g>
		<circle cx="150.13" cy="282.29" r="8.565"/>
	</g>
</g>
<g>
	<g>
		<circle cx="62.29" cy="434.85" r="8.565"/>
	</g>
</g>
<g>
	<g>
		<circle cx="86.23" cy="458.8" r="8.565"/>
	</g>
</g>
<g>
	<g>
		<circle cx="340.65" cy="234.97" r="8.565"/>
	</g>
</g>
<g>
	<g>
		<circle cx="268.19" cy="458.8" r="8.565"/>
	</g>
</g>
<g>
</g>
<g>
</g>
<g>
</g>
<g>
</g>
<g>
</g>
<g>
</g>
<g>
</g>
<g>
</g>
<g>
</g>
<g>
</g>
<g>
</g>
<g>
</g>
<g>
</g>
<g>
</g>
<g>
</g>
</svg>
