<?xml version="1.0" encoding="iso-8859-1"?>
<!-- Generator: Adobe Illustrator 19.0.0, SVG Export Plug-In . SVG Version: 6.00 Build 0)  -->
<svg xmlns="http://www.w3.org/2000/svg" xmlns:xlink="http://www.w3.org/1999/xlink" version="1.1" id="Capa_1" x="0px" y="0px" viewBox="0 0 512 512" style="enable-background:new 0 0 512 512;" xml:space="preserve">
<g>
	<g>
		<path d="M496.002,256.748c-1.894-61.307-26.656-118.668-70.23-162.228C380.42,49.184,320.127,24.216,256,24.216    S131.581,49.184,86.229,94.52c-43.575,43.56-68.336,100.921-70.23,162.228H0L84.771,445.55v42.234H427.23V445.55L512,256.748    H496.002z M256,39.248c121.562,0,220.954,96.889,224.974,217.5H462.33c-1.88-52.315-23.149-101.22-60.365-138.422    C362.972,79.348,311.133,57.882,256,57.882c-55.133,0-106.972,21.466-145.965,60.443C72.818,155.528,51.55,204.433,49.67,256.748    H31.026C35.047,136.136,134.438,39.248,256,39.248z M447.27,256.748H64.731C68.737,154.708,153.007,72.914,256,72.914    S443.263,154.708,447.27,256.748z M412.198,472.752H99.803v-20.255h312.395V472.752z M482.38,286.018h-51.69v15.032h44.941    l-61.248,136.414H97.617L36.369,301.051h256.522v-15.032H29.62l-6.393-14.238h41.336h382.875h41.335L482.38,286.018z"/>
	</g>
</g>
<g>
	<g>
		<rect x="310.9" y="286.016" width="102.561" height="15.032"/>
	</g>
</g>
<g>
	<g>
		<polygon points="111.701,415.937 88.638,363.613 74.882,369.676 101.899,430.97 153.949,430.97 153.949,415.937   "/>
	</g>
</g>
<g>
	<g>
		<rect x="164.034" y="415.936" width="24.272" height="15.032"/>
	</g>
</g>
<g>
</g>
<g>
</g>
<g>
</g>
<g>
</g>
<g>
</g>
<g>
</g>
<g>
</g>
<g>
</g>
<g>
</g>
<g>
</g>
<g>
</g>
<g>
</g>
<g>
</g>
<g>
</g>
<g>
</g>
</svg>
