<?xml version="1.0" encoding="iso-8859-1"?>
<!-- Generator: Adobe Illustrator 19.0.0, SVG Export Plug-In . SVG Version: 6.00 Build 0)  -->
<svg xmlns="http://www.w3.org/2000/svg" xmlns:xlink="http://www.w3.org/1999/xlink" version="1.1" id="Capa_1" x="0px" y="0px" viewBox="0 0 512.001 512.001" style="enable-background:new 0 0 512.001 512.001;" xml:space="preserve">
<g>
	<g>
		<path d="M425.081,5.39L419.69,0L0.001,419.69l5.39,5.391c56.051,56.051,130.576,86.92,209.844,86.92s153.793-30.869,209.844-86.92    C481.131,369.028,512,294.505,512,215.237S481.132,61.442,425.081,5.39z M401.151,40.101    c40.188,43.293,60.37,102.577,56.955,167.854c-3.442,65.807-31.146,129.28-76.008,174.141    c-48.534,48.535-117.035,76.371-187.938,76.371c-59.729,0-114.115-20.298-154.057-57.32L401.151,40.101z M414.299,414.298    c-53.172,53.173-123.865,82.455-199.063,82.455c-72.649,0-141.098-27.335-193.601-77.136l7.693-7.693    c42.809,39.896,101.016,61.789,164.834,61.789c35.995,0,72.92-7.168,106.783-20.729c35.225-14.106,66.157-34.329,91.936-60.108    c47.493-47.494,76.817-114.604,80.452-184.127c1.817-34.739-2.73-68.146-13.516-99.292c-10.548-30.46-26.649-57.378-47.888-80.138    l7.69-7.689c49.801,52.503,77.136,120.953,77.136,193.602C496.754,290.431,467.471,361.126,414.299,414.298z"/>
	</g>
</g>
<g>
	<g>
		
			<rect x="106.599" y="357.674" transform="matrix(0.7071 -0.7071 0.7071 0.7071 -230.3749 190.0487)" width="15.247" height="30.877"/>
	</g>
</g>
<g>
	<g>
		
			<rect x="171.325" y="292.95" transform="matrix(0.7071 -0.7071 0.7071 0.7071 -165.6512 216.8605)" width="15.247" height="30.878"/>
	</g>
</g>
<g>
	<g>
		
			<rect x="236.041" y="228.217" transform="matrix(0.7071 -0.7071 0.7071 0.7071 -100.9228 243.662)" width="15.247" height="30.877"/>
	</g>
</g>
<g>
	<g>
		
			<rect x="300.758" y="163.507" transform="matrix(0.7071 -0.7071 0.7071 0.7071 -36.2101 270.4715)" width="15.247" height="30.877"/>
	</g>
</g>
<g>
	<g>
		<rect x="365.478" y="98.789" transform="matrix(0.7071 -0.7071 0.7071 0.7071 28.508 297.279)" width="15.247" height="30.877"/>
	</g>
</g>
<g>
	<g>
		
			<rect x="182.281" y="368.625" transform="matrix(0.7071 -0.7071 0.7071 0.7071 -215.9515 246.7708)" width="15.247" height="30.877"/>
	</g>
</g>
<g>
	<g>
		
			<rect x="246.992" y="303.911" transform="matrix(0.7071 -0.7071 0.7071 0.7071 -151.2385 273.5741)" width="15.247" height="30.877"/>
	</g>
</g>
<g>
	<g>
		
			<rect x="311.731" y="239.19" transform="matrix(0.7071 -0.7071 0.7071 0.7071 -86.5128 300.3951)" width="15.247" height="30.877"/>
	</g>
</g>
<g>
	<g>
		
			<rect x="376.446" y="174.472" transform="matrix(0.7071 -0.7071 0.7071 0.7071 -21.7955 327.2017)" width="15.247" height="30.877"/>
	</g>
</g>
<g>
	<g>
		
			<rect x="254.868" y="376.497" transform="matrix(0.7071 -0.7071 0.7071 0.7071 -200.2574 300.4029)" width="15.247" height="30.876"/>
	</g>
</g>
<g>
	<g>
		
			<rect x="319.586" y="311.785" transform="matrix(0.7071 -0.7071 0.7071 0.7071 -135.5446 327.2148)" width="15.247" height="30.877"/>
	</g>
</g>
<g>
	<g>
		
			<rect x="384.305" y="247.05" transform="matrix(0.7071 -0.7071 0.7071 0.7071 -70.8143 354.016)" width="15.247" height="30.877"/>
	</g>
</g>
<g>
	<g>
		<rect x="110.4" y="78.951" transform="matrix(0.7071 -0.7071 0.7071 0.7071 -48.8882 118.024)" width="15.247" height="78.149"/>
	</g>
</g>
<g>
	<g>
		<rect x="213.447" y="26.152" width="15.247" height="78.151"/>
	</g>
</g>
<g>
	<g>
		<rect x="26.152" y="213.435" width="78.15" height="15.247"/>
	</g>
</g>
<g>
</g>
<g>
</g>
<g>
</g>
<g>
</g>
<g>
</g>
<g>
</g>
<g>
</g>
<g>
</g>
<g>
</g>
<g>
</g>
<g>
</g>
<g>
</g>
<g>
</g>
<g>
</g>
<g>
</g>
</svg>
