<?xml version="1.0" encoding="iso-8859-1"?>
<!-- Generator: Adobe Illustrator 19.0.0, SVG Export Plug-In . SVG Version: 6.00 Build 0)  -->
<svg xmlns="http://www.w3.org/2000/svg" xmlns:xlink="http://www.w3.org/1999/xlink" version="1.1" id="Layer_1" x="0px" y="0px" viewBox="0 0 512 512" style="enable-background:new 0 0 512 512;" xml:space="preserve">
<g>
	<g>
		<path d="M337.86,329.359c-0.794-6.606-2.462-12.616-4.96-17.863c-18.794-39.485-75.978-36.088-113.32-29.005    c-5.532-13.396-16.249-24.125-29.643-29.664l8.826-14.017c2.206-3.504,1.154-8.133-2.349-10.339    c-3.505-2.207-8.133-1.154-10.339,2.349l-11.437,18.162c-1.798-0.18-3.622-0.274-5.466-0.274c-1.845,0-3.668,0.095-5.466,0.274    l-11.437-18.162c-2.207-3.504-6.834-4.555-10.339-2.349c-3.503,2.207-4.555,6.835-2.349,10.339l8.827,14.017    c-13.393,5.539-24.11,16.268-29.643,29.663c-37.341-7.082-94.526-10.478-113.321,29.006c-2.498,5.248-4.167,11.258-4.959,17.861    c-0.625,5.197-0.181,12.531,1.132,18.685c0.287,1.348,0.576,2.695,0.868,4.045c1.33,6.152,3.936,13.022,6.638,17.502    c3.434,5.697,7.423,10.492,11.854,14.252c10.343,8.774,22.352,12.269,34.94,12.269c14.302,0,29.335-4.521,43.487-10.942v29.906    c0,4.417,0.431,8.733,1.22,12.924c0.016,0.093,0.03,0.187,0.05,0.28c5.729,29.774,30.438,52.863,61,56.146l0.001,20.08    c0,4.14,3.357,7.496,7.497,7.496s7.496-3.357,7.496-7.497l-0.001-20.079c30.551-3.281,55.255-26.356,60.995-56.115    c0.029-0.133,0.05-0.268,0.072-0.403c0.777-4.162,1.203-8.447,1.203-12.831v-29.907c14.152,6.421,29.186,10.942,43.49,10.942    c12.584,0,24.6-3.498,34.94-12.269c4.432-3.76,8.421-8.555,11.855-14.252c2.703-4.482,5.308-11.353,6.638-17.502    c0.291-1.348,0.581-2.696,0.868-4.044C338.04,341.889,338.485,334.555,337.86,329.359z M169.172,263.701    c21.791,0,39.52,17.728,39.52,39.52s-17.728,39.52-39.52,39.52s-39.52-17.728-39.52-39.52S147.381,263.701,169.172,263.701z     M30.677,372.407c-3.189-2.705-6.121-6.258-8.714-10.56c-1.861-3.086-3.845-8.403-4.823-12.927    c-0.288-1.334-0.574-2.669-0.859-4.005c-0.965-4.528-1.339-10.19-0.909-13.77c0.599-4.986,1.814-9.429,3.611-13.205    c9.389-19.725,33.887-24.859,56.846-24.859c4.835,0,9.604,0.228,14.146,0.595c8.77,0.709,17.303,1.981,25.029,3.424    c-0.226,2.01-0.345,4.052-0.345,6.121c0,17.257,8.069,32.655,20.622,42.651c-8.209,6.147-18.595,13.284-29.908,19.519    C82.428,378.035,50.843,389.516,30.677,372.407z M223.946,415.074h-0.002c0,1.389-0.069,2.762-0.171,4.125h-51.668    c-4.14,0-7.497,3.356-7.497,7.497c0,4.141,3.356,7.497,7.497,7.497h48.39c-7.774,20.801-27.844,35.654-51.323,35.654    s-43.549-14.853-51.323-35.654h12.275c4.14,0,7.497-3.356,7.497-7.497c0-4.141-3.356-7.497-7.497-7.497h-15.553    c-0.102-1.363-0.171-2.736-0.171-4.125v-24.58h47.711c4.14,0,7.497-3.356,7.497-7.497c0-4.141-3.356-7.497-7.497-7.497h-44.143    c12.42-7.263,23.372-15.181,31.439-21.491c6.133,2.396,12.796,3.725,19.768,3.725s13.635-1.33,19.768-3.725    c8.066,6.31,19.017,14.228,31.437,21.491h-20.784c-4.14,0-7.497,3.356-7.497,7.497c0,4.141,3.356,7.497,7.497,7.497h24.35V415.074    z M322.063,344.916c-0.284,1.334-0.571,2.668-0.859,4.002c-0.979,4.525-2.962,9.842-4.823,12.93    c-2.593,4.3-5.525,7.853-8.715,10.559c-20.165,17.11-51.75,5.628-74.695-7.016c-11.315-6.235-21.7-13.373-29.908-19.519    c12.553-9.996,20.622-25.394,20.622-42.651c0-2.072-0.119-4.117-0.345-6.13c7.646-1.426,16.097-2.683,24.789-3.396    c26.209-2.15,59.84,0.311,71.232,24.245c1.798,3.776,3.013,8.219,3.612,13.206C323.403,334.725,323.029,340.387,322.063,344.916z"/>
	</g>
</g>
<g>
	<g>
		<path d="M511.515,102.041c-0.794-6.606-2.462-12.615-4.96-17.862c-18.793-39.481-75.979-36.088-113.321-29.007    c-5.533-13.394-16.249-24.123-29.642-29.661l8.826-14.017c2.206-3.504,1.154-8.133-2.349-10.339    c-3.505-2.208-8.133-1.154-10.339,2.349l-11.437,18.162c-1.798-0.18-3.622-0.274-5.466-0.274c-1.845,0-3.668,0.095-5.467,0.274    L325.925,3.504c-2.207-3.503-6.834-4.555-10.339-2.349c-3.503,2.206-4.555,6.835-2.349,10.339l8.826,14.017    c-13.393,5.539-24.11,16.268-29.642,29.663C255.08,48.091,197.895,44.694,179.1,84.18c-2.497,5.247-4.166,11.257-4.96,17.862    c-0.624,5.197-0.18,12.531,1.131,18.681c0.287,1.35,0.577,2.699,0.869,4.048c1.33,6.152,3.936,13.022,6.638,17.502    c3.434,5.697,7.423,10.492,11.854,14.252c10.343,8.774,22.352,12.269,34.94,12.269c14.301,0,29.334-4.522,43.486-10.942v29.906    c0,4.423,0.432,8.745,1.223,12.942c0.015,0.085,0.028,0.171,0.046,0.255c5.726,29.778,30.434,52.879,61.001,56.161l0.001,20.072    c0,4.14,3.357,7.496,7.497,7.496s7.496-3.357,7.496-7.497l-0.001-20.071c30.552-3.28,55.251-26.36,60.994-56.117    c0.031-0.141,0.054-0.284,0.077-0.428c0.775-4.157,1.2-8.435,1.2-12.813V157.85c14.153,6.421,29.188,10.943,43.49,10.943    c12.584,0,24.6-3.498,34.94-12.269c4.431-3.759,8.42-8.554,11.855-14.252c2.702-4.481,5.307-11.351,6.638-17.502    c0.291-1.348,0.581-2.696,0.869-4.045C511.695,114.57,512.139,107.236,511.515,102.041z M342.828,36.385    c21.791,0,39.52,17.728,39.52,39.52c0,21.792-17.728,39.52-39.52,39.52s-39.52-17.728-39.52-39.52    C303.308,54.113,321.037,36.385,342.828,36.385z M204.333,145.091c-3.189-2.705-6.121-6.258-8.714-10.56    c-1.861-3.086-3.845-8.403-4.824-12.929c-0.288-1.333-0.574-2.665-0.859-4.002c-0.965-4.528-1.339-10.191-0.91-13.77    c0.599-4.987,1.815-9.431,3.612-13.206c9.389-19.725,33.887-24.859,56.846-24.859c4.835,0,9.604,0.228,14.146,0.595    c8.766,0.708,17.306,1.977,25.029,3.419c-0.226,2.011-0.345,4.055-0.345,6.126c0,17.257,8.069,32.655,20.623,42.651    c-8.209,6.146-18.597,13.285-29.909,19.519C256.084,150.718,224.5,162.2,204.333,145.091z M397.6,187.757h-0.001    c0,1.389-0.069,2.762-0.171,4.125H345.76c-4.14,0-7.497,3.356-7.497,7.497s3.356,7.497,7.497,7.497h48.389    c-7.774,20.801-27.844,35.654-51.323,35.654s-43.549-14.853-51.323-35.654h12.276c4.14,0,7.497-3.356,7.497-7.497    s-3.356-7.497-7.497-7.497h-15.554c-0.102-1.363-0.171-2.736-0.171-4.125v-24.58h47.711c4.14,0,7.497-3.356,7.497-7.497    s-3.356-7.497-7.497-7.497h-44.142c12.42-7.263,23.373-15.181,31.439-21.491c6.133,2.395,12.796,3.725,19.767,3.725    s13.633-1.329,19.766-3.725c8.067,6.31,19.019,14.228,31.439,21.49H373.25c-4.14,0-7.497,3.356-7.497,7.497    s3.356,7.497,7.497,7.497h24.35V187.757z M495.72,117.6c-0.285,1.334-0.571,2.668-0.859,4.001    c-0.979,4.526-2.963,9.844-4.823,12.93c-2.594,4.301-5.526,7.855-8.715,10.559c-20.166,17.109-51.75,5.629-74.696-7.016    c-11.313-6.234-21.7-13.372-29.908-19.519c12.553-9.996,20.623-25.394,20.623-42.651c0-2.072-0.119-4.116-0.345-6.128    c7.722-1.441,16.266-2.709,25.029-3.417c26.114-2.111,59.626,0.385,70.992,24.264c1.797,3.775,3.012,8.218,3.612,13.206    C497.059,107.407,496.685,113.07,495.72,117.6z"/>
	</g>
</g>
<g>
</g>
<g>
</g>
<g>
</g>
<g>
</g>
<g>
</g>
<g>
</g>
<g>
</g>
<g>
</g>
<g>
</g>
<g>
</g>
<g>
</g>
<g>
</g>
<g>
</g>
<g>
</g>
<g>
</g>
</svg>
