<?xml version="1.0" encoding="iso-8859-1"?>
<!-- Generator: Adobe Illustrator 19.0.0, SVG Export Plug-In . SVG Version: 6.00 Build 0)  -->
<svg xmlns="http://www.w3.org/2000/svg" xmlns:xlink="http://www.w3.org/1999/xlink" version="1.1" id="Capa_1" x="0px" y="0px" viewBox="0 0 511.999 511.999" style="enable-background:new 0 0 511.999 511.999;" xml:space="preserve">
<g>
	<g>
		<path d="M393.656,301.687l-1.789-4.24l-4.591-0.333c-1.976-0.143-3.973-0.214-5.962-0.248c0.772-11.428,1.197-22.99,1.252-34.496    l0.043-0.009l-0.024-3.97c-0.002-0.347-0.003-0.694-0.005-1.041l-0.063-10.338l-0.085,0.018c-0.222-9.772-0.7-19.51-1.431-29.104    l0.046-0.01l-0.59-6.639c-0.003-0.03-0.006-0.06-0.008-0.09l-0.743-8.344l-0.074,0.016c-1.021-9.688-2.305-19.255-3.839-28.594    l0.064-0.013l-1.307-7.245l-1.361-7.544l-0.071,0.014c-1.904-9.622-4.092-19.025-6.537-28.108l0.098-0.018l-2.335-7.986    l-1.903-6.512l-0.067,0.012c-3.018-9.662-6.351-18.906-9.958-27.636l0.185-0.029l-4.077-8.977l-2.367-5.212l-0.102,0.016    c-5.577-11.327-11.55-20.516-17.072-28.002l0.331-0.067l-9.524-11.613c-14.87-18.162-26.88-32.804-54.23-35.039V0h-7.513h-7.513    v0.294c-27.375,2.152-38.915,16.273-53.203,33.789c-0.816,1.002-1.651,2.023-2.501,3.061l-0.127,0.155    c-0.02,0.024-0.041,0.05-0.06,0.074l-7.862,9.583l0.331,0.067c-5.522,7.486-11.495,16.675-17.072,28.002l-0.102-0.016    l-2.367,5.212l-4.077,8.977l0.185,0.029c-3.606,8.731-6.939,17.975-9.958,27.636l-0.067-0.012l-1.903,6.512l-2.335,7.986    l0.098,0.018c-2.445,9.082-4.633,18.485-6.537,28.108l-0.071-0.014l-1.361,7.544l-1.307,7.245l0.064,0.013    c-1.534,9.339-2.818,18.905-3.839,28.594l-0.074-0.016l-0.743,8.344c-0.003,0.03-0.006,0.06-0.008,0.09l-0.59,6.639l0.054,0.011    c-0.551,7.223-0.958,14.531-1.22,21.857c-1.858,0.059-3.716,0.145-5.558,0.279l-4.591,0.333l-1.789,4.24    c-12.026,28.511-17.622,60.35-16.182,92.075c1.484,32.722,10.482,64.546,26.02,92.031c29.47,52.133,79.117,83.256,132.807,83.256    c2.875,0,5.779-0.106,8.656-0.289l0.112,0.008c2.582,0.187,5.207,0.281,7.8,0.281c0.002,0,0.002,0,0.005,0    c42.374,0,81.54-24.53,104.766-65.617C410.212,403.409,413.176,347.964,393.656,301.687z M367.474,250.208    c-0.113,0.023-0.225,0.048-0.339,0.071c-2.994,0.611-5.993,1.196-8.995,1.762c-0.718,0.135-1.436,0.266-2.155,0.4    c-2.575,0.477-5.153,0.938-7.73,1.381c-0.546,0.094-1.092,0.192-1.637,0.284c-2.994,0.507-5.988,0.989-8.979,1.449    c-0.7,0.108-1.4,0.21-2.101,0.316c-2.528,0.381-5.055,0.745-7.578,1.093c-0.424,0.058-0.848,0.119-1.272,0.176    c-0.002-0.621-0.015-1.242-0.018-1.864c-0.016-3.726-0.051-7.451-0.106-11.175c-0.013-0.868-0.021-1.735-0.036-2.602    c-0.074-4.312-0.176-8.611-0.302-12.89c-0.01-0.332-0.013-0.668-0.023-1.001l0.024-0.003l-0.002-0.04    c2.944-0.387,5.895-0.804,8.848-1.236c0.791-0.115,1.584-0.234,2.375-0.353c2.552-0.383,5.107-0.78,7.662-1.197    c0.455-0.074,0.91-0.143,1.364-0.218c2.926-0.483,5.852-0.991,8.779-1.516c0.783-0.14,1.567-0.285,2.35-0.43    c2.377-0.436,4.753-0.884,7.127-1.347c0.481-0.09,0.959-0.174,1.436-0.268C366.865,230.633,367.302,240.41,367.474,250.208z     M367.535,265.529c-0.107,9.913-0.492,19.864-1.145,29.703c-13.505,2.738-27.091,5.027-40.55,6.831    c0.013-0.318,0.019-0.642,0.032-0.96c0.174-4.412,0.325-8.849,0.443-13.309c0.023-0.88,0.037-1.762,0.058-2.643    c0.088-3.642,0.157-7.29,0.207-10.948c0.008-0.618,0.028-1.232,0.035-1.851l0.021-0.003v-0.037c0.07-0.009,0.14-0.02,0.21-0.03    c2.99-0.396,5.986-0.821,8.984-1.263c0.803-0.118,1.606-0.24,2.409-0.363c2.505-0.379,5.011-0.773,7.519-1.184    c0.604-0.099,1.207-0.193,1.81-0.293c3.01-0.502,6.02-1.028,9.029-1.574c0.697-0.126,1.394-0.258,2.092-0.388    c2.501-0.463,5-0.941,7.499-1.433C366.636,265.698,367.087,265.619,367.535,265.529z M361.052,177.185    c1.531,9.383,2.803,19.009,3.8,28.757c-0.01,0.002-0.019,0.004-0.029,0.006c-2.923,0.585-5.85,1.141-8.778,1.683    c-0.74,0.137-1.482,0.271-2.223,0.406c-2.549,0.463-5.1,0.911-7.649,1.34c-0.415,0.07-0.829,0.144-1.244,0.213    c-2.894,0.482-5.786,0.938-8.675,1.376c-0.717,0.109-1.434,0.213-2.152,0.32c-2.417,0.359-4.831,0.701-7.242,1.029    c-0.411,0.056-0.823,0.114-1.234,0.169c-0.032-0.7-0.07-1.396-0.104-2.096c-0.037-0.784-0.077-1.566-0.116-2.349    c-0.159-3.163-0.33-6.318-0.518-9.458c-0.013-0.225-0.025-0.452-0.039-0.676c-0.201-3.309-0.423-6.596-0.656-9.871    c-0.057-0.794-0.114-1.587-0.173-2.379c-0.062-0.843-0.12-1.694-0.184-2.534l0.029-0.003l-0.004-0.045    c0.306-0.039,0.613-0.085,0.919-0.124c2.378-0.307,4.762-0.63,7.15-0.967c0.729-0.103,1.457-0.206,2.187-0.312    c2.665-0.386,5.332-0.783,8.005-1.205c0.109-0.017,0.217-0.033,0.327-0.05c2.763-0.438,5.527-0.901,8.294-1.376    c0.747-0.128,1.494-0.26,2.241-0.392c2.309-0.406,4.613-0.823,6.918-1.254C360.283,177.321,360.668,177.257,361.052,177.185z     M350.726,134.24c0.343-0.059,0.684-0.112,1.027-0.171c2.489,9.127,4.709,18.609,6.631,28.325    c-0.346,0.065-0.692,0.127-1.038,0.192c-2.255,0.423-4.51,0.831-6.764,1.228c-0.732,0.129-1.464,0.257-2.197,0.384    c-2.508,0.432-5.016,0.852-7.52,1.252c-0.176,0.028-0.353,0.059-0.529,0.086c-2.656,0.422-5.309,0.819-7.958,1.205    c-0.736,0.107-1.472,0.21-2.208,0.315c-2.088,0.295-4.172,0.579-6.252,0.851c-0.454,0.059-0.908,0.121-1.36,0.179    c-0.039-0.421-0.083-0.834-0.123-1.254c-0.157-1.653-0.32-3.299-0.485-4.938c-0.069-0.683-0.138-1.367-0.208-2.049    c-0.209-2.023-0.426-4.037-0.648-6.037c-0.024-0.213-0.046-0.431-0.07-0.644c-0.246-2.204-0.503-4.388-0.765-6.563    c-0.075-0.623-0.152-1.24-0.229-1.86c-0.197-1.605-0.399-3.201-0.605-4.788c-0.045-0.352-0.088-0.71-0.134-1.061l0.043-0.005    l-0.007-0.051c0.417-0.05,0.836-0.108,1.253-0.158c1.829-0.223,3.662-0.455,5.5-0.696c0.642-0.084,1.283-0.166,1.926-0.252    c2.402-0.323,4.809-0.659,7.223-1.013c0.35-0.051,0.699-0.106,1.049-0.158c2.1-0.312,4.201-0.635,6.307-0.969    c0.692-0.11,1.385-0.221,2.079-0.334C346.683,134.925,348.705,134.588,350.726,134.24z M334.068,92.075    c1.023-0.147,2.043-0.289,3.066-0.443c3.748,8.749,7.208,18.096,10.336,27.919c-0.394,0.067-0.787,0.134-1.181,0.201    c-1.714,0.289-3.426,0.57-5.137,0.844c-0.622,0.099-1.244,0.201-1.865,0.299c-2.281,0.359-4.559,0.705-6.831,1.036    c-0.366,0.053-0.729,0.102-1.094,0.154c-1.923,0.276-3.844,0.543-5.759,0.799c-0.709,0.095-1.418,0.187-2.127,0.279    c-1.66,0.216-3.317,0.424-4.969,0.625c-0.446,0.054-0.891,0.109-1.336,0.162c-0.063-0.415-0.132-0.817-0.196-1.23    c-0.272-1.756-0.55-3.5-0.833-5.23c-0.114-0.696-0.228-1.39-0.345-2.082c-0.291-1.744-0.589-3.471-0.891-5.186    c-0.093-0.527-0.183-1.06-0.278-1.584c-0.396-2.206-0.798-4.388-1.211-6.542c-0.076-0.398-0.155-0.785-0.231-1.181    c-0.34-1.75-0.683-3.482-1.034-5.196c-0.054-0.262-0.104-0.534-0.158-0.795l0.079-0.007l-0.014-0.064    c0.239-0.026,0.48-0.055,0.719-0.081c0.514-0.056,1.03-0.116,1.544-0.173c2.528-0.281,5.066-0.579,7.613-0.896    c0.559-0.069,1.116-0.135,1.675-0.206c2.852-0.364,5.715-0.749,8.584-1.155C332.818,92.258,333.443,92.166,334.068,92.075z     M305.036,51.622c1.198-0.197,2.396-0.405,3.595-0.615c0.947-0.166,1.891-0.332,2.837-0.506c0.368-0.068,0.736-0.128,1.104-0.197    c7.31,9.242,12.976,17.824,17.864,27.117c-0.564,0.08-1.124,0.148-1.688,0.226c-2.827,0.393-5.649,0.771-8.458,1.122    c-1.234,0.153-2.458,0.289-3.688,0.434c-2.186,0.258-4.37,0.512-6.54,0.742c-0.469,0.05-0.932,0.092-1.399,0.14    c-0.35-1.412-0.708-2.806-1.074-4.191c-0.091-0.348-0.186-0.693-0.279-1.04c-0.369-1.378-0.746-2.748-1.134-4.108    c-0.076-0.266-0.149-0.535-0.226-0.8c-0.444-1.538-0.903-3.068-1.373-4.595c-0.111-0.361-0.225-0.723-0.339-1.085    c-0.438-1.398-0.888-2.797-1.353-4.198c-0.062-0.185-0.12-0.372-0.182-0.557c-0.515-1.539-1.052-3.087-1.603-4.643    c-0.135-0.383-0.274-0.769-0.413-1.154c-0.142-0.398-0.28-0.791-0.426-1.191l0.142-0.017l-0.056-0.142    c0.617-0.092,1.236-0.199,1.854-0.296C303.147,51.926,304.091,51.778,305.036,51.622z M266.743,142.579    c2.319-0.045,4.655-0.108,7.006-0.188c0.739-0.025,1.477-0.049,2.219-0.078c2.826-0.109,5.666-0.237,8.531-0.398    c0.267-0.015,0.539-0.034,0.806-0.05c2.635-0.151,5.29-0.329,7.956-0.522c0.778-0.057,1.558-0.115,2.338-0.175    c2.7-0.208,5.41-0.433,8.136-0.684c0.2-0.018,0.398-0.032,0.599-0.05c0.051,0.385,0.101,0.771,0.151,1.158    c0.209,1.605,0.414,3.221,0.614,4.848c0.074,0.605,0.15,1.207,0.223,1.814c0.263,2.185,0.522,4.38,0.77,6.596    c0.013,0.118,0.025,0.237,0.039,0.356c0.234,2.101,0.46,4.217,0.68,6.343c0.065,0.629,0.128,1.261,0.192,1.892    c0.175,1.732,0.346,3.472,0.511,5.219c0.036,0.385,0.073,0.768,0.109,1.153c-0.014,0.001-0.028,0.003-0.043,0.005    c-0.128,0.013-0.255,0.024-0.383,0.037c-2.065,0.208-4.121,0.402-6.17,0.586c-0.668,0.06-1.335,0.116-2.001,0.174    c-1.617,0.139-3.228,0.269-4.834,0.393c-0.608,0.047-1.218,0.095-1.824,0.14c-2.137,0.156-4.264,0.302-6.379,0.43    c-0.321,0.019-0.638,0.035-0.958,0.053c-1.828,0.107-3.647,0.203-5.458,0.289c-0.623,0.03-1.243,0.057-1.864,0.084    c-1.652,0.072-3.295,0.135-4.931,0.189c-0.487,0.016-0.976,0.035-1.461,0.05c-1.933,0.058-3.853,0.102-5.762,0.135v-29.704v-0.063    C265.949,142.604,266.351,142.587,266.743,142.579z M265.558,127.574V97.872v-0.063c0.4-0.007,0.808-0.023,1.21-0.03    c1.736-0.035,3.484-0.078,5.241-0.132c0.609-0.019,1.215-0.034,1.826-0.055c2.297-0.079,4.606-0.172,6.931-0.286    c0.409-0.02,0.821-0.045,1.231-0.065c1.964-0.1,3.937-0.212,5.919-0.337c0.692-0.043,1.385-0.088,2.08-0.134    c1.938-0.129,3.884-0.268,5.837-0.421c0.364-0.028,0.723-0.049,1.088-0.078c0.082,0.392,0.163,0.787,0.244,1.181    c0.323,1.556,0.64,3.127,0.954,4.716c0.126,0.64,0.252,1.279,0.378,1.925c0.38,1.963,0.752,3.946,1.117,5.955    c0.033,0.183,0.068,0.362,0.101,0.545c0.395,2.189,0.779,4.411,1.157,6.652c0.108,0.64,0.213,1.287,0.32,1.931    c0.279,1.694,0.554,3.402,0.823,5.124c0.064,0.41,0.128,0.819,0.192,1.231c-0.431,0.039-0.859,0.074-1.289,0.113    c-2.271,0.203-4.532,0.391-6.781,0.563c-0.777,0.059-1.554,0.118-2.328,0.174c-2.649,0.19-5.286,0.366-7.902,0.513    c-0.118,0.007-0.237,0.016-0.356,0.022c-2.722,0.151-5.418,0.271-8.101,0.376c-0.746,0.029-1.49,0.053-2.233,0.079    c-2.131,0.073-4.247,0.13-6.35,0.173C266.431,127.555,265.993,127.567,265.558,127.574z M301.613,36.965    c-0.025,0.004-0.051,0.009-0.076,0.013c-2.235,0.361-4.468,0.693-6.693,1.003c-0.096,0.013-0.191,0.024-0.287,0.037    c-0.332-0.77-0.664-1.526-0.998-2.272c-0.095-0.214-0.191-0.422-0.287-0.634c-0.248-0.551-0.498-1.098-0.747-1.635    c-0.122-0.263-0.245-0.523-0.368-0.783c-0.227-0.483-0.456-0.962-0.684-1.434c-0.126-0.26-0.252-0.521-0.379-0.778    c-0.237-0.483-0.475-0.959-0.713-1.43c-0.112-0.222-0.224-0.448-0.337-0.667c-0.307-0.602-0.617-1.193-0.926-1.775    c-0.041-0.077-0.082-0.158-0.123-0.235c-0.356-0.665-0.711-1.315-1.069-1.955c-0.09-0.16-0.18-0.315-0.27-0.475    c-0.2-0.355-0.401-0.712-0.601-1.058C292.155,26.44,296.669,31.162,301.613,36.965z M265.558,19.073    c0.018,0.018,0.036,0.035,0.056,0.053c0.106,0.102,0.213,0.212,0.321,0.32c0.141,0.141,0.281,0.279,0.425,0.428    c0.112,0.116,0.225,0.24,0.339,0.362c0.14,0.15,0.28,0.297,0.422,0.455c0.119,0.132,0.239,0.272,0.36,0.409    c0.137,0.156,0.274,0.31,0.413,0.475c0.125,0.148,0.252,0.305,0.38,0.459c0.136,0.165,0.272,0.328,0.41,0.5    c0.129,0.161,0.259,0.331,0.389,0.498c0.137,0.176,0.273,0.35,0.413,0.532c0.132,0.174,0.265,0.358,0.399,0.538    c0.138,0.187,0.276,0.373,0.416,0.567c0.135,0.188,0.272,0.386,0.409,0.58c0.138,0.197,0.277,0.394,0.417,0.597    c0.14,0.204,0.281,0.419,0.422,0.629c0.138,0.206,0.276,0.412,0.415,0.624c0.143,0.219,0.287,0.449,0.432,0.675    c0.139,0.218,0.277,0.435,0.418,0.659c0.143,0.229,0.286,0.469,0.431,0.704c0.143,0.235,0.286,0.47,0.431,0.712    c0.142,0.239,0.286,0.489,0.43,0.735c0.146,0.251,0.292,0.501,0.439,0.759c0.144,0.252,0.288,0.515,0.434,0.774    c0.148,0.265,0.296,0.529,0.444,0.801c0.144,0.265,0.29,0.539,0.436,0.81c0.151,0.282,0.302,0.563,0.453,0.852    c0.143,0.273,0.286,0.555,0.431,0.834c0.154,0.302,0.309,0.601,0.464,0.91c0.143,0.284,0.286,0.577,0.43,0.867    c0.157,0.32,0.315,0.637,0.473,0.965c0.142,0.294,0.284,0.596,0.427,0.897c0.113,0.238,0.226,0.478,0.34,0.72    c-0.181,0.015-0.364,0.031-0.545,0.046c-1.966,0.162-3.918,0.305-5.848,0.422c-0.312,0.019-0.62,0.034-0.932,0.052    c-1.952,0.111-3.89,0.203-5.801,0.268c-0.061,0.002-0.123,0.005-0.184,0.007V19.073z M265.556,55.72v-0.118    c0.046-0.001,0.093-0.004,0.139-0.006c1.47-0.046,2.953-0.105,4.445-0.178c0.326-0.016,0.656-0.037,0.983-0.054    c1.161-0.06,2.326-0.126,3.499-0.202c0.521-0.034,1.045-0.073,1.568-0.11c0.995-0.07,1.992-0.144,2.994-0.225    c0.573-0.046,1.147-0.095,1.723-0.145c0.982-0.085,1.966-0.176,2.954-0.272c0.347-0.034,0.689-0.061,1.038-0.096    c0.567,1.5,1.107,2.978,1.635,4.45c0.144,0.402,0.286,0.803,0.429,1.203c0.482,1.363,0.953,2.72,1.405,4.069    c0.046,0.136,0.094,0.273,0.139,0.409c0.49,1.467,0.958,2.93,1.415,4.392c0.117,0.375,0.232,0.749,0.348,1.124    c0.408,1.326,0.806,2.654,1.192,3.988c0.049,0.168,0.099,0.335,0.148,0.503c0.425,1.479,0.833,2.97,1.235,4.472    c0.098,0.368,0.195,0.738,0.292,1.108c0.124,0.472,0.242,0.955,0.364,1.43c-0.381,0.029-0.762,0.058-1.143,0.086    c-1.49,0.109-2.972,0.209-4.453,0.305c-0.684,0.044-1.371,0.091-2.053,0.132c-2.121,0.128-4.233,0.243-6.332,0.344    c-0.344,0.016-0.683,0.028-1.026,0.043c-1.792,0.081-3.575,0.152-5.349,0.213c-0.67,0.023-1.336,0.041-2.004,0.061    c-1.486,0.044-2.964,0.081-4.436,0.111c-0.384,0.008-0.766,0.015-1.149,0.021V55.72z M265.556,187.475v-0.063    c2.006-0.034,4.03-0.085,6.061-0.145c0.572-0.017,1.148-0.039,1.722-0.058c1.624-0.054,3.255-0.116,4.892-0.187    c0.654-0.028,1.307-0.056,1.964-0.087c1.984-0.094,3.978-0.198,5.982-0.317c0.193-0.011,0.385-0.02,0.578-0.032    c2.186-0.132,4.386-0.282,6.594-0.444c0.635-0.046,1.273-0.096,1.909-0.145c1.677-0.128,3.359-0.264,5.046-0.41    c0.639-0.055,1.276-0.108,1.917-0.165c2.212-0.197,4.43-0.405,6.66-0.631c0.053,0.7,0.113,1.391,0.164,2.095    c0.058,0.791,0.115,1.585,0.171,2.378c0.212,2.996,0.415,6.004,0.6,9.03c0.017,0.284,0.037,0.564,0.054,0.847    c0.196,3.257,0.373,6.531,0.537,9.813c0.041,0.822,0.08,1.647,0.119,2.47c0.045,0.955,0.081,1.914,0.124,2.871    c-0.17,0.018-0.343,0.04-0.513,0.058c-0.447,0.045-0.891,0.088-1.339,0.134c-1.88,0.195-3.753,0.381-5.621,0.556    c-0.711,0.066-1.421,0.131-2.131,0.194c-1.73,0.155-3.453,0.3-5.171,0.438c-0.599,0.048-1.201,0.099-1.799,0.145    c-2.251,0.172-4.492,0.331-6.719,0.472c-0.446,0.028-0.886,0.051-1.33,0.078c-1.809,0.11-3.609,0.209-5.401,0.299    c-0.705,0.035-1.408,0.067-2.111,0.099c-1.642,0.074-3.275,0.139-4.901,0.196c-0.602,0.021-1.207,0.045-1.807,0.064    c-2.098,0.065-4.183,0.117-6.254,0.153V187.475z M265.555,232.275v-0.063c2.171-0.036,4.36-0.094,6.558-0.161    c0.649-0.02,1.301-0.045,1.953-0.067c1.666-0.058,3.34-0.125,5.021-0.201c0.686-0.031,1.372-0.061,2.062-0.094    c2.206-0.109,4.421-0.228,6.65-0.368c0.103-0.006,0.206-0.013,0.311-0.019c2.248-0.141,4.511-0.302,6.781-0.475    c0.717-0.054,1.436-0.113,2.156-0.17c1.695-0.135,3.396-0.279,5.102-0.432c0.717-0.064,1.432-0.126,2.152-0.193    c2.298-0.214,4.603-0.439,6.919-0.683c0.005,0.182,0.013,0.364,0.018,0.546c0.123,4.302,0.216,8.63,0.286,12.965    c0.016,0.999,0.028,1.998,0.042,2.998c0.054,4.07,0.089,8.145,0.095,12.215c0,0.304,0.004,0.607,0.004,0.91    c-0.221,0.024-0.444,0.052-0.665,0.076c-0.68,0.073-1.356,0.14-2.035,0.211c-1.693,0.176-3.381,0.346-5.063,0.506    c-0.792,0.075-1.584,0.149-2.374,0.22c-1.725,0.156-3.444,0.302-5.157,0.441c-0.605,0.049-1.214,0.102-1.818,0.149    c-2.279,0.176-4.546,0.338-6.801,0.482c-0.507,0.032-1.009,0.059-1.515,0.09c-1.784,0.109-3.561,0.209-5.328,0.297    c-0.719,0.036-1.436,0.07-2.154,0.102c-1.663,0.076-3.317,0.143-4.964,0.201c-0.609,0.022-1.221,0.046-1.828,0.065    c-2.15,0.068-4.286,0.121-6.408,0.158V232.275z M311.553,274.114c-0.008,0.607-0.011,1.216-0.02,1.823    c-0.012,0.776-0.026,1.553-0.04,2.329c-0.052,2.943-0.115,5.88-0.192,8.81c-0.012,0.465-0.021,0.932-0.034,1.396    c-0.091,3.284-0.2,6.553-0.322,9.811c-0.029,0.778-0.061,1.555-0.091,2.331c-0.044,1.099-0.097,2.186-0.144,3.281    c-15.555,1.672-30.7,2.642-45.153,2.892v-29.711v-0.063c2.208-0.037,4.435-0.096,6.671-0.165c0.668-0.021,1.34-0.046,2.01-0.069    c1.686-0.059,3.379-0.128,5.079-0.205c0.676-0.031,1.35-0.06,2.028-0.093c2.285-0.113,4.58-0.238,6.89-0.385    c0.184-0.012,0.371-0.026,0.555-0.038c2.149-0.138,4.309-0.292,6.478-0.459c0.705-0.054,1.413-0.111,2.121-0.168    c1.779-0.143,3.565-0.296,5.357-0.458c0.643-0.058,1.283-0.113,1.927-0.174C306.958,274.583,309.249,274.358,311.553,274.114z     M209.996,259.56c-1.832-1.078-3.681-2.115-5.548-3.108c0.009-3.506,0.028-7.014,0.074-10.521    c0.013-0.944,0.026-1.887,0.041-2.831c0.071-4.459,0.164-8.91,0.292-13.335c0.004-0.14,0.01-0.279,0.014-0.419    c2.317,0.244,4.622,0.469,6.92,0.683c0.719,0.067,1.434,0.129,2.152,0.193c1.706,0.152,3.407,0.297,5.102,0.432    c0.719,0.057,1.438,0.116,2.156,0.17c2.27,0.172,4.533,0.334,6.781,0.475c0.103,0.006,0.206,0.013,0.311,0.019    c2.23,0.139,4.444,0.258,6.65,0.368c0.689,0.034,1.374,0.064,2.062,0.094c1.681,0.076,3.354,0.143,5.021,0.201    c0.651,0.023,1.304,0.047,1.953,0.067c2.199,0.068,4.388,0.125,6.558,0.161v0.063v29.709    C237.509,261.756,223.913,260.939,209.996,259.56z M250.531,277.005v0.07v16.668c-5.391-6.277-11.134-12.07-17.189-17.337    C239.161,276.711,244.894,276.91,250.531,277.005z M244.279,217.027c-0.602-0.018-1.207-0.042-1.809-0.063    c-1.627-0.057-3.261-0.122-4.902-0.196c-0.702-0.032-1.404-0.064-2.11-0.099c-1.793-0.089-3.595-0.189-5.404-0.299    c-0.444-0.027-0.884-0.049-1.327-0.077c-2.228-0.141-4.47-0.299-6.72-0.472c-0.597-0.046-1.198-0.097-1.797-0.145    c-1.718-0.137-3.442-0.282-5.172-0.438c-0.709-0.064-1.419-0.128-2.131-0.194c-1.865-0.174-3.736-0.36-5.615-0.555    c-0.45-0.047-0.896-0.089-1.346-0.137c-0.169-0.018-0.341-0.039-0.51-0.058c0.043-0.959,0.079-1.92,0.124-2.877    c0.039-0.821,0.078-1.643,0.119-2.463c0.164-3.282,0.341-6.557,0.537-9.814c0.017-0.284,0.037-0.566,0.054-0.849    c0.185-3.026,0.388-6.034,0.6-9.03c0.056-0.79,0.112-1.582,0.17-2.37c0.052-0.704,0.111-1.397,0.165-2.1    c2.23,0.226,4.448,0.433,6.66,0.631c0.64,0.057,1.278,0.11,1.917,0.165c1.688,0.145,3.37,0.281,5.046,0.41    c0.637,0.049,1.274,0.099,1.909,0.145c2.208,0.161,4.407,0.312,6.594,0.444c0.193,0.012,0.385,0.02,0.578,0.032    c2.004,0.118,3.997,0.223,5.982,0.317c0.656,0.031,1.31,0.059,1.964,0.087c1.638,0.071,3.269,0.133,4.892,0.187    c0.574,0.019,1.15,0.041,1.722,0.058c2.031,0.06,4.054,0.111,6.061,0.145v0.063v29.706    C248.462,217.144,246.377,217.093,244.279,217.027z M208.462,169.812c0.036-0.385,0.073-0.769,0.109-1.153    c0.165-1.747,0.336-3.487,0.511-5.219c0.064-0.631,0.127-1.263,0.192-1.892c0.22-2.126,0.446-4.242,0.68-6.343    c0.013-0.118,0.025-0.237,0.039-0.356c0.248-2.216,0.507-4.411,0.77-6.596c0.073-0.607,0.149-1.21,0.223-1.814    c0.2-1.627,0.406-3.244,0.614-4.851c0.05-0.387,0.1-0.772,0.151-1.158c0.2,0.019,0.398,0.032,0.599,0.05    c2.727,0.251,5.437,0.476,8.136,0.684c0.781,0.06,1.56,0.118,2.338,0.175c2.667,0.194,5.321,0.371,7.957,0.522    c0.268,0.015,0.539,0.035,0.806,0.05c2.866,0.16,5.707,0.287,8.531,0.398c0.742,0.029,1.48,0.053,2.219,0.078    c2.351,0.08,4.687,0.144,7.006,0.188c0.393,0.008,0.794,0.025,1.186,0.032v0.063v29.704c-1.909-0.033-3.829-0.077-5.762-0.135    c-0.485-0.012-0.975-0.031-1.46-0.047c-1.636-0.054-3.28-0.117-4.931-0.189c-0.621-0.027-1.241-0.054-1.864-0.084    c-1.811-0.086-3.63-0.182-5.458-0.289c-0.321-0.019-0.637-0.034-0.958-0.053c-2.115-0.128-4.243-0.273-6.379-0.43    c-0.607-0.044-1.216-0.093-1.824-0.14c-1.606-0.123-3.217-0.253-4.834-0.393c-0.667-0.057-1.333-0.114-2.001-0.174    c-2.049-0.183-4.105-0.377-6.171-0.586c-0.128-0.013-0.254-0.024-0.383-0.037C208.491,169.816,208.477,169.814,208.462,169.812z     M249.225,127.547c-2.103-0.043-4.219-0.1-6.35-0.173c-0.743-0.025-1.487-0.05-2.233-0.079c-2.683-0.104-5.379-0.224-8.101-0.376    c-0.118-0.007-0.237-0.015-0.356-0.022c-2.616-0.147-5.254-0.323-7.902-0.513c-0.774-0.056-1.551-0.115-2.328-0.174    c-2.25-0.172-4.511-0.36-6.782-0.563c-0.431-0.038-0.858-0.073-1.289-0.113c0.063-0.412,0.128-0.821,0.192-1.231    c0.267-1.722,0.542-3.43,0.821-5.124c0.106-0.644,0.211-1.291,0.32-1.931c0.378-2.241,0.761-4.464,1.157-6.652    c0.033-0.183,0.068-0.362,0.101-0.545c0.365-2.009,0.738-3.992,1.117-5.955c0.124-0.645,0.251-1.285,0.378-1.925    c0.314-1.589,0.631-3.16,0.954-4.716c0.081-0.394,0.162-0.789,0.244-1.181c0.365,0.029,0.724,0.05,1.088,0.078    c1.953,0.151,3.899,0.292,5.837,0.421c0.694,0.046,1.387,0.091,2.08,0.134c1.981,0.124,3.955,0.236,5.919,0.337    c0.41,0.021,0.822,0.046,1.231,0.065c2.325,0.112,4.634,0.206,6.931,0.285c0.611,0.021,1.217,0.037,1.826,0.055    c1.757,0.054,3.505,0.098,5.243,0.131c0.401,0.008,0.809,0.024,1.21,0.03v0.063v29.702    C250.099,127.567,249.66,127.556,249.225,127.547z M237.56,39.052c0.142-0.299,0.286-0.603,0.43-0.901    c0.155-0.322,0.31-0.635,0.465-0.949c0.146-0.297,0.292-0.594,0.438-0.884c0.153-0.305,0.305-0.601,0.459-0.898    c0.145-0.282,0.289-0.567,0.434-0.842c0.151-0.289,0.301-0.57,0.453-0.851c0.145-0.271,0.29-0.546,0.436-0.81    c0.148-0.272,0.297-0.536,0.444-0.801c0.144-0.259,0.289-0.521,0.434-0.774c0.146-0.256,0.292-0.505,0.437-0.755    c0.144-0.248,0.289-0.5,0.434-0.741c0.142-0.239,0.284-0.471,0.426-0.703c0.145-0.238,0.29-0.479,0.435-0.711    c0.14-0.224,0.279-0.441,0.418-0.659c0.144-0.226,0.289-0.455,0.432-0.675c0.138-0.211,0.274-0.415,0.412-0.621    c0.142-0.213,0.284-0.429,0.426-0.635c0.137-0.2,0.272-0.393,0.409-0.587c0.139-0.198,0.279-0.399,0.417-0.591    c0.138-0.191,0.274-0.375,0.411-0.56c0.134-0.182,0.269-0.367,0.403-0.543c0.138-0.182,0.275-0.356,0.412-0.532    c0.13-0.166,0.26-0.337,0.389-0.498c0.137-0.171,0.273-0.335,0.41-0.5c0.126-0.153,0.253-0.311,0.38-0.459    c0.138-0.162,0.273-0.316,0.41-0.471c0.121-0.138,0.243-0.28,0.364-0.414c0.14-0.155,0.279-0.302,0.418-0.451    c0.114-0.122,0.229-0.247,0.342-0.365c0.142-0.148,0.284-0.286,0.425-0.428c0.107-0.106,0.214-0.217,0.321-0.32    c0.019-0.019,0.038-0.035,0.057-0.054v21.495c-0.061-0.002-0.123-0.005-0.184-0.007c-1.911-0.064-3.849-0.157-5.801-0.268    c-0.311-0.018-0.619-0.033-0.932-0.052c-1.931-0.117-3.883-0.259-5.848-0.422c-0.181-0.015-0.364-0.031-0.545-0.046    C237.334,39.528,237.447,39.29,237.56,39.052z M231.189,54.31c0.348,0.035,0.69,0.062,1.037,0.095    c0.989,0.096,1.973,0.187,2.955,0.272c0.575,0.05,1.149,0.099,1.722,0.145c1.003,0.081,2,0.155,2.995,0.225    c0.523,0.037,1.047,0.076,1.568,0.11c1.173,0.076,2.339,0.142,3.5,0.203c0.327,0.017,0.656,0.038,0.982,0.054    c1.492,0.072,2.975,0.132,4.446,0.178c0.046,0.001,0.093,0.004,0.139,0.006v0.118v27.053c-0.383-0.007-0.765-0.014-1.149-0.021    c-1.471-0.029-2.95-0.067-4.435-0.111c-0.668-0.02-1.334-0.038-2.004-0.061c-1.774-0.06-3.557-0.132-5.349-0.213    c-0.343-0.016-0.682-0.027-1.026-0.043c-2.099-0.099-4.211-0.215-6.332-0.344c-0.682-0.041-1.369-0.089-2.055-0.132    c-1.479-0.095-2.962-0.195-4.452-0.305c-0.381-0.028-0.762-0.058-1.143-0.086c0.122-0.476,0.24-0.958,0.364-1.43    c0.097-0.368,0.193-0.738,0.292-1.106c0.401-1.502,0.81-2.992,1.235-4.472c0.048-0.168,0.099-0.335,0.148-0.503    c0.386-1.333,0.784-2.661,1.192-3.988c0.115-0.375,0.23-0.749,0.348-1.124c0.458-1.464,0.927-2.925,1.415-4.393    c0.045-0.136,0.094-0.272,0.139-0.409c0.453-1.349,0.923-2.706,1.405-4.069c0.141-0.401,0.284-0.801,0.429-1.203    C230.082,57.289,230.622,55.811,231.189,54.31z M229.219,22.57c-0.331,0.565-0.66,1.141-0.989,1.728    c-0.04,0.072-0.081,0.148-0.121,0.22c-0.317,0.567-0.631,1.143-0.946,1.73c-0.117,0.218-0.233,0.443-0.351,0.664    c-0.238,0.451-0.476,0.905-0.713,1.366c-0.132,0.258-0.264,0.521-0.397,0.782c-0.223,0.443-0.447,0.89-0.669,1.342    c-0.133,0.27-0.266,0.543-0.399,0.817c-0.227,0.47-0.455,0.948-0.681,1.428c-0.124,0.262-0.247,0.523-0.372,0.789    c-0.255,0.549-0.51,1.108-0.763,1.671c-0.092,0.205-0.185,0.406-0.279,0.613c-0.337,0.753-0.673,1.518-1.008,2.296    c-0.096-0.013-0.19-0.024-0.286-0.037c-2.236-0.312-4.478-0.646-6.724-1.009c-0.031-0.005-0.063-0.011-0.094-0.016    C219.451,30.986,223.982,26.159,229.219,22.57z M203.514,50.307c0.37,0.066,0.738,0.126,1.107,0.193    c0.945,0.174,1.889,0.34,2.835,0.506c1.199,0.21,2.397,0.418,3.596,0.615c0.946,0.155,1.888,0.304,2.833,0.451    c0.618,0.096,1.237,0.202,1.854,0.295l-0.056,0.142l0.142,0.017c-0.145,0.399-0.282,0.793-0.426,1.191    c-0.138,0.385-0.276,0.77-0.413,1.154c-0.551,1.555-1.088,3.101-1.602,4.639c-0.063,0.189-0.123,0.38-0.186,0.569    c-0.464,1.398-0.913,2.795-1.35,4.19c-0.113,0.361-0.227,0.723-0.339,1.085c-0.471,1.528-0.931,3.057-1.373,4.595    c-0.077,0.266-0.151,0.537-0.227,0.804c-0.387,1.358-0.764,2.726-1.132,4.101c-0.093,0.348-0.187,0.695-0.279,1.044    c-0.365,1.384-0.724,2.778-1.074,4.19c-0.468-0.048-0.931-0.091-1.399-0.14c-2.17-0.23-4.353-0.485-6.54-0.742    c-1.23-0.145-2.454-0.28-3.688-0.434c-2.81-0.35-5.632-0.728-8.458-1.122c-0.564-0.078-1.124-0.146-1.688-0.226    C190.538,68.132,196.203,59.548,203.514,50.307z M178.956,91.631c1.021,0.155,2.041,0.297,3.064,0.445    c0.626,0.09,1.25,0.182,1.875,0.271c2.869,0.406,5.732,0.791,8.586,1.153c0.56,0.071,1.116,0.137,1.675,0.206    c2.546,0.315,5.085,0.615,7.613,0.896c0.515,0.057,1.031,0.118,1.544,0.173c0.239,0.026,0.48,0.055,0.719,0.081l-0.014,0.064    l0.079,0.007c-0.054,0.261-0.104,0.534-0.158,0.795c-0.351,1.713-0.694,3.446-1.034,5.196c-0.077,0.396-0.155,0.783-0.231,1.181    c-0.413,2.154-0.815,4.336-1.211,6.542c-0.094,0.524-0.184,1.057-0.277,1.584c-0.302,1.714-0.6,3.442-0.892,5.186    c-0.116,0.691-0.23,1.385-0.345,2.082c-0.284,1.73-0.561,3.474-0.833,5.23c-0.064,0.414-0.132,0.815-0.196,1.23    c-0.445-0.053-0.891-0.108-1.336-0.162c-1.653-0.2-3.309-0.409-4.969-0.625c-0.708-0.092-1.416-0.184-2.127-0.279    c-1.915-0.256-3.836-0.523-5.759-0.799c-0.365-0.052-0.728-0.101-1.094-0.154c-2.273-0.331-4.551-0.677-6.831-1.036    c-0.621-0.097-1.243-0.199-1.865-0.299c-1.711-0.274-3.423-0.555-5.137-0.844c-0.394-0.066-0.787-0.134-1.181-0.201    C171.748,109.726,175.208,100.38,178.956,91.631z M164.334,134.068c0.343,0.06,0.684,0.113,1.027,0.172    c2.022,0.348,4.043,0.685,6.062,1.013c0.693,0.112,1.385,0.223,2.079,0.334c2.106,0.334,4.207,0.657,6.307,0.969    c0.35,0.052,0.7,0.107,1.049,0.158c2.413,0.354,4.82,0.689,7.223,1.013c0.643,0.086,1.284,0.168,1.926,0.252    c1.838,0.241,3.671,0.473,5.5,0.696c0.417,0.051,0.837,0.109,1.253,0.158l-0.007,0.051l0.043,0.005    c-0.046,0.354-0.089,0.715-0.135,1.07c-0.205,1.581-0.406,3.171-0.602,4.77c-0.077,0.624-0.155,1.245-0.23,1.871    c-0.262,2.174-0.519,4.358-0.765,6.561c-0.024,0.213-0.046,0.43-0.07,0.644c-0.222,2-0.438,4.013-0.648,6.035    c-0.071,0.685-0.14,1.373-0.209,2.062c-0.165,1.633-0.327,3.273-0.483,4.918c-0.04,0.423-0.084,0.84-0.124,1.264    c-0.453-0.058-0.907-0.119-1.359-0.179c-2.081-0.272-4.165-0.556-6.254-0.851c-0.735-0.104-1.469-0.207-2.206-0.315    c-2.65-0.385-5.302-0.783-7.959-1.205c-0.176-0.028-0.353-0.058-0.529-0.086c-2.505-0.4-5.013-0.819-7.522-1.252    c-0.731-0.126-1.462-0.254-2.194-0.383c-2.256-0.397-4.511-0.806-6.766-1.228c-0.346-0.065-0.691-0.127-1.038-0.192    C159.625,152.676,161.845,143.195,164.334,134.068z M155.032,177.184c0.389,0.073,0.772,0.138,1.157,0.209    c2.304,0.431,4.609,0.848,6.913,1.253c0.747,0.131,1.494,0.262,2.241,0.392c2.767,0.476,5.531,0.939,8.294,1.376    c0.109,0.017,0.217,0.033,0.327,0.05c2.672,0.422,5.34,0.82,8.005,1.205c0.729,0.105,1.458,0.208,2.187,0.312    c2.388,0.337,4.772,0.66,7.15,0.967c0.306,0.039,0.613,0.085,0.919,0.124l-0.004,0.045l0.029,0.003    c-0.064,0.841-0.122,1.691-0.184,2.534c-0.058,0.792-0.116,1.585-0.173,2.379c-0.233,3.275-0.456,6.562-0.656,9.871    c-0.014,0.224-0.025,0.452-0.039,0.676c-0.188,3.14-0.359,6.296-0.518,9.458c-0.039,0.783-0.079,1.565-0.116,2.349    c-0.033,0.699-0.072,1.395-0.104,2.095c-0.448-0.06-0.897-0.123-1.344-0.184c-2.358-0.32-4.719-0.656-7.084-1.007    c-0.741-0.11-1.482-0.217-2.225-0.331c-2.879-0.437-5.76-0.891-8.643-1.371c-0.424-0.07-0.847-0.146-1.271-0.217    c-2.54-0.429-5.082-0.874-7.623-1.335c-0.744-0.135-1.488-0.27-2.234-0.408c-2.927-0.542-5.852-1.098-8.774-1.682    c-0.009-0.002-0.019-0.004-0.028-0.006C152.229,196.194,153.501,186.567,155.032,177.184z M149.921,221.002    c0.478,0.093,0.957,0.177,1.434,0.27c2.374,0.463,4.749,0.912,7.125,1.347c0.784,0.143,1.568,0.289,2.353,0.43    c2.925,0.525,5.851,1.033,8.775,1.515c0.459,0.076,0.917,0.145,1.375,0.22c2.552,0.415,5.102,0.812,7.65,1.195    c0.795,0.119,1.589,0.238,2.384,0.355c2.953,0.432,5.903,0.848,8.845,1.235l-0.002,0.04l0.024,0.003    c-0.016,0.534-0.028,1.072-0.043,1.607c-0.029,0.991-0.054,1.982-0.08,2.975c-0.053,2.041-0.101,4.086-0.142,6.135    c-0.02,1.006-0.041,2.01-0.059,3.017c-0.04,2.317-0.071,4.636-0.096,6.958c-0.004,0.411-0.013,0.821-0.017,1.232    c-12.971-5.12-26.587-8.323-40.563-9.406C149.117,233.724,149.463,227.329,149.921,221.002z M268.828,496.698    c-0.024,0.061-0.046,0.123-0.07,0.184l-0.638,0.031c-1.182,0.034-2.364,0.061-3.54,0.061    c-48.2-0.001-92.958-28.272-119.726-75.625c-27.912-49.378-31.941-112.757-10.833-166.546c1.392-0.048,2.786-0.072,4.17-0.072    c48.2,0,92.957,28.272,119.726,75.627c6.684,11.826,12.103,24.608,16.103,37.994c1.169,3.911,2.212,7.864,3.127,11.851    c0.065,0.285,0.123,0.573,0.187,0.858c0.833,3.705,1.566,7.438,2.182,11.192C285.26,427.238,281.59,464.037,268.828,496.698z     M270.997,322.964c-0.241-0.427-0.495-0.839-0.738-1.263c12.822-0.345,26.123-1.224,39.734-2.63l-0.004,0.076l3.202-0.381    c-11.193,8.095-21.3,18.283-29.912,30.279C279.79,339.994,275.688,331.262,270.997,322.964z M372.839,438.989    c-19.849,35.112-52.553,56.539-88.044,57.914c0.167-0.466,0.324-0.937,0.488-1.404c0.203-0.581,0.408-1.161,0.606-1.744    c0.276-0.813,0.545-1.63,0.811-2.447c0.181-0.555,0.365-1.108,0.541-1.665c0.282-0.893,0.555-1.79,0.825-2.688    c0.146-0.485,0.298-0.968,0.441-1.453c0.353-1.199,0.691-2.402,1.022-3.607c0.051-0.187,0.107-0.373,0.157-0.56    c0.38-1.4,0.744-2.807,1.096-4.216c0.098-0.396,0.189-0.794,0.285-1.191c0.246-1.014,0.49-2.027,0.721-3.045    c0.117-0.516,0.226-1.034,0.341-1.551c0.198-0.904,0.395-1.807,0.582-2.714c0.115-0.561,0.224-1.123,0.336-1.684    c0.171-0.868,0.341-1.737,0.501-2.607c0.107-0.581,0.21-1.163,0.314-1.746c0.151-0.858,0.297-1.719,0.439-2.579    c0.096-0.585,0.189-1.17,0.28-1.756c0.135-0.869,0.263-1.739,0.388-2.609c0.082-0.577,0.165-1.153,0.242-1.73    c0.12-0.896,0.232-1.792,0.342-2.689c0.067-0.553,0.137-1.105,0.2-1.659c0.11-0.963,0.208-1.926,0.306-2.891    c0.049-0.486,0.102-0.971,0.148-1.456c0.113-1.204,0.212-2.41,0.306-3.616c0.019-0.245,0.043-0.491,0.061-0.737    c0.108-1.467,0.201-2.937,0.279-4.407c0.016-0.307,0.026-0.614,0.041-0.921c0.057-1.149,0.108-2.299,0.146-3.449    c0.017-0.5,0.025-1.001,0.039-1.502c0.025-0.959,0.049-1.916,0.062-2.875c0.008-0.564,0.008-1.129,0.012-1.693    c0.005-0.896,0.008-1.793,0.002-2.69c-0.004-0.592-0.012-1.184-0.021-1.776c-0.013-0.872-0.03-1.744-0.053-2.615    c-0.016-0.602-0.035-1.204-0.056-1.807c-0.03-0.867-0.067-1.734-0.107-2.6c-0.028-0.598-0.056-1.195-0.089-1.793    c-0.049-0.883-0.105-1.766-0.165-2.648c-0.039-0.576-0.076-1.152-0.119-1.728c-0.07-0.929-0.15-1.855-0.232-2.782    c-0.047-0.527-0.089-1.055-0.139-1.582c-0.102-1.069-0.218-2.136-0.337-3.201c-0.042-0.382-0.078-0.764-0.123-1.145    c-0.169-1.45-0.352-2.9-0.55-4.346c-0.035-0.254-0.076-0.508-0.112-0.761c-0.167-1.185-0.341-2.369-0.527-3.551    c-0.079-0.501-0.167-1-0.249-1.5c-0.155-0.937-0.312-1.873-0.479-2.807c-0.101-0.563-0.209-1.124-0.315-1.685    c-0.163-0.868-0.329-1.736-0.502-2.602c-0.118-0.59-0.242-1.178-0.366-1.767c-0.176-0.838-0.356-1.675-0.542-2.51    c-0.133-0.596-0.268-1.191-0.407-1.785c-0.193-0.83-0.392-1.66-0.595-2.488c-0.144-0.588-0.29-1.175-0.439-1.761    c-0.214-0.84-0.436-1.679-0.661-2.516c-0.152-0.566-0.302-1.133-0.459-1.697c-0.063-0.226-0.12-0.454-0.184-0.68    c20.674-34.709,54.169-55.33,90.15-55.33c0.693,0,1.39,0.008,2.088,0.023C397.357,353.046,394.135,401.316,372.839,438.989z"/>
	</g>
</g>
<g>
	<g>
		<path d="M168.495,418.098l-12.716,8.004c20.23,32.14,51.405,48.562,73.996,56.68l5.081-14.141    C214.49,461.323,186.445,446.614,168.495,418.098z"/>
	</g>
</g>
<g>
	<g>
		<path d="M152.96,383.443l-14.274,4.692c3.093,9.412,6.705,18.346,10.736,26.556l13.488-6.622    C159.185,400.48,155.837,392.194,152.96,383.443z"/>
	</g>
</g>
<g>
	<g>
		<path d="M379.21,328.069l-14.216,4.864c5.968,17.449,6.264,38.017,0.878,61.131l14.633,3.41    C386.539,371.575,386.103,348.224,379.21,328.069z"/>
	</g>
</g>
<g>
</g>
<g>
</g>
<g>
</g>
<g>
</g>
<g>
</g>
<g>
</g>
<g>
</g>
<g>
</g>
<g>
</g>
<g>
</g>
<g>
</g>
<g>
</g>
<g>
</g>
<g>
</g>
<g>
</g>
</svg>
