<?xml version="1.0" encoding="iso-8859-1"?>
<!-- Generator: Adobe Illustrator 19.0.0, SVG Export Plug-In . SVG Version: 6.00 Build 0)  -->
<svg xmlns="http://www.w3.org/2000/svg" xmlns:xlink="http://www.w3.org/1999/xlink" version="1.1" id="Layer_1" x="0px" y="0px" viewBox="0 0 512 512" style="enable-background:new 0 0 512 512;" xml:space="preserve">
<g>
	<g>
		<circle cx="256.003" cy="175.796" r="8.844"/>
	</g>
</g>
<g>
	<g>
		<circle cx="256.003" cy="175.796" r="8.844"/>
	</g>
</g>
<g>
	<g>
		<path d="M508.253,374.807l-67.289-38.85v-73.416l67.289-38.847c2.319-1.339,3.748-3.813,3.748-6.491v-82.026    c0-2.678-1.429-5.152-3.748-6.491l-71.037-41.013c-2.318-1.339-5.177-1.339-7.495,0l-67.289,38.85l-67.289-38.85    c-2.318-1.339-5.177-1.339-7.495,0l-67.311,38.862l-61.816-35.69c25.257-22.062,34.464-43.737,26.628-63.282    c-1.57-3.916-3.942-7.751-7.052-11.397c-2.998-3.518-7.379-6.734-10.475-8.569l-2.435-1.439    c-3.103-1.829-8.034-4.114-12.562-5.045c-4.693-0.965-9.196-1.193-13.386-0.681c-19.501,2.391-30.977,18.245-37.72,36.754    L89.271,25.889c-9.766-9.011-22.492-13.68-35.858-13.14c-10.812,0.435-20.941,4.237-29.189,10.85l-8.506-7.848    c-3.043-2.807-7.784-2.616-10.592,0.426c-2.807,3.042-2.615,7.785,0.427,10.591l8.506,7.849    C2.23,52.087,2.776,75.26,15.199,92.147c0.059,0.083,0.123,0.163,0.185,0.244c1.815,2.435,3.866,4.744,6.177,6.878l12.363,11.408    c-17.686,8.152-32.91,20.84-33.728,40.445c-0.176,4.215,0.414,8.684,1.752,13.285c1.29,4.436,3.964,9.167,6.034,12.113    c0.543,0.772,1.086,1.544,1.63,2.311c2.08,2.942,5.637,7.05,9.385,9.758c3.883,2.806,7.895,4.863,11.926,6.115    c3.669,1.138,7.36,1.704,11.073,1.704c9.53,0,19.172-3.737,28.75-11.085v27.758L3.748,251.761C1.429,253.1,0,255.574,0,258.251    v82.026c0,2.678,1.429,5.152,3.748,6.491l67.042,38.707v77.85c0,2.678,1.429,5.152,3.748,6.491l71.037,41.013    c1.159,0.67,2.453,1.004,3.748,1.004c1.294,0,2.588-0.335,3.748-1.004l67.289-38.85l67.289,38.85    c1.159,0.67,2.453,1.004,3.748,1.004c1.294,0,2.588-0.335,3.748-1.004l67.289-38.85l67.289,38.85    c1.159,0.67,2.453,1.004,3.748,1.004c1.294,0,2.588-0.335,3.748-1.004l71.037-41.013c2.318-1.339,3.748-3.813,3.748-6.491v-82.026    C512,378.62,510.571,376.146,508.253,374.807z M369.927,139.506l63.542-36.685l63.542,36.685v73.371l-63.542,36.685    l-63.542-36.685V139.506z M227.853,139.505L227.853,139.505l63.542-36.685l63.542,36.685v73.371l-63.542,36.685l-63.542-36.685    V139.505z M212.816,139.506v73.371l-63.427,36.619l-63.656-36.752v-41.955h0.003c4.632-5.439,9.225-11.723,13.759-18.854    c3.875,1.22,7.896,1.837,11.914,1.837c4.779,0,9.549-0.866,14.061-2.573l2.23,8.264c0.902,3.343,3.927,5.544,7.231,5.544    c0.646,0,1.304-0.084,1.958-0.261c3.996-1.078,6.362-5.193,5.284-9.189l-3.436-12.73c0.592-0.567,1.174-1.149,1.737-1.759    c0.562-0.609,1.094-1.237,1.614-1.874l12.964,2.402c0.463,0.085,0.921,0.127,1.375,0.127c3.542,0,6.692-2.522,7.36-6.131    c0.755-4.07-1.934-7.981-6.003-8.735l-8.396-1.556c1.172-4.046,1.706-8.296,1.532-12.628c-0.136-3.386-0.699-6.689-1.65-9.851    l0.005-0.003L212.816,139.506z M141.062,15.314c2.57-0.315,5.445-0.152,8.543,0.484c2.144,0.441,5.495,1.819,7.972,3.277    l2.395,1.416c2.472,1.466,5.298,3.738,6.717,5.402c2.052,2.406,3.581,4.846,4.545,7.249c7.72,19.256-14.621,40.783-31.419,53.618    c-0.513-0.529-1.038-1.047-1.583-1.551c-7.76-7.161-17.834-10.864-28.393-10.447c-0.469,0.019-0.933,0.056-1.398,0.09    C110.835,55.083,118.347,18.099,141.062,15.314z M110.44,89.741c0.337-0.013,0.674-0.02,1.009-0.02    c6.181,0,12.048,2.29,16.617,6.506c4.817,4.445,7.615,10.499,7.879,17.049c0.263,6.55-2.041,12.81-6.485,17.627    c-9.178,9.943-24.731,10.568-34.675,1.393c-4.817-4.445-7.615-10.5-7.879-17.049c-0.109-2.712,0.229-5.374,0.969-7.905    c0.023-0.082,0.049-0.162,0.07-0.245c1.061-3.488,2.9-6.72,5.445-9.478C97.835,92.802,103.89,90.004,110.44,89.741z     M31.727,88.251c-0.104-0.096-0.201-0.198-0.304-0.296L53.75,63.759c2.808-3.042,2.616-7.784-0.426-10.591    c-3.043-2.807-7.783-2.616-10.591,0.426L22.837,75.157c-4.62-12.025-2.405-26.173,6.904-36.263    c0.001-0.001,0.003-0.002,0.004-0.004c0.001-0.001,0.002-0.003,0.003-0.004c6.295-6.821,14.913-10.783,24.267-11.16    c3.891-0.157,7.7,0.324,11.315,1.38l-3.199,3.467c-2.808,3.042-2.616,7.784,0.426,10.591c1.441,1.33,3.264,1.987,5.081,1.987    c2.02,0,4.033-0.811,5.51-2.412l5.639-6.112c0.105,0.095,0.214,0.184,0.319,0.28l10.554,9.739L69.233,68.781    c-2.808,3.042-2.616,7.784,0.426,10.591c1.44,1.33,3.264,1.987,5.081,1.987c2.02,0,4.032-0.811,5.51-2.412l14.703-15.934    c-0.962,5.757-1.618,11.3-2.062,16.315c-3.888,2.067-7.443,4.794-10.517,8.127c-3.075,3.332-5.508,7.094-7.256,11.137    c-4.724,0.809-10.262,1.921-16.156,3.427l3.969-4.301c2.808-3.042,2.616-7.784-0.426-10.591    c-3.041-2.808-7.784-2.617-10.591,0.426L42.282,97.99L31.727,88.251z M35.368,180.386c-2.474-0.768-5.028-2.097-7.591-3.948    c-1.774-1.281-4.265-3.914-5.926-6.264c-0.534-0.755-1.067-1.511-1.602-2.271c-1.653-2.352-3.297-5.584-3.906-7.683    c-0.883-3.037-1.276-5.89-1.169-8.477c0.949-22.733,36.267-33.16,56.731-37.299c0.003,0.467,0.003,0.933,0.022,1.403    c0.425,10.55,4.932,20.304,12.692,27.464c0.547,0.504,1.106,0.984,1.672,1.452C75.296,161.822,55.367,186.597,35.368,180.386z     M14.99,335.95v-73.37l63.427-36.619l63.414,36.612v73.386l-63.414,36.612L14.99,335.95z M212.863,458.998l-63.542,36.685    L85.78,458.998V385.76l63.656-36.752l63.427,36.619V458.998z M157.064,336.09v-73.652l63.299-36.546l63.538,36.684v73.375    l-63.538,36.684L157.064,336.09z M354.936,458.998l-63.542,36.685l-63.542-36.685v-73.371l63.542-36.685l63.542,36.685V458.998z     M298.894,335.953v-73.375l63.538-36.684l63.542,36.686v73.371l-63.542,36.686L298.894,335.953z M497.01,458.998l-63.542,36.685    l-63.542-36.685v-73.371l63.542-36.685l63.542,36.685V458.998z"/>
	</g>
</g>
<g>
	<g>
		<circle cx="108.589" cy="444.551" r="8.844"/>
	</g>
</g>
<g>
	<g>
		<circle cx="134.602" cy="467.926" r="8.844"/>
	</g>
</g>
<g>
	<g>
		<circle cx="327.007" cy="271.214" r="8.844"/>
	</g>
</g>
<g>
	<g>
		<circle cx="180.982" cy="271.214" r="8.844"/>
	</g>
</g>
<g>
	<g>
		<circle cx="394.812" cy="441.883" r="8.844"/>
	</g>
</g>
<g>
</g>
<g>
</g>
<g>
</g>
<g>
</g>
<g>
</g>
<g>
</g>
<g>
</g>
<g>
</g>
<g>
</g>
<g>
</g>
<g>
</g>
<g>
</g>
<g>
</g>
<g>
</g>
<g>
</g>
</svg>
