<?xml version="1.0" encoding="iso-8859-1"?>
<!-- Generator: Adobe Illustrator 19.0.0, SVG Export Plug-In . SVG Version: 6.00 Build 0)  -->
<svg xmlns="http://www.w3.org/2000/svg" xmlns:xlink="http://www.w3.org/1999/xlink" version="1.1" id="Capa_1" x="0px" y="0px" viewBox="0 0 511.998 511.998" style="enable-background:new 0 0 511.998 511.998;" xml:space="preserve">
<g>
	<g>
		<path d="M94.108,342.325c-23.831,0-43.218,19.388-43.218,43.218c0,23.831,19.388,43.219,43.218,43.219    c23.83,0,43.218-19.388,43.218-43.219C137.327,361.714,117.939,342.325,94.108,342.325z M94.108,413.76    c-15.559,0-28.216-12.658-28.216-28.217s12.658-28.216,28.216-28.216c15.557,0,28.216,12.657,28.216,28.216    S109.667,413.76,94.108,413.76z"/>
	</g>
</g>
<g>
	<g>
		<path d="M466.617,223.031V199.3H356.211v-66.848h-13.169v-22.226c0-5.845,4.755-10.601,10.601-10.601V84.624    c-14.117,0-25.603,11.485-25.603,25.603v22.226h-13.17v90.555h-7.183L270.93,77.671h13.985V32.345H39.96v45.325h10.93V199.3    H29.048v88.866H50.89v13.806C19.824,318.064,0,350.339,0,385.543c0,51.892,42.217,94.109,94.108,94.109    c45.712,0,84.336-32.611,92.493-76.883h107.742v10.991h-72.575v15.002h87.577v-25.993h42.493c-0.328,2.725-0.5,5.471-0.5,8.22    c0,37.861,30.802,68.663,68.663,68.663s68.663-30.802,68.663-68.663c0-2.783-0.176-5.561-0.512-8.318    c13.333-1.114,23.845-12.314,23.845-25.93v-53.916v-49.66v-3.843C512,244.097,491.725,223.531,466.617,223.031z M356.211,214.303    h95.403v8.319h-95.403V214.303z M329.872,147.456h11.337v51.845v23.322h-11.337V147.456z M54.963,47.348h214.95v15.32h-2.776    H54.963V47.348z M44.05,273.164v-58.862h6.84v58.862H44.05z M173.182,387.717c-0.064,2.193-0.225,4.444-0.479,6.717l-0.001,0.006    c-4.476,40.026-38.263,70.21-78.594,70.21c-43.619,0-79.106-35.488-79.106-79.107c0-30.971,18.247-59.257,46.487-72.063    c10.306-4.674,21.28-7.043,32.619-7.043c43.619,0,79.106,35.486,79.106,79.106C173.214,386.261,173.203,386.986,173.182,387.717z     M360.489,376.746c-0.192,0.334-0.388,0.666-0.575,1.004c-0.262,0.473-0.512,0.953-0.763,1.434    c-0.172,0.33-0.349,0.656-0.516,0.989c-0.257,0.513-0.502,1.034-0.747,1.554c-0.146,0.31-0.298,0.616-0.44,0.929    c-0.272,0.601-0.528,1.211-0.784,1.822c-0.101,0.241-0.209,0.477-0.307,0.719c-0.343,0.847-0.67,1.702-0.981,2.567H188.188    c0.019-0.745,0.029-1.486,0.029-2.222c0-3.362-0.181-6.681-0.526-9.953H361.16C360.931,375.972,360.711,376.36,360.489,376.746z     M420.003,464.65c-29.589,0-53.661-24.072-53.661-53.661c0-4.657,0.605-9.299,1.798-13.798    c6.227-23.471,27.553-39.862,51.862-39.862c4.558,0,9.011,0.576,13.28,1.667c1.423,0.364,2.825,0.785,4.204,1.26    c0.689,0.238,1.373,0.49,2.05,0.755c15.578,6.098,27.854,19.311,32.329,36.181c1.193,4.497,1.798,9.14,1.798,13.797    C473.664,440.578,449.592,464.65,420.003,464.65z M496.997,376.739c0,6.082-4.947,11.028-11.027,11.028h-1.34    c-0.311-0.867-0.64-1.724-0.983-2.573c-0.087-0.214-0.182-0.422-0.271-0.635c-0.266-0.639-0.535-1.277-0.82-1.905    c-0.135-0.299-0.281-0.591-0.42-0.888c-0.251-0.535-0.502-1.069-0.767-1.596c-0.162-0.322-0.333-0.638-0.499-0.957    c-0.257-0.492-0.514-0.984-0.782-1.468c-0.182-0.328-0.371-0.651-0.558-0.976c-0.226-0.393-0.449-0.789-0.683-1.177h18.151    V376.739z M496.998,307.822h-6.849c-5.055,0-9.168-4.113-9.168-9.168v-1.319c0-5.056,4.113-9.168,9.168-9.168h6.849V307.822z     M496.998,273.164h-6.849c-13.328,0-24.171,10.843-24.171,24.171v1.319c0,13.327,10.843,24.17,24.171,24.17h6.849v37.764H466.61    c-0.227-0.21-0.451-0.422-0.681-0.628c-0.429-0.386-0.868-0.761-1.307-1.136c-0.242-0.207-0.481-0.419-0.726-0.622    c-0.495-0.411-1-0.81-1.507-1.207c-0.198-0.156-0.392-0.317-0.592-0.47c-1.429-1.096-2.901-2.137-4.414-3.119    c-0.178-0.115-0.36-0.223-0.539-0.337c-0.577-0.367-1.155-0.731-1.743-1.081c-0.268-0.159-0.541-0.31-0.811-0.465    c-0.506-0.292-1.012-0.584-1.526-0.863c-0.309-0.168-0.622-0.327-0.934-0.49c-0.484-0.254-0.969-0.507-1.459-0.75    c-0.333-0.164-0.67-0.321-1.005-0.48c-0.477-0.226-0.955-0.451-1.438-0.666c-0.351-0.156-0.705-0.306-1.059-0.457    c-0.475-0.202-0.952-0.403-1.432-0.595c-0.366-0.146-0.733-0.286-1.102-0.426c-0.477-0.181-0.955-0.358-1.437-0.529    c-0.376-0.133-0.754-0.262-1.132-0.389c-0.482-0.161-0.965-0.317-1.452-0.468c-0.384-0.119-0.77-0.236-1.157-0.348    c-0.487-0.142-0.977-0.277-1.468-0.408c-0.391-0.104-0.782-0.208-1.176-0.305c-0.496-0.123-0.995-0.237-1.494-0.349    c-0.393-0.088-0.786-0.177-1.182-0.259c-0.509-0.105-1.022-0.199-1.535-0.292c-0.391-0.071-0.781-0.145-1.173-0.209    c-0.527-0.087-1.058-0.161-1.589-0.235c-0.384-0.054-0.767-0.112-1.153-0.159c-0.555-0.068-1.113-0.121-1.671-0.176    c-0.366-0.036-0.73-0.078-1.098-0.108c-0.619-0.051-1.241-0.084-1.863-0.118c-0.31-0.017-0.618-0.042-0.93-0.055    c-0.935-0.038-1.874-0.059-2.816-0.059c-0.942,0-1.881,0.021-2.816,0.059c-0.311,0.013-0.619,0.038-0.929,0.055    c-0.623,0.034-1.246,0.067-1.865,0.118c-0.367,0.03-0.731,0.072-1.096,0.108c-0.558,0.055-1.117,0.108-1.672,0.176    c-0.385,0.047-0.767,0.105-1.15,0.159c-0.532,0.074-1.063,0.149-1.592,0.235c-0.392,0.064-0.78,0.138-1.17,0.209    c-0.514,0.094-1.028,0.188-1.539,0.293c-0.394,0.081-0.786,0.17-1.178,0.258c-0.501,0.112-1.002,0.227-1.5,0.351    c-0.392,0.097-0.781,0.2-1.171,0.304c-0.493,0.132-0.985,0.267-1.474,0.409c-0.385,0.112-0.769,0.228-1.152,0.347    c-0.487,0.151-0.972,0.307-1.455,0.469c-0.378,0.127-0.755,0.255-1.13,0.388c-0.483,0.171-0.962,0.349-1.44,0.53    c-0.367,0.139-0.733,0.279-1.096,0.424c-0.483,0.193-0.962,0.394-1.439,0.598c-0.351,0.15-0.703,0.298-1.052,0.454    c-0.485,0.216-0.965,0.442-1.444,0.669c-0.334,0.158-0.669,0.314-1.001,0.477c-0.493,0.243-0.979,0.498-1.465,0.752    c-0.309,0.162-0.621,0.32-0.927,0.486c-0.517,0.281-1.026,0.575-1.535,0.869c-0.267,0.154-0.538,0.303-0.803,0.461    c-0.591,0.352-1.172,0.717-1.752,1.086c-0.176,0.112-0.356,0.218-0.531,0.332c-1.512,0.982-2.984,2.022-4.414,3.119    c-0.199,0.153-0.393,0.314-0.591,0.469c-0.507,0.397-1.012,0.796-1.508,1.208c-0.246,0.205-0.486,0.417-0.729,0.625    c-0.437,0.374-0.875,0.748-1.303,1.132c-0.23,0.207-0.455,0.42-0.682,0.63H184.852c-10.963-39.818-47.49-69.153-90.744-69.153    c-1.077,0-2.149,0.025-3.221,0.06c-0.29,0.01-0.579,0.022-0.868,0.034c-0.904,0.039-1.806,0.089-2.706,0.153    c-0.182,0.013-0.365,0.022-0.547,0.036c-1.052,0.081-2.101,0.182-3.148,0.299c-0.266,0.03-0.531,0.063-0.796,0.095    c-0.845,0.101-1.688,0.214-2.528,0.338c-0.255,0.038-0.51,0.072-0.764,0.112c-1.034,0.161-2.065,0.339-3.093,0.535    c-0.208,0.04-0.416,0.085-0.624,0.126c-0.852,0.169-1.702,0.35-2.549,0.542c-0.281,0.064-0.563,0.128-0.844,0.194    c-1.023,0.243-2.042,0.497-3.057,0.774c-0.078,0.021-0.154,0.045-0.232,0.067c-0.948,0.262-1.892,0.542-2.833,0.835    c-0.134,0.042-0.269,0.077-0.403,0.119v-7.589v-50.541h55.461v-15.002H65.893v-23.322V77.671h189.563l36.756,145.337H141.693    v15.002h154.313h5.84h163.84c17.266,0,31.312,14.046,31.312,31.312V273.164z"/>
	</g>
</g>
<g>
	<g>
		<path d="M228.271,91.952H88.261v116.113h170.354L228.271,91.952z M103.264,106.954h113.421l22.503,86.108H103.264V106.954z"/>
	</g>
</g>
<g>
	<g>
		<rect x="322.372" y="259.301" width="92.645" height="15.002"/>
	</g>
</g>
<g>
	<g>
		<rect x="322.372" y="279.664" width="92.645" height="15.002"/>
	</g>
</g>
<g>
	<g>
		<rect x="322.372" y="300.018" width="92.645" height="15.002"/>
	</g>
</g>
<g>
	<g>
		
			<rect x="140.372" y="119.33" transform="matrix(0.7071 -0.7071 0.7071 0.7071 -65.8419 149.7746)" width="15.002" height="70.071"/>
	</g>
</g>
<g>
	<g>
		
			<rect x="170.825" y="124.149" transform="matrix(0.7071 -0.7071 0.7071 0.7071 -54.7356 170.4023)" width="15.002" height="54.248"/>
	</g>
</g>
<g>
	<g>
		<path d="M442.448,405.026c-2.695-10.162-11.925-17.259-22.445-17.259c-10.521,0-19.75,7.097-22.445,17.257    c-0.516,1.944-0.778,3.952-0.778,5.966c0,12.805,10.418,23.223,23.223,23.223c12.805,0,23.223-10.418,23.223-23.223    C443.226,408.975,442.964,406.968,442.448,405.026z M420.003,419.209c-4.533,0-8.22-3.688-8.22-8.22    c0-0.715,0.093-1.427,0.276-2.117c0.953-3.594,4.22-6.103,7.943-6.103s6.991,2.509,7.944,6.105c0.183,0.688,0.276,1.4,0.276,2.115    C428.223,415.522,424.536,419.209,420.003,419.209z"/>
	</g>
</g>
<g>
</g>
<g>
</g>
<g>
</g>
<g>
</g>
<g>
</g>
<g>
</g>
<g>
</g>
<g>
</g>
<g>
</g>
<g>
</g>
<g>
</g>
<g>
</g>
<g>
</g>
<g>
</g>
<g>
</g>
</svg>
