<?xml version="1.0" encoding="iso-8859-1"?>
<!-- Generator: Adobe Illustrator 19.0.0, SVG Export Plug-In . SVG Version: 6.00 Build 0)  -->
<svg xmlns="http://www.w3.org/2000/svg" xmlns:xlink="http://www.w3.org/1999/xlink" version="1.1" id="Capa_1" x="0px" y="0px" viewBox="0 0 512 512" style="enable-background:new 0 0 512 512;" xml:space="preserve">
<g>
	<g>
		<rect x="225.84" y="208.3" width="15" height="15"/>
	</g>
</g>
<g>
	<g>
		<rect x="291.2" y="256" width="15" height="15"/>
	</g>
</g>
<g>
	<g>
		<rect x="278.5" y="215.8" width="15" height="15"/>
	</g>
</g>
<g>
	<g>
		<rect x="210.84" y="254.5" width="15" height="15"/>
	</g>
</g>
<g>
	<g>
		<rect x="248.5" y="241" width="15" height="15"/>
	</g>
</g>
<g>
	<g>
		<rect x="266" y="278.66" width="15" height="15"/>
	</g>
</g>
<g>
	<g>
		<rect x="225.84" y="288.7" width="15" height="15"/>
	</g>
</g>
<g>
	<g>
		<path d="M512,256c0-30.979-56.674-47.696-109.999-47.696c-12.883,0-25.535,0.943-37.398,2.71    c9.64-7.139,19.253-15.418,28.362-24.526c20.006-20.006,35.808-41.981,44.494-61.876c9.642-22.081,9.484-39.707-0.439-49.63    c-4.967-4.966-12.108-7.592-20.654-7.592c-23.817,0-59.479,20.272-90.854,51.646c-9.109,9.109-17.387,18.722-24.526,28.362    c1.767-11.864,2.71-24.516,2.71-37.398C303.695,56.674,286.979,0,256,0s-47.695,56.674-47.695,109.999    c0,12.883,0.943,25.535,2.71,37.398c-7.139-9.64-15.417-19.253-24.526-28.362c-31.374-31.374-67.036-51.646-90.854-51.646    c-8.546,0-15.688,2.625-20.654,7.592c-9.924,9.924-10.08,27.55-0.439,49.63c8.687,19.896,24.488,41.871,44.495,61.876    c9.109,9.109,18.722,17.387,28.361,24.526c-11.864-1.767-24.515-2.71-37.398-2.71C56.674,208.304,0,225.021,0,256    s56.674,47.696,109.999,47.696c12.883,0,25.535-0.943,37.398-2.71c-9.64,7.139-19.253,15.418-28.362,24.526    c-20.006,20.006-35.808,41.981-44.494,61.876c-9.641,22.081-9.484,39.706,0.439,49.63c4.966,4.966,12.108,7.591,20.654,7.592    c0.001,0,0.001,0,0.003,0c23.815,0,59.477-20.272,90.851-51.646c9.109-9.109,17.387-18.722,24.526-28.362    c-1.767,11.864-2.71,24.516-2.71,37.398c0.001,53.326,16.717,110,47.696,110s47.695-56.674,47.695-109.999    c0-12.883-0.943-25.535-2.71-37.398c7.139,9.64,15.417,19.253,24.526,28.362c31.373,31.373,67.034,51.645,90.853,51.646    c0.001,0,0.002,0,0.003,0c8.544,0,15.686-2.625,20.651-7.592c9.925-9.924,10.082-27.55,0.44-49.63    c-8.687-19.896-24.488-41.87-44.495-61.876c-9.108-9.109-18.722-17.387-28.361-24.526c11.864,1.767,24.516,2.71,37.398,2.71    C455.326,303.696,512,286.979,512,256z M336.119,129.642C368.761,97,399.942,82.389,416.365,82.389    c4.545,0,7.925,1.076,10.048,3.198c5.107,5.107,4.098,17.452-2.7,33.022c-7.955,18.219-22.642,38.559-41.355,57.272    c-17.831,17.831-37.505,32.215-54.966,40.305c-0.018-0.033-0.038-0.064-0.056-0.097c-0.061-0.109-0.126-0.215-0.188-0.324    c-0.498-0.881-1.014-1.75-1.542-2.61c-0.177-0.287-0.357-0.571-0.538-0.856c-0.453-0.716-0.916-1.423-1.39-2.123    c-0.176-0.259-0.348-0.521-0.527-0.778c-0.645-0.93-1.304-1.85-1.987-2.751c-0.034-0.044-0.07-0.087-0.103-0.132    c-0.648-0.852-1.315-1.688-1.995-2.513c-0.07-0.084-0.134-0.173-0.204-0.257l54.8-54.8l-10.607-10.606l-54.8,54.8    c-0.085-0.071-0.175-0.136-0.26-0.207c-0.81-0.668-1.631-1.323-2.468-1.96c-0.061-0.046-0.119-0.095-0.18-0.141    c-0.895-0.678-1.809-1.332-2.733-1.974c-0.268-0.186-0.54-0.366-0.81-0.549c-0.686-0.464-1.379-0.918-2.08-1.362    c-0.297-0.188-0.594-0.376-0.893-0.561c-0.831-0.511-1.672-1.009-2.523-1.491c-0.137-0.078-0.272-0.161-0.41-0.238    c-0.028-0.016-0.055-0.032-0.083-0.048C303.903,167.147,318.288,147.473,336.119,129.642z M234.56,40.259    C240.763,24.443,248.777,15,256,15s15.237,9.443,21.44,25.259c7.258,18.508,11.255,43.276,11.255,69.74    c0,25.218-3.737,49.3-10.356,67.362c-0.021-0.006-0.041-0.011-0.062-0.016c-0.121-0.034-0.244-0.063-0.366-0.097    c-0.965-0.269-1.935-0.518-2.908-0.751c-0.34-0.081-0.681-0.157-1.022-0.234c-0.802-0.181-1.606-0.35-2.413-0.506    c-0.327-0.063-0.654-0.13-0.982-0.189c-1.102-0.2-2.207-0.383-3.317-0.537c-0.068-0.009-0.136-0.016-0.203-0.025    c-1.048-0.143-2.101-0.261-3.156-0.363c-0.137-0.013-0.273-0.034-0.41-0.046V97.102h-15v77.494    c-0.137,0.013-0.273,0.033-0.41,0.046c-1.054,0.102-2.106,0.22-3.154,0.363c-0.068,0.009-0.137,0.015-0.205,0.025    c-1.11,0.154-2.214,0.337-3.316,0.537c-0.329,0.06-0.656,0.126-0.984,0.19c-0.806,0.156-1.609,0.324-2.409,0.505    c-0.343,0.077-0.685,0.154-1.027,0.235c-0.968,0.232-1.933,0.48-2.894,0.748c-0.126,0.035-0.254,0.065-0.381,0.101    c-0.02,0.006-0.039,0.01-0.059,0.016c-6.619-18.062-10.356-42.144-10.356-67.362C223.305,83.535,227.302,58.768,234.56,40.259z     M129.643,175.879c-18.713-18.711-33.4-39.05-41.355-57.27c-6.798-15.57-7.808-27.915-2.7-33.022    c2.122-2.122,5.502-3.198,10.047-3.198c16.423,0,47.604,14.611,80.246,47.253c17.831,17.831,32.216,37.505,40.306,54.967    c-0.03,0.017-0.058,0.034-0.088,0.051c-0.126,0.071-0.249,0.147-0.375,0.218c-0.864,0.489-1.718,0.995-2.561,1.514    c-0.292,0.18-0.582,0.364-0.872,0.547c-0.709,0.448-1.41,0.908-2.103,1.377c-0.265,0.179-0.532,0.356-0.794,0.538    c-0.927,0.643-1.844,1.3-2.742,1.98c-0.053,0.04-0.103,0.082-0.156,0.122c-0.845,0.643-1.673,1.304-2.491,1.978    c-0.084,0.07-0.173,0.135-0.258,0.205l-54.8-54.8l-10.607,10.606l54.8,54.8c-0.071,0.085-0.136,0.174-0.206,0.259    c-0.674,0.818-1.335,1.646-1.977,2.49c-0.04,0.052-0.082,0.103-0.122,0.155c-0.681,0.899-1.338,1.817-1.982,2.745    c-0.18,0.26-0.355,0.523-0.532,0.785c-0.472,0.697-0.933,1.402-1.384,2.114c-0.182,0.287-0.364,0.573-0.542,0.862    c-0.527,0.856-1.04,1.723-1.537,2.6c-0.063,0.112-0.13,0.22-0.193,0.332c-0.018,0.033-0.038,0.064-0.056,0.097    C167.148,208.094,147.474,193.709,129.643,175.879z M109.999,288.697c-26.464-0.001-51.231-3.998-69.739-11.257    C24.442,271.238,15,263.223,15,256c0-7.223,9.442-15.238,25.26-21.44c18.508-7.258,43.275-11.255,69.739-11.255    c25.219,0,49.3,3.737,67.361,10.357c-0.007,0.026-0.013,0.052-0.021,0.077c-0.025,0.088-0.046,0.177-0.071,0.266    c-0.279,0.997-0.536,2-0.777,3.006c-0.079,0.33-0.152,0.661-0.227,0.992c-0.183,0.812-0.354,1.626-0.512,2.443    c-0.062,0.321-0.127,0.641-0.186,0.963c-0.2,1.105-0.384,2.213-0.539,3.326c-0.008,0.061-0.014,0.122-0.022,0.183    c-0.144,1.054-0.262,2.112-0.365,3.173c-0.013,0.137-0.034,0.273-0.046,0.41H97.103v15h77.493c0.013,0.137,0.033,0.273,0.046,0.41    c0.102,1.06,0.221,2.118,0.365,3.172c0.008,0.061,0.014,0.123,0.022,0.184c0.155,1.114,0.339,2.223,0.539,3.329    c0.058,0.319,0.122,0.637,0.184,0.955c0.159,0.821,0.331,1.64,0.515,2.456c0.074,0.327,0.146,0.653,0.224,0.979    c0.244,1.019,0.504,2.035,0.787,3.046c0.021,0.075,0.039,0.15,0.06,0.225c0.008,0.028,0.014,0.055,0.022,0.083    C159.298,284.96,135.217,288.697,109.999,288.697z M175.881,382.358c-32.644,32.644-63.824,47.254-80.245,47.253    c-4.546,0-7.927-1.077-10.048-3.198c-5.107-5.107-4.098-17.452,2.7-33.022c7.955-18.22,22.642-38.559,41.354-57.272    c17.831-17.831,37.505-32.215,54.966-40.305c0.018,0.033,0.038,0.064,0.056,0.097c0.061,0.109,0.126,0.215,0.188,0.324    c0.498,0.881,1.013,1.75,1.542,2.61c0.177,0.287,0.357,0.571,0.537,0.856c0.453,0.716,0.916,1.423,1.39,2.123    c0.176,0.259,0.348,0.521,0.527,0.778c0.645,0.93,1.304,1.85,1.987,2.751c0.034,0.044,0.069,0.087,0.103,0.132    c0.648,0.852,1.315,1.688,1.995,2.513c0.07,0.084,0.134,0.173,0.204,0.257l-54.8,54.8l10.607,10.606l54.8-54.8    c0.085,0.071,0.175,0.136,0.26,0.207c0.81,0.668,1.631,1.323,2.468,1.96c0.061,0.046,0.119,0.095,0.18,0.141    c0.895,0.678,1.809,1.332,2.733,1.974c0.268,0.186,0.54,0.366,0.81,0.549c0.686,0.464,1.379,0.918,2.08,1.362    c0.297,0.188,0.594,0.376,0.893,0.561c0.831,0.511,1.672,1.009,2.523,1.491c0.137,0.078,0.272,0.161,0.41,0.238    c0.028,0.016,0.055,0.032,0.083,0.048C208.097,344.853,193.712,364.527,175.881,382.358z M216.378,309.692    c-8.418-6.211-15.302-14.329-20.047-23.789c-0.461-0.92-0.903-1.853-1.323-2.798l-0.002-0.006c-0.46-1.035-0.899-2.09-1.302-3.137    c-2.952-7.668-4.449-15.73-4.449-23.963c0-2.058,0.094-4.106,0.28-6.139c0.559-6.1,1.955-12.073,4.169-17.823    c0.403-1.049,0.843-2.106,1.305-3.144c2.104-4.725,4.725-9.149,7.797-13.204c6.758-8.921,15.694-16.055,26.09-20.683    c1.037-0.462,2.094-0.9,3.142-1.304c7.67-2.953,15.732-4.45,23.964-4.45c1.029,0,2.055,0.023,3.078,0.07    c7.163,0.327,14.174,1.796,20.886,4.381c1.042,0.4,2.099,0.839,3.142,1.303c3.78,1.683,7.367,3.697,10.727,6.008    c7.162,4.927,13.276,11.213,18.035,18.502c1.938,2.968,3.663,6.094,5.124,9.376l0.005,0.012c0.461,1.036,0.897,2.088,1.298,3.13    c2.953,7.667,4.45,15.729,4.45,23.963c0,1.029-0.023,2.056-0.07,3.079c-0.187,4.094-0.747,8.137-1.675,12.104    c-0.196,0.838-0.417,1.671-0.646,2.502c-0.042,0.152-0.075,0.305-0.118,0.457c-0.555,1.963-1.203,3.904-1.941,5.821l-0.008,0.022    c-0.399,1.036-0.834,2.086-1.295,3.121c-1.262,2.835-2.711,5.562-4.331,8.165c-7.022,11.282-17.27,20.252-29.556,25.721    c-1.042,0.464-2.099,0.903-3.142,1.304c-7.671,2.956-15.734,4.453-23.965,4.453c-1.029,0-2.055-0.023-3.078-0.07    c-7.163-0.327-14.174-1.796-20.885-4.38c-1.049-0.404-2.105-0.842-3.144-1.304c-2.835-1.262-5.562-2.711-8.165-4.331    C219.234,311.731,217.788,310.733,216.378,309.692z M277.44,471.741C271.237,487.557,263.223,497,256,497    c-7.223,0-15.237-9.443-21.44-25.259c-7.258-18.508-11.255-43.276-11.255-69.74c0-25.218,3.737-49.3,10.356-67.362    c0.021,0.006,0.042,0.011,0.062,0.017c0.121,0.034,0.243,0.063,0.364,0.097c0.966,0.269,1.936,0.519,2.909,0.752    c0.341,0.082,0.683,0.158,1.024,0.235c0.801,0.181,1.604,0.349,2.409,0.505c0.328,0.064,0.656,0.13,0.984,0.19    c1.102,0.2,2.207,0.383,3.317,0.537c0.068,0.009,0.136,0.016,0.203,0.025c1.048,0.143,2.101,0.261,3.155,0.363    c0.137,0.013,0.273,0.034,0.411,0.046V414.9h15v-77.494c0.137-0.013,0.273-0.033,0.411-0.046c1.052-0.102,2.102-0.22,3.147-0.362    c0.071-0.01,0.142-0.016,0.212-0.026c1.109-0.154,2.212-0.337,3.312-0.536c0.332-0.06,0.663-0.127,0.994-0.192    c0.8-0.155,1.598-0.322,2.394-0.502c0.347-0.078,0.694-0.155,1.04-0.238c0.96-0.23,1.916-0.476,2.868-0.741    c0.134-0.037,0.27-0.069,0.404-0.107c0.019-0.005,0.037-0.01,0.056-0.015c6.619,18.062,10.356,42.144,10.356,67.362    C288.695,428.465,284.698,453.232,277.44,471.741z M382.359,336.121c18.712,18.711,33.399,39.05,41.354,57.27    c6.798,15.57,7.808,27.915,2.699,33.022c-2.122,2.122-5.501,3.198-10.045,3.198c0,0-0.001,0-0.002,0    c-16.424-0.001-47.606-14.613-80.246-47.253c-17.831-17.831-32.216-37.505-40.306-54.967c0.03-0.017,0.058-0.034,0.088-0.051    c0.126-0.071,0.249-0.147,0.375-0.218c0.864-0.489,1.718-0.995,2.561-1.514c0.292-0.18,0.582-0.364,0.872-0.547    c0.709-0.448,1.41-0.908,2.103-1.377c0.265-0.179,0.531-0.356,0.794-0.538c0.927-0.644,1.845-1.301,2.743-1.981    c0.051-0.038,0.099-0.079,0.15-0.117c0.847-0.644,1.677-1.307,2.497-1.983c0.084-0.07,0.173-0.134,0.258-0.204l54.8,54.8    l10.607-10.606l-54.8-54.8c0.07-0.084,0.135-0.173,0.204-0.257c0.678-0.823,1.344-1.656,1.99-2.505    c0.036-0.047,0.074-0.093,0.11-0.14c0.682-0.901,1.341-1.82,1.986-2.75c0.178-0.257,0.351-0.518,0.526-0.777    c0.475-0.701,0.939-1.41,1.393-2.127c0.179-0.283,0.358-0.565,0.534-0.85c0.531-0.864,1.049-1.737,1.55-2.622    c0.059-0.105,0.122-0.206,0.181-0.311c0.019-0.034,0.039-0.066,0.058-0.1C344.854,303.906,364.528,318.291,382.359,336.121z     M334.639,278.338c0.005-0.019,0.01-0.038,0.015-0.057c0.037-0.129,0.067-0.259,0.103-0.388c0.267-0.958,0.514-1.919,0.746-2.885    c0.082-0.344,0.159-0.688,0.237-1.033c0.18-0.798,0.348-1.599,0.504-2.402c0.064-0.33,0.131-0.659,0.191-0.989    c0.199-1.101,0.383-2.204,0.537-3.313c0.01-0.071,0.016-0.143,0.026-0.214c0.142-1.045,0.26-2.094,0.362-3.146    c0.013-0.138,0.034-0.275,0.046-0.413h77.493v-15h-77.493c-0.013-0.138-0.033-0.274-0.046-0.412    c-0.102-1.053-0.22-2.103-0.362-3.149c-0.01-0.07-0.016-0.14-0.026-0.21c-0.154-1.109-0.337-2.212-0.536-3.313    c-0.06-0.331-0.127-0.661-0.191-0.992c-0.156-0.802-0.323-1.602-0.503-2.399c-0.078-0.345-0.155-0.69-0.237-1.034    c-0.231-0.965-0.479-1.927-0.746-2.885c-0.036-0.128-0.066-0.258-0.103-0.386c-0.006-0.02-0.01-0.039-0.016-0.059    c18.063-6.62,42.145-10.357,67.362-10.357c26.463,0.002,51.23,3.999,69.738,11.258C487.558,240.762,497,248.777,497,256    s-9.442,15.238-25.26,21.44c-18.508,7.258-43.275,11.255-69.739,11.255C376.783,288.695,352.701,284.958,334.639,278.338z"/>
	</g>
</g>
<g>
</g>
<g>
</g>
<g>
</g>
<g>
</g>
<g>
</g>
<g>
</g>
<g>
</g>
<g>
</g>
<g>
</g>
<g>
</g>
<g>
</g>
<g>
</g>
<g>
</g>
<g>
</g>
<g>
</g>
</svg>
