<?xml version="1.0" encoding="iso-8859-1"?>
<!-- Generator: Adobe Illustrator 19.0.0, SVG Export Plug-In . SVG Version: 6.00 Build 0)  -->
<svg xmlns="http://www.w3.org/2000/svg" xmlns:xlink="http://www.w3.org/1999/xlink" version="1.1" id="Layer_1" x="0px" y="0px" viewBox="0 0 512 512" style="enable-background:new 0 0 512 512;" xml:space="preserve">
<g>
	<g>
		<circle cx="82.908" cy="113.124" r="8.59"/>
	</g>
</g>
<g>
	<g>
		<circle cx="50.309" cy="286.725" r="8.59"/>
	</g>
</g>
<g>
	<g>
		<circle cx="74.323" cy="310.739" r="8.59"/>
	</g>
</g>
<g>
	<g>
		<path d="M511.781,237.352c-0.097-2.37-2.101-46.196-18.508-90.199c-22.501-60.348-61.27-91.214-112.201-89.309    c-50.926-1.91-89.698,28.961-112.201,89.309c-0.539,1.448-1.061,2.895-1.569,4.341c-3.986-0.269-8.055-0.339-12.214-0.183    c-3.537-0.132-7.009-0.09-10.427,0.093c-0.498-1.416-1.006-2.833-1.535-4.249c-22.502-60.348-61.286-91.211-112.2-89.309    c-50.904-1.902-89.698,28.96-112.2,89.309C2.215,191.434,0.291,235.536,0.22,237.328c-0.258,5.342-0.289,10.599-0.093,15.624    c0.162,4.141,3.659,7.37,7.792,7.205c4.141-0.162,7.367-3.65,7.205-7.792c-0.179-4.591-0.15-9.406,0.09-14.374    c0.018-0.434,1.94-43.84,17.686-85.891c20.359-54.37,53.256-81.039,97.726-79.248c0.2,0.008,0.401,0.008,0.602,0    c44.493-1.794,77.367,24.877,97.726,79.248c0.155,0.414,0.298,0.831,0.451,1.245c-38.347,7.84-67.968,37.53-86.516,87.274    c-16.512,44.282-18.437,88.383-18.508,90.176c-0.248,5.138-0.279,10.125-0.108,14.969c-28.433-0.195-82.888-7.369-102.123-56.951    c-1.499-3.863-5.844-5.781-9.711-4.281c-3.863,1.499-5.78,5.846-4.281,9.711c22.815,58.808,85.875,66.536,117.362,66.536    c0.002,0,0.005,0,0.007,0c3.279,24.105,12.459,43.947,27.446,59.21c31.931,32.522,81.88,34.763,102.117,34.179    c1.521,0.043,3.207,0.071,5.043,0.071c22.599,0,67.542-4.17,97.073-34.249c14.995-15.272,24.177-35.126,27.452-59.225    c0.479,0.004,0.955,0.009,1.457,0.009c22.599,0,67.543-4.17,97.075-34.249C503.989,305.336,513.61,275.336,511.781,237.352z     M472.479,316.006c-25.773,26.249-66.265,29.792-86.57,29.753c0.169-4.824,0.138-9.789-0.109-14.903    c-0.071-1.788-1.924-44.296-17.6-87.757c-1.406-3.899-5.706-5.918-9.606-4.513c-3.898,1.406-5.919,5.707-4.513,9.606    c14.863,41.204,16.704,82.848,16.724,83.323c1.622,33.645-6.557,59.873-24.31,77.955c-27.9,28.415-73.062,30.226-91.183,29.684    c-0.148-0.005-0.299-0.005-0.447,0c-18.122,0.544-63.284-1.269-91.183-29.685c-17.753-18.081-25.932-44.31-24.306-78.014    c0.018-0.434,1.94-43.84,17.686-85.891c20.36-54.37,53.253-81.04,97.726-79.248c0.2,0.008,0.401,0.008,0.602,0    c33.785-1.357,61.134,13.95,81.23,45.494c2.227,3.496,6.869,4.524,10.36,2.297c3.496-2.227,4.524-6.866,2.297-10.361    c-17.873-28.057-40.89-44.956-68.614-50.494c0.607,0.096,1.217,0.201,1.831,0.338c0.182-0.497,0.364-0.995,0.55-1.492    c19.72-52.664,51.187-79.331,93.573-79.331c1.373,0,2.759,0.028,4.153,0.084c0.201,0.008,0.4,0.008,0.602,0    c44.504-1.776,77.367,24.878,97.726,79.248c15.746,42.05,17.669,85.458,17.687,85.891l0.003,0.06    C498.411,271.696,490.232,297.925,472.479,316.006z"/>
	</g>
</g>
<g>
	<g>
		<circle cx="333.053" cy="113.124" r="8.59"/>
	</g>
</g>
<g>
	<g>
		<circle cx="207.07" cy="206.589" r="8.59"/>
	</g>
</g>
<g>
	<g>
		<circle cx="174.471" cy="380.189" r="8.59"/>
	</g>
</g>
<g>
	<g>
		<circle cx="198.485" cy="404.203" r="8.59"/>
	</g>
</g>
<g>
</g>
<g>
</g>
<g>
</g>
<g>
</g>
<g>
</g>
<g>
</g>
<g>
</g>
<g>
</g>
<g>
</g>
<g>
</g>
<g>
</g>
<g>
</g>
<g>
</g>
<g>
</g>
<g>
</g>
</svg>
