<?xml version="1.0" encoding="iso-8859-1"?>
<!-- Generator: Adobe Illustrator 19.0.0, SVG Export Plug-In . SVG Version: 6.00 Build 0)  -->
<svg xmlns="http://www.w3.org/2000/svg" xmlns:xlink="http://www.w3.org/1999/xlink" version="1.1" id="Capa_1" x="0px" y="0px" viewBox="0 0 512 512" style="enable-background:new 0 0 512 512;" xml:space="preserve">
<g>
	<g>
		<path d="M425.976,131.609c-16.752-19.669-26.636-44.438-28.235-70.433h16.031V0h-51.609H253.976H98.229v61.176h16.031    c-1.6,25.995-11.483,50.764-28.235,70.433C46.672,177.813,25,236.725,25,297.492c0,85.878,42.746,165.599,114.347,213.252    l1.888,1.256h229.531l1.888-1.256C444.254,463.091,487,383.37,487,297.492C487,236.725,465.328,177.813,425.976,131.609z     M362.161,15h36.61v31.176h-8.762h-7.5h-20.348V15z M268.977,15h78.185v92.754c0,4.428-3.603,8.031-8.031,8.031    c-4.428,0-8.031-3.603-8.031-8.031V69.208c0-12.7-10.332-23.031-23.031-23.031c-12.699,0-23.031,10.332-23.031,23.031v81.25    c0,4.428-3.603,8.031-8.03,8.031c-4.429,0-8.031-3.603-8.031-8.031V15z M366.212,497H145.788    C79.503,451.998,40,377.589,40,297.492c0-57.206,20.4-112.664,57.444-156.157c19.059-22.377,30.212-50.597,31.832-80.159h53.37    v-15H129.49h-7.5h-8.762V15h140.747v31.176h-52.01v15h52.01v89.281c0,12.7,10.332,23.031,23.031,23.031    c12.699,0,23.03-10.332,23.03-23.031v-81.25c0-4.428,3.603-8.031,8.031-8.031c4.428,0,8.031,3.603,8.031,8.031v38.546    c0,12.699,10.332,23.031,23.031,23.031c12.699,0,23.031-10.332,23.031-23.031V61.176h20.561    c1.62,29.562,12.774,57.782,31.832,80.159C451.6,184.828,472,240.286,472,297.492C472,377.589,432.497,451.998,366.212,497z"/>
	</g>
</g>
<g>
	<g>
		<path d="M408.231,150.522c-0.543-0.637-1.077-1.28-1.603-1.928l-11.654,9.444c0.602,0.742,1.214,1.479,1.836,2.209    c20.512,24.083,35.652,52.875,43.785,83.267l14.49-3.878C446.381,207.105,430.178,176.29,408.231,150.522z"/>
	</g>
</g>
<g>
	<g>
		<path d="M458.871,256.244l-14.74,2.783c2.354,12.468,3.604,25.275,3.717,38.066l15-0.132    C462.728,283.283,461.39,269.584,458.871,256.244z"/>
	</g>
</g>
<g>
	<g>
		<rect x="188.03" y="476.16" width="31.653" height="15"/>
	</g>
</g>
<g>
	<g>
		<path d="M157.944,476.155c-30.322-20.642-54.955-48.795-71.327-81.546l-13.418,6.707c17.874,35.756,44.949,66.387,78.3,88.583    l1.888,1.256h22.925v-15H157.944z"/>
	</g>
</g>
<g>
</g>
<g>
</g>
<g>
</g>
<g>
</g>
<g>
</g>
<g>
</g>
<g>
</g>
<g>
</g>
<g>
</g>
<g>
</g>
<g>
</g>
<g>
</g>
<g>
</g>
<g>
</g>
<g>
</g>
</svg>
