<?xml version="1.0" encoding="iso-8859-1"?>
<!-- Generator: Adobe Illustrator 19.0.0, SVG Export Plug-In . SVG Version: 6.00 Build 0)  -->
<svg xmlns="http://www.w3.org/2000/svg" xmlns:xlink="http://www.w3.org/1999/xlink" version="1.1" id="Capa_1" x="0px" y="0px" viewBox="0 0 512 512" style="enable-background:new 0 0 512 512;" xml:space="preserve">
<g>
	<g>
		<path d="M65.705,171.927l-6.082-7.831l-6.082,7.831C51.355,174.742,0,241.408,0,287.937c0,32.876,26.747,59.623,59.623,59.623    s59.623-26.746,59.623-59.623C119.245,241.408,67.89,174.742,65.705,171.927z M59.623,332.16    c-24.384,0-44.223-19.838-44.223-44.223c0-32.463,30.835-79.418,44.225-98.275c13.391,18.847,44.221,65.772,44.221,98.275    C103.845,312.321,84.007,332.16,59.623,332.16z"/>
	</g>
</g>
<g>
	<g>
		<path d="M59.744,309.348h-0.121c-12.375,0-22.443-10.068-22.443-22.443h-15.4c0,20.867,16.976,37.843,37.843,37.843l0.247-0.001    L59.744,309.348z"/>
	</g>
</g>
<g>
	<g>
		<path d="M262.083,171.927l-6.082-7.831l-6.082,7.831c-2.186,2.815-53.541,69.482-53.541,116.01    c0,32.876,26.747,59.623,59.623,59.623c32.876,0,59.623-26.746,59.623-59.623C315.623,241.408,264.268,174.742,262.083,171.927z     M256.001,332.16c-24.384,0-44.223-19.838-44.223-44.223c0-32.463,30.836-79.418,44.225-98.275    c13.391,18.847,44.221,65.772,44.221,98.275C300.223,312.321,280.385,332.16,256.001,332.16z"/>
	</g>
</g>
<g>
	<g>
		<path d="M256.123,309.348h-0.122c-12.375,0-22.443-10.068-22.443-22.443h-15.4c0,20.867,16.977,37.843,37.843,37.843l0.247-0.001    L256.123,309.348z"/>
	</g>
</g>
<g>
	<g>
		<path d="M458.459,171.927l-6.082-7.831l-6.082,7.831c-2.186,2.815-53.541,69.482-53.541,116.01    c0,32.876,26.747,59.623,59.623,59.623c32.876,0,59.623-26.747,59.623-59.623C512,241.408,460.645,174.742,458.459,171.927z     M452.377,332.16c-24.384,0-44.223-19.838-44.223-44.223c0-32.463,30.836-79.418,44.225-98.275    c13.391,18.847,44.221,65.772,44.221,98.275C496.6,312.321,476.762,332.16,452.377,332.16z"/>
	</g>
</g>
<g>
	<g>
		<path d="M452.499,309.348h-0.121c-12.375,0-22.443-10.068-22.443-22.443h-15.4c0,20.867,16.976,37.843,37.843,37.843l0.247-0.001    L452.499,309.348z"/>
	</g>
</g>
<g>
	<g>
		<path d="M163.893,8.715l-6.082-7.831l-6.082,7.831c-2.186,2.815-53.541,69.482-53.541,116.011    c0,32.877,26.747,59.623,59.623,59.623c32.876,0,59.623-26.747,59.623-59.623C217.434,78.198,166.079,11.532,163.893,8.715z     M157.811,168.949c-24.384,0-44.223-19.838-44.223-44.223c0-32.463,30.836-79.418,44.225-98.275    c13.391,18.847,44.221,65.772,44.221,98.275C202.034,149.111,182.195,168.949,157.811,168.949z"/>
	</g>
</g>
<g>
	<g>
		<path d="M157.811,146.138c-12.375,0-22.443-10.069-22.443-22.443h-15.4c0,20.866,16.977,37.843,37.843,37.843h0.185v-15.4H157.811    z"/>
	</g>
</g>
<g>
	<g>
		<path d="M360.271,8.715l-6.082-7.831l-6.082,7.831c-2.186,2.815-53.541,69.482-53.541,116.011    c0,32.877,26.747,59.623,59.623,59.623c32.876,0,59.623-26.747,59.623-59.623C413.812,78.198,362.457,11.532,360.271,8.715z     M354.189,168.949c-24.384,0-44.223-19.838-44.223-44.223c0-32.463,30.836-79.418,44.225-98.275    c13.391,18.847,44.221,65.772,44.221,98.275C398.412,149.111,378.573,168.949,354.189,168.949z"/>
	</g>
</g>
<g>
	<g>
		<path d="M354.189,146.138c-12.375,0-22.443-10.069-22.443-22.443h-15.4c0,20.866,16.976,37.843,37.843,37.843h0.185v-15.4H354.189    z"/>
	</g>
</g>
<g>
	<g>
		<path d="M163.893,335.482l-6.082-7.831l-6.082,7.831c-2.186,2.815-53.541,69.482-53.541,116.011    c0,32.876,26.747,59.623,59.623,59.623c32.876,0,59.623-26.747,59.623-59.623C217.434,404.965,166.079,338.298,163.893,335.482z     M157.811,495.716c-24.384,0-44.223-19.838-44.223-44.223c0-32.463,30.836-79.418,44.225-98.275    c13.391,18.847,44.221,65.772,44.221,98.275C202.035,475.877,182.195,495.716,157.811,495.716z"/>
	</g>
</g>
<g>
	<g>
		<path d="M157.933,472.903h-0.122c-12.374,0-22.443-10.069-22.443-22.443h-15.4c0,20.867,16.977,37.843,37.843,37.843l0.247-0.001    L157.933,472.903z"/>
	</g>
</g>
<g>
	<g>
		<path d="M360.271,335.482l-6.082-7.831l-6.082,7.831c-2.186,2.815-53.541,69.482-53.541,116.011    c0,32.876,26.747,59.623,59.623,59.623c32.876,0,59.623-26.747,59.623-59.623C413.812,404.965,362.457,338.298,360.271,335.482z     M354.189,495.716c-24.384,0-44.223-19.838-44.223-44.223c0-32.463,30.836-79.418,44.225-98.275    c13.391,18.847,44.221,65.772,44.221,98.275C398.412,475.877,378.573,495.716,354.189,495.716z"/>
	</g>
</g>
<g>
	<g>
		<path d="M354.311,472.903h-0.122c-12.374,0-22.443-10.069-22.443-22.443h-15.4c0,20.867,16.976,37.843,37.843,37.843l0.246-0.001    L354.311,472.903z"/>
	</g>
</g>
<g>
</g>
<g>
</g>
<g>
</g>
<g>
</g>
<g>
</g>
<g>
</g>
<g>
</g>
<g>
</g>
<g>
</g>
<g>
</g>
<g>
</g>
<g>
</g>
<g>
</g>
<g>
</g>
<g>
</g>
</svg>
