<?xml version="1.0" encoding="iso-8859-1"?>
<!-- Generator: Adobe Illustrator 19.0.0, SVG Export Plug-In . SVG Version: 6.00 Build 0)  -->
<svg xmlns="http://www.w3.org/2000/svg" xmlns:xlink="http://www.w3.org/1999/xlink" version="1.1" id="Layer_1" x="0px" y="0px" viewBox="0 0 512 512" style="enable-background:new 0 0 512 512;" xml:space="preserve">
<g>
	<g>
		<path d="M454.145,302.207c-4.744-1.698-9.724-2.558-14.802-2.558c-4.146,0-7.507,3.361-7.507,7.507    c0,4.146,3.361,7.507,7.507,7.507c3.349,0,6.627,0.565,9.744,1.681c0.836,0.298,1.69,0.44,2.528,0.44    c3.081,0,5.972-1.912,7.069-4.98C460.081,307.9,458.048,303.603,454.145,302.207z"/>
	</g>
</g>
<g>
	<g>
		<path d="M475.136,318.099c-2.407-3.376-7.096-4.161-10.471-1.755c-3.376,2.407-4.161,7.095-1.755,10.471    c3.442,4.827,5.292,10.524,5.352,16.472c0.041,4.12,3.394,7.432,7.505,7.432c0.025,0,0.051,0,0.076,0    c4.146-0.041,7.474-3.435,7.432-7.581C483.186,334.1,480.371,325.441,475.136,318.099z"/>
	</g>
</g>
<g>
	<g>
		<path d="M475.771,357.891c-4.146,0-7.507,3.361-7.507,7.507v12.512c0,4.146,3.361,7.507,7.507,7.507s7.507-3.361,7.507-7.507    v-12.512C483.278,361.253,479.917,357.891,475.771,357.891z"/>
	</g>
</g>
<g>
	<g>
		<path d="M453.213,267.465c-4.541-0.878-9.208-1.323-13.87-1.323c-4.146,0-7.507,3.361-7.507,7.507s3.361,7.507,7.507,7.507    c3.707,0,7.415,0.353,11.019,1.051c0.482,0.093,0.962,0.138,1.434,0.138c3.524,0,6.667-2.494,7.361-6.084    C459.945,272.191,457.282,268.253,453.213,267.465z"/>
	</g>
</g>
<g>
	<g>
		<g>
			<path d="M495.549,292.752c-5.347-6.518-11.72-12.015-18.941-16.337c-3.557-2.129-8.167-0.971-10.297,2.586     c-2.129,3.557-0.971,8.168,2.586,10.297c5.733,3.431,10.794,7.797,15.042,12.976c1.484,1.81,3.637,2.747,5.808,2.747     c1.675,0,3.36-0.558,4.757-1.704C497.711,300.687,498.178,295.958,495.549,292.752z"/>
			<path d="M496.986,339.176c0,4.146,3.361,7.507,7.507,7.507c4.146,0,7.507-3.361,7.506-7.508v-0.376     c0-8.318-1.396-16.478-4.15-24.256c-1.383-3.907-5.672-5.953-9.582-4.57c-3.908,1.383-5.955,5.673-4.57,9.582     c2.183,6.164,3.289,12.639,3.289,19.245V339.176z"/>
			<path d="M504.493,354.221c-4.146,0-7.507,3.361-7.507,7.507v22.553c0,4.146,3.361,7.507,7.507,7.507     c4.146,0,7.507-3.361,7.507-7.507v-22.553C512,357.582,508.639,354.221,504.493,354.221z"/>
		</g>
	</g>
</g>
<g>
	<g>
		<path d="M504.493,399.343c-4.146,0-7.507,3.361-7.507,7.507v12.512c0,4.146,3.361,7.507,7.507,7.507    c4.146,0,7.507-3.361,7.507-7.507V406.85C512,402.704,508.639,399.343,504.493,399.343z"/>
	</g>
</g>
<g>
	<g>
		<circle cx="67.886" cy="250.043" r="8.593"/>
	</g>
</g>
<g>
	<g>
		<circle cx="70.176" cy="283.935" r="8.593"/>
	</g>
</g>
<g>
	<g>
		<circle cx="319.077" cy="196.343" r="8.593"/>
	</g>
</g>
<g>
	<g>
		<g>
			<path d="M141.777,119.448c-0.84-0.633-1.701-1.249-2.559-1.833c-30.836-20.941-72.96-12.89-93.9,17.947     c-8.682,12.785-12.743,28.291-11.434,43.663c1.29,15.141,7.702,29.547,18.056,40.566c2.227,2.37,5.359,3.722,8.612,3.722     c0.048,0,0.095-0.001,0.143-0.002c3.31-0.04,6.475-1.477,8.681-3.943l74.09-82.778c2.205-2.462,3.284-5.762,2.962-9.052     C146.106,124.452,144.411,121.43,141.777,119.448z M60.578,206.885c-14.563-17.768-15.896-43.663-2.84-62.888l-6.211-4.217     l6.211,4.217c16.089-23.691,48.253-30.094,72.154-14.554L60.578,206.885z"/>
			<path d="M421.714,311.965l-20.441-43.996c-1.865-4.01-6.18-6.15-10.502-5.204c-4.319,0.946-7.348,4.696-7.364,9.117l-0.023,6.257     l-60.031,14.954l45.503-91.146c5.303-10.624,1.895-23.665-7.927-30.336L210.989,69.789c-9.823-6.671-23.203-5.03-31.121,3.818     l-19.625,21.926c-2.028-1.532-4.12-2.99-6.26-4.361C110.609,63.361,52.798,74.134,22.372,115.694     c-28.25,38.587-24.541,91.083,7.843,125.113L6.07,267.785c-4.581,5.119-6.729,11.964-5.892,18.781     c0.836,6.817,4.575,12.941,10.258,16.8l203.353,138.095c4.69,3.185,10.183,4.84,15.746,4.84c2.369,0,4.749-0.3,7.086-0.91     c7.822-2.043,14.378-7.364,17.99-14.597l19.44-38.94c1.55-3.105,3.97-5.643,6.996-7.341l119.45-66.981l6.741,5.59     c3.395,2.817,8.206,2.903,11.7,0.209C422.431,320.64,423.573,315.965,421.714,311.965z M397.649,301.915l-123.946,69.503     c-5.662,3.175-10.187,7.922-13.086,13.73l-19.44,38.94c-1.702,3.407-4.667,5.814-8.353,6.777     c-3.684,0.962-7.449,0.314-10.6-1.825L18.871,290.945c-2.131-1.447-3.477-3.651-3.791-6.208     c-0.313-2.556,0.459-5.021,2.177-6.939l28.941-32.335c2.756-3.079,2.505-7.805-0.56-10.576     c-31.536-28.505-36.331-75.933-11.152-110.325c16.106-21.999,41.275-33.804,66.855-33.804c15.319,0,30.787,4.236,44.538,13.053     c3.598,2.306,7.034,4.898,10.213,7.7c3.094,2.727,7.808,2.449,10.559-0.625l24.405-27.266c2.926-3.268,7.868-3.875,11.499-1.41     l149.939,101.823c3.63,2.465,4.89,7.285,2.93,11.209l-48.587,97.324c-2.087,4.18-1.567,9.04,1.355,12.686s7.556,5.208,12.09,4.08     l72.404-18.037c0.868-0.217,1.669-0.58,2.379-1.058l5.027,10.819C399.25,301.197,398.423,301.481,397.649,301.915z"/>
		</g>
	</g>
</g>
<g>
</g>
<g>
</g>
<g>
</g>
<g>
</g>
<g>
</g>
<g>
</g>
<g>
</g>
<g>
</g>
<g>
</g>
<g>
</g>
<g>
</g>
<g>
</g>
<g>
</g>
<g>
</g>
<g>
</g>
</svg>
