<?xml version="1.0" encoding="iso-8859-1"?>
<!-- Generator: Adobe Illustrator 19.0.0, SVG Export Plug-In . SVG Version: 6.00 Build 0)  -->
<svg xmlns="http://www.w3.org/2000/svg" xmlns:xlink="http://www.w3.org/1999/xlink" version="1.1" id="Layer_1" x="0px" y="0px" viewBox="0 0 512 512" style="enable-background:new 0 0 512 512;" xml:space="preserve">
<g>
	<g>
		<path d="M255.999,150.839c-26.583,0-48.211,21.761-48.211,48.509s21.627,48.508,48.211,48.508s48.211-21.76,48.211-48.508    S282.583,150.839,255.999,150.839z M255.999,232.847c-18.309,0-33.203-15.028-33.203-33.5c0-18.472,14.894-33.5,33.203-33.5    s33.203,15.028,33.203,33.5S274.308,232.847,255.999,232.847z"/>
	</g>
</g>
<g>
	<g>
		<path d="M399.513,125.108L268.719,4.996c-7.252-6.66-18.188-6.661-25.438-0.001L112.486,125.109    c-3.826,3.514-5.079,8.912-3.195,13.751c1.886,4.839,6.46,7.967,11.654,7.967h16.438v135.359c0,6.285,5.113,11.398,11.398,11.398    h84.569l0.004,66.497c0,4.144,3.361,7.504,7.505,7.504c4.145,0,7.505-3.361,7.505-7.505l-0.004-66.068h15.28l0.013,202.813h-15.28    l-0.006-97.655c0-4.145-3.361-7.505-7.505-7.503c-4.144,0-7.503,3.361-7.503,7.505l0.007,105.325c0,4.145,3.361,7.505,7.505,7.504    c0.537,0,1.062-0.059,1.567-0.167h26.571v-0.15c0.681,0.204,1.403,0.316,2.151,0.316c4.145,0,7.504-3.361,7.504-7.505    l-0.013-210.91h84.568c6.285,0,11.398-5.113,11.398-11.398v-41.834c0-4.145-3.36-7.505-7.505-7.505    c-4.145,0-7.504,3.36-7.504,7.505v38.224H152.393V143.836l103.607-92.795l103.607,92.795v55.51c0,4.145,3.36,7.505,7.504,7.505    c4.145,0,7.505-3.36,7.505-7.505v-52.519h16.438c5.194,0,9.769-3.128,11.654-7.967    C404.593,134.02,403.339,128.622,399.513,125.108z M368.701,131.817v0.001L264.38,37.646c-4.778-4.313-11.986-4.314-16.762,0    l-104.321,94.173h-15.929L253.433,16.048c1.438-1.322,3.693-1.322,5.133,0l126.065,115.769H368.701z"/>
	</g>
</g>
<g>
	<g>
		<circle cx="173.451" cy="237.82" r="8.59"/>
	</g>
</g>
<g>
	<g>
		<circle cx="197.472" cy="261.841" r="8.59"/>
	</g>
</g>
<g>
	<g>
		<circle cx="288.114" cy="125.688" r="8.59"/>
	</g>
</g>
<g>
</g>
<g>
</g>
<g>
</g>
<g>
</g>
<g>
</g>
<g>
</g>
<g>
</g>
<g>
</g>
<g>
</g>
<g>
</g>
<g>
</g>
<g>
</g>
<g>
</g>
<g>
</g>
<g>
</g>
</svg>
