<?xml version="1.0" encoding="iso-8859-1"?>
<!-- Generator: Adobe Illustrator 19.0.0, SVG Export Plug-In . SVG Version: 6.00 Build 0)  -->
<svg xmlns="http://www.w3.org/2000/svg" xmlns:xlink="http://www.w3.org/1999/xlink" version="1.1" id="Capa_1" x="0px" y="0px" viewBox="0 0 512 512" style="enable-background:new 0 0 512 512;" xml:space="preserve">
<g>
	<g>
		<polygon points="113.156,193.969 105.656,206.959 141.248,227.508 141.248,244.681 156.248,244.681 156.248,218.848   "/>
	</g>
</g>
<g>
	<g>
		<rect x="141.25" y="251.8" width="15" height="15.913"/>
	</g>
</g>
<g>
	<g>
		<polygon points="278.823,193.969 271.323,206.959 306.914,227.508 306.914,244.681 321.914,244.681 321.914,218.848   "/>
	</g>
</g>
<g>
	<g>
		<rect x="306.91" y="251.8" width="15" height="15.913"/>
	</g>
</g>
<g>
	<g>
		<path d="M429.167,156.005V60.37L338.833,8.215L256,56.039L173.167,8.215L82.833,60.37v95.635L0,203.829v104.308l82.833,47.824    v95.67l90.333,52.154L256,455.961l82.833,47.824l90.333-52.154v-95.67L512,308.137V203.829L429.167,156.005z M263.5,69.03    l75.333-43.494l75.334,43.494v86.975l-75.333,43.494L263.5,156.005V69.03z M97.834,69.03l75.333-43.494L248.5,69.03v86.975    l-75.333,43.494l-75.333-43.494V69.03z M15,299.477v-86.988l75.323-43.488l75.344,43.5v86.976L90.333,342.97L15,299.477z     M248.499,442.97l-75.333,43.494L97.833,442.97v-86.987l75.333-43.494l75.333,43.494V442.97z M180.667,299.476V212.5L256,169.007    l75.333,43.494v86.976L256,342.97L180.667,299.476z M338.834,486.464L263.5,442.97v-86.987l75.333-43.494l75.333,43.494v86.987    h0.001L338.834,486.464z M497,299.477l-75.333,43.494l-75.333-43.494v-86.976l75.344-43.5L497,212.489V299.477z"/>
	</g>
</g>
<g>
	<g>
		<polygon points="444.489,193.969 436.989,206.959 472.581,227.508 472.581,244.681 487.581,244.681 487.581,218.848   "/>
	</g>
</g>
<g>
	<g>
		<rect x="472.58" y="251.8" width="15" height="15.913"/>
	</g>
</g>
<g>
	<g>
		<polygon points="195.989,50.51 188.489,63.5 224.081,84.049 224.081,101.221 239.081,101.221 239.081,75.389   "/>
	</g>
</g>
<g>
	<g>
		<rect x="224.08" y="108.34" width="15" height="15.913"/>
	</g>
</g>
<g>
	<g>
		<polygon points="361.656,50.51 354.156,63.5 389.748,84.049 389.748,101.221 404.748,101.221 404.748,75.389   "/>
	</g>
</g>
<g>
	<g>
		<rect x="389.75" y="108.34" width="15" height="15.913"/>
	</g>
</g>
<g>
	<g>
		<polygon points="195.989,337.463 188.489,350.453 224.081,371.002 224.081,388.175 239.081,388.175 239.081,362.342   "/>
	</g>
</g>
<g>
	<g>
		<rect x="224.08" y="395.29" width="15" height="15.913"/>
	</g>
</g>
<g>
	<g>
		<polygon points="361.656,337.463 354.156,350.453 389.748,371.002 389.748,388.175 404.748,388.175 404.748,362.342   "/>
	</g>
</g>
<g>
	<g>
		<rect x="389.75" y="395.29" width="15" height="15.913"/>
	</g>
</g>
<g>
</g>
<g>
</g>
<g>
</g>
<g>
</g>
<g>
</g>
<g>
</g>
<g>
</g>
<g>
</g>
<g>
</g>
<g>
</g>
<g>
</g>
<g>
</g>
<g>
</g>
<g>
</g>
<g>
</g>
</svg>
