<?xml version="1.0" encoding="iso-8859-1"?>
<!-- Generator: Adobe Illustrator 19.0.0, SVG Export Plug-In . SVG Version: 6.00 Build 0)  -->
<svg xmlns="http://www.w3.org/2000/svg" xmlns:xlink="http://www.w3.org/1999/xlink" version="1.1" id="Layer_1" x="0px" y="0px" viewBox="0 0 511.999 511.999" style="enable-background:new 0 0 511.999 511.999;" xml:space="preserve">
<g>
	<g>
		<path d="M369.19,285.932c-0.532-6.793-6.316-12.115-13.167-12.115h-92.536v-48.668h19.192c7.424,0,13.464-6.039,13.464-13.464    V40.146C296.144,18.01,278.133,0,255.997,0s-40.145,18.01-40.145,40.146V92.88c0,4.137,3.353,7.49,7.49,7.49    c4.138,0,7.49-3.354,7.49-7.49V40.146c0-13.876,11.289-25.165,25.164-25.165c13.877,0,25.165,11.289,25.165,25.165v170.022    h-17.675V184.1c0-4.137-3.353-7.49-7.49-7.49s-7.49,3.354-7.49,7.49v26.068h-17.674v-78.671c0-4.137-3.353-7.49-7.49-7.49    s-7.49,3.354-7.49,7.49v80.188c0,7.424,6.04,13.464,13.464,13.464h19.191v48.668H155.97c-6.85,0-12.634,5.322-13.167,12.114    c-3.359,42.798-0.449,80.907,8.646,113.273c7.507,26.711,19.253,49.704,34.911,68.338c27.226,32.4,57.767,41.927,66.479,44.076    c1.033,0.255,2.095,0.382,3.157,0.382c1.062,0,2.125-0.128,3.158-0.383c6.099-1.504,27.759-7.943,50.364-27.641    c28.788-25.088,47.657-60.974,56.083-106.661c0.75-4.068-1.939-7.975-6.008-8.725c-4.065-0.75-7.974,1.939-8.725,6.007    c-7.797,42.276-25.021,75.277-51.194,98.084c-19.556,17.043-37.878,22.798-43.677,24.283c-6.336-1.629-33.829-10.095-58.168-39.06    c-32.219-38.343-45.749-95.232-40.222-169.107h90.899v67.545c0,4.137,3.353,7.49,7.49,7.49c4.138,0,7.49-3.354,7.49-7.49v-67.545    h90.899c1.29,17.286,1.524,33.888,0.694,49.372c-0.222,4.131,2.947,7.659,7.079,7.881c4.118,0.219,7.659-2.947,7.881-7.079    C370.932,322.326,370.647,304.481,369.19,285.932z"/>
	</g>
</g>
<g>
	<g>
		<circle cx="205.764" cy="424.102" r="8.574"/>
	</g>
</g>
<g>
	<g>
		<circle cx="229.733" cy="448.071" r="8.574"/>
	</g>
</g>
<g>
	<g>
		<circle cx="314.134" cy="313.585" r="8.574"/>
	</g>
</g>
<g>
</g>
<g>
</g>
<g>
</g>
<g>
</g>
<g>
</g>
<g>
</g>
<g>
</g>
<g>
</g>
<g>
</g>
<g>
</g>
<g>
</g>
<g>
</g>
<g>
</g>
<g>
</g>
<g>
</g>
</svg>
