<?xml version="1.0" encoding="iso-8859-1"?>
<!-- Generator: Adobe Illustrator 19.0.0, SVG Export Plug-In . SVG Version: 6.00 Build 0)  -->
<svg xmlns="http://www.w3.org/2000/svg" xmlns:xlink="http://www.w3.org/1999/xlink" version="1.1" id="Layer_1" x="0px" y="0px" viewBox="0 0 512.002 512.002" style="enable-background:new 0 0 512.002 512.002;" xml:space="preserve">
<g>
	<g>
		<path d="M511.596,267.9l0.08-0.004c-0.662-13.976-4.141-27.389-10.343-39.866c-0.568-1.144-1.164-2.288-1.771-3.399    c-1.982-3.63-6.533-4.967-10.163-2.985c-3.631,1.982-4.967,6.532-2.985,10.163c0.515,0.944,1.022,1.915,1.505,2.888    c5.272,10.609,8.231,22.017,8.797,33.91c0.003,0.063,0.007,0.132,0.012,0.196c0.02,0.274,1.915,27.758-5.218,62.742    c-6.503,31.893-22.085,76.815-59.39,109.71c-0.155,0.136-0.304,0.279-0.445,0.426c-10.09,10.494-23.647,16.272-38.174,16.272    c-17.252,0-33.476-8.447-43.398-22.594c-2.24-3.196-5.899-5.103-9.787-5.104c-0.001,0-0.001,0-0.002,0    c-3.888,0-7.547,1.907-9.789,5.104c-9.922,14.148-26.145,22.595-43.397,22.595c-14.526,0-28.083-5.779-38.174-16.272    c-0.143-0.148-0.292-0.291-0.445-0.426c-4.95-4.365-9.494-8.952-13.709-13.683c4.118-6.41,7.82-13.238,11.088-20.444    c0.319,0.036,0.641,0.058,0.97,0.058c4.735,0,8.573-3.839,8.573-8.573c0-2.804-1.353-5.287-3.435-6.851    c2.78-8.054,5.089-16.479,6.865-25.261c5.57-27.548,4.234-48.846,4.11-50.605c-2.027-41.505-36.161-74-77.759-74    c-16.42,0-31.957,4.993-44.992,14.281c0.334-7.649,0.448-17.191-0.163-27.21c-0.012-0.199-0.028-0.391-0.04-0.588    c0.153,0.08,0.299,0.16,0.454,0.241c3.931,2.044,8.043,3.73,12.224,5.009c0.73,0.224,1.468,0.33,2.194,0.33    c3.206,0,6.173-2.075,7.159-5.301c1.21-3.956-1.016-8.143-4.971-9.353c-3.31-1.013-6.571-2.35-9.694-3.974    c-2.796-1.455-5.088-2.831-6.753-3.897c0.133-1.972,0.388-4.633,0.881-7.744c2.874-18.164,13.981-33.351,30.472-41.667    s35.306-8.218,51.618,0.27c2.823,1.469,5.127,2.856,6.753,3.897c-0.136,2.022-0.394,4.656-0.884,7.746    c-3.24,20.469-16.854,37.013-36.422,44.256c-3.879,1.436-5.86,5.745-4.424,9.625c1.436,3.879,5.744,5.857,9.625,4.424    c18.985-7.029,33.885-21.615,41.443-39.791c9.26-3.42,19.263-5.3,29.704-5.3c23.777,0,45.87,9.524,62.212,26.818    c2.256,2.389,5.429,3.758,8.703,3.758c3.274,0,6.446-1.37,8.702-3.758c16.342-17.294,38.435-26.818,62.212-26.818    c18.922,0,36.851,6.049,51.853,17.491c3.29,2.51,7.99,1.876,10.498-1.412c2.51-3.289,1.876-7.989-1.412-10.498    c-17.633-13.452-38.706-20.561-60.939-20.561c-22.948,0-44.559,7.556-62.188,21.513c0.611-10.72,0.993-25.36,0.046-40.886    c-0.095-1.559-0.206-3.09-0.324-4.607c1.362,0.773,2.824,1.575,4.4,2.394c5.068,2.637,10.371,4.81,15.761,6.459    c3.954,1.208,8.143-1.015,9.353-4.971c1.21-3.956-1.016-8.143-4.971-9.353c-4.519-1.382-8.97-3.207-13.23-5.424    c-4.484-2.333-8.013-4.52-10.313-6.039c0.146-2.754,0.484-6.89,1.274-11.88c3.925-24.803,19.089-45.54,41.606-56.894    c22.516-11.354,48.206-11.219,70.482,0.37c4.432,2.306,7.917,4.452,10.313,6.037c-0.15,2.87-0.496,6.945-1.278,11.884    c-5.026,31.77-28.731,56.71-60.389,63.538c-4.045,0.873-6.615,4.857-5.742,8.901c0.757,3.511,3.862,5.912,7.313,5.912    c0.523,0,1.056-0.055,1.587-0.17c37.753-8.143,66.025-37.912,72.027-75.84c1.044-6.596,1.4-11.885,1.517-15.159    c0.152-4.239-1.853-8.208-5.367-10.617c-2.703-1.853-7.164-4.706-13.066-7.777c-26.603-13.84-57.271-14.007-84.142-0.457    c-22.44,11.316-38.756,30.453-46.259,53.706c-5.531-14.356-13.326-24.427-23.351-30.089c-3.602-2.035-8.17-0.764-10.205,2.838    c-2.034,3.602-0.764,8.171,2.838,10.205c25.798,14.57,27.344,75.388,25.049,109.867c-18.047-15.201-40.579-23.462-64.572-23.462    c-8.625,0-16.992,1.108-24.987,3.15c0.689-4.621,0.941-8.356,1.025-10.723c0.137-3.835-1.677-7.424-4.849-9.597    c-2.082-1.428-5.52-3.627-10.069-5.994c-20.639-10.738-44.432-10.868-65.278-0.356c-16.036,8.087-28.04,21.324-34.383,37.463    c-4.173-8.888-9.684-15.298-16.521-19.16c-3.601-2.035-8.171-0.764-10.205,2.838c-2.034,3.602-0.764,8.171,2.838,10.205    c17.686,9.99,19.449,52.165,18.188,77.814c-13.468-10.322-29.822-15.91-47.168-15.91c-41.606,0-75.745,32.508-77.761,74.024    c-0.133,1.916-1.434,23.15,4.112,50.582c7.571,37.443,24.487,68.666,48.931,90.32c10.107,10.393,23.632,16.112,38.121,16.112    c15.492,0,30.157-6.781,40.21-18.369c10.051,11.588,24.717,18.369,40.209,18.369c14.488,0,28.013-5.719,38.121-16.112    c5.74-5.085,11.048-10.717,15.935-16.813c3.987,4.315,8.15,8.423,12.509,12.281c12.918,13.315,30.218,20.644,48.753,20.644    c20.749,0,40.337-9.522,53.186-25.661c12.851,16.14,32.437,25.661,53.186,25.661c18.535,0,35.837-7.329,48.753-20.644    c31.971-28.294,54.108-69.159,64.023-118.199c3.897-19.273,5.158-36.213,5.529-47.031    C512.174,276.364,511.981,270.878,511.596,267.9z M199.798,445.785c-0.154,0.136-0.303,0.279-0.445,0.426    c-7.28,7.572-17.061,11.741-27.542,11.741c-12.447,0-24.153-6.095-31.313-16.303c-2.036-2.903-5.362-4.637-8.896-4.637    c-3.535,0-6.861,1.734-8.897,4.637c-7.159,10.208-18.866,16.303-31.313,16.303c-10.481,0-20.262-4.169-27.542-11.741    c-0.143-0.148-0.292-0.291-0.445-0.426c-53.254-46.96-48.336-127.297-48.23-128.851c0.005-0.071,0.01-0.143,0.013-0.215    c1.591-33.558,29.177-59.843,62.801-59.843c17.467,0,33.699,6.998,45.703,19.701c2.05,2.17,4.932,3.414,7.909,3.414    c2.976,0,5.859-1.245,7.907-3.413c12.006-12.705,28.237-19.702,45.704-19.702c33.625,0,61.211,26.287,62.802,59.843    c0.003,0.063,0.007,0.133,0.012,0.195C248.087,317.726,253.3,398.609,199.798,445.785z"/>
	</g>
</g>
<g>
	<g>
		<circle cx="270.828" cy="422.577" r="8.573"/>
	</g>
</g>
<g>
	<g>
		<circle cx="410.65" cy="222.926" r="8.573"/>
	</g>
</g>
<g>
	<g>
		<circle cx="62.853" cy="400.596" r="8.573"/>
	</g>
</g>
<g>
	<g>
		<circle cx="86.826" cy="424.564" r="8.573"/>
	</g>
</g>
<g>
	<g>
		<circle cx="183.006" cy="291.833" r="8.573"/>
	</g>
</g>
<g>
</g>
<g>
</g>
<g>
</g>
<g>
</g>
<g>
</g>
<g>
</g>
<g>
</g>
<g>
</g>
<g>
</g>
<g>
</g>
<g>
</g>
<g>
</g>
<g>
</g>
<g>
</g>
<g>
</g>
</svg>
