<?xml version="1.0" encoding="iso-8859-1"?>
<!-- Generator: Adobe Illustrator 19.0.0, SVG Export Plug-In . SVG Version: 6.00 Build 0)  -->
<svg xmlns="http://www.w3.org/2000/svg" xmlns:xlink="http://www.w3.org/1999/xlink" version="1.1" id="Capa_1" x="0px" y="0px" viewBox="0 0 512 512" style="enable-background:new 0 0 512 512;" xml:space="preserve">
<g>
	<g>
		<path d="M476.746,291.588c-1.246-35.278-11.264-68.272-28.533-93.592c-19.085-27.985-44.747-43.397-72.258-43.397    c-27.51,0-53.172,15.412-72.258,43.397c-17.268,25.32-27.286,58.314-28.532,93.592h-39.124    c-1.246-35.278-11.264-68.272-28.533-93.592c-19.085-27.985-44.747-43.397-72.258-43.397c-27.51,0-53.172,15.412-72.258,43.397    c-17.268,25.32-27.286,58.314-28.532,93.592H0v62.073h23.798l25,146.267h172.906l25-146.267h18.592l25,146.267h172.906l25-146.267    H512v-62.073H476.746z M375.955,169.599c45.708,0,83.195,54.067,85.783,121.989H290.173    C292.761,223.667,330.247,169.599,375.955,169.599z M135.251,169.599c45.708,0,83.195,54.067,85.783,121.989H49.469    C52.057,223.667,89.543,169.599,135.251,169.599z M497,338.661h-15.125h-6.327h-99.593v15h97.029l-22.436,131.267H302.95    l-22.436-131.267h69.619v-15H277.95h-6.327H234.05l-25,146.267H61.452L39.016,353.661h105.337v-15h-107.9h-6.327H15v-32.073    h19.326h201.851h38.854h201.851H497V338.661z"/>
	</g>
</g>
<g>
	<g>
		<path d="M306.468,246.876c-2.422,7.808-4.297,16.049-5.573,24.494l14.832,2.241c1.164-7.701,2.869-15.202,5.067-22.293    L306.468,246.876z"/>
	</g>
</g>
<g>
	<g>
		<path d="M359.217,182.288c-20.017,6.749-37.126,25.176-48.176,51.887l13.861,5.734c9.232-22.32,23.487-38.141,39.106-43.407    L359.217,182.288z"/>
	</g>
</g>
<g>
	<g>
		<path d="M65.763,246.876c-2.421,7.808-4.296,16.049-5.573,24.494l14.832,2.241c1.164-7.701,2.869-15.202,5.067-22.293    L65.763,246.876z"/>
	</g>
</g>
<g>
	<g>
		<path d="M118.514,182.288c-20.016,6.749-37.125,25.175-48.177,51.887l13.861,5.734c9.234-22.32,23.488-38.141,39.107-43.407    L118.514,182.288z"/>
	</g>
</g>
<g>
	<g>
		<rect x="173.25" y="339.662" width="46.24" height="15"/>
	</g>
</g>
<g>
	<g>
		<rect x="248.5" y="12.072" width="15" height="67.28"/>
	</g>
</g>
<g>
	<g>
		<rect x="317.217" y="68.805" transform="matrix(0.7071 -0.7071 0.7071 0.7071 48.8077 270.4427)" width="67.279" height="15"/>
	</g>
</g>
<g>
	<g>
		<rect x="153.631" y="42.662" transform="matrix(0.7071 -0.7071 0.7071 0.7071 -6.7593 136.2847)" width="15" height="67.279"/>
	</g>
</g>
<g>
</g>
<g>
</g>
<g>
</g>
<g>
</g>
<g>
</g>
<g>
</g>
<g>
</g>
<g>
</g>
<g>
</g>
<g>
</g>
<g>
</g>
<g>
</g>
<g>
</g>
<g>
</g>
<g>
</g>
</svg>
