<?xml version="1.0" encoding="iso-8859-1"?>
<!-- Generator: Adobe Illustrator 19.0.0, SVG Export Plug-In . SVG Version: 6.00 Build 0)  -->
<svg xmlns="http://www.w3.org/2000/svg" xmlns:xlink="http://www.w3.org/1999/xlink" version="1.1" id="Layer_1" x="0px" y="0px" viewBox="0 0 512 512" style="enable-background:new 0 0 512 512;" xml:space="preserve">
<g>
	<g>
		<path d="M256,0c-4.158,0-7.528,3.37-7.528,7.528v63.728c0,4.158,3.37,7.528,7.528,7.528c4.158,0,7.528-3.37,7.528-7.527V7.528    C263.528,3.37,260.158,0,256,0z"/>
	</g>
</g>
<g>
	<g>
		<path d="M256,433.215c-4.158,0-7.528,3.37-7.528,7.528v63.729c0,4.158,3.37,7.528,7.528,7.528c4.158,0,7.528-3.37,7.528-7.528    v-63.729C263.528,436.585,260.158,433.215,256,433.215z"/>
	</g>
</g>
<g>
	<g>
		<path d="M170.148,92.243l-31.865-55.191c-2.079-3.602-6.682-4.835-10.283-2.755c-3.601,2.079-4.834,6.683-2.755,10.283    l31.865,55.191c1.394,2.415,3.925,3.766,6.526,3.766c1.278,0,2.572-0.325,3.758-1.01    C170.993,100.448,172.227,95.844,170.148,92.243z"/>
	</g>
</g>
<g>
	<g>
		<path d="M386.756,467.419l-31.865-55.191c-2.079-3.602-6.683-4.835-10.283-2.755c-3.601,2.079-4.834,6.683-2.755,10.283    l31.865,55.191c1.395,2.415,3.925,3.766,6.526,3.766c1.278,0,2.571-0.325,3.758-1.01    C387.601,475.623,388.835,471.019,386.756,467.419z"/>
	</g>
</g>
<g>
	<g>
		<path d="M99.772,157.109l-55.191-31.865c-3.602-2.079-8.206-0.845-10.284,2.755c-2.079,3.602-0.845,8.205,2.755,10.283    l55.191,31.865c1.185,0.685,2.479,1.01,3.757,1.01c2.601,0,5.131-1.352,6.527-3.766    C104.606,163.791,103.373,159.188,99.772,157.109z"/>
	</g>
</g>
<g>
	<g>
		<path d="M474.948,373.716l-55.191-31.865c-3.602-2.08-8.206-0.845-10.283,2.755c-2.079,3.602-0.845,8.205,2.755,10.283    l55.191,31.865c1.185,0.685,2.479,1.01,3.757,1.01c2.602,0,5.132-1.351,6.527-3.766    C479.782,380.398,478.548,375.795,474.948,373.716z"/>
	</g>
</g>
<g>
	<g>
		<path d="M71.257,248.472H7.528C3.37,248.472,0,251.842,0,256c0,4.158,3.37,7.528,7.528,7.528h63.729    c4.157,0,7.528-3.37,7.528-7.528S75.415,248.472,71.257,248.472z"/>
	</g>
</g>
<g>
	<g>
		<path d="M504.472,248.472h-63.729c-4.158,0-7.528,3.37-7.528,7.528c0,4.158,3.37,7.528,7.528,7.528h63.729    c4.158,0,7.528-3.37,7.528-7.528S508.63,248.472,504.472,248.472z"/>
	</g>
</g>
<g>
	<g>
		<path d="M102.527,344.606c-2.079-3.601-6.683-4.834-10.283-2.755l-55.191,31.865c-3.601,2.079-4.834,6.683-2.755,10.283    c1.395,2.415,3.925,3.766,6.526,3.766c1.277,0,2.571-0.325,3.758-1.01l55.191-31.865    C103.373,352.811,104.606,348.207,102.527,344.606z"/>
	</g>
</g>
<g>
	<g>
		<path d="M477.703,128c-2.079-3.602-6.683-4.834-10.283-2.755l-55.191,31.865c-3.601,2.079-4.834,6.683-2.755,10.283    c1.395,2.415,3.925,3.766,6.526,3.766c1.278,0,2.571-0.326,3.758-1.01l55.191-31.865C478.548,136.204,479.782,131.6,477.703,128z"/>
	</g>
</g>
<g>
	<g>
		<path d="M167.394,409.473c-3.602-2.08-8.206-0.845-10.284,2.755l-31.865,55.191c-2.079,3.602-0.845,8.205,2.755,10.283    c1.186,0.685,2.479,1.01,3.757,1.01c2.601,0,5.131-1.351,6.527-3.766l31.865-55.191    C172.228,416.154,170.994,411.551,167.394,409.473z"/>
	</g>
</g>
<g>
	<g>
		<path d="M384.002,34.297c-3.603-2.08-8.205-0.845-10.283,2.755l-31.865,55.191c-2.079,3.602-0.845,8.205,2.755,10.283    c1.186,0.685,2.479,1.01,3.757,1.01c2.601,0,5.131-1.351,6.527-3.766l31.865-55.191C388.836,40.979,387.602,36.376,384.002,34.297    z"/>
	</g>
</g>
<g>
	<g>
		<path d="M360.096,173.8c-25.341-32.051-63.283-50.433-104.096-50.433c-73.134,0-132.633,59.499-132.633,132.633    c0,16.404,2.96,32.418,8.799,47.598c1.151,2.991,4.003,4.827,7.027,4.827c0.898,0,1.812-0.162,2.7-0.503    c3.881-1.493,5.817-5.848,4.324-9.728c-5.172-13.448-7.794-27.644-7.794-42.192c0-64.832,52.745-117.577,117.577-117.577    c36.181,0,69.817,16.298,92.286,44.715c2.579,3.26,7.313,3.813,10.575,1.236C362.121,181.796,362.674,177.062,360.096,173.8z"/>
	</g>
</g>
<g>
	<g>
		<path d="M380.323,209.69c-1.452-3.897-5.787-5.878-9.682-4.426c-3.896,1.452-5.878,5.786-4.426,9.682    c4.886,13.113,7.363,26.925,7.363,41.054c0,64.832-52.745,117.577-117.577,117.577c-35.076,0-68.061-15.493-90.496-42.505    c-2.657-3.199-7.404-3.638-10.601-0.981c-3.198,2.656-3.638,7.402-0.981,10.601c25.305,30.467,62.511,47.942,102.077,47.942    c73.134,0,132.633-59.499,132.635-132.632C388.635,240.071,385.838,224.49,380.323,209.69z"/>
	</g>
</g>
<g>
	<g>
		<circle cx="186.961" cy="309.504" r="8.617"/>
	</g>
</g>
<g>
	<g>
		<circle cx="211.052" cy="333.595" r="8.617"/>
	</g>
</g>
<g>
	<g>
		<circle cx="299.48" cy="192.874" r="8.617"/>
	</g>
</g>
<g>
</g>
<g>
</g>
<g>
</g>
<g>
</g>
<g>
</g>
<g>
</g>
<g>
</g>
<g>
</g>
<g>
</g>
<g>
</g>
<g>
</g>
<g>
</g>
<g>
</g>
<g>
</g>
<g>
</g>
</svg>
