<?xml version="1.0" encoding="iso-8859-1"?>
<!-- Generator: Adobe Illustrator 19.0.0, SVG Export Plug-In . SVG Version: 6.00 Build 0)  -->
<svg xmlns="http://www.w3.org/2000/svg" xmlns:xlink="http://www.w3.org/1999/xlink" version="1.1" id="Capa_1" x="0px" y="0px" viewBox="0 0 512 512" style="enable-background:new 0 0 512 512;" xml:space="preserve">
<g>
	<g>
		<path d="M436.885,308.632c-4.213,0-8.184,1.046-11.677,2.883l-16.447-16.447l18.796-205.224h-11.364    c-3.354-19.313-18.738-35.148-37.368-38.273c-3.006-11.552-9.485-22.014-18.615-29.908c-10.75-9.294-24.505-14.413-38.732-14.413    c-17.978,0-33.811,8.034-47.186,23.91C258.927,10.215,239.104,0,213.979,0c-24.362,0-47.045,12.164-60.609,32.129    c-6.701-2.015-13.639-3.034-20.697-3.034c-34.694,0-64.6,26.176-70.849,60.749H49.948L88.612,512h300.281l18.088-197.498    l7.62,7.62c-1.838,3.493-2.884,7.464-2.884,11.677c0,13.877,11.29,25.167,25.167,25.167c13.877,0,25.167-11.29,25.167-25.167    C462.052,319.922,450.763,308.632,436.885,308.632z M132.672,44.096c7.272,0,14.381,1.365,21.127,4.058l6.11,2.438l3.214-5.741    C173.43,26.438,192.917,15,213.979,15c23.122,0,40.108,10.481,53.456,32.985l6.039,10.181l6.627-9.809    c11.703-17.324,25.625-26.107,41.379-26.107c21.623,0,40.42,16.084,43.724,37.413l0.969,6.255l6.329,0.096    c13.331,0.203,25.008,10.51,28.396,23.831H77.122C83.094,63.622,106.118,44.096,132.672,44.096z M73.263,179.937h199.154    l13.616,13.616H74.51L73.263,179.937z M375.205,497H102.302L75.883,208.552h225.149l92.151,92.151L375.205,497z M394.963,281.269    l-72.717-72.717h79.377L394.963,281.269z M402.996,193.553h-95.751l-13.616-13.616h110.614L402.996,193.553z M405.617,164.937    H278.63l-17.593-17.593c1.838-3.492,2.883-7.464,2.883-11.677c0-13.877-11.29-25.167-25.167-25.167s-25.167,11.29-25.167,25.167    s11.29,25.167,25.167,25.167c4.213,0,8.184-1.046,11.677-2.884l6.987,6.987H71.889l-5.504-60.092H411.12L405.617,164.937z     M248.92,135.666c0,5.606-4.561,10.167-10.167,10.167c-5.606,0-10.167-4.561-10.167-10.167c0-5.606,4.561-10.167,10.167-10.167    C244.359,125.499,248.92,130.06,248.92,135.666z M436.885,343.965c-5.606,0-10.167-4.561-10.167-10.167    c0-5.606,4.561-10.167,10.167-10.167c5.606,0,10.167,4.561,10.167,10.167C447.052,339.404,442.492,343.965,436.885,343.965z"/>
	</g>
</g>
<g>
	<g>
		<polygon points="123.563,473.167 118.885,424.84 103.954,426.285 109.945,488.167 205.419,488.167 205.419,473.167   "/>
	</g>
</g>
<g>
	<g>
		<rect x="216.42" y="473.17" width="22.333" height="15"/>
	</g>
</g>
<g>
</g>
<g>
</g>
<g>
</g>
<g>
</g>
<g>
</g>
<g>
</g>
<g>
</g>
<g>
</g>
<g>
</g>
<g>
</g>
<g>
</g>
<g>
</g>
<g>
</g>
<g>
</g>
<g>
</g>
</svg>
