<?xml version="1.0" encoding="iso-8859-1"?>
<!-- Generator: Adobe Illustrator 19.0.0, SVG Export Plug-In . SVG Version: 6.00 Build 0)  -->
<svg xmlns="http://www.w3.org/2000/svg" xmlns:xlink="http://www.w3.org/1999/xlink" version="1.1" id="Layer_1" x="0px" y="0px" viewBox="0 0 512.005 512.005" style="enable-background:new 0 0 512.005 512.005;" xml:space="preserve">
<g>
	<g>
		<circle cx="87.794" cy="282.786" r="8.582"/>
	</g>
</g>
<g>
	<g>
		<circle cx="199.749" cy="282.786" r="8.582"/>
	</g>
</g>
<g>
	<g>
		<circle cx="311.703" cy="282.786" r="8.582"/>
	</g>
</g>
<g>
	<g>
		<circle cx="423.658" cy="282.786" r="8.582"/>
	</g>
</g>
<g>
	<g>
		<path d="M499.505,226.473h-24.211v-53.079c0-2.327-0.636-4.603-1.837-6.584l-39.436-65.006c-2.228-3.672-6.101-5.864-10.361-5.864    c-4.259,0-8.132,2.192-10.359,5.865l-39.428,64.994c-1.208,1.988-1.845,4.274-1.845,6.609v53.024h-8.688v-53.037    c0-2.327-0.636-4.603-1.837-6.584l-39.436-65.006c-2.228-3.672-6.101-5.864-10.361-5.864c-4.259,0-8.132,2.192-10.359,5.865    l-39.428,64.994c-1.208,1.988-1.845,4.274-1.845,6.609v53.066h-8.688v-53.079c0-2.327-0.636-4.603-1.837-6.584l-10.397-17.138    c-2.147-3.54-6.756-4.669-10.298-2.521c-3.541,2.147-4.668,6.758-2.521,10.299l10.059,16.582v52.442h-73.277v-52.442    l36.639-60.396l5.913,9.746c2.146,3.54,6.757,4.668,10.298,2.521c3.54-2.147,4.668-6.758,2.521-10.299l-8.372-13.8    c-2.228-3.672-6.101-5.864-10.361-5.864c-4.259,0-8.132,2.192-10.359,5.864l-39.428,64.994c-1.207,1.988-1.845,4.274-1.845,6.609    v53.066h-8.688v-53.079c0-2.327-0.636-4.603-1.837-6.584l-39.436-65.006c-2.228-3.672-6.1-5.864-10.361-5.864    c-4.259,0-8.132,2.192-10.359,5.865L38.011,166.8c-1.208,1.988-1.845,4.274-1.845,6.609v53.066h-23.67    C5.605,226.475,0,232.08,0,238.97v93.962c0,6.89,5.605,12.495,12.495,12.495h23.67v58.143c0,6.89,5.54,12.495,12.349,12.495    h78.569c6.809,0,12.349-5.605,12.349-12.495v-58.143h8.688v58.143c0,6.89,5.54,12.495,12.349,12.495h78.569    c6.809,0,12.349-5.605,12.349-12.495v-58.143h8.688v58.143c0,6.89,5.54,12.495,12.349,12.495h78.569    c6.809,0,12.349-5.605,12.349-12.495v-58.143h8.688v58.143c0,6.89,5.54,12.495,12.349,12.495h78.569    c6.809,0,12.349-5.605,12.349-12.495v-58.143h24.211c6.89,0,12.495-5.605,12.495-12.495V238.97    C512,232.077,506.395,226.473,499.505,226.473z M387.023,174.031l36.639-60.395l36.639,60.395v52.442h-73.278V174.031z     M51.159,174.031l36.639-60.395l36.639,60.395v52.442H51.159V174.031z M124.437,401.068L124.437,401.068H51.159v-55.644h73.278    V401.068z M236.392,401.068L236.392,401.068h-73.278v-55.644h73.278V401.068z M348.346,401.068L348.346,401.068h-73.278v-55.644    h73.278V401.068z M460.301,401.068L460.301,401.068h-73.278v-55.644h73.278V401.068z M497.007,330.43L497.007,330.43H14.994    v-88.964h265.617c4.14,0,7.497-3.357,7.497-7.497s-3.357-7.497-7.497-7.497h-5.543v-52.442l36.639-60.395l36.639,60.395v52.4    h-28.557c-4.14,0-7.497,3.357-7.497,7.497c0,4.14,3.357,7.497,7.497,7.497l177.218,0.042V330.43z"/>
	</g>
</g>
<g>
</g>
<g>
</g>
<g>
</g>
<g>
</g>
<g>
</g>
<g>
</g>
<g>
</g>
<g>
</g>
<g>
</g>
<g>
</g>
<g>
</g>
<g>
</g>
<g>
</g>
<g>
</g>
<g>
</g>
</svg>
