<?xml version="1.0" encoding="iso-8859-1"?>
<!-- Generator: Adobe Illustrator 19.0.0, SVG Export Plug-In . SVG Version: 6.00 Build 0)  -->
<svg xmlns="http://www.w3.org/2000/svg" xmlns:xlink="http://www.w3.org/1999/xlink" version="1.1" id="Layer_1" x="0px" y="0px" viewBox="0 0 512 512" style="enable-background:new 0 0 512 512;" xml:space="preserve">
<g>
	<g>
		<path d="M298.734,277.785h-21.725c-4.142,0-7.498,3.357-7.498,7.498s3.356,7.498,7.498,7.498h21.725    c4.142,0,7.498-3.357,7.498-7.498S302.876,277.785,298.734,277.785z"/>
	</g>
</g>
<g>
	<g>
		<path d="M299.64,17.019v-4.531C299.64,5.603,294.037,0,287.153,0h-62.306c-6.885,0-12.487,5.603-12.487,12.488v4.7    c-54.65,3.957-97.906,49.682-97.906,105.324v85.994c0,6.885,5.603,12.488,12.488,12.488h10.676v2.271    c0,6.57,4.958,11.995,11.328,12.753l-12.204,42.142c-0.327,1.13-0.493,2.299-0.493,3.475V484.93c0,14.927,12.6,27.07,28.088,27.07    h183.33c15.487,0,28.087-12.143,28.087-27.07V281.637c0-1.176-0.166-2.346-0.493-3.477l-12.239-42.262    c5.986-1.094,10.54-6.337,10.54-12.632v-2.272h11.498c6.886,0,12.488-5.603,12.488-12.488v-85.994    C397.546,64.946,354.917,19.51,299.64,17.019z M227.356,14.998h57.288v15.937h-57.288V14.998z M347.665,497.004h-183.33    c-7.218,0-13.091-5.416-13.091-12.073V292.782h86.294c4.142,0,7.498-3.357,7.498-7.498s-3.356-7.498-7.498-7.498h-85.076    l11.96-41.301h183.153l11.96,41.301H338.73c-4.142,0-7.498,3.357-7.498,7.498s3.356,7.498,7.498,7.498h22.022v192.149h0.002    C360.755,491.588,354.883,497.004,347.665,497.004z M346.78,201.436c0.508,0,1.006-0.061,1.495-0.161h10.289v19.847H152.614    v-19.847h10.288c0.488,0.1,0.987,0.161,1.495,0.161H346.78z M174.387,186.28L174.387,186.28l2.31-8.073    c2.21-7.718,6.941-12.903,11.776-12.903h134.228c4.835,0,9.567,5.186,11.775,12.903l2.312,8.073H174.387z M382.549,205.998h-8.99    v-6.867c0-7.086-5.766-12.852-12.852-12.852h-8.319l-3.492-12.199c-4.133-14.442-14.415-23.773-26.193-23.773H188.474    c-11.778,0-22.06,9.331-26.194,23.774l-3.491,12.199h-8.319c-7.087,0-12.852,5.766-12.852,12.852v6.866h-8.167v-83.486    c0-47.369,36.538-86.357,82.909-90.278v1.211c0,6.885,5.603,12.488,12.487,12.488h62.306c6.885,0,12.487-5.603,12.487-12.488    v-1.413c46.865,2.487,82.909,41.332,82.909,90.48V205.998z"/>
	</g>
</g>
<g>
	<g>
		<circle cx="178.75" cy="446.153" r="8.566"/>
	</g>
</g>
<g>
	<g>
		<circle cx="208.734" cy="473.997" r="8.566"/>
	</g>
</g>
<g>
	<g>
		<circle cx="313.291" cy="331.229" r="8.566"/>
	</g>
</g>
<g>
</g>
<g>
</g>
<g>
</g>
<g>
</g>
<g>
</g>
<g>
</g>
<g>
</g>
<g>
</g>
<g>
</g>
<g>
</g>
<g>
</g>
<g>
</g>
<g>
</g>
<g>
</g>
<g>
</g>
</svg>
