<?xml version="1.0" encoding="iso-8859-1"?>
<!-- Generator: Adobe Illustrator 19.0.0, SVG Export Plug-In . SVG Version: 6.00 Build 0)  -->
<svg xmlns="http://www.w3.org/2000/svg" xmlns:xlink="http://www.w3.org/1999/xlink" version="1.1" id="Capa_1" x="0px" y="0px" viewBox="0 0 512 512" style="enable-background:new 0 0 512 512;" xml:space="preserve">
<g>
	<g>
		<path d="M453.711,191.004h-9.992H35.081l93.197,197.267l-5.358,1.456c-9.572-23.212-32.433-39.598-59.059-39.598    C28.647,350.129,0,378.777,0,413.989c0,35.213,28.647,63.861,63.861,63.861s63.861-28.647,63.861-63.861    c0-3.34-0.26-6.62-0.757-9.823l7.82-2.124l0.06,0.126l202.873-59.844l23.742,84.262c1.836,6.516,7.568,10.846,14.31,10.846    c0.087,0,0.175-0.001,0.262-0.002c6.856-0.113,12.565-4.663,14.205-11.321l27.366-111.084l23.983-82.373H512v0v-41.648H453.711z     M63.861,462.855c-26.945,0-48.866-21.921-48.866-48.866c0-26.944,21.921-48.865,48.866-48.865    c19.707,0,36.715,11.733,44.436,28.575l-20.283,5.509c-4.986-8.118-13.947-13.546-24.153-13.546    c-15.62,0-28.327,12.707-28.327,28.327s12.707,28.327,28.327,28.327s28.327-12.707,28.327-28.327c0-0.125-0.008-0.249-0.009-0.374    l20.185-5.483c0.23,1.922,0.363,3.874,0.363,5.857C112.727,440.934,90.806,462.855,63.861,462.855z M76.62,417.842    c-1.657,5.478-6.748,9.479-12.759,9.479c-3.489,0-6.659-1.358-9.037-3.559L76.62,417.842z M51.456,409.139    c1.945-4.957,6.766-8.481,12.405-8.481c3.111,0,5.97,1.08,8.241,2.873L51.456,409.139z M375.775,422.101l-23.675-84.02    l47.857-14.117L375.775,422.101z M430.335,217.657h-85.187v14.995h80.821l-21.661,74.394l-261.391,77.105l-71.575-151.5h254.809    v-14.995H64.258l-5.507-11.658h374.979L430.335,217.657z M497.005,217.657h-51.053l3.394-11.658h47.659V217.657z"/>
	</g>
</g>
<g>
	<g>
		<polygon points="195.513,345.077 157.185,356.078 145.685,329.964 131.961,336.007 148.738,374.103 199.65,359.49   "/>
	</g>
</g>
<g>
	<g>
		
			<rect x="205.165" y="339.101" transform="matrix(0.9612 -0.2758 0.2758 0.9612 -87.177 73.2933)" width="23.672" height="14.995"/>
	</g>
</g>
<g>
	<g>
		<rect x="248.587" y="34.15" width="14.995" height="67.258"/>
	</g>
</g>
<g>
	<g>
		
			<rect x="317.283" y="90.864" transform="matrix(0.7071 -0.7071 0.7071 0.7071 33.2276 276.9414)" width="67.257" height="14.995"/>
	</g>
</g>
<g>
	<g>
		
			<rect x="153.753" y="64.727" transform="matrix(0.7071 -0.7071 0.7071 0.7071 -22.3187 142.8293)" width="14.995" height="67.257"/>
	</g>
</g>
<g>
</g>
<g>
</g>
<g>
</g>
<g>
</g>
<g>
</g>
<g>
</g>
<g>
</g>
<g>
</g>
<g>
</g>
<g>
</g>
<g>
</g>
<g>
</g>
<g>
</g>
<g>
</g>
<g>
</g>
</svg>
