<?xml version="1.0" encoding="iso-8859-1"?>
<!-- Generator: Adobe Illustrator 19.0.0, SVG Export Plug-In . SVG Version: 6.00 Build 0)  -->
<svg xmlns="http://www.w3.org/2000/svg" xmlns:xlink="http://www.w3.org/1999/xlink" version="1.1" id="Capa_1" x="0px" y="0px" viewBox="0 0 512 512" style="enable-background:new 0 0 512 512;" xml:space="preserve">
<g>
	<g>
		<path d="M218.905,112.587c-14.706-11.026-23.485-28.583-23.485-46.964V45.27h8.393V0H92.909v45.27h8.393v20.353    c0,18.381-8.78,35.938-23.486,46.964c-18.464,13.845-29.487,35.888-29.487,58.965v315.341c0,13.844,11.263,25.107,25.107,25.107    h149.85c13.844,0,25.107-11.263,25.107-25.107V171.552C248.393,148.475,237.369,126.431,218.905,112.587z M107.909,15h80.903    v15.27h-80.903V15z M233.393,486.893c0,5.573-4.534,10.107-10.107,10.107H73.436c-5.573,0-10.107-4.534-10.107-10.107V212.195    c4.752,0.989,7.978,2.939,11.749,5.222c6.261,3.789,13.356,8.083,27.016,8.083c13.658,0,20.754-4.294,27.014-8.083    c5.461-3.306,9.775-5.917,19.248-5.917c9.475,0,13.789,2.611,19.251,5.917c6.261,3.789,13.357,8.083,27.018,8.083    c13.66,0,20.756-4.294,27.017-8.083c3.772-2.282,6.998-4.233,11.751-5.222V486.893z M233.393,196.991    c-8.977,1.227-14.519,4.567-19.517,7.592c-5.462,3.306-9.777,5.917-19.251,5.917s-13.79-2.611-19.252-5.917    c-6.261-3.789-13.357-8.083-27.017-8.083c-13.659,0-20.754,4.294-27.015,8.084c-5.461,3.305-9.775,5.916-19.248,5.916    c-9.474,0-13.787-2.611-19.249-5.917c-4.998-3.025-10.539-6.365-19.515-7.592v-25.439c0-18.38,8.78-35.938,23.486-46.964    c18.464-13.844,29.487-35.887,29.487-58.965V45.27h64.118v20.353c0,23.078,11.023,45.121,29.487,58.965    c14.706,11.027,23.486,28.583,23.486,46.964V196.991z"/>
	</g>
</g>
<g>
	<g>
		<path d="M273.995,263.635L288.215,512h161.237l14.219-248.365H273.995z M435.286,497H302.381l-9.944-173.683    c3.784,0.884,6.507,2.433,9.646,4.226c5.734,3.275,12.233,6.987,24.729,6.987c12.495,0,18.994-3.712,24.728-6.987    c4.903-2.801,8.775-5.013,17.289-5.013c8.515,0,12.388,2.212,17.292,5.013c5.735,3.275,12.234,6.987,24.731,6.987    c12.497,0,18.996-3.712,24.731-6.987c3.14-1.794,5.863-3.342,9.648-4.226L435.286,497z M446.109,307.942    c-8.274,1.05-13.371,3.951-17.968,6.576c-4.903,2.801-8.777,5.013-17.292,5.013c-8.515,0-12.388-2.212-17.292-5.013    c-5.735-3.275-12.234-6.987-24.731-6.987c-12.495,0-18.994,3.712-24.728,6.987c-4.903,2.801-8.775,5.013-17.289,5.013    c-8.514,0-12.386-2.212-17.289-5.013c-4.596-2.625-9.692-5.526-17.966-6.576l-1.678-29.307h157.911L446.109,307.942z"/>
	</g>
</g>
<g>
	<g>
		<path d="M87.108,476.019c-1.543,0.001-2.799-1.255-2.799-2.798v-70.733h-15v70.733c0,9.814,7.984,17.798,17.798,17.798h23.824v-15    H87.108z"/>
	</g>
</g>
<g>
	<g>
		<rect x="120.17" y="476.02" width="21.875" height="15"/>
	</g>
</g>
<g>
	<g>
		<path d="M204.915,130.227l-9.31,11.761c9.798,7.756,15.785,19.362,16.425,31.842l14.98-0.769    C226.149,156.273,218.095,140.66,204.915,130.227z"/>
	</g>
</g>
<g>
	<g>
		<rect x="364.33" y="173.44" width="15" height="42.842"/>
	</g>
</g>
<g>
	<g>
		<rect x="410.816" y="206.837" transform="matrix(0.7071 -0.7071 0.7071 0.7071 -24.9605 368.4148)" width="42.842" height="15"/>
	</g>
</g>
<g>
	<g>
		<rect x="303.916" y="192.915" transform="matrix(0.7071 -0.7071 0.7071 0.7071 -60.3465 282.9818)" width="15" height="42.842"/>
	</g>
</g>
<g>
</g>
<g>
</g>
<g>
</g>
<g>
</g>
<g>
</g>
<g>
</g>
<g>
</g>
<g>
</g>
<g>
</g>
<g>
</g>
<g>
</g>
<g>
</g>
<g>
</g>
<g>
</g>
<g>
</g>
</svg>
