<?xml version="1.0" encoding="iso-8859-1"?>
<!-- Generator: Adobe Illustrator 19.0.0, SVG Export Plug-In . SVG Version: 6.00 Build 0)  -->
<svg xmlns="http://www.w3.org/2000/svg" xmlns:xlink="http://www.w3.org/1999/xlink" version="1.1" id="Layer_1" x="0px" y="0px" viewBox="0 0 512.002 512.002" style="enable-background:new 0 0 512.002 512.002;" xml:space="preserve">
<g>
	<g>
		<circle cx="173.023" cy="417.519" r="8.583"/>
	</g>
</g>
<g>
	<g>
		<circle cx="203.056" cy="445.413" r="8.583"/>
	</g>
</g>
<g>
	<g>
		<circle cx="335.567" cy="339.126" r="8.583"/>
	</g>
</g>
<g>
	<g>
		<path d="M380.649,289.624c-2.877-0.099-7.031-0.154-12.082,0.011l-6.818-83.673c-0.337-4.127-3.959-7.207-8.083-6.865    c-4.127,0.336-7.2,3.955-6.865,8.082l6.806,83.505c-23.288,2.509-54.669,10.086-76.919,31.577    c-9.167,8.855-16.072,19.312-20.685,31.285c-4.613-11.973-11.519-22.429-20.686-31.285    c-22.248-21.491-53.628-29.066-76.916-31.575l7.439-91.282c0.004-0.051,0.008-0.103,0.011-0.154    c2.138-35.149,8.165-66.287,17.987-93.161h28.176c4.142,0,7.498-3.357,7.498-7.498c0-4.141-3.356-7.498-7.498-7.498h-22.104    c5.879-13.15,12.78-25.133,20.704-35.896c19.1-25.94,38.489-36.716,45.391-39.951c5.014,2.341,15.635,8.148,27.915,19.86H270    c-4.142,0-7.498,3.357-7.498,7.498s3.356,7.498,7.498,7.498h27.589c18.435,23.124,37.364,59.953,45.432,117.515    c0.575,4.102,4.373,6.966,8.467,6.385c4.102-0.575,6.959-4.365,6.386-8.466C340.569,42.093,274.174,6.87,261.04,1.061    c-3.202-1.417-6.878-1.415-10.083,0.003c-15.112,6.685-90.949,47.608-100.073,197.197l-7.446,91.375    c-5.052-0.165-9.207-0.111-12.085-0.012c-6.768,0.234-12.068,5.721-12.068,12.49v55.42c0,4.141,3.356,7.498,7.498,7.498    s7.498-3.357,7.498-7.498v-52.985c16.863-0.308,62.722,1.557,90.615,28.5c15.285,14.764,23.034,35.226,23.034,60.819v102.907    c-55.148-3.385-101.461-43.851-111.62-98.707c-0.168-0.912-0.327-1.828-0.476-2.745c-0.659-4.088-4.503-6.871-8.597-6.209    c-4.089,0.66-6.869,4.508-6.209,8.597c0.166,1.031,0.345,2.058,0.534,3.084c11.933,64.438,68.231,111.207,133.866,111.207    c0.194,0,0.386-0.014,0.578-0.029c0.188,0.014,0.375,0.029,0.567,0.029c75.071,0,136.145-61.074,136.145-136.144v-73.743    C392.718,295.345,387.416,289.858,380.649,289.624z M264.071,496.774V393.866c0-25.592,7.749-46.054,23.034-60.818    c26.358-25.461,68.762-28.528,87.575-28.528c1.096,0,2.114,0.01,3.041,0.027v71.308h0    C377.721,440.137,327.391,492.887,264.071,496.774z"/>
	</g>
</g>
<g>
	<g>
		<path d="M253.002,171.075h-25.994c-4.142,0-7.498,3.357-7.498,7.498s3.356,7.498,7.498,7.498h25.994    c4.141,0,7.498-3.357,7.498-7.498S257.145,171.075,253.002,171.075z"/>
	</g>
</g>
<g>
	<g>
		<path d="M228.008,266.054h-25.994c-4.142,0-7.498,3.357-7.498,7.498c0,4.141,3.356,7.498,7.498,7.498h25.994    c4.141,0,7.498-3.357,7.498-7.498C235.506,269.412,232.15,266.054,228.008,266.054z"/>
	</g>
</g>
<g>
	<g>
		<path d="M326.986,227.063h-25.994c-4.142,0-7.498,3.357-7.498,7.498c0,4.141,3.356,7.498,7.498,7.498h25.994    c4.141,0,7.498-3.357,7.498-7.498C334.485,230.42,331.128,227.063,326.986,227.063z"/>
	</g>
</g>
<g>
</g>
<g>
</g>
<g>
</g>
<g>
</g>
<g>
</g>
<g>
</g>
<g>
</g>
<g>
</g>
<g>
</g>
<g>
</g>
<g>
</g>
<g>
</g>
<g>
</g>
<g>
</g>
<g>
</g>
</svg>
