<?xml version="1.0" encoding="iso-8859-1"?>
<!-- Generator: Adobe Illustrator 19.0.0, SVG Export Plug-In . SVG Version: 6.00 Build 0)  -->
<svg xmlns="http://www.w3.org/2000/svg" xmlns:xlink="http://www.w3.org/1999/xlink" version="1.1" id="Capa_1" x="0px" y="0px" viewBox="0 0 512.001 512.001" style="enable-background:new 0 0 512.001 512.001;" xml:space="preserve">
<g>
	<g>
		<path d="M342.679,305.914l-1.121-4.202l-4.202-1.121c-4.234-1.13-8.57-1.849-12.942-2.162c0.126-0.125,0.26-0.241,0.386-0.367    c17.375-17.375,24.226-42.943,17.88-66.728l-1.121-4.202l-4.202-1.121c-3.676-0.981-7.429-1.655-11.216-2.021    c16.381-17.332,22.719-42.181,16.539-65.341l-1.121-4.202l-4.202-1.121c-4.234-1.13-8.57-1.85-12.943-2.162    c0.127-0.125,0.259-0.241,0.386-0.368c17.373-17.374,24.224-42.942,17.877-66.725l-1.121-4.202l-4.202-1.121    c-5.828-1.555-11.848-2.343-17.892-2.343c-9.914,0-19.499,2.091-28.278,6.032c2.037-6.538,3.12-13.416,3.12-20.432    c0-24.572-13.235-47.496-34.541-59.825L256,0l-3.764,2.178c-21.305,12.329-34.541,35.254-34.541,59.825    c0,7.014,1.083,13.893,3.12,20.432c-8.779-3.941-18.364-6.032-28.278-6.032c-6.043,0-12.064,0.788-17.892,2.343l-4.202,1.121    l-1.121,4.202c-6.346,23.784,0.504,49.352,17.88,66.727c0.126,0.126,0.258,0.242,0.386,0.368    c-4.372,0.313-8.708,1.032-12.943,2.162l-4.202,1.121l-1.121,4.202c-6.18,23.161,0.158,48.01,16.539,65.341    c-3.787,0.366-7.54,1.04-11.216,2.021l-4.202,1.121l-1.121,4.202c-6.346,23.784,0.504,49.352,17.88,66.728    c0.126,0.126,0.258,0.242,0.386,0.367c-4.372,0.313-8.708,1.032-12.942,2.162l-4.202,1.121l-1.121,4.202    c-6.346,23.784,0.504,49.353,17.88,66.728c0.126,0.126,0.258,0.242,0.386,0.367c-4.372,0.313-8.708,1.032-12.942,2.162    l-4.202,1.121l-1.121,4.202c-6.346,23.784,0.504,49.353,17.88,66.728c13.041,13.042,30.385,20.223,48.836,20.223    c4.18,0,8.347-0.386,12.448-1.133v45.688h15.028v-45.689c4.101,0.746,8.268,1.133,12.448,1.133c0.001,0,0.001,0,0.002,0    c18.45,0,35.793-7.182,48.833-20.223c17.375-17.375,24.226-42.943,17.88-66.728l-1.121-4.202l-4.202-1.121    c-4.234-1.13-8.57-1.849-12.942-2.162c0.126-0.125,0.26-0.241,0.386-0.367C342.174,355.267,349.025,329.699,342.679,305.914z     M329.127,239.561c3.118,17.332-2.415,35.334-14.956,47.876c-10.202,10.202-23.77,15.821-38.205,15.821h-0.002    c-3.246,0-6.482-0.291-9.666-0.865c-3.118-17.332,2.415-35.334,14.956-47.875c10.202-10.202,23.772-15.822,38.209-15.822    C322.708,238.696,325.943,238.987,329.127,239.561z M271.012,318.104c-0.127,0.125-0.259,0.241-0.386,0.368    c-2.614,2.614-4.984,5.415-7.112,8.366v-9.684C265.994,317.605,268.496,317.924,271.012,318.104z M263.514,252.258v-7.791    c1.912,0.349,3.837,0.623,5.772,0.811C267.196,247.489,265.271,249.821,263.514,252.258z M329.127,166.876    c3.118,17.331-2.415,35.333-14.956,47.875c-10.203,10.203-23.772,15.822-38.208,15.822c-3.245,0-6.481-0.291-9.665-0.865    c-3.118-17.332,2.415-35.334,14.956-47.875c10.202-10.202,23.772-15.822,38.209-15.822    C322.708,166.012,325.943,166.302,329.127,166.876z M263.514,179.571v-9.684c2.48,0.452,4.982,0.771,7.498,0.951    c-0.127,0.125-0.259,0.241-0.386,0.368C268.012,173.819,265.642,176.621,263.514,179.571z M319.463,91.431    c3.244,0,6.48,0.291,9.664,0.865c3.118,17.332-2.415,35.334-14.956,47.875c-10.203,10.203-23.772,15.822-38.208,15.822    c-3.245,0-6.481-0.291-9.665-0.865c-3.118-17.332,2.415-35.334,14.956-47.875C291.456,97.051,305.025,91.431,319.463,91.431z     M182.872,92.296c3.184-0.574,6.42-0.865,9.664-0.865c14.437,0,28.007,5.619,38.209,15.822    c12.542,12.542,18.074,30.543,14.956,47.875c-3.184,0.574-6.42,0.865-9.664,0.865c-14.437,0-28.007-5.619-38.209-15.822    C185.288,127.63,179.755,109.628,182.872,92.296z M182.872,166.876c3.184-0.574,6.42-0.865,9.664-0.865    c14.437,0,28.007,5.619,38.209,15.822c12.542,12.542,18.074,30.543,14.956,47.875c-3.184,0.574-6.42,0.865-9.664,0.865    c-14.437,0-28.007-5.619-38.209-15.822C185.288,202.209,179.755,184.207,182.872,166.876z M182.872,239.561    c3.184-0.574,6.42-0.865,9.664-0.865c14.437,0,28.007,5.619,38.209,15.822c12.542,12.542,18.074,30.543,14.956,47.875    c-3.184,0.575-6.42,0.865-9.665,0.865c-14.436,0-28.006-5.619-38.208-15.821C185.288,274.895,179.755,256.893,182.872,239.561z     M182.872,314.14c3.184-0.574,6.42-0.865,9.664-0.865c14.437,0,28.007,5.619,38.209,15.822    c12.542,12.542,18.074,30.543,14.956,47.875c-3.184,0.575-6.42,0.865-9.665,0.865c-14.436,0-28.006-5.619-38.208-15.821    C185.288,349.475,179.755,331.473,182.872,314.14z M245.702,451.552c-3.184,0.574-6.42,0.865-9.664,0.865    c-14.437,0-28.007-5.619-38.209-15.822c-12.542-12.542-18.074-30.543-14.956-47.876c3.184-0.574,6.42-0.865,9.664-0.865    c14.437,0,28.007,5.619,38.209,15.822C243.287,416.219,248.82,434.221,245.702,451.552z M248.485,401.417    c-2.128-2.951-4.499-5.753-7.112-8.367c-0.126-0.126-0.258-0.242-0.386-0.368c2.516-0.179,5.019-0.5,7.498-0.951V401.417z     M248.485,326.837c-2.128-2.951-4.499-5.753-7.112-8.366c-0.126-0.126-0.258-0.242-0.386-0.368c2.516-0.179,5.019-0.5,7.498-0.951    V326.837z M248.485,252.258c-1.757-2.437-3.683-4.769-5.772-6.98c1.936-0.186,3.86-0.462,5.772-0.811V252.258z M248.485,179.572    c-2.128-2.951-4.499-5.752-7.112-8.366c-0.126-0.126-0.258-0.242-0.386-0.368c2.516-0.179,5.019-0.5,7.498-0.951V179.572z     M232.724,62.003c0-17.737,8.817-34.376,23.276-44.427c14.46,10.051,23.276,26.692,23.276,44.427S270.459,96.381,256,106.432    C241.539,96.381,232.724,79.74,232.724,62.003z M263.514,401.417v-9.684c2.48,0.452,4.982,0.771,7.498,0.951    c-0.127,0.125-0.259,0.241-0.386,0.368C268.012,395.665,265.642,398.466,263.514,401.417z M329.127,388.72    c3.118,17.332-2.415,35.334-14.956,47.876c-10.203,10.203-23.772,15.822-38.208,15.822c-3.245,0-6.481-0.291-9.665-0.865    c-3.118-17.332,2.415-35.334,14.956-47.876c10.202-10.202,23.772-15.822,38.209-15.822    C322.708,387.856,325.943,388.146,329.127,388.72z M314.171,362.016c-10.202,10.202-23.77,15.821-38.205,15.821h-0.002    c-3.246,0-6.482-0.291-9.666-0.865c-3.118-17.332,2.415-35.334,14.956-47.875c10.202-10.202,23.772-15.822,38.209-15.822    c3.245,0,6.48,0.291,9.664,0.865C332.245,331.473,326.713,349.475,314.171,362.016z"/>
	</g>
</g>
<g>
</g>
<g>
</g>
<g>
</g>
<g>
</g>
<g>
</g>
<g>
</g>
<g>
</g>
<g>
</g>
<g>
</g>
<g>
</g>
<g>
</g>
<g>
</g>
<g>
</g>
<g>
</g>
<g>
</g>
</svg>
