<?xml version="1.0" encoding="iso-8859-1"?>
<!-- Generator: Adobe Illustrator 19.0.0, SVG Export Plug-In . SVG Version: 6.00 Build 0)  -->
<svg xmlns="http://www.w3.org/2000/svg" xmlns:xlink="http://www.w3.org/1999/xlink" version="1.1" id="Layer_1" x="0px" y="0px" viewBox="0 0 511.998 511.998" style="enable-background:new 0 0 511.998 511.998;" xml:space="preserve">
<g>
	<g>
		<path d="M307.399,87.741h-23.953c-4.134,0-7.485,3.351-7.485,7.485c0,4.134,3.35,7.485,7.485,7.485h23.953    c4.134,0,7.485-3.352,7.485-7.485C314.884,91.092,311.534,87.741,307.399,87.741z"/>
	</g>
</g>
<g>
	<g>
		<path d="M228.552,409.298h-23.953c-4.134,0-7.485,3.351-7.485,7.485c0,4.134,3.351,7.485,7.485,7.485h23.953    c4.134,0,7.486-3.351,7.485-7.485C236.037,412.649,232.686,409.298,228.552,409.298z"/>
	</g>
</g>
<g>
	<g>
		<path d="M434.469,431.36c9.895-40.04,25.178-113.012,25.178-181.666c0-61.786-12.13-126.651-22.727-171.523    c14.955-15.916,20.984-38.375,15.763-59.662c-0.957-3.908-1.993-7.053-2.696-9.009c-1.488-4.134-5.096-7.211-9.413-8.029    c-2.03-0.385-5.295-0.912-9.318-1.244c-23.884-1.973-46.191,9.023-59.259,28.898H140.001C126.934,9.251,104.62-1.745,80.743,0.227    c-4.025,0.332-7.289,0.86-9.319,1.244c-4.318,0.818-7.925,3.896-9.413,8.031c-0.699,1.942-1.733,5.081-2.696,9.005    c-5.22,21.289,0.809,43.748,15.763,59.663c-10.597,44.873-22.727,109.74-22.727,171.523c0,68.656,15.282,141.627,25.177,181.666    c-16.826,16.024-23.787,39.406-18.213,62.14c0.962,3.924,1.997,7.063,2.696,9.006c1.488,4.136,5.095,7.213,9.414,8.031    c2.029,0.384,5.292,0.912,9.318,1.244c1.775,0.147,3.54,0.218,5.297,0.218c26.738-0.001,50.906-16.705,60.455-41.737h219.008    c9.551,25.034,33.715,41.739,60.456,41.737c1.754,0,3.523-0.072,5.297-0.218c4.024-0.332,7.288-0.86,9.319-1.245    c4.317-0.818,7.924-3.895,9.414-8.034c0.701-1.95,1.737-5.095,2.694-9.003C458.257,470.766,451.295,447.385,434.469,431.36z     M438.143,489.936c-0.607,2.477-1.247,4.573-1.772,6.143c-1.631,0.271-3.798,0.572-6.346,0.782    c-23.608,1.944-45.44-13.246-51.923-36.125c-0.913-3.221-3.854-5.444-7.202-5.444H141.099c-3.348,0-6.289,2.223-7.202,5.444    c-6.483,22.879-28.323,38.074-51.922,36.125c-2.549-0.211-4.717-0.511-6.348-0.782c-0.524-1.567-1.162-3.659-1.771-6.144    c-4.575-18.659,1.861-37.899,16.796-50.214c2.231-1.84,3.203-4.802,2.496-7.606c-0.622-2.466-1.272-5.089-1.943-7.847h73.971    c4.134,0,7.485-3.351,7.485-7.485c0-4.134-3.351-7.485-7.485-7.485H87.692c-9.288-40.99-20.369-101.964-20.369-159.603    c0-51.298,8.608-104.963,17.584-146.983h159.864c4.134,0,7.485-3.351,7.485-7.485c0-4.134-3.351-7.485-7.485-7.485H88.224    c0.802-3.494,1.6-6.894,2.386-10.162c0.633-2.63-0.203-5.397-2.185-7.237C74.957,57.841,69.51,39.797,73.855,22.076    c0.609-2.485,1.247-4.578,1.771-6.144c1.631-0.271,3.798-0.572,6.347-0.782c19.477-1.6,37.607,8.033,47.325,25.158    c1.33,2.343,3.816,3.791,6.51,3.791h240.38c2.694,0,5.18-1.448,6.51-3.791c9.717-17.125,27.848-26.764,47.326-25.158    c2.548,0.21,4.715,0.51,6.346,0.782c0.526,1.573,1.165,3.668,1.772,6.144c4.345,17.721-1.101,35.765-14.569,48.268    c-1.982,1.84-2.818,4.606-2.185,7.236c0.786,3.268,1.584,6.668,2.386,10.162h-76.952c-4.135,0-7.485,3.351-7.485,7.485    c0,4.134,3.351,7.485,7.485,7.485h80.27c8.976,42.02,17.584,95.684,17.584,146.983c0,57.639-11.081,118.613-20.37,159.603H267.227    c-4.135,0-7.485,3.351-7.485,7.485s3.351,7.485,7.485,7.485h153.566c-0.67,2.757-1.321,5.38-1.943,7.847    c-0.708,2.805,0.264,5.766,2.496,7.606C436.282,452.036,442.718,471.277,438.143,489.936z"/>
	</g>
</g>
<g>
	<g>
		<path d="M255.999,136.736c-65.765,0-119.268,53.503-119.268,119.268s53.503,119.268,119.268,119.268    s119.268-53.503,119.268-119.268S321.764,136.736,255.999,136.736z M255.999,360.301c-57.51,0-104.297-46.787-104.297-104.297    s46.787-104.297,104.297-104.297c57.509,0,104.297,46.787,104.297,104.297S313.508,360.301,255.999,360.301z"/>
	</g>
</g>
<g>
	<g>
		<path d="M273.322,188.078c-4.723-3.401-8.736-5.795-11.27-7.203c-3.792-2.106-8.314-2.107-12.1-0.003    c-2.534,1.408-6.546,3.801-11.273,7.204c-22.065,15.886-34.72,40.645-34.72,67.929s12.655,52.043,34.72,67.929    c4.733,3.407,8.744,5.798,11.272,7.202c1.893,1.052,3.97,1.578,6.047,1.578c2.078,0,4.158-0.527,6.053-1.58    c2.534-1.409,6.547-3.802,11.269-7.203c4.206-3.028,8.13-6.433,11.663-10.122c2.86-2.985,2.758-7.723-0.227-10.583    c-2.987-2.861-7.725-2.757-10.584,0.228c-2.903,3.031-6.132,5.833-9.599,8.329c-3.435,2.473-6.411,4.322-8.574,5.573    c-2.16-1.249-5.134-3.096-8.573-5.572c-18.109-13.038-28.496-33.369-28.496-55.779c0-22.411,10.386-42.741,28.496-55.78    c3.434-2.473,6.41-4.321,8.573-5.572c2.163,1.251,5.139,3.1,8.575,5.574c22.769,16.394,33.187,44.732,26.54,72.194    c-0.972,4.019,1.496,8.064,5.514,9.037c4.017,0.974,8.064-1.496,9.036-5.514C313.751,242.535,301.056,208.046,273.322,188.078z"/>
	</g>
</g>
<g>
	<g>
		<path d="M279.797,264.643c-2.819-3.024-7.557-3.189-10.581-0.367l-5.732,5.35v-11.59l15.947-14.883    c3.022-2.821,3.186-7.558,0.365-10.58c-2.818-3.022-7.556-3.186-10.579-0.365l-5.732,5.35v-17.483    c0-4.134-3.351-7.485-7.485-7.485c-4.134,0-7.485,3.351-7.485,7.485v17.483l-5.732-5.35c-3.021-2.82-7.759-2.657-10.58,0.365    c-2.821,3.022-2.657,7.759,0.365,10.58l15.947,14.883v11.591l-5.732-5.35c-3.021-2.82-7.759-2.657-10.58,0.365    c-2.821,3.022-2.657,7.759,0.365,10.579l15.947,14.884v7.819c0,4.134,3.351,7.485,7.485,7.485c4.135,0,7.485-3.351,7.485-7.485    v-7.819l15.947-14.883C282.454,272.401,282.618,267.664,279.797,264.643z"/>
	</g>
</g>
<g>
	<g>
		<circle cx="107.289" cy="356.81" r="8.568"/>
	</g>
</g>
<g>
	<g>
		<circle cx="131.239" cy="380.76" r="8.568"/>
	</g>
</g>
<g>
	<g>
		<circle cx="377.179" cy="124.84" r="8.568"/>
	</g>
</g>
<g>
</g>
<g>
</g>
<g>
</g>
<g>
</g>
<g>
</g>
<g>
</g>
<g>
</g>
<g>
</g>
<g>
</g>
<g>
</g>
<g>
</g>
<g>
</g>
<g>
</g>
<g>
</g>
<g>
</g>
</svg>
