<?xml version="1.0" encoding="iso-8859-1"?>
<!-- Generator: Adobe Illustrator 19.0.0, SVG Export Plug-In . SVG Version: 6.00 Build 0)  -->
<svg xmlns="http://www.w3.org/2000/svg" xmlns:xlink="http://www.w3.org/1999/xlink" version="1.1" id="Layer_1" x="0px" y="0px" viewBox="0 0 512.001 512.001" style="enable-background:new 0 0 512.001 512.001;" xml:space="preserve">
<g>
	<g>
		<path d="M456.896,354.213c-17.324,0-32.799,8.044-42.908,20.585l-141.68-59.505l-83.767-35.469    c-0.8-0.339-1.622-0.576-2.452-0.742l-57.059-23.965l-12.59-74.752h10.377l7.957,61.005c0.575,4.41,3.483,8.21,7.59,9.917    l241.439,100.374c1.548,0.643,3.171,0.965,4.794,0.965c1.654,0,3.31-0.334,4.882-1.002c3.115-1.324,5.511-3.788,6.745-6.94    l73.749-188.321c1.507-3.846,1.016-8.18-1.312-11.593c-2.329-3.413-6.184-5.45-10.316-5.45h-13.553    c-1.18-10.811-5.206-21.001-11.837-29.786c-2.494-3.303-7.191-3.959-10.494-1.467c-3.303,2.494-3.959,7.191-1.467,10.494    c4.486,5.944,7.393,12.744,8.579,19.973H166.092c3.585-21.615,22.412-38.15,45.028-38.15c4.771,0,9.491,0.742,14.026,2.205    c3.543,1.142,7.39-0.49,9.029-3.833c10.941-22.327,33.164-36.196,58-36.196c26.63,0,50.881,16.727,60.348,41.624    c0.806,2.12,2.53,3.761,4.687,4.463c2.157,0.702,4.516,0.389,6.415-0.852c7.421-4.847,16.036-7.409,24.914-7.409    c2.934,0,5.868,0.28,8.719,0.831c4.061,0.781,7.993-1.872,8.78-5.934c0.785-4.063-1.871-7.993-5.934-8.78    c-3.786-0.731-7.677-1.103-11.563-1.103c-8.869,0-17.542,1.925-25.492,5.619c-13.45-26.293-40.943-43.444-70.872-43.444    c-28.523,0-54.247,14.842-68.523,39.132c-4.112-0.868-8.306-1.307-12.531-1.307c-31.163,0-56.9,23.636-60.248,53.922h-15.187    c-3.594,0-7.014,1.549-9.385,4.249c-2.371,2.7-3.464,6.292-2.998,9.855l1.56,11.958h-10.946l-5.865-34.825    c-1.017-6.033-6.196-10.412-12.314-10.412H61.198c-1.341-5.451-6.256-9.512-12.114-9.512H12.488    C5.602,110.634,0,116.235,0,123.122v18.579c0,6.886,5.602,12.488,12.488,12.488h36.594c6.886,0,12.488-5.602,12.488-12.488v-6.57    h32.053l20.856,123.834c0.715,4.244,3.511,7.773,7.479,9.439l49.431,20.761c-0.024,0.139-0.063,0.273-0.083,0.413l-18.763,132.598    c-0.643,4.544,1.249,9.061,4.939,11.791c2.19,1.62,4.797,2.45,7.424,2.45c1.799,0,3.608-0.39,5.297-1.18l157.617-73.806    c2.154-1.009,3.9-2.543,5.136-4.407l73.224,30.754c-2.823,6.622-4.389,13.903-4.389,21.543c0,30.385,24.719,55.104,55.104,55.104    c30.385,0,55.104-24.72,55.104-55.104C512.001,378.938,487.281,354.213,456.896,354.213z M458.685,154.303L458.685,154.303    l-4.337,11.076H295.704c-4.138,0-7.493,3.355-7.493,7.493c0,4.138,3.355,7.493,7.493,7.493h152.775l-61.277,156.479    l-237.754-98.843l-7.518-57.637h56.769c4.138,0,7.493-3.355,7.493-7.493s-3.355-7.493-7.493-7.493h-58.724l-1.445-11.075H458.685z     M46.585,139.2H14.986v-13.584h31.599V139.2z M168.028,419.704l17.625-124.552l80.834,33.95l49.903,21.131L168.028,419.704z     M456.896,449.436c-22.122,0-40.119-17.998-40.119-40.119c0-22.121,17.997-40.119,40.119-40.119    c22.122,0,40.119,17.997,40.119,40.119C497.014,431.439,479.017,449.436,456.896,449.436z"/>
	</g>
</g>
<g>
	<g>
		<path d="M456.896,381.94c-15.096,0-27.378,12.281-27.378,27.378c0,4.138,3.355,7.493,7.493,7.493s7.493-3.355,7.493-7.493    c0-6.833,5.559-12.392,12.392-12.392c6.833,0,12.392,5.559,12.392,12.392c0,6.084-4.345,11.224-10.329,12.222    c-4.082,0.681-6.839,4.542-6.159,8.623c0.611,3.665,3.785,6.262,7.382,6.262c0.41,0,0.824-0.034,1.241-0.103    c13.24-2.208,22.851-13.565,22.851-27.004C484.273,394.222,471.992,381.94,456.896,381.94z"/>
	</g>
</g>
<g>
	<g>
		<path d="M255.232,165.38H236.25c-4.138,0-7.493,3.355-7.493,7.493c0,4.138,3.355,7.493,7.493,7.493h18.982    c4.138,0,7.493-3.355,7.493-7.493C262.725,168.734,259.37,165.38,255.232,165.38z"/>
	</g>
</g>
<g>
	<g>
		<circle cx="173.724" cy="209.017" r="8.577"/>
	</g>
</g>
<g>
	<g>
		<circle cx="198.7" cy="233.993" r="8.577"/>
	</g>
</g>
<g>
	<g>
		<circle cx="363.543" cy="285.943" r="8.577"/>
	</g>
</g>
<g>
	<g>
		<circle cx="209.16" cy="118.823" r="8.577"/>
	</g>
</g>
<g>
	<g>
		<circle cx="330.015" cy="113.708" r="8.577"/>
	</g>
</g>
<g>
	<g>
		<circle cx="312.871" cy="83.387" r="8.577"/>
	</g>
</g>
<g>
</g>
<g>
</g>
<g>
</g>
<g>
</g>
<g>
</g>
<g>
</g>
<g>
</g>
<g>
</g>
<g>
</g>
<g>
</g>
<g>
</g>
<g>
</g>
<g>
</g>
<g>
</g>
<g>
</g>
</svg>
