<?xml version="1.0" encoding="iso-8859-1"?>
<!-- Generator: Adobe Illustrator 19.0.0, SVG Export Plug-In . SVG Version: 6.00 Build 0)  -->
<svg xmlns="http://www.w3.org/2000/svg" xmlns:xlink="http://www.w3.org/1999/xlink" version="1.1" id="Capa_1" x="0px" y="0px" viewBox="0 0 512.001 512.001" style="enable-background:new 0 0 512.001 512.001;" xml:space="preserve">
<g>
	<g>
		<path d="M122.953,41.451c-45.122,0-81.832,36.709-81.832,81.832s36.71,81.832,81.832,81.832c45.122,0,81.832-36.709,81.832-81.832    S168.075,41.451,122.953,41.451z M122.953,190.135c-36.862,0-66.851-29.989-66.851-66.851c0-36.862,29.99-66.851,66.851-66.851    c36.861,0,66.851,29.989,66.851,66.851C189.804,160.146,159.815,190.135,122.953,190.135z"/>
	</g>
</g>
<g>
	<g>
		<rect x="115.46" y="0.33" width="14.981" height="29.328"/>
	</g>
</g>
<g>
	<g>
		<rect x="115.46" y="216.907" width="14.981" height="29.328"/>
	</g>
</g>
<g>
	<g>
		<rect x="216.579" y="115.788" width="29.328" height="14.981"/>
	</g>
</g>
<g>
	<g>
		<rect y="115.788" width="29.328" height="14.981"/>
	</g>
</g>
<g>
	<g>
		<rect x="184.876" y="39.22" transform="matrix(0.7071 -0.7071 0.7071 0.7071 25.4147 154.7772)" width="29.328" height="14.98"/>
	</g>
</g>
<g>
	<g>
		<rect x="31.715" y="192.356" transform="matrix(0.7071 -0.7071 0.7071 0.7071 -127.729 91.3282)" width="29.328" height="14.98"/>
	</g>
</g>
<g>
	<g>
		
			<rect x="192.039" y="185.194" transform="matrix(0.7071 -0.7071 0.7071 0.7071 -82.8801 199.6257)" width="14.98" height="29.328"/>
	</g>
</g>
<g>
	<g>
		<rect x="38.894" y="32.044" transform="matrix(0.7071 -0.7071 0.7071 0.7071 -19.4415 46.4789)" width="14.98" height="29.328"/>
	</g>
</g>
<g>
	<g>
		<path d="M470.878,123.283c0.001-31.346-17.724-59.605-45.556-73.355l0.001-0.097l-4.54-1.99l-0.024-0.01    c-0.013-0.005-0.026-0.012-0.039-0.017l-2.901-1.219l-0.109,0.046c-9.725-3.645-19.963-5.403-30.511-5.167    c-21.044,0.465-40.906,8.99-55.927,24.004c-15.022,15.014-23.557,34.871-24.034,55.914c-0.503,22.229,7.769,43.216,23.292,59.094    c15.528,15.883,36.31,24.63,58.519,24.63c9.883,0,19.508-1.755,28.667-5.186l0.104,0.044l2.901-1.219    c0.307-0.129,0.605-0.27,0.91-0.402l3.699-1.632l-0.001-0.084C453.156,182.883,470.878,154.627,470.878,123.283z M387.53,56.448    c0.507-0.011,1.013-0.017,1.517-0.017c3.168,0,6.303,0.218,9.394,0.652c-0.517,0.376-1.026,0.761-1.533,1.148    c-0.13,0.099-0.264,0.195-0.393,0.295c-0.707,0.545-1.401,1.104-2.087,1.671c-0.251,0.207-0.495,0.418-0.743,0.628    c-0.45,0.38-0.898,0.764-1.338,1.154c-0.274,0.242-0.545,0.486-0.816,0.732c-0.208,0.189-0.418,0.374-0.624,0.564h-30.986    C368.337,59.109,377.702,56.666,387.53,56.448z M339.975,78.255h38.246v0.001c-0.08,0.121-0.155,0.245-0.234,0.366    c-0.31,0.476-0.618,0.955-0.918,1.437c-0.201,0.324-0.397,0.649-0.594,0.976c-0.275,0.456-0.544,0.915-0.811,1.376    c-0.189,0.329-0.378,0.656-0.562,0.988c-0.282,0.505-0.554,1.015-0.826,1.526c-0.151,0.286-0.307,0.568-0.454,0.856    c-0.396,0.77-0.781,1.546-1.154,2.329c-0.129,0.271-0.249,0.545-0.375,0.817c-0.026,0.056-0.051,0.111-0.077,0.167h-40.386    C334.185,85.216,336.913,81.582,339.975,78.255z M325.097,104.075h41.933c-0.041,0.172-0.078,0.346-0.118,0.517    c-0.079,0.34-0.157,0.679-0.232,1.02c-0.134,0.608-0.259,1.218-0.379,1.831c-0.058,0.296-0.12,0.59-0.175,0.887    c-0.166,0.897-0.32,1.797-0.455,2.701c-0.019,0.125-0.033,0.252-0.051,0.378c-0.115,0.793-0.22,1.589-0.312,2.387    c-0.036,0.308-0.065,0.617-0.098,0.926c-0.007,0.064-0.014,0.128-0.02,0.192h-42.457    C323.213,111.202,324.017,107.584,325.097,104.075z M324.497,140.731c-0.948-3.529-1.602-7.152-1.961-10.838h42.494    c0.001,0.019,0.004,0.038,0.005,0.057c0.051,0.634,0.111,1.266,0.177,1.898c0.032,0.308,0.062,0.615,0.097,0.922    c0.093,0.805,0.198,1.607,0.315,2.407c0.017,0.119,0.031,0.239,0.049,0.358c0.136,0.906,0.29,1.806,0.455,2.703    c0.055,0.298,0.117,0.593,0.175,0.89c0.105,0.536,0.212,1.073,0.328,1.605H324.497z M338.107,166.55    c-2.888-3.39-5.406-7.017-7.534-10.838h40.853c0.045,0.103,0.094,0.204,0.139,0.307c0.214,0.49,0.435,0.976,0.658,1.461    c0.155,0.338,0.305,0.677,0.464,1.013c0.359,0.752,0.728,1.499,1.109,2.239c0.193,0.376,0.396,0.746,0.594,1.119    c0.221,0.412,0.44,0.825,0.667,1.233c0.224,0.401,0.452,0.8,0.682,1.198c0.215,0.371,0.432,0.741,0.653,1.109    c0.233,0.388,0.465,0.776,0.705,1.159h-38.99V166.55z M389.048,190.134c-11.718,0-22.94-2.997-32.843-8.604h32.872    c0.094,0.093,0.187,0.186,0.281,0.278c0.417,0.407,0.842,0.808,1.268,1.206c0.218,0.204,0.434,0.406,0.654,0.607    c0.426,0.391,0.858,0.778,1.293,1.16c0.215,0.189,0.432,0.374,0.649,0.559c0.457,0.392,0.915,0.784,1.381,1.167    c0.079,0.065,0.16,0.127,0.24,0.192c1.021,0.832,2.064,1.638,3.129,2.422c0.161,0.119,0.318,0.241,0.478,0.359    C395.355,189.915,392.219,190.134,389.048,190.134z M417.829,183.637c-0.3-0.143-0.596-0.289-0.893-0.435    c-0.35-0.173-0.701-0.344-1.047-0.522c-0.385-0.2-0.765-0.407-1.147-0.613c-0.335-0.181-0.671-0.359-1.002-0.545    c-0.388-0.219-0.768-0.445-1.151-0.671c-0.316-0.186-0.635-0.369-0.947-0.559c-0.393-0.241-0.78-0.492-1.167-0.74    c-0.292-0.187-0.586-0.369-0.874-0.559c-0.417-0.277-0.827-0.564-1.237-0.85c-0.249-0.174-0.502-0.342-0.749-0.517    c-0.542-0.389-1.075-0.787-1.603-1.19c-0.107-0.082-0.218-0.159-0.325-0.242c-0.635-0.49-1.26-0.992-1.877-1.503    c-0.149-0.124-0.292-0.253-0.439-0.378c-0.462-0.391-0.924-0.783-1.374-1.185c-0.205-0.183-0.403-0.372-0.604-0.558    c-0.385-0.353-0.77-0.704-1.147-1.066c-0.22-0.211-0.431-0.428-0.648-0.641c-0.35-0.346-0.701-0.689-1.043-1.042    c-0.221-0.228-0.434-0.461-0.652-0.692c-0.327-0.347-0.654-0.692-0.974-1.046c-0.219-0.243-0.431-0.49-0.646-0.736    c-0.308-0.351-0.615-0.7-0.915-1.058c-0.214-0.255-0.421-0.513-0.631-0.771c-0.291-0.357-0.581-0.713-0.864-1.076    c-0.207-0.265-0.406-0.533-0.609-0.8c-0.275-0.364-0.55-0.727-0.817-1.097c-0.199-0.274-0.391-0.551-0.586-0.828    c-0.261-0.372-0.52-0.743-0.773-1.12c-0.19-0.282-0.375-0.566-0.559-0.851c-0.247-0.378-0.49-0.758-0.729-1.142    c-0.181-0.291-0.357-0.583-0.532-0.876c-0.231-0.384-0.459-0.771-0.683-1.161c-0.171-0.299-0.339-0.599-0.505-0.9    c-0.217-0.392-0.43-0.786-0.639-1.182c-0.161-0.306-0.32-0.612-0.475-0.921c-0.202-0.398-0.4-0.798-0.594-1.2    c-0.151-0.313-0.3-0.626-0.445-0.942c-0.188-0.404-0.37-0.812-0.55-1.221c-0.14-0.319-0.279-0.637-0.412-0.959    c-0.173-0.411-0.341-0.826-0.505-1.241c-0.129-0.325-0.257-0.649-0.38-0.976c-0.159-0.418-0.311-0.839-0.46-1.261    c-0.117-0.329-0.234-0.657-0.346-0.989c-0.144-0.425-0.281-0.855-0.416-1.284c-0.105-0.333-0.212-0.665-0.312-1.001    c-0.129-0.431-0.25-0.866-0.37-1.3c-0.094-0.338-0.189-0.675-0.277-1.015c-0.114-0.438-0.219-0.88-0.324-1.321    c-0.081-0.341-0.165-0.68-0.241-1.022c-0.099-0.445-0.188-0.895-0.278-1.343c-0.069-0.343-0.141-0.683-0.204-1.027    c-0.084-0.455-0.157-0.915-0.232-1.373c-0.055-0.341-0.115-0.679-0.165-1.021c-0.069-0.469-0.126-0.942-0.185-1.414    c-0.042-0.335-0.089-0.668-0.126-1.004c-0.054-0.49-0.095-0.985-0.138-1.478c-0.028-0.321-0.063-0.639-0.086-0.961    c-0.04-0.549-0.066-1.102-0.093-1.653c-0.013-0.268-0.033-0.533-0.043-0.802c-0.03-0.822-0.046-1.647-0.046-2.474    c0-0.827,0.016-1.652,0.046-2.474c0.01-0.269,0.03-0.534,0.043-0.802c0.027-0.552,0.052-1.105,0.093-1.653    c0.023-0.324,0.058-0.644,0.086-0.966c0.043-0.49,0.083-0.982,0.137-1.47c0.038-0.342,0.085-0.681,0.128-1.022    c0.058-0.465,0.115-0.932,0.183-1.395c0.052-0.351,0.113-0.698,0.17-1.048c0.073-0.448,0.144-0.897,0.226-1.342    c0.066-0.358,0.141-0.713,0.212-1.07c0.087-0.432,0.173-0.866,0.268-1.295c0.08-0.362,0.168-0.72,0.254-1.08    c0.101-0.42,0.2-0.84,0.309-1.257c0.095-0.365,0.197-0.727,0.298-1.09c0.113-0.405,0.226-0.811,0.346-1.213    c0.11-0.37,0.227-0.736,0.344-1.103c0.124-0.391,0.249-0.781,0.38-1.169c0.126-0.372,0.258-0.743,0.39-1.114    c0.134-0.376,0.27-0.75,0.409-1.122c0.143-0.378,0.291-0.753,0.439-1.128c0.142-0.357,0.286-0.713,0.434-1.067    c0.162-0.385,0.328-0.768,0.495-1.149c0.148-0.336,0.299-0.671,0.452-1.005c0.181-0.393,0.365-0.782,0.553-1.17    c0.153-0.316,0.308-0.629,0.465-0.942c0.202-0.399,0.406-0.797,0.615-1.191c0.155-0.293,0.313-0.584,0.472-0.874    c0.225-0.408,0.451-0.815,0.684-1.218c0.154-0.268,0.312-0.532,0.468-0.797c0.25-0.419,0.501-0.837,0.76-1.25    c0.15-0.239,0.303-0.475,0.454-0.713c0.278-0.432,0.558-0.863,0.847-1.288c0.14-0.207,0.284-0.411,0.425-0.617    c0.311-0.448,0.624-0.895,0.946-1.336c0.125-0.171,0.252-0.339,0.378-0.507c0.349-0.468,0.7-0.934,1.061-1.393    c0.102-0.13,0.208-0.258,0.311-0.387c0.393-0.491,0.789-0.98,1.195-1.461c0.068-0.081,0.139-0.16,0.208-0.241    c0.447-0.523,0.9-1.043,1.363-1.553c0.016-0.017,0.032-0.034,0.048-0.052c5.138-5.642,11.281-10.433,18.236-14.101    c0.123-0.065,0.243-0.132,0.365-0.196c0.51-0.266,1.03-0.518,1.548-0.772c0.181-0.088,0.359-0.178,0.541-0.265    c23.232,11.073,38.074,34.426,38.074,60.357C455.899,149.212,441.059,172.564,417.829,183.637z"/>
	</g>
</g>
<g>
	<g>
		<rect x="381.555" y="0.33" width="14.981" height="29.328"/>
	</g>
</g>
<g>
	<g>
		<rect x="381.555" y="216.907" width="14.981" height="29.328"/>
	</g>
</g>
<g>
	<g>
		<rect x="482.674" y="115.788" width="29.327" height="14.981"/>
	</g>
</g>
<g>
	<g>
		<rect x="266.095" y="115.788" width="29.328" height="14.981"/>
	</g>
</g>
<g>
	<g>
		<rect x="450.981" y="39.21" transform="matrix(0.7071 -0.7071 0.7071 0.7071 103.362 342.9391)" width="29.328" height="14.98"/>
	</g>
</g>
<g>
	<g>
		
			<rect x="297.833" y="192.372" transform="matrix(0.7071 -0.7071 0.7071 0.7071 -49.7954 279.5071)" width="29.328" height="14.98"/>
	</g>
</g>
<g>
	<g>
		
			<rect x="458.125" y="185.194" transform="matrix(0.7071 -0.7071 0.7071 0.7071 -4.9451 387.7778)" width="14.98" height="29.328"/>
	</g>
</g>
<g>
	<g>
		<rect x="304.993" y="32.045" transform="matrix(0.7071 -0.7071 0.7071 0.7071 58.4968 234.6404)" width="14.98" height="29.328"/>
	</g>
</g>
<g>
	<g>
		<path d="M122.953,306.883c-45.122,0-81.832,36.709-81.832,81.832c0,45.123,36.709,81.832,81.832,81.832    c45.122,0,81.832-36.71,81.832-81.832S168.075,306.883,122.953,306.883z M122.953,321.864c11.241,0,21.836,2.801,31.143,7.723    H91.81C101.117,324.664,111.711,321.864,122.953,321.864z M72.815,344.568h100.277c2.94,3.336,5.55,6.964,7.786,10.838H65.029    C67.265,351.532,69.874,347.902,72.815,344.568z M58.677,370.386h128.551c1.001,3.505,1.729,7.125,2.144,10.838H56.533    C56.949,377.511,57.676,373.892,58.677,370.386z M122.953,455.565c-11.241,0-21.836-2.801-31.143-7.723h62.285    C144.788,452.764,134.194,455.565,122.953,455.565z M173.091,432.861H72.815c-2.94-3.336-5.55-6.964-7.786-10.838h115.849    C178.641,425.897,176.032,429.526,173.091,432.861z M58.677,407.043c-1.001-3.505-1.729-7.125-2.144-10.838h132.841    c-0.416,3.713-1.144,7.333-2.144,10.838H58.677z"/>
	</g>
</g>
<g>
	<g>
		<rect x="115.46" y="265.764" width="14.981" height="29.328"/>
	</g>
</g>
<g>
	<g>
		<rect x="115.46" y="482.343" width="14.981" height="29.328"/>
	</g>
</g>
<g>
	<g>
		<rect x="216.579" y="381.224" width="29.328" height="14.981"/>
	</g>
</g>
<g>
	<g>
		<rect y="381.224" width="29.328" height="14.981"/>
	</g>
</g>
<g>
	<g>
		
			<rect x="184.879" y="304.663" transform="matrix(0.7071 -0.7071 0.7071 0.7071 -162.2806 232.5252)" width="29.328" height="14.98"/>
	</g>
</g>
<g>
	<g>
		<rect x="31.73" y="457.813" transform="matrix(0.7071 -0.7071 0.7071 0.7071 -315.4308 169.09)" width="29.328" height="14.98"/>
	</g>
</g>
<g>
	<g>
		
			<rect x="192.027" y="450.624" transform="matrix(0.7071 -0.7071 0.7071 0.7071 -270.5703 277.3585)" width="14.98" height="29.328"/>
	</g>
</g>
<g>
	<g>
		
			<rect x="38.894" y="297.479" transform="matrix(0.7071 -0.7071 0.7071 0.7071 -207.1335 124.2239)" width="14.98" height="29.328"/>
	</g>
</g>
<g>
	<g>
		<path d="M425.655,412.274V258.271H352.44v154.002c-12.485,10.67-19.834,26.452-19.834,42.952c0,31.122,25.32,56.442,56.443,56.442    c31.122,0,56.441-25.32,56.441-56.442C445.488,438.725,438.14,422.942,425.655,412.274z M367.42,273.251h43.254V318.6H367.42    V273.251z M367.42,333.582h43.254v9.987H367.42V333.582z M367.42,358.549h43.254v10.838H367.42V358.549z M367.42,384.368h43.254    v10.838H367.42V384.368z M367.422,419.649v-9.463h43.253v9.463l1.856,1.375h-46.964L367.422,419.649z M352.281,436.005h73.533    c1.778,3.395,3.069,7.035,3.841,10.838H348.44C349.212,443.04,350.503,439.4,352.281,436.005z M389.048,496.686    c-9.75,0-18.718-3.391-25.805-9.044h51.609C407.765,493.296,398.798,496.686,389.048,496.686z M426.651,472.662h-75.206    c-1.579-3.392-2.715-7.027-3.327-10.838h81.86C429.365,465.635,428.23,469.27,426.651,472.662z"/>
	</g>
</g>
<g>
</g>
<g>
</g>
<g>
</g>
<g>
</g>
<g>
</g>
<g>
</g>
<g>
</g>
<g>
</g>
<g>
</g>
<g>
</g>
<g>
</g>
<g>
</g>
<g>
</g>
<g>
</g>
<g>
</g>
</svg>
