<?xml version="1.0" encoding="iso-8859-1"?>
<!-- Generator: Adobe Illustrator 19.0.0, SVG Export Plug-In . SVG Version: 6.00 Build 0)  -->
<svg xmlns="http://www.w3.org/2000/svg" xmlns:xlink="http://www.w3.org/1999/xlink" version="1.1" id="Capa_1" x="0px" y="0px" viewBox="0 0 512 512" style="enable-background:new 0 0 512 512;" xml:space="preserve">
<g>
	<g>
		<path d="M506.154,139.214C496.015,89.2,472.999,42.375,439.594,3.8l-2.859-3.301l-4.287,0.832    c-50.092,9.728-97.104,32.359-135.953,65.448c-40.027,34.092-70.309,78.522-87.571,128.488    c-14.42,41.739-19.319,86.269-14.403,129.834c-2.186-1.42-4.393-2.812-6.644-4.142c-28.356-16.751-60.661-25.606-93.419-25.606    c-31.675,0-63.006,8.213-90.605,23.751l-3.805,2.142l-0.04,4.367c-0.289,31.73,7.666,63.186,23.007,90.965    c15.807,28.625,39.124,52.594,67.429,69.315c28.354,16.75,60.659,25.604,93.42,25.606c0.004,0,0.003,0,0.007,0    c31.574,0,62.81-8.168,90.349-23.615c49.338-9.937,95.616-32.396,133.946-65.042c40.027-34.092,70.308-78.522,87.571-128.488    C512.997,244.39,516.6,190.742,506.154,139.214z M496.108,179.103l-122.355,26.817l27.107-78.464l81.653-17.896    C489.94,132.077,494.51,155.457,496.108,179.103z M436.628,23.925c17.187,21.866,30.823,45.935,40.736,71.308l-70.726,15.5    L436.628,23.925z M422.358,18.995l-29.99,86.808L346.292,49.95C369.752,36.107,395.338,25.588,422.358,18.995z M333.398,58.043    l53.193,64.482l-27.107,78.464l-79.709-96.624C295.627,86.747,313.655,71.175,333.398,58.043z M269.831,116.036l83.875,101.676    l-26.579,76.935l-95.568-115.769C241.572,156.145,254.499,135.056,269.831,116.036z M223.195,200.199    c0.625-1.809,1.273-3.605,1.934-5.396l96.222,116.56l-28.07,81.249l-85.492-103.635    C208.127,258.902,213.293,228.86,223.195,200.199z M221.152,367.974l1.121,75.786l-39.383-23.266l-1.239-85.643    C196.623,343.903,209.895,355.119,221.152,367.974z M166.434,326.681l1.227,84.818l-36.98-21.846l-1.118-75.454    C142.256,316.916,154.632,321.1,166.434,326.681z M94.456,310.453c6.691,0.001,13.356,0.427,19.97,1.222l1.021,68.978    l-37.831-22.349l-0.695-46.919C82.737,310.779,88.589,310.453,94.456,310.453z M61.856,313.645l0.527,35.661L23.21,326.164    C35.552,320.456,48.539,316.257,61.856,313.645z M15.538,339.167l39.166,23.138l-31.445,16.724    C19.125,366.206,16.506,352.831,15.538,339.167z M46.941,426.003c-7.306-10.185-13.473-21.156-18.374-32.698l41.37-22.002    l37.831,22.349L46.941,426.003z M85.105,464.354c-10.619-7.688-20.221-16.531-28.666-26.302l66.562-35.401l36.98,21.846    L85.105,464.354z M99.604,473.739l75.607-40.245l39.383,23.266L147.582,492.4C130.82,488.684,114.627,482.412,99.604,473.739z     M183.87,496.406c-0.002-0.001-0.005-0.001-0.006-0.001c-3.665,0-7.323-0.126-10.971-0.365l56.934-30.281l25.284,14.937    C232.842,490.995,208.472,496.406,183.87,496.406z M237.506,452.759l-0.951-64.233c15.021,23.544,24.213,50.729,26.228,79.165    L237.506,452.759z M255.307,390.278c-11.155-20.2-26.063-38.065-43.81-52.717c-1.311-7.92-2.282-15.888-2.9-23.88l78.908,95.655    l-12.413,35.932C271.457,426.068,264.801,407.468,255.307,390.278z M282.301,470.628l19.472-56.363l120.82-26.479    C385.447,428.077,336.789,457.333,282.301,470.628z M481.466,289.427c-10.015,28.987-24.619,55.715-42.881,79.399l-131.034,28.718    l28.07-81.248l147.654-32.308C482.689,285.804,482.09,287.618,481.466,289.427z M488.047,267.489l-146.651,32.089l26.579-76.935    l128.751-28.218C497.048,218.851,494.2,243.423,488.047,267.489z"/>
	</g>
</g>
<g>
	<g>
		
			<rect x="120.865" y="105.474" transform="matrix(0.4875 -0.8731 0.8731 0.4875 -48.6032 179.2774)" width="15.097" height="51.134"/>
	</g>
</g>
<g>
	<g>
		<rect x="176.306" y="53.855" transform="matrix(0.9621 -0.2727 0.2727 0.9621 -14.69 53.1472)" width="15.098" height="51.134"/>
	</g>
</g>
<g>
	<g>
		
			<rect x="88.005" y="197.784" transform="matrix(0.9621 -0.2727 0.2727 0.9621 -51.6898 38.7537)" width="51.135" height="15.098"/>
	</g>
</g>
<g>
</g>
<g>
</g>
<g>
</g>
<g>
</g>
<g>
</g>
<g>
</g>
<g>
</g>
<g>
</g>
<g>
</g>
<g>
</g>
<g>
</g>
<g>
</g>
<g>
</g>
<g>
</g>
<g>
</g>
</svg>
