<?xml version="1.0" encoding="iso-8859-1"?>
<!-- Generator: Adobe Illustrator 19.0.0, SVG Export Plug-In . SVG Version: 6.00 Build 0)  -->
<svg xmlns="http://www.w3.org/2000/svg" xmlns:xlink="http://www.w3.org/1999/xlink" version="1.1" id="Layer_1" x="0px" y="0px" viewBox="0 0 511.999 511.999" style="enable-background:new 0 0 511.999 511.999;" xml:space="preserve">
<g>
	<g>
		<path d="M320.438,114.694h-0.002c0-3.357-1.309-6.509-3.686-8.876c-2.372-2.363-5.534-3.678-8.867-3.641    c-6.962,0.03-19.992,0.936-31.992,6.42c0.892-0.833,1.768-1.682,2.608-2.558c2.869-2.995,2.767-7.749-0.228-10.619    c-2.995-2.869-7.749-2.768-10.619,0.228c-1.295,1.352-2.686,2.633-4.141,3.849V72.918c0-4.147-3.362-7.51-7.51-7.51    c-4.147,0-7.51,3.362-7.51,7.51v28.195c-12.866-9.705-20.234-24.449-20.234-40.661c0-16.611,7.718-31.694,21.174-41.382    c2.161-1.556,4.077-2.778,5.546-3.658c1.469,0.881,3.389,2.105,5.55,3.661c14.66,10.555,22.492,27.673,20.948,45.789    c-0.351,4.132,2.713,7.768,6.846,8.12c4.127,0.346,7.769-2.713,8.12-6.846c1.996-23.43-8.15-45.581-27.139-59.252    c-3.37-2.427-6.278-4.193-8.126-5.246c-3.823-2.18-8.567-2.185-12.382-0.012c-1.848,1.052-4.76,2.819-8.14,5.253    c-17.425,12.544-27.42,32.07-27.42,53.571c0,17.874,6.912,34.379,19.254,46.648c-10.923-4.145-22.105-4.896-28.372-4.923    c-0.019,0-0.036,0-0.054,0c-3.325,0-6.453,1.291-8.812,3.641c-2.377,2.368-3.686,5.52-3.686,8.876v29.722    c0,16.52,6.277,31.599,16.567,42.986c-1.482-0.072-2.842-0.107-4.013-0.112c-0.019,0-0.036,0-0.054,0    c-3.325,0-6.453,1.291-8.812,3.641c-2.377,2.368-3.686,5.52-3.686,8.876v29.722c0,16.52,6.277,31.599,16.567,42.986    c-1.482-0.072-2.842-0.107-4.013-0.112c-0.019,0-0.036,0-0.054,0c-3.325,0-6.453,1.291-8.812,3.641    c-2.377,2.368-3.686,5.52-3.686,8.876v29.722c0,16.52,6.277,31.599,16.567,42.986c-1.482-0.072-2.842-0.107-4.013-0.112    c-0.019,0-0.036,0-0.054,0c-3.325,0-6.453,1.291-8.812,3.641c-2.377,2.368-3.686,5.52-3.686,8.876v29.721    c0,32.936,24.941,60.143,56.925,63.761v40.975c0,4.147,3.362,7.51,7.51,7.51c4.147,0,7.51-3.362,7.51-7.51v-40.975    c31.984-3.618,56.925-30.825,56.925-63.761v-29.721c0-3.357-1.309-6.509-3.686-8.876c-2.372-2.362-5.534-3.624-8.867-3.641    c-1.171,0.005-2.532,0.04-4.013,0.112c10.29-11.387,16.567-26.466,16.567-42.986v-29.722c0-3.357-1.309-6.509-3.686-8.876    c-2.372-2.362-5.534-3.642-8.867-3.641c-1.171,0.005-2.532,0.04-4.013,0.112c10.29-11.387,16.567-26.466,16.567-42.986v-29.722    c0-3.357-1.309-6.509-3.686-8.876c-2.372-2.363-5.534-3.66-8.867-3.641c-1.171,0.005-2.532,0.04-4.013,0.112    c10.29-11.387,16.567-26.466,16.567-42.986V114.694z M248.239,448.345c-23.556-3.626-41.653-24.035-41.653-48.59v-27.173    c16.646,0.548,41.653,6.191,41.653,35.106V448.345z M248.239,363.231c-23.556-3.626-41.653-24.034-41.653-48.59v-27.173    c16.646,0.548,41.653,6.191,41.653,35.106V363.231z M248.239,278.118c-23.556-3.626-41.653-24.035-41.653-48.59v-27.173    c16.646,0.548,41.653,6.191,41.653,35.106V278.118z M248.239,193.005c-23.556-3.626-41.653-24.035-41.653-48.59v-27.173    c16.646,0.548,41.653,6.191,41.653,35.106V193.005z M305.416,372.582v27.173c0,24.555-18.096,44.964-41.653,48.59v-40.656    C263.764,378.774,288.77,373.131,305.416,372.582z M305.416,287.469v27.173c0,24.555-18.096,44.964-41.653,48.59v-40.656    C263.764,293.659,288.77,288.017,305.416,287.469z M305.416,202.356v27.173c0,24.555-18.096,44.964-41.653,48.59v-40.656    C263.764,208.546,288.77,202.904,305.416,202.356z M305.416,144.415c0,24.555-18.096,44.964-41.653,48.59v-40.656    c0-28.915,25.007-34.557,41.653-35.106V144.415z"/>
	</g>
</g>
<g>
	<g>
		<path d="M471.547,137.049c-2.39-2.364-5.551-3.617-8.912-3.608c-5.634,0.062-15.595,0.79-25.361,4.488    c2.677-3.003,2.523-7.607-0.406-10.412c-2.996-2.87-7.75-2.767-10.618,0.227c-0.803,0.838-1.653,1.644-2.526,2.425v-22.514    c0-4.147-3.362-7.51-7.51-7.51s-7.51,3.362-7.51,7.51v24.093c-10.769-8.651-16.9-21.406-16.9-35.379    c0-14.809,6.88-28.255,18.878-36.892c1.773-1.276,3.362-2.301,4.606-3.058c1.245,0.758,2.835,1.784,4.611,3.061    c11.676,8.406,18.54,21.509,18.833,35.948c0.011,0.539,0.013,1.078,0.005,1.618c-0.059,4.147,3.256,7.557,7.404,7.615    c0.036,0.001,0.072,0.001,0.108,0.001c4.098,0,7.45-3.293,7.507-7.405c0.01-0.711,0.008-1.422-0.006-2.134    c-0.39-19.206-9.528-36.64-25.074-47.832c-2.38-1.714-4.788-3.274-7.157-4.638c-3.844-2.215-8.634-2.207-12.499,0.022    c-2.36,1.362-4.753,2.913-7.112,4.612c-15.966,11.493-25.122,29.383-25.122,49.082c0,15.357,5.587,29.599,15.606,40.583    c-8.841-2.858-17.493-3.454-22.596-3.51c-3.335-0.038-6.523,1.244-8.913,3.608c-2.398,2.371-3.718,5.535-3.718,8.909v26.433    c0,14.546,5.319,27.866,14.099,38.144c-0.515-0.015-1.008-0.025-1.468-0.031c-3.335-0.038-6.523,1.243-8.913,3.608    c-2.398,2.371-3.718,5.535-3.718,8.909v26.433c0,14.546,5.319,27.866,14.098,38.145c-0.515-0.015-1.008-0.025-1.469-0.031    c-3.361-0.055-6.523,1.244-8.913,3.609c-2.397,2.371-3.717,5.535-3.717,8.908v26.433c0,14.546,5.319,27.866,14.098,38.144    c-0.515-0.015-1.008-0.025-1.469-0.031c-3.361-0.056-6.523,1.244-8.913,3.609c-2.397,2.371-3.717,5.535-3.717,8.908v26.433    c0,29.969,22.532,54.756,51.541,58.356v36.476c0,4.147,3.362,7.51,7.51,7.51s7.51-3.362,7.51-7.51v-36.476    c29.009-3.6,51.541-28.388,51.541-58.356v-26.433c0-3.373-1.32-6.536-3.717-8.908c-2.39-2.364-5.554-3.645-8.913-3.609    c-0.46,0.005-0.953,0.016-1.468,0.031c8.78-10.279,14.099-23.598,14.099-38.144v-26.434c0-3.373-1.32-6.536-3.717-8.908    c-2.39-2.364-5.554-3.667-8.913-3.609c-0.46,0.005-0.953,0.016-1.468,0.031c8.78-10.279,14.099-23.598,14.099-38.145v-31.301    c0-3.887-2.966-7.132-6.836-7.48c-0.353-0.032-3.116-0.259-7.263-0.138c8.78-10.279,14.099-23.599,14.099-38.145v-26.433h0.001    C475.265,142.585,473.945,139.421,471.547,137.049z M408.476,446.744c-20.589-3.571-36.294-21.566-36.294-43.159v-23.861    c14.634,0.644,36.294,5.857,36.294,31.045V446.744z M408.476,369.68c-20.589-3.571-36.294-21.566-36.294-43.159V302.66    c14.634,0.644,36.294,5.857,36.294,31.045V369.68z M408.476,292.615c-20.589-3.571-36.294-21.566-36.294-43.159v-23.86    c14.634,0.644,36.294,5.856,36.294,31.045V292.615z M408.476,215.551c-20.589-3.571-36.294-21.566-36.294-43.159V148.53    c14.634,0.644,36.294,5.856,36.294,31.045V215.551z M460.245,403.585c0,21.594-15.705,39.588-36.294,43.159v-35.976    c0-25.188,21.66-30.401,36.294-31.045V403.585z M460.245,326.52c0,21.595-15.705,39.588-36.294,43.159v-35.976    c0-25.188,21.66-30.402,36.294-31.045V326.52z M423.951,292.615v-35.976c0-9.32,2.706-16.335,8.273-21.446    c8.073-7.413,20.394-9.226,28.02-9.589v23.851h0.001C460.245,271.051,444.54,289.044,423.951,292.615z M460.245,172.393    c0,21.594-15.705,39.588-36.294,43.159v-35.976c0-25.186,21.66-30.401,36.294-31.045V172.393z"/>
	</g>
</g>
<g>
	<g>
		<path d="M151.121,137.049c-2.39-2.364-5.556-3.617-8.912-3.608c-5.634,0.062-15.596,0.79-25.361,4.488    c2.677-3.003,2.523-7.607-0.406-10.412c-2.995-2.87-7.75-2.767-10.618,0.227c-0.803,0.838-1.653,1.644-2.526,2.425v-22.514    c0-4.147-3.362-7.51-7.51-7.51s-7.51,3.362-7.51,7.51v24.093c-10.769-8.651-16.9-21.406-16.9-35.379    c0-14.809,6.88-28.255,18.878-36.892c1.773-1.276,3.362-2.301,4.606-3.058c1.245,0.758,2.835,1.784,4.611,3.061    c11.676,8.406,18.54,21.509,18.833,35.948c0.011,0.539,0.013,1.078,0.005,1.618c-0.059,4.147,3.256,7.557,7.404,7.615    c0.036,0.001,0.072,0.001,0.108,0.001c4.099,0,7.45-3.293,7.507-7.405c0.01-0.711,0.008-1.422-0.006-2.134    c-0.39-19.206-9.528-36.64-25.074-47.832c-2.38-1.714-4.788-3.274-7.157-4.638c-3.844-2.215-8.634-2.207-12.499,0.022    c-2.36,1.362-4.753,2.913-7.112,4.612C65.513,58.779,56.357,76.67,56.357,96.369c0,15.357,5.587,29.599,15.606,40.583    c-8.841-2.858-17.493-3.454-22.596-3.51c-3.329-0.038-6.522,1.244-8.913,3.608c-2.398,2.371-3.718,5.535-3.718,8.909v26.433    c0,14.546,5.319,27.866,14.099,38.144c-0.515-0.015-1.008-0.025-1.468-0.031c-3.329-0.038-6.522,1.243-8.913,3.608    c-2.398,2.371-3.718,5.535-3.718,8.909v26.433c0,14.546,5.319,27.866,14.098,38.145c-0.515-0.015-1.008-0.025-1.469-0.031    c-3.341-0.055-6.522,1.244-8.913,3.609c-2.397,2.371-3.717,5.535-3.717,8.908v26.433c0,14.546,5.319,27.866,14.098,38.144    c-0.515-0.015-1.008-0.025-1.469-0.031c-3.341-0.056-6.522,1.244-8.913,3.609c-2.397,2.371-3.717,5.535-3.717,8.908v26.433    c0,29.969,22.532,54.756,51.541,58.356v36.476c0,4.147,3.362,7.51,7.51,7.51s7.51-3.362,7.51-7.51v-36.476    c29.009-3.6,51.541-28.388,51.541-58.356v-26.433c0-3.373-1.32-6.536-3.717-8.908c-2.39-2.364-5.578-3.645-8.913-3.609    c-0.46,0.005-0.953,0.016-1.468,0.031c8.78-10.279,14.098-23.598,14.098-38.144v-26.434c0-3.373-1.32-6.536-3.717-8.908    c-2.39-2.364-5.578-3.667-8.913-3.609c-0.46,0.005-0.953,0.016-1.468,0.031c8.78-10.279,14.098-23.598,14.098-38.145v-26.433    c0-3.373-1.32-6.537-3.718-8.909c-2.39-2.365-5.567-3.654-8.912-3.608c-0.46,0.005-0.953,0.016-1.469,0.031    c8.78-10.279,14.099-23.598,14.099-38.144v-26.433h0.004C154.839,142.585,153.519,139.421,151.121,137.049z M88.049,446.744    c-20.589-3.571-36.294-21.566-36.294-43.159v-23.861c14.634,0.644,36.294,5.857,36.294,31.045V446.744z M88.049,369.68    c-20.589-3.571-36.294-21.566-36.294-43.159V302.66c14.634,0.643,36.294,5.856,36.294,31.045V369.68z M88.049,292.616    c-20.589-3.571-36.294-21.566-36.294-43.159v-23.86c14.634,0.643,36.294,5.855,36.294,31.044V292.616z M88.049,215.552    c-20.589-3.571-36.294-21.566-36.294-43.159v-23.861c14.634,0.644,36.294,5.856,36.294,31.045V215.552z M139.819,403.585    c0,21.594-15.705,39.588-36.294,43.159v-35.976c0-25.188,21.66-30.401,36.294-31.045V403.585z M139.819,326.521    c0,21.595-15.705,39.588-36.294,43.159v-35.976c0.001-25.189,21.661-30.402,36.294-31.045V326.521z M139.819,249.456    c0,21.595-15.705,39.588-36.294,43.159v-35.976c0.001-25.186,21.66-30.4,36.294-31.044V249.456z M139.82,172.392    c0,21.594-15.705,39.588-36.294,43.159v-35.976c0-25.186,21.66-30.401,36.294-31.045V172.392z"/>
	</g>
</g>
<g>
</g>
<g>
</g>
<g>
</g>
<g>
</g>
<g>
</g>
<g>
</g>
<g>
</g>
<g>
</g>
<g>
</g>
<g>
</g>
<g>
</g>
<g>
</g>
<g>
</g>
<g>
</g>
<g>
</g>
</svg>
