<?xml version="1.0" encoding="iso-8859-1"?>
<!-- Generator: Adobe Illustrator 19.0.0, SVG Export Plug-In . SVG Version: 6.00 Build 0)  -->
<svg xmlns="http://www.w3.org/2000/svg" xmlns:xlink="http://www.w3.org/1999/xlink" version="1.1" id="Capa_1" x="0px" y="0px" viewBox="0 0 512 512" style="enable-background:new 0 0 512 512;" xml:space="preserve">
<g>
	<g>
		<path d="M460.275,311.556C456.313,202.297,366.21,114.629,256,114.629c-110.209,0-200.313,87.668-204.275,196.927H0v15h51.573    h408.854H512v-15H460.275z M66.72,311.556C70.671,210.568,154.062,129.629,256,129.629s185.328,80.939,189.28,181.927H66.72z"/>
	</g>
</g>
<g>
	<g>
		<rect x="35.32" y="353.391" width="441.36" height="15"/>
	</g>
</g>
<g>
	<g>
		<rect x="77.876" y="395.22" width="356.25" height="15"/>
	</g>
</g>
<g>
	<g>
		<rect x="122.41" y="437.051" width="267.18" height="15"/>
	</g>
</g>
<g>
	<g>
		<rect x="248.5" y="59.949" width="15" height="44.19"/>
	</g>
</g>
<g>
	<g>
		<rect x="401.475" y="143.972" transform="matrix(0.7071 -0.7071 0.7071 0.7071 16.9539 343.874)" width="44.19" height="15"/>
	</g>
</g>
<g>
	<g>
		<rect x="80.904" y="129.364" transform="matrix(0.7071 -0.7071 0.7071 0.7071 -81.2049 106.8723)" width="15" height="44.19"/>
	</g>
</g>
<g>
	<g>
		<rect x="298.603" y="83.547" transform="matrix(0.273 -0.962 0.962 0.273 145.5576 374.7058)" width="44.189" height="14.999"/>
	</g>
</g>
<g>
	<g>
		<rect x="20.486" y="232.261" transform="matrix(0.273 -0.962 0.962 0.273 -224.3482 211.8394)" width="15" height="44.189"/>
	</g>
</g>
<g>
	<g>
		<rect x="440.875" y="196.055" transform="matrix(0.8733 -0.4872 0.4872 0.8733 -40.5097 251.3494)" width="44.19" height="15"/>
	</g>
</g>
<g>
	<g>
		<rect x="133.014" y="89.991" transform="matrix(0.8733 -0.4872 0.4872 0.8733 -36.8038 82.6601)" width="15" height="44.19"/>
	</g>
</g>
<g>
	<g>
		
			<rect x="354.353" y="107.43" transform="matrix(0.5082 -0.8612 0.8612 0.5082 86.1498 380.7273)" width="44.188" height="14.998"/>
	</g>
</g>
<g>
	<g>
		
			<rect x="44.382" y="176.5" transform="matrix(0.5082 -0.8612 0.8612 0.5082 -145.5206 142.3461)" width="14.998" height="44.189"/>
	</g>
</g>
<g>
	<g>
		
			<rect x="463.431" y="252.394" transform="matrix(0.9683 -0.2496 0.2496 0.9683 -49.5039 129.4198)" width="44.188" height="14.999"/>
	</g>
</g>
<g>
	<g>
		
			<rect x="189.342" y="67.443" transform="matrix(0.9683 -0.2496 0.2496 0.9683 -16.1188 51.9685)" width="14.999" height="44.188"/>
	</g>
</g>
<g>
	<g>
		<path d="M407.053,230.456l-12.932,7.601c5.343,9.09,9.795,18.743,13.233,28.689l14.178-4.899    C417.77,250.962,412.899,240.402,407.053,230.456z"/>
	</g>
</g>
<g>
	<g>
		<path d="M322.989,157.238l-5.742,13.857c26.516,10.989,49.667,28.989,66.952,52.056l12.004-8.995    C377.306,188.938,351.989,169.256,322.989,157.238z"/>
	</g>
</g>
<g>
</g>
<g>
</g>
<g>
</g>
<g>
</g>
<g>
</g>
<g>
</g>
<g>
</g>
<g>
</g>
<g>
</g>
<g>
</g>
<g>
</g>
<g>
</g>
<g>
</g>
<g>
</g>
<g>
</g>
</svg>
