<?xml version="1.0" encoding="iso-8859-1"?>
<!-- Generator: Adobe Illustrator 19.0.0, SVG Export Plug-In . SVG Version: 6.00 Build 0)  -->
<svg xmlns="http://www.w3.org/2000/svg" xmlns:xlink="http://www.w3.org/1999/xlink" version="1.1" id="Layer_1" x="0px" y="0px" viewBox="0 0 512.001 512.001" style="enable-background:new 0 0 512.001 512.001;" xml:space="preserve">
<g>
	<g>
		<circle cx="168.33" cy="186.247" r="8.578"/>
	</g>
</g>
<g>
	<g>
		<circle cx="289.215" cy="181.13" r="8.578"/>
	</g>
</g>
<g>
	<g>
		<circle cx="272.059" cy="150.804" r="8.578"/>
	</g>
</g>
<g>
	<g>
		<path d="M198.662,68.371c-4.202-9.674-12.522-20.513-18.783-27.923c-2.379-2.818-5.856-4.435-9.542-4.435    c-0.001,0-0.001,0-0.002,0c-3.684,0-7.162,1.617-9.543,4.434c-6.263,7.414-14.585,18.255-18.784,27.924    c-2.161,4.387-3.257,9.07-3.257,13.925c0,8.905,3.788,17.441,10.393,23.421c5.82,5.269,13.427,8.16,21.254,8.16    c1.049,0,2.103-0.052,3.157-0.158c14.135-1.41,25.623-12.188,27.934-26.208C202.574,80.941,201.597,74.327,198.662,68.371z     M186.699,85.071c-1.193,7.231-7.347,13.007-14.634,13.734c-4.778,0.474-9.346-1.015-12.864-4.201    c-3.472-3.143-5.464-7.629-5.464-12.308c0-2.577,0.596-5.07,1.769-7.41c0.067-0.133,0.13-0.268,0.188-0.404    c3.169-7.38,9.905-16.287,14.64-22.07c4.733,5.781,11.47,14.685,14.64,22.07c0.058,0.136,0.121,0.271,0.187,0.403    C186.746,78.046,187.278,81.568,186.699,85.071z"/>
	</g>
</g>
<g>
	<g>
		<path d="M369.99,73.509c-4.202-9.67-12.522-20.511-18.784-27.924c-2.38-2.818-5.858-4.434-9.544-4.434    c-3.684,0-7.162,1.616-9.542,4.434c-6.262,7.413-14.583,18.253-18.783,27.924c-2.162,4.388-3.258,9.07-3.258,13.924    c0,8.905,3.788,17.441,10.393,23.421c5.82,5.269,13.427,8.16,21.254,8.16c1.049,0,2.103-0.052,3.158-0.157    c14.134-1.41,25.623-12.186,27.935-26.208C373.901,86.077,372.924,79.463,369.99,73.509z M358.027,90.209    c-1.193,7.231-7.347,13.006-14.634,13.733c-4.776,0.474-9.346-1.015-12.865-4.201c-3.472-3.143-5.464-7.629-5.464-12.308    c0-2.576,0.596-5.069,1.77-7.41c0.067-0.133,0.129-0.268,0.188-0.404c3.169-7.381,9.905-16.288,14.639-22.07    c4.734,5.781,11.471,14.688,14.641,22.072c0.059,0.136,0.121,0.27,0.187,0.402C358.073,83.183,358.605,86.705,358.027,90.209z"/>
	</g>
</g>
<g>
	<g>
		<path d="M284.873,32.358c-4.202-9.67-12.522-20.511-18.784-27.924C263.708,1.616,260.23,0,256.545,0    c-3.684,0-7.162,1.616-9.542,4.434c-6.262,7.413-14.583,18.254-18.784,27.925c-2.161,4.388-3.257,9.072-3.257,13.924    c0,8.905,3.788,17.441,10.393,23.421c5.82,5.27,13.427,8.161,21.255,8.161c1.049,0,2.102-0.052,3.156-0.159    c14.135-1.41,25.623-12.188,27.935-26.209C288.784,44.926,287.806,38.312,284.873,32.358z M272.909,49.059    c-1.193,7.231-7.347,13.007-14.634,13.734c-4.777,0.476-9.347-1.015-12.865-4.201c-3.472-3.143-5.464-7.629-5.464-12.308    c0-2.575,0.596-5.069,1.77-7.411c0.067-0.132,0.129-0.266,0.187-0.402c3.169-7.382,9.906-16.289,14.64-22.071    c4.735,5.781,11.472,14.689,14.641,22.071c0.059,0.136,0.121,0.27,0.187,0.402C272.955,42.033,273.487,45.555,272.909,49.059z"/>
	</g>
</g>
<g>
	<g>
		<path d="M408.031,206.619c-1.145-10.906-5.181-21.188-11.864-30.043c-2.493-3.303-7.191-3.961-10.497-1.467    c-3.303,2.493-3.96,7.192-1.467,10.496c4.487,5.945,7.394,12.746,8.58,19.976h-9.029c-2.219-11.414-12.288-20.057-24.342-20.057    c-12.054,0-22.123,8.643-24.342,20.057H125.255c3.586-21.619,22.416-38.156,45.036-38.156c4.773,0,9.494,0.741,14.028,2.205    c3.544,1.144,7.391-0.489,9.031-3.835c10.94-22.33,33.168-36.202,58.009-36.202c26.634,0,50.89,16.73,60.358,41.63    c0.807,2.12,2.53,3.762,4.687,4.464c2.157,0.701,4.516,0.389,6.416-0.852c7.422-4.847,16.038-7.41,24.919-7.41    c2.936,0,5.868,0.28,8.721,0.83c4.067,0.784,7.996-1.873,8.78-5.936c0.784-4.064-1.874-7.995-5.936-8.78    c-3.786-0.731-7.678-1.103-11.564-1.103c-8.871,0-17.545,1.925-25.497,5.62c-13.452-26.297-40.95-43.451-70.884-43.451    c-28.527,0-54.257,14.847-68.533,39.137c-4.113-0.868-8.307-1.306-12.534-1.306c-30.966,0-56.567,23.336-60.185,53.341    c-7.235,0.941-12.845,7.129-12.845,14.616v31.85c0,8.136,6.619,14.754,14.755,14.754h1.19l4.616,74.82    c-22.555,38.449-28.584,62.092-18.949,74.299c4.375,5.545,10.967,7.229,16.843,7.229c2.586,0,5.028-0.329,7.087-0.795    l3.764,61.002c0.983,15.953,14.274,28.449,30.256,28.449h201.16c15.983,0,29.274-12.496,30.257-28.449l11.588-187.816    c0.218-0.702,0.336-1.449,0.336-2.222c0-0.441-0.046-0.87-0.119-1.29l1.556-25.224h1.19c8.136,0,14.754-6.619,14.754-14.754    v-31.85C417.548,214.106,413.585,208.737,408.031,206.619z M121.035,407.53c-0.218,0.047-0.433,0.104-0.646,0.169    c-1.868,0.578-7.89,1.49-9.75-0.866c-0.667-0.846-5.019-8.008,8.929-36.733l2.297,37.238    C121.588,407.399,121.313,407.47,121.035,407.53z M130.321,301.009h125.675c4.14,0,7.494-3.355,7.494-7.494    c0-4.139-3.354-7.494-7.494-7.494H129.397l-1.173-19.021h189.482c-4.672,5.918-9.918,12.318-15.706,19.021h-7.07    c-4.14,0-7.494,3.355-7.494,7.494c0,2.325,1.059,4.403,2.721,5.777c-2.863,3.106-5.813,6.241-8.874,9.401    c-33.131,34.203-84.137,77.017-144.635,94.836L130.321,301.009z M385.414,286.021h-24.023c-4.14,0-7.494,3.355-7.494,7.494    c0,4.139,3.354,7.494,7.494,7.494h23.099l-11.206,181.622c-0.498,8.066-7.218,14.384-15.299,14.384h-201.16    c-8.081,0-14.8-6.318-15.298-14.384l-3.934-63.758c65.069-18.156,119.443-63.606,154.454-99.751    c5.97-6.163,11.56-12.232,16.769-18.112h12.622c4.14,0,7.494-3.355,7.494-7.494c0-4.073-3.25-7.379-7.298-7.484    c5.67-6.862,10.702-13.274,15.057-19.031h49.897L385.414,286.021z M402.561,252.011h-0.001h-8.002h-46.94    c2.983-4.258,5.26-7.662,6.786-9.996h10.475c4.14,0,7.494-3.355,7.494-7.494c0-4.139-3.354-7.494-7.494-7.494h-14.574    c-2.596,0-5.007,1.343-6.373,3.55c-0.108,0.175-5.287,8.484-14.801,21.434H120.253h-8.003v-31.382h230.107    c2.199,0,4.288-0.966,5.712-2.643c1.424-1.676,2.039-3.893,1.685-6.063c-0.102-0.617-0.15-1.141-0.15-1.601    c0-5.41,4.401-9.81,9.81-9.81c5.41,0,9.81,4.401,9.81,9.81c0,0.464-0.049,0.987-0.149,1.601c-0.355,2.17,0.261,4.388,1.685,6.063    c1.424,1.677,3.512,2.643,5.712,2.643h26.089V252.011z"/>
	</g>
</g>
<g>
	<g>
		<circle cx="161.445" cy="444.075" r="8.578"/>
	</g>
</g>
<g>
	<g>
		<circle cx="191.462" cy="471.943" r="8.578"/>
	</g>
</g>
<g>
	<g>
		<circle cx="348.509" cy="323.239" r="8.578"/>
	</g>
</g>
<g>
</g>
<g>
</g>
<g>
</g>
<g>
</g>
<g>
</g>
<g>
</g>
<g>
</g>
<g>
</g>
<g>
</g>
<g>
</g>
<g>
</g>
<g>
</g>
<g>
</g>
<g>
</g>
<g>
</g>
</svg>
