<?xml version="1.0" encoding="iso-8859-1"?>
<!-- Generator: Adobe Illustrator 19.0.0, SVG Export Plug-In . SVG Version: 6.00 Build 0)  -->
<svg xmlns="http://www.w3.org/2000/svg" xmlns:xlink="http://www.w3.org/1999/xlink" version="1.1" id="Layer_1" x="0px" y="0px" viewBox="0 0 511.999 511.999" style="enable-background:new 0 0 511.999 511.999;" xml:space="preserve">
<g>
	<g>
		<path d="M252.44,219.721c-52.808,0-95.771,35.141-95.771,78.334c0,43.194,42.962,78.334,95.771,78.334    c52.807,0,95.77-35.141,95.77-78.334C348.21,254.861,305.247,219.721,252.44,219.721z M252.44,361.391    c-44.538,0-80.773-28.413-80.773-63.336s36.235-63.336,80.773-63.336c44.538,0,80.772,28.413,80.772,63.336    C333.212,332.979,296.979,361.391,252.44,361.391z"/>
	</g>
</g>
<g>
	<g>
		<path d="M228.717,276.906c-4.142,0-7.499,3.358-7.499,7.499v27.3c0,4.141,3.357,7.499,7.499,7.499    c4.142,0,7.499-3.358,7.499-7.499v-27.3C236.216,280.264,232.859,276.906,228.717,276.906z"/>
	</g>
</g>
<g>
	<g>
		<path d="M276.162,276.906c-4.142,0-7.499,3.358-7.499,7.499v27.3c0,4.141,3.357,7.499,7.499,7.499    c4.142,0,7.499-3.358,7.499-7.499v-27.3C283.661,280.264,280.304,276.906,276.162,276.906z"/>
	</g>
</g>
<g>
	<g>
		<circle cx="176.534" cy="205.05" r="13.546"/>
	</g>
</g>
<g>
	<g>
		<circle cx="335.25" cy="205.05" r="13.546"/>
	</g>
</g>
<g>
	<g>
		<path d="M508.785,103.154c-4.23-6.349-9.088-12.303-14.434-17.697c-2.917-2.942-7.665-2.963-10.604-0.048    c-2.942,2.916-2.964,7.663-0.048,10.604c4.668,4.71,8.91,9.911,12.607,15.459c0.906,1.36,0.939,3.135,0.086,4.524    c-7.359,11.973-29.773,41.937-78.826,61.52c-0.646,0.258-1.297,0.515-1.953,0.769c-9.206,3.572-16.902,3.172-23.527-1.226    c-10.845-7.197-19.549-25.288-25.169-52.315c-4.977-23.933-6.345-49.19-6.717-62.114c-0.067-2.332,1.7-4.249,4.021-4.367    c19.047-0.963,55.934-0.155,88.957,16.084c3.716,1.828,8.211,0.296,10.039-3.42c1.828-3.716,0.296-8.211-3.42-10.039    c-36.059-17.731-75.829-18.64-96.334-17.602c-10.363,0.525-18.553,9.397-18.255,19.776c0.004,0.145,0.009,0.293,0.013,0.439    c-28.878-11.96-60.397-18.267-92.96-18.267c-29.811,0-58.742,5.297-85.577,15.366c-0.942-9.283-8.616-16.831-18.148-17.313    c-20.38-1.031-59.937-0.141-95.896,17.391c-3.722,1.815-5.269,6.304-3.453,10.026c1.814,3.722,6.302,5.27,10.027,3.453    c32.937-16.06,69.633-16.849,88.566-15.893c2.323,0.118,4.09,2.036,4.022,4.366c-0.372,12.925-1.74,38.181-6.717,62.115    c-5.62,27.028-14.324,45.118-25.169,52.315c-6.626,4.397-14.324,4.798-23.528,1.226c-0.655-0.254-1.307-0.511-1.952-0.769    c-49.054-19.583-71.467-49.547-78.826-61.52c-0.854-1.39-0.82-3.166,0.085-4.524c3.837-5.756,8.258-11.135,13.139-15.99    c2.937-2.921,2.949-7.669,0.028-10.604c-2.92-2.937-7.666-2.95-10.604-0.029c-5.589,5.557-10.649,11.716-15.042,18.305    c-4.14,6.213-4.29,14.337-0.383,20.695c5.466,8.892,18.402,26.73,42.402,43.923c-13.856,27.628-21.205,57.951-21.205,89.345    c0,56.705,23.814,109.985,67.056,150.024c43.082,39.891,100.323,61.86,161.178,61.86c73.896,0,143.553-33.454,186.333-89.491    c2.514-3.291,1.883-7.998-1.41-10.511c-3.292-2.513-7.998-1.881-10.51,1.41c-39.962,52.344-105.162,83.593-174.413,83.593    c-117.579,0-213.237-88.323-213.237-196.886c0-28.852,6.781-56.262,18.91-80.976c9.032,5.447,19.302,10.658,30.936,15.304    c0.692,0.276,1.389,0.551,2.09,0.823c5.941,2.306,11.636,3.457,17.055,3.457c7.244,0,13.996-2.059,20.191-6.169    c27.511-18.257,35.71-73.503,37.979-112.552c26.34-10.773,55.461-16.772,86.074-16.772c33.626,0,65.442,7.249,93.758,20.104    c2.541,38.796,11.036,91.476,37.773,109.221c6.196,4.111,12.947,6.169,20.191,6.169c5.418,0,11.112-1.152,17.054-3.457    c0.702-0.272,1.398-0.547,2.091-0.823c9.199-3.672,17.524-7.704,25.08-11.92c11.111,23.822,17.29,50.05,17.29,77.593    c0,27.615-6.069,54.321-18.04,79.375c-1.785,3.737-0.203,8.214,3.533,9.999c3.737,1.785,8.214,0.204,10-3.533    c12.942-27.09,19.505-55.971,19.505-85.841c0-29.938-6.665-58.912-19.296-85.496c27.603-18.32,42.095-38.214,47.97-47.772    C513.078,117.491,512.927,109.367,508.785,103.154z"/>
	</g>
</g>
<g>
</g>
<g>
</g>
<g>
</g>
<g>
</g>
<g>
</g>
<g>
</g>
<g>
</g>
<g>
</g>
<g>
</g>
<g>
</g>
<g>
</g>
<g>
</g>
<g>
</g>
<g>
</g>
<g>
</g>
</svg>
