<?xml version="1.0" encoding="iso-8859-1"?>
<!-- Generator: Adobe Illustrator 19.0.0, SVG Export Plug-In . SVG Version: 6.00 Build 0)  -->
<svg xmlns="http://www.w3.org/2000/svg" xmlns:xlink="http://www.w3.org/1999/xlink" version="1.1" id="Capa_1" x="0px" y="0px" viewBox="0 0 512 512" style="enable-background:new 0 0 512 512;" xml:space="preserve">
<g>
	<g>
		<path d="M476.958,256c0-38.01-2.775-75.423-8.243-111.356h0.065l-1.444-8.725l-1.039-6.275h-0.047    c-1.364-7.783-2.842-15.502-4.448-23.068h0.076l-2.093-9.169l-1.331-5.831h-0.031c-13.281-55.709-28.755-86.191-29.428-87.503    L426.902,0l-73.524,0.004L353.376,0l-66.383,0.002L286.992,0h-46.159h-15.824H175.73h-17.105H85.098l-2.092,4.073    c-0.674,1.312-16.147,31.794-29.428,87.503h-0.031l-1.331,5.831l-2.093,9.169h0.076c-1.606,7.566-3.085,15.285-4.448,23.068    h-0.047l-1.039,6.275l-1.444,8.725h0.065C37.817,180.577,35.042,217.99,35.042,256c0,35.516,2.428,70.563,7.209,104.323h-0.063    l1.337,8.646l0.982,6.354h0.048c1.275,7.755,2.669,15.47,4.195,23.068h-0.073l1.962,9.084l1.278,5.916h0.029    c13.589,60.114,30.33,93.117,31.059,94.535L85.097,512h73.526h17.104h49.281h5.393h40.769h15.824h49.281h17.104h73.526    l2.092-4.074c0.728-1.418,17.469-34.421,31.059-94.535h0.029l1.278-5.916l1.962-9.084h-0.073    c1.526-7.597,2.92-15.313,4.195-23.068h0.048l0.982-6.354l1.337-8.646h-0.063C474.531,326.563,476.958,291.516,476.958,256z     M417.585,14.997V15c4.379,9.599,15.448,35.927,25.407,76.576H386.96c-0.395-1.552-0.791-3.078-1.189-4.591    c-0.092-0.35-0.184-0.699-0.276-1.048c-0.41-1.549-0.822-3.084-1.234-4.591c-0.024-0.088-0.049-0.174-0.073-0.263    c-0.395-1.441-0.792-2.858-1.188-4.261c-0.091-0.323-0.183-0.647-0.274-0.968c-0.41-1.439-0.82-2.86-1.23-4.258    c-0.063-0.216-0.127-0.427-0.19-0.643c-0.369-1.251-0.738-2.484-1.106-3.702c-0.084-0.277-0.168-0.557-0.252-0.833    c-0.407-1.336-0.813-2.651-1.218-3.945c-0.085-0.271-0.169-0.538-0.254-0.807c-0.366-1.162-0.731-2.308-1.095-3.436    c-0.063-0.194-0.125-0.391-0.188-0.584c-0.406-1.252-0.81-2.48-1.212-3.69c-0.091-0.274-0.182-0.544-0.273-0.816    c-0.388-1.158-0.774-2.302-1.158-3.421c-0.022-0.065-0.045-0.133-0.067-0.198c-0.403-1.174-0.803-2.319-1.201-3.45    c-0.09-0.255-0.179-0.509-0.269-0.762c-0.394-1.113-0.786-2.21-1.173-3.279c-0.031-0.085-0.061-0.167-0.092-0.251    c-0.367-1.011-0.731-1.998-1.091-2.97c-0.081-0.218-0.162-0.436-0.242-0.652c-0.377-1.01-0.75-2.001-1.119-2.968    c-0.058-0.152-0.115-0.299-0.173-0.45c-0.337-0.88-0.67-1.741-0.999-2.585c-0.061-0.156-0.122-0.314-0.183-0.469    c-0.361-0.921-0.717-1.818-1.068-2.694c-0.066-0.166-0.132-0.327-0.198-0.491c-0.324-0.805-0.643-1.593-0.957-2.36    c-0.037-0.09-0.075-0.183-0.111-0.273c-0.341-0.83-0.675-1.633-1.004-2.417c-0.065-0.156-0.13-0.309-0.195-0.463    c-0.662-1.573-1.297-3.051-1.902-4.433c-0.052-0.12-0.105-0.239-0.157-0.358c-0.303-0.689-0.599-1.358-0.886-1.999    c-0.006-0.014-0.012-0.027-0.018-0.041c-0.177-0.395-0.352-0.783-0.522-1.159H417.585z M344.326,15.001V15    c0.087,0.178,0.174,0.357,0.266,0.547c0.054,0.111,0.104,0.215,0.16,0.33c0.183,0.38,0.375,0.784,0.576,1.208    c0.059,0.125,0.122,0.259,0.183,0.388c0.153,0.325,0.311,0.663,0.474,1.012c0.078,0.168,0.158,0.339,0.238,0.513    c0.18,0.39,0.367,0.797,0.558,1.215c0.057,0.125,0.112,0.243,0.169,0.37c0.245,0.54,0.5,1.105,0.761,1.69    c0.072,0.162,0.148,0.333,0.221,0.499c0.203,0.458,0.411,0.928,0.623,1.412c0.088,0.201,0.176,0.402,0.265,0.607    c0.238,0.546,0.481,1.109,0.729,1.687c0.054,0.127,0.107,0.248,0.162,0.376c0.301,0.704,0.61,1.433,0.924,2.183    c0.079,0.188,0.16,0.384,0.24,0.575c0.245,0.588,0.495,1.19,0.747,1.805c0.096,0.235,0.193,0.47,0.291,0.708    c0.294,0.72,0.593,1.458,0.896,2.214c0.042,0.104,0.083,0.204,0.125,0.309c0.344,0.86,0.695,1.748,1.05,2.654    c0.09,0.229,0.181,0.464,0.271,0.696c0.276,0.708,0.555,1.429,0.836,2.164c0.104,0.271,0.208,0.542,0.312,0.817    c0.338,0.888,0.68,1.793,1.025,2.719c0.031,0.084,0.062,0.164,0.093,0.249c0.377,1.014,0.759,2.056,1.144,3.114    c0.097,0.267,0.195,0.54,0.292,0.81c0.297,0.823,0.597,1.659,0.898,2.508c0.11,0.31,0.22,0.619,0.33,0.933    c0.371,1.053,0.744,2.122,1.12,3.215c0.023,0.066,0.045,0.129,0.067,0.194c0.397,1.155,0.796,2.337,1.197,3.535    c0.109,0.326,0.218,0.657,0.328,0.985c0.304,0.915,0.609,1.843,0.915,2.783c0.116,0.357,0.233,0.713,0.349,1.074    c0.402,1.244,0.805,2.503,1.209,3.79c0.003,0.011,0.007,0.021,0.01,0.032c0.406,1.292,0.813,2.611,1.22,3.945    c0.119,0.39,0.238,0.786,0.357,1.179c0.302,0.998,0.604,2.008,0.907,3.028c0.122,0.412,0.244,0.822,0.366,1.238    c0.407,1.387,0.814,2.788,1.22,4.217c0.014,0.049,0.028,0.099,0.041,0.148c0.391,1.377,0.782,2.779,1.171,4.194    c0.124,0.451,0.248,0.907,0.372,1.362c0.295,1.081,0.589,2.173,0.882,3.276c0.123,0.463,0.246,0.924,0.369,1.391    c0.059,0.225,0.118,0.457,0.177,0.682h-63.699c-0.212-1.352-0.424-2.684-0.638-4.006c-0.059-0.368-0.119-0.73-0.178-1.096    c-0.207-1.274-0.415-2.535-0.623-3.78c-0.053-0.317-0.106-0.638-0.159-0.953c-0.244-1.452-0.489-2.882-0.734-4.294    c-0.062-0.359-0.125-0.714-0.187-1.071c-0.211-1.206-0.422-2.398-0.633-3.574c-0.048-0.27-0.097-0.543-0.145-0.812    c-0.247-1.367-0.494-2.712-0.74-4.039c-0.062-0.334-0.124-0.665-0.186-0.997c-0.219-1.173-0.439-2.331-0.657-3.471    c-0.038-0.197-0.076-0.398-0.113-0.594c-0.248-1.288-0.495-2.552-0.742-3.799c-0.061-0.306-0.121-0.609-0.182-0.913    c-0.229-1.15-0.458-2.286-0.685-3.401c-0.023-0.113-0.046-0.23-0.07-0.343c-0.246-1.201-0.49-2.375-0.733-3.533    c-0.062-0.294-0.123-0.586-0.185-0.878c-0.231-1.093-0.46-2.171-0.688-3.225c-0.014-0.066-0.029-0.134-0.043-0.2    c-0.24-1.109-0.478-2.19-0.714-3.256c-0.059-0.265-0.117-0.529-0.176-0.792c-0.234-1.051-0.467-2.088-0.697-3.095    c-0.012-0.054-0.024-0.106-0.037-0.16c-0.222-0.971-0.441-1.916-0.658-2.846c-0.056-0.241-0.113-0.482-0.169-0.721    c-0.222-0.946-0.442-1.877-0.659-2.78c-0.025-0.105-0.05-0.206-0.075-0.31c-0.198-0.824-0.393-1.627-0.587-2.416    c-0.053-0.217-0.106-0.434-0.159-0.648c-0.208-0.843-0.413-1.669-0.614-2.47c-0.033-0.129-0.064-0.253-0.096-0.381    c-0.177-0.703-0.352-1.387-0.523-2.056c-0.049-0.19-0.097-0.38-0.146-0.567c-0.191-0.741-0.379-1.464-0.563-2.162    c-0.037-0.142-0.073-0.277-0.11-0.417c-0.156-0.59-0.308-1.163-0.458-1.722c-0.046-0.17-0.092-0.342-0.137-0.51    c-0.17-0.631-0.336-1.243-0.498-1.833c-0.041-0.151-0.081-0.294-0.122-0.442c-0.133-0.481-0.262-0.948-0.388-1.4    c-0.041-0.147-0.083-0.297-0.123-0.442c-0.016-0.057-0.033-0.118-0.049-0.174H344.326z M220.586,84.507    c0.249-1.479,0.499-2.933,0.749-4.371c0.066-0.378,0.132-0.75,0.197-1.125c0.193-1.099,0.386-2.186,0.579-3.26    c0.07-0.389,0.14-0.781,0.21-1.167c0.247-1.363,0.494-2.71,0.74-4.033c0.034-0.185,0.069-0.363,0.103-0.547    c0.217-1.158,0.433-2.298,0.65-3.424c0.076-0.394,0.151-0.786,0.227-1.176c0.198-1.02,0.395-2.027,0.591-3.02    c0.054-0.272,0.108-0.549,0.162-0.819c0.244-1.225,0.487-2.428,0.729-3.611c0.065-0.316,0.129-0.625,0.193-0.938    c0.186-0.902,0.37-1.792,0.554-2.669c0.074-0.354,0.149-0.708,0.223-1.058c0.222-1.051,0.443-2.087,0.663-3.101    c0.025-0.116,0.05-0.235,0.076-0.35c0.229-1.057,0.456-2.089,0.682-3.106c0.07-0.317,0.14-0.629,0.21-0.942    c0.177-0.794,0.353-1.574,0.528-2.343c0.062-0.27,0.123-0.545,0.185-0.812c0.224-0.98,0.446-1.941,0.666-2.878    c0.05-0.213,0.099-0.419,0.149-0.63c0.177-0.752,0.352-1.49,0.525-2.214c0.067-0.278,0.133-0.556,0.199-0.83    c0.187-0.776,0.371-1.537,0.553-2.28c0.028-0.115,0.057-0.234,0.085-0.348c0.209-0.851,0.414-1.675,0.617-2.482    c0.057-0.226,0.112-0.446,0.169-0.669c0.154-0.611,0.306-1.209,0.456-1.793c0.053-0.208,0.107-0.419,0.16-0.623    c0.192-0.745,0.381-1.472,0.564-2.172c0.023-0.088,0.045-0.171,0.068-0.259c0.164-0.624,0.324-1.227,0.481-1.815    c0.048-0.181,0.096-0.36,0.144-0.537c0.148-0.552,0.294-1.089,0.435-1.607c0.026-0.094,0.052-0.193,0.078-0.285    c0.166-0.604,0.326-1.183,0.481-1.74c0.036-0.131,0.072-0.255,0.107-0.384c0.122-0.435,0.24-0.855,0.355-1.26    c0.038-0.134,0.076-0.269,0.113-0.399c0.139-0.487,0.274-0.96,0.402-1.401c0.007-0.023,0.013-0.043,0.019-0.066    c0.098-0.339,0.19-0.65,0.281-0.961h40.116V15c0.097,0.329,0.193,0.656,0.297,1.016c0.129,0.446,0.267,0.924,0.407,1.418    c0.037,0.128,0.074,0.261,0.112,0.392c0.113,0.397,0.229,0.811,0.349,1.237c0.039,0.139,0.077,0.274,0.117,0.417    c0.151,0.543,0.307,1.107,0.469,1.695c0.038,0.139,0.078,0.287,0.117,0.429c0.127,0.467,0.258,0.948,0.39,1.441    c0.057,0.211,0.114,0.425,0.172,0.641c0.142,0.531,0.287,1.077,0.434,1.638c0.037,0.141,0.073,0.276,0.111,0.419    c0.178,0.678,0.361,1.382,0.546,2.101c0.062,0.24,0.125,0.487,0.187,0.731c0.139,0.542,0.279,1.095,0.422,1.66    c0.065,0.257,0.129,0.511,0.195,0.773c0.196,0.781,0.394,1.578,0.596,2.4c0.045,0.182,0.091,0.372,0.136,0.556    c0.166,0.677,0.333,1.367,0.503,2.071c0.074,0.306,0.148,0.616,0.222,0.927c0.16,0.669,0.321,1.351,0.484,2.043    c0.062,0.264,0.123,0.522,0.186,0.789c0.214,0.917,0.432,1.856,0.651,2.814c0.068,0.296,0.136,0.601,0.205,0.901    c0.164,0.723,0.33,1.458,0.497,2.203c0.08,0.357,0.16,0.714,0.24,1.076c0.211,0.952,0.423,1.917,0.638,2.904    c0.044,0.202,0.088,0.405,0.132,0.609c0.209,0.967,0.419,1.952,0.631,2.952c0.08,0.377,0.16,0.76,0.24,1.141    c0.176,0.839,0.353,1.69,0.53,2.55c0.072,0.348,0.143,0.691,0.215,1.043c0.237,1.161,0.475,2.341,0.715,3.541    c0.063,0.315,0.126,0.638,0.189,0.955c0.188,0.95,0.376,1.911,0.565,2.885c0.079,0.408,0.158,0.816,0.237,1.228    c0.216,1.125,0.432,2.265,0.649,3.422c0.033,0.178,0.067,0.351,0.1,0.53c0.246,1.32,0.493,2.666,0.739,4.027    c0.071,0.393,0.142,0.792,0.214,1.188c0.192,1.067,0.383,2.145,0.574,3.236c0.067,0.381,0.134,0.76,0.201,1.145    c0.249,1.433,0.498,2.883,0.746,4.356c0.034,0.203,0.068,0.411,0.102,0.614c0.217,1.296,0.434,2.609,0.65,3.936    c0.067,0.412,0.134,0.826,0.201,1.241c0.068,0.423,0.136,0.857,0.204,1.283H219.43c0.068-0.428,0.136-0.864,0.205-1.289    c0.066-0.409,0.132-0.818,0.198-1.224c0.218-1.34,0.437-2.665,0.656-3.973C220.521,84.895,220.553,84.699,220.586,84.507z     M151.683,54.567c0.381-1.108,0.759-2.191,1.135-3.259c0.109-0.311,0.218-0.617,0.327-0.924c0.301-0.85,0.601-1.686,0.898-2.51    c0.097-0.27,0.195-0.543,0.293-0.81c0.386-1.062,0.769-2.106,1.147-3.123c0.025-0.068,0.05-0.132,0.075-0.199    c0.353-0.947,0.702-1.871,1.047-2.778c0.099-0.261,0.198-0.518,0.297-0.776c0.289-0.754,0.575-1.494,0.858-2.22    c0.084-0.215,0.169-0.434,0.252-0.647c0.359-0.917,0.714-1.815,1.063-2.686c0.031-0.076,0.06-0.149,0.091-0.225    c0.316-0.788,0.626-1.554,0.932-2.303c0.09-0.221,0.179-0.438,0.269-0.655c0.264-0.642,0.523-1.269,0.779-1.881    c0.071-0.171,0.144-0.346,0.215-0.514c0.321-0.765,0.636-1.511,0.943-2.229c0.032-0.076,0.063-0.147,0.095-0.222    c0.273-0.638,0.54-1.254,0.801-1.853c0.076-0.175,0.152-0.347,0.227-0.519c0.233-0.531,0.461-1.048,0.683-1.548    c0.054-0.121,0.109-0.246,0.162-0.366c0.273-0.613,0.539-1.203,0.796-1.767c0.032-0.07,0.062-0.135,0.094-0.205    c0.223-0.489,0.439-0.959,0.648-1.41c0.058-0.125,0.115-0.249,0.172-0.371c0.196-0.422,0.386-0.829,0.569-1.216    c0.033-0.07,0.068-0.145,0.101-0.214c0.218-0.461,0.426-0.898,0.623-1.307c0.019-0.039,0.035-0.073,0.054-0.111    c0.122-0.254,0.234-0.483,0.348-0.717h52.637c-0.016,0.055-0.033,0.117-0.048,0.172c-0.041,0.144-0.082,0.294-0.123,0.442    c-0.126,0.452-0.256,0.919-0.388,1.4c-0.041,0.148-0.08,0.291-0.122,0.442c-0.162,0.59-0.328,1.202-0.498,1.833    c-0.045,0.167-0.091,0.339-0.137,0.51c-0.15,0.559-0.302,1.132-0.458,1.722c-0.037,0.14-0.073,0.275-0.11,0.417    c-0.184,0.698-0.372,1.421-0.563,2.162c-0.048,0.187-0.097,0.378-0.146,0.567c-0.172,0.669-0.346,1.353-0.523,2.056    c-0.032,0.128-0.064,0.251-0.096,0.381c-0.201,0.8-0.406,1.627-0.614,2.47c-0.053,0.214-0.106,0.431-0.159,0.648    c-0.193,0.788-0.389,1.591-0.587,2.416c-0.025,0.105-0.05,0.205-0.075,0.31c-0.217,0.903-0.437,1.834-0.659,2.78    c-0.056,0.239-0.112,0.479-0.169,0.721c-0.217,0.931-0.436,1.875-0.658,2.846c-0.012,0.054-0.024,0.106-0.037,0.16    c-0.23,1.008-0.463,2.045-0.697,3.095c-0.059,0.263-0.117,0.526-0.176,0.792c-0.236,1.066-0.474,2.147-0.714,3.256    c-0.014,0.066-0.029,0.134-0.043,0.2c-0.228,1.054-0.458,2.132-0.688,3.225c-0.062,0.292-0.123,0.583-0.185,0.878    c-0.243,1.159-0.487,2.333-0.733,3.533c-0.023,0.113-0.046,0.23-0.07,0.343c-0.227,1.114-0.456,2.25-0.685,3.401    c-0.06,0.304-0.121,0.607-0.182,0.913c-0.247,1.247-0.494,2.51-0.742,3.799c-0.038,0.196-0.076,0.397-0.113,0.594    c-0.219,1.141-0.438,2.299-0.657,3.471c-0.062,0.332-0.124,0.662-0.186,0.997c-0.247,1.327-0.493,2.672-0.74,4.039    c-0.048,0.268-0.097,0.542-0.145,0.812c-0.211,1.177-0.422,2.369-0.633,3.574c-0.062,0.357-0.125,0.711-0.187,1.071    c-0.245,1.412-0.49,2.843-0.734,4.294c-0.053,0.315-0.106,0.636-0.159,0.953c-0.208,1.246-0.416,2.506-0.623,3.78    c-0.059,0.365-0.119,0.728-0.178,1.096c-0.213,1.322-0.426,2.654-0.638,4.006h-63.699c0.059-0.226,0.118-0.458,0.177-0.683    c0.122-0.466,0.245-0.925,0.368-1.387c0.294-1.104,0.588-2.198,0.883-3.28c0.124-0.455,0.248-0.911,0.372-1.362    c0.388-1.407,0.776-2.801,1.165-4.171c0.016-0.057,0.032-0.116,0.049-0.173c0.406-1.429,0.813-2.83,1.22-4.218    c0.121-0.413,0.242-0.821,0.364-1.23c0.303-1.023,0.606-2.035,0.908-3.034c0.118-0.391,0.237-0.785,0.355-1.172    c0.407-1.333,0.814-2.653,1.22-3.944c0.006-0.02,0.013-0.039,0.019-0.059c0.401-1.277,0.802-2.527,1.201-3.763    c0.117-0.363,0.234-0.722,0.352-1.081c0.306-0.94,0.611-1.868,0.916-2.783c0.108-0.326,0.217-0.655,0.325-0.978    c0.402-1.201,0.803-2.387,1.2-3.545C151.648,54.666,151.665,54.618,151.683,54.567z M94.42,15h56.66    c-0.17,0.376-0.345,0.765-0.522,1.159c-0.006,0.014-0.012,0.027-0.018,0.041c-0.287,0.64-0.583,1.31-0.886,1.999    c-0.052,0.119-0.104,0.238-0.157,0.358c-0.605,1.382-1.241,2.86-1.902,4.433c-0.065,0.154-0.129,0.307-0.195,0.463    c-0.329,0.784-0.663,1.587-1.004,2.417c-0.037,0.089-0.074,0.182-0.111,0.273c-0.314,0.767-0.634,1.555-0.957,2.36    c-0.066,0.164-0.131,0.326-0.198,0.491c-0.351,0.876-0.707,1.774-1.068,2.694c-0.061,0.155-0.122,0.313-0.183,0.469    c-0.329,0.843-0.663,1.705-0.999,2.585c-0.058,0.151-0.115,0.298-0.173,0.45c-0.369,0.967-0.742,1.958-1.119,2.968    c-0.081,0.216-0.161,0.434-0.242,0.652c-0.361,0.972-0.724,1.959-1.091,2.97c-0.031,0.085-0.061,0.166-0.092,0.251    c-0.388,1.069-0.779,2.166-1.173,3.279c-0.09,0.253-0.179,0.507-0.269,0.762c-0.398,1.13-0.798,2.276-1.201,3.45    c-0.022,0.065-0.045,0.133-0.067,0.198c-0.384,1.119-0.77,2.263-1.158,3.421c-0.091,0.272-0.182,0.542-0.273,0.816    c-0.403,1.21-0.807,2.438-1.212,3.69c-0.063,0.193-0.125,0.39-0.188,0.584c-0.364,1.128-0.729,2.274-1.095,3.436    c-0.085,0.269-0.169,0.536-0.254,0.807c-0.405,1.295-0.812,2.609-1.218,3.945c-0.084,0.276-0.168,0.555-0.252,0.833    c-0.369,1.217-0.737,2.451-1.106,3.702c-0.063,0.215-0.127,0.427-0.19,0.643c-0.41,1.398-0.82,2.819-1.23,4.258    c-0.091,0.321-0.183,0.645-0.274,0.968c-0.397,1.403-0.793,2.82-1.188,4.261c-0.024,0.088-0.049,0.174-0.073,0.263    c-0.413,1.507-0.824,3.042-1.234,4.591c-0.092,0.348-0.184,0.697-0.276,1.048c-0.398,1.513-0.795,3.039-1.189,4.591H69.009    C78.945,51.037,90.038,24.623,94.42,15z M65.539,106.576h55.818h15.438h65.176h15.167h77.723h15.167h65.176h15.438h55.818    c1.644,7.551,3.173,15.268,4.572,23.068h-55.681H380.12h-67.18h-15.088h-83.704H199.06h-67.18h-15.232H60.967    C62.366,121.843,63.895,114.127,65.539,106.576z M319.842,241.204c-0.02-1.632-0.061-3.255-0.088-4.884    c-0.055-3.284-0.109-6.569-0.191-9.841c-0.049-1.941-0.117-3.873-0.175-5.81c-0.089-2.95-0.176-5.9-0.287-8.839    c-0.078-2.056-0.172-4.101-0.261-6.151c-0.121-2.805-0.243-5.609-0.384-8.403c-0.107-2.108-0.228-4.207-0.346-6.309    c-0.153-2.72-0.31-5.438-0.482-8.146c-0.135-2.126-0.281-4.243-0.429-6.361c-0.185-2.669-0.377-5.333-0.582-7.989    c-0.163-2.119-0.334-4.231-0.509-6.341c-0.219-2.641-0.448-5.275-0.685-7.901c-0.189-2.092-0.383-4.18-0.584-6.262    c-0.107-1.105-0.2-2.222-0.31-3.324h68.202c0.025,0.153,0.053,0.306,0.078,0.459c0.159,0.961,0.309,1.927,0.464,2.89    c0.217,1.353,0.436,2.705,0.645,4.062c0.156,1.014,0.304,2.031,0.456,3.047c0.196,1.312,0.392,2.624,0.58,3.94    c0.149,1.042,0.291,2.088,0.435,3.133c0.179,1.299,0.358,2.599,0.529,3.902c0.139,1.056,0.272,2.115,0.406,3.174    c0.164,1.295,0.327,2.591,0.484,3.889c0.129,1.071,0.253,2.145,0.377,3.218c0.149,1.292,0.297,2.584,0.439,3.879    c0.118,1.081,0.233,2.163,0.346,3.246c0.136,1.297,0.269,2.595,0.397,3.894c0.107,1.082,0.211,2.166,0.313,3.251    c0.122,1.303,0.241,2.607,0.356,3.912c0.096,1.089,0.19,2.179,0.281,3.271c0.109,1.307,0.213,2.616,0.314,3.926    c0.084,1.09,0.168,2.18,0.247,3.272c0.096,1.321,0.186,2.644,0.274,3.968c0.072,1.084,0.145,2.168,0.212,3.254    c0.083,1.337,0.159,2.676,0.234,4.016c0.061,1.078,0.123,2.155,0.178,3.234c0.07,1.355,0.132,2.713,0.194,4.07    c0.049,1.067,0.1,2.133,0.144,3.201c0.057,1.389,0.105,2.782,0.154,4.173c0.036,1.038,0.077,2.074,0.109,3.113    c0.045,1.461,0.08,2.924,0.116,4.387c0.024,0.972,0.053,1.943,0.073,2.916c0.033,1.615,0.054,3.232,0.077,4.85    c0.011,0.826,0.029,1.65,0.037,2.477c0.025,2.442,0.038,4.886,0.038,7.334c0,2.294-0.012,4.585-0.034,6.874    c-0.007,0.75-0.022,1.499-0.031,2.249c-0.02,1.541-0.039,3.082-0.068,4.62c-0.017,0.891-0.042,1.78-0.062,2.67    c-0.032,1.393-0.063,2.785-0.103,4.176c-0.028,0.954-0.062,1.907-0.093,2.86c-0.044,1.326-0.087,2.652-0.138,3.976    c-0.038,0.985-0.082,1.968-0.124,2.952c-0.055,1.289-0.11,2.577-0.173,3.863c-0.048,1.001-0.102,2.001-0.154,3.001    c-0.067,1.27-0.135,2.541-0.208,3.809c-0.058,1.003-0.121,2.005-0.183,3.006c-0.079,1.26-0.159,2.52-0.245,3.777    c-0.068,1.008-0.14,2.015-0.213,3.022c-0.09,1.249-0.184,2.497-0.281,3.744c-0.078,1.005-0.159,2.01-0.241,3.013    c-0.103,1.247-0.209,2.493-0.318,3.738c-0.088,1-0.177,1.999-0.269,2.997c-0.115,1.243-0.234,2.485-0.356,3.725    c-0.097,0.994-0.195,1.988-0.296,2.98c-0.128,1.248-0.261,2.494-0.396,3.739c-0.106,0.978-0.211,1.957-0.321,2.933    c-0.141,1.252-0.289,2.502-0.437,3.751c-0.115,0.969-0.228,1.939-0.346,2.906c-0.155,1.258-0.317,2.511-0.478,3.766    c-0.122,0.951-0.242,1.903-0.368,2.851c-0.171,1.284-0.351,2.563-0.529,3.843c-0.127,0.914-0.251,1.83-0.382,2.742    c-0.194,1.352-0.398,2.698-0.601,4.045c-0.125,0.835-0.246,1.673-0.375,2.507c-0.01,0.062-0.02,0.124-0.03,0.186h-68.656    c0.089-0.962,0.165-1.935,0.252-2.899c0.176-1.95,0.344-3.905,0.509-5.863c0.21-2.483,0.413-4.972,0.606-7.468    c0.153-1.974,0.301-3.951,0.443-5.933c0.18-2.509,0.351-5.025,0.514-7.546c0.129-1.982,0.256-3.965,0.374-5.955    c0.152-2.549,0.29-5.105,0.425-7.664c0.104-1.973,0.209-3.944,0.303-5.924c0.124-2.617,0.231-5.243,0.337-7.87    c0.078-1.933,0.161-3.862,0.23-5.8c0.097-2.753,0.175-5.515,0.252-8.277c0.051-1.818,0.111-3.632,0.154-5.454    c0.072-3.067,0.12-6.144,0.168-9.221c0.024-1.531,0.059-3.057,0.077-4.589c0.054-4.611,0.084-9.23,0.084-13.859    C319.937,251.057,319.903,246.125,319.842,241.204z M304.94,255.999c0,4.597-0.029,9.186-0.083,13.765    c-0.018,1.52-0.054,3.032-0.078,4.549c-0.048,3.055-0.095,6.11-0.167,9.155c-0.043,1.819-0.104,3.629-0.155,5.444    c-0.077,2.732-0.153,5.464-0.249,8.186c-0.069,1.936-0.154,3.863-0.232,5.793c-0.105,2.591-0.21,5.182-0.333,7.763    c-0.094,1.986-0.203,3.964-0.308,5.943c-0.133,2.511-0.267,5.021-0.417,7.521c-0.12,2.008-0.252,4.009-0.383,6.01    c-0.161,2.457-0.325,4.912-0.501,7.358c-0.145,2.012-0.3,4.017-0.456,6.021c-0.189,2.417-0.383,4.83-0.587,7.235    c-0.17,2.005-0.347,4.004-0.529,6c-0.109,1.197-0.225,2.387-0.338,3.58h-88.245v0.001c-0.113-1.193-0.229-2.383-0.338-3.58    c-0.181-1.996-0.358-3.995-0.529-6c-0.204-2.405-0.398-4.818-0.587-7.235c-0.156-2.004-0.311-4.009-0.456-6.021    c-0.177-2.446-0.341-4.9-0.501-7.358c-0.131-2.001-0.263-4.001-0.383-6.01c-0.15-2.5-0.284-5.01-0.417-7.521    c-0.105-1.98-0.214-3.957-0.308-5.943c-0.123-2.581-0.227-5.172-0.333-7.763c-0.078-1.931-0.164-3.857-0.232-5.793    c-0.097-2.722-0.172-5.455-0.249-8.186c-0.051-1.815-0.112-3.625-0.155-5.444c-0.072-3.045-0.119-6.1-0.167-9.155    c-0.024-1.517-0.06-3.029-0.078-4.549c-0.054-4.579-0.083-9.168-0.083-13.765c0-4.908,0.033-9.804,0.095-14.69    c0.02-1.63,0.062-3.251,0.089-4.878c0.055-3.253,0.108-6.507,0.189-9.747c0.049-1.927,0.118-3.843,0.176-5.766    c0.089-2.928,0.174-5.857,0.285-8.774c0.077-2.042,0.174-4.072,0.263-6.108c0.121-2.783,0.24-5.566,0.381-8.337    c0.107-2.096,0.23-4.182,0.349-6.271c0.152-2.692,0.305-5.384,0.477-8.063c0.136-2.121,0.286-4.232,0.434-6.345    c0.184-2.628,0.37-5.255,0.573-7.87c0.165-2.132,0.342-4.255,0.519-6.377c0.215-2.573,0.435-5.143,0.668-7.702    c0.194-2.13,0.397-4.252,0.603-6.372c0.132-1.356,0.273-2.705,0.41-4.057h86.855c0.137,1.353,0.278,2.703,0.41,4.06    c0.206,2.117,0.409,4.236,0.603,6.363c0.233,2.564,0.454,5.138,0.669,7.716c0.177,2.12,0.354,4.239,0.518,6.368    c0.203,2.617,0.389,5.246,0.573,7.876c0.148,2.109,0.297,4.217,0.433,6.334c0.172,2.685,0.325,5.381,0.478,8.079    c0.118,2.085,0.241,4.167,0.348,6.26c0.141,2.775,0.261,5.562,0.382,8.348c0.088,2.03,0.185,4.056,0.262,6.092    c0.111,2.923,0.197,5.859,0.286,8.794c0.058,1.917,0.127,3.828,0.176,5.75c0.082,3.252,0.135,6.517,0.19,9.781    c0.027,1.614,0.068,3.223,0.088,4.84C304.906,246.191,304.94,251.089,304.94,255.999z M192.148,269.86    c0.018,1.539,0.054,3.07,0.078,4.607c0.048,3.069,0.096,6.138,0.168,9.198c0.043,1.828,0.103,3.648,0.154,5.472    c0.078,2.758,0.155,5.516,0.252,8.264c0.068,1.938,0.151,3.867,0.23,5.8c0.106,2.627,0.214,5.253,0.337,7.87    c0.094,1.979,0.199,3.95,0.303,5.924c0.135,2.559,0.273,5.114,0.425,7.662c0.119,1.993,0.246,3.979,0.375,5.964    c0.163,2.516,0.333,5.027,0.513,7.531c0.143,1.985,0.291,3.965,0.444,5.942c0.193,2.495,0.396,4.983,0.606,7.465    c0.166,1.958,0.333,3.913,0.509,5.863c0.087,0.964,0.162,1.938,0.252,2.9h-68.658v0.001c-0.01-0.062-0.02-0.124-0.03-0.186    c-0.129-0.834-0.249-1.671-0.375-2.507c-0.202-1.347-0.406-2.694-0.601-4.045c-0.131-0.912-0.255-1.828-0.382-2.742    c-0.178-1.28-0.358-2.56-0.529-3.843c-0.126-0.949-0.246-1.901-0.368-2.851c-0.161-1.254-0.324-2.508-0.478-3.766    c-0.119-0.967-0.232-1.937-0.346-2.906c-0.148-1.249-0.296-2.499-0.437-3.751c-0.11-0.976-0.215-1.955-0.321-2.933    c-0.135-1.245-0.268-2.491-0.396-3.739c-0.102-0.992-0.199-1.986-0.296-2.98c-0.121-1.241-0.241-2.482-0.356-3.725    c-0.092-0.998-0.181-1.998-0.269-2.997c-0.109-1.245-0.216-2.491-0.318-3.738c-0.083-1.004-0.163-2.008-0.241-3.013    c-0.097-1.247-0.19-2.495-0.281-3.744c-0.073-1.007-0.144-2.014-0.213-3.022c-0.085-1.258-0.166-2.517-0.245-3.777    c-0.063-1.002-0.125-2.003-0.183-3.006c-0.074-1.268-0.142-2.539-0.208-3.809c-0.053-1-0.106-1.999-0.154-3.001    c-0.062-1.286-0.117-2.575-0.173-3.863c-0.042-0.984-0.086-1.967-0.124-2.952c-0.051-1.324-0.094-2.65-0.138-3.976    c-0.031-0.953-0.066-1.906-0.093-2.86c-0.04-1.391-0.071-2.783-0.103-4.176c-0.02-0.89-0.045-1.779-0.062-2.67    c-0.03-1.539-0.049-3.079-0.068-4.62c-0.01-0.75-0.024-1.499-0.031-2.249c-0.022-2.289-0.034-4.581-0.034-6.874    c0-2.447,0.013-4.892,0.038-7.334c0.008-0.826,0.026-1.651,0.037-2.477c0.022-1.617,0.043-3.235,0.077-4.85    c0.02-0.973,0.049-1.944,0.073-2.916c0.036-1.463,0.071-2.926,0.116-4.387c0.032-1.039,0.072-2.075,0.109-3.113    c0.049-1.392,0.097-2.784,0.154-4.173c0.044-1.068,0.095-2.134,0.144-3.201c0.062-1.357,0.124-2.715,0.194-4.07    c0.056-1.079,0.118-2.157,0.178-3.234c0.075-1.339,0.151-2.679,0.234-4.016c0.067-1.086,0.14-2.17,0.212-3.254    c0.088-1.324,0.178-2.647,0.274-3.968c0.079-1.092,0.163-2.182,0.247-3.272c0.101-1.31,0.205-2.619,0.314-3.926    c0.091-1.091,0.185-2.181,0.281-3.271c0.115-1.306,0.233-2.61,0.356-3.912c0.102-1.084,0.206-2.168,0.313-3.251    c0.128-1.3,0.261-2.598,0.397-3.894c0.113-1.083,0.228-2.165,0.346-3.246c0.142-1.295,0.289-2.587,0.439-3.879    c0.124-1.073,0.248-2.147,0.377-3.218c0.156-1.299,0.32-2.594,0.484-3.889c0.134-1.059,0.267-2.117,0.406-3.174    c0.171-1.303,0.35-2.602,0.529-3.902c0.144-1.045,0.286-2.091,0.435-3.133c0.188-1.316,0.384-2.628,0.58-3.94    c0.151-1.016,0.3-2.034,0.456-3.047c0.209-1.357,0.428-2.709,0.645-4.062c0.155-0.963,0.305-1.929,0.464-2.89    c0.025-0.153,0.053-0.306,0.078-0.459h68.202c-0.11,1.102-0.203,2.219-0.31,3.324c-0.201,2.082-0.395,4.17-0.584,6.262    c-0.238,2.627-0.466,5.26-0.685,7.901c-0.175,2.11-0.346,4.222-0.509,6.341c-0.204,2.656-0.396,5.32-0.582,7.989    c-0.147,2.118-0.293,4.235-0.429,6.361c-0.172,2.708-0.329,5.425-0.482,8.146c-0.118,2.101-0.239,4.2-0.346,6.309    c-0.141,2.793-0.263,5.597-0.384,8.403c-0.088,2.05-0.183,4.096-0.261,6.151c-0.111,2.939-0.199,5.889-0.287,8.839    c-0.058,1.937-0.127,3.868-0.175,5.81c-0.082,3.272-0.136,6.557-0.191,9.841c-0.027,1.629-0.068,3.252-0.088,4.884    c-0.061,4.921-0.095,9.853-0.095,14.796C192.064,260.63,192.094,265.249,192.148,269.86z M50.042,256    c0-38.053,2.83-75.481,8.414-111.356h55.608c-0.186,1.145-0.36,2.296-0.54,3.444c-0.147,0.936-0.297,1.87-0.44,2.807    c-0.24,1.579-0.469,3.163-0.699,4.746c-0.113,0.778-0.231,1.554-0.341,2.333c-0.332,2.354-0.653,4.714-0.961,7.079    c-0.055,0.426-0.105,0.855-0.16,1.281c-0.25,1.952-0.496,3.906-0.73,5.865c-0.104,0.874-0.2,1.752-0.301,2.628    c-0.175,1.514-0.35,3.028-0.514,4.546c-0.108,0.998-0.209,2-0.313,3c-0.146,1.403-0.292,2.805-0.43,4.211    c-0.102,1.048-0.198,2.098-0.296,3.147c-0.127,1.367-0.254,2.734-0.373,4.104c-0.093,1.071-0.182,2.145-0.27,3.218    c-0.112,1.352-0.221,2.705-0.325,4.059c-0.083,1.087-0.163,2.176-0.241,3.265c-0.097,1.351-0.191,2.702-0.28,4.055    c-0.072,1.089-0.142,2.179-0.209,3.27c-0.083,1.358-0.162,2.717-0.238,4.078c-0.061,1.09-0.12,2.18-0.176,3.271    c-0.07,1.377-0.135,2.756-0.197,4.135c-0.049,1.071-0.098,2.142-0.141,3.214c-0.058,1.418-0.108,2.838-0.157,4.258    c-0.036,1.039-0.075,2.078-0.107,3.119c-0.045,1.484-0.081,2.97-0.117,4.456c-0.024,0.979-0.052,1.956-0.072,2.936    c-0.033,1.641-0.056,3.285-0.078,4.929c-0.011,0.827-0.028,1.653-0.036,2.481c-0.025,2.47-0.039,4.943-0.039,7.418    c0,2.321,0.012,4.641,0.034,6.958c0.007,0.762,0.022,1.522,0.031,2.283c0.02,1.55,0.039,3.101,0.069,4.649    c0.018,0.922,0.042,1.842,0.063,2.762c0.032,1.391,0.064,2.783,0.103,4.172c0.028,0.975,0.062,1.948,0.093,2.923    c0.043,1.332,0.088,2.663,0.139,3.993c0.038,1.001,0.081,2,0.123,3c0.055,1.307,0.113,2.614,0.175,3.92    c0.048,1.004,0.099,2.006,0.151,3.009c0.068,1.299,0.138,2.596,0.213,3.893c0.058,1.005,0.118,2.008,0.18,3.012    c0.08,1.292,0.164,2.583,0.251,3.873c0.067,1,0.135,2.001,0.207,3c0.093,1.301,0.192,2.6,0.292,3.899    c0.076,0.979,0.15,1.958,0.23,2.935c0.109,1.333,0.224,2.663,0.34,3.993c0.082,0.937,0.161,1.875,0.247,2.81    c0.129,1.414,0.267,2.825,0.405,4.236c0.083,0.846,0.161,1.694,0.247,2.539c0.169,1.665,0.348,3.326,0.528,4.986    c0.064,0.586,0.123,1.174,0.188,1.76c0.25,2.248,0.511,4.492,0.784,6.731c0.057,0.47,0.12,0.938,0.178,1.407    c0.218,1.762,0.439,3.523,0.67,5.279c0.105,0.799,0.218,1.595,0.326,2.394c0.193,1.426,0.386,2.853,0.589,4.275    c0.126,0.886,0.258,1.768,0.387,2.652c0.145,0.994,0.286,1.99,0.435,2.982H57.397C52.515,326.614,50.042,291.552,50.042,256z     M94.421,497.001c-4.629-10.175-16.744-39.091-27.085-83.61h55.967c0.001,0.003,0.002,0.006,0.002,0.009    c0.036,0.148,0.072,0.292,0.107,0.439c0.382,1.579,0.766,3.134,1.152,4.675c0.112,0.447,0.224,0.893,0.336,1.336    c0.409,1.618,0.82,3.222,1.233,4.798c0.057,0.217,0.114,0.428,0.171,0.644c0.373,1.416,0.747,2.812,1.122,4.193    c0.113,0.417,0.227,0.835,0.34,1.249c0.415,1.514,0.83,3.011,1.246,4.483c0.073,0.26,0.147,0.513,0.221,0.772    c0.365,1.283,0.73,2.549,1.096,3.799c0.111,0.379,0.221,0.759,0.332,1.135c0.417,1.415,0.834,2.813,1.25,4.185    c0.084,0.278,0.168,0.548,0.252,0.824c0.358,1.173,0.716,2.329,1.073,3.47c0.107,0.341,0.214,0.685,0.32,1.024    c0.414,1.313,0.826,2.606,1.238,3.876c0.094,0.289,0.187,0.571,0.28,0.858c0.349,1.07,0.696,2.124,1.042,3.163    c0.101,0.303,0.202,0.609,0.303,0.91c0.407,1.213,0.812,2.404,1.214,3.573c0.097,0.282,0.193,0.558,0.29,0.838    c0.342,0.987,0.681,1.958,1.019,2.912c0.091,0.257,0.182,0.518,0.273,0.773c0.395,1.11,0.786,2.196,1.174,3.262    c0.102,0.279,0.202,0.553,0.304,0.829c0.332,0.906,0.661,1.796,0.988,2.669c0.077,0.206,0.155,0.416,0.231,0.62    c0.381,1.016,0.758,2.006,1.131,2.977c0.098,0.254,0.194,0.504,0.291,0.755c0.324,0.839,0.645,1.662,0.962,2.467    c0.061,0.155,0.123,0.314,0.184,0.468c0.363,0.919,0.72,1.81,1.073,2.683c0.091,0.225,0.18,0.445,0.27,0.667    c0.314,0.774,0.625,1.533,0.93,2.27c0.045,0.109,0.091,0.222,0.136,0.329c0.337,0.813,0.666,1.596,0.991,2.363    c0.087,0.206,0.174,0.409,0.26,0.612c0.3,0.704,0.595,1.392,0.882,2.055c0.026,0.061,0.054,0.125,0.08,0.185    c0.309,0.711,0.607,1.39,0.901,2.053c0.079,0.179,0.157,0.355,0.235,0.53c0.281,0.632,0.558,1.25,0.824,1.837    c0.006,0.013,0.012,0.028,0.018,0.041H94.421z M167.67,496.996V497c-0.166-0.341-0.34-0.699-0.525-1.084    c-0.043-0.089-0.09-0.188-0.134-0.28c-0.163-0.341-0.333-0.698-0.509-1.071c-0.068-0.144-0.138-0.292-0.208-0.442    c-0.176-0.376-0.359-0.769-0.547-1.176c-0.06-0.13-0.119-0.255-0.18-0.389c-0.25-0.542-0.509-1.109-0.777-1.703    c-0.046-0.101-0.094-0.209-0.14-0.311c-0.226-0.502-0.459-1.022-0.697-1.559c-0.083-0.188-0.168-0.38-0.253-0.572    c-0.224-0.507-0.453-1.031-0.687-1.569c-0.077-0.177-0.152-0.349-0.23-0.529c-0.31-0.718-0.627-1.457-0.953-2.226    c-0.037-0.087-0.075-0.179-0.112-0.267c-0.286-0.677-0.579-1.376-0.876-2.093c-0.099-0.24-0.2-0.485-0.301-0.728    c-0.256-0.62-0.515-1.255-0.778-1.903c-0.097-0.24-0.194-0.477-0.292-0.721c-0.357-0.886-0.719-1.79-1.089-2.726    c-0.011-0.029-0.023-0.06-0.035-0.089c-0.353-0.896-0.713-1.821-1.076-2.763c-0.107-0.276-0.215-0.559-0.322-0.84    c-0.285-0.743-0.573-1.501-0.863-2.272c-0.111-0.294-0.221-0.587-0.333-0.885c-0.385-1.028-0.772-2.073-1.165-3.148    c-0.006-0.016-0.012-0.032-0.018-0.049c-0.397-1.087-0.799-2.206-1.203-3.341c-0.116-0.325-0.232-0.656-0.348-0.985    c-0.302-0.854-0.605-1.72-0.91-2.6c-0.123-0.353-0.245-0.706-0.368-1.064c-0.371-1.078-0.743-2.173-1.118-3.288    c-0.045-0.134-0.089-0.263-0.134-0.397c-0.417-1.246-0.837-2.52-1.258-3.813c-0.114-0.35-0.229-0.708-0.343-1.062    c-0.317-0.981-0.635-1.974-0.953-2.981c-0.129-0.407-0.257-0.814-0.386-1.225c-0.357-1.14-0.715-2.296-1.073-3.469    c-0.071-0.234-0.143-0.461-0.214-0.696c-0.425-1.398-0.851-2.822-1.276-4.265c-0.111-0.376-0.222-0.761-0.333-1.141    c-0.322-1.102-0.644-2.216-0.966-3.344c-0.133-0.467-0.266-0.934-0.399-1.405c-0.336-1.192-0.672-2.399-1.007-3.619    c-0.094-0.342-0.188-0.678-0.282-1.023c-0.421-1.543-0.84-3.11-1.258-4.698c-0.102-0.389-0.204-0.785-0.306-1.177    c-0.321-1.231-0.641-2.475-0.96-3.732c-0.133-0.525-0.266-1.053-0.399-1.583c-0.108-0.432-0.215-0.874-0.323-1.308h64.412    c0.236,1.59,0.474,3.155,0.713,4.707c0.057,0.367,0.113,0.73,0.17,1.095c0.226,1.455,0.452,2.893,0.68,4.313    c0.041,0.257,0.082,0.518,0.123,0.774c0.259,1.608,0.519,3.191,0.78,4.754c0.059,0.351,0.117,0.698,0.176,1.047    c0.227,1.348,0.453,2.681,0.681,3.995c0.045,0.258,0.089,0.519,0.134,0.776c0.261,1.501,0.523,2.978,0.784,4.435    c0.06,0.332,0.119,0.659,0.179,0.989c0.225,1.243,0.449,2.47,0.674,3.679c0.048,0.261,0.097,0.525,0.145,0.784    c0.262,1.402,0.523,2.779,0.784,4.136c0.055,0.287,0.11,0.569,0.165,0.853c0.225,1.164,0.45,2.312,0.674,3.442    c0.049,0.248,0.098,0.499,0.147,0.745c0.258,1.296,0.515,2.568,0.771,3.818c0.054,0.265,0.108,0.525,0.162,0.788    c0.221,1.073,0.441,2.13,0.66,3.169c0.048,0.228,0.096,0.46,0.144,0.686c0.254,1.2,0.506,2.376,0.757,3.529    c0.048,0.222,0.096,0.439,0.144,0.659c0.218,0.999,0.435,1.98,0.649,2.943c0.046,0.206,0.092,0.415,0.138,0.619    c0.246,1.098,0.49,2.172,0.731,3.222c0.044,0.191,0.087,0.377,0.131,0.567c0.209,0.908,0.416,1.797,0.621,2.668    c0.046,0.195,0.092,0.392,0.137,0.584c0.235,0.995,0.467,1.966,0.696,2.913c0.036,0.147,0.07,0.289,0.106,0.435    c0.204,0.842,0.406,1.663,0.604,2.465c0.039,0.158,0.078,0.318,0.117,0.474c0.223,0.899,0.443,1.775,0.659,2.623    c0.026,0.104,0.052,0.204,0.078,0.307c0.197,0.775,0.391,1.527,0.581,2.259c0.032,0.122,0.064,0.246,0.095,0.367    c0.208,0.799,0.412,1.574,0.611,2.321c0.019,0.07,0.036,0.136,0.055,0.205c0.184,0.69,0.363,1.355,0.538,1.999    c0.028,0.102,0.056,0.205,0.083,0.306c0.189,0.692,0.372,1.36,0.55,1.999c0.01,0.035,0.019,0.068,0.029,0.103    c0.1,0.358,0.199,0.714,0.295,1.055H167.67z M291.413,427.506c-0.213,1.267-0.427,2.52-0.642,3.757    c-0.054,0.31-0.107,0.623-0.161,0.931c-0.267,1.53-0.534,3.039-0.801,4.522c-0.031,0.174-0.063,0.344-0.094,0.518    c-0.234,1.292-0.467,2.563-0.701,3.819c-0.068,0.363-0.135,0.725-0.203,1.085c-0.229,1.22-0.457,2.423-0.685,3.608    c-0.036,0.186-0.072,0.376-0.107,0.56c-0.268,1.385-0.535,2.746-0.801,4.083c-0.046,0.232-0.092,0.459-0.138,0.689    c-0.22,1.099-0.439,2.182-0.657,3.248c-0.062,0.305-0.125,0.61-0.187,0.911c-0.249,1.206-0.496,2.396-0.742,3.558    c-0.009,0.043-0.018,0.087-0.027,0.129c-0.261,1.232-0.52,2.435-0.777,3.617c-0.054,0.248-0.108,0.492-0.161,0.738    c-0.205,0.939-0.409,1.863-0.612,2.77c-0.057,0.254-0.114,0.51-0.17,0.762c-0.495,2.207-0.98,4.314-1.453,6.322    c-0.057,0.241-0.113,0.479-0.17,0.717c-0.191,0.805-0.379,1.594-0.565,2.367c-0.048,0.198-0.096,0.399-0.143,0.594    c-0.228,0.94-0.452,1.857-0.672,2.746c-0.027,0.109-0.053,0.213-0.08,0.321c-0.191,0.768-0.378,1.516-0.563,2.246    c-0.058,0.229-0.116,0.456-0.173,0.681c-0.171,0.673-0.34,1.33-0.505,1.969c-0.036,0.14-0.073,0.285-0.109,0.423    c-0.198,0.763-0.392,1.5-0.581,2.214c-0.045,0.171-0.089,0.335-0.134,0.503c-0.142,0.535-0.282,1.056-0.419,1.562    c-0.057,0.212-0.114,0.423-0.17,0.629c-0.141,0.518-0.278,1.019-0.412,1.504c-0.033,0.118-0.067,0.243-0.099,0.359    c-0.159,0.573-0.311,1.117-0.459,1.642c-0.052,0.184-0.102,0.359-0.152,0.538c-0.101,0.355-0.199,0.699-0.294,1.03    c-0.051,0.178-0.103,0.358-0.152,0.529c-0.107,0.371-0.21,0.725-0.31,1.064c-0.021,0.073-0.045,0.154-0.066,0.225h-40.125V497    c-0.127-0.431-0.262-0.896-0.401-1.38c-0.029-0.1-0.059-0.205-0.088-0.307c-0.118-0.412-0.241-0.843-0.368-1.292    c-0.033-0.115-0.064-0.226-0.097-0.344c-0.158-0.56-0.321-1.143-0.491-1.757c-0.009-0.032-0.018-0.067-0.027-0.1    c-0.157-0.567-0.32-1.163-0.487-1.776c-0.044-0.162-0.089-0.327-0.133-0.491c-0.15-0.556-0.305-1.131-0.462-1.723    c-0.035-0.13-0.068-0.255-0.103-0.387c-0.193-0.728-0.391-1.481-0.593-2.262c-0.029-0.114-0.06-0.233-0.09-0.348    c-0.171-0.661-0.346-1.344-0.524-2.042c-0.055-0.215-0.11-0.432-0.165-0.651c-0.186-0.735-0.375-1.488-0.567-2.262    c-0.027-0.107-0.053-0.21-0.079-0.318c-0.219-0.886-0.443-1.801-0.67-2.737c-0.051-0.209-0.102-0.424-0.153-0.635    c-0.181-0.749-0.363-1.514-0.548-2.295c-0.062-0.26-0.123-0.519-0.185-0.783c-0.469-1.992-0.95-4.082-1.441-6.27    c-0.062-0.276-0.125-0.558-0.187-0.837c-0.194-0.868-0.389-1.752-0.585-2.65c-0.062-0.284-0.124-0.564-0.186-0.851    c-0.252-1.16-0.506-2.339-0.762-3.547c-0.02-0.095-0.041-0.194-0.061-0.29c-0.234-1.108-0.47-2.239-0.707-3.387    c-0.068-0.332-0.137-0.667-0.206-1.003c-0.207-1.009-0.414-2.033-0.622-3.072c-0.058-0.29-0.116-0.576-0.174-0.869    c-0.261-1.31-0.522-2.642-0.785-3.999c-0.043-0.223-0.086-0.453-0.13-0.677c-0.22-1.142-0.44-2.302-0.66-3.477    c-0.073-0.388-0.146-0.779-0.219-1.171c-0.223-1.2-0.447-2.417-0.67-3.65c-0.041-0.228-0.083-0.451-0.124-0.681    c-0.264-1.462-0.527-2.95-0.79-4.458c-0.059-0.337-0.118-0.681-0.176-1.021c-0.208-1.201-0.416-2.417-0.623-3.646    c-0.072-0.424-0.143-0.849-0.214-1.277c-0.249-1.493-0.498-3.002-0.745-4.536c-0.011-0.069-0.022-0.136-0.033-0.205    c-0.26-1.615-0.519-3.259-0.776-4.918c-0.064-0.415-0.128-0.835-0.193-1.253c-0.1-0.652-0.199-1.319-0.299-1.978h75.324    c-0.1,0.663-0.2,1.334-0.301,1.99c-0.063,0.41-0.126,0.822-0.189,1.229c-0.259,1.668-0.519,3.319-0.78,4.942    c-0.007,0.044-0.014,0.086-0.021,0.13c-0.253,1.568-0.507,3.109-0.761,4.634C291.547,426.712,291.48,427.109,291.413,427.506z     M359.887,458.662c-0.287,0.829-0.573,1.646-0.858,2.451c-0.131,0.371-0.263,0.745-0.393,1.111    c-0.382,1.073-0.762,2.131-1.138,3.161c-0.038,0.105-0.077,0.21-0.115,0.315c-0.371,1.015-0.737,2.004-1.101,2.977    c-0.128,0.342-0.254,0.676-0.381,1.013c-0.269,0.713-0.535,1.415-0.799,2.105c-0.126,0.33-0.253,0.662-0.378,0.987    c-0.321,0.831-0.638,1.646-0.951,2.442c-0.051,0.13-0.104,0.267-0.155,0.396c-0.36,0.912-0.713,1.794-1.061,2.659    c-0.111,0.276-0.22,0.543-0.33,0.815c-0.248,0.61-0.493,1.21-0.734,1.796c-0.113,0.274-0.226,0.549-0.337,0.818    c-0.271,0.652-0.536,1.288-0.798,1.908c-0.063,0.148-0.127,0.304-0.189,0.45c-0.317,0.75-0.626,1.472-0.929,2.172    c-0.092,0.213-0.181,0.416-0.271,0.625c-0.217,0.499-0.43,0.987-0.638,1.46c-0.099,0.224-0.197,0.447-0.294,0.665    c-0.218,0.493-0.431,0.97-0.639,1.432c-0.062,0.139-0.127,0.285-0.189,0.42c-0.263,0.583-0.518,1.141-0.763,1.674    c-0.071,0.154-0.138,0.298-0.207,0.448c-0.177,0.383-0.35,0.756-0.517,1.112c-0.078,0.167-0.156,0.332-0.231,0.493    c-0.165,0.351-0.324,0.686-0.478,1.008c-0.053,0.111-0.109,0.23-0.161,0.337c-0.185,0.386-0.359,0.747-0.526,1.088h-52.641v0    c0.096-0.341,0.195-0.697,0.295-1.055c0.01-0.035,0.019-0.068,0.029-0.103c0.177-0.638,0.361-1.306,0.55-1.999    c0.027-0.101,0.055-0.204,0.083-0.306c0.175-0.644,0.354-1.31,0.538-1.999c0.018-0.069,0.036-0.136,0.055-0.205    c0.199-0.747,0.402-1.522,0.611-2.321c0.031-0.121,0.063-0.245,0.095-0.367c0.19-0.732,0.383-1.484,0.581-2.259    c0.026-0.103,0.052-0.203,0.078-0.307c0.216-0.849,0.435-1.724,0.659-2.623c0.039-0.156,0.078-0.317,0.117-0.474    c0.199-0.802,0.4-1.624,0.604-2.465c0.035-0.146,0.07-0.288,0.106-0.435c0.229-0.946,0.461-1.918,0.696-2.913    c0.046-0.193,0.092-0.39,0.137-0.584c0.205-0.871,0.412-1.76,0.621-2.668c0.044-0.19,0.087-0.375,0.131-0.567    c0.241-1.05,0.485-2.124,0.731-3.222c0.046-0.205,0.092-0.415,0.139-0.623c0.213-0.954,0.427-1.925,0.643-2.914    c0.051-0.234,0.102-0.463,0.153-0.699c0.249-1.148,0.501-2.32,0.754-3.515c0.048-0.227,0.096-0.459,0.144-0.687    c0.219-1.039,0.439-2.095,0.66-3.169c0.054-0.263,0.108-0.523,0.162-0.788c0.256-1.25,0.513-2.522,0.771-3.818    c0.049-0.247,0.099-0.5,0.148-0.749c0.222-1.121,0.445-2.26,0.669-3.415c0.057-0.297,0.115-0.592,0.172-0.891    c0.26-1.352,0.52-2.724,0.781-4.121c0.048-0.259,0.097-0.524,0.145-0.785c0.225-1.209,0.449-2.436,0.674-3.679    c0.06-0.33,0.119-0.657,0.179-0.989c0.262-1.457,0.523-2.933,0.784-4.435c0.045-0.256,0.089-0.518,0.134-0.776    c0.227-1.314,0.454-2.647,0.681-3.995c0.059-0.349,0.117-0.696,0.176-1.047c0.261-1.563,0.521-3.146,0.78-4.754    c0.041-0.256,0.082-0.517,0.123-0.774c0.227-1.42,0.454-2.859,0.68-4.313c0.057-0.365,0.113-0.728,0.17-1.095    c0.239-1.552,0.477-3.116,0.713-4.707h64.411c-0.106,0.427-0.211,0.862-0.317,1.287c-0.132,0.527-0.265,1.053-0.397,1.576    c-0.315,1.241-0.631,2.468-0.948,3.683c-0.106,0.408-0.212,0.821-0.319,1.226c-0.415,1.578-0.833,3.136-1.251,4.67    c-0.096,0.351-0.192,0.693-0.287,1.041c-0.33,1.201-0.661,2.389-0.992,3.562c-0.14,0.495-0.279,0.986-0.419,1.475    c-0.31,1.088-0.621,2.163-0.932,3.227c-0.121,0.413-0.242,0.831-0.362,1.241c-0.419,1.421-0.838,2.823-1.257,4.199    c-0.086,0.283-0.172,0.557-0.258,0.839c-0.341,1.115-0.682,2.217-1.022,3.302c-0.142,0.452-0.283,0.899-0.424,1.345    c-0.3,0.949-0.6,1.887-0.9,2.813c-0.129,0.4-0.259,0.804-0.388,1.2c-0.412,1.265-0.823,2.514-1.232,3.734    c-0.066,0.196-0.13,0.384-0.196,0.579c-0.352,1.047-0.702,2.077-1.051,3.09C360.159,457.877,360.023,458.269,359.887,458.662z     M417.579,497H360.92c0.006-0.013,0.012-0.028,0.018-0.041c0.266-0.587,0.542-1.204,0.824-1.837    c0.078-0.175,0.156-0.351,0.235-0.53c0.294-0.663,0.592-1.342,0.901-2.053c0.026-0.06,0.053-0.124,0.08-0.185    c0.287-0.663,0.582-1.351,0.882-2.055c0.086-0.203,0.173-0.406,0.26-0.612c0.324-0.766,0.654-1.55,0.991-2.363    c0.045-0.108,0.091-0.221,0.136-0.329c0.305-0.737,0.615-1.495,0.93-2.27c0.09-0.222,0.18-0.442,0.27-0.667    c0.353-0.873,0.709-1.764,1.073-2.683c0.061-0.154,0.123-0.313,0.184-0.468c0.317-0.805,0.638-1.628,0.962-2.467    c0.097-0.251,0.194-0.5,0.291-0.755c0.373-0.971,0.75-1.961,1.131-2.977c0.077-0.204,0.154-0.414,0.231-0.62    c0.326-0.873,0.656-1.764,0.988-2.669c0.101-0.276,0.202-0.55,0.304-0.829c0.388-1.066,0.78-2.152,1.174-3.262    c0.091-0.255,0.182-0.516,0.273-0.773c0.338-0.955,0.677-1.926,1.019-2.912c0.097-0.28,0.193-0.555,0.29-0.838    c0.402-1.169,0.807-2.36,1.214-3.573c0.101-0.301,0.202-0.606,0.303-0.91c0.346-1.039,0.694-2.093,1.042-3.163    c0.094-0.287,0.187-0.569,0.28-0.858c0.411-1.27,0.824-2.563,1.238-3.876c0.107-0.339,0.214-0.682,0.32-1.024    c0.357-1.141,0.714-2.297,1.073-3.47c0.084-0.276,0.168-0.546,0.252-0.824c0.417-1.373,0.833-2.77,1.25-4.185    c0.111-0.376,0.221-0.756,0.332-1.135c0.365-1.251,0.731-2.516,1.096-3.799c0.073-0.258,0.147-0.512,0.221-0.772    c0.416-1.472,0.832-2.969,1.246-4.483c0.113-0.414,0.227-0.832,0.34-1.249c0.375-1.381,0.749-2.777,1.122-4.193    c0.057-0.216,0.114-0.427,0.171-0.644c0.413-1.576,0.824-3.179,1.233-4.798c0.112-0.444,0.224-0.889,0.336-1.336    c0.386-1.541,0.77-3.096,1.152-4.675c0.036-0.147,0.072-0.291,0.107-0.439c0.001-0.003,0.002-0.006,0.002-0.009h55.967    C434.323,457.91,422.208,486.826,417.579,497z M447.947,398.391h-55.763H376.79h-65.813h-15.149H216.17h-15.149h-65.813h-15.394    H64.053c-1.561-7.583-3.002-15.301-4.309-23.068h55.629h15.203h67.699h15.077h85.298h15.077h67.699h15.203h55.629    C450.95,383.089,449.508,390.807,447.947,398.391z M454.603,360.323H399.04c0.15-0.992,0.29-1.988,0.435-2.982    c0.129-0.884,0.261-1.766,0.387-2.652c0.202-1.422,0.395-2.848,0.589-4.275c0.108-0.798,0.22-1.594,0.326-2.394    c0.231-1.756,0.452-3.517,0.67-5.279c0.058-0.47,0.12-0.937,0.178-1.407c0.272-2.241,0.534-4.487,0.784-6.738    c0.063-0.567,0.12-1.137,0.182-1.705c0.182-1.676,0.363-3.354,0.533-5.035c0.086-0.845,0.164-1.693,0.247-2.539    c0.138-1.411,0.276-2.822,0.405-4.236c0.085-0.935,0.165-1.873,0.247-2.81c0.116-1.33,0.232-2.661,0.34-3.993    c0.08-0.977,0.154-1.956,0.23-2.935c0.1-1.299,0.199-2.598,0.292-3.899c0.072-0.999,0.139-1.999,0.207-3    c0.087-1.29,0.171-2.581,0.251-3.873c0.062-1.003,0.122-2.007,0.18-3.012c0.075-1.297,0.145-2.594,0.213-3.893    c0.052-1.002,0.103-2.005,0.151-3.009c0.063-1.307,0.12-2.616,0.176-3.926c0.042-0.995,0.085-1.99,0.123-2.986    c0.051-1.337,0.096-2.675,0.139-4.013c0.032-0.969,0.065-1.938,0.093-2.909c0.04-1.395,0.072-2.792,0.104-4.189    c0.021-0.913,0.045-1.826,0.062-2.74c0.03-1.557,0.05-3.117,0.069-4.676c0.01-0.754,0.024-1.508,0.031-2.262    c0.022-2.317,0.034-4.637,0.034-6.958c0-2.476-0.014-4.948-0.039-7.418c-0.008-0.828-0.025-1.654-0.036-2.481    c-0.022-1.644-0.044-3.288-0.078-4.929c-0.02-0.98-0.048-1.957-0.072-2.936c-0.036-1.486-0.072-2.972-0.117-4.456    c-0.032-1.043-0.07-2.083-0.107-3.125c-0.049-1.416-0.099-2.831-0.157-4.244c-0.044-1.079-0.093-2.156-0.142-3.234    c-0.062-1.375-0.126-2.749-0.196-4.122c-0.056-1.092-0.116-2.182-0.176-3.272c-0.076-1.36-0.155-2.72-0.238-4.078    c-0.067-1.091-0.137-2.181-0.209-3.27c-0.089-1.353-0.183-2.705-0.28-4.055c-0.078-1.089-0.158-2.177-0.241-3.265    c-0.104-1.355-0.213-2.707-0.325-4.059c-0.089-1.073-0.177-2.146-0.27-3.218c-0.119-1.37-0.246-2.737-0.373-4.104    c-0.098-1.05-0.194-2.1-0.296-3.147c-0.138-1.406-0.284-2.808-0.43-4.211c-0.104-1-0.205-2.002-0.313-3    c-0.165-1.518-0.34-3.032-0.514-4.546c-0.101-0.876-0.197-1.754-0.301-2.628c-0.23-1.931-0.473-3.857-0.719-5.782    c-0.058-0.456-0.112-0.914-0.171-1.37c-0.308-2.364-0.628-4.721-0.96-7.074c-0.11-0.78-0.228-1.555-0.341-2.333    c-0.229-1.584-0.458-3.168-0.699-4.746c-0.143-0.938-0.294-1.872-0.44-2.807c-0.18-1.148-0.354-2.299-0.54-3.444h55.608    c5.583,35.875,8.412,73.303,8.412,111.356C461.958,291.552,459.485,326.614,454.603,360.323z"/>
	</g>
</g>
<g>
</g>
<g>
</g>
<g>
</g>
<g>
</g>
<g>
</g>
<g>
</g>
<g>
</g>
<g>
</g>
<g>
</g>
<g>
</g>
<g>
</g>
<g>
</g>
<g>
</g>
<g>
</g>
<g>
</g>
</svg>
