<?xml version="1.0" encoding="iso-8859-1"?>
<!-- Generator: Adobe Illustrator 19.0.0, SVG Export Plug-In . SVG Version: 6.00 Build 0)  -->
<svg xmlns="http://www.w3.org/2000/svg" xmlns:xlink="http://www.w3.org/1999/xlink" version="1.1" id="Capa_1" x="0px" y="0px" viewBox="0 0 512 512" style="enable-background:new 0 0 512 512;" xml:space="preserve">
<g>
	<g>
		<path d="M367.543,39.858c-0.44-0.433-0.916-0.816-1.421-1.148c-1.395-1.375-3.285-2.194-5.334-2.194H147.846L0,182.284v293.2    h210.156h15h72.783h125.938H512v-293.2L367.543,39.858z M102.136,460.484H15v-51.5h87.136V460.484z M102.136,393.984H15V192.922    h87.136V393.984z M25.789,177.922L153.998,51.516h80.771L106.56,177.922H25.789z M210.157,460.484h-93.021v-51.5h93.021V460.484z     M210.157,393.984h-93.021V192.922h93.021V393.984z M214.581,177.922h-86.656L256.133,51.516h86.655L214.581,177.922z     M297.939,460.484h-72.783v-51.5h72.783V460.484z M297.939,393.984h-72.783V192.922h72.783V393.984z M235.946,177.922    L361.078,54.548l125.133,123.374h-62.335H297.939H235.946z M408.877,460.484h-95.938V293.672h95.938V460.484z M408.877,278.672    h-95.938v-85.75h95.938V278.672z M497,460.484h-73.124v-51.5H497V460.484z M497,393.984h-73.124V192.922H497V393.984z"/>
	</g>
</g>
<g>
	<g>
		<rect x="320.47" y="361.17" width="15" height="16.406"/>
	</g>
</g>
<g>
</g>
<g>
</g>
<g>
</g>
<g>
</g>
<g>
</g>
<g>
</g>
<g>
</g>
<g>
</g>
<g>
</g>
<g>
</g>
<g>
</g>
<g>
</g>
<g>
</g>
<g>
</g>
<g>
</g>
</svg>
