<?xml version="1.0" encoding="iso-8859-1"?>
<!-- Generator: Adobe Illustrator 19.0.0, SVG Export Plug-In . SVG Version: 6.00 Build 0)  -->
<svg xmlns="http://www.w3.org/2000/svg" xmlns:xlink="http://www.w3.org/1999/xlink" version="1.1" id="Layer_1" x="0px" y="0px" viewBox="0 0 512 512" style="enable-background:new 0 0 512 512;" xml:space="preserve">
<g>
	<g>
		<path d="M332.809,216.085l-52.416-131.4c-1.906-4.782-6.465-7.872-11.614-7.872H166.141c-6.895,0-12.503,5.608-12.503,12.503    v131.402c0,6.895,5.608,12.503,12.503,12.503h155.055c4.15,0,8.02-2.051,10.349-5.488    C333.874,224.296,334.347,219.942,332.809,216.085z M302.384,218.219L302.384,218.219l-8.517-20.451    c-0.062-0.148-0.135-0.287-0.205-0.429l4.287-4.781c2.767-3.085,2.508-7.828-0.577-10.593c-3.087-2.766-7.83-2.506-10.593,0.578    l-16.887,18.835c-2.767,3.085-2.508,7.828,0.577,10.593c1.433,1.284,3.223,1.916,5.005,1.916c2.059,0,4.107-0.841,5.588-2.494    l1.519-1.695l3.549,8.521H168.642V91.818h98.443l50.423,126.401H302.384z"/>
	</g>
</g>
<g>
	<g>
		<path d="M123.178,76.815H87.52c-6.895,0-12.503,5.608-12.503,12.503v131.943c0,6.895,5.608,12.503,12.503,12.503h35.658    c6.895,0,12.503-5.608,12.503-12.503V89.317C135.681,82.423,130.073,76.815,123.178,76.815z M120.678,218.76H90.021V91.818h30.657    V218.76z"/>
	</g>
</g>
<g>
	<g>
		<path d="M432.249,232.017v-0.19C432.179,231.897,432.189,231.957,432.249,232.017z"/>
	</g>
</g>
<g>
	<g>
		<path d="M365.903,259.333c-4.144,0-7.502,3.359-7.502,7.502v22.807c0,4.143,3.358,7.502,7.502,7.502    c4.144,0,7.502-3.358,7.502-7.502v-22.807C373.404,262.692,370.047,259.333,365.903,259.333z"/>
	</g>
</g>
<g>
	<g>
		<path d="M386.747,259.333c-4.144,0-7.502,3.359-7.502,7.502v22.807c0,4.143,3.358,7.502,7.502,7.502    c4.144,0,7.502-3.358,7.502-7.502v-22.807C394.249,262.692,390.891,259.333,386.747,259.333z"/>
	</g>
</g>
<g>
	<g>
		<path d="M407.593,259.333c-4.144,0-7.502,3.359-7.502,7.502v22.807c0,4.143,3.358,7.502,7.502,7.502    c4.144,0,7.502-3.358,7.502-7.502v-22.807C415.095,262.692,411.737,259.333,407.593,259.333z"/>
	</g>
</g>
<g>
	<g>
		<circle cx="199.956" cy="304.43" r="8.587"/>
	</g>
</g>
<g>
	<g>
		<circle cx="224.961" cy="329.435" r="8.587"/>
	</g>
</g>
<g>
	<g>
		<path d="M95.882,283.126c-15.208,0-29.598,3.565-42.386,9.894V56.026c0-2.157,1.755-3.914,3.914-3.914h48.114    c4.143,0,7.502-3.359,7.502-7.502s-3.359-7.502-7.502-7.502H57.409c-10.43,0-18.917,8.486-18.917,18.917v246.218    C15.138,319.748,0,347.643,0,379.009c0,52.869,43.013,95.882,95.882,95.882c52.869,0,95.882-43.013,95.882-95.882    S148.752,283.126,95.882,283.126z M95.882,459.887c-44.596,0-80.878-36.282-80.878-80.878s36.282-80.878,80.878-80.878    s80.878,36.282,80.878,80.878S140.479,459.887,95.882,459.887z"/>
	</g>
</g>
<g>
	<g>
		<path d="M95.882,320.937c-32.02,0-58.071,26.051-58.071,58.071c0,10.012,2.592,19.887,7.495,28.554    c2.04,3.607,6.619,4.877,10.222,2.836c3.606-2.039,4.876-6.617,2.836-10.222c-3.631-6.419-5.55-13.739-5.55-21.168    c0-23.747,19.32-43.068,43.068-43.068s43.068,19.32,43.068,43.068s-19.318,43.069-43.067,43.069c-4.35,0-8.639-0.645-12.75-1.916    c-3.957-1.225-8.159,0.991-9.384,4.949c-1.224,3.958,0.991,8.16,4.949,9.384c5.548,1.716,11.33,2.587,17.184,2.587    c32.02,0,58.071-26.051,58.071-58.071S127.903,320.937,95.882,320.937z"/>
	</g>
</g>
<g>
	<g>
		<path d="M492.238,349.07v-69.155c0-0.026,0.004-0.051,0.004-0.077v-14.123c0-15.036-11.468-27.444-26.117-28.937    c-0.978-0.1-1.969-0.151-2.974-0.151h-13.758v-25.313h3.21c4.144,0,7.502-3.359,7.502-7.502v-23.136    c0-4.143-3.358-7.502-7.502-7.502h-47.987c-4.144,0-7.502,3.359-7.502,7.502v23.136c0,4.143,3.358,7.502,7.502,7.502h3.21v25.313    h-22.228L312.629,53.291c-3.912-9.83-13.275-16.182-23.856-16.182h-143.74c-4.143,0-7.502,3.359-7.502,7.502    s3.359,7.502,7.502,7.502h143.74c4.397,0,8.29,2.64,9.915,6.727l73.598,184.912c1.904,4.787,6.464,7.88,11.617,7.88h41.51    c3.563,20.261,21.277,35.709,42.544,35.709h9.278v49.138c-11.664-7.46-25.502-11.805-40.344-11.805    c-25.409,0-47.896,12.695-61.494,32.062H215.549c-4.143,0-7.502,3.359-7.502,7.502s3.359,7.502,7.502,7.502h151.685    c-3.504,8.671-5.452,18.132-5.452,28.043c0,41.414,33.695,75.108,75.109,75.108c41.414,0,75.109-33.694,75.109-75.108    C512,380.252,504.501,362.443,492.238,349.07z M434.39,236.328H422.83v-23.603h11.561V236.328z M412.118,196.312v-8.133h32.984    v8.133H412.118z M467.957,272.337L467.957,272.337c-12.956-0.001-23.9-8.782-27.193-20.706h22.392    c0.485,0,0.964,0.025,1.437,0.073c7.092,0.724,12.643,6.731,12.643,14.01v6.622H467.957z M436.891,459.887    c-33.143,0-60.106-26.963-60.106-60.105c0-33.143,26.963-60.106,60.106-60.106s60.106,26.963,60.106,60.106    C496.997,432.924,470.033,459.887,436.891,459.887z"/>
	</g>
</g>
<g>
	<g>
		<path d="M436.891,353.597c-25.467,0-46.186,20.719-46.186,46.186c0,6.167,1.198,12.159,3.562,17.809    c1.598,3.823,5.994,5.624,9.815,4.027c3.822-1.598,5.625-5.993,4.026-9.815c-1.592-3.808-2.399-7.852-2.399-12.021    c0-17.194,13.988-31.182,31.182-31.182c17.194,0,31.182,13.988,31.182,31.182c0,17.193-13.988,31.181-31.182,31.181    c-2.206,0-4.405-0.23-6.538-0.685c-4.053-0.863-8.037,1.721-8.9,5.773c-0.863,4.052,1.721,8.037,5.772,8.9    c3.16,0.673,6.411,1.014,9.666,1.014c25.467,0,46.186-20.719,46.186-46.185C483.076,374.316,462.358,353.597,436.891,353.597z"/>
	</g>
</g>
<g>
</g>
<g>
</g>
<g>
</g>
<g>
</g>
<g>
</g>
<g>
</g>
<g>
</g>
<g>
</g>
<g>
</g>
<g>
</g>
<g>
</g>
<g>
</g>
<g>
</g>
<g>
</g>
<g>
</g>
</svg>
