<?xml version="1.0" encoding="iso-8859-1"?>
<!-- Generator: Adobe Illustrator 19.0.0, SVG Export Plug-In . SVG Version: 6.00 Build 0)  -->
<svg xmlns="http://www.w3.org/2000/svg" xmlns:xlink="http://www.w3.org/1999/xlink" version="1.1" id="Layer_1" x="0px" y="0px" viewBox="0 0 512 512" style="enable-background:new 0 0 512 512;" xml:space="preserve">
<g>
	<g>
		<circle cx="109.092" cy="438.725" r="8.572"/>
	</g>
</g>
<g>
	<g>
		<circle cx="316.802" cy="461.29" r="8.572"/>
	</g>
</g>
<g>
	<g>
		<circle cx="290.443" cy="433.293" r="8.572"/>
	</g>
</g>
<g>
	<g>
		<path d="M468.592,420.793c-3.401-2.354-8.067-1.505-10.419,1.896c-2.353,3.401-1.505,8.066,1.896,10.419    c21.071,14.582,34.408,37.722,36.626,62.958H15.301c3.807-43.708,40.602-78.117,85.28-78.117c8.95,0,17.8,1.392,26.304,4.136    c3.543,1.142,7.386-0.489,9.024-3.831c20.121-41.064,60.998-66.574,106.679-66.574c1.751,0,3.495,0.05,5.233,0.128v8.831    c0,4.136,3.353,7.488,7.489,7.488c4.136,0,7.488-3.353,7.488-7.488v-7.179c40.701,7.133,75.812,35.386,90.791,74.779    c0.806,2.119,2.528,3.759,4.684,4.46c2.157,0.702,4.513,0.388,6.411-0.852c13.92-9.092,30.08-13.898,46.734-13.898    c5.499,0,10.998,0.524,16.346,1.558c4.063,0.783,7.988-1.871,8.773-5.931c0.785-4.061-1.871-7.989-5.931-8.773    c-6.282-1.214-12.737-1.83-19.188-1.83c-16.578,0-32.741,4.054-47.24,11.789c-9.869-21.579-25.241-40.069-44.849-53.843    c-16.991-11.936-36.243-19.626-56.531-22.696v-23.8c0.066-0.071,0.137-0.135,0.201-0.21l29.245-34.211    c3.141,0.649,8.555,1.604,15.472,2.175c2.689,0.222,5.365,0.331,8.024,0.331c27.638,0,53.418-11.873,71.682-33.279    c20.02-23.466,27.305-54.045,19.984-83.898c-1.625-6.632-3.384-11.768-4.572-14.91c-1.523-4.025-4.948-6.947-9.163-7.817    c-3.291-0.679-8.641-1.606-15.443-2.167c-30.634-2.529-59.684,9.481-79.704,32.946c-20.02,23.466-27.305,54.046-19.984,83.899    c1.162,4.742,2.395,8.717,3.42,11.704l-19.159,22.412V172.033c2.859-1.633,6.953-4.141,11.691-7.551    c4.754-3.423,9.19-7.274,13.186-11.444c2.862-2.986,2.76-7.727-0.227-10.588c-2.987-2.861-7.727-2.76-10.588,0.228    c-3.366,3.514-7.108,6.761-11.123,9.651c-1.017,0.733-1.998,1.415-2.94,2.053v-42.73c0-4.136-3.353-7.488-7.488-7.488    s-7.488,3.353-7.488,7.488v42.73c-0.942-0.638-1.922-1.319-2.938-2.052c-20.988-15.111-33.025-38.671-33.025-64.641    s12.038-49.533,33.025-64.643c4.23-3.046,7.854-5.27,10.426-6.737c2.577,1.469,6.2,3.693,10.429,6.739    c28.18,20.289,39.879,56.251,29.112,89.488c-1.274,3.934,0.882,8.156,4.817,9.432c3.935,1.274,8.157-0.883,9.432-4.817    c12.779-39.45-1.129-82.153-34.61-106.258c-5.554-4-10.234-6.77-13.182-8.389c-3.757-2.066-8.252-2.061-12.021,0.012    c-2.94,1.617-7.61,4.383-13.156,8.376c-24.944,17.958-39.251,45.95-39.251,76.796c0,30.846,14.307,58.837,39.251,76.796    c4.738,3.411,8.831,5.918,11.69,7.55v118.112l-17.718-20.727c1.053-3.033,2.35-7.16,3.572-12.142    c2.375-9.687,3.223-19.56,2.518-29.344c-0.296-4.125-3.875-7.225-8.007-6.931c-4.125,0.297-7.229,3.881-6.931,8.007    c0.591,8.223-0.125,16.536-2.127,24.703c-0.187,0.762-0.375,1.494-0.565,2.21l-11.407-13.344    c-2.687-3.144-7.415-3.514-10.558-0.826c-3.143,2.687-3.514,7.414-0.826,10.558l12.347,14.444    c-1.503,0.183-3.118,0.354-4.854,0.498c-25.768,2.129-50.223-7.984-67.08-27.741c-16.856-19.758-22.991-45.493-16.832-70.61    c1.241-5.062,2.554-9.107,3.56-11.893c2.913-0.555,7.114-1.214,12.308-1.643c31.048-2.562,60.972,13.499,76.231,40.915    c2.011,3.613,6.572,4.914,10.185,2.902c3.613-2.011,4.912-6.571,2.902-10.185c-18.11-32.542-53.646-51.609-90.549-48.557    c-6.823,0.562-12.181,1.493-15.473,2.173c-4.198,0.868-7.613,3.787-9.137,7.812c-1.187,3.141-2.945,8.277-4.572,14.91    c-7.321,29.852-0.036,60.432,19.984,83.898c18.264,21.408,44.04,33.281,71.682,33.279c2.658,0,5.337-0.11,8.024-0.331    c6.608-0.545,11.833-1.44,15.026-2.085l28.298,33.104v23.61c-1.739-0.067-3.484-0.102-5.233-0.102    c-25.497,0-50.292,7.207-71.703,20.841c-19.052,12.131-34.687,28.824-45.518,48.525c-8.09-2.057-16.401-3.096-24.785-3.096    C45.121,402.973,0,448.094,0,503.554c0,4.136,3.353,7.488,7.488,7.488h497.023c1.986,0,3.891-0.789,5.295-2.194    c1.405-1.404,2.194-3.309,2.194-5.295C512,470.541,495.773,439.603,468.592,420.793z M309.916,183.102    c16.855-19.758,41.301-29.872,67.079-27.741c5.191,0.428,9.393,1.088,12.304,1.642c1.005,2.787,2.318,6.831,3.56,11.893    c6.159,25.117,0.024,50.854-16.832,70.61c-16.856,19.757-41.306,29.869-67.079,27.741c-1.917-0.158-3.699-0.349-5.329-0.555    l12.298-14.387c2.688-3.144,2.317-7.871-0.826-10.558c-3.144-2.687-7.87-2.318-10.558,0.826l-11.009,12.878    c-0.148-0.567-0.295-1.144-0.44-1.739C286.924,228.596,293.06,202.86,309.916,183.102z"/>
	</g>
</g>
<g>
</g>
<g>
</g>
<g>
</g>
<g>
</g>
<g>
</g>
<g>
</g>
<g>
</g>
<g>
</g>
<g>
</g>
<g>
</g>
<g>
</g>
<g>
</g>
<g>
</g>
<g>
</g>
<g>
</g>
</svg>
