<?xml version="1.0" encoding="iso-8859-1"?>
<!-- Generator: Adobe Illustrator 19.0.0, SVG Export Plug-In . SVG Version: 6.00 Build 0)  -->
<svg xmlns="http://www.w3.org/2000/svg" xmlns:xlink="http://www.w3.org/1999/xlink" version="1.1" id="Capa_1" x="0px" y="0px" viewBox="0 0 512.001 512.001" style="enable-background:new 0 0 512.001 512.001;" xml:space="preserve">
<g>
	<g>
		<path d="M484.466,27.535C466.71,9.778,443.102,0,417.991,0c-25.11,0-48.717,9.778-66.474,27.535L27.535,351.518    C9.78,369.273,0.001,392.881,0.001,417.992c0,25.111,9.778,48.719,27.534,66.475c17.756,17.756,41.364,27.535,66.475,27.535    c25.11,0,48.718-9.778,66.474-27.535l323.982-323.983c17.755-17.756,27.534-41.364,27.534-66.474    C512,68.899,502.221,45.291,484.466,27.535z M473.829,149.847L149.847,473.83c-14.914,14.914-34.745,23.128-55.837,23.128    s-40.924-8.214-55.838-23.128c-14.915-14.915-23.128-34.745-23.128-55.838c0-21.093,8.213-40.923,23.128-55.838l23.227-23.227    c12.223,10.784,42.772,40.176,50.349,70.599l14.596-3.635c-8.512-34.179-40.417-65.386-54.268-77.64l57.635-57.635    c12.22,10.767,42.753,40.114,50.346,70.603l14.596-3.635c-8.512-34.179-40.417-65.387-54.269-77.64l57.631-57.632    c12.224,10.784,42.773,40.176,50.349,70.599l14.596-3.635c-8.512-34.179-40.417-65.386-54.269-77.64l57.635-57.635    c12.22,10.766,42.752,40.114,50.345,70.603l14.596-3.635c-8.512-34.179-40.417-65.387-54.269-77.64l57.635-57.635    c12.22,10.767,42.753,40.115,50.346,70.603l14.596-3.635c-8.513-34.179-40.418-65.387-54.27-77.64l16.85-16.85    c14.915-14.916,34.746-23.13,55.837-23.13c21.093,0,40.924,8.214,55.838,23.128c14.915,14.915,23.128,34.745,23.128,55.838    C496.958,115.102,488.745,134.932,473.829,149.847z"/>
	</g>
</g>
<g>
	<g>
		<path d="M126.52,465.591c-21.296,14.325-49.849,12.734-69.43-3.864l-9.726,11.475c13.435,11.386,30.213,17.17,47.048,17.17    c14.108,0,28.259-4.065,40.503-12.299L126.52,465.591z"/>
	</g>
</g>
<g>
	<g>
		<path d="M150.616,443.02l-15.446,15.443c-0.289,0.29-0.583,0.577-0.877,0.859l10.412,10.856c0.373-0.357,0.743-0.72,1.107-1.084    l15.439-15.439L150.616,443.02z"/>
	</g>
</g>
<g>
	<g>
		
			<rect x="337.172" y="232.073" transform="matrix(0.7071 -0.7071 0.7071 0.7071 -62.6009 328.0567)" width="55.055" height="15.042"/>
	</g>
</g>
<g>
	<g>
		
			<rect x="390.055" y="192.941" transform="matrix(0.7071 -0.7071 0.7071 0.7071 -23.4726 344.2565)" width="27.527" height="15.042"/>
	</g>
</g>
<g>
	<g>
		<path d="M467.985,44.016c-9.25-9.25-20.804-15.837-33.417-19.053l-3.715,14.576c9.996,2.548,19.157,7.774,26.497,15.113    c9.067,9.067,14.742,20.56,16.41,33.236l14.912-1.962C486.568,69.939,479.415,55.446,467.985,44.016z"/>
	</g>
</g>
<g>
</g>
<g>
</g>
<g>
</g>
<g>
</g>
<g>
</g>
<g>
</g>
<g>
</g>
<g>
</g>
<g>
</g>
<g>
</g>
<g>
</g>
<g>
</g>
<g>
</g>
<g>
</g>
<g>
</g>
</svg>
