<?xml version="1.0" encoding="iso-8859-1"?>
<!-- Generator: Adobe Illustrator 19.0.0, SVG Export Plug-In . SVG Version: 6.00 Build 0)  -->
<svg xmlns="http://www.w3.org/2000/svg" xmlns:xlink="http://www.w3.org/1999/xlink" version="1.1" id="Capa_1" x="0px" y="0px" viewBox="0 0 512 512" style="enable-background:new 0 0 512 512;" xml:space="preserve">
<g>
	<g>
		<path d="M454.761,198.469v-15h-27.874v-32.031h-31.088v-46.593h36.591L395.665,0H93.963L57.239,104.845H93.83v46.593H75.813v15    H93.83v134.688H60.313v59.438h13.062V512h342.88V360.563h13.062v-59.438H395.8V166.438h16.088v32.031H454.761z M78.386,89.845    L104.603,15h280.423l26.216,74.845h-15.443h-43.125H136.955H93.83H78.386z M380.799,104.845v196.28h-13.125v-196.28H380.799z     M221.064,180.813v-14.375h16.25v14.375h15v-14.375h16.25v14.375h15v-14.375h16.25v14.375h15v-14.375h37.859v134.688H189.814    V166.438h16.25v14.375H221.064z M314.814,151.438v-14.375h-15v14.375h-16.25v-14.375h-15v14.375h-16.25v-14.375h-15v14.375h-16.25    v-14.375h-15v14.375h-16.25v-14.375h-15v14.375h-37.859v-46.593h215.719v46.593H314.814z M174.814,166.438v134.688h-37.859    V166.438H174.814z M121.955,104.845v196.28H108.83v-196.28H121.955z M401.254,497H88.374V360.563h312.88V497z M414.316,316.125    v29.438H75.313v-29.438H93.83h43.125h215.719h43.125H414.316z"/>
	</g>
</g>
<g>
	<g>
		<polygon points="109.83,475.781 109.83,455.156 94.83,455.156 94.83,490.781 154.377,490.781 154.377,475.781   "/>
	</g>
</g>
<g>
	<g>
		<rect x="94.83" y="424.69" width="15" height="21.875"/>
	</g>
</g>
<g>
	<g>
		<rect x="379.8" y="381.16" width="15" height="43.41"/>
	</g>
</g>
<g>
</g>
<g>
</g>
<g>
</g>
<g>
</g>
<g>
</g>
<g>
</g>
<g>
</g>
<g>
</g>
<g>
</g>
<g>
</g>
<g>
</g>
<g>
</g>
<g>
</g>
<g>
</g>
<g>
</g>
</svg>
