<?xml version="1.0" encoding="iso-8859-1"?>
<!-- Generator: Adobe Illustrator 19.0.0, SVG Export Plug-In . SVG Version: 6.00 Build 0)  -->
<svg xmlns="http://www.w3.org/2000/svg" xmlns:xlink="http://www.w3.org/1999/xlink" version="1.1" id="Layer_1" x="0px" y="0px" viewBox="0 0 512.001 512.001" style="enable-background:new 0 0 512.001 512.001;" xml:space="preserve">
<g>
	<g>
		<path d="M504.94,241.337l-88.683-125.063c-0.768-1.084-1.699-2.034-2.767-2.824L263.449,2.46    c-4.434-3.279-10.39-3.279-14.823-0.001L98.514,113.448c-1.067,0.789-1.998,1.739-2.77,2.825L7.061,241.337    c-2.726,3.845-3.075,8.834-0.91,13.023c2.155,4.17,6.404,6.761,11.087,6.761H55.89v238.354c0,6.907,5.602,12.525,12.488,12.525    h96.495H347.69h97.2c6.887,0,12.489-5.619,12.489-12.525V261.121h37.383c4.684,0,8.932-2.59,11.087-6.761    C508.014,250.172,507.666,245.182,504.94,241.337z M157.379,497.011h-86.5v-37.512c14.176,0.024,28.455,0.036,42.771,0.036    c14.574,0,29.173-0.014,43.729-0.039V497.011z M157.381,444.51c-28.855,0.049-57.894,0.049-86.5,0.001v-40.04h11.452    c4.139,0,7.494-3.355,7.494-7.494c0-4.139-3.355-7.494-7.494-7.494H70.879v-40c13.999,0.07,27.872,0.107,41.753,0.107    c14.835,0,29.694-0.042,44.748-0.121v40.042c-11.928,0.087-23.6,0.081-35.523-0.027c-4.119-0.044-7.524,3.286-7.562,7.425    c-0.038,4.139,3.286,7.524,7.425,7.562c6.679,0.061,13.275,0.092,19.881,0.092c5.233,0,10.487-0.025,15.78-0.063V444.51z     M181.519,497.011l74.856-73.49l74.692,73.49H181.519z M172.368,484.991V340.867l73.321,72.141L172.368,484.991z M340.197,484.965    l-73.124-71.946l16.795-16.488c2.953-2.9,2.997-7.645,0.097-10.599c-2.9-2.953-7.644-2.998-10.598-0.098l-16.98,16.67    l-74.89-73.684H330.96l-29.6,28.819c-2.966,2.887-3.029,7.632-0.142,10.597c1.469,1.509,3.418,2.266,5.371,2.266    c1.885,0,3.77-0.706,5.227-2.124l28.381-27.632V484.965z M442.391,497.012h-87.207v-0.001v-37.516    c15.009,0.026,29.862,0.04,44.722,0.04c14.093,0,28.21-0.012,42.484-0.036V497.012z M355.184,389.487v-39.899    c9.582,0.015,19.752,0.025,30.375,0.025c17.92,0,37.111-0.032,56.831-0.13v40.016    C413.426,389.598,384.138,389.595,355.184,389.487z M442.391,444.51c-29.326,0.049-57.962,0.047-87.206-0.004v-40.03    c15.172,0.057,30.435,0.086,45.7,0.086c13.867,0,27.719-0.028,41.506-0.074V444.51z M442.391,334.496    c-31.409,0.156-61.459,0.143-87.206,0.104v-13.273c0-4.139-3.355-7.494-7.494-7.494H164.874c-4.139,0-7.494,3.355-7.494,7.494    v13.153c-29.141,0.155-57.54,0.159-86.5,0.014V295.05h371.511V334.496z M442.391,280.062H70.879v-22.83    c0.397-0.417,0.773-0.853,1.112-1.328l11.813-16.525c0.227,0.022,0.456,0.038,0.688,0.039c22.799,0.151,46.847,0.227,70.976,0.227    c22.986,0,46.036-0.07,68.165-0.207c8.265,8.397,19.721,13.609,32.366,13.609c12.571,0,23.969-5.147,32.223-13.457    c5.978,0.036,11.714,0.055,17.376,0.055c11.427,0,22.592-0.074,35.033-0.227c4.139-0.051,7.452-3.447,7.401-7.586    c-0.051-4.139-3.472-7.44-7.586-7.401c-15.063,0.185-28.248,0.254-42.308,0.215c2.211-5.384,3.439-11.276,3.439-17.455    c0-8.204-2.162-15.904-5.928-22.573c11.249,0.049,22.63,0.074,33.836,0.074c21.215,0,41.77-0.086,59.44-0.257l28.587,39.994    h-37.018c-4.139,0-7.494,3.355-7.494,7.494s3.355,7.494,7.494,7.494h47.732l11.776,16.475c0.68,0.951,1.494,1.776,2.389,2.488    V280.062z M264.129,158.755V77.943l44.925,34.975L264.129,158.755z M320.959,122.186l52.925,41.203l4.393,6.145    c-28.949,0.214-63.791,0.226-96.278,0.023c-1.491-1.045-3.044-2.005-4.656-2.87L320.959,122.186z M286.589,207.19    c0,17.02-13.721,30.867-30.588,30.867c-16.867,0-30.588-13.846-30.588-30.867c0-17.02,13.721-30.867,30.588-30.867    S286.589,190.17,286.589,207.19z M249.14,158.755l-45.457-46.378l45.457-35.368V158.755z M235.503,166.253    c-1.844,0.938-3.616,1.994-5.306,3.167c-31.728,0.312-64.794,0.345-96.46,0.1l4.381-6.128l53.659-41.751L235.503,166.253z     M176.129,184.671c13.459,0,26.947-0.049,40.276-0.146c-3.798,6.69-5.98,14.423-5.98,22.664c0,6.124,1.209,11.969,3.384,17.315    c-39.189,0.206-80.773,0.201-119.362-0.016l28.643-40.074C140.405,184.584,158.231,184.671,176.129,184.671z M451.449,246.133    l-66.006-92.345c-0.42-0.588-0.923-1.111-1.493-1.556L263.709,58.621c-4.517-3.516-10.826-3.515-15.342-0.002l-120.314,93.612    c-0.571,0.444-1.074,0.968-1.495,1.557l-66.005,92.345H22.035l85.706-120.866L256.037,15.62l148.222,109.645l85.708,120.868    H451.449z"/>
	</g>
</g>
<g>
</g>
<g>
</g>
<g>
</g>
<g>
</g>
<g>
</g>
<g>
</g>
<g>
</g>
<g>
</g>
<g>
</g>
<g>
</g>
<g>
</g>
<g>
</g>
<g>
</g>
<g>
</g>
<g>
</g>
</svg>
