<?xml version="1.0" encoding="iso-8859-1"?>
<!-- Generator: Adobe Illustrator 19.0.0, SVG Export Plug-In . SVG Version: 6.00 Build 0)  -->
<svg version="1.1" id="Layer_1" xmlns="http://www.w3.org/2000/svg" xmlns:xlink="http://www.w3.org/1999/xlink" x="0px" y="0px"
	 viewBox="0 0 511.999 511.999" style="enable-background:new 0 0 511.999 511.999;" xml:space="preserve">
<g>
	<g>
		<path d="M338.782,100.728c-31.083,0-60.783,12.429-82.783,34.381c-22-21.952-51.698-34.381-82.783-34.381
			c-23.606,0-46.409,7.041-65.945,20.36l9.042,13.262c16.859-11.495,36.537-17.572,56.903-17.572
			c29.373,0,57.332,12.884,76.705,35.349l6.078,7.047l6.078-7.047c19.374-22.465,47.332-35.349,76.706-35.349
			c55.946,0,101.462,45.516,101.462,101.462v176.247c0,27.398-10.884,53.131-30.648,72.457l11.221,11.476
			c22.877-22.371,35.476-52.179,35.476-83.932V218.241C456.294,153.443,403.578,100.728,338.782,100.728z"/>
	</g>
</g>
<g>
	<g>
		<path d="M395.683,478.351c-16.868,11.513-36.544,17.599-56.901,17.599c-29.403,0-57.358-12.918-76.693-35.443l-6.089-7.093
			l-6.09,7.093c-19.335,22.524-47.289,35.443-76.693,35.443c-55.946,0-101.462-45.516-101.462-101.461V218.241
			c0-26.682,10.375-51.921,29.213-71.067l-11.441-11.258c-21.81,22.168-33.821,51.404-33.821,82.325v176.247
			c0,64.797,52.716,117.512,117.513,117.512c31.113,0,60.813-12.459,82.783-34.462c21.971,22.003,51.671,34.462,82.783,34.462
			c23.599,0,46.404-7.052,65.948-20.392L395.683,478.351z"/>
	</g>
</g>
<g>
	<g>
		<path d="M346.793,0c-36.992,0-64.415,14.081-81.508,41.849c-14.517,23.583-18.26,52.585-18.844,72.763l16.044,0.464
			c0.526-18.219,3.811-44.253,16.468-64.814c13.975-22.702,36.799-34.212,67.841-34.212h26.705V0H346.793z"/>
	</g>
</g>
<g>
	<g>
		<path d="M124.873,159.313C107.327,175.652,98.43,200.22,98.43,232.34h16.05c0-27.392,7.131-47.966,21.194-61.151
			c18.943-17.759,44.751-16.312,45.008-16.295l1.116-16.012C180.471,138.785,149.031,136.819,124.873,159.313z"/>
	</g>
</g>
<g>
	<g>
		<rect x="98.431" y="248.364" width="16.05" height="37.386"/>
	</g>
</g>
<g>
</g>
<g>
</g>
<g>
</g>
<g>
</g>
<g>
</g>
<g>
</g>
<g>
</g>
<g>
</g>
<g>
</g>
<g>
</g>
<g>
</g>
<g>
</g>
<g>
</g>
<g>
</g>
<g>
</g>
</svg>
