<?xml version="1.0" encoding="iso-8859-1"?>
<!-- Generator: Adobe Illustrator 19.0.0, SVG Export Plug-In . SVG Version: 6.00 Build 0)  -->
<svg version="1.1" id="Layer_1" xmlns="http://www.w3.org/2000/svg" xmlns:xlink="http://www.w3.org/1999/xlink" x="0px" y="0px"
	 viewBox="0 0 511.999 511.999" style="enable-background:new 0 0 511.999 511.999;" xml:space="preserve">
<g>
	<g>
		<path d="M102.567,52.01v57.146C74.647,77.294,12.344,72.611,9.496,72.414L0,71.758l0.657,9.496
			c0.051,0.727,1.298,18.043,6.874,38.478c7.733,28.339,19.649,48.147,35.42,58.874c8.856,6.025,18.684,9.043,29.375,9.043
			c3.208,0,6.495-0.276,9.856-0.82v28.531h20.385v81.28H82.181v49.189h20.385v36.562h16.572v-53.134H98.754v-16.044h61.025V296.64
			h-40.64v-97.852H98.754v-16.044h61.025v-16.572h-40.64V68.582h56.817v36.562h16.572V52.01H102.567z M97.42,157.462l-53.527-53.529
			l-11.717,11.719l50.518,50.518h-0.513v3.794c-11.467,2.455-21.293,0.793-29.893-5.048c-15.407-10.468-24.106-32.564-28.691-49.256
			c-2.706-9.855-4.33-19.054-5.266-25.624c22.867,3.227,62.605,13.227,76.109,35.977C99.796,135.032,100.791,145.395,97.42,157.462z
			"/>
	</g>
</g>
<g>
	<g>
		<polygon points="143.603,272.176 143.603,235.613 127.031,235.613 127.031,288.749 155.702,288.749 155.702,272.176 		"/>
	</g>
</g>
<g>
	<g>
		<polygon points="143.603,137.63 143.603,101.067 127.031,101.067 127.031,154.203 155.702,154.203 155.702,137.63 		"/>
	</g>
</g>
<g>
	<g>
		<polygon points="143.603,414.878 143.603,378.315 127.031,378.315 127.031,431.45 155.702,431.45 155.702,414.878 		"/>
	</g>
</g>
<g>
	<g>
		<path d="M283.968,196.361c-2.794,0.193-62.799,4.7-91.44,34.946v-15.947h20.386V166.17h-20.386v-44.721h-16.572v61.294h20.386
			v16.044h-61.025v16.572h40.639v97.852h20.386v16.044h-61.025v16.572h40.639v97.588h-56.817v-44.722h-16.572v61.295h89.962V345.83
			h20.386v-34.767c2.775,0.378,5.504,0.583,8.176,0.583c9.556,0,18.437-2.416,26.58-7.249
			c39.463-23.425,44.923-96.116,45.137-99.198l0.656-9.495L283.968,196.361z M269.498,240.946
			c-4.842,17.124-14.03,39.563-30.307,49.21c-9.015,5.344-19.371,6.336-31.429,2.968l53.527-53.528l-11.719-11.717l-53.527,53.527
			c-3.369-12.058-2.377-22.415,2.969-31.43c9.647-16.275,32.086-25.464,49.21-30.307c10.329-2.921,20.038-4.647,26.901-5.625
			C274.145,220.909,272.418,230.618,269.498,240.946z"/>
	</g>
</g>
<g>
	<g>
		<path d="M321.104,52.01v57.146c-27.92-31.862-90.222-36.544-93.071-36.741l-9.496-0.656l0.657,9.496
			c0.051,0.727,1.298,18.043,6.874,38.478c7.733,28.339,19.649,48.147,35.42,58.874c8.856,6.025,18.684,9.043,29.375,9.043
			c3.208,0,6.495-0.276,9.856-0.82v28.531h20.385v81.28h-20.386v49.189h20.385v44.721h16.572v-61.294h-20.385v-16.044h61.025V296.64
			h-40.64v-97.852h-20.385v-16.044h61.025v-16.572h-40.64V68.582h56.817v32.485h16.572V52.01H321.104z M315.957,157.462
			l-53.527-53.528l-11.719,11.719l50.518,50.518h-0.513v3.794c-11.465,2.454-21.292,0.792-29.891-5.049
			c-15.407-10.468-24.106-32.564-28.691-49.256c-2.706-9.855-4.33-19.054-5.266-25.624c22.867,3.227,62.605,13.227,76.109,35.977
			C318.333,135.032,319.329,145.395,315.957,157.462z"/>
	</g>
</g>
<g>
	<g>
		<polygon points="362.139,272.176 362.139,235.613 345.567,235.613 345.567,288.749 374.238,288.749 374.238,272.176 		"/>
	</g>
</g>
<g>
	<g>
		<polygon points="362.139,137.63 362.139,101.067 345.567,101.067 345.567,154.203 374.238,154.203 374.238,137.63 		"/>
	</g>
</g>
<g>
	<g>
		<polygon points="362.139,414.878 362.139,378.315 345.567,378.315 345.567,431.45 374.238,431.45 374.238,414.878 		"/>
	</g>
</g>
<g>
	<g>
		<path d="M502.505,196.361c-2.794,0.193-62.801,4.7-91.441,34.946v-15.947h20.386V166.17h-20.386v-48.792h-16.572v65.365h20.386
			v16.044h-61.025v16.572h40.639v97.852h20.386v16.044h-61.025v16.572h40.639v97.588h-56.817v-36.56h-16.572v53.132h89.962V345.83
			h20.386v-34.767c2.775,0.378,5.504,0.583,8.176,0.583c9.555,0,18.437-2.416,26.579-7.249
			c39.464-23.425,44.924-96.116,45.138-99.198l0.656-9.495L502.505,196.361z M457.746,290.146
			c-9.022,5.353-19.383,6.351-31.448,2.98l53.527-53.527l-11.719-11.719l-53.527,53.527c-3.369-12.058-2.377-22.415,2.969-31.43
			c9.647-16.275,32.086-25.464,49.21-30.307c10.361-2.93,20.098-4.658,26.964-5.635
			C490.496,236.902,480.496,276.643,457.746,290.146z"/>
	</g>
</g>
<g>
</g>
<g>
</g>
<g>
</g>
<g>
</g>
<g>
</g>
<g>
</g>
<g>
</g>
<g>
</g>
<g>
</g>
<g>
</g>
<g>
</g>
<g>
</g>
<g>
</g>
<g>
</g>
<g>
</g>
</svg>
