<?xml version="1.0" encoding="iso-8859-1"?>
<!-- Generator: Adobe Illustrator 19.0.0, SVG Export Plug-In . SVG Version: 6.00 Build 0)  -->
<svg version="1.1" id="Layer_1" xmlns="http://www.w3.org/2000/svg" xmlns:xlink="http://www.w3.org/1999/xlink" x="0px" y="0px"
	 viewBox="0 0 512 512" style="enable-background:new 0 0 512 512;" xml:space="preserve">
<g transform="translate(1 1)">
	<g>
		<g>
			<path d="M202.932,276.695h26.034H255c9.546,0,17.356-7.81,17.356-17.356v-52.068c0-9.546-7.81-17.356-17.356-17.356h-26.034
				h-26.034c-9.546,0-17.356,7.81-17.356,17.356v52.068C185.576,268.885,193.386,276.695,202.932,276.695z M255,259.339h-17.356
				v-52.068H255V259.339z M202.932,207.271h17.356v52.068h-17.356V207.271z"/>
			<path d="M116.153,276.695c9.546,0,17.356-7.81,17.356-17.356v-52.068c0-9.546-7.81-17.356-17.356-17.356H90.119H64.085
				c-9.546,0-17.356,7.81-17.356,17.356v52.068c0,9.546,7.81,17.356,17.356,17.356h26.034H116.153z M116.153,259.339H98.797v-52.068
				h17.356V259.339z M64.085,207.271h17.356v52.068H64.085V207.271z"/>
			<path d="M497.833,292.251c-0.44-2.59-1.849-4.598-3.938-5.76l-93.973-93.973c-3.471-3.471-8.678-3.471-12.149,0l-80.705,80.705
				V164.356c0.068-0.774,0.016-1.536-0.15-2.274c-0.44-2.59-1.848-4.599-3.938-5.76l-30.623-30.623v-74.63h8.678
				c5.207,0,8.678-3.471,8.678-8.678V7.678c0-5.207-3.471-8.678-8.678-8.678H211.61c-5.207,0-8.678,3.471-8.678,8.678V42.39
				c0,5.207,3.471,8.678,8.678,8.678h8.678V73.63l-54.671-54.671c-3.471-3.471-8.678-3.471-12.149,0L16.105,156.322
				c-2.09,1.162-3.498,3.171-3.938,5.76c-0.166,0.738-0.219,1.499-0.15,2.274v337.966c0,5.207,3.471,8.678,8.678,8.678h86.78H211.61
				h86.78h52.068h86.78h52.068c5.207,0,8.678-3.471,8.678-8.678V294.526C498.051,293.751,497.999,292.99,497.833,292.251z
				 M393.847,210.742l74.63,74.63h-39.919h-69.424h-39.919L393.847,210.742z M367.814,302.729h52.068v34.712h-52.068V302.729z
				 M228.966,33.712h-8.678V16.356h52.068v17.356h-8.678c-5.207,0-8.678,3.471-8.678,8.678v65.953l-17.356-17.356V42.39
				C237.644,37.183,234.173,33.712,228.966,33.712z M159.542,37.183l63.349,63.349c0,0,0,0,0,0l34.712,34.712
				c0,0,0.001,0,0.001,0.001l19.959,19.959H41.522L159.542,37.183z M29.373,172.559h260.339v120.65
				c-0.039,0.433-0.039,0.872,0,1.316v199.119h-69.424V363.475c0-5.207-3.471-8.678-8.678-8.678H107.475
				c-5.207,0-8.678,3.471-8.678,8.678v130.169H29.373V172.559z M116.153,493.644v-60.746h17.356c5.207,0,8.678-3.471,8.678-8.678
				s-3.471-8.678-8.678-8.678h-17.356v-43.39h86.78v121.492H116.153z M383.186,441.576l-24.05,33.67v-67.341L383.186,441.576z
				 M393.847,456.502l26.53,37.142h-53.06L393.847,456.502z M428.559,475.247l-24.05-33.67l24.05-33.67V475.247z M393.847,426.65
				l-26.53-37.142h53.06L393.847,426.65z M480.627,493.644h-34.712V382.373c0.299-1.522,0.126-3.032-0.398-4.407
				c-0.771-2.636-2.64-4.539-5.243-5.359c-1.529-0.632-3.091-0.747-4.556-0.454h-85.261c-5.207,0-8.678,3.471-8.678,8.678v112.814
				h-34.712V302.729h43.39v43.39c0,5.207,3.471,8.678,8.678,8.678h69.424c5.207,0,8.678-3.471,8.678-8.678v-43.39h43.39V493.644z"/>
			<path d="M124.83,294.051v34.712c0,5.207,3.471,8.678,8.678,8.678h52.068c5.207,0,8.678-3.471,8.678-8.678v-34.712
				c0-5.207-3.471-8.678-8.678-8.678h-52.068C128.302,285.373,124.83,288.844,124.83,294.051z M142.186,302.729h34.712v17.356
				h-34.712V302.729z"/>
		</g>
	</g>
</g>
<g>
</g>
<g>
</g>
<g>
</g>
<g>
</g>
<g>
</g>
<g>
</g>
<g>
</g>
<g>
</g>
<g>
</g>
<g>
</g>
<g>
</g>
<g>
</g>
<g>
</g>
<g>
</g>
<g>
</g>
</svg>
