<?xml version="1.0" encoding="iso-8859-1"?>
<!-- Generator: Adobe Illustrator 19.0.0, SVG Export Plug-In . SVG Version: 6.00 Build 0)  -->
<svg version="1.1" id="Layer_1" xmlns="http://www.w3.org/2000/svg" xmlns:xlink="http://www.w3.org/1999/xlink" x="0px" y="0px"
	 viewBox="0 0 512 512" style="enable-background:new 0 0 512 512;" xml:space="preserve">
<g transform="translate(1 1)">
	<g>
		<g>
			<path d="M144.067,263.533h-51.2c-5.12,0-8.533,3.413-8.533,8.533V306.2c0,5.12,3.413,8.533,8.533,8.533h51.2
				c5.12,0,8.533-3.413,8.533-8.533v-34.133C152.6,266.947,149.187,263.533,144.067,263.533z M135.533,297.667H101.4V280.6h34.133
				V297.667z"/>
			<path d="M383,152.6c-18.218,0-35.529,3.791-51.2,10.616v-19.15v-34.133V92.867C331.8,40.813,289.987-1,237.933-1
				s-93.867,41.813-93.867,93.867v17.067v34.133v79.589c-8.255-1.82-16.819-2.789-25.6-2.789C52.76,220.867-1,274.627-1,340.333
				v162.133c0,5.12,3.413,8.533,8.533,8.533h76.8H152.6h76.8h34.133h59.733h119.467h59.733c5.12,0,8.533-3.413,8.533-8.533V280.6
				C511,209.773,453.827,152.6,383,152.6z M493.933,272.067H272.417c2.841-35.975,23.471-68.844,55.117-87.04
				c0.721-0.481,1.365-1.037,1.932-1.654c15.807-8.731,34.013-13.706,53.535-13.706C441.88,169.667,489.667,214.893,493.933,272.067
				z M161.133,118.467h153.6v17.067h-153.6V118.467z M161.133,92.867c0-42.667,34.133-76.8,76.8-76.8s76.8,34.133,76.8,76.8v8.533
				h-153.6V92.867z M118.467,237.933c10.298,0,20.25,1.508,29.643,4.31c0.601,0.362,1.247,0.639,1.93,0.81
				c39.909,12.771,67.121,47.941,70.472,88.747H16.067C21.187,278.893,64.707,237.933,118.467,237.933z M16.067,348.867h204.8
				v145.067h-59.733v-93.867c0-5.12-3.413-8.533-8.533-8.533H84.333c-5.12,0-8.533,3.413-8.533,8.533v93.867H16.067V348.867z
				 M92.867,493.933V459.8h8.533c5.12,0,8.533-3.413,8.533-8.533c0-5.12-3.413-8.533-8.533-8.533h-8.533V408.6h51.2v85.333H92.867z
				 M237.933,340.333c0-1.363-0.032-2.719-0.078-4.071c-0.014-0.423-0.03-0.846-0.049-1.268c-0.045-1.014-0.103-2.025-0.174-3.032
				c-0.065-0.958-0.148-1.91-0.236-2.862c-0.039-0.412-0.075-0.824-0.118-1.234c-4.608-44.972-33.918-82.898-76.146-99.32V152.6
				h153.6v19.627c-0.114,0.074-0.224,0.153-0.337,0.227c-34.589,21.95-57.858,60.046-59.315,103.786
				c-0.005,0.148-0.012,0.297-0.017,0.445c-0.039,1.301-0.065,2.605-0.065,3.915v213.333h-17.067V340.333z M369.56,451.693
				l-37.76,32.366v-64.731L369.56,451.693z M382.573,462.848l36.267,31.086h-72.533L382.573,462.848z M395.587,451.693
				l38.613-33.097v66.194L395.587,451.693z M382.573,440.539L345.311,408.6h74.524L382.573,440.539z M493.933,493.933h-42.667
				v-93.867c0-5.12-3.413-8.533-8.533-8.533H323.267c-3.547,0-6.273,1.64-7.614,4.35c-1.508,2.074-1.715,4.589-0.919,6.947v91.103
				h-42.667v-204.8h221.867V493.933z"/>
		</g>
	</g>
</g>
<g>
</g>
<g>
</g>
<g>
</g>
<g>
</g>
<g>
</g>
<g>
</g>
<g>
</g>
<g>
</g>
<g>
</g>
<g>
</g>
<g>
</g>
<g>
</g>
<g>
</g>
<g>
</g>
<g>
</g>
</svg>
