<?xml version="1.0" encoding="iso-8859-1"?>
<!-- Generator: Adobe Illustrator 19.0.0, SVG Export Plug-In . SVG Version: 6.00 Build 0)  -->
<svg version="1.1" id="Layer_1" xmlns="http://www.w3.org/2000/svg" xmlns:xlink="http://www.w3.org/1999/xlink" x="0px" y="0px"
	 viewBox="0 0 512 512" style="enable-background:new 0 0 512 512;" xml:space="preserve">
<g transform="translate(1 1)">
	<g>
		<g>
			<path d="M451.158-1c-33.28,0-59.733,26.453-59.733,59.733v51.2v34.133v358.4c0,5.12,3.413,8.533,8.533,8.533h34.133h34.133
				h34.133c5.12,0,8.533-3.413,8.533-8.533v-358.4v-34.133v-51.2C510.891,25.453,484.438-1,451.158-1z M408.491,118.467h85.333
				v17.067h-85.333V118.467z M408.491,58.733c0-23.893,18.773-42.667,42.667-42.667c23.893,0,42.667,18.773,42.667,42.667V101.4
				h-85.333V58.733z M442.624,493.933v-68.267h17.067v68.267H442.624z M493.824,493.933h-17.067v-76.8
				c0-5.12-3.413-8.533-8.533-8.533h-34.133c-5.12,0-8.533,3.413-8.533,8.533v76.8h-17.067V152.6h85.333V493.933z"/>
			<path d="M271.958,237.933H101.291c-5.12,0-8.533,3.413-8.533,8.533V331.8c0,5.12,3.413,8.533,8.533,8.533h42.667h85.333h42.667
				c5.12,0,8.533-3.413,8.533-8.533v-85.333C280.491,241.347,277.078,237.933,271.958,237.933z M153.344,323.267
				c2.56-13.653,11.947-24.747,25.6-29.867l7.68-3.413l7.68,2.56c13.653,5.973,23.04,17.067,25.6,30.72H153.344z M263.424,323.267
				h-27.082c-2.995-20.341-16.56-37.828-36.065-46.08l-11.093-4.267c-1.707-0.853-4.267-0.853-5.973,0l-11.093,4.267
				c-19.516,7.506-33.084,25.577-36.069,46.08h-26.224V255h153.6V323.267z"/>
			<path d="M347.051,258.413c-0.614-0.819-1.428-1.486-2.352-1.998l-49.702-66.269c0-0.853-0.853-0.853-1.707-1.707l-21.333-14.222
				V87.747l11.093,11.093c1.707,1.707,3.413,2.56,5.973,2.56s4.267-0.853,5.973-2.56c3.413-3.413,3.413-8.533,0-11.947
				l-19.627-19.627l19.627-19.627c3.413-3.413,3.413-8.533,0-11.947s-8.533-3.413-11.947,0L263.424,55.32l-19.627-19.627
				c-3.413-3.413-8.533-3.413-11.947,0c-3.413,3.413-3.413,8.533,0,11.947l19.627,19.627l-19.627,19.627
				c-3.413,3.413-3.413,8.533,0,11.947c1.707,1.707,3.413,2.56,5.973,2.56s4.267-0.853,5.973-2.56l11.093-11.093v75.093l-64-42.667
				c-2.56-1.707-6.827-1.707-9.387,0l-102.4,68.267c0,0-0.853,0.853-1.707,1.707l-51.2,68.267l-25.6,34.133
				c-2.56,3.413-1.707,9.387,1.707,11.947c1.707,0.853,3.413,1.707,5.12,1.707c2.56,0,5.12-0.853,6.827-3.413l10.24-13.653v213.333
				c0,5.12,3.413,8.533,8.533,8.533h68.267h85.333h85.333h68.267c5.12,0,8.533-3.413,7.68-8.533V287.996l11.093,14.791
				c1.707,2.56,4.267,3.413,6.827,3.413c1.707,0,3.413,0,5.12-1.707c3.413-2.56,4.267-8.533,1.707-11.947L347.051,258.413z
				 M133.474,442.733l-23.65,33.109v-66.219L133.474,442.733z M143.958,457.411l26.088,36.523H117.87L143.958,457.411z
				 M218.807,442.733l-23.65,33.109v-66.219L218.807,442.733z M178.091,475.843l-23.65-33.109l23.65-33.109V475.843z
				 M229.291,457.411l26.088,36.523h-52.175L229.291,457.411z M263.424,475.843l-23.649-33.109l23.649-33.109V475.843z
				 M229.291,428.056l-26.088-36.523h52.175L229.291,428.056z M143.958,428.056l-26.088-36.523h52.175L143.958,428.056z
				 M331.691,493.933h-51.2V384.517c0.294-1.496,0.124-2.98-0.39-4.332c-0.758-2.593-2.595-4.465-5.156-5.271
				c-1.503-0.621-3.04-0.735-4.48-0.447h-81.839c-1.634-0.528-3.271-0.513-4.752,0h-82.583c-5.12,0-8.533,3.413-8.533,8.533v110.933
				h-51.2v-227.84l48.64-64.853l96.427-64l70.026,46.478c0.975,1.243,2.322,2.146,3.953,2.623l22.448,14.899l48.64,64.853V493.933z"
				/>
			<path d="M434.091,229.4h34.133c5.12,0,8.533-3.413,8.533-8.533v-34.133c0-5.12-3.413-8.533-8.533-8.533h-34.133
				c-5.12,0-8.533,3.413-8.533,8.533v34.133C425.558,225.987,428.971,229.4,434.091,229.4z M442.624,195.267h17.067v17.067h-17.067
				V195.267z"/>
			<path d="M434.091,306.2h34.133c5.12,0,8.533-3.413,8.533-8.533v-34.133c0-5.12-3.413-8.533-8.533-8.533h-34.133
				c-5.12,0-8.533,3.413-8.533,8.533v34.133C425.558,302.787,428.971,306.2,434.091,306.2z M442.624,272.067h17.067v17.067h-17.067
				V272.067z"/>
			<path d="M434.091,383h34.133c5.12,0,8.533-3.413,8.533-8.533v-34.133c0-5.12-3.413-8.533-8.533-8.533h-34.133
				c-5.12,0-8.533,3.413-8.533,8.533v34.133C425.558,379.587,428.971,383,434.091,383z M442.624,348.867h17.067v17.067h-17.067
				V348.867z"/>
		</g>
	</g>
</g>
<g>
</g>
<g>
</g>
<g>
</g>
<g>
</g>
<g>
</g>
<g>
</g>
<g>
</g>
<g>
</g>
<g>
</g>
<g>
</g>
<g>
</g>
<g>
</g>
<g>
</g>
<g>
</g>
<g>
</g>
</svg>
