<?xml version="1.0" encoding="iso-8859-1"?>
<!-- Generator: Adobe Illustrator 19.0.0, SVG Export Plug-In . SVG Version: 6.00 Build 0)  -->
<svg version="1.1" id="Layer_1" xmlns="http://www.w3.org/2000/svg" xmlns:xlink="http://www.w3.org/1999/xlink" x="0px" y="0px"
	 viewBox="0 0 512 512" style="enable-background:new 0 0 512 512;" xml:space="preserve">
<g transform="translate(1 1)">
	<g>
		<g>
			<path d="M362.52-1c-52.053,0-93.867,41.813-93.867,93.867V127v25.6c0,5.12,3.413,8.533,8.533,8.533s8.533-3.413,8.533-8.533
				v-17.067h153.6v358.4h-42.667v-51.2c0-18.773-15.36-34.133-34.133-34.133c-18.773,0-34.133,15.36-34.133,34.133v51.2H285.72
				v-17.067c0-5.12-3.413-8.533-8.533-8.533s-8.533,3.413-8.533,8.533v25.6c0,5.12,3.413,8.533,8.533,8.533h59.733h51.2h59.733
				c5.12,0,8.533-3.413,8.533-8.533V127V92.867C456.387,40.813,414.573-1,362.52-1z M345.453,493.933v-51.2
				c0-9.387,7.68-17.067,17.067-17.067s17.067,7.68,17.067,17.067v51.2H345.453z M285.72,118.467v-25.6
				c0-42.667,34.133-76.8,76.8-76.8c42.667,0,76.8,34.133,76.8,76.8v25.6H285.72z"/>
			<path d="M167.032,386.821c0.657,1.573,1.64,2.865,2.634,3.859l29.867,21.333c10.24,7.68,23.04,11.093,34.987,11.093
				c12.8,0,24.747-4.267,34.133-11.947l27.477-19.627h32.256c5.12,0,8.533-3.413,8.533-8.533s-3.413-8.533-8.533-8.533h-32.256
				l-27.477-19.627c-17.826-12.627-41.469-14.258-60.804-4.903c9.355-19.334,7.724-42.977-4.903-60.804l-19.627-27.477V229.4
				c0-5.12-3.413-8.533-8.533-8.533c-5.12,0-8.533,3.413-8.533,8.533v32.256l-19.627,27.477c-14.507,20.48-14.507,48.64,0,69.12
				L167.032,386.821z M259.267,368.493L279.747,383l-20.48,14.507c-14.507,10.24-34.987,10.24-49.493,0L190.147,383l19.627-14.507
				C224.28,358.253,244.76,358.253,259.267,368.493z M160.28,298.52l14.507-20.48l14.507,20.48c10.24,14.507,10.24,34.987,0,49.493
				l-14.507,20.48l-14.507-20.48C150.04,333.507,150.04,313.027,160.28,298.52z"/>
			<path d="M236.227,302.787c0.275,0.275,0.578,0.546,0.893,0.814c0.267,0.315,0.539,0.619,0.814,0.893l29.867,21.333
				c10.24,7.68,23.04,11.093,34.987,11.093s24.747-3.413,34.133-11.093l27.477-19.627h32.256c5.12,0,8.533-3.413,8.533-8.533
				s-3.413-8.533-8.533-8.533h-32.256l-27.477-19.627c-17.826-12.627-41.469-14.258-60.804-4.903
				c9.355-19.334,7.724-42.977-4.903-60.804l-19.627-27.477v-32.256c0-5.12-3.413-8.533-8.533-8.533s-8.533,3.413-8.533,8.533
				v32.256L214.893,203.8c-14.507,20.48-14.507,48.64,0,69.12L236.227,302.787z M327.533,283.16l20.48,14.507l-20.48,14.507
				c-14.507,10.24-34.987,10.24-49.493,0l-20.48-14.507l20.48-14.507C292.547,272.92,313.027,272.92,327.533,283.16z
				 M228.547,213.187l14.507-20.48l14.507,20.48c10.24,14.507,10.24,34.987,0,49.493l-14.507,20.48l-14.507-20.48
				C218.307,248.173,218.307,227.693,228.547,213.187z"/>
			<path d="M304.493,246.467l36.693-5.973c25.6-4.267,45.227-23.893,49.493-49.493l5.973-36.693c0-2.56-0.853-5.973-2.56-7.68
				c-2.56-1.707-5.12-3.413-7.68-2.56l-36.693,5.973c-25.6,4.267-45.227,23.893-49.493,49.493l-5.973,36.693
				c0,2.56,0.853,5.973,2.56,7.68c1.707,1.707,3.413,2.56,5.973,2.56C303.64,246.467,303.64,246.467,304.493,246.467z
				 M317.293,202.947c2.56-17.92,17.067-31.573,34.987-34.987l24.747-4.267l-4.267,24.747c-2.56,17.92-17.067,31.573-34.987,34.987
				l-24.747,4.267L317.293,202.947z"/>
			<path d="M251.587,451.267h-24.064l-26.283-18.773c-18.363-13.007-42.896-14.343-62.535-4.025
				c10.317-19.639,8.982-44.172-4.025-62.535l-19.627-27.477V306.2c0-5.12-3.413-8.533-8.533-8.533c-5.12,0-8.533,3.413-8.533,8.533
				v32.256L78.36,365.933c-14.507,20.48-14.507,48.64,0,69.12l1.374,1.924c-1.652,1.149-3.22,2.482-4.788,4.049
				c-6.827,5.973-10.24,15.36-10.24,23.893c0,6.128,1.77,12.253,5.291,17.749l-13.824,13.824c-3.413,3.413-3.413,8.533,0,11.947
				c1.707,1.707,3.413,2.56,5.973,2.56c1.707,0,4.267-0.853,5.973-2.56l14.025-14.025c5.22,3.088,10.956,4.639,16.695,4.639
				c9.387,0,17.92-3.413,23.893-10.24c1.312-1.049,2.445-2.277,3.459-3.624l5.074,3.624c10.24,7.68,23.04,11.093,34.987,11.093
				c12.8,0,24.747-3.413,34.987-11.093l28.672-20.48h21.675c5.12,0,8.533-3.413,8.533-8.533
				C260.12,454.68,256.707,451.267,251.587,451.267z M92.013,375.32l14.507-20.48l14.507,20.48c10.24,14.507,10.24,34.987,0,49.493
				l-14.507,20.48l-14.507-20.48C81.773,410.307,81.773,389.827,92.013,375.32z M111.64,476.867c-5.973,6.827-17.067,6.827-23.893,0
				c-3.413-3.413-5.12-7.68-5.12-11.947s1.707-8.533,5.12-11.947c0-0.853,0.853-0.853,1.707-1.707l9.387,12.8
				c0,0.427,0.214,0.641,0.535,0.854c0.592,0.96,1.304,1.838,2.025,2.559l11.234,8.025
				C112.363,475.832,112.159,476.348,111.64,476.867z M191,475.16c-14.507,10.24-34.987,10.24-49.493,0l-11.103-7.865
				c-0.598-0.985-1.435-1.818-2.55-2.375c-0.853,0-0.853-0.853-1.707-0.853l-4.921-3.554l20.281-14.366
				c14.507-10.24,34.987-10.24,49.493,0l20.48,14.507L191,475.16z"/>
		</g>
	</g>
</g>
<g>
</g>
<g>
</g>
<g>
</g>
<g>
</g>
<g>
</g>
<g>
</g>
<g>
</g>
<g>
</g>
<g>
</g>
<g>
</g>
<g>
</g>
<g>
</g>
<g>
</g>
<g>
</g>
<g>
</g>
</svg>
