<?xml version="1.0" encoding="iso-8859-1"?>
<!-- Generator: Adobe Illustrator 19.0.0, SVG Export Plug-In . SVG Version: 6.00 Build 0)  -->
<svg version="1.1" id="Layer_1" xmlns="http://www.w3.org/2000/svg" xmlns:xlink="http://www.w3.org/1999/xlink" x="0px" y="0px"
	 viewBox="0 0 511.573 511.573" style="enable-background:new 0 0 511.573 511.573;" xml:space="preserve">
<g transform="translate(1 1)">
	<g>
		<g>
			<path d="M492.28,250.307l-32.442-64.885c-0.042-0.948-0.234-1.592-1.088-2.176l-0.603-1.206c-0.32-0.639-0.759-1.218-1.29-1.727
				l-49.91-99.82c-0.853-1.707-1.707-2.56-3.413-3.413L258.467,0.28c-2.56-1.707-5.12-1.707-7.68,0L105.72,77.08
				c-1.707,0.853-2.56,1.707-3.413,3.413l-51.2,102.4c-0.853,0.853-0.853,1.707-0.853,3.413L17.827,251.16
				c-2.56,4.267-0.853,9.387,3.413,11.093c0.853,0.853,2.56,0.853,3.413,0.853c3.413,0,5.973-1.707,7.68-4.267L50.253,223v279.04
				c0,5.12,3.413,8.533,8.533,8.533h93.867h102.4h102.4h93.867c5.12,0,8.533-3.413,8.533-8.533V222.147l17.92,35.84
				c1.707,3.413,4.267,5.12,7.68,5.12c1.707,0,2.56,0,3.413-1.707C492.28,259.693,493.987,254.573,492.28,250.307z M193.119,424.499
				l-31.933,48.033V376.6L193.119,424.499z M203.507,440.081l35.617,53.426h-71.135L203.507,440.081z M295.713,425.02
				l-32.126,47.784v-95.839L295.713,425.02z M246.52,473.453l-32.645-48.968l32.645-49.105V473.453z M306.092,440.546l35.407,52.961
				h-71.013L306.092,440.546z M316.513,425.046l32.407-48.203v96.678L316.513,425.046z M306.133,409.521l-35.13-52.548h70.459
				L306.133,409.521z M203.487,408.904l-34.62-51.93h69.144L203.487,408.904z M442.787,493.507h-76.8V348.44
				c0-5.12-3.413-8.533-8.533-8.533h-102.4h-102.4c-5.12,0-8.533,3.413-8.533,8.533v145.067h-76.8V188.628
				c0.112-0.371,0.197-0.743,0.253-1.115l49.241-97.632l138.24-73.387l138.24,73.387l49.493,98.133V493.507z"/>
			<path d="M374.52,246.04V135.107c0-5.12-3.413-8.533-8.533-8.533H144.12c-5.12,0-8.533,3.413-8.533,8.533V246.04h-16.213
				c-5.12,0-8.533,3.413-8.533,8.533s3.413,8.533,8.533,8.533h24.747h34.133h85.333h59.733h42.667h24.747
				c5.12,0,8.533-3.413,8.533-8.533s-3.413-8.533-8.533-8.533H374.52z M152.653,143.64h204.8v102.4H331v-25.6
				c0-34.987-23.893-49.493-47.787-58.88c-1.707-0.853-4.267-0.853-5.973,0c-17.637,7.349-36.528,17.239-44.162,37.825l-9.598-3.692
				c-1.707-0.853-4.267-0.853-5.973,0l-11.093,4.267c-19.516,7.506-33.084,25.577-36.069,46.08h-17.691V143.64z M213.24,216.173
				l7.68-3.413l7.68,2.56c1.389,0.608,2.722,1.282,4.02,1.993c0.533,0.548,1.174,1.03,1.953,1.42
				c2.297,1.225,4.422,2.706,6.375,4.382c0.198,0.174,0.398,0.346,0.593,0.523c0.343,0.308,0.675,0.627,1.007,0.947
				c0.338,0.328,0.674,0.657,1,0.995c0.346,0.36,0.685,0.729,1.017,1.103c0.189,0.211,0.38,0.42,0.565,0.634
				c4.506,5.301,7.61,11.833,9.033,18.723H187.64C190.2,232.387,199.587,221.293,213.24,216.173z M271.267,246.04
				c-1.707-15.36-10.24-29.013-23.04-38.4c4.267-11.947,13.653-21.333,32.427-29.013c24.747,10.24,34.133,22.187,34.133,41.813v25.6
				H271.267z"/>
		</g>
	</g>
</g>
<g>
</g>
<g>
</g>
<g>
</g>
<g>
</g>
<g>
</g>
<g>
</g>
<g>
</g>
<g>
</g>
<g>
</g>
<g>
</g>
<g>
</g>
<g>
</g>
<g>
</g>
<g>
</g>
<g>
</g>
</svg>
