<?xml version="1.0" encoding="iso-8859-1"?>
<!-- Generator: Adobe Illustrator 19.0.0, SVG Export Plug-In . SVG Version: 6.00 Build 0)  -->
<svg version="1.1" id="Layer_1" xmlns="http://www.w3.org/2000/svg" xmlns:xlink="http://www.w3.org/1999/xlink" x="0px" y="0px"
	 viewBox="0 0 512 512" style="enable-background:new 0 0 512 512;" xml:space="preserve">
<g transform="translate(1 1)">
	<g>
		<g>
			<path d="M502.467,459.8h-25.6V314.733h25.6c5.12,0,8.533-3.413,8.533-8.533c0-84.48-69.12-153.6-153.6-153.6
				s-153.6,69.12-153.6,153.6c0,5.12,3.413,8.533,8.533,8.533h25.6V459.8h-51.2V144.067v-34.133V92.867
				C186.733,40.813,144.92-1,92.867-1C40.813-1-1,40.813-1,92.867v17.067v34.133v324.267v34.133c0,5.12,3.413,8.533,8.533,8.533
				h494.933c5.12,0,8.533-3.413,8.533-8.533v-34.133C511,463.213,507.587,459.8,502.467,459.8z M357.4,169.667
				c72.533,0,132.267,56.32,136.533,128h-17.067c-4.192-61.202-54.512-109.221-116.159-110.885
				c-0.087-0.002-0.173-0.007-0.259-0.009c-1.013-0.025-2.029-0.039-3.049-0.039s-2.035,0.014-3.049,0.039
				c-0.087,0.002-0.173,0.007-0.259,0.009c-61.647,1.664-111.967,49.683-116.159,110.885h-17.067
				C225.133,225.987,284.867,169.667,357.4,169.667z M255,306.2c0-56.32,46.08-102.4,102.4-102.4s102.4,46.08,102.4,102.4v153.6
				h-59.733v-59.733c0-23.893-18.773-42.667-42.667-42.667s-42.667,18.773-42.667,42.667V459.8H255V306.2z M331.8,434.2h8.533
				c5.12,0,8.533-3.413,8.533-8.533s-3.413-8.533-8.533-8.533H331.8v-17.067c0-14.507,11.093-25.6,25.6-25.6s25.6,11.093,25.6,25.6
				V459.8h-51.2V434.2z M16.067,459.8V152.6h42.667v307.2H16.067z M169.667,135.533h-51.2h-51.2h-51.2v-17.067h153.6V135.533z
				 M75.8,314.733v-17.067h34.133v17.067H75.8z M109.933,331.8v17.067H75.8V331.8H109.933z M75.8,280.6v-17.067h34.133V280.6H75.8z
				 M75.8,246.467V229.4h34.133v17.067H75.8z M75.8,365.933h34.133V383H75.8V365.933z M109.933,212.333H75.8v-17.067h34.133V212.333
				z M75.8,400.067h34.133v17.067H75.8V400.067z M109.933,178.2H75.8v-25.6h34.133V178.2z M75.8,434.2h34.133v25.6H75.8V434.2z
				 M127,152.6h42.667v307.2H127V152.6z M16.067,92.867c0-42.667,34.133-76.8,76.8-76.8c42.667,0,76.8,34.133,76.8,76.8v8.533
				h-153.6V92.867z M493.933,493.933H16.067v-17.067h51.2h51.2H178.2h68.267h76.8h68.267h76.8h25.6V493.933z"/>
			<path d="M314.733,331.8h85.333c5.12,0,8.533-3.413,8.533-8.533V255c0-5.12-3.413-8.533-8.533-8.533h-85.333
				c-5.12,0-8.533,3.413-8.533,8.533v68.267C306.2,328.387,309.613,331.8,314.733,331.8z M323.267,263.533h68.267v51.2h-68.267
				V263.533z"/>
		</g>
	</g>
</g>
<g>
</g>
<g>
</g>
<g>
</g>
<g>
</g>
<g>
</g>
<g>
</g>
<g>
</g>
<g>
</g>
<g>
</g>
<g>
</g>
<g>
</g>
<g>
</g>
<g>
</g>
<g>
</g>
<g>
</g>
</svg>
