<?xml version="1.0" encoding="iso-8859-1"?>
<!-- Generator: Adobe Illustrator 19.0.0, SVG Export Plug-In . SVG Version: 6.00 Build 0)  -->
<svg version="1.1" id="Layer_1" xmlns="http://www.w3.org/2000/svg" xmlns:xlink="http://www.w3.org/1999/xlink" x="0px" y="0px"
	 viewBox="0 0 512 512" style="enable-background:new 0 0 512 512;" xml:space="preserve">
<g transform="translate(1 1)">
	<g>
		<g>
			<path d="M195.267,118.467c-42.667,0-76.8,34.133-76.8,76.8c0,5.12,3.413,8.533,8.533,8.533h136.533
				c5.12,0,8.533-3.413,8.533-8.533C272.067,152.6,237.933,118.467,195.267,118.467z M136.387,186.733
				c4.267-29.013,29.867-51.2,59.733-51.2c29.867,0,54.613,22.187,58.88,51.2H136.387z"/>
			<path d="M442.733-1c-37.547,0-68.267,30.72-68.267,68.267v47.865C343.806,46.694,275.096-1,195.267-1
				C86.893-1-1,86.893-1,195.267v307.2c0,5.12,3.413,8.533,8.533,8.533h34.133h51.2h204.8h51.2H383h119.467
				c5.12,0,8.533-3.413,8.533-8.533V229.4v-51.2v-34.133v-51.2v-25.6C511,29.72,480.28-1,442.733-1z M493.933,220.867h-51.2v-34.133
				h51.2V220.867z M493.933,135.533h-51.2V101.4h51.2V135.533z M340.333,493.933H306.2V297.667c0-5.117-3.41-8.529-8.526-8.533
				c-0.003,0-0.006,0-0.009,0H92.868c-0.003,0-0.006,0-0.009,0c-5.115,0.004-8.525,3.416-8.525,8.533v196.267H50.2V195.267
				C50.2,115.053,115.053,50.2,195.267,50.2s145.067,64.853,145.067,145.067V493.933z M195.267,388.12l-81.92-81.92h163.84
				L195.267,388.12z M289.133,318.147v163.84l-81.92-81.92L289.133,318.147z M183.32,400.067l-81.92,81.92v-163.84L183.32,400.067z
				 M195.267,412.013l81.92,81.92h-163.84L195.267,412.013z M195.267,33.133c-89.6,0-162.133,72.533-162.133,162.133v298.667H16.067
				V195.267c0-98.987,80.213-179.2,179.2-179.2s179.2,80.213,179.2,179.2v298.667H357.4V195.267
				C357.4,105.667,284.867,33.133,195.267,33.133z M391.533,493.933V195.267v-128c0-28.16,23.04-51.2,51.2-51.2
				c28.16,0,51.2,23.04,51.2,51.2v17.067H434.2c-5.12,0-8.533,3.413-8.533,8.533v51.2c0,5.12,3.413,8.533,8.533,8.533h59.733v17.067
				H434.2c-5.12,0-8.533,3.413-8.533,8.533v51.2c0,5.12,3.413,8.533,8.533,8.533h59.733v187.733h-25.6
				c-5.12,0-8.533,3.413-8.533,8.533s3.413,8.533,8.533,8.533h25.6V459.8h-25.6c-5.12,0-8.533,3.413-8.533,8.533
				s3.413,8.533,8.533,8.533h25.6v17.067H391.533z"/>
		</g>
	</g>
</g>
<g>
</g>
<g>
</g>
<g>
</g>
<g>
</g>
<g>
</g>
<g>
</g>
<g>
</g>
<g>
</g>
<g>
</g>
<g>
</g>
<g>
</g>
<g>
</g>
<g>
</g>
<g>
</g>
<g>
</g>
</svg>
