<?xml version="1.0" encoding="iso-8859-1"?>
<!-- Generator: Adobe Illustrator 19.0.0, SVG Export Plug-In . SVG Version: 6.00 Build 0)  -->
<svg version="1.1" id="Layer_1" xmlns="http://www.w3.org/2000/svg" xmlns:xlink="http://www.w3.org/1999/xlink" x="0px" y="0px"
	 viewBox="0 0 512 512" style="enable-background:new 0 0 512 512;" xml:space="preserve">
<g transform="translate(1 1)">
	<g>
		<g>
			<path d="M237.933,280.6h25.6h25.6c9.387,0,17.067-7.68,17.067-17.067v-51.2c0-9.387-7.68-17.067-17.067-17.067h-25.6h-25.6
				c-9.387,0-17.067,7.68-17.067,17.067v51.2C220.867,272.92,228.547,280.6,237.933,280.6z M289.133,263.533h-17.067v-51.2h17.067
				V263.533z M237.933,212.333H255v51.2h-17.067V212.333z"/>
			<path d="M101.4,280.6H127h25.6c9.387,0,17.067-7.68,17.067-17.067v-51.2c0-9.387-7.68-17.067-17.067-17.067H127h-25.6
				c-9.387,0-17.067,7.68-17.067,17.067v51.2C84.333,272.92,92.013,280.6,101.4,280.6z M152.6,263.533h-17.067v-51.2H152.6V263.533z
				 M101.4,212.333h17.067v51.2H101.4V212.333z"/>
			<path d="M508.44,377.027L388.973,266.093c-1.707-1.707-3.413-2.56-5.973-2.56h-42.667v-73.387l36.693,36.693
				c1.707,1.707,3.413,2.56,5.973,2.56s4.267-0.853,5.973-2.56c3.413-3.413,3.413-8.533,0-11.947l-49.74-49.74
				c-0.689-1.239-1.681-2.232-2.92-2.92L306.2,132.12V50.2h8.533c5.12,0,8.533-3.413,8.533-8.533V7.533
				c0-5.12-3.413-8.533-8.533-8.533h-68.267c-5.12,0-8.533,3.413-8.533,8.533v34.133c0,5.12,3.413,8.533,8.533,8.533H255v30.72
				l-53.76-53.76c-3.413-3.413-8.533-3.413-11.947,0L54.22,162.233c-1.239,0.689-2.232,1.681-2.92,2.92l-49.74,49.74
				c-3.413,3.413-3.413,8.533,0,11.947c1.707,1.707,3.413,2.56,5.973,2.56s4.267-0.853,5.973-2.56L50.2,190.147v312.32
				c0,5.12,3.413,8.533,8.533,8.533H152.6h85.333H331.8h42.667H459.8h42.667c5.12,0,8.533-3.413,8.533-8.533V383
				C511,381.293,510.147,378.733,508.44,377.027z M255,16.067h51.2v17.067h-8.533c-5.12,0-8.533,3.413-8.533,8.533v73.387
				l-17.067-17.067v-56.32c0-5.12-3.413-8.533-8.533-8.533H255V16.067z M195.267,45.08L311.32,161.133H79.213L195.267,45.08z
				 M67.267,178.2h256v93.867v221.867h-76.8V383c0-5.12-3.413-8.533-8.533-8.533H152.6c-5.12,0-8.533,3.413-8.533,8.533v110.933
				h-76.8V178.2z M161.133,493.933v-51.2H178.2c5.12,0,8.533-3.413,8.533-8.533s-3.413-8.533-8.533-8.533h-17.067v-34.133H229.4
				v102.4H161.133z M441.596,493.933h-48.213l24.107-28.928L441.596,493.933z M428.511,451.779l22.755-27.307v54.613
				L428.511,451.779z M417.489,438.552l-24.96-29.952h49.92L417.489,438.552z M406.467,451.779L383,479.939v-56.32L406.467,451.779z
				 M493.933,493.933h-25.6V403.41c0.774-2.058,0.542-4.351-0.479-6.428c-1.101-3.356-4.052-5.448-8.054-5.448h-83.047
				c-2.742-0.919-6.04-0.513-8.26,1.707c-2.616,1.962-3.719,5.926-2.56,9.209v91.485h-25.6V280.6h39.253l114.347,105.813V493.933z"
				/>
			<path d="M289.133,297.667h-17.067c-9.387,0-17.067,7.68-17.067,17.067V331.8c0,9.387,7.68,17.067,17.067,17.067h17.067
				c9.387,0,17.067-7.68,17.067-17.067v-17.067C306.2,305.347,298.52,297.667,289.133,297.667z M289.133,331.8h-17.067v-17.067
				h17.067V331.8z"/>
			<path d="M169.667,331.8c0,9.387,7.68,17.067,17.067,17.067H203.8c9.387,0,17.067-7.68,17.067-17.067v-17.067
				c0-9.387-7.68-17.067-17.067-17.067h-17.067c-9.387,0-17.067,7.68-17.067,17.067V331.8z M186.733,314.733H203.8V331.8h-17.067
				V314.733z"/>
			<path d="M118.467,297.667H101.4c-9.387,0-17.067,7.68-17.067,17.067V331.8c0,9.387,7.68,17.067,17.067,17.067h17.067
				c9.387,0,17.067-7.68,17.067-17.067v-17.067C135.533,305.347,127.853,297.667,118.467,297.667z M118.467,331.8H101.4v-17.067
				h17.067V331.8z"/>
		</g>
	</g>
</g>
<g>
</g>
<g>
</g>
<g>
</g>
<g>
</g>
<g>
</g>
<g>
</g>
<g>
</g>
<g>
</g>
<g>
</g>
<g>
</g>
<g>
</g>
<g>
</g>
<g>
</g>
<g>
</g>
<g>
</g>
</svg>
