<?xml version="1.0" encoding="iso-8859-1"?>
<!-- Generator: Adobe Illustrator 19.0.0, SVG Export Plug-In . SVG Version: 6.00 Build 0)  -->
<svg version="1.1" id="Layer_1" xmlns="http://www.w3.org/2000/svg" xmlns:xlink="http://www.w3.org/1999/xlink" x="0px" y="0px"
	 viewBox="0 0 512 512" style="enable-background:new 0 0 512 512;" xml:space="preserve">
<g transform="translate(1 1)">
	<g>
		<g>
			<path d="M483.419,155.311C449.944,63.19,356.246-1,255.038-1S60.133,63.19,26.658,155.311c-1.167,1.332-1.872,3.099-1.993,5.181
				c-0.134,0.64-0.134,1.281-0.027,1.921v340.053c0,5.12,3.413,8.533,8.533,8.533h119.467h102.4h102.4h119.467
				c5.12,0,8.533-3.413,8.533-8.533V161.133C485.439,158.771,484.705,156.779,483.419,155.311z M255.038,16.067
				c91.307,0,174.933,55.467,209.92,136.533H45.972C80.105,71.533,163.732,16.067,255.038,16.067z M295.572,434.2l-32,42.667
				v-85.333L295.572,434.2z M306.238,448.422l34.133,45.511h-68.267L306.238,448.422z M316.905,434.2l32-42.667v85.333
				L316.905,434.2z M306.238,419.978l-34.133-45.511h68.267L306.238,419.978z M246.505,493.933h-85.333V374.467h85.333V493.933z
				 M468.372,493.933h-102.4v-128c0-5.12-3.413-8.533-8.533-8.533h-102.4h-102.4c-5.12,0-8.533,3.413-8.533,8.533v128h-102.4
				V169.667h426.667V493.933z"/>
			<path d="M75.838,331.8h42.667h85.333h42.667h85.333h59.733h42.667c5.12,0,8.533-3.413,8.533-8.533V203.8
				c0-5.12-3.413-8.533-8.533-8.533h-358.4c-5.12,0-8.533,3.413-8.533,8.533v119.467C67.305,328.387,70.718,331.8,75.838,331.8z
				 M172.872,286.006c0.533,0.548,1.174,1.031,1.954,1.421c2.297,1.225,4.422,2.706,6.375,4.382
				c0.198,0.174,0.398,0.346,0.593,0.523c0.343,0.308,0.675,0.627,1.007,0.947c0.338,0.328,0.674,0.657,1,0.995
				c0.346,0.36,0.685,0.729,1.017,1.103c0.189,0.211,0.38,0.42,0.565,0.634c4.506,5.301,7.61,11.833,9.033,18.723h-66.523
				c2.56-13.653,11.947-24.747,25.6-29.867l7.68-3.413l7.68,2.56C170.241,284.621,171.574,285.295,172.872,286.006z
				 M281.492,284.867l7.68-3.413l7.68,2.56c1.389,0.608,2.722,1.282,4.02,1.993c0.533,0.548,1.174,1.031,1.954,1.421
				c2.297,1.225,4.422,2.706,6.375,4.382c0.198,0.174,0.398,0.346,0.593,0.523c0.343,0.308,0.675,0.627,1.007,0.947
				c0.338,0.328,0.674,0.657,1,0.995c0.346,0.36,0.685,0.729,1.017,1.103c0.189,0.211,0.38,0.42,0.565,0.634
				c4.506,5.301,7.61,11.833,9.033,18.723h-66.41c1.858-8.353,6.321-16.457,12.687-22.187c0.137-0.137,0.26-0.288,0.386-0.436
				C272.651,289.091,276.813,286.621,281.492,284.867z M237.972,314.733h-26.453c-1.707-15.36-10.24-29.867-23.04-38.4
				c3.413-12.8,13.653-21.333,32.427-29.013c21.333,8.533,31.573,18.773,33.28,34.987
				C245.652,291.693,239.678,302.787,237.972,314.733z M339.519,314.733c-1.707-15.36-10.24-29.013-23.04-38.4
				c4.267-11.947,13.653-21.333,32.427-29.013c24.747,10.24,34.133,22.187,34.133,41.813v25.6H339.519z M84.372,212.333h341.333
				v102.4h-26.453v-25.6c0-34.987-23.893-49.493-47.787-58.88c-1.707-0.853-4.267-0.853-5.973,0
				c-17.637,7.349-36.528,17.239-44.162,37.825l-9.598-3.692c-1.707-0.853-4.267-0.853-5.973,0l-11.093,4.267
				c-2.02,0.777-3.974,1.67-5.861,2.664c-6.772-22.349-26.051-33.206-45.339-41.064c-1.707-0.853-4.267-0.853-5.973,0
				c-17.637,7.349-36.528,17.239-44.162,37.825l-9.598-3.692c-1.707-0.853-4.267-0.853-5.973,0l-11.093,4.267
				c-19.516,7.506-33.084,25.577-36.069,46.08H84.372V212.333z"/>
		</g>
	</g>
</g>
<g>
</g>
<g>
</g>
<g>
</g>
<g>
</g>
<g>
</g>
<g>
</g>
<g>
</g>
<g>
</g>
<g>
</g>
<g>
</g>
<g>
</g>
<g>
</g>
<g>
</g>
<g>
</g>
<g>
</g>
</svg>
