<?xml version="1.0" encoding="iso-8859-1"?>
<!-- Generator: Adobe Illustrator 19.0.0, SVG Export Plug-In . SVG Version: 6.00 Build 0)  -->
<svg version="1.1" id="Layer_1" xmlns="http://www.w3.org/2000/svg" xmlns:xlink="http://www.w3.org/1999/xlink" x="0px" y="0px"
	 viewBox="0 0 512 512" style="enable-background:new 0 0 512 512;" xml:space="preserve">
<g transform="translate(1 1)">
	<g>
		<g>
			<path d="M476.867,109.08V67.267C476.867,29.72,446.147-1,408.6-1s-68.267,30.72-68.267,68.267v42.667v48.626
				c-25.142-14.628-54.303-23.026-85.333-23.026s-60.191,8.398-85.333,23.026v-48.626V67.267C169.667,29.72,138.947-1,101.4-1
				C63.853-1,33.133,29.72,33.133,67.267v41.813L-1,501.613c0,2.56,0.853,5.12,2.56,6.827c1.707,1.707,3.413,2.56,5.973,2.56H127
				h76.8h119.467H383h119.467c2.56,0,4.267-0.853,5.973-2.56c1.707-1.707,2.56-4.267,2.56-6.827L476.867,109.08z M357.4,67.267
				c0-28.16,23.04-51.2,51.2-51.2c28.16,0,51.2,23.04,51.2,51.2V101.4H357.4V67.267z M341.354,179.029
				c0.537,0.97,1.303,1.857,2.393,2.584c38.4,26.453,62.293,69.973,64.853,116.053h-17.067
				c-4.191-70.414-61.908-126-132.702-127.943c-0.116-0.003-0.231-0.01-0.348-0.013c-1.158-0.029-2.319-0.044-3.484-0.044
				s-2.326,0.016-3.484,0.044c-0.116,0.003-0.232,0.009-0.348,0.013c-70.507,1.935-128.035,57.082-132.641,127.09h-17.073
				c0.048-0.82,0.099-1.639,0.16-2.455c4.038-45.137,26.922-86.778,64.638-113.599c0.064-0.064,0.127-0.137,0.191-0.204
				C191.52,162.938,222.087,152.6,255,152.6C286.954,152.6,316.701,162.339,341.354,179.029z M50.2,67.267
				c0-28.16,23.04-51.2,51.2-51.2c28.16,0,51.2,23.04,51.2,51.2V101.4H50.2V67.267z M49.347,118.467H152.6v51.2
				c-15.182,11.538-28.189,25.354-38.664,40.776c-0.271,0.396-0.538,0.795-0.805,1.194c-0.456,0.683-0.911,1.367-1.357,2.056
				c-0.619,0.953-1.225,1.914-1.825,2.879c-0.134,0.217-0.273,0.432-0.406,0.649c-12.657,20.564-21.073,43.978-24.025,69.006
				c0,0.001,0,0.002,0,0.003c-0.179,1.518-0.337,3.041-0.476,4.571c-0.023,0.248-0.045,0.496-0.067,0.744
				c-0.111,1.291-0.207,2.586-0.289,3.884c-0.024,0.376-0.051,0.752-0.072,1.128c-0.069,1.219-0.121,2.443-0.164,3.669
				c-0.014,0.398-0.034,0.796-0.046,1.195c-0.044,1.588-0.071,3.18-0.071,4.779c0,5.12,3.413,8.533,8.533,8.533h25.6v179.2H16.92
				L49.347,118.467z M135.533,306.2c0-65.707,53.76-119.467,119.467-119.467s119.467,53.76,119.467,119.467v187.733H331.8v-93.867
				c0-5.12-3.413-8.533-8.533-8.533H203.8c-3.547,0-6.273,1.64-7.614,4.35c-1.508,2.074-1.715,4.589-0.919,6.947v91.103h-59.733
				V306.2z M263.107,440.539L225.844,408.6h74.524L263.107,440.539z M314.733,418.596v66.194l-38.613-33.097L314.733,418.596z
				 M250.093,451.693l-37.76,32.366v-64.731L250.093,451.693z M263.107,462.848l36.267,31.086H226.84L263.107,462.848z
				 M391.533,493.933v-179.2h25.6c5.12,0,8.533-3.413,8.533-8.533c0-1.598-0.027-3.191-0.071-4.779
				c-0.011-0.399-0.032-0.796-0.046-1.195c-0.043-1.226-0.095-2.449-0.164-3.669c-0.021-0.377-0.048-0.752-0.072-1.128
				c-0.082-1.299-0.177-2.593-0.289-3.884c-0.022-0.248-0.044-0.496-0.067-0.744c-0.138-1.529-0.297-3.053-0.476-4.571
				c0-0.001,0-0.002,0-0.003c-2.951-25.027-11.368-48.442-24.025-69.006c-0.134-0.218-0.272-0.433-0.407-0.65
				c-0.6-0.964-1.205-1.925-1.823-2.876c-0.447-0.691-0.904-1.377-1.361-2.063c-0.266-0.396-0.532-0.793-0.8-1.187
				c-10.476-15.424-23.484-29.24-38.667-40.779v-51.2h103.253l32.427,375.467H391.533z"/>
			<path d="M408.6,33.133c-18.773,0-34.133,15.36-34.133,34.133c0,5.12,3.413,8.533,8.533,8.533s8.533-3.413,8.533-8.533
				c0-9.387,7.68-17.067,17.067-17.067c5.12,0,8.533-3.413,8.533-8.533S413.72,33.133,408.6,33.133z"/>
			<path d="M101.4,33.133c-18.773,0-34.133,15.36-34.133,34.133c0,5.12,3.413,8.533,8.533,8.533s8.533-3.413,8.533-8.533
				c0-9.387,7.68-17.067,17.067-17.067c5.12,0,8.533-3.413,8.533-8.533S106.52,33.133,101.4,33.133z"/>
			<path d="M212.333,357.4h51.2h51.2H331.8c5.12,0,8.533-3.413,8.533-8.533s-3.413-8.533-8.533-8.533h-8.533V280.6
				c0-5.12-3.413-8.533-8.533-8.533h-51.2h-51.2c-5.12,0-8.533,3.413-8.533,8.533v59.733h-8.533c-5.12,0-8.533,3.413-8.533,8.533
				s3.413,8.533,8.533,8.533H212.333z M306.2,340.333h-34.133v-51.2H306.2V340.333z M220.867,289.133H255v51.2h-34.133V289.133z"/>
		</g>
	</g>
</g>
<g>
</g>
<g>
</g>
<g>
</g>
<g>
</g>
<g>
</g>
<g>
</g>
<g>
</g>
<g>
</g>
<g>
</g>
<g>
</g>
<g>
</g>
<g>
</g>
<g>
</g>
<g>
</g>
<g>
</g>
</svg>
