<?xml version="1.0" encoding="iso-8859-1"?>
<!-- Generator: Adobe Illustrator 19.0.0, SVG Export Plug-In . SVG Version: 6.00 Build 0)  -->
<svg version="1.1" id="Layer_1" xmlns="http://www.w3.org/2000/svg" xmlns:xlink="http://www.w3.org/1999/xlink" x="0px" y="0px"
	 viewBox="0 0 512 512" style="enable-background:new 0 0 512 512;" xml:space="preserve">
<g transform="translate(1 1)">
	<g>
		<g>
			<path d="M483.419,155.311C449.944,63.19,356.246-1,255.038-1S60.133,63.19,26.658,155.311c-1.167,1.332-1.872,3.099-1.993,5.181
				c-0.134,0.64-0.134,1.281-0.027,1.921v340.053c0,5.12,3.413,8.533,8.533,8.533h42.667h358.4h42.667
				c5.12,0,8.533-3.413,8.533-8.533V161.133C485.439,158.771,484.705,156.779,483.419,155.311z M255.038,16.067
				c91.307,0,174.933,55.467,209.92,136.533H45.972C80.105,71.533,163.732,16.067,255.038,16.067z M84.372,493.933v-6.194
				c1.932,2.194,4,4.262,6.194,6.194H84.372z M425.705,397.728c-12.535-14.233-30.859-23.261-51.2-23.261
				c-0.237,0-0.47,0.016-0.707,0.018c5.861-10.063,9.24-21.728,9.24-34.151c0-37.547-30.72-68.267-68.267-68.267
				c-25.627,0-48.064,14.316-59.733,35.341c-11.669-21.024-34.107-35.341-59.733-35.341c-37.547,0-68.267,30.72-68.267,68.267
				c0,12.423,3.379,24.088,9.24,34.151c-0.236-0.002-0.47-0.018-0.707-0.018c-20.341,0-38.665,9.028-51.2,23.261V203.8h341.333
				V397.728z M374.505,493.933c-28.16,0-51.2-23.04-51.2-51.2c0-16.346,7.772-30.955,19.793-40.346
				c4.163-1.915,8.105-4.233,11.772-6.911c6.055-2.535,12.688-3.943,19.635-3.943c28.16,0,51.2,23.04,51.2,51.2
				C425.705,470.893,402.665,493.933,374.505,493.933z M255.038,493.933c-28.16,0-51.2-23.04-51.2-51.2
				c0-16.346,7.772-30.955,19.793-40.346c4.163-1.915,8.105-4.233,11.772-6.911c6.055-2.535,12.688-3.943,19.635-3.943
				s13.58,1.407,19.635,3.943c3.667,2.678,7.609,4.996,11.772,6.911c12.021,9.391,19.793,24,19.793,40.346
				C306.238,470.893,283.198,493.933,255.038,493.933z M163.898,380.68c-12.021-9.391-19.793-24-19.793-40.346
				c0-28.16,23.04-51.2,51.2-51.2s51.2,23.04,51.2,51.2c0,16.346-7.772,30.955-19.793,40.346c-4.163,1.915-8.105,4.233-11.772,6.911
				c-6.055,2.536-12.688,3.943-19.635,3.943s-13.58-1.407-19.635-3.943C172.003,384.912,168.062,382.595,163.898,380.68z
				 M346.178,380.68c-4.163,1.915-8.105,4.233-11.772,6.911c-6.055,2.536-12.688,3.943-19.635,3.943s-13.58-1.407-19.635-3.943
				c-3.667-2.678-7.608-4.996-11.772-6.911c-12.021-9.391-19.793-24-19.793-40.346c0-28.16,23.04-51.2,51.2-51.2
				s51.2,23.04,51.2,51.2C365.972,356.679,358.2,371.289,346.178,380.68z M255.745,374.485c-0.236-0.002-0.47-0.018-0.707-0.018
				s-0.47,0.016-0.707,0.018c0.237-0.407,0.478-0.813,0.707-1.225C255.267,373.672,255.508,374.077,255.745,374.485z M195.305,408.6
				c0.237,0,0.47-0.016,0.707-0.018c-0.237,0.407-0.478,0.813-0.707,1.225c-0.229-0.413-0.469-0.818-0.707-1.225
				C194.835,408.584,195.068,408.6,195.305,408.6z M314.065,408.582c0.236,0.002,0.47,0.018,0.707,0.018s0.47-0.016,0.707-0.018
				c-0.237,0.407-0.478,0.813-0.707,1.225C314.543,409.395,314.302,408.989,314.065,408.582z M135.572,391.533
				c6.947,0,13.58,1.407,19.635,3.943c3.667,2.678,7.609,4.996,11.772,6.911c12.021,9.391,19.793,24,19.793,40.346
				c0,28.16-23.04,51.2-51.2,51.2c-28.16,0-51.2-23.04-51.2-51.2C84.372,414.573,107.412,391.533,135.572,391.533z M180.578,493.933
				c5.892-5.189,10.893-11.366,14.728-18.274c3.835,6.909,8.835,13.085,14.728,18.274H180.578z M300.044,493.933
				c5.892-5.189,10.893-11.366,14.728-18.274c3.835,6.909,8.835,13.085,14.728,18.274H300.044z M419.511,493.933
				c2.194-1.932,4.262-4,6.194-6.194v6.194H419.511z M468.372,493.933h-25.6V195.267c0-5.12-3.413-8.533-8.533-8.533h-358.4
				c-5.12,0-8.533,3.413-8.533,8.533v298.667h-25.6V169.667h426.667V493.933z"/>
			<path d="M109.972,451.267c5.12,0,8.533-3.413,8.533-8.533c0-9.387,7.68-17.067,17.067-17.067c5.12,0,8.533-3.413,8.533-8.533
				s-3.413-8.533-8.533-8.533c-18.773,0-34.133,15.36-34.133,34.133C101.439,447.853,104.852,451.267,109.972,451.267z"/>
			<path d="M203.838,314.733c0-5.12-3.413-8.533-8.533-8.533c-18.773,0-34.133,15.36-34.133,34.133c0,5.12,3.413,8.533,8.533,8.533
				s8.533-3.413,8.533-8.533c0-9.387,7.68-17.067,17.067-17.067C200.425,323.267,203.838,319.853,203.838,314.733z"/>
			<path d="M314.772,306.2c-18.773,0-34.133,15.36-34.133,34.133c0,5.12,3.413,8.533,8.533,8.533c5.12,0,8.533-3.413,8.533-8.533
				c0-9.387,7.68-17.067,17.067-17.067c5.12,0,8.533-3.413,8.533-8.533S319.892,306.2,314.772,306.2z"/>
			<path d="M255.038,408.6c-18.773,0-34.133,15.36-34.133,34.133c0,5.12,3.413,8.533,8.533,8.533c5.12,0,8.533-3.413,8.533-8.533
				c0-9.387,7.68-17.067,17.067-17.067c5.12,0,8.533-3.413,8.533-8.533S260.158,408.6,255.038,408.6z"/>
			<path d="M374.505,408.6c-18.773,0-34.133,15.36-34.133,34.133c0,5.12,3.413,8.533,8.533,8.533c5.12,0,8.533-3.413,8.533-8.533
				c0-9.387,7.68-17.067,17.067-17.067c5.12,0,8.533-3.413,8.533-8.533S379.625,408.6,374.505,408.6z"/>
		</g>
	</g>
</g>
<g>
</g>
<g>
</g>
<g>
</g>
<g>
</g>
<g>
</g>
<g>
</g>
<g>
</g>
<g>
</g>
<g>
</g>
<g>
</g>
<g>
</g>
<g>
</g>
<g>
</g>
<g>
</g>
<g>
</g>
</svg>
