<?xml version="1.0" encoding="iso-8859-1"?>
<!-- Generator: Adobe Illustrator 19.0.0, SVG Export Plug-In . SVG Version: 6.00 Build 0)  -->
<svg version="1.1" id="Layer_1" xmlns="http://www.w3.org/2000/svg" xmlns:xlink="http://www.w3.org/1999/xlink" x="0px" y="0px"
	 viewBox="0 0 511.573 511.573" style="enable-background:new 0 0 511.573 511.573;" xml:space="preserve">
<g transform="translate(1 1)">
	<g>
		<g>
			<path d="M510.295,169.24v-36.693c0-2.56-0.853-5.12-3.413-6.827L319.148,0.28c-2.56-1.707-6.827-1.707-9.387,0L122.028,125.72
				c-1.707,1.707-3.413,4.267-3.413,6.827v36.693c0,5.12,3.413,8.533,8.533,8.533h25.6v28.824L3.415,289.56
				c-2.56,1.707-4.267,4.267-4.267,7.68v204.8c0,5.12,3.413,8.533,8.533,8.533h51.2h51.2h51.2h85.333h68.267h68.267h85.333
				c5.12,0,8.533-3.413,7.68-8.533V177.773h26.453C507.735,177.773,511.148,174.36,510.295,169.24z M16.215,302.36l136.533-75.947
				v267.093h-34.133V382.573c0-5.12-3.413-8.533-8.533-8.533h-51.2c-5.12,0-8.533,3.413-8.533,8.533v110.933H16.215V302.36z
				 M67.415,493.507V450.84h8.533c5.12,0,8.533-3.413,8.533-8.533s-3.413-8.533-8.533-8.533h-8.533v-42.667h34.133v102.4H67.415z
				 M306.348,416.707h-8.533c-5.12,0-8.533,3.413-8.533,8.533s3.413,8.533,8.533,8.533h8.533v59.733h-51.2v-153.6h51.2V416.707z
				 M323.415,493.507v-59.733h8.533c5.12,0,8.533-3.413,8.533-8.533s-3.413-8.533-8.533-8.533h-8.533v-76.8h51.2v153.6H323.415z
				 M459.948,493.507h-68.267V331.373c0-5.12-3.413-8.533-8.533-8.533h-68.267h-68.267c-5.12,0-8.533,3.413-8.533,8.533v162.133
				h-68.267v-281.6V169.24v-4.267l145.067-96.427l145.067,96.427v4.267V493.507z M494.081,160.707h-17.067
				c0-2.56-1.707-5.12-4.267-6.827l-153.6-102.4c-2.56-1.707-6.827-1.707-9.387,0l-153.6,102.4
				c-1.707,1.707-3.413,4.267-3.413,6.827h-17.067v-23.893l179.2-119.467l179.2,119.467V160.707z"/>
			<path d="M417.281,177.773h-204.8c-5.12,0-8.533,3.413-8.533,8.533v102.4c0,5.12,3.413,8.533,8.533,8.533h34.133h85.333h51.2
				h34.133c5.12,0,8.533-3.413,8.533-8.533v-102.4C425.815,181.187,422.401,177.773,417.281,177.773z M306.9,242.366
				c0.298,0.678,0.682,1.337,1.155,1.968c9.432,10.218,14.509,22.611,15.253,35.84h-68.16c0.853-22.187,14.507-40.96,34.133-50.347
				C295.929,233.006,301.888,237.265,306.9,242.366z M340.481,280.173c-0.853-14.507-5.973-29.013-14.507-40.96
				c4.267-3.413,9.387-6.827,14.507-9.387c19.627,9.387,33.28,28.16,34.133,50.347H340.481z M408.748,280.173h-18.001
				c-1.301-30.117-19.744-55.9-47.706-67.413c-1.707-0.853-4.267-0.853-5.973,0c-8.336,3.206-16.19,7.859-22.839,13.956
				c-6.471-5.756-13.998-10.502-22.388-13.956c-1.707-0.853-4.267-0.853-5.973,0c-27.962,11.514-46.405,37.296-47.706,67.413
				h-17.147V194.84h187.733V280.173z"/>
		</g>
	</g>
</g>
<g>
</g>
<g>
</g>
<g>
</g>
<g>
</g>
<g>
</g>
<g>
</g>
<g>
</g>
<g>
</g>
<g>
</g>
<g>
</g>
<g>
</g>
<g>
</g>
<g>
</g>
<g>
</g>
<g>
</g>
</svg>
