<?xml version="1.0" encoding="iso-8859-1"?>
<!-- Generator: Adobe Illustrator 19.0.0, SVG Export Plug-In . SVG Version: 6.00 Build 0)  -->
<svg version="1.1" id="Layer_1" xmlns="http://www.w3.org/2000/svg" xmlns:xlink="http://www.w3.org/1999/xlink" x="0px" y="0px"
	 viewBox="0 0 512 512" style="enable-background:new 0 0 512 512;" xml:space="preserve">
<g transform="translate(1 1)">
	<g>
		<g>
			<path d="M391.64,84.333c-5.12,0-8.533,3.413-8.533,8.533c0,5.12,3.413,8.533,8.533,8.533c4.267,0,8.533-3.413,8.533-8.533
				C400.173,87.747,396.76,84.333,391.64,84.333z"/>
			<path d="M297.773,84.333c-5.12,0-8.533,3.413-8.533,8.533c0,5.12,3.413,8.533,8.533,8.533c4.267,0,8.533-3.413,8.533-8.533
				C306.307,87.747,302.893,84.333,297.773,84.333z"/>
			<path d="M220.973,84.333c-5.12,0-8.533,3.413-8.533,8.533c0,5.12,3.413,8.533,8.533,8.533c4.267,0,8.533-3.413,8.533-8.533
				C229.507,87.747,226.093,84.333,220.973,84.333z"/>
			<path d="M127.107,84.333c-5.12,0-8.533,3.413-8.533,8.533c0,5.12,3.413,8.533,8.533,8.533c4.267,0,8.533-3.413,8.533-8.533
				C135.64,87.747,132.227,84.333,127.107,84.333z"/>
			<path d="M391.64,408.6c-5.12,0-8.533,3.413-8.533,8.533s3.413,8.533,8.533,8.533c4.267,0,8.533-3.413,8.533-8.533
				S396.76,408.6,391.64,408.6z"/>
			<path d="M297.773,408.6c-5.12,0-8.533,3.413-8.533,8.533s3.413,8.533,8.533,8.533c4.267,0,8.533-3.413,8.533-8.533
				S302.893,408.6,297.773,408.6z"/>
			<path d="M220.973,408.6c-5.12,0-8.533,3.413-8.533,8.533s3.413,8.533,8.533,8.533c4.267,0,8.533-3.413,8.533-8.533
				S226.093,408.6,220.973,408.6z"/>
			<path d="M127.107,408.6c-5.12,0-8.533,3.413-8.533,8.533s3.413,8.533,8.533,8.533c4.267,0,8.533-3.413,8.533-8.533
				S132.227,408.6,127.107,408.6z"/>
			<path d="M453.933,138.093l-4.267-14.507c-0.536-1.073-1.157-2.061-1.889-2.912l-16.739-60.87c0.27-1.211,0.258-2.421-0.145-3.632
				l-14.507-51.2C414.68,1.56,412.12-1,407.853-1h-84.48h-0.853h-67.413H186.84h-85.333c-3.413,0-6.827,2.56-7.68,5.973
				l-13.86,48.918c-0.582,0.697-1.091,1.464-1.5,2.282L59.693,124.44c-0.206,0.617-0.307,1.284-0.327,1.964l-3.94,13.396
				c-19.627,72.533-19.627,152.747,0,231.253l4.267,14.507l18.773,68.267l14.507,51.2c1.707,3.413,5.12,5.973,8.533,5.973h85.333
				h68.267h67.413h0.853h84.48c4.267,0,7.68-2.56,8.533-5.973l14.507-51.2c0.385-1.154,0.408-2.479,0.177-3.746l17.527-63.733
				c0.404-0.751,0.765-1.58,1.07-2.495l4.267-14.507C474.413,295.96,474.413,215.747,453.933,138.093z M415.533,442.733h-78.507h0
				h-81.92h-82.773H93.827l-13.653-51.2h73.387h101.547H355.8h74.24L415.533,442.733z M246.573,493.933h-52.892L184.01,459.8h62.564
				V493.933z M160.387,374.467l-2.56-7.68c-18.773-69.12-18.773-154.453,0-222.72l2.667-8.533h86.08v238.933H160.387z
				 M349.274,135.533l2.259,7.68c18.773,69.12,18.773,154.453,0,222.72l-2.51,8.533H263.64V135.533H349.274z M355.8,117.613
				c-1.124,0-2.243,0.34-3.294,0.853h-97.399H80.173l13.653-51.2h78.507h82.773h81.92h78.507l14.265,50.347H355.8z M263.64,16.067
				h52.039L325.35,50.2h-61.71V16.067z M410.413,50.2h-65.692l-9.671-34.133h65.977L410.413,50.2z M246.573,50.2H184.28
				l8.917-32.427l0.484-1.707h52.892V50.2z M108.333,16.067h66.83L165.492,50.2H98.947L108.333,16.067z M72.493,144.92l2.56-8.533
				h66.711l-1.004,3.413c-19.627,70.827-19.627,159.573,0,231.253l1.004,3.413H75.053l-2.56-6.827
				C53.72,291.693,53.72,214.893,72.493,144.92z M98.947,459.8h66.546l9.671,34.133h-66.83L98.947,459.8z M263.64,459.8h61.71
				l-9.671,34.133H263.64V459.8z M401.027,493.933h-66.83l9.671-34.133h66.546L401.027,493.933z M436.867,365.933l-2.56,8.533
				h-66.962l1.255-4.267c19.627-69.973,19.627-161.28,0-231.253l-1.004-3.413h66.711l2.56,7.68
				c6.844,26.187,11.294,52.685,13.365,79.06c-2.327-0.91-4.804-1.407-7.392-1.407c-14.507,0-25.6,15.36-25.6,34.133
				c0,18.773,11.093,34.133,25.6,34.133c2.662,0,5.208-0.522,7.593-1.483C448.463,314.423,443.95,340.68,436.867,365.933z
				 M451.373,255c0,10.24-5.12,17.067-8.533,17.067s-8.533-6.827-8.533-17.067s5.12-17.067,8.533-17.067S451.373,244.76,451.373,255
				z"/>
		</g>
	</g>
</g>
<g>
</g>
<g>
</g>
<g>
</g>
<g>
</g>
<g>
</g>
<g>
</g>
<g>
</g>
<g>
</g>
<g>
</g>
<g>
</g>
<g>
</g>
<g>
</g>
<g>
</g>
<g>
</g>
<g>
</g>
</svg>
