<?xml version="1.0" encoding="iso-8859-1"?>
<!-- Generator: Adobe Illustrator 19.0.0, SVG Export Plug-In . SVG Version: 6.00 Build 0)  -->
<svg version="1.1" id="Layer_1" xmlns="http://www.w3.org/2000/svg" xmlns:xlink="http://www.w3.org/1999/xlink" x="0px" y="0px"
	 viewBox="0 0 512 512" style="enable-background:new 0 0 512 512;" xml:space="preserve">
<g>
	<g>
		<path d="M405.736,342.255h-13.388l-96.571-233.709l-0.019-36.118c0-5.632-4.566-10.199-10.199-10.199h-19.359v-15.47
			c0-5.632-4.566-10.199-10.199-10.199c-4.456,0-8.08-3.625-8.08-8.08c0-4.456,3.625-8.081,8.08-8.081s8.08,3.625,8.08,8.081
			c0,5.632,4.566,10.199,10.199,10.199c5.633,0,10.199-4.567,10.199-10.199C284.478,12.776,271.702,0,255.999,0
			s-28.478,12.776-28.478,28.479c0,12.109,7.6,22.471,18.279,26.582v7.167h-19.359c-5.633,0-10.199,4.567-10.199,10.199
			l-0.019,36.118l-96.57,233.709h-13.388c-5.633,0-10.199,4.567-10.199,10.199v45.893c0,5.632,4.566,10.199,10.199,10.199h0.34
			c10.808,28.857,29.568,53.718,54.589,72.236C188.789,501.205,221.572,512,255.999,512s67.211-10.795,94.808-31.218
			c25.022-18.518,43.781-43.379,54.589-72.236h0.34c5.633,0,10.199-4.567,10.199-10.199v-45.893
			C415.935,346.822,411.369,342.255,405.736,342.255z M236.64,82.627h38.718v14.266H236.64V82.627z M234.815,117.291h42.37
			l93.087,224.963H266.199V143.809c0-5.632-4.566-10.199-10.199-10.199c-5.633,0-10.199,4.567-10.199,10.199v198.445H141.728
			L234.815,117.291z M388.445,395.215c-18.6,57.651-71.826,96.387-132.446,96.387c-56.102,0-105.848-33.19-127.698-83.833h181.37
			c5.633,0,10.199-4.567,10.199-10.199c0-5.632-4.566-10.199-10.199-10.199h-193.21v-24.717h279.074v25.835h0.001
			C392.239,389.362,389.528,391.857,388.445,395.215z"/>
	</g>
</g>
<g>
	<g>
		<path d="M365.677,387.37h-24.113c-5.633,0-10.199,4.567-10.199,10.199s4.566,10.199,10.199,10.199h24.113
			c5.633,0,10.199-4.567,10.199-10.199S371.31,387.37,365.677,387.37z"/>
	</g>
</g>
<g>
</g>
<g>
</g>
<g>
</g>
<g>
</g>
<g>
</g>
<g>
</g>
<g>
</g>
<g>
</g>
<g>
</g>
<g>
</g>
<g>
</g>
<g>
</g>
<g>
</g>
<g>
</g>
<g>
</g>
</svg>
