<?xml version="1.0" encoding="iso-8859-1"?>
<!-- Generator: Adobe Illustrator 19.0.0, SVG Export Plug-In . SVG Version: 6.00 Build 0)  -->
<svg version="1.1" id="Layer_1" xmlns="http://www.w3.org/2000/svg" xmlns:xlink="http://www.w3.org/1999/xlink" x="0px" y="0px"
	 viewBox="0 0 511.999 511.999" style="enable-background:new 0 0 511.999 511.999;" xml:space="preserve">
<g>
	<g>
		<path d="M306.942,364.243H281.47c-5.632,0-10.199,4.566-10.199,10.199c0,5.633,4.567,10.199,10.199,10.199h25.473
			c5.633,0,10.199-4.566,10.199-10.199C317.141,368.809,312.574,364.243,306.942,364.243z"/>
	</g>
</g>
<g>
	<g>
		<path d="M119.727,315.848c-18.955,0-34.376-15.421-34.376-34.376c0-5.633-4.567-10.199-10.199-10.199s-10.199,4.566-10.199,10.199
			c0,30.203,24.572,54.775,54.775,54.775c5.632,0,10.199-4.566,10.199-10.199C129.926,320.414,125.359,315.848,119.727,315.848z"/>
	</g>
</g>
<g>
	<g>
		<path d="M439.394,271.272c-5.632,0-10.199,4.566-10.199,10.199c0,18.955-15.421,34.376-34.376,34.376
			c-5.632,0-10.199,4.566-10.199,10.199c0,5.633,4.567,10.199,10.199,10.199c30.204,0,54.775-24.572,54.775-54.775
			C449.593,275.838,445.026,271.272,439.394,271.272z"/>
	</g>
</g>
<g>
	<g>
		<path d="M458.321,216.405l-1.397-1.34c-15.288-14.093-52.905-31.855-111.891-52.825c-2.642-0.939-5.27-1.864-7.88-2.775
			c1.889-6.99,2.914-14.33,2.914-21.908c0-20.179-7.151-38.715-19.046-53.22c1.208-35.459,30.41-63.938,66.157-63.938
			c5.632,0,10.199-4.566,10.199-10.199C397.376,4.566,392.809,0,387.177,0c-41.254,0-75.84,28.999-84.503,67.678
			c-13.361-8.954-29.417-14.187-46.675-14.187s-33.314,5.233-46.675,14.188C200.661,28.999,166.075,0,124.821,0
			c-5.632,0-10.199,4.566-10.199,10.199c0,5.633,4.567,10.199,10.199,10.199c35.747,0,64.951,28.479,66.157,63.938
			c-11.894,14.505-19.046,33.042-19.046,53.22c0,7.578,1.025,14.918,2.914,21.908c-2.61,0.911-5.238,1.836-7.88,2.775
			c-60.872,21.64-98.987,39.864-113.289,54.165c-35.806,35.807-35.806,94.069,0,129.877c17.904,17.904,41.421,26.855,64.938,26.855
			c2.564,0,5.126-0.126,7.683-0.34c9.268,24.694,29.249,52.358,59.764,82.637c31.594,31.35,62.689,53.721,63.998,54.658
			c1.775,1.272,3.856,1.907,5.938,1.907c2.082,0,4.163-0.635,5.938-1.907c1.309-0.936,32.404-23.307,63.998-54.658
			c30.514-30.279,50.495-57.943,59.764-82.637c2.557,0.213,5.119,0.34,7.683,0.34c23.517,0,47.035-8.952,64.938-26.855
			C494.128,310.475,494.128,252.212,458.321,216.405z M255.999,73.889c35.107,0,63.669,28.561,63.669,63.669
			c0,34.664-29.079,63.566-63.669,63.669c-34.59,0.103-63.669-29.156-63.669-63.669C192.331,102.45,220.892,73.889,255.999,73.889z
			 M283.679,258.558c6.105,16.021,11.904,30.033,17.384,42.007h-90.125c5.479-11.974,11.278-25.987,17.383-42.007H283.679z
			 M235.869,238.16c0.614-1.705,1.23-3.424,1.849-5.166c1.5-4.221,2.965-8.408,4.391-12.537c4.521,0.755,9.157,1.168,13.889,1.168
			c4.732,0,9.368-0.413,13.889-1.168c1.426,4.129,2.891,8.315,4.391,12.537c0.619,1.742,1.235,3.462,1.849,5.166H235.869z
			 M121.031,352.69c-19.09,0.64-38.39-6.293-52.929-20.833c-27.854-27.854-27.854-73.175,0-101.028
			c15.102-15.102,66.574-35.729,114.446-52.444c8.96,16.055,23.024,28.881,39.988,36.272
			c-16.879,48.632-38.009,101.803-53.406,117.2c-8.133,8.133-17.76,13.873-28.002,17.256
			C134.604,351.269,127.833,352.462,121.031,352.69z M255.999,489.147c-13.676-10.268-32.978-26.17-51.885-44.646h103.772
			C288.977,462.976,269.674,478.879,255.999,489.147z M327.41,424.203c-0.447-0.06-0.9-0.102-1.364-0.102H184.508
			c-11.5-12.808-21.962-26.23-29.771-39.46h78.339c5.632,0,10.199-4.566,10.199-10.199c0-5.633-4.567-10.199-10.199-10.199h-75
			c9.22-4.369,17.861-10.344,25.479-17.962c5.247-5.247,11.024-13.713,17.302-25.318h110.286
			c6.278,11.606,12.055,20.072,17.302,25.318c10.691,10.691,23.39,18.164,36.888,22.471
			C357.726,386.952,343.595,406.19,327.41,424.203z M443.897,331.858c-14.539,14.54-33.839,21.472-52.929,20.833
			c-6.802-0.228-13.573-1.421-20.097-3.576c-10.242-3.383-19.869-9.123-28.002-17.256c-15.393-15.393-36.524-68.566-53.404-117.201
			c16.963-7.392,31.026-20.218,39.986-36.272c47.872,16.715,99.344,37.342,114.446,52.445
			C471.75,258.682,471.75,304.004,443.897,331.858z"/>
	</g>
</g>
<g>
</g>
<g>
</g>
<g>
</g>
<g>
</g>
<g>
</g>
<g>
</g>
<g>
</g>
<g>
</g>
<g>
</g>
<g>
</g>
<g>
</g>
<g>
</g>
<g>
</g>
<g>
</g>
<g>
</g>
</svg>
