<?xml version="1.0" encoding="iso-8859-1"?>
<!-- Generator: Adobe Illustrator 19.0.0, SVG Export Plug-In . SVG Version: 6.00 Build 0)  -->
<svg version="1.1" id="Layer_1" xmlns="http://www.w3.org/2000/svg" xmlns:xlink="http://www.w3.org/1999/xlink" x="0px" y="0px"
	 viewBox="0 0 512 512" style="enable-background:new 0 0 512 512;" xml:space="preserve">
<g>
	<g>
		<path d="M401.155,271.835v-31.67h79.175v-60.701c0-10.186-8.288-18.474-18.474-18.474h-60.701v-31.67h79.175V68.619
			c0-10.186-8.288-18.474-18.474-18.474H166.268v15.835h295.588c1.43,0,2.639,1.209,2.639,2.639v44.866H47.505V68.619
			c0-1.43,1.209-2.639,2.639-2.639h89.732V50.144H50.144c-10.186,0-18.474,8.288-18.474,18.474v60.701h79.175v31.67H50.144
			c-10.186,0-18.474,8.288-18.474,18.474v60.701h79.175v31.67H0v50.144c0,10.186,8.288,18.474,18.474,18.474h50.144v105.567H39.588
			v15.835h116.124v-15.835H126.68V324.619H18.474c-1.43,0-2.639-1.209-2.639-2.639V287.67h480.33v34.309
			c0,1.43-1.209,2.639-2.639,2.639H144.099v15.835H385.32v105.567h-29.031v15.835h116.124v-15.835h-29.031V340.454h50.144
			c10.186,0,18.474-8.288,18.474-18.474v-50.144H401.155z M84.454,340.454h26.392v105.567H84.454V340.454z M337.814,129.32h47.505
			v31.67h-47.505V129.32z M190.021,129.32h131.959v31.67H190.021V129.32z M126.68,129.32h47.505v31.67H126.68V129.32z
			 M47.505,224.33v-44.866c0-1.43,1.209-2.639,2.639-2.639h411.711c1.43,0,2.639,1.209,2.639,2.639v44.866H47.505z M174.186,271.835
			H126.68v-31.67h47.505V271.835z M321.979,271.835H190.021v-31.67h131.959V271.835z M385.32,271.835h-47.505v-31.67h47.505V271.835
			z M427.546,446.021h-26.392V340.454h26.392V446.021z"/>
	</g>
</g>
<g>
	<g>
		<rect x="65.979" y="81.814" width="26.392" height="15.835"/>
	</g>
</g>
<g>
	<g>
		<rect x="65.979" y="192.66" width="26.392" height="15.835"/>
	</g>
</g>
<g>
	<g>
		<rect x="419.629" y="81.814" width="26.392" height="15.835"/>
	</g>
</g>
<g>
	<g>
		<rect x="419.629" y="192.66" width="26.392" height="15.835"/>
	</g>
</g>
<g>
	<g>
		<rect x="139.876" y="192.66" width="232.247" height="15.835"/>
	</g>
</g>
<g>
	<g>
		<rect x="139.876" y="81.814" width="232.247" height="15.835"/>
	</g>
</g>
<g>
</g>
<g>
</g>
<g>
</g>
<g>
</g>
<g>
</g>
<g>
</g>
<g>
</g>
<g>
</g>
<g>
</g>
<g>
</g>
<g>
</g>
<g>
</g>
<g>
</g>
<g>
</g>
<g>
</g>
</svg>
