<?xml version="1.0" encoding="iso-8859-1"?>
<!-- Generator: Adobe Illustrator 19.0.0, SVG Export Plug-In . SVG Version: 6.00 Build 0)  -->
<svg version="1.1" id="Layer_1" xmlns="http://www.w3.org/2000/svg" xmlns:xlink="http://www.w3.org/1999/xlink" x="0px" y="0px"
	 viewBox="0 0 512 512" style="enable-background:new 0 0 512 512;" xml:space="preserve">
<g>
	<g>
		<path d="M490.911,230.496L263.21,2.983c-3.982-3.978-10.436-3.978-14.419,0L21.09,230.496c-2.918,2.916-3.793,7.304-2.214,11.116
			c1.578,3.811,5.297,6.298,9.423,6.298h77.962v253.891c0,5.632,4.567,10.199,10.199,10.199h279.08
			c5.632,0,10.199-4.567,10.199-10.199V247.91H483.7c4.126,0,7.845-2.487,9.423-6.298
			C494.704,237.799,493.829,233.412,490.911,230.496z M385.341,491.602H126.66V241.674l129.341-129.341l129.34,129.34V491.602z
			 M400.028,227.512L263.213,90.696c-3.984-3.982-10.44-3.982-14.425,0L111.974,227.512H52.937L256.001,24.617l203.064,202.895
			H400.028z"/>
	</g>
</g>
<g>
	<g>
		<path d="M378.463,157.625L272.389,51.64c-3.988-3.981-10.444-3.978-14.425,0.006c-3.981,3.986-3.978,10.444,0.006,14.425
			l106.075,105.985c1.992,1.989,4.6,2.984,7.209,2.984c2.611,0,5.223-0.997,7.215-2.99
			C382.45,168.063,382.447,161.605,378.463,157.625z"/>
	</g>
</g>
<g>
	<g>
		<path d="M420.278,199.405l-16.321-16.307c-3.988-3.983-10.444-3.978-14.425,0.006c-3.981,3.986-3.978,10.444,0.006,14.425
			l16.321,16.307c1.992,1.99,4.6,2.984,7.209,2.984c2.611,0,5.223-0.996,7.216-2.99
			C424.265,209.844,424.262,203.385,420.278,199.405z"/>
	</g>
</g>
<g>
	<g>
		<path d="M256.001,203.178c-41.681,0-75.59,33.91-75.59,75.591c0,41.681,33.909,75.59,75.59,75.59s75.59-33.91,75.59-75.591
			S297.682,203.178,256.001,203.178z M256.001,333.961c-30.433,0-55.192-24.759-55.192-55.192s24.759-55.192,55.192-55.192
			s55.192,24.759,55.192,55.192S286.434,333.961,256.001,333.961z"/>
	</g>
</g>
<g>
	<g>
		<path d="M256.001,392.347c-17.214,0-31.218,14.003-31.218,31.218c0,17.214,14.003,31.218,31.218,31.218
			s31.218-14.004,31.218-31.218C287.219,406.351,273.215,392.347,256.001,392.347z M256.001,434.384
			c-5.967,0-10.819-4.855-10.819-10.82s4.853-10.819,10.819-10.819c5.966,0,10.819,4.855,10.819,10.82
			S261.967,434.384,256.001,434.384z"/>
	</g>
</g>
<g>
	<g>
		<path d="M247.349,300.804c-2.466-0.968-4.742-2.341-6.762-4.08c-4.271-3.672-10.71-3.188-14.384,1.083
			c-3.672,4.271-3.188,10.71,1.083,14.384c3.76,3.235,8.001,5.792,12.602,7.599c1.225,0.48,2.486,0.709,3.727,0.709
			c4.07,0,7.918-2.455,9.497-6.472C255.172,308.784,252.591,302.864,247.349,300.804z"/>
	</g>
</g>
<g>
	<g>
		<path d="M256.001,234.707c-24.296,0-44.063,19.767-44.063,44.063c0,5.632,4.567,10.199,10.199,10.199
			c5.632,0,10.199-4.567,10.199-10.199c0-13.049,10.615-23.664,23.664-23.664c5.632,0,10.199-4.567,10.199-10.199
			C266.2,239.274,261.633,234.707,256.001,234.707z"/>
	</g>
</g>
<g>
</g>
<g>
</g>
<g>
</g>
<g>
</g>
<g>
</g>
<g>
</g>
<g>
</g>
<g>
</g>
<g>
</g>
<g>
</g>
<g>
</g>
<g>
</g>
<g>
</g>
<g>
</g>
<g>
</g>
</svg>
