<?xml version="1.0" encoding="iso-8859-1"?>
<!-- Generator: Adobe Illustrator 19.0.0, SVG Export Plug-In . SVG Version: 6.00 Build 0)  -->
<svg version="1.1" id="Layer_1" xmlns="http://www.w3.org/2000/svg" xmlns:xlink="http://www.w3.org/1999/xlink" x="0px" y="0px"
	 viewBox="0 0 512 512" style="enable-background:new 0 0 512 512;" xml:space="preserve">
<g>
	<g>
		<polygon points="256,43.215 90.937,208.278 90.937,390.232 107.173,390.232 107.173,371.291 169.41,371.291 169.41,355.055 
			145.056,355.055 145.056,260.347 128.82,260.347 128.82,355.055 107.173,355.055 107.173,219.758 293.883,219.758 
			293.883,203.522 118.654,203.522 256,66.176 404.827,215.003 404.827,355.055 383.18,355.055 383.18,260.347 366.944,260.347 
			366.944,355.055 342.59,355.055 342.59,371.291 404.827,371.291 404.827,389.945 421.063,389.945 421.063,208.278 		"/>
	</g>
</g>
<g>
	<g>
		<polygon points="255.92,0 60.843,195.076 72.325,206.556 256.08,22.799 445.17,206.637 456.488,194.996 		"/>
	</g>
</g>
<g>
	<g>
		<polygon points="47.642,403.762 47.642,463.293 126.117,463.293 126.117,447.057 63.878,447.057 63.878,419.998 448.122,419.998 
			448.122,447.057 287.372,447.057 276.548,495.764 235.453,495.764 228.237,463.293 261.412,463.293 261.412,447.057 
			147.759,447.057 147.759,463.293 211.605,463.293 222.429,512 289.572,512 300.396,463.293 464.358,463.293 464.358,403.762 		"/>
	</g>
</g>
<g>
	<g>
		<rect x="315.535" y="203.52" width="27.06" height="16.236"/>
	</g>
</g>
<g>
	<g>
		<path d="M256,246.817c-37.302,0-67.649,30.348-67.649,67.649c0,37.301,30.347,67.649,67.649,67.649
			c37.302,0,67.649-30.348,67.649-67.649S293.302,246.817,256,246.817z M256,365.879c-28.349,0-51.413-23.064-51.413-51.413
			c0-28.349,23.064-51.413,51.413-51.413s51.413,23.064,51.413,51.413C307.413,342.814,284.35,365.879,256,365.879z"/>
	</g>
</g>
<g>
	<g>
		<path d="M256,116.932c-19.397,0-35.177,15.781-35.177,35.177v24.354h70.355v-24.354C291.177,132.713,275.397,116.932,256,116.932z
			 M274.942,160.227h-37.883v-8.118c0-10.444,8.498-18.942,18.942-18.942c10.444,0,18.942,8.498,18.942,18.942V160.227z"/>
	</g>
</g>
<g>
	<g>
		<path d="M220.823,314.466h16.236c0-10.444,8.498-18.942,18.942-18.942v-16.236C236.603,279.289,220.823,295.07,220.823,314.466z"
			/>
	</g>
</g>
<g>
	<g>
		<path d="M274.942,314.466c0,10.445-8.497,18.942-18.942,18.942v16.236c19.397,0,35.177-15.781,35.177-35.177H274.942z"/>
	</g>
</g>
<g>
</g>
<g>
</g>
<g>
</g>
<g>
</g>
<g>
</g>
<g>
</g>
<g>
</g>
<g>
</g>
<g>
</g>
<g>
</g>
<g>
</g>
<g>
</g>
<g>
</g>
<g>
</g>
<g>
</g>
</svg>
