<?xml version="1.0" encoding="iso-8859-1"?>
<!-- Generator: Adobe Illustrator 19.0.0, SVG Export Plug-In . SVG Version: 6.00 Build 0)  -->
<svg version="1.1" id="Layer_1" xmlns="http://www.w3.org/2000/svg" xmlns:xlink="http://www.w3.org/1999/xlink" x="0px" y="0px"
	 viewBox="0 0 512 512" style="enable-background:new 0 0 512 512;" xml:space="preserve">
<g>
	<g>
		<path d="M495.867,376.148H320.65c-2.524-7.084-6.695-19.752-10.087-34.743c0.924-5.746,5.511-18.383,26.467-35.147
			c23.121-18.497,42.836-21.813,52.528-22.143l63.95,0.056c0.008,0,0.017,0,0.026,0c17.054,0,30.929-13.875,30.929-30.929
			c0-16.115-12.39-29.391-28.144-30.804c-5.744-7.799-14.912-12.562-24.897-12.562c-0.619,0-1.237,0.019-1.854,0.056
			c-5.616-4.478-12.616-6.966-19.912-6.966c-14.226,0-26.3,9.138-30.439,22.143c-6.773,3.115-12.265,8.632-15.355,15.41
			c-14.058,2.618-31.588,7.047-49.443,14.515c2.251-3.713,4.898-6.96,7.932-9.725c44.911-40.918,53.648-52.266,44.116-79.503
			c-4.375-12.5-16.145-35.772-25.201-53.008h10.394c22.992,0,41.698-18.706,41.698-41.698c0-17.396-10.844-32.758-26.619-38.881
			C361.857,13.429,344.953,0,324.885,0c-10.57,0-20.682,3.858-28.529,10.747c-1.507-0.164-3.024-0.247-4.545-0.247
			c-14.289,0-27.337,7.235-34.941,18.921c-22.374,0.711-40.356,19.134-40.356,41.677c0,22.992,18.705,41.698,41.698,41.698h18.83
			c1.035,4.148,2.376,8.889,3.828,14.017c3.46,12.223,7.765,27.434,8.289,36.874c0.124,2.242-0.843,9.042-12.494,23.738
			c-8.278,10.442-18.905,21.039-26.665,28.777l-2.254,2.249c-7.309,7.309-11.825,12.238-21.157,23.25
			c-6.618-2.21-17.585-8.397-31.252-25.48c-15.093-18.866-20.031-35.487-21.548-45.927h4.289c20.76,0,37.651-16.89,37.651-37.65
			c0-20.127-15.873-36.616-35.759-37.604c-6.916-10.219-18.504-16.518-31.173-16.518c-1.18,0-2.359,0.056-3.531,0.165
			c-7.013-5.976-15.955-9.316-25.293-9.316c-17.868,0-32.955,11.808-37.571,28.413c-13.906,5.687-23.414,19.383-23.414,34.86
			c0,20.76,16.89,37.65,37.651,37.65h30.103c2.753,25.33,12.527,78.14,46.983,116.602c3.696,4.126,7.288,7.561,10.83,10.348
			c-17.91,31.651-25.4,63.844-28.138,78.903H16.133c-5.633,0-10.199,4.567-10.199,10.199v13.095
			C5.934,461.507,56.427,512,118.492,512h275.015c62.065,0,112.558-50.494,112.558-112.558v-13.095
			C506.066,380.715,501.5,376.148,495.867,376.148z M381.684,251.307c0.774-4.192,4.102-7.566,8.283-8.393
			c4.434-0.878,7.76-4.568,8.175-9.07c0.551-5.976,5.5-10.482,11.513-10.482c3.369,0,6.566,1.471,8.773,4.037
			c2.541,2.954,6.54,4.202,10.312,3.217c0.872-0.228,1.775-0.344,2.681-0.344c4.243,0,8.053,2.525,9.707,6.434
			c1.807,4.272,6.272,6.784,10.864,6.118c6.435-0.942,12.071,4.104,12.071,10.416c0,5.803-4.719,10.527-10.523,10.531l-63.269-0.16
			c-5.033-0.841-8.768-5.215-8.768-10.371C381.504,252.604,381.564,251.955,381.684,251.307z M258.212,92.398
			c-11.744,0-21.3-9.555-21.3-21.3c0-11.745,9.556-21.3,21.3-21.3c1.02,0,2.066,0.076,3.111,0.229
			c4.595,0.668,9.052-1.848,10.859-6.12c3.343-7.902,11.049-13.009,19.629-13.009c1.833,0,3.653,0.234,5.411,0.694
			c3.773,0.988,7.775-0.261,10.315-3.216c4.36-5.07,10.684-7.978,17.348-7.978c11.892,0,21.681,8.916,22.771,20.74
			c0.414,4.5,3.741,8.191,8.175,9.07c9.926,1.966,17.13,10.751,17.13,20.889c0,11.745-9.556,21.3-21.3,21.3H258.212z
			 M96.637,149.894v0.002c-9.513,0-17.253-7.739-17.253-17.252c0-8.212,5.834-15.327,13.872-16.919
			c4.434-0.878,7.76-4.568,8.175-9.07c0.886-9.626,8.857-16.886,18.54-16.886c5.426,0,10.573,2.367,14.124,6.496
			c2.542,2.956,6.545,4.205,10.318,3.217c1.426-0.373,2.901-0.563,4.384-0.563c6.95,0,13.192,4.137,15.9,10.539
			c1.807,4.271,6.27,6.787,10.859,6.118c10.646-1.547,19.776,6.729,19.775,17.066c0,9.513-7.739,17.252-17.253,17.252H96.637z
			 M206.996,299.453c1.56-2.466,1.99-5.483,1.179-8.287c-0.811-2.804-2.783-5.126-5.42-6.38c-4.085-1.941-8.741-5.81-13.839-11.502
			c-29.729-33.184-38.87-80.468-41.619-102.991h5.971c1.496,13.113,7.094,34.863,26.14,58.67
			c20.855,26.07,38.676,32.957,49.954,34.145c3.363,0.347,6.694-0.987,8.873-3.579c11.692-13.905,16.167-18.887,23.935-26.655
			l2.233-2.23c23.447-23.381,46.245-47.896,45.123-68.091c-0.65-11.692-5.101-27.422-9.028-41.298
			c-0.829-2.928-1.641-5.798-2.367-8.462h20.049c8.025,15.014,24.169,45.84,29.036,59.747c4.827,13.794,5.975,17.071-38.601,57.687
			c-11.437,10.421-18.886,24.986-22.138,43.292c-0.697,3.919,0.952,7.886,4.22,10.158c3.27,2.273,7.563,2.436,10.993,0.416
			c20.384-11.993,42.556-18.681,60.218-22.397c0.635,2.264,1.523,4.428,2.631,6.457c-11.604,3.706-25.491,10.363-40.251,22.173
			c-26.566,21.252-33.273,39.331-34.221,50.756c-0.085,1.016-0.016,2.038,0.203,3.033c2.766,12.583,6.047,23.641,8.71,31.736
			H177.266C180.584,359.505,188.813,328.184,206.996,299.453z M393.508,491.602H118.492c-50.818,0-92.16-41.342-92.16-92.16v-2.896
			h459.334v2.896h0.001C485.668,450.259,444.325,491.602,393.508,491.602z"/>
	</g>
</g>
<g>
	<g>
		<path d="M311.448,411.159H58.254c-5.633,0-10.199,4.567-10.199,10.199c0,5.632,4.566,10.199,10.199,10.199h253.194
			c5.633,0,10.199-4.567,10.199-10.199C321.647,415.727,317.081,411.159,311.448,411.159z"/>
	</g>
</g>
<g>
	<g>
		<path d="M393.155,411.159h-33.288c-5.633,0-10.199,4.567-10.199,10.199c0,5.632,4.566,10.199,10.199,10.199h33.288
			c5.633,0,10.199-4.567,10.199-10.199C403.354,415.727,398.788,411.159,393.155,411.159z"/>
	</g>
</g>
<g>
	<g>
		<path d="M234.063,295.65c-4.8-2.943-11.08-1.44-14.026,3.362c-15.93,25.973-23.892,50.621-24.223,51.657
			c-1.713,5.364,1.244,11.097,6.607,12.813c1.034,0.33,2.081,0.489,3.111,0.489c4.314,0,8.324-2.761,9.712-7.088
			c0.074-0.232,7.598-23.429,22.182-47.205C240.37,304.876,238.864,298.596,234.063,295.65z"/>
	</g>
</g>
<g>
</g>
<g>
</g>
<g>
</g>
<g>
</g>
<g>
</g>
<g>
</g>
<g>
</g>
<g>
</g>
<g>
</g>
<g>
</g>
<g>
</g>
<g>
</g>
<g>
</g>
<g>
</g>
<g>
</g>
</svg>
