<?xml version="1.0" encoding="iso-8859-1"?>
<!-- Generator: Adobe Illustrator 19.0.0, SVG Export Plug-In . SVG Version: 6.00 Build 0)  -->
<svg version="1.1" id="Layer_1" xmlns="http://www.w3.org/2000/svg" xmlns:xlink="http://www.w3.org/1999/xlink" x="0px" y="0px"
	 viewBox="0 0 512 512" style="enable-background:new 0 0 512 512;" xml:space="preserve">
<g>
	<g>
		<rect x="239.66" y="245.106" width="27.234" height="16.34"/>
	</g>
</g>
<g>
	<g>
		<path d="M459.393,464.772c-4.021-8.042-8.004-14.601-10.031-17.811v-46.62c0-58.566-47.646-106.213-106.213-106.213h-35.404
			V76.255h13.617c10.511,0,19.064-8.553,19.064-19.064V0H136.167v16.34h187.918v40.851c0,1.476-1.247,2.723-2.723,2.723H59.915
			c-1.476,0-2.723-1.247-2.723-2.723V16.34h57.187V0H40.851v57.192c0,10.511,8.553,19.064,19.064,19.064h13.617v371.532L47.847,512
			h257.177v-16.34H71.983l15.251-38.128H436.71c5.41,8.8,14.117,24.914,17.078,38.128H332.256V512h138.893v-8.17
			C471.149,493.515,467.193,480.374,459.393,464.772z M89.872,76.255h201.532v32.681H89.872V76.255z M220.596,441.191H89.872V392.17
			h46.298v-16.34H89.872v-27.234h67.974c2.835,0.138,2.835,1.571,2.835,2.723v43.574c0,7.664,5.076,19.064,19.064,19.064h38.128
			c2.723,0,2.723,1.909,2.723,2.723V441.191z M433.021,441.191H236.936v-24.511c0-13.986-11.401-19.064-19.064-19.064h-38.128
			c-1.153,0-2.585,0-2.723-2.834v-43.463c0-13.986-11.401-19.064-19.064-19.064H89.872v-70.808h128v-16.34h-128v-119.83h201.532
			v168.851H157.957v16.34h185.191c49.555,0,89.872,40.316,89.872,89.872V441.191z"/>
	</g>
</g>
<g>
	<g>
		<rect x="114.383" y="141.617" width="21.787" height="16.34"/>
	</g>
</g>
<g>
	<g>
		<rect x="147.064" y="141.617" width="21.787" height="16.34"/>
	</g>
</g>
<g>
	<g>
		<rect x="179.745" y="141.617" width="21.787" height="16.34"/>
	</g>
</g>
<g>
	<g>
		<rect x="212.426" y="141.617" width="21.787" height="16.34"/>
	</g>
</g>
<g>
	<g>
		<rect x="245.106" y="141.617" width="21.787" height="16.34"/>
	</g>
</g>
<g>
	<g>
		<rect x="103.489" y="408.511" width="21.787" height="16.34"/>
	</g>
</g>
<g>
</g>
<g>
</g>
<g>
</g>
<g>
</g>
<g>
</g>
<g>
</g>
<g>
</g>
<g>
</g>
<g>
</g>
<g>
</g>
<g>
</g>
<g>
</g>
<g>
</g>
<g>
</g>
<g>
</g>
</svg>
