<?xml version="1.0" encoding="iso-8859-1"?>
<!-- Generator: Adobe Illustrator 19.0.0, SVG Export Plug-In . SVG Version: 6.00 Build 0)  -->
<svg version="1.1" id="Layer_1" xmlns="http://www.w3.org/2000/svg" xmlns:xlink="http://www.w3.org/1999/xlink" x="0px" y="0px"
	 viewBox="0 0 512 512" style="enable-background:new 0 0 512 512;" xml:space="preserve">
<g>
	<g>
		<path d="M512,163.629V21.113H134.596v15.835h361.569v110.845H15.835V36.948h97.648V21.113H0v142.515h21.113v21.113H0v142.516
			h21.113v21.113H0v142.515h287.675v-15.835H15.835V364.206h480.33v110.845H308.782v15.835H512V348.371h-21.113v-21.113H512V184.742
			h-21.113v-21.113H512z M348.371,163.629h126.68v21.113h-126.68V163.629z M36.948,163.629h126.68v21.113H36.948V163.629z
			 M163.629,348.371H36.948v-21.113h126.68V348.371z M332.536,348.371H179.464v-21.113h153.072V348.371z M475.052,348.371h-126.68
			v-21.113h126.68V348.371z M496.165,200.577v110.845H15.835V200.577h208.496v-15.835h-44.867v-21.113h153.072v21.113h-87.092
			v15.835H496.165z"/>
	</g>
</g>
<g>
	<g>
		<rect x="34.309" y="52.784" width="21.113" height="15.835"/>
	</g>
</g>
<g>
	<g>
		<rect x="456.577" y="52.784" width="21.113" height="15.835"/>
	</g>
</g>
<g>
	<g>
		<rect x="456.577" y="116.124" width="21.113" height="15.835"/>
	</g>
</g>
<g>
	<g>
		<rect x="34.309" y="116.124" width="21.113" height="15.835"/>
	</g>
</g>
<g>
	<g>
		<rect x="34.309" y="216.412" width="21.113" height="15.835"/>
	</g>
</g>
<g>
	<g>
		<rect x="456.577" y="216.412" width="21.113" height="15.835"/>
	</g>
</g>
<g>
	<g>
		<rect x="456.577" y="279.753" width="21.113" height="15.835"/>
	</g>
</g>
<g>
	<g>
		<rect x="34.309" y="279.753" width="21.113" height="15.835"/>
	</g>
</g>
<g>
	<g>
		<rect x="34.309" y="380.041" width="21.113" height="15.835"/>
	</g>
</g>
<g>
	<g>
		<rect x="456.577" y="380.041" width="21.113" height="15.835"/>
	</g>
</g>
<g>
	<g>
		<rect x="456.577" y="443.381" width="21.113" height="15.835"/>
	</g>
</g>
<g>
	<g>
		<rect x="34.309" y="443.381" width="21.113" height="15.835"/>
	</g>
</g>
<g>
	<g>
		<rect x="87.093" y="68.619" width="232.247" height="15.835"/>
	</g>
</g>
<g>
	<g>
		<rect x="340.454" y="68.619" width="26.392" height="15.835"/>
	</g>
</g>
<g>
	<g>
		<rect x="192.66" y="100.289" width="211.134" height="15.835"/>
	</g>
</g>
<g>
	<g>
		<rect x="171.546" y="258.639" width="232.247" height="15.835"/>
	</g>
</g>
<g>
	<g>
		<rect x="124.041" y="258.639" width="26.392" height="15.835"/>
	</g>
</g>
<g>
	<g>
		<rect x="87.093" y="226.969" width="211.134" height="15.835"/>
	</g>
</g>
<g>
	<g>
		<rect x="87.093" y="395.876" width="232.247" height="15.835"/>
	</g>
</g>
<g>
	<g>
		<rect x="340.454" y="395.876" width="26.392" height="15.835"/>
	</g>
</g>
<g>
	<g>
		<rect x="192.66" y="427.546" width="211.134" height="15.835"/>
	</g>
</g>
<g>
</g>
<g>
</g>
<g>
</g>
<g>
</g>
<g>
</g>
<g>
</g>
<g>
</g>
<g>
</g>
<g>
</g>
<g>
</g>
<g>
</g>
<g>
</g>
<g>
</g>
<g>
</g>
<g>
</g>
</svg>
