<?xml version="1.0" encoding="iso-8859-1"?>
<!-- Generator: Adobe Illustrator 19.0.0, SVG Export Plug-In . SVG Version: 6.00 Build 0)  -->
<svg version="1.1" id="Layer_1" xmlns="http://www.w3.org/2000/svg" xmlns:xlink="http://www.w3.org/1999/xlink" x="0px" y="0px"
	 viewBox="0 0 512 512" style="enable-background:new 0 0 512 512;" xml:space="preserve">
<g>
	<g>
		<path d="M73.527,141.609v70.833h16.341V512h332.265V212.443h16.34v-70.833H73.527z M405.765,495.632H106.236v-27.204h299.529
			V495.632z M405.765,452.06H106.236V266.908h209.675V250.54H106.236v-38.097h299.529V452.06z M422.104,196.075H89.895v-38.097
			h332.208V196.075z"/>
	</g>
</g>
<g>
	<g>
		<path d="M370.376,0H141.624c-10.519,0-19.076,8.558-19.076,19.076V59.94h32.679v68.068h16.367V59.94h168.813v68.067h16.368V59.94
			h32.678V19.076C389.453,8.557,380.894,0,370.376,0z M373.085,43.572H138.913V19.076h0.001c0-1.469,1.241-2.708,2.708-2.708
			h228.754c1.469,0,2.708,1.241,2.708,2.708V43.572z"/>
	</g>
</g>
<g>
	<g>
		<rect x="343.139" y="250.54" width="32.678" height="16.368"/>
	</g>
</g>
<g>
	<g>
		<polygon points="122.546,283.218 122.546,362.207 138.914,362.207 138.914,299.586 168.857,299.586 168.857,283.218 		"/>
	</g>
</g>
<g>
	<g>
		<rect x="122.542" y="378.548" width="16.368" height="27.233"/>
	</g>
</g>
<g>
</g>
<g>
</g>
<g>
</g>
<g>
</g>
<g>
</g>
<g>
</g>
<g>
</g>
<g>
</g>
<g>
</g>
<g>
</g>
<g>
</g>
<g>
</g>
<g>
</g>
<g>
</g>
<g>
</g>
</svg>
