<?xml version="1.0" encoding="iso-8859-1"?>
<!-- Generator: Adobe Illustrator 19.0.0, SVG Export Plug-In . SVG Version: 6.00 Build 0)  -->
<svg version="1.1" id="Layer_1" xmlns="http://www.w3.org/2000/svg" xmlns:xlink="http://www.w3.org/1999/xlink" x="0px" y="0px"
	 viewBox="0 0 512 512" style="enable-background:new 0 0 512 512;" xml:space="preserve">
<g>
	<g>
		<path d="M512,202.442c0-65.369-53.182-118.549-118.549-118.549c-40.777,0-76.81,20.696-98.151,52.134v-12.216
			c0-6.01-1.361-11.707-3.783-16.805c0.043-0.377,0.069-0.76,0.069-1.149c0-38.758,31.532-70.29,70.289-70.29
			c5.632,0,10.199-4.566,10.199-10.199c0-5.633-4.567-10.199-10.199-10.199c-44.012,0-80.796,31.518-88.982,73.166
			c-5.12-2.448-10.848-3.822-16.891-3.822c-6.043,0-11.771,1.374-16.891,3.822c-8.187-41.648-44.971-73.166-88.983-73.166
			c-5.633,0-10.199,4.566-10.199,10.199c0,5.633,4.566,10.199,10.199,10.199c38.758,0,70.29,31.532,70.29,70.29
			c0,0.389,0.026,0.771,0.068,1.148c-2.422,5.099-3.784,10.796-3.784,16.806v12.216c-21.341-31.438-57.375-52.134-98.151-52.134
			C53.182,83.893,0,137.074,0,202.442c0,51.798,33.406,96.256,80.273,112.231c-8.589,5.946-16.269,13.224-22.639,21.561
			c-13.401,17.536-20.484,38.499-20.484,60.621c0,55.127,44.849,99.976,99.975,99.976c32.437,0,61.309-15.531,79.586-39.543
			c0.203,21.496,17.746,38.923,39.289,38.923c21.544,0,39.086-17.427,39.289-38.923c18.277,24.012,47.15,39.542,79.586,39.542
			c55.127,0,99.976-44.849,99.976-99.976c0-22.122-7.083-43.085-20.484-60.621c-6.371-8.337-14.051-15.615-22.64-21.561
			C478.594,298.698,512,254.24,512,202.442z M216.7,396.855c0.001,43.878-35.697,79.576-79.576,79.576
			c-43.878,0-79.576-35.698-79.576-79.577c0-35.254,23.645-66.692,57.5-76.45c4.776-1.377,7.865-5.996,7.311-10.936
			c-0.554-4.939-4.588-8.761-9.549-9.047c-51.819-2.983-92.411-46.021-92.411-97.979c0-54.12,44.03-98.151,98.151-98.151
			c54.121,0,98.151,44.03,98.151,98.151V396.855z M237.099,123.811c0-10.422,8.479-18.9,18.9-18.9c10.422,0,18.9,8.479,18.9,18.9
			v148.922h-37.8V123.811z M237.099,293.131H274.9v21.704h-37.801V293.131z M274.901,456.911c-0.001,10.422-8.48,18.9-18.901,18.9
			s-18.9-8.479-18.9-18.9v-36.237h37.801V456.911z M274.901,396.854v3.422H237.1v-3.422v-18.281h37.801V396.854z M274.901,358.175
			H237.1v-22.942h37.801V358.175z M399.191,300.422c-4.962,0.286-8.996,4.107-9.549,9.047c-0.554,4.939,2.534,9.559,7.311,10.936
			c33.855,9.759,57.501,41.196,57.501,76.45c0,43.879-35.698,79.577-79.577,79.577c-43.878,0-79.576-35.698-79.576-79.577V202.442
			c0-54.12,44.031-98.151,98.151-98.151s98.15,44.03,98.15,98.151C491.602,254.4,451.01,297.438,399.191,300.422z"/>
	</g>
</g>
<g>
	<g>
		<path d="M393.451,121.661c-5.632,0-10.199,4.566-10.199,10.199c0,5.633,4.567,10.199,10.199,10.199
			c33.296,0,60.383,27.088,60.383,60.383c0,5.633,4.567,10.199,10.199,10.199c5.632,0,10.199-4.566,10.199-10.199
			C474.232,157.899,437.993,121.661,393.451,121.661z"/>
	</g>
</g>
<g>
	<g>
		<path d="M118.549,121.661c-5.633,0-10.199,4.566-10.199,10.199c0,5.633,4.566,10.199,10.199,10.199
			c33.295,0,60.383,27.088,60.383,60.383c0,5.633,4.566,10.199,10.199,10.199c5.633,0,10.199-4.566,10.199-10.199
			C199.331,157.899,163.093,121.661,118.549,121.661z"/>
	</g>
</g>
<g>
	<g>
		<path d="M189.132,230.63c-5.633,0-10.199,4.566-10.199,10.199v29.718c0,5.633,4.566,10.199,10.199,10.199
			c5.633,0,10.199-4.566,10.199-10.199v-29.718C199.331,235.196,194.765,230.63,189.132,230.63z"/>
	</g>
</g>
<g>
</g>
<g>
</g>
<g>
</g>
<g>
</g>
<g>
</g>
<g>
</g>
<g>
</g>
<g>
</g>
<g>
</g>
<g>
</g>
<g>
</g>
<g>
</g>
<g>
</g>
<g>
</g>
<g>
</g>
</svg>
