<?xml version="1.0" encoding="iso-8859-1"?>
<!-- Generator: Adobe Illustrator 19.0.0, SVG Export Plug-In . SVG Version: 6.00 Build 0)  -->
<svg version="1.1" id="Layer_1" xmlns="http://www.w3.org/2000/svg" xmlns:xlink="http://www.w3.org/1999/xlink" x="0px" y="0px"
	 viewBox="0 0 512 512" style="enable-background:new 0 0 512 512;" xml:space="preserve">
<g>
	<g>
		<path d="M400.98,228.101h-43.334c21.111-23.263,33.192-53.763,33.192-85.677c0-24.096-6.71-46.653-18.354-65.906
			c18.65-2.636,33.045-18.697,33.045-38.064C405.529,17.25,388.279,0,367.077,0c-19.367,0-35.428,14.395-38.064,33.046
			c-19.253-11.644-41.811-18.354-65.906-18.354c-70.432,0-127.731,57.3-127.731,127.732c0,31.914,12.08,62.414,33.192,85.677
			h-57.549c-5.632,0-10.199,4.566-10.199,10.199v75.459c0,5.633,4.567,10.199,10.199,10.199h7.452l27.599,179.394
			c0.766,4.975,5.047,8.648,10.081,8.648H355.85c5.034,0,9.315-3.673,10.081-8.648l27.599-179.394h7.452
			c5.632,0,10.199-4.566,10.199-10.199V238.3C411.179,232.667,406.613,228.101,400.98,228.101z M367.077,20.398
			c9.955,0,18.054,8.099,18.054,18.054s-8.098,18.054-18.054,18.054c-9.955,0-18.054-8.099-18.054-18.054
			S357.122,20.398,367.077,20.398z M155.773,142.424c0-59.184,48.149-107.333,107.332-107.333
			c59.184,0,107.333,48.149,107.333,107.333c0,33.645-15.986,65.436-42.92,85.677H198.692
			C171.759,207.86,155.773,176.068,155.773,142.424z M390.781,303.56h-6.002c-5.034,0-9.315,3.673-10.081,8.648L347.1,491.602
			H164.899l-25.791-167.643h93.253c5.632,0,10.199-4.566,10.199-10.199s-4.567-10.199-10.199-10.199H121.218V248.5h269.563V303.56z"
			/>
	</g>
</g>
<g>
	<g>
		<path d="M320.611,303.56h-25.214c-5.632,0-10.199,4.566-10.199,10.199c0,5.633,4.567,10.199,10.199,10.199h25.214
			c5.632,0,10.199-4.566,10.199-10.199C330.811,308.126,326.243,303.56,320.611,303.56z"/>
	</g>
</g>
<g>
	<g>
		<path d="M218.008,189.968c-3.052-13.945-4.599-28.8-4.599-44.155c0-14.552,1.394-28.687,4.144-42.014
			c1.137-5.517-2.411-10.911-7.928-12.049c-5.514-1.136-10.91,2.412-12.049,7.928c-3.028,14.681-4.564,30.202-4.564,46.135
			c0,16.817,1.705,33.14,5.07,48.515c1.042,4.768,5.264,8.022,9.953,8.022c0.722,0,1.456-0.078,2.19-0.238
			C215.728,200.907,219.213,195.471,218.008,189.968z"/>
	</g>
</g>
<g>
	<g>
		<path d="M323.671,82.825c-1.707-5.369-7.448-8.333-12.811-6.627c-5.369,1.707-8.336,7.443-6.627,12.811
			c5.607,17.625,8.57,38.049,8.57,59.064c0,9.514-0.606,18.953-1.8,28.056c-0.733,5.585,3.202,10.707,8.786,11.439
			c0.45,0.059,0.898,0.088,1.339,0.088c5.044,0.001,9.428-3.738,10.101-8.872c1.309-9.98,1.974-20.313,1.974-30.71
			C333.202,124.987,329.907,102.424,323.671,82.825z"/>
	</g>
</g>
<g>
	<g>
		<path d="M263.106,54.245c-5.632,0-10.199,4.566-10.199,10.199v14.692c0,5.633,4.567,10.199,10.199,10.199
			s10.199-4.566,10.199-10.199V64.445C273.306,58.812,268.738,54.245,263.106,54.245z"/>
	</g>
</g>
<g>
	<g>
		<path d="M263.106,102.841c-5.632,0-10.199,4.566-10.199,10.199v84.759c0,5.633,4.567,10.199,10.199,10.199
			s10.199-4.566,10.199-10.199V113.04C273.306,107.407,268.738,102.841,263.106,102.841z"/>
	</g>
</g>
<g>
</g>
<g>
</g>
<g>
</g>
<g>
</g>
<g>
</g>
<g>
</g>
<g>
</g>
<g>
</g>
<g>
</g>
<g>
</g>
<g>
</g>
<g>
</g>
<g>
</g>
<g>
</g>
<g>
</g>
</svg>
