<?xml version="1.0" encoding="iso-8859-1"?>
<!-- Generator: Adobe Illustrator 19.0.0, SVG Export Plug-In . SVG Version: 6.00 Build 0)  -->
<svg version="1.1" id="Layer_1" xmlns="http://www.w3.org/2000/svg" xmlns:xlink="http://www.w3.org/1999/xlink" x="0px" y="0px"
	 viewBox="0 0 512 512" style="enable-background:new 0 0 512 512;" xml:space="preserve">
<g>
	<g>
		<path d="M338.374,199.41c-2.162,15.193-6.322,33.94-11.709,54.518h-55.393v15.272h51.268
			c-20.159,72.538-52.339,161.442-66.543,199.721c-8.472-22.814-23.332-63.604-38.19-108.087h38.193v-15.272h-43.244
			c-4.396-13.432-8.73-27.044-12.829-40.467l-14.607,4.461c26.694,87.409,63.183,182.871,63.548,183.825L256.001,512l7.13-18.618
			c3.174-8.287,77.865-203.947,90.362-291.822L338.374,199.41z"/>
	</g>
</g>
<g>
	<g>
		<path d="M360.641,81.544c11.889-27.442-16.408-58.087-17.618-59.378l-2.518-2.685l-3.668,0.296
			c-17.2,1.39-32.872,8.055-46.662,19.801L255.542,0l-31.249,41.665c-14.498-12.997-30.977-20.354-49.103-21.886l-3.685-0.312
			l-2.529,2.697c-1.21,1.292-29.506,31.935-17.618,59.378c6.69,15.443,23.761,25.672,51.761,30.873
			c-30.368,13.26-46.39,36.577-46.39,67.696c0,4.273,0.328,9.235,1.071,16.171c2.666,22.483,10.38,55.452,22.93,97.992l14.648-4.321
			c-10.789-36.575-17.916-65.772-21.23-86.933h86.94v-15.272h-88.752c-0.227-2.956-0.336-5.434-0.336-7.636
			c0-25.975,13.66-44.517,40.598-55.108c21.321-8.383,43.19-8.527,43.393-8.527c0.218,0,22.088,0.145,43.408,8.527
			c26.938,10.591,40.597,29.133,40.597,55.108h15.272c0-31.118-16.022-54.435-46.389-67.696
			C336.881,107.216,353.951,96.988,360.641,81.544z M165.384,75.5c-5.843-13.428,5.294-31.437,12.301-40.073
			c15.501,2.218,29.585,9.929,41.89,22.939c13.432,14.348,21.612,31.971,25.734,42.7C200.303,99.862,172.081,90.892,165.384,75.5z
			 M235.03,52.805l21.428-28.572l22.812,26.062c-10.847,12.165-18.38,25.816-23.261,36.669
			C251.483,76.868,244.674,64.344,235.03,52.805z M346.614,75.5c-6.695,15.391-34.919,24.361-79.924,25.565
			c4.365-11.345,13.3-30.407,28.308-45.164c11.584-11.583,24.791-18.462,39.305-20.487C341.314,44.055,352.461,62.068,346.614,75.5z
			"/>
	</g>
</g>
<g>
	<g>
		<rect x="179.644" y="60.479" width="20.363" height="15.272"/>
	</g>
</g>
<g>
	<g>
		<rect x="311.994" y="60.479" width="20.363" height="15.272"/>
	</g>
</g>
<g>
	<g>
		<rect x="266.177" y="309.927" width="20.363" height="15.272"/>
	</g>
</g>
<g>
	<g>
		<rect x="225.461" y="269.201" width="20.363" height="15.272"/>
	</g>
</g>
<g>
	<g>
		<rect x="256.005" y="223.384" width="20.363" height="15.272"/>
	</g>
</g>
<g>
	<g>
		<rect x="291.631" y="187.748" width="20.363" height="15.272"/>
	</g>
</g>
<g>
	<g>
		<rect x="220.37" y="147.022" width="20.363" height="15.272"/>
	</g>
</g>
<g>
	<g>
		<rect x="261.086" y="147.022" width="20.363" height="15.272"/>
	</g>
</g>
<g>
	<g>
		<rect x="250.915" y="381.198" width="20.363" height="15.272"/>
	</g>
</g>
<g>
</g>
<g>
</g>
<g>
</g>
<g>
</g>
<g>
</g>
<g>
</g>
<g>
</g>
<g>
</g>
<g>
</g>
<g>
</g>
<g>
</g>
<g>
</g>
<g>
</g>
<g>
</g>
<g>
</g>
</svg>
