<?xml version="1.0" encoding="iso-8859-1"?>
<!-- Generator: Adobe Illustrator 19.0.0, SVG Export Plug-In . SVG Version: 6.00 Build 0)  -->
<svg version="1.1" id="Layer_1" xmlns="http://www.w3.org/2000/svg" xmlns:xlink="http://www.w3.org/1999/xlink" x="0px" y="0px"
	 viewBox="0 0 512 512" style="enable-background:new 0 0 512 512;" xml:space="preserve">
<g transform="translate(0 1)">
	<g>
		<g>
			<path d="M390.241,174.787c-0.853-1.707-2.56-2.56-5.12-3.413c-9.387-1.707-17.92,0-26.453,5.973
				c-1.188,0.839-2.354,1.772-3.505,2.767C345.094,87.049,314.329-1,265.654-1c-47.709,0-78.373,85.209-89.237,175.536
				c-12.972-14.638-27.278-27.722-43.03-38.149c-3.413-1.707-7.68-1.707-10.24,0.853s-3.413,6.827-1.707,10.24
				c0,0.853,31.573,59.733,29.867,111.787v5.973c-1.707,49.493-2.56,100.693,67.413,170.667c7.68,7.68,10.24,17.92,6.827,27.307
				c-5.12,15.36,0.853,32.427,14.507,40.107c9.387,5.12,19.627,7.68,31.573,7.68c0.853,0,2.56,0,2.56-0.853
				c3.413,0.853,29.867,1.707,41.813-15.36c6.827-9.387,7.68-23.04,1.707-38.4c-2.401-5.83-5.083-11.517-8.09-16.905
				c55.451-25.312,87.15-83.19,78.063-142.668v-1.707c-5.12-38.4-4.267-75.947,2.56-110.933l0.853-2.56
				C391.947,179.053,391.094,176.493,390.241,174.787z M265.654,16.067c34.133,0,65.707,77.653,74.24,181.76
				c-31.573,51.2-45.227,160.427-46.08,164.693c0,0-4.267,19.627-11.947,39.253c-4.267-8.533-9.387-17.92-10.24-29.867
				c-2.56-24.747-6.827-43.52-13.653-59.733c-5.115-11.434-11.084-24.677-18.01-38.783c0.053-0.428,0.09-0.866,0.09-1.323V255
				c0-5.12-3.413-8.533-8.533-8.533c-1.861,0-3.492,0.456-4.82,1.276c-10.094-18.456-21.783-37.405-35.287-55.036
				C200.801,92.013,232.374,16.067,265.654,16.067z M303.201,485.4c-5.12,7.68-21.333,8.533-27.307,8.533
				c-10.24,0-19.627-1.707-26.453-5.973c-6.827-3.413-9.387-11.947-6.827-19.627c5.12-15.36,0.853-32.427-11.093-44.373
				c-65.707-65.707-64.853-110.08-63.147-157.867v-5.973c0.853-31.573-8.533-64-17.067-87.04
				c12.433,11.926,23.801,25.669,34.167,40.297c25.143,36.256,44.111,76.706,56.286,105.623c6.827,15.36,10.24,31.573,12.8,54.613
				c1.707,16.213,9.387,33.28,21.333,48.64l0.853,0.853c0.386,0.579,0.821,1.06,1.285,1.475c1.563,2.218,3.126,3.789,4.689,5.352
				c0.281,0.281,0.576,0.576,0.875,0.878c7.671,8.53,14.49,19.614,19.605,32.402C306.614,473.453,306.614,480.28,303.201,485.4z
				 M300.641,424.813c-1.707-2.56-4.267-5.12-5.973-6.827l-0.853-0.853c11.947-23.893,17.067-50.347,17.92-52.053
				c5.12-40.96,24.747-151.04,57.173-174.08c0.853-0.853,2.56-1.707,4.267-2.56c-5.973,34.133-5.973,70.827-0.853,109.227v1.707
				C380.001,352.28,350.987,403.48,300.641,424.813z"/>
			<path d="M265.654,67.267c5.12,0,8.533-3.413,8.533-8.533V41.667c0-5.12-3.413-8.533-8.533-8.533s-8.533,3.413-8.533,8.533v17.067
				C257.121,63.853,260.534,67.267,265.654,67.267z"/>
			<path d="M240.054,101.4c5.12,0,8.533-3.413,8.533-8.533V75.8c0-5.12-3.413-8.533-8.533-8.533s-8.533,3.413-8.533,8.533v17.067
				C231.521,97.987,234.934,101.4,240.054,101.4z"/>
			<path d="M265.654,101.4v17.067c0,5.12,3.413,8.533,8.533,8.533s8.533-3.413,8.533-8.533V101.4c0-5.12-3.413-8.533-8.533-8.533
				S265.654,96.28,265.654,101.4z"/>
			<path d="M308.321,152.6c5.12,0,8.533-3.413,8.533-8.533V127c0-5.12-3.413-8.533-8.533-8.533s-8.533,3.413-8.533,8.533v17.067
				C299.787,149.187,303.201,152.6,308.321,152.6z"/>
			<path d="M240.054,152.6c5.12,0,8.533-3.413,8.533-8.533V127c0-5.12-3.413-8.533-8.533-8.533s-8.533,3.413-8.533,8.533v17.067
				C231.521,149.187,234.934,152.6,240.054,152.6z"/>
			<path d="M214.454,161.133c-5.12,0-8.533,3.413-8.533,8.533v17.067c0,5.12,3.413,8.533,8.533,8.533s8.533-3.413,8.533-8.533
				v-17.067C222.987,164.547,219.574,161.133,214.454,161.133z"/>
			<path d="M240.054,186.733V203.8c0,5.12,3.413,8.533,8.533,8.533s8.533-3.413,8.533-8.533v-17.067c0-5.12-3.413-8.533-8.533-8.533
				S240.054,181.613,240.054,186.733z"/>
			<path d="M274.187,144.067c-5.12,0-8.533,3.413-8.533,8.533v17.067c0,5.12,3.413,8.533,8.533,8.533s8.533-3.413,8.533-8.533V152.6
				C282.721,147.48,279.307,144.067,274.187,144.067z"/>
			<path d="M299.787,212.333c5.12,0,8.533-3.413,8.533-8.533v-17.067c0-5.12-3.413-8.533-8.533-8.533s-8.533,3.413-8.533,8.533
				V203.8C291.254,208.92,294.667,212.333,299.787,212.333z"/>
			<path d="M274.187,246.467V229.4c0-5.12-3.413-8.533-8.533-8.533s-8.533,3.413-8.533,8.533v17.067c0,5.12,3.413,8.533,8.533,8.533
				S274.187,251.587,274.187,246.467z"/>
			<path d="M299.787,263.533c5.12,0,8.533-3.413,8.533-8.533v-17.067c0-5.12-3.413-8.533-8.533-8.533s-8.533,3.413-8.533,8.533V255
				C291.254,260.12,294.667,263.533,299.787,263.533z"/>
			<path d="M274.187,280.6c-5.12,0-8.533,3.413-8.533,8.533V306.2c0,5.12,3.413,8.533,8.533,8.533s8.533-3.413,8.533-8.533v-17.067
				C282.721,284.013,279.307,280.6,274.187,280.6z"/>
		</g>
	</g>
</g>
<g>
</g>
<g>
</g>
<g>
</g>
<g>
</g>
<g>
</g>
<g>
</g>
<g>
</g>
<g>
</g>
<g>
</g>
<g>
</g>
<g>
</g>
<g>
</g>
<g>
</g>
<g>
</g>
<g>
</g>
</svg>
