<?xml version="1.0" encoding="iso-8859-1"?>
<!-- Generator: Adobe Illustrator 19.0.0, SVG Export Plug-In . SVG Version: 6.00 Build 0)  -->
<svg version="1.1" id="Layer_1" xmlns="http://www.w3.org/2000/svg" xmlns:xlink="http://www.w3.org/1999/xlink" x="0px" y="0px"
	 viewBox="0 0 512.432 512.432" style="enable-background:new 0 0 512.432 512.432;" xml:space="preserve">
<g transform="translate(1 1)">
	<g>
		<g>
			<path d="M343.109,121.023c-3.413,3.413-3.413,8.533,0,11.947s8.533,3.413,11.947,0c3.413-3.413,3.413-8.533,0-11.947
				C351.642,117.61,346.522,117.61,343.109,121.023z"/>
			<path d="M320.922,138.09c-3.413-3.413-8.533-3.413-11.947,0s-3.413,8.533,0,11.947s8.533,3.413,11.947,0
				C324.336,146.623,324.336,141.503,320.922,138.09z"/>
			<path d="M326.042,155.157c-3.413,3.413-3.413,8.533,0,11.947s8.533,3.413,11.947,0s3.413-8.533,0-11.947
				C334.576,151.743,329.456,151.743,326.042,155.157z"/>
			<path d="M300.442,180.757c-3.413,3.413-3.413,8.533,0,11.947s8.533,3.413,11.947,0s3.413-8.533,0-11.947
				S303.856,177.343,300.442,180.757z"/>
			<path d="M295.322,167.103c3.413-3.413,3.413-8.533,0-11.947s-8.533-3.413-11.947,0c-3.413,3.413-3.413,8.533,0,11.947
				C286.789,170.517,291.909,170.517,295.322,167.103z"/>
			<path d="M283.376,214.89c-3.413,3.413-3.413,8.533,0,11.947c3.413,3.413,8.533,3.413,11.947,0s3.413-8.533,0-11.947
				S286.789,211.477,283.376,214.89z"/>
			<path d="M278.256,189.29c-3.413-3.413-8.533-3.413-11.947,0s-3.413,8.533,0,11.947s8.533,3.413,11.947,0
				S281.669,192.703,278.256,189.29z"/>
			<path d="M249.242,223.423c-3.413,3.413-3.413,8.533,0,11.947s8.533,3.413,11.947,0s3.413-8.533,0-11.947
				S252.656,220.01,249.242,223.423z"/>
			<path d="M240.709,249.023c-3.413,3.413-3.413,8.533,0,11.947s8.533,3.413,11.947,0s3.413-8.533,0-11.947
				S244.122,245.61,240.709,249.023z"/>
			<path d="M256.971,137.197c0.534-12.324-0.171-24.654-2.608-36.654c-0.853-3.413-4.267-6.827-7.68-6.827s-6.827,2.56-8.533,5.973
				c0,0-16.213,43.52-43.52,69.973l-3.413,3.413c-26.453,24.747-53.76,51.2-53.76,125.44c0,6.827-3.413,12.8-9.387,15.36
				c-4.267,2.56-19.627,9.387-14.507,30.72c0,2.56,4.267,13.653,14.507,23.893c1.707,1.707,13.653,14.507,28.16,14.507
				c1.707,0,2.56,0,3.413,0c10.24-1.707,17.92-8.533,23.893-20.48c1.688-3.657,3.092-7.314,4.223-10.971
				c11.392,4.06,22.785,5.851,34.177,5.851c31.573,0,61.44-14.507,81.067-41.813l0.853-0.853
				c20.48-29.013,39.253-48.64,58.027-60.587c1.707-0.853,2.56-2.56,3.413-5.12c0.853-2.56,0-5.12-0.853-6.827
				c-4.267-6.827-11.093-10.24-18.773-11.947c-6.012-0.895-12.969-0.171-20.472,1.716c49.276-56.287,81.564-117.264,58.019-140.809
				C360.327,68.268,304.016,99.269,256.971,137.197z M157.082,365.077c-6.827,1.707-14.507-5.973-17.067-8.533
				c-5.973-5.973-9.387-14.507-10.24-15.36c-0.853-6.827,0-9.387,5.973-11.947c11.947-5.12,18.773-17.067,18.773-30.72
				c0-67.413,22.187-88.747,48.64-113.493l3.413-3.413c14.507-13.653,26.453-31.573,34.133-46.08
				c-0.25,5.997-0.837,12.03-1.675,18.049c-0.496,0.81-0.885,1.621-0.885,2.431c-5.12,34.133-17.92,65.707-27.307,89.6l-0.853,1.707
				c-4.267,10.24-11.093,21.333-21.333,34.133c-1.707,2.56-3.413,4.267-5.12,7.68l-0.853,2.56c-1.707,2.56-2.56,4.267-3.413,6.827
				c-0.853,0.853-0.853,1.707-0.853,1.707c-0.853,2.56-1.707,5.12-2.56,7.68v1.707c0,1.707-0.853,3.413-0.853,5.973v1.513
				c-0.015,0.099-0.032,0.2-0.046,0.298c-0.108,0.226-0.202,0.452-0.283,0.678c-0.866,1.295-1.378,2.815-1.378,4.337
				c0,1.707,0,4.267,0,5.973c0,2.56,0,5.973-0.853,9.387c-0.158,0.791-0.198,1.552-0.138,2.278
				c-1.081,4.767-2.646,9.649-4.982,14.788C164.762,359.103,161.349,364.223,157.082,365.077z M342.256,248.17
				c-17.067,12.8-33.28,31.573-52.053,57.173l-0.853,0.853c-22.902,30.536-62.664,41.668-98.339,28.392
				c0.119-1.609,0.187-3.219,0.198-4.828c17.581-6.848,33.314-17.604,34.994-18.444C257.776,285.717,317.509,245.61,342.256,248.17z
				 M292.349,245.127c-35.669,18.359-71.733,47.278-77.24,51.683c0,0-9.16,6.541-20.929,12.142c0.501-1.51,1.083-3.018,1.756-4.514
				c0.586-1.172,1.172-2.343,1.757-3.515c0.16-0.285,0.333-0.567,0.501-0.851l0.702-0.702c0.853-1.707,2.56-3.413,3.413-5.12
				c11.093-14.507,18.773-26.453,23.893-39.253l0.853-0.853c9.387-22.187,22.187-55.467,28.16-90.453
				c64-55.467,107.52-67.413,116.907-58.027C383.944,117.485,359.829,176.101,292.349,245.127z"/>
			<path d="M297.882,417.13c5.12,0,8.533-3.413,8.533-8.533s-3.413-8.533-8.533-8.533h-85.333c-5.12,0-8.533,3.413-8.533,8.533
				s3.413,8.533,8.533,8.533H297.882z"/>
			<path d="M453.189,7.53c-5.973-6.827-15.36-10.24-24.747-7.68h-0.853l-44.373,17.067c-18.773,5.12-38.4,7.68-58.027,7.68H185.242
				c-19.627,0-39.253-2.56-58.027-7.68L82.842-0.15h-0.853c-8.533-2.56-18.773,0.853-24.747,7.68
				c-6.827,7.68-8.533,17.067-4.267,25.6l23.04,59.733c-22.187,101.547-22.187,209.92,0,323.413l-20.48,58.88
				c-3.413,8.533-1.707,18.773,4.267,25.6c5.12,5.973,11.947,9.387,19.627,9.387c1.707,0,3.413,0,5.12,0l50.347-8.533
				c3.413-0.853,6.827-0.853,10.24-1.707c4.267,0,7.68-0.853,11.947-1.707c14.507-2.56,29.867-4.267,43.52-4.267h109.227
				c13.653,0,29.013,1.707,43.52,5.12c3.413,0.853,7.68,0.853,11.947,1.707c3.413,0.853,6.827,0.853,10.24,1.707l50.347,8.533
				c9.387,1.707,17.92-1.707,23.893-8.533c5.973-7.68,7.68-17.067,4.267-25.6l-19.627-59.733
				c22.187-117.76,22.187-226.133,0-323.413l23.04-59.733C461.722,24.597,460.016,15.21,453.189,7.53z M442.096,27.157
				L417.349,89.45c0,1.707,0,3.413,0,5.12c22.187,96.427,22.187,203.947,0,320.853c0,1.707,0,3.413,0,4.267l21.333,62.293
				c0.853,2.56,0,5.973-1.707,8.533c-0.853,0.853-3.413,3.413-7.68,2.56l-50.347-8.533c-3.413-0.853-6.827-0.853-10.24-1.707
				c-4.267-0.853-8.533-0.853-11.947-1.707c-16.213-2.56-32.427-4.267-46.933-4.267H200.602c-15.36,0-30.72,1.707-46.933,4.267
				c-4.267,0.853-7.68,0.853-11.947,1.707c-3.413,0.853-6.827,0.853-10.24,1.707l-50.347,8.533c-4.267,0.853-6.827-1.707-7.68-2.56
				c-1.707-2.56-2.56-5.973-0.853-9.387l20.48-61.44c0-1.707,0-2.56,0-4.267c-22.187-112.64-22.187-221.013,0-320.853
				c0-1.707,0-3.413,0-4.267L68.336,28.01c-1.707-3.413-0.853-6.827,1.707-9.387c0.853-0.853,2.56-2.56,5.12-2.56
				c0.853,0,1.707,0,1.707,0l44.373,17.92h0.853c20.48,5.12,41.813,7.68,63.147,7.68h139.947c21.333,0,42.667-2.56,62.293-8.533
				h0.853l44.373-17.067c4.267-0.853,6.827,1.707,7.68,2.56C442.949,21.183,443.802,24.597,442.096,27.157z"/>
			<path d="M314.949,434.197H195.482c-5.12,0-8.533,3.413-8.533,8.533s3.413,8.533,8.533,8.533h119.467
				c5.12,0,8.533-3.413,8.533-8.533S320.069,434.197,314.949,434.197z"/>
		</g>
	</g>
</g>
<g>
</g>
<g>
</g>
<g>
</g>
<g>
</g>
<g>
</g>
<g>
</g>
<g>
</g>
<g>
</g>
<g>
</g>
<g>
</g>
<g>
</g>
<g>
</g>
<g>
</g>
<g>
</g>
<g>
</g>
</svg>
