<?xml version="1.0" encoding="iso-8859-1"?>
<!-- Generator: Adobe Illustrator 17.1.0, SVG Export Plug-In . SVG Version: 6.00 Build 0)  -->
<!DOCTYPE svg PUBLIC "-//W3C//DTD SVG 1.1//EN" "http://www.w3.org/Graphics/SVG/1.1/DTD/svg11.dtd">
<svg version="1.1" id="Capa_1" xmlns="http://www.w3.org/2000/svg" xmlns:xlink="http://www.w3.org/1999/xlink" x="0px" y="0px"
	 viewBox="0 0 436.848 436.848" style="enable-background:new 0 0 436.848 436.848;" xml:space="preserve">
<path id="XMLID_28_" d="M81.956,115.293v2.13c0,4.418-3.582,8-8,8s-8-3.582-8-8v-2.13c0-4.418,3.582-8,8-8
	S81.956,110.875,81.956,115.293z M436.848,315.557c0,2.915-0.103,5.823-0.306,8.644c-0.316,4.407-4.153,7.719-8.554,7.405
	c-1.618-0.116-3.09-0.707-4.288-1.626c-1.196,0.918-2.666,1.508-4.282,1.625c-4.427,0.325-8.239-2.991-8.559-7.398
	c-0.205-2.813-0.309-5.723-0.309-8.649c0-12.702,1.902-24.043,5.148-31.053v-98.735c0-3.895-1.692-7.401-4.381-9.823
	c-0.142,2.518-0.48,5.036-1.019,7.545l-12.414,57.834c-3.691,17.196-13.247,29.271-26.125,33.488l-2.472,20.241v90.787
	c0,4.418-3.582,8-8,8h-36.523c-2.489,0-4.838-1.159-6.352-3.136s-2.021-4.546-1.372-6.949l6.121-22.676v-35.133
	c-2.428-1.31-4.624-3.012-6.498-5.006c-8.493,3.717-17.771,5.666-27.088,5.666c-3.28,0-6.538-0.239-9.752-0.708l-3.122,28.241
	h14.206l1.539-13.23c0.511-4.388,4.477-7.542,8.871-7.021c4.389,0.511,7.532,4.482,7.021,8.871l-2.345,20.157
	c-0.01,0.105-0.022,0.211-0.037,0.315l-2.737,23.533c-0.469,4.033-3.886,7.075-7.946,7.075h-30.125c-2.274,0-4.442-0.969-5.96-2.663
	s-2.241-3.955-1.991-6.216l6.998-63.309c-6.752-2.74-13.065-6.576-18.664-11.405c-10.344-8.92-17.71-20.733-21.177-33.787h-17.732
	l-2.271,18.593v90.787c0,4.418-3.582,8-8,8h-36.523c-2.489,0-4.837-1.159-6.352-3.136c-1.514-1.977-2.021-4.545-1.372-6.948
	l6.119-22.677v-35.133c-7.019-3.789-12.098-10.849-13.07-18.805l-3.749-30.682h-8.088c-2.093,0-4.146-0.169-6.148-0.494
	l0.177,30.158c0.018,3.103,2.236,5.866,5.275,6.573c3.965,0.922,6.605,4.674,6.135,8.717l-3.807,32.726h4.242c4.418,0,8,3.582,8,8
	s-3.582,8-8,8h-6.104l-0.896,7.7h0.801c4.418,0,8,3.582,8,8s-3.582,8-8,8h-9.785c-2.283,0-4.457-0.976-5.975-2.68
	c-1.519-1.705-2.235-3.978-1.972-6.245l2.754-23.669c0.003-0.026,0.006-0.054,0.009-0.081l4.15-35.678
	c-6.565-4.031-10.781-11.212-10.828-19.271l-0.216-36.872c-9.703-6.939-16.038-18.298-16.038-31.11v-27.169
	c0-3.448-0.232-6.647-0.706-9.611c-0.061-0.272-0.107-0.549-0.14-0.826c-2.707-15.224-12-24.037-29.148-28.065
	c-2.428-0.57-5.185-0.452-8.146,0.002c-0.056,0.009-0.111,0.018-0.167,0.026c-2.578,0.404-5.309,1.057-8.111,1.726
	c-5.327,1.273-10.836,2.589-16.6,2.589c-18.536,0-31.717-11.825-32.053-28.757c-0.324-16.441,2.687-22.663,16.107-33.288
	l28.255-22.371l-4.811-9.371c-8.505-16.571-8.19-33.568,0.716-38.696c4.385-2.526,11.501-2.378,17.111,6.359
	C65.689,63.69,79.75,67.374,94.638,71.275c5.333,1.397,10.848,2.843,15.938,4.743c1.719,0.642,3.548,1.27,5.465,1.914
	c14.414-4.617,30.62-15.823,34.119-21.275c5.61-8.736,12.726-8.885,17.111-6.36c8.903,5.126,9.218,22.123,0.716,38.695
	l-8.264,16.101c-0.84,1.64-1.684,3.134-2.582,4.628c1.613,0.774,5.542,2.079,14.402,2.726c8.663,0.632,18.58,0.409,26.546,0.23
	c3.27-0.073,6.093-0.137,8.498-0.137h100.065c0.119-0.001,0.235-0.001,0.351,0h34.204c21.703,0,44.381,10.71,57.775,27.285
	c4.396,5.438,7.656,11.305,9.73,17.393c13.128,2.863,22.986,14.578,22.986,28.552v98.734
	C434.946,291.512,436.848,302.852,436.848,315.557z M137.15,86.19c3.821,2.016,7.435,4.415,10.511,7.363l6.091-11.866
	c1.764-3.438,2.878-6.565,3.551-9.252C152.049,77.216,144.824,82.122,137.15,86.19z M41.803,159.499
	c-6.87-7.925-15.453-14.864-25.389-20.513c-0.447,2.205-0.473,4.938-0.396,8.848c0.191,9.639,8.42,13.073,16.057,13.073
	C35.062,160.907,38.34,160.288,41.803,159.499z M188.354,370.141h-16.001l-2.077,7.7h18.078V370.141z M225.958,244.606
	c0-36.134-29.396-65.531-65.528-65.531c-19.359,0-37.338,8.33-49.826,22.968c0.326,2.88,0.489,5.89,0.489,9.024v27.169
	c0,12.255,9.971,22.226,22.226,22.226h15.17c4.043,0,7.45,3.017,7.941,7.029l4.608,37.711c0.423,3.466,3.413,6.685,6.954,7.486
	c3.646,0.826,6.233,4.065,6.233,7.803v33.65h14.128v-59.573c0-0.324,0.02-0.647,0.059-0.97l3.188-26.106
	c0.49-4.014,3.898-7.03,7.941-7.03h24.486C225.311,255.302,225.958,249.99,225.958,244.606z M274.935,370.141l-0.852,7.7h14.069
	l0.896-7.7H274.935z M310.001,306.398l-3.658-29.937H241.07c5.454,15.472,17.902,27.236,33.398,31.925
	c0.417,0.086,0.82,0.203,1.208,0.35c4.428,1.223,9.091,1.872,13.901,1.872C296.711,310.608,303.566,309.193,310.001,306.398z
	 M353.289,370.141H337.29l-2.079,7.7h18.078V370.141z M391.38,195.395c-8.715,4.088-18.288,6.247-28.135,6.247
	c-36.563,0-66.31-29.746-66.31-66.309c0-2.272,0.116-4.541,0.347-6.794h-90.695c-2.226,0-4.966,0.062-8.139,0.133
	c-9.64,0.218-21.636,0.485-32.009-0.619c-6.391-0.682-23.366-2.491-25.559-15.074c-1.681-9.64-12.354-13.996-27.297-18.997
	c-0.148-0.045-0.295-0.094-0.439-0.147c-0.024-0.008-0.049-0.016-0.073-0.024c-2.825-0.942-5.493-1.832-8.094-2.804
	c-4.331-1.617-9.22-2.897-14.396-4.254C77.024,83.2,61.969,79.255,50.572,67.732c0.688,2.411,1.724,5.132,3.237,8.081l7.812,15.218
	c1.744,3.397,0.843,7.555-2.151,9.926l-32.455,25.696c13.212,7.957,24.292,18.009,32.571,29.579
	c3.019-0.149,6.095,0.033,9.172,0.756c18.129,4.259,30.49,13.348,36.979,27.128c14.867-13.507,34.155-21.041,54.694-21.041
	c44.955,0,81.528,36.575,81.528,81.531c0,5.356-0.517,10.659-1.542,15.855h73.009c4.043,0,7.45,3.017,7.941,7.029l4.608,37.711
	c0.423,3.467,3.413,6.685,6.955,7.486c3.646,0.826,6.233,4.065,6.233,7.803v33.65h14.126v-59.573c0-0.324,0.02-0.648,0.059-0.97
	l3.212-26.303c0.446-3.651,3.324-6.528,6.976-6.972c13.251-1.611,17.668-17.52,18.706-22.356L391.38,195.395z M395.398,174.026
	c0.072-2.596-0.171-5.063-0.645-7.391c-0.069-0.256-0.126-0.517-0.169-0.781c-1.511-6.599-4.854-12.024-8.046-15.973
	c-10.477-12.965-28.271-21.342-45.331-21.342h-27.814c-0.304,2.246-0.457,4.517-0.457,6.794c0,27.74,22.568,50.309,50.31,50.309
	C375.07,185.642,386.374,181.538,395.398,174.026z"/>
<g>
</g>
<g>
</g>
<g>
</g>
<g>
</g>
<g>
</g>
<g>
</g>
<g>
</g>
<g>
</g>
<g>
</g>
<g>
</g>
<g>
</g>
<g>
</g>
<g>
</g>
<g>
</g>
<g>
</g>
</svg>
