<?xml version="1.0" encoding="iso-8859-1"?>
<!-- Generator: Adobe Illustrator 19.0.0, SVG Export Plug-In . SVG Version: 6.00 Build 0)  -->
<svg version="1.1" id="Layer_1" xmlns="http://www.w3.org/2000/svg" xmlns:xlink="http://www.w3.org/1999/xlink" x="0px" y="0px"
	 viewBox="0 0 512 512" style="enable-background:new 0 0 512 512;" xml:space="preserve">
<g>
	<g>
		<path d="M282.274,494.589c-3.172-3.173-6.291-6.467-9.269-9.79c-3.758-4.196-10.208-4.549-14.402-0.789
			c-4.194,3.759-4.548,10.207-0.788,14.402c3.225,3.599,6.602,7.165,10.036,10.6c1.991,1.992,4.601,2.988,7.212,2.988
			c2.61,0,5.22-0.995,7.211-2.987C286.257,505.03,286.257,498.572,282.274,494.589z"/>
	</g>
</g>
<g>
	<g>
		<path d="M371.592,115.437h-42.764l30.239-30.239c5.685-5.685,8.817-13.245,8.817-21.286c0-8.041-3.131-15.6-8.817-21.286
			c-5.685-5.686-13.244-8.817-21.285-8.817s-15.6,3.131-21.286,8.816l-30.238,30.238V30.102C286.258,13.504,272.753,0,256.155,0
			s-30.102,13.504-30.102,30.102v42.763l-30.239-30.239c-11.736-11.735-30.833-11.736-42.571,0
			c-11.736,11.737-11.736,30.834,0,42.57l30.239,30.239h-42.763c-16.598,0-30.102,13.504-30.102,30.102s13.504,30.102,30.102,30.102
			h42.763l-30.239,30.239c-11.736,11.736-11.736,30.833,0,42.57c5.686,5.685,13.246,8.817,21.286,8.817
			c8.04,0,15.6-3.131,21.286-8.817l9.336-9.336c-7.057,20.616-11.569,42.154-13.289,64.148c-0.374,4.787-0.601,9.573-0.711,14.353
			c-20.546-11.384-58.944-22.941-67.782-25.527c-3.577-1.047-7.44-0.058-10.076,2.576c-2.634,2.635-3.623,6.499-2.576,10.076
			c3.13,10.701,19.416,64.752,32.621,77.958c7.745,7.744,18.041,12.01,28.994,12.01c9.634,0,18.759-3.302,26.088-9.368
			c7.812,32.346,21.733,63.127,41.281,90.475c1.991,2.785,5.125,4.269,8.306,4.269c2.053,0,4.125-0.618,5.923-1.902
			c4.582-3.276,5.642-9.646,2.366-14.229c-11.305-15.816-20.43-32.568-27.462-49.883c2.975,0.676,6.044,1.035,9.169,1.035
			c10.952,0,21.249-4.265,28.994-12.01c13.205-13.206,29.49-67.256,32.62-77.958c1.046-3.577,0.059-7.44-2.576-10.076
			c-2.635-2.634-6.499-3.624-10.076-2.576c-10.033,2.935-58.168,17.432-75.024,30.114c-2.708-34.514,2.049-69.345,14.112-102.038
			v20.411c0,16.598,13.504,30.102,30.102,30.102c16.598,0,30.103-13.504,30.103-30.102v-42.763l30.238,30.238
			c5.686,5.685,13.245,8.817,21.286,8.817c8.041,0,15.6-3.131,21.285-8.817c11.737-11.737,11.737-30.834,0-42.571l-30.239-30.239
			h42.764c16.597,0,30.102-13.504,30.102-30.102C401.693,128.935,388.19,115.437,371.592,115.437z M186.902,368.276
			c-3.891,3.892-9.066,6.035-14.571,6.035c-5.503,0-10.679-2.144-14.57-6.035c-5.051-5.05-14.016-27.373-21.75-50.88
			c23.294,7.691,45.918,16.768,50.89,21.74c2.619,2.619,4.424,5.827,5.339,9.317c0.195,2.055,0.409,4.107,0.652,6.156
			C192.671,359.772,190.579,364.599,186.902,368.276z M223.433,359.534c5.051-5.052,27.382-14.019,50.894-21.755
			c-7.735,23.513-16.702,45.843-21.754,50.894c-3.891,3.892-9.066,6.035-14.57,6.035c-5.503,0-10.679-2.144-14.571-6.035
			s-6.035-9.066-6.035-14.571C217.398,368.6,219.541,363.425,223.433,359.534z M330.92,57.051c1.833-1.833,4.27-2.843,6.862-2.843
			c2.592,0,5.028,1.009,6.861,2.843c1.834,1.833,2.843,4.269,2.843,6.862c0,2.592-1.009,5.028-2.843,6.861l-48.482,48.482
			c-3.442-5.561-7.986-10.366-13.32-14.125L330.92,57.051z M246.451,30.102c0-5.351,4.353-9.704,9.703-9.704
			c5.351,0,9.705,4.353,9.705,9.704v67.463c-3.444-0.784-7.021-1.212-10.699-1.212c-2.974,0-5.882,0.285-8.709,0.804V30.102z
			 M167.667,70.774c-3.783-3.783-3.783-9.939,0-13.723c1.892-1.892,4.378-2.837,6.862-2.837c2.485,0,4.97,0.946,6.861,2.837
			l47.269,47.27c-5.447,3.601-10.122,8.276-13.723,13.723L167.667,70.774z M140.718,155.243v-0.001c-5.35,0-9.703-4.353-9.703-9.703
			s4.353-9.704,9.703-9.704h67.054c-0.518,2.827-0.804,5.734-0.804,8.709c0,3.678,0.428,7.255,1.212,10.699H140.718z
			 M181.389,234.027c-1.833,1.833-4.269,2.843-6.861,2.843c-2.593,0-5.029-1.01-6.862-2.843c-3.783-3.784-3.783-9.94,0-13.723
			l48.08-48.08c3.758,5.335,8.564,9.878,14.125,13.32L181.389,234.027z M265.859,260.975c0,5.351-4.354,9.704-9.705,9.704
			c-5.351,0-9.703-4.353-9.703-9.704v-69.044c2.827,0.518,5.734,0.804,8.709,0.804c3.678,0,7.256-0.428,10.699-1.212V260.975z
			 M255.159,171.573c-14.904,0-27.03-12.125-27.03-27.029c0-14.904,12.126-27.03,27.03-27.03c14.905,0,27.03,12.126,27.03,27.03
			C282.189,159.448,270.064,171.573,255.159,171.573z M344.642,220.304c3.784,3.783,3.784,9.939,0,13.723
			c-1.833,1.833-4.269,2.843-6.861,2.843s-5.029-1.01-6.862-2.843l-49.26-49.26c5.447-3.601,10.122-8.275,13.723-13.722
			L344.642,220.304z M371.592,155.242H302.14c0.784-3.443,1.212-7.021,1.212-10.699c0-2.974-0.285-5.882-0.804-8.709h69.044
			c5.35,0,9.703,4.353,9.703,9.704S376.943,155.242,371.592,155.242z"/>
	</g>
</g>
<g>
</g>
<g>
</g>
<g>
</g>
<g>
</g>
<g>
</g>
<g>
</g>
<g>
</g>
<g>
</g>
<g>
</g>
<g>
</g>
<g>
</g>
<g>
</g>
<g>
</g>
<g>
</g>
<g>
</g>
</svg>
