<?xml version="1.0" encoding="iso-8859-1"?>
<!-- Generator: Adobe Illustrator 19.0.0, SVG Export Plug-In . SVG Version: 6.00 Build 0)  -->
<svg version="1.1" id="Layer_1" xmlns="http://www.w3.org/2000/svg" xmlns:xlink="http://www.w3.org/1999/xlink" x="0px" y="0px"
	 viewBox="0 0 511.999 511.999" style="enable-background:new 0 0 511.999 511.999;" xml:space="preserve">
<g>
	<g>
		<path d="M299.095,135.618h-87.275c-5.632,0-10.197,4.566-10.197,10.197v63.159c0,5.631,4.565,10.197,10.197,10.197h87.275
			c5.632,0,10.197-4.566,10.197-10.197v-63.159C309.292,140.184,304.727,135.618,299.095,135.618z M288.898,198.777h-66.881v-42.765
			h66.881V198.777z"/>
	</g>
</g>
<g>
	<g>
		<path d="M365.562,169.535v-39.799c0-5.631-4.565-10.197-10.197-10.197c-15.906,0-28.847-12.94-28.847-28.846V53.135
			c0-5.631-4.565-10.197-10.197-10.197c-5.632,0-10.197,4.566-10.197,10.197v27.361H205.94V10.308
			c0-5.631-4.565-10.197-10.197-10.197c-5.632,0-10.197,4.566-10.197,10.197v80.385c0,15.906-12.94,28.846-28.847,28.846
			c-5.632,0-10.197,4.566-10.197,10.197v39.798L123.471,465.81l0.064,35.992c0,5.631,4.565,10.197,10.197,10.197h96.461
			c5.632,0,10.197-4.566,10.197-10.197v-35.019l15.641-136.629l15.641,136.629v35.019c0,5.631,4.565,10.197,10.197,10.197h96.461
			c5.632,0,10.197-4.566,10.197-10.197V465.81L365.562,169.535z M219.996,491.606h-76.067v-15.205h76.067V491.606z M269.389,267.527
			c-0.588-5.148-4.947-9.037-10.13-9.037h-6.454c-5.183,0-9.541,3.888-10.131,9.037l-21.577,188.48H144.75l22.115-285.29
			c0.02-0.262,0.031-0.525,0.031-0.787v-31.057c18.985-4.014,33.969-18.998,37.983-37.982h102.306
			c4.014,18.984,18.998,33.969,37.983,37.982v31.057c0,0.263,0.01,0.526,0.031,0.787l22.115,285.29h-76.348L269.389,267.527z
			 M368.134,491.606h-76.068v-15.205h76.068V491.606z"/>
	</g>
</g>
<g>
	<g>
		<path d="M316.32,0c-5.632,0-10.197,4.566-10.197,10.197v12.288c0,5.631,4.565,10.197,10.197,10.197s10.197-4.566,10.197-10.197
			V10.197C326.517,4.566,321.952,0,316.32,0z"/>
	</g>
</g>
<g>
	<g>
		<path d="M181.366,267.304c-5.623-0.447-10.521,3.76-10.959,9.374l-1.112,14.276c-0.437,5.615,3.76,10.52,9.374,10.958
			c0.27,0.021,0.537,0.032,0.804,0.032c5.272,0,9.739-4.06,10.155-9.407l1.112-14.276
			C191.178,272.647,186.981,267.74,181.366,267.304z"/>
	</g>
</g>
<g>
	<g>
		<path d="M177.87,312.171c-5.622-0.431-10.521,3.76-10.959,9.374l-8.74,112.167c-0.437,5.614,3.76,10.52,9.374,10.958
			c0.27,0.021,0.537,0.031,0.804,0.031c5.272,0,9.739-4.059,10.155-9.406l8.74-112.167
			C187.681,317.514,183.485,312.607,177.87,312.171z"/>
	</g>
</g>
<g>
</g>
<g>
</g>
<g>
</g>
<g>
</g>
<g>
</g>
<g>
</g>
<g>
</g>
<g>
</g>
<g>
</g>
<g>
</g>
<g>
</g>
<g>
</g>
<g>
</g>
<g>
</g>
<g>
</g>
</svg>
