<?xml version="1.0" encoding="iso-8859-1"?>
<!-- Generator: Adobe Illustrator 19.0.0, SVG Export Plug-In . SVG Version: 6.00 Build 0)  -->
<svg version="1.1" id="Layer_1" xmlns="http://www.w3.org/2000/svg" xmlns:xlink="http://www.w3.org/1999/xlink" x="0px" y="0px"
	 viewBox="0 0 512 512" style="enable-background:new 0 0 512 512;" xml:space="preserve">
<g transform="translate(1 1)">
	<g>
		<g>
			<path d="M511,280.6c0-14.507-11.093-25.6-25.6-25.6h-8.726c-3.141-72.033-45.718-119.467-85.141-119.467
				c-1.719,0-3.435,0.102-5.146,0.271c-16.859-26.533-39.989-42.938-63.12-42.938c-23.327,0-46.651,16.685-63.545,42.9
				c-1.577-0.149-3.152-0.233-4.721-0.233c-1.719,0-3.435,0.102-5.146,0.271c-16.859-26.533-39.989-42.938-63.12-42.938
				c-23.327,0-46.651,16.685-63.545,42.9c-1.577-0.149-3.152-0.233-4.721-0.233c-39.423,0-82,47.433-85.141,119.467H24.6
				C10.093,255-1,266.093-1,280.6c0,11.789,7.327,21.324,17.858,24.483c2.776,12.831,12.58,22.987,24.809,25.864v9.387
				c0,21.333,4.267,40.107,12.8,61.44c4.267,9.387,13.653,15.36,23.893,15.36h80.213c10.24,0,19.627-5.973,23.893-15.36
				c1.707-3.413,2.56-7.68,4.267-11.093c0.853,3.413,2.56,7.68,4.267,11.093c4.267,9.387,13.653,15.36,23.893,15.36h80.213
				c10.24,0,19.627-5.973,23.893-15.36c1.707-3.413,2.56-7.68,4.267-11.093c0.853,3.413,2.56,7.68,4.267,11.093
				c4.267,9.387,13.653,15.36,23.893,15.36h80.213c10.24,0,19.627-5.973,23.893-15.36c8.533-21.333,12.8-40.107,12.8-61.44v-9.387
				c12.211-3.591,22.002-13.23,24.795-25.86C503.667,301.932,511,292.394,511,280.6z M459.8,255H340.333
				c-0.852-16.193-3.408-30.684-7.665-45.173c10.499-29.46,30.437-51.37,51.185-55.52l7.354-1.697
				c0.108-0.001,0.219-0.01,0.326-0.01C418.84,152.6,456.387,189.293,459.8,255z M196.135,209.827
				c10.499-29.46,30.437-51.37,51.185-55.52l7.354-1.697c0.108-0.001,0.219-0.01,0.326-0.01c22.958,0,53.149,25.945,64.212,73.257
				c2.104,9.441,3.387,19.156,3.851,29.143H203.8C202.948,238.807,200.392,224.316,196.135,209.827z M323.267,109.933
				c15.28,0,33.092,11.825,45.878,30.43c-7.532,3.254-14.765,8.078-21.456,14.238c-9.562,8.642-17.882,19.909-24.416,32.974
				c-11.742-23.056-28.345-39.459-45.937-47.136C290.125,121.791,307.965,109.933,323.267,109.933z M186.733,109.933
				c15.28,0,33.092,11.825,45.878,30.43c-7.532,3.254-14.765,8.078-21.456,14.238c-9.562,8.642-17.882,19.909-24.416,32.974
				c-11.742-23.056-28.345-39.46-45.937-47.136C153.592,121.791,171.432,109.933,186.733,109.933z M118.467,152.6
				c22.958,0,53.149,25.945,64.212,73.257c2.104,9.441,3.387,19.156,3.851,29.143H50.2C53.613,189.293,91.16,152.6,118.467,152.6z
				 M458.093,314.733c-5.12,0-8.533,3.413-8.533,8.533v17.067c0,19.627-3.413,35.84-11.093,54.613
				c-0.853,3.413-4.267,5.12-7.68,5.12h-80.213c-3.413,0-5.973-1.707-7.68-5.12c-7.68-18.773-11.093-35.84-11.093-54.613
				c0-5.12-3.413-8.533-8.533-8.533s-8.533,3.413-11.093,8.533c0,19.627-3.413,35.84-11.093,54.613
				c-0.853,3.413-4.267,5.12-7.68,5.12h-80.213c-3.413,0-5.973-1.707-7.68-5.12c-7.68-18.773-11.093-35.84-11.093-54.613
				c0-5.12-3.413-8.533-8.533-8.533s-8.533,3.413-8.533,8.533c0,19.627-3.413,35.84-11.093,54.613
				c-0.853,3.413-4.267,5.12-7.68,5.12H78.36c-3.413,0-6.827-2.56-8.533-5.12c-7.68-18.773-11.093-35.84-11.093-54.613v-17.067
				c0-5.12-3.413-8.533-8.533-8.533c-5.973,0-11.093-3.413-14.507-8.533H472.6C470.04,311.32,464.067,314.733,458.093,314.733z
				 M485.4,289.133H24.6c-5.12,0-8.533-3.413-8.533-8.533s3.413-8.533,8.533-8.533h8.533h153.6H203.8h119.467h17.067h136.533h8.533
				c5.12,0,8.533,3.413,8.533,8.533S490.52,289.133,485.4,289.133z"/>
			<path d="M104.813,170.52c-11.947,10.24-21.333,24.747-28.16,46.933c-1.707,5.12,0.853,9.387,5.12,11.093
				c0.853,0.853,1.707,0.853,2.56,0.853c3.413,0,6.827-2.56,8.533-7.68c5.973-17.92,13.653-30.72,23.04-38.4
				c3.413-2.56,4.267-8.533,0.853-11.947C114.2,167.96,108.227,167.107,104.813,170.52z"/>
			<path d="M241.347,170.52c-11.947,10.24-21.333,24.747-28.16,46.933c-1.707,5.12,0.853,9.387,5.12,11.093
				c0.853,0.853,1.707,0.853,2.56,0.853c3.413,0,6.827-2.56,8.533-7.68c5.973-17.92,13.653-30.72,23.04-38.4
				c3.413-2.56,4.267-8.533,0.853-11.947C250.733,167.96,244.76,167.107,241.347,170.52z"/>
			<path d="M377.88,170.52c-11.947,10.24-21.333,24.747-28.16,46.933c-1.707,5.12,0.853,9.387,5.12,11.093
				c0.853,0.853,1.707,0.853,2.56,0.853c3.413,0,6.827-2.56,8.533-7.68c5.973-17.92,13.653-30.72,23.04-38.4
				c3.413-2.56,4.267-8.533,0.853-11.947C387.267,167.96,381.293,167.107,377.88,170.52z"/>
		</g>
	</g>
</g>
<g>
</g>
<g>
</g>
<g>
</g>
<g>
</g>
<g>
</g>
<g>
</g>
<g>
</g>
<g>
</g>
<g>
</g>
<g>
</g>
<g>
</g>
<g>
</g>
<g>
</g>
<g>
</g>
<g>
</g>
</svg>
