<?xml version="1.0" encoding="iso-8859-1"?>
<!-- Generator: Adobe Illustrator 17.1.0, SVG Export Plug-In . SVG Version: 6.00 Build 0)  -->
<!DOCTYPE svg PUBLIC "-//W3C//DTD SVG 1.1//EN" "http://www.w3.org/Graphics/SVG/1.1/DTD/svg11.dtd">
<svg version="1.1" id="Capa_1" xmlns="http://www.w3.org/2000/svg" xmlns:xlink="http://www.w3.org/1999/xlink" x="0px" y="0px"
	 viewBox="0 0 435.202 435.202" style="enable-background:new 0 0 435.202 435.202;" xml:space="preserve">
<path id="XMLID_168_" d="M75.305,250.354c-1.155,1.217-1.817,2.346-1.817,3.099c0,2.404,7.05,11.01,38.372,18.749
	c28.057,6.932,65.489,10.749,105.401,10.749s77.344-3.817,105.4-10.749c31.323-7.739,38.372-16.345,38.372-18.749
	c0-0.776-0.782-2.288-2.978-4.205c-3.328-2.906-3.67-7.96-0.765-11.288s7.959-3.671,11.288-0.765
	c5.61,4.898,8.455,10.368,8.455,16.258c0,14.463-17.002,25.997-50.534,34.282c-29.275,7.232-68.07,11.216-109.238,11.216
	s-79.963-3.983-109.238-11.216c-33.532-8.285-50.535-19.819-50.535-34.282c0-5.021,2.09-9.771,6.212-14.113
	c3.042-3.203,8.105-3.336,11.31-0.295C78.214,242.086,78.346,247.15,75.305,250.354z M97.419,243.306
	c13.641,9.88,29.342,14.833,46.907,14.833c9.467-0.001,19.477-1.439,29.996-4.321c5.448-1.494,10.605-3.288,15.765-5.485
	c4.065-1.731,5.957-6.431,4.226-10.495c-1.731-4.065-6.433-5.955-10.495-4.226c-4.49,1.912-8.979,3.474-13.724,4.774
	c-63.812,17.489-87.63-30.41-96.146-60.519c-8.293-29.321-8.639-65.03-0.924-95.521c7.687-30.381,21.911-50.698,39.037-55.773
	c22.992-5.788,55.807,14.974,81.712,51.716c2.546,3.611,7.537,4.477,11.148,1.929c3.611-2.546,4.475-7.537,1.929-11.147
	c-13.834-19.622-29.854-35.542-46.33-46.038c-18.598-11.849-36.773-15.975-52.562-11.925c-0.085,0.021-0.169,0.045-0.254,0.069
	c-22.765,6.642-41.06,31.151-50.192,67.245c-8.373,33.093-7.984,71.896,1.04,103.8C66.214,209.318,79.655,230.44,97.419,243.306z
	 M395.779,268.956c-4.417,0.09-7.925,3.745-7.834,8.162c0.089,4.361,3.653,7.836,7.995,7.836c0.056,0,0.111-0.001,0.167-0.002
	l31.259-0.641c4.417-0.09,7.925-3.745,7.834-8.162c-0.09-4.418-3.717-7.915-8.163-7.834L395.779,268.956z M6.079,227.945
	l26.365,22.952c1.516,1.319,3.387,1.966,5.25,1.966c2.234,0,4.456-0.931,6.037-2.747c2.901-3.333,2.552-8.386-0.781-11.287
	l-26.365-22.952c-3.333-2.901-8.386-2.551-11.287,0.781C2.397,219.991,2.747,225.044,6.079,227.945z M7.836,284.312l31.26,0.641
	c0.056,0.001,0.112,0.002,0.167,0.002c4.342,0,7.906-3.475,7.995-7.836c0.09-4.417-3.417-8.072-7.834-8.162l-31.26-0.641
	c-4.423-0.072-8.072,3.417-8.163,7.834C-0.089,280.567,3.419,284.222,7.836,284.312z M390.791,250.116
	c1.582,1.817,3.804,2.747,6.038,2.747c1.863,0,3.734-0.646,5.25-1.966l26.366-22.952c3.333-2.901,3.683-7.954,0.782-11.287
	c-2.901-3.332-7.955-3.684-11.287-0.781l-26.366,22.952C388.24,241.731,387.89,246.783,390.791,250.116z M205.87,111.338
	c16.179-28.939,43.342-56.652,72.662-74.131c31.979-19.063,62.247-23.459,83.04-12.058c0.077,0.042,0.153,0.085,0.229,0.13
	c20.408,12.078,32.055,40.358,31.954,77.589c-0.092,34.135-10.089,71.631-26.741,100.301c-14.142,24.35-32.4,41.48-52.8,49.541
	c-9.186,3.63-18.641,5.442-28.319,5.442c-15.723,0-32.041-4.781-48.788-14.325c-27.058-15.419-42.852-36.215-46.945-61.811
	C186.697,160.358,192.129,135.917,205.87,111.338z M219.836,119.146c-15.268,27.312-32.297,78.02,25.192,110.781
	c15.246,8.688,28.91,12.224,41.047,12.225c33.629,0.002,55.556-27.137,67.103-47.018c15.304-26.35,24.491-60.857,24.576-92.309
	c0.085-31.338-8.657-54.547-23.99-63.709c-5.289-2.871-11.569-4.286-18.6-4.286c-13.839,0-30.589,5.479-48.439,16.12
	C259.71,67.055,234.705,92.548,219.836,119.146z M252.838,216.219c11.168,6.365,22.123,9.558,32.728,9.558
	c4.946,0,9.817-0.694,14.596-2.086c16.84-4.905,31.419-18.246,42.161-38.582c2.063-3.906,0.569-8.746-3.337-10.811
	c-3.906-2.062-8.747-0.57-10.81,3.338c-6.046,11.446-16.591,26.063-32.487,30.692c-10.708,3.119-22.458,1.097-34.928-6.01
	c-3.837-2.188-8.723-0.85-10.911,2.989C247.661,209.146,249,214.031,252.838,216.219z M72.505,295.799
	c-1.422-4.184-5.967-6.424-10.149-5L5.865,309.998c-4.184,1.422-6.422,5.965-5,10.148c1.132,3.33,4.242,5.428,7.574,5.428
	c0.853,0,1.722-0.138,2.575-0.428l56.491-19.199C71.688,304.526,73.926,299.983,72.505,295.799z M164.454,207.739
	c-13.841,3.794-25.727,2.837-35.327-2.837c-14.253-8.427-20.845-25.201-23.865-37.789c-1.031-4.296-5.352-6.941-9.646-5.913
	c-4.296,1.031-6.944,5.35-5.913,9.646c5.366,22.364,16.182,38.903,31.281,47.829c8.299,4.906,17.573,7.364,27.723,7.364
	c6.327,0,12.995-0.956,19.975-2.868c4.261-1.168,6.769-5.568,5.602-9.83C173.116,209.08,168.719,206.575,164.454,207.739z
	 M310.648,312.644c-2.79-3.424-7.829-3.938-11.255-1.148c-3.425,2.791-3.939,7.83-1.149,11.256l39.189,48.098
	c1.582,1.94,3.884,2.946,6.207,2.946c1.776,0,3.564-0.589,5.048-1.798c3.425-2.791,3.939-7.83,1.149-11.256L310.648,312.644z
	 M251.048,321.212c-0.941-4.316-5.204-7.047-9.521-6.11c-4.317,0.942-7.053,5.205-6.11,9.521l13.121,60.131
	c0.816,3.743,4.128,6.297,7.808,6.297c0.565,0,1.139-0.061,1.713-0.186c4.317-0.942,7.052-5.205,6.11-9.521L251.048,321.212z
	 M103.431,305.106c-2.84-3.386-7.887-3.826-11.271-0.987l-78.118,65.535c-3.385,2.84-3.827,7.886-0.987,11.271
	c1.583,1.887,3.85,2.858,6.133,2.858c1.814,0,3.639-0.614,5.137-1.871l78.118-65.535
	C105.829,313.536,106.271,308.49,103.431,305.106z M429.338,309.998l-56.491-19.199c-4.182-1.422-8.727,0.816-10.149,5
	c-1.421,4.184,0.817,8.727,5,10.148l56.491,19.199c0.853,0.29,1.721,0.428,2.575,0.428c3.332,0,6.442-2.098,7.574-5.428
	C435.76,315.963,433.521,311.42,429.338,309.998z M421.16,369.653l-78.12-65.535c-3.385-2.841-8.431-2.396-11.271,0.987
	c-2.84,3.385-2.397,8.431,0.987,11.271l78.12,65.535c1.499,1.258,3.323,1.871,5.138,1.871c2.283,0,4.551-0.973,6.133-2.858
	C424.988,377.539,424.545,372.493,421.16,369.653z M280.979,318.651c-2.359-3.737-7.3-4.853-11.035-2.496
	c-3.736,2.358-4.854,7.299-2.496,11.035l49.855,79.004c1.521,2.411,4.118,3.731,6.773,3.731c1.459,0,2.937-0.399,4.262-1.235
	c3.736-2.358,4.854-7.299,2.496-11.035L280.979,318.651z M217.989,316.684c-4.401-0.083-8.08,3.397-8.182,7.814l-2.135,92.924
	c-0.102,4.417,3.397,8.08,7.814,8.182c0.063,0.001,0.125,0.002,0.187,0.002c4.333,0,7.895-3.462,7.995-7.816l2.135-92.924
	C225.905,320.448,222.406,316.785,217.989,316.684z M135.003,313.535c-3.427-2.792-8.465-2.277-11.255,1.149l-38.021,46.666
	c-2.791,3.425-2.276,8.464,1.149,11.255c1.485,1.21,3.272,1.798,5.048,1.798c2.322,0,4.625-1.006,6.207-2.947l38.021-46.666
	C138.943,321.365,138.428,316.326,135.003,313.535z M167.196,316.153c-3.737-2.357-8.678-1.241-11.035,2.496l-48.454,76.782
	c-2.358,3.736-1.24,8.677,2.496,11.035c1.326,0.836,2.803,1.235,4.262,1.235c2.655,0,5.251-1.32,6.773-3.731l48.454-76.782
	C172.05,323.452,170.932,318.512,167.196,316.153z M192.437,316.728c-4.324-0.893-8.559,1.893-9.451,6.219l-11.722,56.841
	c-0.893,4.327,1.892,8.559,6.219,9.451c0.545,0.112,1.088,0.167,1.624,0.167c3.716,0,7.047-2.604,7.827-6.386l11.722-56.841
	C199.549,321.852,196.764,317.62,192.437,316.728z"/>
<g>
</g>
<g>
</g>
<g>
</g>
<g>
</g>
<g>
</g>
<g>
</g>
<g>
</g>
<g>
</g>
<g>
</g>
<g>
</g>
<g>
</g>
<g>
</g>
<g>
</g>
<g>
</g>
<g>
</g>
</svg>
