<?xml version="1.0" encoding="iso-8859-1"?>
<!-- Generator: Adobe Illustrator 19.0.0, SVG Export Plug-In . SVG Version: 6.00 Build 0)  -->
<svg version="1.1" id="Layer_1" xmlns="http://www.w3.org/2000/svg" xmlns:xlink="http://www.w3.org/1999/xlink" x="0px" y="0px"
	 viewBox="0 0 512 512" style="enable-background:new 0 0 512 512;" xml:space="preserve">
<g transform="translate(1 1)">
	<g>
		<g>
			<path d="M455.533,119.32l-34.987-19.627c-21.303-12.091-42.608-26.907-65.745-46.009c10.907-12.622,27.058-20.551,45.265-20.551
				c5.12,0,8.533-3.413,8.533-8.533s-3.413-8.533-8.533-8.533c-23.404,0-44.224,10.285-58.267,26.6
				c-7.108-6.174-14.405-12.746-21.946-19.773C303.64,7.533,279.747-1,255-1s-48.64,8.533-64.853,24.747
				c-37.547,34.987-69.12,58.88-100.693,76.8l-34.987,19.627c-3.413,1.707-5.12,5.973-4.267,9.387
				c0.853,3.413,4.267,5.973,8.533,5.973h104.098c-1.058,5.659-1.689,11.318-1.696,16.977C142.552,152.586,127,168.159,127,186.733
				c0,18.773,15.36,34.133,34.133,34.133c0,36.664,20.745,68.246,51.2,83.716v37.668C134.232,354.941,75.8,422.3,75.8,502.467
				c0,5.12,3.413,8.533,8.533,8.533h76.8h187.733h76.8c5.12,0,8.533-3.413,8.533-8.533c0-80.166-58.432-147.525-136.533-159.441
				v-38.432c30.52-15.467,51.452-47.055,52.053-83.727v-0.022c18.382-0.458,33.28-15.598,33.28-32.405
				c0-19.096-14.659-34.658-33.28-34.574V152.6c0-5.689-0.634-11.378-1.698-17.067h103.245c4.267,0,7.68-2.56,8.533-6.827
				C460.653,125.293,458.947,121.027,455.533,119.32z M144.067,186.733c0-9.387,7.68-17.067,17.067-17.067V203.8
				C151.747,203.8,144.067,196.12,144.067,186.733z M178.2,370.258v56.701c-14.922,4.182-25.6,18.044-25.6,33.694v33.28H92.867
				C96.356,438.807,130.091,391.676,178.2,370.258z M169.667,493.933v-33.28c0-10.24,8.533-17.92,17.92-17.92h134.827
				c10.24,0,17.92,8.533,17.92,17.92v33.28H169.667z M417.133,493.933H357.4v-33.28c0-16.251-11.119-29.567-25.6-33.67v-56.862
				C380.337,391.474,413.637,438.689,417.133,493.933z M297.667,359.96c5.834,0.972,11.526,2.293,17.067,3.925v61.782H195.267
				V363.94c5.549-1.658,11.243-2.997,17.067-3.98v5.973c0,23.893,18.773,42.667,42.667,42.667c12.693,0,23.942-5.298,31.698-13.848
				c4.106-4.526,7.234-9.964,9.079-16.009c0.205-0.672,0.394-1.351,0.567-2.037c0.865-3.431,1.323-7.04,1.323-10.773V359.96z
				 M280.6,311.32v38.4v16.213c0,14.507-11.093,25.6-25.6,25.6c-14.507,0-25.6-11.093-25.6-25.6v-17.067V311.32
				c1.361,0.358,2.745,0.675,4.139,0.973c6.887,1.595,14.071,2.441,21.461,2.441c7.396,0,14.585-0.846,21.479-2.444
				C277.867,311.992,279.245,311.677,280.6,311.32z M365.933,186.733c0,9.099-7.222,16.572-16.213,17.023V169.71
				C358.712,170.161,365.933,177.635,365.933,186.733z M331.8,152.6v11.093v47.787v9.387c0,42.667-34.133,76.8-76.8,76.8
				s-76.8-34.133-76.8-76.8v-11.093v-47.787V152.6c0-5.973,0.853-11.093,1.707-17.067h150.187
				C330.947,141.507,331.8,146.627,331.8,152.6z M336.92,118.467H173.933H91.16l6.827-4.267
				c33.28-18.773,64.853-43.52,104.107-79.36c12.8-11.947,32.427-18.773,52.907-18.773s40.107,6.827,52.907,18.773
				c8.457,7.722,16.557,14.926,24.395,21.669c-5.766,10.801-9.035,23.169-9.035,36.357c0,5.12,3.413,8.533,8.533,8.533
				s8.533-3.413,8.533-8.533c0-8.977,1.939-17.448,5.403-25.047c23.143,19.032,44.34,34.005,66.277,46.38l6.827,4.267H336.92z"/>
			<path d="M306.2,459.8H203.8c-5.12,0-8.533,3.413-8.533,8.533s3.413,8.533,8.533,8.533h102.4c5.12,0,8.533-3.413,8.533-8.533
				S311.32,459.8,306.2,459.8z"/>
		</g>
	</g>
</g>
<g>
</g>
<g>
</g>
<g>
</g>
<g>
</g>
<g>
</g>
<g>
</g>
<g>
</g>
<g>
</g>
<g>
</g>
<g>
</g>
<g>
</g>
<g>
</g>
<g>
</g>
<g>
</g>
<g>
</g>
</svg>
