<?xml version="1.0" encoding="iso-8859-1"?>
<!-- Generator: Adobe Illustrator 19.0.0, SVG Export Plug-In . SVG Version: 6.00 Build 0)  -->
<svg version="1.1" id="Layer_1" xmlns="http://www.w3.org/2000/svg" xmlns:xlink="http://www.w3.org/1999/xlink" x="0px" y="0px"
	 viewBox="0 0 512.217 512.217" style="enable-background:new 0 0 512.217 512.217;" xml:space="preserve">
<g transform="translate(1 1)">
	<g>
		<g>
			<path d="M246.684,343.134v-38.432c30.519-15.467,51.452-47.055,52.053-83.727v-0.022c18.382-0.458,33.28-15.598,33.28-32.405
				c0-19.096-14.659-34.658-33.28-34.574v-1.266c0-5.689-0.634-11.378-1.698-17.067h103.245c4.267,0,7.68-2.56,8.533-6.827
				c0.853-3.413-0.853-7.68-4.267-9.387l-34.987-19.627c-21.303-12.091-42.608-26.907-65.745-46.009
				c10.907-12.622,27.058-20.551,45.265-20.551c5.12,0,8.533-3.413,8.533-8.533s-3.413-8.533-8.533-8.533
				c-23.404,0-44.224,10.285-58.267,26.6c-7.108-6.174-14.405-12.746-21.946-19.773c-16.213-15.36-40.107-23.893-64.853-23.893
				c-24.747,0-48.64,8.533-64.853,24.747c-37.547,34.987-69.12,58.88-100.693,76.8L3.484,120.282
				c-3.413,1.707-5.12,5.973-4.267,9.387c0.853,3.413,4.267,5.973,8.533,5.973h104.098c-1.058,5.659-1.689,11.318-1.696,16.977
				c-18.583,0.076-34.135,15.649-34.135,34.223c0,18.773,15.36,34.133,34.133,34.133c0,36.664,20.745,68.246,51.2,83.716v37.668
				C83.249,355.05,24.817,422.409,24.817,502.575c0,5.12,3.413,8.533,8.533,8.533h76.8h187.733h76.8c5.12,0,8.533-3.413,8.533-8.533
				C383.217,422.409,324.786,355.05,246.684,343.134z M314.951,186.842c0,9.099-7.222,16.572-16.213,17.023v-34.046
				C307.729,170.27,314.951,177.743,314.951,186.842z M47.004,114.309c33.28-18.773,64.853-43.52,104.107-79.36
				c12.8-11.947,32.427-18.773,52.907-18.773c20.48,0,40.107,6.827,52.907,18.773c8.457,7.722,16.557,14.926,24.395,21.669
				c-5.766,10.801-9.035,23.169-9.035,36.357c0,5.12,3.413,8.533,8.533,8.533s8.533-3.413,8.533-8.533
				c0-8.977,1.939-17.448,5.403-25.047c23.143,19.032,44.34,34.005,66.277,46.38l6.827,4.267h-81.92H122.951H40.177L47.004,114.309z
				 M93.084,186.842c0-9.387,7.68-17.067,17.067-17.067v34.133C100.764,203.909,93.084,196.229,93.084,186.842z M127.217,220.975
				v-11.093v-47.787v-9.387c0-5.973,0.853-11.093,1.707-17.067h150.187c0.853,5.973,1.707,11.093,1.707,17.067v11.093v47.787v9.387
				c0,42.667-34.133,76.8-76.8,76.8C161.351,297.775,127.217,263.642,127.217,220.975z M204.017,314.842
				c7.396,0,14.584-0.846,21.479-2.444c1.388-0.297,2.766-0.613,4.121-0.969v38.4v16.213c0,14.507-11.093,25.6-25.6,25.6
				c-14.507,0-25.6-11.093-25.6-25.6v-17.067v-37.547c1.361,0.358,2.745,0.675,4.138,0.973
				C189.443,313.997,196.627,314.842,204.017,314.842z M204.017,408.709c23.893,0,42.667-18.773,42.667-42.667v-5.973
				c5.834,0.972,11.526,2.293,17.067,3.925v61.782H144.284v-61.727c5.549-1.658,11.243-2.997,17.067-3.98v5.973
				C161.351,389.935,180.124,408.709,204.017,408.709z M127.217,370.367v56.701c-14.922,4.182-25.6,18.044-25.6,33.694v33.28H41.884
				C45.373,438.916,79.108,391.785,127.217,370.367z M118.684,494.042v-33.28c0-10.24,8.533-17.92,17.92-17.92h134.827
				c10.24,0,17.92,8.533,17.92,17.92v33.28H118.684z M306.417,494.042v-33.28c0-16.251-11.119-29.567-25.6-33.67V370.23
				c48.537,21.353,81.837,68.568,85.333,123.812H306.417z"/>
			<path d="M255.217,459.909h-102.4c-5.12,0-8.533,3.413-8.533,8.533s3.413,8.533,8.533,8.533h102.4c5.12,0,8.533-3.413,8.533-8.533
				S260.337,459.909,255.217,459.909z"/>
			<path d="M502.684,314.842c-5.12,0-8.533,3.413-8.533,8.533v25.6h-25.6v-25.6c0-5.12-3.413-8.533-8.533-8.533
				c-5.12,0-8.533,3.413-8.533,8.533v25.6h-25.6v-25.6c0-5.12-3.413-8.533-8.533-8.533s-8.533,3.413-8.533,8.533v25.6h-25.6v-25.6
				c0-5.12-3.413-8.533-8.533-8.533s-8.533,3.413-8.533,8.533v25.6h-25.6v-25.6c0-5.12-3.413-8.533-8.533-8.533
				c-5.12,0-8.533,3.413-8.533,8.533v34.133c0,5.12,3.413,8.533,8.533,8.533h76.8v136.533c0,5.12,3.413,8.533,8.533,8.533
				s8.533-3.413,8.533-8.533V366.042h76.8c5.12,0,8.533-3.413,8.533-8.533v-34.133C511.217,318.255,507.804,314.842,502.684,314.842
				z"/>
		</g>
	</g>
</g>
<g>
</g>
<g>
</g>
<g>
</g>
<g>
</g>
<g>
</g>
<g>
</g>
<g>
</g>
<g>
</g>
<g>
</g>
<g>
</g>
<g>
</g>
<g>
</g>
<g>
</g>
<g>
</g>
<g>
</g>
</svg>
