<?xml version="1.0" encoding="iso-8859-1"?>
<!-- Generator: Adobe Illustrator 19.0.0, SVG Export Plug-In . SVG Version: 6.00 Build 0)  -->
<svg version="1.1" id="Layer_1" xmlns="http://www.w3.org/2000/svg" xmlns:xlink="http://www.w3.org/1999/xlink" x="0px" y="0px"
	 viewBox="0 0 512 512" style="enable-background:new 0 0 512 512;" xml:space="preserve">
<g>
	<g>
		<path d="M510.018,116.753l-62.832-85.452c-1.923-2.614-4.973-4.157-8.217-4.157c-3.244,0-6.295,1.544-8.218,4.157l-62.832,85.452
			c-1.288,1.751-1.982,3.869-1.982,6.042v46.511h-36.401v-46.512c0-2.173-0.695-4.291-1.982-6.042L264.721,31.3
			c-1.922-2.614-4.972-4.157-8.216-4.157c-3.244,0-6.295,1.544-8.218,4.157l-62.832,85.452c-1.287,1.751-1.982,3.869-1.982,6.042
			v46.512h-37.411v-46.512c0-2.173-0.695-4.291-1.982-6.042L81.249,31.3c-1.922-2.614-4.972-4.157-8.218-4.157
			c-3.245,0-6.295,1.544-8.217,4.157L1.982,116.753C0.695,118.504,0,120.622,0,122.794v351.863c0,5.632,4.566,10.199,10.199,10.199
			h125.664c5.633,0,10.199-4.567,10.199-10.199v-57.51h37.408v57.51c0,5.632,4.566,10.199,10.199,10.199h125.665
			c5.632,0,10.199-4.567,10.199-10.199v-57.51h36.401v57.51c0,5.632,4.567,10.199,10.199,10.199h125.666
			c5.632,0,10.199-4.567,10.199-10.199V122.795C512,120.622,511.305,118.505,510.018,116.753z M203.87,126.142l52.633-71.582
			l52.634,71.582v43.165H203.87V126.142z M20.398,126.141L73.031,54.56l52.633,71.582v43.165H20.398V126.141z M20.398,250.9h105.266
			v84.653H20.398V250.9z M125.664,464.458H20.398v-47.311h105.266V464.458z M309.137,464.458H203.87v-47.311h105.267V464.458z
			 M491.602,464.458H386.335v-47.311h105.267V464.458z M491.602,396.749H20.398v-40.797h471.203V396.749z M146.063,335.554V250.9
			h37.408v84.653H146.063z M203.87,335.554V250.9h105.267v84.653H203.87z M329.535,335.554V250.9h36.401v84.653H329.535z
			 M491.602,335.554H386.335V250.9h105.267V335.554z M491.602,230.502H20.398v-40.797h471.203V230.502z M491.602,169.307H386.335
			v-43.166l52.633-71.581l52.634,71.581V169.307z"/>
	</g>
</g>
<g>
	<g>
		<path d="M76.494,199.904h-8.159c-5.633,0-10.199,4.567-10.199,10.199c0,5.632,4.566,10.199,10.199,10.199h8.159
			c5.633,0,10.199-4.567,10.199-10.199C86.693,204.472,82.127,199.904,76.494,199.904z"/>
	</g>
</g>
<g>
	<g>
		<path d="M76.494,366.151h-8.159c-5.633,0-10.199,4.567-10.199,10.199c0,5.632,4.566,10.199,10.199,10.199h8.159
			c5.633,0,10.199-4.567,10.199-10.199C86.693,370.719,82.127,366.151,76.494,366.151z"/>
	</g>
</g>
<g>
	<g>
		<path d="M261.1,199.904h-8.159c-5.633,0-10.199,4.567-10.199,10.199c0,5.632,4.566,10.199,10.199,10.199h8.159
			c5.632,0,10.199-4.567,10.199-10.199C271.299,204.472,266.732,199.904,261.1,199.904z"/>
	</g>
</g>
<g>
	<g>
		<path d="M261.1,366.151h-8.159c-5.633,0-10.199,4.567-10.199,10.199c0,5.632,4.566,10.199,10.199,10.199h8.159
			c5.632,0,10.199-4.567,10.199-10.199C271.299,370.719,266.732,366.151,261.1,366.151z"/>
	</g>
</g>
<g>
	<g>
		<path d="M443.665,199.904h-8.159c-5.632,0-10.199,4.567-10.199,10.199c0,5.632,4.567,10.199,10.199,10.199h8.159
			c5.632,0,10.199-4.567,10.199-10.199C453.865,204.472,449.297,199.904,443.665,199.904z"/>
	</g>
</g>
<g>
	<g>
		<path d="M443.665,366.151h-8.159c-5.632,0-10.199,4.567-10.199,10.199c0,5.632,4.567,10.199,10.199,10.199h8.159
			c5.632,0,10.199-4.567,10.199-10.199C453.865,370.719,449.297,366.151,443.665,366.151z"/>
	</g>
</g>
<g>
	<g>
		<path d="M260.031,86.658c-4.526-3.354-10.914-2.403-14.267,2.125l-20.398,27.538c-3.352,4.526-2.401,10.913,2.125,14.266
			c1.826,1.352,3.952,2.005,6.062,2.005c3.121,0,6.203-1.428,8.203-4.13l20.398-27.538C265.509,96.398,264.558,90.01,260.031,86.658
			z"/>
	</g>
</g>
<g>
	<g>
		<path d="M442.596,86.658c-4.526-3.354-10.914-2.401-14.266,2.125l-20.398,27.538c-3.354,4.526-2.402,10.913,2.125,14.266
			c1.826,1.352,3.953,2.005,6.062,2.005c3.122,0,6.203-1.428,8.203-4.13l20.398-27.538C448.074,96.398,447.124,90.01,442.596,86.658
			z"/>
	</g>
</g>
<g>
	<g>
		<path d="M76.445,86.658c-4.526-3.354-10.914-2.403-14.267,2.125L41.78,116.32c-3.352,4.526-2.401,10.913,2.125,14.266
			c1.826,1.352,3.952,2.005,6.062,2.005c3.121,0,6.203-1.428,8.203-4.13l20.398-27.538C81.923,96.398,80.971,90.01,76.445,86.658z"
			/>
	</g>
</g>
<g>
</g>
<g>
</g>
<g>
</g>
<g>
</g>
<g>
</g>
<g>
</g>
<g>
</g>
<g>
</g>
<g>
</g>
<g>
</g>
<g>
</g>
<g>
</g>
<g>
</g>
<g>
</g>
<g>
</g>
</svg>
