<?xml version="1.0" encoding="iso-8859-1"?>
<!-- Generator: Adobe Illustrator 19.0.0, SVG Export Plug-In . SVG Version: 6.00 Build 0)  -->
<svg version="1.1" id="Layer_1" xmlns="http://www.w3.org/2000/svg" xmlns:xlink="http://www.w3.org/1999/xlink" x="0px" y="0px"
	 viewBox="0 0 512 512" style="enable-background:new 0 0 512 512;" xml:space="preserve">
<g>
	<g>
		<path d="M441.647,9.257C441.161,4.011,436.76,0,431.492,0H80.509c-5.268,0-9.668,4.011-10.155,9.257
			C70.239,10.473,59.06,132.327,59.06,256s11.179,245.527,11.293,246.743C70.84,507.989,75.24,512,80.508,512h350.984
			c5.268,0,9.668-4.011,10.155-9.257c0.113-1.216,11.293-123.071,11.293-246.743S441.762,10.473,441.647,9.257z M422.141,491.602
			H89.86c-0.46-5.482-1.089-13.261-1.811-22.911h244.448c5.632,0,10.199-4.566,10.199-10.199c0-5.633-4.567-10.199-10.199-10.199
			H86.589c-3.204-46.905-7.13-119.271-7.13-192.292c0-73.002,3.927-145.377,7.131-192.292h245.907
			c5.632,0,10.199-4.566,10.199-10.199c0-5.633-4.567-10.199-10.199-10.199H88.049c0.722-9.65,1.351-17.428,1.811-22.911h332.281
			C424.71,51.01,432.543,152.859,432.543,256C432.543,359.108,424.709,460.982,422.141,491.602z"/>
	</g>
</g>
<g>
	<g>
		<path d="M397.744,43.31h-26.998c-5.632,0-10.199,4.566-10.199,10.199c0,5.633,4.567,10.199,10.199,10.199h26.998
			c5.632,0,10.199-4.566,10.199-10.199C407.943,47.876,403.376,43.31,397.744,43.31z"/>
	</g>
</g>
<g>
	<g>
		<path d="M397.744,448.292h-26.998c-5.632,0-10.199,4.566-10.199,10.199c0,5.633,4.567,10.199,10.199,10.199h26.998
			c5.632,0,10.199-4.566,10.199-10.199C407.943,452.858,403.376,448.292,397.744,448.292z"/>
	</g>
</g>
<g>
	<g>
		<path d="M256.001,126.556c-71.375,0-129.443,58.068-129.443,129.444s58.068,129.444,129.443,129.444S385.444,327.375,385.444,256
			S327.376,126.556,256.001,126.556z M256.001,236.588c-7.185,0-13.031-5.845-13.031-13.03c0-4.371,5.826-18.363,13.031-33.078
			c7.205,14.715,13.031,28.707,13.031,33.078C269.031,230.742,263.186,236.588,256.001,236.588z M265.623,364.615v-32.128
			l22.011-22.011c4.709,2.457,9.97,3.765,15.433,3.765c8.928,0,17.323-3.477,23.638-9.791c10.129-10.13,21.874-48.376,25.233-59.857
			c1.046-3.577,0.059-7.44-2.576-10.076c-2.635-2.634-6.499-3.624-10.076-2.576c-11.481,3.359-49.727,15.104-59.857,25.233
			c-10.484,10.484-12.528,26.253-6.146,38.806l-7.66,7.66v-48.072c13.757-4.143,23.807-16.922,23.807-32.011
			c0-14.325-18.739-49.674-24.483-60.167c-1.789-3.269-5.22-5.302-8.947-5.302s-7.158,2.033-8.946,5.303
			c-5.744,10.493-24.483,45.842-24.483,60.167c0,14.662,9.493,27.142,22.653,31.637v47.677l-6.633-6.633
			c6.54-12.594,4.536-28.508-6.02-39.063c-10.13-10.129-48.376-21.874-59.857-25.233c-3.574-1.045-7.439-0.058-10.076,2.576
			c-2.635,2.635-3.624,6.499-2.576,10.076c3.359,11.481,15.105,49.727,25.233,59.857c6.313,6.313,14.709,9.791,23.638,9.791
			c5.365,0,10.534-1.264,15.177-3.636l21.113,21.113v32.794c-55.088-5.429-98.269-52.021-98.269-108.513
			c0-60.128,48.917-109.046,109.045-109.046S365.045,195.872,365.045,256C365.045,312.885,321.26,359.728,265.623,364.615z
			 M293.853,271.6c3.09-3.091,17.105-8.866,32.606-14.177c-5.309,15.497-11.082,29.509-14.178,32.605
			c-2.461,2.461-5.733,3.817-9.213,3.817c-3.482,0-6.754-1.355-9.215-3.817C288.773,284.946,288.773,276.68,293.853,271.6z
			 M218.149,290.027c-2.462,2.462-5.734,3.818-9.215,3.818c-3.48,0-6.752-1.355-9.213-3.817
			c-3.091-3.091-8.866-17.106-14.176-32.607c15.496,5.309,29.509,11.083,32.604,14.178
			C223.229,276.679,223.229,284.945,218.149,290.027z"/>
	</g>
</g>
<g>
</g>
<g>
</g>
<g>
</g>
<g>
</g>
<g>
</g>
<g>
</g>
<g>
</g>
<g>
</g>
<g>
</g>
<g>
</g>
<g>
</g>
<g>
</g>
<g>
</g>
<g>
</g>
<g>
</g>
</svg>
