<?xml version="1.0" encoding="iso-8859-1"?>
<!-- Generator: Adobe Illustrator 19.0.0, SVG Export Plug-In . SVG Version: 6.00 Build 0)  -->
<svg version="1.1" id="Layer_1" xmlns="http://www.w3.org/2000/svg" xmlns:xlink="http://www.w3.org/1999/xlink" x="0px" y="0px"
	 viewBox="0 0 512.001 512.001" style="enable-background:new 0 0 512.001 512.001;" xml:space="preserve">
<g>
	<g>
		<path d="M232.989,474.415l-4.292-43.991c-0.547-5.605-5.524-9.701-11.142-9.16c-5.606,0.547-9.708,5.535-9.16,11.142l4.292,43.991
			c0.514,5.27,4.952,9.209,10.139,9.209c0.331,0,0.666-0.016,1.003-0.049C229.435,485.01,233.536,480.021,232.989,474.415z"/>
	</g>
</g>
<g>
	<g>
		<path d="M225.887,401.63l-1.404-14.398c-0.547-5.605-5.523-9.707-11.142-9.16c-5.605,0.547-9.708,5.535-9.16,11.142l1.404,14.398
			c0.514,5.27,4.952,9.209,10.139,9.209c0.331,0,0.666-0.016,1.003-0.049C222.333,412.225,226.435,407.237,225.887,401.63z"/>
	</g>
</g>
<g>
	<g>
		<path d="M345.129,318.037h-47.393c3.87-22.275,20.318-40.994,43.354-48.231c4.25-1.335,7.142-5.275,7.142-9.73
			s-2.891-8.395-7.142-9.73c-8.466-2.66-17.301-4.009-26.258-4.009c-18.085,0-34.857,5.505-48.632,14.858V144.773
			c23.603-0.347,42.699-19.643,42.699-43.326c0-47.643,7.071-77.966,7.139-78.258c0.92-3.845-0.464-7.875-3.552-10.343
			c-3.088-2.467-7.324-2.928-10.871-1.182c-0.439,0.216-10.048,4.972-22.417,13.114c-5.58-9.708-13.414-18.89-15.525-21.299
			C261.736,1.268,258.94,0,256.001,0c-2.939,0-5.735,1.268-7.672,3.479c-2.111,2.409-9.945,11.592-15.525,21.299
			c-12.371-8.142-21.978-12.898-22.417-13.114c-3.544-1.744-7.775-1.282-10.863,1.181c-3.088,2.463-4.475,6.492-3.563,10.335
			c0.071,0.301,7.141,30.623,7.141,78.267c0,23.684,19.096,42.979,42.699,43.326v123.681c-10.294-5.632-22.175-8.857-34.826-8.857
			c-7.491,0-14.882,1.128-21.964,3.354c-4.25,1.336-7.141,5.275-7.141,9.731c0,4.456,2.891,8.394,7.143,9.73
			c17.32,5.441,29.893,19.138,33.592,35.626h-55.733c-5.633,0-10.199,4.566-10.199,10.199v36.187
			c0,5.633,4.566,10.199,10.199,10.199h7.166l12.504,128.169c0.51,5.224,4.902,9.209,10.151,9.209h118.614
			c5.25,0,9.641-3.985,10.151-9.209l12.504-128.169h7.166c5.633,0,10.199-4.566,10.199-10.199v-36.187
			C355.328,322.603,350.762,318.037,345.129,318.037z M267.417,286.664c9.494-9.87,22.316-16.781,36.754-19.087
			c-12.352,10.826-21.18,25.037-25.225,40.895c-0.793,3.108-1.421,6.274-1.835,9.495h-16.706h-9.061
			c0.797-4.528,2.123-8.886,3.9-13.022C258.157,298.163,262.301,291.982,267.417,286.664z M256.001,26.588
			c2.625,3.624,4.966,7.225,6.572,10.214c-0.251,0.2-0.511,0.398-0.759,0.598c-2.009,1.617-3.94,3.25-5.814,4.89
			c-1.874-1.639-3.804-3.272-5.814-4.89c-0.248-0.2-0.509-0.398-0.759-0.598C251.035,33.813,253.377,30.211,256.001,26.588z
			 M223.501,101.446c0-25.748-1.939-46.555-3.872-60.902c0.064,0.042,0.13,0.083,0.194,0.124c0.723,0.466,1.457,0.945,2.203,1.439
			c0.075,0.05,13.282,9.503,15.372,11.184c1.423,1.144,2.79,2.296,4.132,3.449c-0.925,1.076-1.827,2.151-2.682,3.222
			c-1.56,1.955-3.036,3.946-4.385,5.917c-3.182,4.648-1.994,10.996,2.655,14.177c1.761,1.207,3.767,1.785,5.752,1.785
			c3.251,0,6.449-1.552,8.424-4.439c1.069-1.562,2.246-3.147,3.496-4.716c2.436-3.052,5.255-6.164,8.379-9.252
			c3.409-3.369,7.256-6.781,11.432-10.144c2.15-1.73,4.406-3.456,6.736-5.165c0.877-0.644,4.778-3.417,5.865-4.158
			c0.865-0.591,2.674-1.797,2.73-1.834c0.792-0.523,1.571-1.032,2.337-1.526c0.034-0.022,0.068-0.044,0.102-0.065
			c-1.933,14.347-3.872,35.155-3.872,60.903c0,12.651-10.293,22.944-22.944,22.944c-2.245,0-4.471-0.327-6.619-0.973
			c-0.958-0.288-1.947-0.431-2.936-0.431c-0.989,0-1.979,0.144-2.936,0.431c-2.148,0.646-4.375,0.973-6.619,0.973
			C233.794,124.391,223.501,114.097,223.501,101.446z M240.404,289.026c-1.469,2.592-2.786,5.273-3.962,8.024
			c-2.848-5.418-6.42-10.446-10.635-14.942C231.095,283.657,236.008,286.019,240.404,289.026z M306.056,491.602H205.947
			l-11.413-116.979h122.934L306.056,491.602z M334.93,354.224H177.072v-15.788H334.93V354.224z"/>
	</g>
</g>
<g>
</g>
<g>
</g>
<g>
</g>
<g>
</g>
<g>
</g>
<g>
</g>
<g>
</g>
<g>
</g>
<g>
</g>
<g>
</g>
<g>
</g>
<g>
</g>
<g>
</g>
<g>
</g>
<g>
</g>
</svg>
