<?xml version="1.0" encoding="iso-8859-1"?>
<!-- Generator: Adobe Illustrator 19.0.0, SVG Export Plug-In . SVG Version: 6.00 Build 0)  -->
<svg version="1.1" id="Layer_1" xmlns="http://www.w3.org/2000/svg" xmlns:xlink="http://www.w3.org/1999/xlink" x="0px" y="0px"
	 viewBox="0 0 512 512" style="enable-background:new 0 0 512 512;" xml:space="preserve">
<g>
	<g>
		<g>
			<polygon points="370.717,124.54 370.721,124.539 370.713,124.542 			"/>
			<path d="M432.381,111.233l0.979-0.469c25.413-11.011,39.309-34.643,39.896-35.657c1.571-2.715,1.788-6.006,0.588-8.905
				c-1.2-2.899-3.682-5.072-6.712-5.881c-1.147-0.307-28.395-7.375-54.475,3.422c10.796-26.08,3.728-53.327,3.422-54.474
				c-0.808-3.031-2.982-5.512-5.881-6.712c-2.898-1.201-6.19-0.984-8.905,0.588C400.264,3.741,376,18.009,365.193,44.084
				C354.386,18.008,330.122,3.74,329.094,3.146c-2.716-1.571-6.006-1.789-8.905-0.588c-2.898,1.2-5.073,3.682-5.881,6.712
				c-0.306,1.147-7.375,28.394,3.423,54.474c-26.081-10.797-53.328-3.728-54.475-3.422c-3.031,0.809-5.512,2.982-6.712,5.881
				c-1.2,2.898-0.984,6.189,0.588,8.905c0.595,1.028,14.862,25.292,40.939,36.099c-26.077,10.807-40.344,35.071-40.939,36.099
				c-1.571,2.715-1.788,6.007-0.588,8.905s3.682,5.072,6.712,5.881c0.655,0.175,9.818,2.554,22.414,2.554
				c9.465,0,20.87-1.344,32.059-5.977c-10.796,26.08-3.729,53.327-3.423,54.474c1.68,6.296,9.123,9.401,14.786,6.125
				c1.028-0.595,25.292-14.863,36.099-40.938c10.807,26.076,35.071,40.344,36.099,40.938c5.662,3.277,13.105,0.172,14.786-6.125
				c0.306-1.147,7.375-28.394-3.422-54.474c11.19,4.633,22.593,5.977,32.059,5.976c12.594,0,21.759-2.38,22.414-2.554
				c3.031-0.809,5.512-2.982,6.712-5.881c1.2-2.899,0.984-6.189-0.588-8.905C472.66,146.278,458.414,122.055,432.381,111.233z
				 M420.358,82.373c8.654-3.585,17.709-4.513,25.165-4.44c-5.211,5.325-12.281,11.073-20.934,14.656
				c-8.646,3.581-17.705,4.515-25.143,4.44C404.666,91.698,411.738,85.944,420.358,82.373z M383.812,51.812
				c3.581-8.646,9.321-15.71,14.639-20.918c0.079,7.461-0.853,16.529-4.423,25.15c-3.585,8.654-9.333,15.724-14.656,20.935
				C379.293,69.529,380.228,60.465,383.812,51.812z M310.031,140.042c-8.646,3.581-17.703,4.519-25.142,4.44
				c5.22-5.332,12.291-11.086,20.911-14.657c8.646-3.581,17.701-4.514,25.142-4.44C325.723,130.717,318.651,136.471,310.031,140.042
				z M305.8,92.59c-8.646-3.581-15.71-9.321-20.918-14.639c7.444-0.081,16.53,0.853,25.149,4.423
				c8.654,3.585,15.724,9.333,20.934,14.655C323.513,97.108,314.452,96.173,305.8,92.59z M331.921,30.879
				c5.325,5.211,11.071,12.281,14.656,20.934s4.519,17.717,4.44,25.165c-5.325-5.211-11.073-12.281-14.656-20.934
				C332.776,47.391,331.841,38.328,331.921,30.879z M346.578,170.602c-3.581,8.646-9.321,15.71-14.639,20.918
				c-0.079-7.461,0.853-16.53,4.423-25.151c3.584-8.654,9.332-15.724,14.655-20.934C351.097,152.887,350.162,161.95,346.578,170.602
				z M370.717,124.54c-0.289,0.12-0.149,0.062-0.005,0.002c-5.567,2.303-12.198,0.778-16.226-3.682
				c-4.178-4.626-4.865-11.61-1.701-16.977c3.037-5.151,9.155-7.976,15.048-6.853c5.753,1.097,10.362,5.622,11.504,11.375
				c1.318,6.641-2.359,13.539-8.615,16.133C370.866,124.479,371.007,124.42,370.717,124.54z M398.468,191.536
				c-5.325-5.211-11.071-12.281-14.656-20.934c-3.585-8.653-4.519-17.717-4.44-25.166c5.325,5.212,11.072,12.282,14.656,20.934
				C397.613,175.024,398.549,184.088,398.468,191.536z M420.358,140.042c-8.646-3.581-15.71-9.321-20.918-14.639
				c7.46-0.079,16.531,0.854,25.149,4.422c8.654,3.585,15.724,9.333,20.935,14.657C438.07,144.558,429.01,143.626,420.358,140.042z"
				/>
		</g>
	</g>
</g>
<g>
	<g>
		<path d="M213.927,153.661c26.076-10.807,40.344-35.071,40.939-36.099c1.571-2.715,1.788-6.007,0.588-8.905
			c-1.2-2.898-3.682-5.072-6.712-5.881c-1.147-0.307-28.394-7.376-54.475,3.423c10.796-26.08,3.729-53.327,3.423-54.474
			c-0.808-3.031-2.982-5.512-5.881-6.712c-2.898-1.2-6.19-0.984-8.905,0.588c-1.028,0.595-25.292,14.863-36.099,40.938
			c-10.807-26.076-35.071-40.344-36.099-40.938c-2.715-1.571-6.007-1.789-8.905-0.588c-2.898,1.2-5.073,3.682-5.881,6.712
			c-0.306,1.147-7.375,28.394,3.422,54.474c-26.079-10.795-53.326-3.727-54.475-3.422c-3.031,0.809-5.512,2.982-6.712,5.881
			s-0.984,6.189,0.588,8.905c0.595,1.028,14.863,25.292,40.939,36.099c-26.075,10.807-40.344,35.071-40.939,36.099
			c-1.571,2.715-1.788,6.006-0.588,8.905c1.2,2.899,3.682,5.072,6.712,5.881c0.655,0.175,9.818,2.554,22.414,2.554
			c9.466,0,20.87-1.344,32.059-5.976c-10.796,26.081-3.728,53.327-3.422,54.474c0.808,3.031,2.982,5.512,5.881,6.712
			c1.239,0.513,2.549,0.767,3.856,0.767c1.751,0,3.494-0.456,5.048-1.356c0.77-0.445,14.593-8.573,26.02-23.594v61.11
			c0,5.566,4.512,10.079,10.079,10.079c5.566,0,10.079-4.512,10.079-10.079v-61.11c11.427,15.022,25.25,23.15,26.02,23.595
			c1.554,0.9,3.298,1.356,5.048,1.356c1.306,0,2.617-0.254,3.856-0.767c2.898-1.2,5.073-3.682,5.881-6.712
			c0.306-1.147,7.375-28.394-3.423-54.474c11.191,4.633,22.594,5.977,32.059,5.976c12.594,0,21.759-2.38,22.414-2.554
			c3.031-0.809,5.512-2.982,6.712-5.881c1.2-2.898,0.984-6.189-0.588-8.905C254.271,188.732,240.003,164.468,213.927,153.661z
			 M201.969,124.827c8.645-3.581,17.693-4.523,25.142-4.44c-5.22,5.332-12.291,11.086-20.911,14.656
			c-8.646,3.581-17.698,4.514-25.142,4.44C186.277,134.152,193.349,128.398,201.969,124.827z M165.422,94.267
			c3.581-8.646,9.321-15.71,14.639-20.918c0.08,7.461-0.852,16.529-4.423,25.149c-3.584,8.654-9.332,15.724-14.655,20.934
			C160.903,111.981,161.838,102.918,165.422,94.267z M91.642,182.495c-8.655,3.585-17.706,4.514-25.166,4.44
			c5.211-5.325,12.281-11.073,20.934-14.656c8.646-3.581,17.709-4.515,25.143-4.44C107.334,173.17,100.262,178.924,91.642,182.495z
			 M87.41,135.043c-8.653-3.585-15.724-9.333-20.934-14.656c7.446-0.084,16.513,0.856,25.166,4.439
			c8.646,3.581,15.709,9.321,20.917,14.639C105.097,139.544,96.03,138.614,87.41,135.043z M113.532,73.332
			c5.325,5.211,11.071,12.281,14.656,20.934s4.519,17.717,4.44,25.166c-5.325-5.212-11.073-12.282-14.657-20.935
			C114.387,89.844,113.451,80.781,113.532,73.332z M128.188,213.056c-3.581,8.646-9.321,15.71-14.639,20.918
			c-0.079-7.461,0.853-16.529,4.423-25.149c3.585-8.654,9.333-15.724,14.657-20.935
			C132.707,195.341,131.772,204.403,128.188,213.056z M144.335,167.858c-5.816-1.023-10.52-5.598-11.671-11.394
			c-1.141-5.749,1.446-11.817,6.392-14.961c5.201-3.306,12.089-2.905,16.868,0.987c5.412,4.405,6.843,12.313,3.37,18.361
			C156.31,166.047,150.242,168.897,144.335,167.858z M180.079,233.989c-5.325-5.211-11.071-12.281-14.656-20.934
			s-4.519-17.717-4.44-25.165c5.325,5.211,11.073,12.281,14.656,20.934C179.224,217.478,180.159,226.541,180.079,233.989z
			 M201.969,182.495c-8.654-3.585-15.724-9.332-20.935-14.656c7.456-0.07,16.513,0.856,25.166,4.439
			c8.646,3.581,15.71,9.321,20.917,14.639C219.661,186.99,210.587,186.065,201.969,182.495z"/>
	</g>
</g>
<g>
	<g>
		<path d="M501.921,321.41H375.274V218.042c0-5.566-4.512-10.079-10.079-10.079c-5.566,0-10.079,4.512-10.079,10.079V321.41H10.079
			C4.512,321.41,0,325.923,0,331.489v48.378c0,5.566,4.512,10.079,10.079,10.079h1.715l17.187,111.718
			c0.756,4.916,4.987,8.546,9.962,8.546h434.116c4.975,0,9.205-3.629,9.962-8.546l17.187-111.718h1.713
			c5.566,0,10.079-4.512,10.079-10.079v-48.378C512,325.923,507.488,321.41,501.921,321.41z M491.843,369.788h-0.283
			c-4.975,0-9.205,3.629-9.962,8.546L464.41,490.052H47.589l-15.4-100.106H355.78c5.566,0,10.079-4.512,10.079-10.079
			c0-5.567-4.512-10.079-10.079-10.079H20.441h-0.283v-28.22h471.685V369.788z"/>
	</g>
</g>
<g>
	<g>
		<path d="M444.472,369.788h-43.339c-5.566,0-10.079,4.512-10.079,10.079c0,5.566,4.512,10.079,10.079,10.079h43.339
			c5.567,0,10.079-4.512,10.079-10.079C454.551,374.301,450.039,369.788,444.472,369.788z"/>
	</g>
</g>
<g>
</g>
<g>
</g>
<g>
</g>
<g>
</g>
<g>
</g>
<g>
</g>
<g>
</g>
<g>
</g>
<g>
</g>
<g>
</g>
<g>
</g>
<g>
</g>
<g>
</g>
<g>
</g>
<g>
</g>
</svg>
