<?xml version="1.0" encoding="iso-8859-1"?>
<!-- Generator: Adobe Illustrator 19.0.0, SVG Export Plug-In . SVG Version: 6.00 Build 0)  -->
<svg version="1.1" id="Layer_1" xmlns="http://www.w3.org/2000/svg" xmlns:xlink="http://www.w3.org/1999/xlink" x="0px" y="0px"
	 viewBox="0 0 512.001 512.001" style="enable-background:new 0 0 512.001 512.001;" xml:space="preserve">
<g>
	<g>
		<path d="M142.216,482.132c-3.983-3.982-10.44-3.982-14.424,0l-12.456,12.457c-3.983,3.983-3.983,10.441,0,14.425
			c1.992,1.991,4.602,2.987,7.212,2.987c2.61,0,5.221-0.996,7.212-2.987l12.456-12.457
			C146.199,492.574,146.199,486.115,142.216,482.132z"/>
	</g>
</g>
<g>
	<g>
		<path d="M512,30.976c0-8.274-3.222-16.053-9.073-21.903l-0.001-0.001C497.077,3.222,489.298,0,481.024,0
			c-8.274,0-16.052,3.222-21.905,9.073L173.362,294.83l-5.269-5.269c-19.968-19.968-52.46-19.968-72.428,0L2.988,382.24
			c-3.983,3.983-3.983,10.441,0,14.425c3.983,3.982,10.441,3.982,14.425,0l92.678-92.678c12.014-12.016,31.565-12.016,43.579,0
			l0.75,0.75L39.108,420.045c-3.983,3.983-3.983,10.441,0,14.425c1.992,1.991,4.602,2.987,7.212,2.987s5.221-0.996,7.212-2.987
			l115.309-115.309l23.999,23.999L77.4,458.599c-3.983,3.983-3.983,10.441,0,14.425c1.991,1.991,4.602,2.987,7.212,2.987
			s5.221-0.996,7.212-2.987l115.441-115.441l0.75,0.75c5.821,5.82,9.025,13.559,9.025,21.79c0,8.23-3.206,15.969-9.026,21.789
			l-55.1,55.1c-3.983,3.983-3.983,10.441,0,14.425c1.992,1.991,4.602,2.987,7.212,2.987s5.221-0.996,7.212-2.987l55.099-55.1
			c9.673-9.673,15.001-22.534,15.001-36.213c0-13.68-5.327-26.54-15-36.214l-5.269-5.269L502.927,52.881
			C508.778,47.029,512,39.25,512,30.976z M488.504,38.456L202.745,324.214l-14.959-14.959L473.544,23.497
			c1.998-1.998,4.654-3.099,7.48-3.099c2.825,0,5.481,1.099,7.479,3.098c0,0,0,0.001,0.001,0.001
			c1.998,1.998,3.097,4.654,3.097,7.479C491.602,33.802,490.502,36.458,488.504,38.456z"/>
	</g>
</g>
<g>
</g>
<g>
</g>
<g>
</g>
<g>
</g>
<g>
</g>
<g>
</g>
<g>
</g>
<g>
</g>
<g>
</g>
<g>
</g>
<g>
</g>
<g>
</g>
<g>
</g>
<g>
</g>
<g>
</g>
</svg>
