<?xml version="1.0" encoding="iso-8859-1"?>
<!-- Generator: Adobe Illustrator 19.0.0, SVG Export Plug-In . SVG Version: 6.00 Build 0)  -->
<svg version="1.1" id="Layer_1" xmlns="http://www.w3.org/2000/svg" xmlns:xlink="http://www.w3.org/1999/xlink" x="0px" y="0px"
	 viewBox="0 0 512 512" style="enable-background:new 0 0 512 512;" xml:space="preserve">
<g transform="translate(1 1)">
	<g>
		<g>
			<path d="M340.333,212.333H169.667c-5.12,0-8.533,3.413-8.533,8.533v102.4c0,5.12,3.413,8.533,8.533,8.533h170.667
				c5.12,0,8.533-3.413,8.533-8.533v-102.4C348.867,215.747,345.453,212.333,340.333,212.333z M331.8,314.733H178.2V229.4h39.253
				l65.707,65.707c1.707,1.707,3.413,2.56,5.973,2.56s4.267-0.853,5.973-2.56c3.413-3.413,3.413-8.533,0-11.947l-53.76-53.76H331.8
				V314.733z"/>
			<path d="M212.333,434.2H229.4c9.387,0,17.067-7.68,17.067-17.067v-17.067c0-9.387-7.68-17.067-17.067-17.067h-17.067
				c-9.387,0-17.067,7.68-17.067,17.067v17.067C195.267,426.52,202.947,434.2,212.333,434.2z M212.333,400.067H229.4v17.067h-17.067
				V400.067z"/>
			<path d="M280.6,434.2h17.067c9.387,0,17.067-7.68,17.067-17.067v-17.067c0-9.387-7.68-17.067-17.067-17.067H280.6
				c-9.387,0-17.067,7.68-17.067,17.067v17.067C263.533,426.52,271.213,434.2,280.6,434.2z M280.6,400.067h17.067v17.067H280.6
				V400.067z"/>
			<path d="M474.307,89.453C419.693,35.693,331.8-1,255-1C176.493-1,85.187,38.253,32.28,93.72C10.947,115.907-1,146.627-1,179.053
				v323.413c0,5.12,3.413,8.533,8.533,8.533h34.133h64.853h7.68h282.453h7.68h64h34.133c5.12,0,8.533-3.413,8.533-8.533V179.053
				C511,144.92,498.2,113.347,474.307,89.453z M459.8,493.933h-28.581c1.905-3.902,2.981-8.25,2.981-12.8v-46.932
				c0-0.001,0-0.002,0-0.002v-11.945c0-16.213-12.8-29.867-29.867-29.867h-7.68c-16.213,0-29.867,12.8-29.867,29.867v8.356
				c-1.125,2.288-1.125,4.893,0,7.181v4.943h-17.92v-76.8h25.6c4.267,0,8.533-3.413,8.533-8.533l8.533-170.667
				c0-1.707-0.853-4.267-2.56-5.973c-1.707-1.707-3.413-2.56-5.973-2.56H127c-1.707,0-4.267,0.853-5.973,2.56
				s-2.56,3.413-2.56,5.973L127,357.4c0,5.12,4.267,8.533,8.533,8.533h25.6v76.8h-17.92v-20.48
				c0-16.213-13.653-29.867-29.867-29.867h-7.68c-16.213,0-29.867,12.8-29.867,29.867v58.88c0,4.55,1.076,8.898,3,12.8H50.2V169.667
				c0-9.387,7.68-17.067,17.067-17.067h375.467c9.387,0,17.067,7.68,17.067,17.067V493.933z M126.147,430.011l-17.067,17.842
				l-16.213-16.95V421.4c0-6.827,5.973-12.8,12.8-12.8h7.68c6.827,0,12.8,5.973,12.8,12.8V430.011z M92.867,455.18l10.24,10.593
				c1.707,1.707,3.413,2.56,5.973,2.56s3.413-0.853,5.973-2.56l11.093-11.476v25.983c0,6.827-5.973,12.8-12.8,12.8h-7.68
				c-6.827,0-12.8-5.973-12.8-12.8V455.18z M143.213,481.133V459.8h17.92v8.533c0,5.12,3.413,8.533,8.533,8.533h170.667
				c5.12,0,8.533-3.413,8.533-8.533V459.8h17.92v21.333c0,4.55,1.009,8.898,2.836,12.8H140.768
				C142.549,490.032,143.453,485.683,143.213,481.133z M340.333,348.867H169.667h-25.6l-7.68-153.6h237.227l-7.68,153.6H340.333z
				 M331.8,365.933V459.8H178.2v-93.867H331.8z M383,454.68l11.093,11.093c1.707,1.707,3.413,2.56,5.973,2.56
				s4.267-0.853,5.973-2.56l10.24-10.24v24.747c0,6.827-5.973,12.8-12.8,12.8h-7.68c-6.827,0-12.8-5.973-12.8-12.8V454.68z
				 M416.28,431.64l-16.213,16.213L383,430.787V421.4c0-6.827,5.973-12.8,12.8-12.8h7.68c6.827,0,12.8,5.973,12.8,12.8V431.64z
				 M493.933,493.933h-17.067V169.667c0-18.773-15.36-34.133-34.133-34.133H67.267c-18.773,0-34.133,15.36-34.133,34.133v324.267
				H16.067v-314.88c0-28.16,10.24-54.613,28.16-74.24C94.573,52.76,180.76,16.067,255,16.067c71.68,0,157.013,34.987,206.507,85.333
				c21.333,20.48,32.427,47.787,32.427,77.653V493.933z"/>
			<path d="M280.6,41.667h-51.2c-33.28,0-59.733,26.453-59.733,59.733c0,5.12,3.413,8.533,8.533,8.533h153.6
				c5.12,0,8.533-3.413,8.533-8.533C340.333,68.12,313.88,41.667,280.6,41.667z M187.587,92.867
				c4.267-19.627,21.333-34.133,41.813-34.133h51.2c20.48,0,37.547,14.507,41.813,34.133H187.587z"/>
		</g>
	</g>
</g>
<g>
</g>
<g>
</g>
<g>
</g>
<g>
</g>
<g>
</g>
<g>
</g>
<g>
</g>
<g>
</g>
<g>
</g>
<g>
</g>
<g>
</g>
<g>
</g>
<g>
</g>
<g>
</g>
<g>
</g>
</svg>
