<?xml version="1.0" encoding="iso-8859-1"?>
<!-- Generator: Adobe Illustrator 19.0.0, SVG Export Plug-In . SVG Version: 6.00 Build 0)  -->
<svg version="1.1" id="Layer_1" xmlns="http://www.w3.org/2000/svg" xmlns:xlink="http://www.w3.org/1999/xlink" x="0px" y="0px"
	 viewBox="0 0 512.001 512.001" style="enable-background:new 0 0 512.001 512.001;" xml:space="preserve">
<g>
	<g>
		<path d="M241.809,346.619c1.831-9.738,2.764-19.699,2.773-29.606l0.068-73.807c0-14.021-10.775-25.362-24.52-26.082
			c-2.636-0.139-5.982,0.44-5.982,0.44v-18.4c0-8.202-3.368-16.211-9.241-21.974c-5.771-5.664-13.354-8.71-21.273-8.552
			c-3.196,0.06-6.277,0.626-9.162,1.621c-0.608-17.458-14.198-31.425-31.439-32.037c-8.942-0.328-17.39,2.915-23.803,9.104
			c-6.288,6.068-9.821,14.189-9.997,22.932c-2.888-0.995-5.97-1.562-9.169-1.621c-7.989-0.151-15.548,2.899-21.34,8.585
			c-5.873,5.765-9.242,13.762-9.242,21.941v33.024c-10.228-14.394-29.608-20.306-46.388-13.138
			c-9.383,4.008-16.63,11.539-20.406,21.209c-3.824,9.79-3.559,20.871,0.726,30.403l45.508,101.233
			c8.957,19.926,9.849,41.725,9.466,63.195c0.062,11.787,9.67,21.356,21.47,21.356h143.141c11.839,0,21.471-9.632,21.471-21.462
			l0.039-41.52c0.002-1.838-0.247-3.671-0.741-5.447c-0.001-0.003-0.001-0.006-0.002-0.009c-0.829-2.979-2.355-5.772-4.414-8.076
			l-2.085-2.335c-0.665-0.745-0.952-1.776-0.767-2.758L241.809,346.619z M224.071,434.974c0,0.591-0.48,1.071-1.071,1.071H79.861
			c-0.591,0-1.071-0.48-1.071-1.071l-0.455-23.354c-0.069-3.555-0.297-7.122-0.679-10.679h146.447L224.071,434.974z M224.18,316.994
			c-0.008,8.653-0.823,17.352-2.421,25.857l-5.306,28.219c-0.594,3.157-0.519,6.385,0.167,9.473H73.71
			c-1.644-5.824-3.713-11.52-6.181-17.01L22.021,262.299c-2.053-4.569-2.174-9.897-0.331-14.617c1.768-4.527,5.112-8.032,9.417-9.87
			c8.937-3.817,19.457,0.293,23.447,9.166l15.826,35.205c1.972,4.386,6.74,6.8,11.441,5.792c4.702-1.009,8.061-5.164,8.061-9.974
			v-78.835c0-2.739,1.141-5.428,3.131-7.382c1.852-1.819,4.223-2.804,6.669-2.749c5.263,0.099,9.544,4.41,9.544,9.611v52.167
			c0,5.633,4.566,10.2,10.2,10.2s10.2-4.566,10.2-10.2v-79.869c0-3.417,1.339-6.591,3.77-8.937c2.393-2.308,5.558-3.517,8.912-3.397
			c6.498,0.23,11.785,6.006,11.785,12.874v95.179c0,5.633,4.567,10.2,10.2,10.2c5.633,0,10.2-4.566,10.2-10.2v-68.018
			c0-5.201,4.272-9.512,9.523-9.611c2.427-0.046,4.771,0.919,6.602,2.715c1.989,1.952,3.129,4.654,3.129,7.415v90.764h0.002
			c0,5.633,4.567,10.2,10.2,10.2c5.633,0,10.2-4.567,10.2-10.2v-49.339c0.803-1.72,2.628-3.193,5.084-3.086
			c2.766,0.122,5.016,2.68,5.016,5.693L224.18,316.994z"/>
	</g>
</g>
<g>
	<g>
		<path d="M119.428,268.689c-5.633,0-10.2,4.566-10.2,10.2v5.671c0,5.633,4.566,10.2,10.2,10.2s10.2-4.566,10.2-10.2v-5.671
			C129.628,273.255,125.062,268.689,119.428,268.689z"/>
	</g>
</g>
<g>
	<g>
		<path d="M509.312,157.613c-3.777-9.669-11.024-17.201-20.406-21.208c-16.78-7.167-36.16-1.255-46.388,13.138v-33.024
			c0-8.179-3.369-16.177-9.243-21.942c-5.793-5.685-13.362-8.724-21.34-8.585c-3.199,0.06-6.281,0.626-9.168,1.622
			c-0.174-8.744-3.709-16.865-9.996-22.932c-6.413-6.188-14.86-9.427-23.804-9.104c-17.24,0.613-30.83,14.58-31.438,32.038
			c-2.886-0.996-5.966-1.562-9.162-1.622c-7.943-0.138-15.502,2.889-21.273,8.552c-5.872,5.763-9.241,13.773-9.241,21.975v18.399
			c-1.939-0.375-3.941-0.529-5.981-0.441c-13.748,0.605-24.52,12.062-24.52,26.092l0.068,73.797
			c0.009,9.907,0.941,19.868,2.773,29.606l5.306,28.22c0.185,0.981-0.103,2.012-0.767,2.757l-2.086,2.336
			c-2.058,2.305-3.583,5.097-4.411,8.075c-0.001,0.003-0.001,0.006-0.002,0.009c-0.494,1.777-0.743,3.61-0.741,5.446l0.039,41.512
			c0,11.839,9.632,21.471,21.471,21.471H432.14c11.8,0,21.409-9.569,21.47-21.356l0.451-23.07c0.125-6.398,0.864-12.85,2.197-19.174
			v-0.001c1.522-7.221,3.816-14.269,6.819-20.95l45.508-101.232C512.87,178.485,513.136,167.403,509.312,157.613z M433.666,328.975
			l-0.455,23.353c0,0.591-0.48,1.071-1.071,1.071H289c-0.591,0-1.071-0.48-1.071-1.08l-0.034-34.024h146.45
			C433.963,321.853,433.735,325.42,433.666,328.975z M489.978,179.652L444.47,280.884c-2.468,5.491-4.537,11.185-6.181,17.01H295.38
			c0.685-3.088,0.761-6.315,0.167-9.472l-5.306-28.219c-1.598-8.505-2.413-17.204-2.421-25.857l-0.068-73.788
			c0-3.022,2.25-5.58,5.016-5.703c2.463-0.104,4.282,1.367,5.084,3.085v49.339c0,5.633,4.567,10.2,10.2,10.2s10.2-4.566,10.2-10.2
			v-90.761h0.001c0-2.76,1.141-5.463,3.13-7.415c1.83-1.796,4.186-2.759,6.601-2.715c5.251,0.099,9.524,4.41,9.524,9.611v40.478
			c0,5.633,4.566,10.2,10.2,10.2s10.2-4.566,10.2-10.2V88.837c0-6.868,5.287-12.643,11.784-12.874
			c3.363-0.13,6.52,1.087,8.913,3.397c2.432,2.346,3.77,5.52,3.77,8.937v95.72c0,5.633,4.566,10.2,10.2,10.2s10.2-4.566,10.2-10.2
			v-68.018c0-5.201,4.282-9.512,9.544-9.611c2.47-0.043,4.816,0.93,6.669,2.749c1.99,1.953,3.131,4.644,3.131,7.382v78.835
			c0,4.809,3.359,8.965,8.061,9.974c4.705,1.008,9.47-1.406,11.441-5.792l15.826-35.205c3.988-8.872,14.506-12.984,23.447-9.166
			c4.304,1.838,7.648,5.344,9.416,9.869C492.152,169.754,492.032,175.082,489.978,179.652z"/>
	</g>
</g>
<g>
	<g>
		<path d="M347.706,176.441c-5.633,0-10.2,4.567-10.2,10.2v6.605c0,5.633,4.566,10.2,10.2,10.2s10.2-4.567,10.2-10.2v-6.605
			C357.906,181.007,353.34,176.441,347.706,176.441z"/>
	</g>
</g>
<g>
</g>
<g>
</g>
<g>
</g>
<g>
</g>
<g>
</g>
<g>
</g>
<g>
</g>
<g>
</g>
<g>
</g>
<g>
</g>
<g>
</g>
<g>
</g>
<g>
</g>
<g>
</g>
<g>
</g>
</svg>
