<?xml version="1.0" encoding="iso-8859-1"?>
<!-- Generator: Adobe Illustrator 19.0.0, SVG Export Plug-In . SVG Version: 6.00 Build 0)  -->
<svg version="1.1" id="Layer_1" xmlns="http://www.w3.org/2000/svg" xmlns:xlink="http://www.w3.org/1999/xlink" x="0px" y="0px"
	 viewBox="0 0 512.432 512.432" style="enable-background:new 0 0 512.432 512.432;" xml:space="preserve">
<g transform="translate(1 1)">
	<g>
		<g>
			<path d="M204.016,408.597c0,5.12,3.413,8.533,8.533,8.533h85.333c5.12,0,8.533-3.413,8.533-8.533s-3.413-8.533-8.533-8.533
				h-85.333C207.429,400.063,204.016,403.477,204.016,408.597z"/>
			<path d="M349.082,246.463h-21.799l-21.721-17.067c-10.296-7.874-23.171-10.152-34.964-6.849
				c3.303-11.794,1.025-24.668-6.849-34.964l-17.067-21.721v-21.799c0-5.12-3.413-8.533-8.533-8.533
				c-5.12,0-8.533,3.413-8.533,8.533v21.799l-17.067,21.721c-11.093,14.507-11.093,34.133,0,48.64l18.094,23.029
				c0.344,0.619,0.785,1.201,1.345,1.73c0.028,0.031,0.058,0.057,0.086,0.088c0.031,0.028,0.057,0.058,0.088,0.086
				c0.529,0.56,1.111,1.001,1.73,1.345l23.029,18.094c6.827,5.973,15.36,8.533,23.893,8.533s17.067-2.56,24.747-8.533l21.721-17.067
				h21.799c5.12,0,8.533-3.413,8.533-8.533C357.616,249.877,354.202,246.463,349.082,246.463z M226.202,198.677l11.947-15.36
				l12.8,15.36c6.827,8.533,6.827,19.627,0,27.307l-12.8,15.36l-11.947-15.36C219.376,217.45,219.376,206.357,226.202,198.677z
				 M294.469,266.943c-8.533,5.973-19.627,6.827-27.307,0l-15.36-11.947l15.36-12.8c8.533-5.973,19.627-5.973,27.307,0l15.36,12.8
				L294.469,266.943z"/>
			<path d="M360.176,121.023l-14.747,14.747l-27.067,2.32c-17.92,1.707-32.427,16.213-34.133,34.133l-3.413,30.72
				c0,2.56,0.853,5.12,2.56,6.827c1.707,1.707,3.413,2.56,5.973,2.56h0.853l30.72-3.413c17.92-1.707,32.427-16.213,34.133-34.133
				l2.32-27.067l14.747-14.747c3.413-3.413,3.413-8.533,0-11.947S363.589,117.61,360.176,121.023z M337.136,172.223
				c-0.853,9.387-8.533,17.92-18.773,18.773l-19.627,2.56l2.56-19.627c0.853-9.387,8.533-17.92,18.773-18.773l19.627-1.707
				L337.136,172.223z"/>
			<path d="M207.766,346.568c4.27,1.566,8.792,2.295,13.316,2.295c8.533,0,17.067-2.56,24.747-8.533l21.721-17.067h21.799
				c5.12,0,8.533-3.413,8.533-8.533s-3.413-8.533-8.533-8.533H267.55l-21.721-17.067c-10.296-7.874-23.171-10.152-34.964-6.849
				c3.303-11.794,1.025-24.668-6.849-34.964l-17.067-21.721v-21.799c0-5.12-3.413-8.533-8.533-8.533
				c-5.12,0-8.533,3.413-8.533,8.533v21.799l-17.067,21.721c-8.665,11.331-10.561,25.785-5.691,38.483
				c-7.252,7.696-11.376,18.308-11.376,28.93c0,8.833,2.572,16.963,7.013,23.707l-12.987,12.987c-3.413,3.413-3.413,8.533,0,11.947
				c1.707,1.707,3.413,2.56,5.973,2.56s4.267-0.853,5.973-2.56l12.987-12.987c6.744,4.442,14.873,7.013,23.707,7.013
				C189.008,357.397,199.592,353.298,207.766,346.568z M161.981,334.605c-0.39-0.692-0.882-1.351-1.486-1.955
				s-1.263-1.095-1.955-1.486c-3.602-4.397-5.725-10.089-5.725-16.434c0-5.048,1.663-9.267,4.164-13.474l13.931,17.73
				c0.344,0.619,0.785,1.201,1.345,1.73c0.028,0.032,0.059,0.058,0.088,0.09c0.03,0.028,0.056,0.057,0.087,0.085
				c0.529,0.56,1.112,1.001,1.73,1.346l17.73,13.931c-4.207,2.5-8.426,4.164-13.474,4.164
				C172.07,340.33,166.378,338.207,161.981,334.605z M234.736,301.93l15.36,12.8l-15.36,11.947c-8.533,5.973-19.627,6.827-27.307,0
				l-15.36-11.947l15.36-12.8C215.962,295.957,227.056,295.957,234.736,301.93z M166.469,258.41l11.947-15.36l11.947,15.36
				c6.827,8.533,6.827,19.627,0,27.307l-11.947,15.36l-11.947-15.36C160.496,277.183,160.496,266.09,166.469,258.41z"/>
			<path d="M453.189,7.53c-5.973-6.827-15.36-10.24-24.747-7.68h-0.853l-44.373,17.067c-18.773,5.12-38.4,7.68-58.027,7.68H185.242
				c-19.627,0-39.253-2.56-58.027-7.68L82.842-0.15h-0.853c-8.533-2.56-18.773,0.853-24.747,7.68
				c-6.827,7.68-8.533,17.067-4.267,25.6l23.04,59.733c-22.187,101.547-22.187,209.92,0,323.413l-20.48,58.88
				c-3.413,8.533-1.707,18.773,4.267,25.6c5.12,5.973,11.947,9.387,19.627,9.387c1.707,0,3.413,0,5.12,0l50.347-8.533
				c3.413-0.853,6.827-0.853,10.24-1.707c4.267,0,7.68-0.853,11.947-1.707c14.507-2.56,29.867-4.267,43.52-4.267h109.227
				c13.653,0,29.013,1.707,43.52,5.12c3.413,0.853,7.68,0.853,11.947,1.707c3.413,0.853,6.827,0.853,10.24,1.707l50.347,8.533
				c9.387,1.707,17.92-1.707,23.893-8.533c5.973-7.68,7.68-17.067,4.267-25.6l-19.627-59.733
				c22.187-117.76,22.187-226.133,0-323.413l23.04-59.733C461.722,24.597,460.016,15.21,453.189,7.53z M442.096,27.157
				L417.349,89.45c0,1.707,0,3.413,0,5.12c22.187,96.427,22.187,203.947,0,320.853c0,1.707,0,3.413,0,4.267l21.333,62.293
				c0.853,2.56,0,5.973-1.707,8.533c-0.853,0.853-3.413,3.413-7.68,2.56l-50.347-8.533c-3.413-0.853-6.827-0.853-10.24-1.707
				c-4.267-0.853-8.533-0.853-11.947-1.707c-16.213-2.56-32.427-4.267-46.933-4.267H200.602c-15.36,0-30.72,1.707-46.933,4.267
				c-4.267,0.853-7.68,0.853-11.947,1.707c-3.413,0.853-6.827,0.853-10.24,1.707l-50.347,8.533c-4.267,0.853-6.827-1.707-7.68-2.56
				c-1.707-2.56-2.56-5.973-0.853-9.387l20.48-61.44c0-1.707,0-2.56,0-4.267c-22.187-112.64-22.187-221.013,0-320.853
				c0-1.707,0-3.413,0-4.267L68.336,28.01c-1.707-3.413-0.853-6.827,1.707-9.387c0.853-0.853,2.56-2.56,5.12-2.56
				c0.853,0,1.707,0,1.707,0l44.373,17.92h0.853c20.48,5.12,41.813,7.68,63.147,7.68h139.947c21.333,0,42.667-2.56,62.293-8.533
				h0.853l44.373-17.067c4.267-0.853,6.827,1.707,7.68,2.56C442.949,21.183,443.802,24.597,442.096,27.157z"/>
			<path d="M314.949,434.197H195.482c-5.12,0-8.533,3.413-8.533,8.533s3.413,8.533,8.533,8.533h119.467
				c5.12,0,8.533-3.413,8.533-8.533S320.069,434.197,314.949,434.197z"/>
		</g>
	</g>
</g>
<g>
</g>
<g>
</g>
<g>
</g>
<g>
</g>
<g>
</g>
<g>
</g>
<g>
</g>
<g>
</g>
<g>
</g>
<g>
</g>
<g>
</g>
<g>
</g>
<g>
</g>
<g>
</g>
<g>
</g>
</svg>
