<?xml version="1.0" encoding="iso-8859-1"?>
<!-- Generator: Adobe Illustrator 19.0.0, SVG Export Plug-In . SVG Version: 6.00 Build 0)  -->
<svg version="1.1" id="Layer_1" xmlns="http://www.w3.org/2000/svg" xmlns:xlink="http://www.w3.org/1999/xlink" x="0px" y="0px"
	 viewBox="0 0 511.999 511.999" style="enable-background:new 0 0 511.999 511.999;" xml:space="preserve">
<g>
	<g>
		<path d="M511.904,202.965c-0.75-5.835-5.746-10.235-11.638-10.152c-31.159,0.252-61.622,14.49-88.096,41.173
			c-17.015,17.149-32.335,39.387-44.161,63.89c2.361-20.591,6.349-39.894,12-58.216c10.39-33.683,30.259-76.161,65.914-87.245
			c5.667-1.761,9.086-7.482,7.956-13.306c-1.132-5.833-6.455-9.86-12.375-9.378c-66.699,5.488-107.416,83.788-126.94,134.553
			c-0.226-17.432-0.076-34.238,0.452-50.644c0.093-2.879,0.137-6.655,0.188-11.027c0.3-25.993,1.008-86.865,16.852-108.133
			c3.694-4.956,2.94-11.723-1.753-15.741c-4.718-4.038-11.552-3.74-15.898,0.694c-15.32,15.625-24.304,45.3-29.672,63.029
			c-0.646,2.136-1.222,4.037-1.728,5.633c-12.443,39.212-20.874,79.859-27.007,115.257c-6.133-35.397-14.564-76.044-27.007-115.26
			c-0.506-1.595-1.081-3.496-1.728-5.631c-5.368-17.729-14.352-47.404-29.671-63.028c-4.346-4.435-11.179-4.734-15.897-0.698
			c-4.695,4.017-5.45,10.785-1.757,15.74c15.848,21.273,16.553,82.146,16.854,108.139c0.051,4.371,0.095,8.145,0.188,11.024
			c0.527,16.405,0.679,33.209,0.453,50.644c-19.523-50.766-60.242-129.064-126.942-134.552c-5.914-0.484-11.241,3.546-12.373,9.378
			c-1.13,5.824,2.291,11.544,7.956,13.306c35.654,11.086,55.524,53.563,65.914,87.245c5.651,18.323,9.64,37.626,12,58.217
			c-11.825-24.503-27.145-46.742-44.161-63.891c-26.474-26.683-56.937-40.921-88.098-41.173c-0.032,0-0.062,0-0.094,0
			c-5.844,0-10.799,4.35-11.544,10.153c-0.749,5.823,2.98,11.299,8.671,12.738c31.391,7.944,50.093,40.012,60.255,65.513
			c16.609,41.684,19.745,86.33,20.321,103.591c0.961,28.765,24.123,51.297,52.731,51.297h227.853
			c28.608,0,51.77-22.532,52.73-51.296c0.577-17.261,3.711-61.907,20.322-103.591c10.161-25.502,28.864-57.568,60.254-65.513
			C508.925,214.264,512.652,208.787,511.904,202.965z M424.027,273.665c-17.801,44.671-21.146,92.13-21.759,110.461
			c-0.592,17.708-14.799,31.58-32.344,31.58H142.072c-17.545,0-31.751-13.872-32.343-31.58
			c-0.612-18.331-3.958-65.79-21.758-110.461c-6.738-16.908-14.806-31.33-24.036-43.084c31.565,21.334,55.509,58.836,68.852,92.495
			l0.172,0.435c4.07,10.264,9.645,24.322,13.807,38.827c1.388,4.834,6.092,7.939,11.083,7.306c4.99-0.631,8.776-4.807,8.916-9.835
			c1.317-47.283-3.683-88.551-15.285-126.16c-4.261-13.815-10.018-28.958-17.702-43.322c1.449,1.781,2.888,3.62,4.32,5.517
			c20.204,26.772,34.353,59.407,42.664,82.072c5.941,16.199,10.989,32.104,15.003,47.27c1.284,4.854,5.914,8.051,10.901,7.537
			c4.994-0.513,8.871-4.583,9.143-9.595c2.151-39.762,2.661-75.789,1.557-110.141c-0.086-2.67-0.128-6.348-0.177-10.606
			c-0.08-6.858-0.174-14.96-0.456-23.722c11.652,42.592,19.008,85.436,24.271,119.511c1.304,8.438,3.081,17.47,4.962,27.033
			l0.022,0.114c0.94,4.782,5.133,8.231,10.007,8.231c4.874,0,9.067-3.448,10.008-8.231l0.031-0.154
			c1.878-9.55,3.652-18.568,4.953-26.994c5.263-34.076,12.62-76.918,24.271-119.509c-0.281,8.761-0.375,16.859-0.455,23.718
			c-0.05,4.259-0.093,7.938-0.178,10.609c-1.103,34.362-0.593,70.389,1.558,110.141c0.271,5.012,4.149,9.082,9.143,9.594
			c5.01,0.516,9.618-2.685,10.901-7.537c4.014-15.167,9.062-31.072,15.003-47.27c8.311-22.664,22.46-55.3,42.664-82.072
			c1.431-1.897,2.871-3.736,4.319-5.517c-7.683,14.365-13.44,29.506-17.701,43.321c-11.602,37.609-16.601,78.877-15.286,126.16
			c0.14,5.029,3.925,9.204,8.915,9.835c4.985,0.631,9.696-2.47,11.083-7.306c4.157-14.489,9.727-28.537,13.793-38.795l0.186-0.467
			c13.346-33.655,37.292-71.159,68.856-92.493C438.834,242.335,430.764,256.757,424.027,273.665z"/>
	</g>
</g>
<g>
	<g>
		<path d="M308.401,382.483H140.749c-5.633,0-10.199,4.566-10.199,10.199s4.566,10.199,10.199,10.199h167.652
			c5.632,0,10.199-4.566,10.199-10.199S314.033,382.483,308.401,382.483z"/>
	</g>
</g>
<g>
	<g>
		<path d="M375.331,382.483h-33.677c-5.632,0-10.199,4.566-10.199,10.199s4.567,10.199,10.199,10.199h33.677
			c5.632,0,10.199-4.566,10.199-10.199S380.963,382.483,375.331,382.483z"/>
	</g>
</g>
<g>
</g>
<g>
</g>
<g>
</g>
<g>
</g>
<g>
</g>
<g>
</g>
<g>
</g>
<g>
</g>
<g>
</g>
<g>
</g>
<g>
</g>
<g>
</g>
<g>
</g>
<g>
</g>
<g>
</g>
</svg>
