<?xml version="1.0" encoding="iso-8859-1"?>
<!-- Generator: Adobe Illustrator 17.1.0, SVG Export Plug-In . SVG Version: 6.00 Build 0)  -->
<!DOCTYPE svg PUBLIC "-//W3C//DTD SVG 1.1//EN" "http://www.w3.org/Graphics/SVG/1.1/DTD/svg11.dtd">
<svg version="1.1" id="Capa_1" xmlns="http://www.w3.org/2000/svg" xmlns:xlink="http://www.w3.org/1999/xlink" x="0px" y="0px"
	 viewBox="0 0 442.17 442.17" style="enable-background:new 0 0 442.17 442.17;" xml:space="preserve">
<path id="XMLID_338_" d="M229.752,319.699v-2.051c0-4.418,3.582-8,8-8s8,3.582,8,8v2.051c0,4.418-3.582,8-8,8
	S229.752,324.118,229.752,319.699z M48.631,426.313c-0.08,0.001-0.16,0.001-0.24,0H8c-4.418,0-8-3.582-8-8s3.582-8,8-8h32.511
	V196.431c0-48.043,18.835-93.336,53.036-127.538s79.495-53.037,127.538-53.037s93.338,18.835,127.539,53.037
	s53.036,79.495,53.036,127.538v213.882h32.51c4.418,0,8,3.582,8,8s-3.582,8-8,8h-40.39c-0.08,0.001-0.16,0.001-0.24,0H48.631z
	 M262.393,219.599h-82.613v190.714h82.613V219.599z M385.66,196.431c0-90.747-73.828-164.574-164.574-164.574
	c-90.747,0-164.575,73.828-164.575,164.574v213.882h107.269V211.599c0-4.418,3.582-8,8-8h98.613c4.418,0,8,3.582,8,8v198.714H385.66
	V196.431z M320.15,172.38v213.77c0,4.418,3.582,8,8,8s8-3.582,8-8V172.38h20.887c4.418,0,8-3.582,8-8s-3.582-8-8-8h-28.767
	c-0.08-0.001-0.16-0.001-0.24,0h-67.358l56.579-49.378c3.329-2.905,3.673-7.958,0.768-11.288s-7.96-3.672-11.287-0.767
	l-70.394,61.433h-7.252V56.799c0-4.418-3.582-8-8-8s-8,3.582-8,8v99.581h-7.255l-70.394-61.433
	c-3.326-2.905-8.381-2.563-11.287,0.767c-2.905,3.329-2.562,8.383,0.767,11.288l56.58,49.378h-67.354c-0.08-0.001-0.16-0.001-0.24,0
	H85.134c-4.418,0-8,3.582-8,8s3.582,8,8,8h20.889v213.77c0,4.418,3.582,8,8,8s8-3.582,8-8V172.38H320.15z"/>
<g>
</g>
<g>
</g>
<g>
</g>
<g>
</g>
<g>
</g>
<g>
</g>
<g>
</g>
<g>
</g>
<g>
</g>
<g>
</g>
<g>
</g>
<g>
</g>
<g>
</g>
<g>
</g>
<g>
</g>
</svg>
