<?xml version="1.0" encoding="iso-8859-1"?>
<!-- Generator: Adobe Illustrator 17.1.0, SVG Export Plug-In . SVG Version: 6.00 Build 0)  -->
<!DOCTYPE svg PUBLIC "-//W3C//DTD SVG 1.1//EN" "http://www.w3.org/Graphics/SVG/1.1/DTD/svg11.dtd">
<svg version="1.1" id="Capa_1" xmlns="http://www.w3.org/2000/svg" xmlns:xlink="http://www.w3.org/1999/xlink" x="0px" y="0px"
	 viewBox="0 0 442.17 442.17" style="enable-background:new 0 0 442.17 442.17;" xml:space="preserve">
<path id="XMLID_274_" d="M401.608,124.615c-0.56-4.383,2.541-8.389,6.923-8.948c6.855-0.875,13.834-1.318,20.742-1.318
	c1.557,0,3.241,0.029,5.149,0.089c4.416,0.139,7.883,3.832,7.744,8.248c-0.14,4.417-3.846,7.88-8.248,7.744
	c-1.739-0.055-3.259-0.082-4.646-0.082c-6.233,0-12.531,0.4-18.718,1.189c-0.343,0.044-0.685,0.065-1.021,0.065
	C405.566,131.604,402.122,128.654,401.608,124.615z M372.011,144.883c11.68,20.913,18.379,48.688,18.379,76.204
	c0,34.907-11.581,83.492-44.221,105.536c-1.322,0.894-2.882,1.371-4.478,1.371H256.03c-0.037,0-0.074,0.001-0.111,0.001
	s-0.074,0-0.111-0.001H102.084c-1.599,0-3.161-0.479-4.485-1.375c-27.833-18.845-45.817-60.269-45.817-105.531
	c0-30.464,7.89-59.214,22.216-80.953c15.003-22.767,35.291-35.306,57.126-35.306h179.926
	C336.295,104.828,357.375,118.679,372.011,144.883z M194.464,221.087c0-27.371-6.952-52.994-19.575-72.149
	c-11.945-18.127-27.488-28.11-43.766-28.11s-31.821,9.983-43.767,28.11c-12.623,19.155-19.575,44.778-19.575,72.149
	c0,38.992,14.392,74.313,36.845,90.907h52.995C180.073,295.401,194.464,260.079,194.464,221.087z M374.39,221.087
	c0-38.763-17.196-100.259-63.341-100.259h-3.234c7.118,6.254,13.462,14.299,18.911,24.055c11.68,20.912,18.378,48.688,18.378,76.204
	c0,4.418-3.582,8-8,8s-8-3.582-8-8c0-38.763-17.196-100.259-63.34-100.259h-40.919c6.03,5.284,11.506,11.843,16.351,19.629
	c11.725,18.847,19.067,43.836,20.674,70.365c0.268,4.41-3.092,8.202-7.502,8.469c-4.39,0.277-8.202-3.091-8.469-7.502
	c-2.653-43.81-23.518-90.961-63.055-90.961h-11.261c6.052,5.236,11.653,11.7,16.666,19.306
	c14.325,21.739,22.215,50.489,22.215,80.953c0,35.792-11.244,69.182-29.712,90.907h72.615
	c24.324-18.083,35.241-58.325,35.241-90.907c0-4.418,3.582-8,8-8s8,3.582,8,8c0,28.478-7.707,66.059-28.27,90.907h62.808
	C363.472,293.912,374.39,253.669,374.39,221.087z M131.123,157.948c-22.973,0-40.969,25.491-40.969,58.032
	c0,4.456,0.351,8.892,1.042,13.185c0.703,4.362,4.808,7.332,9.171,6.625c4.362-0.703,7.328-4.809,6.626-9.17
	c-0.557-3.454-0.839-7.033-0.839-10.64c0-22.784,11.435-42.032,24.969-42.032s24.969,19.249,24.969,42.032
	c0,20.92-9.642,38.86-21.698,41.652c-3.721-5.1-5.947-12.772-5.947-20.918c0-9.674,3.142-18.68,8.198-23.502
	c3.197-3.049,3.317-8.113,0.268-11.311c-3.05-3.198-8.114-3.317-11.311-0.268c-8.237,7.856-13.155,20.971-13.155,35.081
	c0,14.112,4.918,27.228,13.155,35.084c1.488,1.419,3.465,2.211,5.521,2.211c22.973,0,40.969-25.49,40.969-58.029
	C172.092,183.438,154.096,157.948,131.123,157.948z M275.322,81.164c1.643,0,3.3-0.504,4.727-1.551
	c42.573-31.243,93.066-47.757,146.021-47.757c2.358,0,4.854,0.043,7.85,0.137c4.388,0.141,8.107-3.33,8.246-7.746
	c0.138-4.417-3.33-8.108-7.746-8.246c-3.167-0.099-5.82-0.145-8.35-0.145c-56.384,0-110.15,17.586-155.488,50.857
	c-3.562,2.614-4.33,7.621-1.716,11.183C270.434,80.033,272.862,81.164,275.322,81.164z M253.15,241.01
	c-4.35-0.741-8.485,2.194-9.225,6.55c-0.391,2.307-0.841,4.639-1.338,6.931c-0.937,4.318,1.806,8.577,6.124,9.513
	c0.571,0.124,1.141,0.183,1.702,0.183c3.684,0,6.998-2.56,7.811-6.307c0.548-2.529,1.045-5.102,1.477-7.646
	C260.439,245.878,257.506,241.748,253.15,241.01z M295.064,164.558c-1.482-4.162-6.06-6.334-10.22-4.853
	c-4.162,1.482-6.335,6.058-4.853,10.22c1.548,4.347,2.917,8.932,4.069,13.627c0.896,3.65,4.165,6.095,7.763,6.095
	c0.632,0,1.273-0.076,1.914-0.233c4.291-1.053,6.915-5.386,5.862-9.676C298.319,174.519,296.792,169.412,295.064,164.558z
	 M433.917,81.065c4.395,0.132,8.109-3.327,8.249-7.743c0.14-4.416-3.327-8.109-7.743-8.249c-2.503-0.079-4.713-0.118-6.756-0.118
	c-20.146,0-40.113,2.826-59.346,8.4c-4.244,1.229-6.688,5.667-5.457,9.91c1.014,3.5,4.21,5.775,7.68,5.775
	c0.737,0,1.487-0.103,2.23-0.318c17.785-5.154,36.254-7.768,54.893-7.768C429.54,80.955,431.584,80.991,433.917,81.065z
	 M418.314,179.781h15.856c4.418,0,8-3.582,8-8s-3.582-8-8-8h-15.856c-4.418,0-8,3.582-8,8S413.896,179.781,418.314,179.781z
	 M8.25,31.994c2.998-0.094,5.492-0.137,7.851-0.137c52.974,0,103.475,16.514,146.045,47.757c1.426,1.046,3.084,1.551,4.727,1.551
	c2.461,0,4.889-1.131,6.456-3.267c2.614-3.562,1.846-8.569-1.716-11.183C126.278,33.443,72.503,15.857,16.101,15.857
	c-2.528,0-5.182,0.046-8.351,0.145c-4.416,0.138-7.884,3.83-7.746,8.246C0.142,28.665,3.88,32.13,8.25,31.994z M369.007,410.313
	H73.164c-4.418,0-8,3.582-8,8s3.582,8,8,8h295.843c4.418,0,8-3.582,8-8S373.425,410.313,369.007,410.313z M8,327.7h26.326
	c0.041,0,0.083,0.001,0.125,0.001c0.041,0,0.083,0,0.125-0.001H52.84c4.418,0,8-3.582,8-8s-3.582-8-8-8H38.796l-18.813-29.074
	c-2.399-3.708-7.353-4.771-11.063-2.37c-3.71,2.4-4.771,7.353-2.371,11.063L19.737,311.7H8c-4.418,0-8,3.582-8,8
	S3.582,327.7,8,327.7z M434.17,311.7h-11.737l13.188-20.381c2.4-3.709,1.339-8.662-2.371-11.063
	c-3.708-2.401-8.662-1.339-11.063,2.37L403.374,311.7h-14.043c-4.418,0-8,3.582-8,8s3.582,8,8,8h18.263
	c0.042,0,0.084,0.001,0.125,0.001c0.042,0,0.084,0,0.125-0.001h26.326c4.418,0,8-3.582,8-8S438.588,311.7,434.17,311.7z
	 M434.17,226.313h-7.929c-4.418,0-8,3.582-8,8s3.582,8,8,8h7.929c4.418,0,8-3.582,8-8S438.588,226.313,434.17,226.313z
	 M434.17,361.007H8c-4.418,0-8,3.582-8,8s3.582,8,8,8h426.17c4.418,0,8-3.582,8-8S438.588,361.007,434.17,361.007z M8,242.313h7.929
	c4.418,0,8-3.582,8-8s-3.582-8-8-8H8c-4.418,0-8,3.582-8,8S3.582,242.313,8,242.313z M8.253,81.065
	c2.333-0.074,4.378-0.11,6.251-0.11c19.088,0,37.979,2.738,56.152,8.138c0.76,0.226,1.527,0.333,2.281,0.333
	c3.449,0,6.633-2.248,7.666-5.723c1.258-4.235-1.155-8.689-5.391-9.947c-19.651-5.84-40.077-8.801-60.709-8.801
	c-2.044,0-4.254,0.039-6.757,0.118c-4.416,0.14-7.883,3.833-7.743,8.249C0.145,77.738,3.872,81.192,8.253,81.065z M8.252,130.431
	c1.74-0.055,3.26-0.082,4.646-0.082c6.545,0,13.177,0.446,19.709,1.326c0.362,0.049,0.723,0.073,1.078,0.073
	c3.944,0,7.378-2.917,7.919-6.933c0.59-4.378-2.481-8.406-6.86-8.996c-7.238-0.975-14.589-1.47-21.846-1.47
	c-1.556,0-3.24,0.029-5.149,0.089c-4.416,0.139-7.883,3.832-7.744,8.248C0.144,127.103,3.835,130.545,8.252,130.431z M8,179.781
	h15.857c4.418,0,8-3.582,8-8s-3.582-8-8-8H8c-4.418,0-8,3.582-8,8S3.582,179.781,8,179.781z"/>
<g>
</g>
<g>
</g>
<g>
</g>
<g>
</g>
<g>
</g>
<g>
</g>
<g>
</g>
<g>
</g>
<g>
</g>
<g>
</g>
<g>
</g>
<g>
</g>
<g>
</g>
<g>
</g>
<g>
</g>
</svg>
