<?xml version="1.0" encoding="iso-8859-1"?>
<!-- Generator: Adobe Illustrator 19.0.0, SVG Export Plug-In . SVG Version: 6.00 Build 0)  -->
<svg version="1.1" id="Layer_1" xmlns="http://www.w3.org/2000/svg" xmlns:xlink="http://www.w3.org/1999/xlink" x="0px" y="0px"
	 viewBox="0 0 512 512" style="enable-background:new 0 0 512 512;" xml:space="preserve">
<g>
	<g>
		<path d="M501.872,10.129c0,0,0-0.001-0.001-0.001c-13.504-13.504-35.477-13.504-48.982,0L159.52,303.496l-41.577-41.577
			c-3.984-3.982-10.44-3.982-14.425,0L12.69,352.828c-13.24,14.45-16.379,34.613-8.189,52.617
			c8.382,18.426,26.057,29.603,46.197,29.067l27.468-0.678l-0.678,27.468c-0.497,20.114,10.642,37.815,29.067,46.197
			c6.643,3.021,13.577,4.501,20.41,4.501c11.691-0.001,23.085-4.332,32.201-12.685l90.915-90.835c3.983-3.983,3.983-10.441,0-14.425
			l-41.578-41.576L501.872,59.11C515.375,45.606,515.375,23.632,501.872,10.129z M84.301,413.277l-34.107,0.842
			c-14.108,0.368-23.257-8.616-27.125-17.121c-4.816-10.589-3.074-21.95,4.667-30.396l82.995-83.046l34.365,34.365l-36.782,36.782
			c-3.983,3.983-3.983,10.441,0,14.425l10.074,10.074c-0.033,0.032-0.068,0.059-0.101,0.091L84.301,413.277z M228.443,401.269
			l-83.051,83c-8.441,7.735-19.804,9.476-30.39,4.661c-8.506-3.869-17.47-13.026-17.121-27.126l0.842-34.101l33.988-33.989
			c0.033-0.033,0.059-0.068,0.091-0.101l10.071,10.072c1.992,1.991,4.602,2.987,7.212,2.987c2.61,0,5.22-0.996,7.212-2.987
			l36.782-36.782L228.443,401.269z M487.449,44.686L150.085,382.049l-20.135-20.135L467.312,24.551
			c5.551-5.551,14.587-5.55,20.136-0.001C492.999,30.102,492.999,39.136,487.449,44.686z"/>
	</g>
</g>
<g>
	<g>
		<path d="M118.576,309.85c-3.985-3.982-10.443-3.982-14.425,0l-20.893,20.894c-3.983,3.984-3.983,10.442,0,14.425
			c1.992,1.991,4.601,2.987,7.212,2.987c2.611,0,5.221-0.996,7.213-2.987l20.893-20.894
			C122.559,320.291,122.559,313.832,118.576,309.85z"/>
	</g>
</g>
<g>
	<g>
		<path d="M71.259,357.166c-3.985-3.982-10.441-3.982-14.425,0l-3.687,3.687c-3.983,3.984-3.983,10.442,0,14.425
			c1.992,1.991,4.601,2.987,7.212,2.987c2.61,0,5.22-0.995,7.213-2.987l3.687-3.687C75.242,367.607,75.242,361.149,71.259,357.166z"
			/>
	</g>
</g>
<g>
</g>
<g>
</g>
<g>
</g>
<g>
</g>
<g>
</g>
<g>
</g>
<g>
</g>
<g>
</g>
<g>
</g>
<g>
</g>
<g>
</g>
<g>
</g>
<g>
</g>
<g>
</g>
<g>
</g>
</svg>
