<?xml version="1.0" encoding="iso-8859-1"?>
<!-- Generator: Adobe Illustrator 19.0.0, SVG Export Plug-In . SVG Version: 6.00 Build 0)  -->
<svg version="1.1" id="Layer_1" xmlns="http://www.w3.org/2000/svg" xmlns:xlink="http://www.w3.org/1999/xlink" x="0px" y="0px"
	 viewBox="0 0 512 512" style="enable-background:new 0 0 512 512;" xml:space="preserve">
<g transform="translate(1 1)">
	<g>
		<g>
			<path d="M248.837,462.36c-3.413,3.413-3.413,8.533,0,11.947s8.533,3.413,11.947,0s3.413-8.533,0-11.947
				C257.371,458.947,252.251,458.947,248.837,462.36z"/>
			<path d="M492.891,47.64l-25.6-44.373c-0.853-2.56-2.56-3.413-5.12-4.267c-2.56,0-5.12,0-6.827,0.853l-93.867,54.613
				c-3.413,1.707-5.12,5.973-3.413,10.24l11.947,31.573c12.8,27.307,29.867,117.76,29.867,158.72
				c0,104.96-55.467,170.667-144.213,170.667c0,0-0.853,0-1.707,0C165.211,424.813,109.744,359.96,109.744,255
				c0-40.96,17.067-131.413,29.867-159.573l11.947-30.72c1.707-3.413,0-8.533-3.413-10.24L54.277-0.147C52.571-1,50.011-1,47.451-1
				c-1.707,0.853-3.413,2.56-5.12,4.267l-25.6,44.373c-1.707,4.267-0.853,9.387,3.413,11.947l34.987,20.48
				c-15.36,43.52-30.72,124.587-30.72,174.933c0,152.747,93.013,256,230.4,256s230.4-103.253,230.4-256
				c0-50.347-15.36-131.413-30.72-174.933l34.987-20.48C493.744,57.027,495.451,51.907,492.891,47.64z M439.984,68.12
				c-3.413,1.707-5.12,5.973-3.413,10.24c14.507,41.813,31.573,125.44,31.573,176.64c0,142.507-85.333,238.933-213.333,238.933
				S41.477,398.36,41.477,255c0-51.2,17.067-134.827,31.573-175.787c1.707-3.413,0-8.533-3.413-10.24l-33.28-19.627L53.424,19.48
				l80.213,46.933l-9.387,23.04C109.744,118.467,92.677,209.773,92.677,255c0,116.053,62.293,187.733,162.133,187.733
				S416.944,371.053,416.944,255c0-45.227-17.067-136.533-31.573-165.547l-9.387-23.893l80.213-46.933l17.067,29.867L439.984,68.12z
				"/>
			<path d="M308.571,453.827c-3.413,3.413-3.413,8.533,0,11.947c3.413,3.413,8.533,3.413,11.947,0s3.413-8.533,0-11.947
				C317.104,450.413,311.984,450.413,308.571,453.827z"/>
			<path d="M359.771,428.227c-3.413,3.413-3.413,8.533,0,11.947c3.413,3.413,8.533,3.413,11.947,0c3.413-3.413,3.413-8.533,0-11.947
				S363.184,424.813,359.771,428.227z"/>
			<path d="M393.904,394.093c-3.413,3.413-3.413,8.533,0,11.947s8.533,3.413,11.947,0c3.413-3.413,3.413-8.533,0-11.947
				C402.437,390.68,397.317,390.68,393.904,394.093z"/>
			<path d="M402.437,69.827c-3.413,3.413-3.413,8.533,0,11.947c3.413,3.413,8.533,3.413,11.947,0c3.413-3.413,3.413-8.533,0-11.947
				C410.971,66.413,405.851,66.413,402.437,69.827z"/>
			<path d="M107.184,81.773c3.413-3.413,3.413-8.533,0-11.947c-3.413-3.413-8.533-3.413-11.947,0s-3.413,8.533,0,11.947
				S103.771,85.187,107.184,81.773z"/>
			<path d="M189.104,453.827c-3.413,3.413-3.413,8.533,0,11.947s8.533,3.413,11.947,0s3.413-8.533,0-11.947
				C197.637,450.413,192.517,450.413,189.104,453.827z"/>
			<path d="M137.904,428.227c-3.413,3.413-3.413,8.533,0,11.947c3.413,3.413,8.533,3.413,11.947,0c3.413-3.413,3.413-8.533,0-11.947
				S141.317,424.813,137.904,428.227z"/>
			<path d="M103.771,394.093c-3.413,3.413-3.413,8.533,0,11.947s8.533,3.413,11.947,0s3.413-8.533,0-11.947
				C112.304,390.68,107.184,390.68,103.771,394.093z"/>
		</g>
	</g>
</g>
<g>
</g>
<g>
</g>
<g>
</g>
<g>
</g>
<g>
</g>
<g>
</g>
<g>
</g>
<g>
</g>
<g>
</g>
<g>
</g>
<g>
</g>
<g>
</g>
<g>
</g>
<g>
</g>
<g>
</g>
</svg>
