<?xml version="1.0" encoding="iso-8859-1"?>
<!-- Generator: Adobe Illustrator 19.0.0, SVG Export Plug-In . SVG Version: 6.00 Build 0)  -->
<svg version="1.1" id="Layer_1" xmlns="http://www.w3.org/2000/svg" xmlns:xlink="http://www.w3.org/1999/xlink" x="0px" y="0px"
	 viewBox="0 0 512 512" style="enable-background:new 0 0 512 512;" xml:space="preserve">
<g>
	<g>
		<path d="M379.396,319.995V29.913C379.396,13.419,365.977,0,349.483,0c-7.547,0-14.445,2.815-19.714,7.443
			C324.5,2.815,317.601,0,310.055,0c-7.547,0-14.446,2.815-19.715,7.443C285.071,2.815,278.172,0,270.625,0
			s-14.445,2.815-19.714,7.443C245.642,2.815,238.744,0,231.197,0c-7.547,0-14.445,2.815-19.714,7.443
			C206.214,2.815,199.315,0,191.767,0c-7.547,0-14.445,2.815-19.714,7.443C166.784,2.815,159.886,0,152.338,0
			c-16.494,0-29.914,13.419-29.914,29.913v245.672c0,16.494,13.419,29.913,29.914,29.913c7.547,0,14.446-2.815,19.715-7.443
			c5.269,4.628,12.167,7.443,19.714,7.443c7.547,0,14.446-2.815,19.715-7.443c5.269,4.628,12.167,7.443,19.714,7.443
			c7.547,0,14.446-2.815,19.715-7.443c5.269,4.628,12.167,7.443,19.714,7.443s14.445-2.815,19.714-7.443
			c5.269,4.628,12.168,7.443,19.715,7.443c3.326,0,6.523-0.554,9.515-1.56v16.056h-0.853c-5.632,0-10.199,4.567-10.199,10.199
			v85.934c0,5.632,4.567,10.199,10.199,10.199h3.886v75.474c0,5.632,4.567,10.199,10.199,10.199h32.352
			c5.632,0,10.199-4.567,10.199-10.199v-75.474h4.024c5.632,0,10.199-4.567,10.199-10.199v-85.934
			C389.575,324.567,385.019,320.006,379.396,319.995z M161.854,275.586c0,5.247-4.268,9.515-9.516,9.515s-9.516-4.268-9.516-9.515
			V29.913c0-5.247,4.268-9.515,9.516-9.515s9.516,4.268,9.516,9.515V275.586z M201.283,275.586c0,5.247-4.268,9.515-9.516,9.515
			c-5.246,0-9.515-4.268-9.515-9.515V29.913c0-5.247,4.268-9.515,9.515-9.515c5.247,0,9.516,4.268,9.516,9.515V275.586z
			 M240.712,275.586c-0.001,5.247-4.269,9.515-9.516,9.515c-5.247,0-9.515-4.268-9.515-9.515V29.913
			c0-5.247,4.268-9.515,9.515-9.515c5.247,0,9.516,4.268,9.516,9.515V275.586z M280.139,275.586c0,5.247-4.267,9.515-9.515,9.515
			s-9.515-4.268-9.515-9.515V29.913c0-5.247,4.268-9.515,9.515-9.515s9.515,4.268,9.515,9.515V275.586z M319.57,275.586
			c0,5.247-4.268,9.515-9.515,9.515c-5.247,0-9.516-4.268-9.516-9.515V29.913c0-5.247,4.269-9.515,9.516-9.515
			s9.515,4.268,9.515,9.515V275.586z M339.968,275.586V29.913c0-5.247,4.267-9.515,9.515-9.515s9.515,4.268,9.515,9.515v289.818
			h-19.03V275.586z M354.954,491.602H343v-65.275h11.953V491.602z M369.177,405.928h-40.261v-65.536h40.261V405.928z"/>
	</g>
</g>
<g>
	<g>
		<path d="M349.798,349.833c-5.632,0-10.199,4.567-10.199,10.199v27.43c0,5.632,4.567,10.199,10.199,10.199
			c5.632,0,10.199-4.567,10.199-10.199v-27.43C359.997,354.4,355.431,349.833,349.798,349.833z"/>
	</g>
</g>
<g>
</g>
<g>
</g>
<g>
</g>
<g>
</g>
<g>
</g>
<g>
</g>
<g>
</g>
<g>
</g>
<g>
</g>
<g>
</g>
<g>
</g>
<g>
</g>
<g>
</g>
<g>
</g>
<g>
</g>
</svg>
