<?xml version="1.0" encoding="iso-8859-1"?>
<!-- Generator: Adobe Illustrator 19.0.0, SVG Export Plug-In . SVG Version: 6.00 Build 0)  -->
<svg version="1.1" id="Layer_1" xmlns="http://www.w3.org/2000/svg" xmlns:xlink="http://www.w3.org/1999/xlink" x="0px" y="0px"
	 viewBox="0 0 509.44 509.44" style="enable-background:new 0 0 509.44 509.44;" xml:space="preserve">
<g transform="translate(1 1)">
	<g>
		<g>
			<path d="M505.88,50.2L457.24,1.56c-3.413-3.413-8.533-3.413-11.947,0c-3.413,3.413-3.413,8.533,0,11.947l6.034,6.034
				l-30.41,31.03L402.627,32.28c-3.413-3.413-8.533-3.413-11.947,0l-23.893,23.893c-3.413,3.413-3.413,8.533,0,11.947h0
				L336.92,97.987c-0.903,0.903-1.559,1.809-1.985,2.838l-85.909,85.909l-2.56,2.56c-10.24,9.387-15.36,22.187-15.36,35.84
				c0,4.601,0.693,9.1,1.951,13.409l-20.56,20.56c-0.975,0.426-1.9,1.047-2.724,1.871l-25.6,25.6
				c-7.901,7.901-9.124,19.421-3.723,28.47l-42.12,42.12c-14.736-12.101-33.555-19.39-53.997-19.39
				C37.4,337.773-1,376.173-1,423.107s38.4,85.333,85.333,85.333c46.933,0,85.333-38.4,85.333-85.333
				c0-20.441-7.289-39.26-19.39-53.997l42.147-42.147c3.462,2,7.417,3.13,11.376,3.13c5.973,0,11.947-2.56,16.213-7.68
				l23.003-23.003c0.934-0.42,1.848-0.995,2.597-1.744l23.133-23.133c4.355,1.19,8.905,1.8,13.56,1.8
				c13.653,0,26.453-5.12,36.693-15.36l90.453-89.6c0.824-0.824,1.445-1.749,1.871-2.724l27.996-27.996
				c1.707,1.707,3.413,2.56,5.973,2.56s4.267-0.853,5.973-2.56l23.893-23.893c3.413-3.413,3.413-8.533,0-11.947l-18.291-18.291
				l31.03-30.41l6.034,6.034c1.707,1.707,3.413,2.56,5.973,2.56c1.707,0,4.267-0.853,5.973-2.56
				C509.293,58.733,509.293,53.613,505.88,50.2z M373.187,122.307l23.467-23.467l11.947,11.947l-23.467,23.467L373.187,122.307z
				 M378.733,80.067l6.4,6.4L361.24,110.36l-6.4-6.4L378.733,80.067z M152.6,423.107c0,37.547-30.72,68.267-68.267,68.267
				c-37.547,0-68.267-30.72-68.267-68.267s30.72-68.267,68.267-68.267c15.745,0,30.278,5.417,41.86,14.46l-5.167,5.167
				c-3.413,3.413-3.413,8.533,0,11.947c1.707,1.707,3.413,2.56,5.973,2.56s4.267-0.853,5.973-2.56l5.167-5.167
				C147.183,392.829,152.6,407.361,152.6,423.107z M208.067,311.32c-1.707,2.56-5.973,2.56-8.533,0l-3.413-3.413
				c-2.56-1.707-2.56-5.973,0-8.533l19.627-19.627l11.947,11.947L208.067,311.32z M239.213,278.467l-11.947-11.947l12.373-12.373
				c0.853,2.56,9.387,10.24,11.947,11.947L239.213,278.467z M258.413,249.027c-6.827-5.973-10.24-15.36-10.24-23.893
				s3.413-17.067,10.24-23.893c9.49,0,96.427,0,96.427,0l-47.787,47.787C293.4,262.68,272.067,262.68,258.413,249.027z
				 M371.907,184.173H275.48l67.413-67.413l10.95,10.758c0.293,0.413,0.621,0.813,0.997,1.189l23.893,23.893
				c0.807,0.807,1.618,1.417,2.515,1.842l10.285,10.104L371.907,184.173z M403.48,152.6l-6.4-6.4l23.893-23.893l6.4,6.4
				L403.48,152.6z M445.293,122.733l-60.587-60.587h0L396.653,50.2l60.587,60.587L445.293,122.733z M445.293,74.093l-11.947-11.947
				l29.867-29.867l11.947,11.947L445.293,74.093z"/>
			<path d="M84.333,371.907c-19.627,0-34.133,11.093-34.133,25.6c0,14.507,14.507,25.6,34.133,25.6c5.12,0,8.533-3.413,8.533-8.533
				s-3.413-8.533-8.533-8.533c-10.24,0-17.067-4.267-17.067-8.533s6.827-8.533,17.067-8.533c10.24,0,17.067,4.267,17.067,8.533
				c0,5.12,3.413,8.533,8.533,8.533s8.533-3.413,8.533-8.533C118.467,383,103.96,371.907,84.333,371.907z"/>
		</g>
	</g>
</g>
<g>
</g>
<g>
</g>
<g>
</g>
<g>
</g>
<g>
</g>
<g>
</g>
<g>
</g>
<g>
</g>
<g>
</g>
<g>
</g>
<g>
</g>
<g>
</g>
<g>
</g>
<g>
</g>
<g>
</g>
</svg>
