<?xml version="1.0" encoding="iso-8859-1"?>
<!-- Generator: Adobe Illustrator 19.0.0, SVG Export Plug-In . SVG Version: 6.00 Build 0)  -->
<svg version="1.1" id="Layer_1" xmlns="http://www.w3.org/2000/svg" xmlns:xlink="http://www.w3.org/1999/xlink" x="0px" y="0px"
	 viewBox="0 0 512 512" style="enable-background:new 0 0 512 512;" xml:space="preserve">
<g>
	<g>
		<path d="M406.433,446.017V0h-68.619v26.392H174.186V0h-68.619v65.98h15.835V15.835h36.948v480.33h-36.948V87.093h-15.835V512
			h68.619v-26.392h163.629V512h68.619v-44.868h-15.835v29.033h-36.948V15.835h36.948v430.182H406.433z M337.814,469.773H174.186
			v-47.505h163.629V469.773z M337.814,406.433H174.186v-15.835h163.629V406.433z M337.814,374.763H174.186v-47.505h163.629V374.763z
			 M337.814,311.423H174.186v-15.835h163.629V311.423z M337.814,279.753H174.186v-47.505h163.629V279.753z M337.814,216.412H174.186
			v-15.835h163.629V216.412z M337.814,184.742H174.186v-47.505h163.629V184.742z M337.814,121.402H174.186v-15.835h163.629V121.402z
			 M337.814,89.732H174.186V42.227h163.629V89.732z"/>
	</g>
</g>
<g>
	<g>
		<rect x="197.938" y="58.062" width="58.062" height="15.835"/>
	</g>
</g>
<g>
	<g>
		<rect x="271.835" y="58.062" width="36.948" height="15.835"/>
	</g>
</g>
<g>
	<g>
		<rect x="197.938" y="153.072" width="58.062" height="15.835"/>
	</g>
</g>
<g>
	<g>
		<rect x="271.835" y="153.072" width="36.948" height="15.835"/>
	</g>
</g>
<g>
	<g>
		<rect x="197.938" y="248.082" width="58.062" height="15.835"/>
	</g>
</g>
<g>
	<g>
		<rect x="271.835" y="248.082" width="36.948" height="15.835"/>
	</g>
</g>
<g>
	<g>
		<rect x="197.938" y="343.093" width="58.062" height="15.835"/>
	</g>
</g>
<g>
	<g>
		<rect x="271.835" y="343.093" width="36.948" height="15.835"/>
	</g>
</g>
<g>
	<g>
		<rect x="197.938" y="438.103" width="58.062" height="15.835"/>
	</g>
</g>
<g>
	<g>
		<rect x="271.835" y="438.103" width="36.948" height="15.835"/>
	</g>
</g>
<g>
</g>
<g>
</g>
<g>
</g>
<g>
</g>
<g>
</g>
<g>
</g>
<g>
</g>
<g>
</g>
<g>
</g>
<g>
</g>
<g>
</g>
<g>
</g>
<g>
</g>
<g>
</g>
<g>
</g>
</svg>
