<?xml version="1.0" encoding="iso-8859-1"?>
<!-- Generator: Adobe Illustrator 19.0.0, SVG Export Plug-In . SVG Version: 6.00 Build 0)  -->
<svg version="1.1" id="Layer_1" xmlns="http://www.w3.org/2000/svg" xmlns:xlink="http://www.w3.org/1999/xlink" x="0px" y="0px"
	 viewBox="0 0 512 512" style="enable-background:new 0 0 512 512;" xml:space="preserve">
<g>
	<g>
		<path d="M286.124,354.6h-10.745c-5.632,0-10.199,4.566-10.199,10.199c0,5.633,4.567,10.199,10.199,10.199h10.745
			c5.632,0,10.199-4.566,10.199-10.199C296.323,359.166,291.757,354.6,286.124,354.6z"/>
	</g>
</g>
<g>
	<g>
		<path d="M179.441,155.141c-18.955,0-34.375,15.421-34.375,34.376s15.42,34.376,34.375,34.376
			c18.955,0,34.375-15.421,34.375-34.376S198.396,155.141,179.441,155.141z"/>
	</g>
</g>
<g>
	<g>
		<path d="M108.925,327.401c-18.955,0-34.375,15.421-34.375,34.376s15.42,34.376,34.375,34.376s34.376-15.421,34.376-34.376
			C143.301,342.822,127.88,327.401,108.925,327.401z"/>
	</g>
</g>
<g>
	<g>
		<path d="M332.559,155.141c-18.955,0-34.375,15.421-34.375,34.376s15.42,34.376,34.375,34.376
			c18.955,0,34.375-15.421,34.375-34.376S351.515,155.141,332.559,155.141z"/>
	</g>
</g>
<g>
	<g>
		<path d="M403.076,327.401c-18.955,0-34.376,15.421-34.376,34.376s15.421,34.376,34.376,34.376
			c18.955,0,34.375-15.421,34.375-34.376C437.451,342.822,422.031,327.401,403.076,327.401z"/>
	</g>
</g>
<g>
	<g>
		<path d="M378.823,35.515c-5.632,0-10.199,4.566-10.199,10.199c0,5.633,4.567,10.199,10.199,10.199
			c6.754,0,12.249,5.495,12.249,12.25c0,5.633,4.567,10.199,10.199,10.199c5.632,0,10.199-4.567,10.199-10.199
			C411.471,50.161,396.825,35.515,378.823,35.515z"/>
	</g>
</g>
<g>
	<g>
		<path d="M487.929,257.675c-19.952-74.46-81.41-126.924-152.82-139.203c-1.923-15.936-8.566-30.439-18.483-42.067
			c1.215-31.088,26.871-56.007,58.251-56.007c24.596,0,44.607,20.011,44.607,44.607c0,18.552-15.094,33.646-33.646,33.646
			c-13.717,0-24.877-11.16-24.877-24.877c0-5.633-4.567-10.199-10.199-10.199s-10.199,4.566-10.199,10.199
			c0,24.966,20.31,45.275,45.275,45.275c29.801,0,54.045-24.245,54.045-54.045C439.883,29.162,410.721,0,374.877,0
			c-37.153,0-68.354,25.885-76.573,60.561c-12.267-7.72-26.768-12.199-42.304-12.199s-30.038,4.479-42.304,12.199
			C205.477,25.885,174.277,0,137.123,0c-35.844,0-65.006,29.162-65.006,65.006c0,29.8,24.245,54.045,54.045,54.045
			c24.966,0,45.275-20.311,45.275-45.275c0-21.097-17.163-38.26-38.26-38.26c-18.002,0-32.648,14.646-32.648,32.649
			c0,5.633,4.567,10.199,10.199,10.199c5.632,0,10.199-4.566,10.199-10.199c0-6.755,5.495-12.25,12.249-12.25
			c9.848,0,17.862,8.013,17.862,17.862c0,13.717-11.159,24.877-24.877,24.877c-18.552,0-33.646-15.094-33.646-33.646
			c0-24.596,20.011-44.607,44.607-44.607c31.379,0,57.035,24.92,58.251,56.007c-9.917,11.628-16.56,26.128-18.483,42.065
			C105.479,130.748,44.022,183.213,24.07,257.675C10.83,307.09,17.624,358.704,43.204,403.008
			c25.58,44.304,66.88,75.995,116.295,89.236c0.884,0.237,1.772,0.35,2.646,0.35c4.503,0,8.624-3.006,9.845-7.562l2.146-8.01
			C197.682,499.703,225.843,512,254.993,512c29.871,0,58.592-12.846,82.451-36.54l2.565,9.572c1.221,4.557,5.341,7.562,9.845,7.562
			c0.873,0,1.762-0.113,2.646-0.35c49.415-13.241,90.717-44.932,116.295-89.236C494.376,358.703,501.171,307.09,487.929,257.675z
			 M256,68.76c28.588,0,52.516,20.332,58.084,47.296c-19.08-1.127-38.626,0.597-58.084,5.519
			c-19.458-4.923-39.005-6.647-58.084-5.52C203.484,89.092,227.412,68.76,256,68.76z M241.76,224.65L256,171.505l14.24,53.145
			H241.76z M275.706,245.048l11,41.051h-61.41l11-41.051H275.706z M155.005,469.613c-39.816-13.199-72.988-40.178-94.135-76.805
			c-22.854-39.586-28.926-85.702-17.096-129.854c0.239-0.891,0.491-1.776,0.744-2.659c6.279,6.727,15.214,10.945,25.121,10.945
			c18.955,0,34.375-15.421,34.375-34.376c0-17.622-13.33-32.182-30.436-34.143c25.588-33.079,62.603-55.703,103.506-63.555
			c6.649-1.276,13.4-2.162,20.222-2.639c3.914-0.273,7.849-0.428,11.805-0.428c11.349,0,22.836,1.138,34.322,3.5L155.005,469.613z
			 M254.993,491.602c-27.039,0-53.389-13.323-74.677-37.64l3.614-13.484h92.218c5.632,0,10.199-4.566,10.199-10.199
			c0-5.633-4.567-10.199-10.199-10.199h-86.752l12.079-45.081h42.579c5.632,0,10.199-4.566,10.199-10.199
			c0-5.633-4.567-10.199-10.199-10.199h-37.113l12.889-48.103h72.342l39.033,145.673
			C309.639,477.643,282.74,491.602,254.993,491.602z M451.13,392.808c-21.147,36.628-54.319,63.606-94.135,76.805L268.569,139.6
			c15.487-3.184,30.98-4.141,46.128-3.082c6.821,0.476,13.574,1.36,20.222,2.637c40.896,7.854,77.904,30.495,103.491,63.569
			c-17.1,1.967-30.424,16.524-30.424,34.142c0,18.955,15.42,34.376,34.375,34.376c9.904,0,18.838-4.216,25.117-10.941
			c0.252,0.883,0.508,1.766,0.747,2.656C480.057,307.106,473.986,353.223,451.13,392.808z"/>
	</g>
</g>
<g>
</g>
<g>
</g>
<g>
</g>
<g>
</g>
<g>
</g>
<g>
</g>
<g>
</g>
<g>
</g>
<g>
</g>
<g>
</g>
<g>
</g>
<g>
</g>
<g>
</g>
<g>
</g>
<g>
</g>
</svg>
