<?xml version="1.0" encoding="iso-8859-1"?>
<!-- Generator: Adobe Illustrator 19.0.0, SVG Export Plug-In . SVG Version: 6.00 Build 0)  -->
<svg version="1.1" id="Layer_1" xmlns="http://www.w3.org/2000/svg" xmlns:xlink="http://www.w3.org/1999/xlink" x="0px" y="0px"
	 viewBox="0 0 512 512" style="enable-background:new 0 0 512 512;" xml:space="preserve">
<g transform="translate(1 1)">
	<g>
		<g>
			<path d="M459.8,378.733c-5.12,0-8.533,3.413-8.533,8.533s3.413,8.533,8.533,8.533c5.12,0,8.533-3.413,8.533-8.533
				C468.333,383,464.92,378.733,459.8,378.733z"/>
			<path d="M161.133,378.733c-5.12,0-8.533,3.413-8.533,8.533s3.413,8.533,8.533,8.533s8.533-3.413,8.533-8.533
				S166.253,378.733,161.133,378.733z"/>
			<path d="M493.933,349.195v-31.049c0-3.413-1.707-5.973-5.12-7.68l-19.627-8.533c-88.747-39.253-207.36-72.533-318.293-88.747
				l-32.427-110.08l-10.24-34.133C106.52,65.56,103.107,63,99.693,63H24.6C10.093,63-1,74.093-1,88.6s11.093,25.6,25.6,25.6h45.227
				L101.4,219.16l17.716,57.173H71.533c-11.947,0-21.333,8.533-23.893,18.773l-11.947,73.387c-0.853,6.827,0.853,13.653,5.12,18.773
				s11.093,8.533,17.92,8.533h43.269c4.075,29.155,28.753,51.2,59.131,51.2c30.378,0,55.056-22.045,59.131-51.2H409.33
				c4.095,24.134,25.217,42.667,50.47,42.667c28.16,0,51.2-23.04,51.2-51.2C511,372.19,504.391,358.586,493.933,349.195z
				 M420.547,301.08c-7.68,16.213-23.893,26.453-41.813,26.453c-25.6,0-46.933-21.333-46.933-46.933c0-3.413,0-5.973,0.853-9.387
				C364.227,280.6,393.24,290.84,420.547,301.08z M84.333,103.107c-1.707-3.413-5.12-5.973-8.533-5.973H24.6
				c-5.12,0-8.533-3.413-8.533-8.533s3.413-8.533,8.533-8.533h69.12l42.667,142.507c0.853,3.413,3.413,5.12,6.827,5.973
				c57.331,8.379,116.933,21.325,173.404,37.289c-1.177,4.921-1.884,9.843-1.884,14.764c0,34.987,29.013,64,64,64
				c25.259,0,48.448-15.11,58.502-37.929c8.61,3.485,16.999,7.028,25.124,10.622l14.507,6.827v14.507
				c-5.12-1.707-11.093-2.56-17.067-2.56c-0.849,0-1.692,0.024-2.529,0.065c-0.21,0.01-0.418,0.03-0.628,0.043
				c-0.636,0.039-1.27,0.084-1.899,0.146c-0.214,0.021-0.426,0.05-0.639,0.074c-0.629,0.07-1.256,0.148-1.877,0.24
				c-0.192,0.029-0.382,0.062-0.574,0.093c-0.645,0.104-1.285,0.218-1.921,0.345c-0.167,0.034-0.332,0.069-0.498,0.104
				c-0.658,0.139-1.311,0.291-1.959,0.455c-0.146,0.037-0.293,0.074-0.439,0.113c-0.66,0.174-1.314,0.361-1.962,0.561
				c-0.138,0.042-0.276,0.083-0.414,0.127c-0.637,0.202-1.267,0.418-1.892,0.644c-0.153,0.055-0.308,0.107-0.46,0.164
				c-0.563,0.21-1.119,0.433-1.672,0.662c-0.215,0.089-0.433,0.172-0.647,0.264c-0.343,0.148-0.68,0.307-1.019,0.463
				c-15.25,6.93-26.561,21.126-29.441,38.105H220.264c-1.865-13.347-8.046-25.2-17.12-34.133H280.6c5.12,0,8.533-3.413,8.533-8.533
				s-3.413-8.533-8.533-8.533H152.586l-5.147-17.067h99.027c5.12,0,8.533-3.413,8.533-8.533s-3.413-8.533-8.533-8.533h-102.4
				c-0.602,0-1.179,0.051-1.731,0.143l-3.389-11.236l-1.82-5.973h75.207c5.12,0,8.533-3.413,8.533-8.533s-3.413-8.533-8.533-8.533
				h-80.408L84.333,103.107z M55.32,377.027c-0.853-0.853-1.707-2.56-1.707-5.12l1.667-10.24h29.053c5.12,0,8.533-3.413,8.533-8.533
				c0-5.12-3.413-8.533-8.533-8.533H58.059l2.778-17.067h23.496c5.12,0,8.533-3.413,8.533-8.533s-3.413-8.533-8.533-8.533H63.615
				l1.945-11.947c0.853-2.56,2.56-5.12,5.973-5.12h52.871l0.336,1.084l10.714,38.736c-3.776,1.775-7.327,3.934-10.608,6.427
				c-12.488,9.169-21.425,23.594-23.446,39.087H58.733C56.173,378.733,55.32,377.027,55.32,377.027z M161.133,429.933
				c-23.893,0-42.667-18.773-42.667-42.667c0-0.638,0.02-1.271,0.047-1.902c0.024-0.516,0.055-1.03,0.098-1.542
				c0.002-0.024,0.003-0.047,0.005-0.071c1.479-17.352,13.776-32.593,30.57-36.592c1.347-0.449,2.452-0.905,3.326-1.603
				c2.196-0.442,4.578-0.802,7.002-0.917c0.538-0.019,1.075-0.04,1.618-0.04c23.893,0,42.667,18.773,42.667,42.667
				S185.027,429.933,161.133,429.933z M459.8,421.4c-18.773,0-34.133-15.36-34.133-34.133c0-18.773,15.36-34.133,34.133-34.133
				c0.543,0,1.082,0.016,1.619,0.041c0.149,0.007,0.297,0.019,0.446,0.027c0.411,0.025,0.821,0.055,1.228,0.094
				c0.122,0.012,0.244,0.025,0.366,0.037c17.069,1.841,30.474,16.396,30.474,33.933C493.933,406.04,478.573,421.4,459.8,421.4z"/>
		</g>
	</g>
</g>
<g>
</g>
<g>
</g>
<g>
</g>
<g>
</g>
<g>
</g>
<g>
</g>
<g>
</g>
<g>
</g>
<g>
</g>
<g>
</g>
<g>
</g>
<g>
</g>
<g>
</g>
<g>
</g>
<g>
</g>
</svg>
