<?xml version="1.0" encoding="iso-8859-1"?>
<!-- Generator: Adobe Illustrator 19.0.0, SVG Export Plug-In . SVG Version: 6.00 Build 0)  -->
<svg version="1.1" id="Layer_1" xmlns="http://www.w3.org/2000/svg" xmlns:xlink="http://www.w3.org/1999/xlink" x="0px" y="0px"
	 viewBox="0 0 512 512" style="enable-background:new 0 0 512 512;" xml:space="preserve">
<g>
	<g>
		<path d="M499.81,90.954c-11.03-11.029-27.112-14.946-41.982-10.221c-69.423,22.058-157.679,53.852-183.882,80.055
			c-40.763,40.763-42.892,105.747-6.4,149.049l-20.329,21.995c-23.581,25.514-36.567,58.697-36.567,93.438v40.894
			c0,5.514,4.471,9.985,9.985,9.985c5.513,0,9.985-4.47,9.985-9.985V425.27c0-29.701,11.103-58.071,31.263-79.884l19.859-21.487
			c20.309,16.784,45.263,25.181,70.221,25.181c28.253,0,56.507-10.754,78.016-32.263c26.203-26.204,57.996-114.458,80.054-183.881
			C514.755,118.069,510.838,101.983,499.81,90.954z M490.999,126.888c-30.23,95.145-56.917,157.582-75.144,175.809
			c-32.844,32.844-84.884,35.055-120.329,6.662l14.431-14.431h61.868c5.513,0,9.985-4.47,9.985-9.985
			c0-5.515-4.471-9.985-9.985-9.985h-41.898l28.955-28.955h36.906c5.513,0,9.985-4.47,9.985-9.985c0-5.515-4.471-9.985-9.985-9.985
			H378.85l1.897-1.897c3.899-3.899,3.899-10.221,0-14.121c-3.898-3.898-10.22-3.898-14.121,0l-2.791,2.791v-14.729
			c0-5.515-4.471-9.985-9.985-9.985s-9.985,4.47-9.985,9.985v33.948c0,0.242,0.019,0.477,0.036,0.715l-27.993,27.993v-45.682
			c0-5.514-4.471-9.985-9.985-9.985c-5.513,0-9.985,4.47-9.985,9.985v65.651l-14.537,14.537
			c-28.393-35.446-26.183-87.485,6.662-120.329c18.227-18.227,80.664-44.914,175.809-75.144c2.228-0.708,4.48-1.054,6.699-1.054
			c5.588,0,10.951,2.201,15.116,6.365C491.506,110.891,493.49,119.045,490.999,126.888z"/>
	</g>
</g>
<g>
	<g>
		<path d="M430.875,159.888c-3.899-3.899-10.219-3.899-14.12,0l-16.945,16.944c-3.899,3.899-3.899,10.221,0,14.12
			c1.95,1.95,4.505,2.924,7.06,2.924s5.11-0.975,7.06-2.924l16.945-16.944C434.774,170.109,434.774,163.787,430.875,159.888z"/>
	</g>
</g>
<g>
	<g>
		<path d="M93.9,115.977l-13.748-13.749c-3.899-3.899-10.219-3.899-14.121,0c-3.899,3.899-3.899,10.221,0,14.12l13.749,13.749
			c1.95,1.95,4.505,2.924,7.06,2.924s5.11-0.976,7.06-2.924C97.799,126.198,97.799,119.876,93.9,115.977z"/>
	</g>
</g>
<g>
	<g>
		<path d="M213.668,236.911l-11.13-11.513c29.33-35.868,27.276-88.996-6.169-122.441c-17.284-17.283-67.738-39.293-149.96-65.418
			c-12.735-4.046-26.517-0.692-35.966,8.757S-2.36,69.525,1.687,82.261c26.125,82.222,48.135,132.675,65.419,149.96
			c17.82,17.818,41.225,26.729,64.631,26.729c20.016,0,40.021-6.539,56.543-19.57l11.03,11.411
			c7.312,7.563,11.339,17.523,11.339,28.044v57.528c0,5.515,4.471,9.985,9.985,9.985s9.985-4.47,9.985-9.985v-57.528
			C230.619,263.107,224.599,248.218,213.668,236.911z M188.804,210.537l-14.675-14.675v-50.703c0-5.514-4.471-9.985-9.985-9.985
			s-9.985,4.47-9.985,9.985v30.734L121.168,142.9c-3.9-3.899-10.22-3.899-14.121,0c-3.899,3.899-3.899,10.221,0,14.121l32.07,32.07
			H108.23c-5.513,0-9.985,4.47-9.985,9.985c0,5.514,4.471,9.985,9.985,9.985h50.856l15.598,15.598
			c-27.965,21.072-68.002,18.897-93.457-6.558c-14.369-14.369-36.424-66.084-60.509-141.887c-1.805-5.679-0.366-11.585,3.846-15.798
			c3.016-3.016,6.898-4.609,10.946-4.609c1.606,0,3.239,0.251,4.852,0.764c75.803,24.086,127.518,46.14,141.886,60.508
			C207.703,142.533,209.879,182.57,188.804,210.537z"/>
	</g>
</g>
<g>
</g>
<g>
</g>
<g>
</g>
<g>
</g>
<g>
</g>
<g>
</g>
<g>
</g>
<g>
</g>
<g>
</g>
<g>
</g>
<g>
</g>
<g>
</g>
<g>
</g>
<g>
</g>
<g>
</g>
</svg>
