<?xml version="1.0" encoding="iso-8859-1"?>
<!-- Generator: Adobe Illustrator 19.0.0, SVG Export Plug-In . SVG Version: 6.00 Build 0)  -->
<svg version="1.1" id="Layer_1" xmlns="http://www.w3.org/2000/svg" xmlns:xlink="http://www.w3.org/1999/xlink" x="0px" y="0px"
	 viewBox="0 0 512.001 512.001" style="enable-background:new 0 0 512.001 512.001;" xml:space="preserve">
<g>
	<g>
		<path d="M417.987,198.226c0-16.063-4.186-31.662-12.154-45.461c3.886-9.399,5.851-19.345,5.851-29.644
			c0-42.984-34.969-77.953-77.952-77.953c-1.234,0-2.479,0.031-3.732,0.093C313.807,17.551,283.646,0,251.273,0
			c-46.055,0-84.294,34.061-90.267,78.875c-39.253,10.7-66.992,46.47-66.992,87.839c0,31.092,15.599,59.519,41.274,76.252
			c-2.997,8.362-4.509,17.126-4.509,26.165c0,42.983,34.969,77.951,77.953,77.951c17.335,0,33.726-5.669,47.049-15.786v83.319
			c0,5.633,4.566,10.199,10.199,10.199c5.633,0,10.199-4.566,10.199-10.199v-87.05c12.355,7.863,26.793,12.166,41.797,12.166
			c42.982,0,77.951-34.969,77.951-77.953c0-1.323-0.037-2.667-0.109-4.027C410.149,241.195,417.987,220.237,417.987,198.226z
			 M375.157,255.302c0.248,2.213,0.373,4.392,0.373,6.477c0,31.735-25.818,57.554-57.553,57.554
			c-17.061,0-33.145-7.515-44.127-20.618c-2.092-2.496-5.247-3.84-8.499-3.625c-3.249,0.218-6.199,1.975-7.939,4.727
			c-10.632,16.824-28.83,26.868-48.68,26.868c-31.735,0-57.554-25.818-57.554-57.553c0-5.81,0.857-11.464,2.536-16.903
			c10.005,3.659,20.679,5.568,31.384,5.568c5.633,0,10.199-4.566,10.199-10.199c0-5.633-4.566-10.199-10.199-10.199
			c-11.232,0-21.96-2.555-31.893-7.588c-0.113-0.064-0.22-0.135-0.337-0.195c-23.719-12.182-38.454-36.285-38.454-62.901
			c0-34.152,24.354-63.385,57.908-69.509c4.667-0.852,8.131-4.809,8.356-9.548c1.795-37.717,32.805-67.26,70.595-67.26
			c26.999,0,52.016,15.73,63.732,40.075l1.449,3.21c3.652,8.675,5.503,17.893,5.503,27.399c0,5.633,4.566,10.199,10.199,10.199
			c5.633,0,10.199-4.566,10.199-10.199c0-8.646-1.218-17.108-3.579-25.281c29.38,2.565,52.509,27.285,52.509,57.32
			c0,3.345-0.285,6.639-0.843,9.87c-3.458-3.367-7.17-6.479-11.155-9.283c-4.605-3.242-10.967-2.138-14.212,2.468
			c-3.242,4.606-2.138,10.968,2.468,14.212c7.151,5.035,13.246,11.27,18.116,18.532c0.008,0.012,0.018,0.023,0.028,0.036
			c0.04,0.062,0.068,0.13,0.11,0.192c7.714,11.597,11.791,25.111,11.791,39.08c0,18.294-6.982,35.654-19.66,48.884
			C375.835,249.295,374.82,252.295,375.157,255.302z"/>
	</g>
</g>
<g>
	<g>
		<path d="M184.571,134.455c-16.918,0-30.682,13.765-30.682,30.682s13.765,30.682,30.682,30.682s30.682-13.764,30.682-30.682
			S201.49,134.455,184.571,134.455z M184.571,175.422c-5.671,0-10.284-4.613-10.284-10.284s4.613-10.284,10.284-10.284
			s10.284,4.613,10.284,10.284C194.855,170.808,190.242,175.422,184.571,175.422z"/>
	</g>
</g>
<g>
	<g>
		<path d="M251.798,212.187c-16.918,0-30.682,13.764-30.682,30.682s13.765,30.682,30.682,30.682
			c16.917,0,30.682-13.765,30.682-30.682S268.717,212.187,251.798,212.187z M251.798,253.153c-5.671,0-10.284-4.613-10.284-10.284
			s4.613-10.284,10.284-10.284c5.671,0,10.284,4.613,10.284,10.284C262.083,248.54,257.469,253.153,251.798,253.153z"/>
	</g>
</g>
<g>
	<g>
		<path d="M350.539,165.969c-16.918,0-30.682,13.765-30.682,30.682c0,16.917,13.765,30.682,30.682,30.682
			s30.682-13.764,30.682-30.682S367.457,165.969,350.539,165.969z M350.539,206.935c-5.671,0-10.284-4.613-10.284-10.284
			c0-5.671,4.613-10.284,10.284-10.284s10.284,4.613,10.284,10.284C360.824,202.322,356.21,206.935,350.539,206.935z"/>
	</g>
</g>
<g>
	<g>
		<path d="M271.757,51.471c-16.918,0-30.682,13.765-30.682,30.682s13.765,30.682,30.682,30.682s30.682-13.764,30.682-30.682
			S288.676,51.471,271.757,51.471z M271.757,92.437c-5.671,0-10.284-4.613-10.284-10.284s4.613-10.284,10.284-10.284
			c5.671,0,10.284,4.613,10.284,10.284S277.428,92.437,271.757,92.437z"/>
	</g>
</g>
<g>
	<g>
		<path d="M319.216,439.263c-1.933-2.123-4.671-3.334-7.543-3.334h-89.286c-2.871,0-5.61,1.211-7.543,3.334
			c-1.933,2.125-2.881,4.964-2.611,7.823l5.252,55.673c0.494,5.238,4.892,9.242,10.154,9.242h78.783
			c5.262,0,9.66-4.003,10.154-9.242l5.252-55.673C322.098,444.227,321.149,441.388,319.216,439.263z M297.139,491.602h-60.218
			l-3.328-35.274h66.873L297.139,491.602z"/>
	</g>
</g>
<g>
</g>
<g>
</g>
<g>
</g>
<g>
</g>
<g>
</g>
<g>
</g>
<g>
</g>
<g>
</g>
<g>
</g>
<g>
</g>
<g>
</g>
<g>
</g>
<g>
</g>
<g>
</g>
<g>
</g>
</svg>
