<?xml version="1.0" encoding="iso-8859-1"?>
<!-- Generator: Adobe Illustrator 19.0.0, SVG Export Plug-In . SVG Version: 6.00 Build 0)  -->
<svg version="1.1" id="Layer_1" xmlns="http://www.w3.org/2000/svg" xmlns:xlink="http://www.w3.org/1999/xlink" x="0px" y="0px"
	 viewBox="0 0 512 512" style="enable-background:new 0 0 512 512;" xml:space="preserve">
<g>
	<g>
		<path d="M401.534,149.343h-19.32c-4.056-50.645-38.042-92.976-84.213-109.258C296.969,17.807,278.527,0,255.999,0
			s-40.97,17.807-42.002,40.085c-46.171,16.282-80.158,58.612-84.213,109.258h-19.319c-5.633,0-10.199,4.567-10.199,10.199v47.174
			c0,5.632,4.566,10.199,10.199,10.199h18.505l14.454,238.019v46.866c0,5.632,4.566,10.199,10.199,10.199h204.753
			c5.633,0,10.199-4.567,10.199-10.199v-46.866l14.454-238.019h18.505c5.633,0,10.199-4.567,10.199-10.199v-47.174
			C411.734,153.909,407.167,149.343,401.534,149.343z M255.999,20.398c9.299,0,17.223,5.903,20.285,14.149
			c-6.607-1.069-13.381-1.633-20.285-1.633s-13.678,0.564-20.285,1.633C238.776,26.302,246.7,20.398,255.999,20.398z
			 M255.999,53.313c55.136,0,100.595,42.221,105.743,96.029H150.256C155.404,95.534,200.863,53.313,255.999,53.313z
			 M348.176,491.602H163.822v-26.775h184.355V491.602z M348.777,444.428H163.221l-13.817-227.513h213.189L348.777,444.428z
			 M391.335,196.517H120.663v-26.776h270.673V196.517z"/>
	</g>
</g>
<g>
	<g>
		<path d="M193.44,269.205l-1.542-21.078c-0.411-5.618-5.292-9.832-10.916-9.428c-5.618,0.411-9.839,5.298-9.428,10.916
			l1.542,21.077c0.393,5.365,4.866,9.456,10.161,9.456c0.25,0,0.502-0.009,0.755-0.027
			C189.63,279.71,193.851,274.823,193.44,269.205z"/>
	</g>
</g>
<g>
	<g>
		<path d="M203.942,412.733l-7.344-100.373c-0.412-5.62-5.289-9.835-10.916-9.429c-5.618,0.411-9.838,5.299-9.427,10.916
			l7.344,100.373c0.393,5.366,4.866,9.456,10.161,9.456c0.25,0,0.502-0.009,0.755-0.027
			C200.133,423.238,204.353,418.351,203.942,412.733z"/>
	</g>
</g>
<g>
	<g>
		<path d="M255.999,65.83c-35.376,0-68.158,20.604-83.516,52.493c-2.444,5.075-0.312,11.17,4.763,13.615
			c1.427,0.687,2.933,1.012,4.418,1.012c3.795,0,7.439-2.128,9.197-5.776c11.98-24.874,37.548-40.946,65.138-40.946
			c5.633,0,10.199-4.567,10.199-10.199S261.632,65.83,255.999,65.83z"/>
	</g>
</g>
<g>
	<g>
		<path d="M318.044,89.671c-7.456-6.726-15.885-12.164-25.054-16.16c-5.165-2.251-11.174,0.109-13.425,5.275
			c-2.251,5.164,0.111,11.174,5.274,13.424c7.148,3.116,13.722,7.357,19.541,12.605c1.951,1.76,4.394,2.626,6.829,2.626
			c2.786,0,5.563-1.135,7.576-3.368C322.558,99.893,322.226,93.444,318.044,89.671z"/>
	</g>
</g>
<g>
</g>
<g>
</g>
<g>
</g>
<g>
</g>
<g>
</g>
<g>
</g>
<g>
</g>
<g>
</g>
<g>
</g>
<g>
</g>
<g>
</g>
<g>
</g>
<g>
</g>
<g>
</g>
<g>
</g>
</svg>
