<?xml version="1.0" encoding="iso-8859-1"?>
<!-- Generator: Adobe Illustrator 19.0.0, SVG Export Plug-In . SVG Version: 6.00 Build 0)  -->
<svg version="1.1" id="Layer_1" xmlns="http://www.w3.org/2000/svg" xmlns:xlink="http://www.w3.org/1999/xlink" x="0px" y="0px"
	 viewBox="0 0 512 512" style="enable-background:new 0 0 512 512;" xml:space="preserve">
<g>
	<g>
		<path d="M466.267,256C493.258,238.485,512,193.696,512,139.876c0-69.556-31.3-124.041-71.258-124.041H229.606V31.67h211.136
			c30.042,0,55.423,49.552,55.423,108.206c0,24.587-4.461,47.571-11.854,65.979H203.216v15.835H476.56
			c-9.741,16.365-22.307,26.392-35.818,26.392H106.609c16.115-15.718,28.166-42.029,33.25-73.897h269.213V158.35H141.761
			c0.495-6.016,0.755-12.182,0.755-18.474c0-47.011-14.301-87.133-35.906-108.206h101.886V15.835H71.258
			C31.3,15.835,0,70.32,0,139.876C0,193.696,18.742,238.485,45.733,256C18.742,273.515,0,318.303,0,372.124
			c0,69.556,31.3,124.041,71.258,124.041H329.9V480.33H106.609c21.605-21.073,35.906-61.195,35.906-108.206
			c0-22.198-3.192-42.855-8.832-60.701h264.832v-15.835H127.718c-5.721-12.871-12.885-23.649-21.109-31.67h334.133
			c30.042,0,55.423,49.552,55.423,108.206s-25.38,108.206-55.423,108.206H351.01v15.835h89.732
			C480.7,496.165,512,441.68,512,372.124C512,318.303,493.258,273.515,466.267,256z M126.68,372.124
			c0,58.654-25.38,108.206-55.423,108.206c-30.042,0-55.423-49.552-55.423-108.206s25.38-108.206,55.423-108.206
			C101.3,263.918,126.68,313.47,126.68,372.124z M71.258,248.082c-30.042,0-55.423-49.552-55.423-108.206
			c0-58.654,25.38-108.206,55.423-108.206c30.042,0,55.423,49.552,55.423,108.206C126.68,198.53,101.3,248.082,71.258,248.082z"/>
	</g>
</g>
<g>
	<g>
		<path d="M45.29,329.583c-5.38,12.914-8.342,29.896-8.342,47.819h15.835c0-35.861,12.205-55.423,18.474-55.423v-15.835
			C60.809,306.144,51.586,314.469,45.29,329.583z"/>
	</g>
</g>
<g>
	<g>
		<path d="M89.732,377.402c0,35.861-12.205,55.423-18.474,55.423v15.835c10.449,0,19.671-8.325,25.967-23.439
			c5.38-12.914,8.342-29.896,8.342-47.819H89.732z"/>
	</g>
</g>
<g>
	<g>
		<rect x="36.948" y="393.237" width="15.835" height="21.113"/>
	</g>
</g>
<g>
	<g>
		<rect x="89.732" y="340.454" width="15.835" height="21.113"/>
	</g>
</g>
<g>
	<g>
		<rect x="414.351" y="295.588" width="21.113" height="15.835"/>
	</g>
</g>
<g>
	<g>
		<rect x="192.66" y="343.093" width="274.474" height="15.835"/>
	</g>
</g>
<g>
	<g>
		<rect x="219.052" y="385.32" width="163.629" height="15.835"/>
	</g>
</g>
<g>
	<g>
		<rect x="419.629" y="385.32" width="21.113" height="15.835"/>
	</g>
</g>
<g>
	<g>
		<rect x="150.433" y="438.103" width="285.031" height="15.835"/>
	</g>
</g>
<g>
	<g>
		<path d="M45.29,97.336c-5.38,12.914-8.342,29.896-8.342,47.819h15.835c0-35.861,12.205-55.423,18.474-55.423V73.897
			C60.809,73.897,51.586,82.222,45.29,97.336z"/>
	</g>
</g>
<g>
	<g>
		<path d="M89.732,145.155c0,35.861-12.205,55.423-18.474,55.423v15.835c10.449,0,19.671-8.325,25.967-23.439
			c5.38-12.914,8.342-29.896,8.342-47.819H89.732z"/>
	</g>
</g>
<g>
	<g>
		<rect x="36.948" y="160.99" width="15.835" height="21.113"/>
	</g>
</g>
<g>
	<g>
		<rect x="89.732" y="108.206" width="15.835" height="21.113"/>
	</g>
</g>
<g>
	<g>
		<rect x="166.268" y="205.856" width="21.113" height="15.835"/>
	</g>
</g>
<g>
	<g>
		<rect x="219.052" y="116.124" width="163.629" height="15.835"/>
	</g>
</g>
<g>
	<g>
		<rect x="160.99" y="116.124" width="21.113" height="15.835"/>
	</g>
</g>
<g>
	<g>
		<rect x="166.268" y="63.34" width="285.031" height="15.835"/>
	</g>
</g>
<g>
</g>
<g>
</g>
<g>
</g>
<g>
</g>
<g>
</g>
<g>
</g>
<g>
</g>
<g>
</g>
<g>
</g>
<g>
</g>
<g>
</g>
<g>
</g>
<g>
</g>
<g>
</g>
<g>
</g>
</svg>
