<?xml version="1.0" encoding="iso-8859-1"?>
<!-- Generator: Adobe Illustrator 17.1.0, SVG Export Plug-In . SVG Version: 6.00 Build 0)  -->
<!DOCTYPE svg PUBLIC "-//W3C//DTD SVG 1.1//EN" "http://www.w3.org/Graphics/SVG/1.1/DTD/svg11.dtd">
<svg version="1.1" id="Capa_1" xmlns="http://www.w3.org/2000/svg" xmlns:xlink="http://www.w3.org/1999/xlink" x="0px" y="0px"
	 viewBox="0 0 421.097 421.097" style="enable-background:new 0 0 421.097 421.097;" xml:space="preserve">
<path id="XMLID_414_" d="M312.829,333.366c0,4.418-3.582,8-8,8H116.264c-4.418,0-8-3.582-8-8s3.582-8,8-8h188.564
	C309.247,325.366,312.829,328.948,312.829,333.366z M127.353,169.206c-0.078,0-0.157,0.001-0.236,0.002
	c-7.662,0.145-12.252,7.447-16.297,14.914c-2.104,3.885-0.661,8.74,3.224,10.845c1.212,0.656,2.517,0.968,3.804,0.968
	c2.841,0,5.593-1.518,7.041-4.191c0.953-1.759,1.741-3.095,2.384-4.106c1.015,1.573,2.058,3.336,2.668,4.369
	c2.25,3.802,7.153,5.062,10.959,2.813c3.803-2.25,5.062-7.156,2.813-10.959C139.255,176.326,135.044,169.206,127.353,169.206z
	 M257.571,147.327c-2.312-3.764-7.238-4.942-11.004-2.631c-3.765,2.313-4.942,7.239-2.631,11.004
	c0.739,1.203,1.47,2.396,2.188,3.579c1.505,2.479,4.143,3.849,6.846,3.849c1.414,0,2.847-0.375,4.145-1.163
	c3.776-2.293,4.979-7.213,2.686-10.99C259.068,149.771,258.324,148.554,257.571,147.327z M241.997,359.613h-62.9
	c-4.418,0-8,3.582-8,8s3.582,8,8,8h62.9c4.418,0,8-3.582,8-8S246.415,359.613,241.997,359.613z M83.886,294.707
	c-0.113,0-0.226-0.002-0.339-0.007c-45.025-1.908-69.39-10.462-79-27.735c-13.731-24.679,5.033-61.543,37.579-119.321
	c29.158-53.813,50.633-81.389,71.092-89.709c25.301-12.442,55.729-15.694,85.902-9.146c28.641,6.216,54.387,20.752,70.637,39.882
	c26.489,31.185,44.724,75.512,60.687,115.509h32.283c14.565,0,35.393,10.25,36.224,26.943c0.37,7.441,1.383,12.772,3.284,17.287
	c0.778,1.85,3.032,4.007,5.418,6.292c5.509,5.274,13.054,12.499,13.437,25.716c0.158,5.528-1.896,8.838-3.647,10.641
	c-1.618,1.665-4.509,3.649-9.095,3.649H83.886z M236.38,232.138c-4.767-17.754-17.137-42.757-37.818-76.438
	c-0.022-0.038-0.046-0.075-0.068-0.113c-18.673-31.563-35.337-58.858-50.179-73.22c-7.152-6.921-13.528-10.557-19.493-11.116
	c-3.161-0.296-6.473,0.275-9.954,1.749c-0.211,0.104-0.424,0.196-0.639,0.279c-16.037,7.255-35.758,33.482-62.066,82.045
	c-0.021,0.039-0.042,0.077-0.064,0.116c-28.07,49.831-47.196,86.442-37.569,103.745c6.411,11.523,27.846,17.909,65.529,19.521
	h52.955c46.675-0.657,86.239-2.44,97.704-17.61C239.403,254.897,239.947,245.424,236.38,232.138z M404.9,278.707
	c-0.782-4.996-3.779-8.108-8.313-12.449c-3.459-3.312-7.034-6.735-9.1-11.639c-2.658-6.312-4.052-13.313-4.519-22.702
	c-0.282-5.667-12.122-11.738-20.243-11.738h-25.904c3.386,8.452,6.855,16.974,10.414,25.225c1.75,4.058-0.12,8.765-4.177,10.515
	c-4.062,1.752-8.765-0.12-10.515-4.177c-5.061-11.733-14.953-36.595-14.953-36.595c-0.001-0.002-0.002-0.004-0.003-0.006
	c-15.992-40.129-34.117-85.611-60.027-116.112C235.48,73.032,191.421,56.15,149.852,62.925c3.172,2.178,6.361,4.822,9.588,7.944
	c16.292,15.765,32.848,42.807,52.792,76.518c21.776,35.469,34.359,61.081,39.601,80.603c4.932,18.37,3.509,32.355-4.352,42.755
	c-1.298,1.718-2.755,3.308-4.367,4.783c17.829-2.393,31.099-6.651,36.979-14.431c4.688-6.201,5.231-15.673,1.665-28.959
	c-3.302-12.297-10.05-27.668-20.628-46.993c-2.121-3.875-0.699-8.736,3.177-10.858c3.874-2.12,8.736-0.699,10.858,3.176
	c11.197,20.457,18.408,36.983,22.046,50.526c4.931,18.371,3.507,32.356-4.354,42.756c-2.289,3.027-5.075,5.665-8.329,7.963H404.9z
	 M167.454,171.4c17.749,28.91,22.299,44.454,16.232,55.433c-7.274,13.168-26.106,14.041-56.226,14.361
	c-3.198,0.086-6.236,0.13-9.118,0.13c-27.679,0-41.14-4.06-47.005-13.789c-7.766-12.883,0.895-29.628,15.677-55.873
	c16.162-29.823,27.35-41.538,39.891-41.774c0.132-0.003,0.265-0.004,0.396-0.004C142.126,129.884,152.251,145.701,167.454,171.4z
	 M153.786,179.718c-0.022-0.038-0.046-0.075-0.068-0.113c-7.947-13.436-19.947-33.721-26.452-33.721c-0.021,0-0.039,0-0.059,0.001
	c-3.03,0.057-10.458,4.479-26.156,33.457c-0.021,0.039-0.042,0.077-0.063,0.115c-7.685,13.643-19.298,34.259-15.946,39.818
	c1.564,2.595,9.1,6.814,42.053,5.923c0.044-0.001,0.088-0.002,0.132-0.003c15.656-0.166,39.317-0.416,42.456-6.099
	C171.147,216.443,171.031,207.8,153.786,179.718z"/>
<g>
</g>
<g>
</g>
<g>
</g>
<g>
</g>
<g>
</g>
<g>
</g>
<g>
</g>
<g>
</g>
<g>
</g>
<g>
</g>
<g>
</g>
<g>
</g>
<g>
</g>
<g>
</g>
<g>
</g>
</svg>
