<?xml version="1.0" encoding="iso-8859-1"?>
<!-- Generator: Adobe Illustrator 19.0.0, SVG Export Plug-In . SVG Version: 6.00 Build 0)  -->
<svg version="1.1" id="Layer_1" xmlns="http://www.w3.org/2000/svg" xmlns:xlink="http://www.w3.org/1999/xlink" x="0px" y="0px"
	 viewBox="0 0 512 512" style="enable-background:new 0 0 512 512;" xml:space="preserve">
<g>
	<g>
		<path d="M511.947,275.613c-1.12-35.613-30.418-64.244-66.298-64.244H344.984l-16.818-16.817l18.745-18.745
			c3.983-3.983,3.983-10.441,0-14.425c-3.984-3.982-10.44-3.982-14.425,0l-51.914,51.914c-3.983,3.983-3.983,10.441,0,14.425
			c1.992,1.991,4.602,2.987,7.212,2.987s5.22-0.996,7.212-2.987l18.745-18.745l17.877,17.877v38.166l-31.977,31.977
			c-3.983,3.983-3.983,10.441,0,14.425c1.992,1.992,4.602,2.987,7.212,2.987s5.22-0.995,7.212-2.987l17.552-17.552v29.806H205.809
			v-54.429c0-23.268-7.073-44.914-19.18-62.906h8.98c5.632,0,10.199-4.566,10.199-10.199c0-5.633-4.567-10.199-10.199-10.199
			h-26.547c-20.107-18.413-46.875-29.665-76.223-29.665h-0.88L67.497,86.804c-1.872-5.313-7.692-8.104-13.008-6.233
			c-5.313,1.871-8.103,7.694-6.233,13.007l22.242,63.169C30.918,161.034,0,194.639,0,235.341v139.853
			c0,5.633,4.567,10.199,10.199,10.199h21.832c12.342,28.162,40.156,46.617,71.403,46.617s59.06-18.456,71.403-46.617h82.638
			c-0.005,0.133-0.02,0.262-0.02,0.396v12.05h-54.429c-5.632,0-10.199,4.566-10.199,10.199s4.567,10.199,10.199,10.199h129.257
			c5.632,0,10.199-4.566,10.199-10.199s-4.567-10.199-10.199-10.199h-54.429v-12.05c0-0.134-0.015-0.263-0.02-0.396h82.211
			c8.481,27.466,33.881,46.617,63.353,46.617c29.474,0,54.872-19.151,63.354-46.617h15.05c5.632,0,10.199-4.566,10.199-10.199
			v-62.51v-34.963v-1.06C512,276.307,511.982,275.958,511.947,275.613z M103.434,411.612c-19.883,0-37.893-10.116-48.326-26.219
			h96.651C141.326,401.497,123.318,411.612,103.434,411.612z M423.398,411.612c-18.169,0-34.104-10.501-41.527-26.219h83.054
			C457.501,401.108,441.565,411.612,423.398,411.612z M491.602,364.995h-12.872h-110.66H167.845H39.023H20.398V235.341
			c0-32.349,26.318-58.667,58.667-58.667h13.773c51.044,0,92.572,41.527,92.572,92.571v64.628c0,5.633,4.567,10.199,10.199,10.199
			h146.21c5.632,0,10.199-4.566,10.199-10.199V231.768h93.631c21.455,0,39.519,14.782,44.553,34.695h-48.791
			c-5.632,0-10.199,4.566-10.199,10.199v36.023c0,5.633,4.567,10.199,10.199,10.199h50.19V364.995z M491.602,302.485h-39.992
			v-15.624h39.992V302.485z"/>
	</g>
</g>
<g>
	<g>
		<path d="M157.255,245.508c-2.277-5.151-8.303-7.478-13.454-5.199c-5.152,2.281-7.478,8.304-5.198,13.455
			c2.234,5.047,3.367,10.434,3.367,16.011c0,5.633,4.567,10.199,10.199,10.199c5.632,0,10.199-4.566,10.199-10.199
			C162.369,261.336,160.649,253.172,157.255,245.508z"/>
	</g>
</g>
<g>
	<g>
		<path d="M130.466,216.751c-8.595-4.561-18.309-6.971-28.092-6.971c-8.136,0-15.895,1.635-22.977,4.583l-12.72-12.719
			c-3.984-3.983-10.44-3.983-14.425,0c-3.983,3.983-3.983,10.441,0,14.424l9.555,9.555c-11.933,10.973-19.428,26.703-19.428,44.153
			c0,5.633,4.567,10.199,10.199,10.199c5.632,0,10.199-4.566,10.199-10.199c0-21.833,17.763-39.596,39.596-39.596
			c6.554,0,12.789,1.545,18.53,4.592c4.977,2.64,11.15,0.747,13.79-4.229S135.442,219.391,130.466,216.751z"/>
	</g>
</g>
<g>
</g>
<g>
</g>
<g>
</g>
<g>
</g>
<g>
</g>
<g>
</g>
<g>
</g>
<g>
</g>
<g>
</g>
<g>
</g>
<g>
</g>
<g>
</g>
<g>
</g>
<g>
</g>
<g>
</g>
</svg>
