<?xml version="1.0" encoding="iso-8859-1"?>
<!-- Generator: Adobe Illustrator 19.0.0, SVG Export Plug-In . SVG Version: 6.00 Build 0)  -->
<svg version="1.1" id="Layer_1" xmlns="http://www.w3.org/2000/svg" xmlns:xlink="http://www.w3.org/1999/xlink" x="0px" y="0px"
	 viewBox="0 0 512.001 512.001" style="enable-background:new 0 0 512.001 512.001;" xml:space="preserve">
<g>
	<g>
		<path d="M263.488,140.283c-1.201-19.724-2.057-76.194,24.254-105.686c11.047-12.382,25.343-18.402,43.707-18.402h37.724V0h-37.724
			c-22.936,0-41.717,8.022-55.818,23.843c-6.153,6.904-11.028,14.9-14.888,23.443c-3.535-11.309-9.716-19.669-18.52-24.923
			c-17.91-10.689-45.258-7.525-81.283,9.403l6.888,14.658c30.419-14.294,53.273-17.807,66.096-10.154
			c6.794,4.054,11.17,11.778,13.063,23.01h-66.435v16.196h66.441c-2.032,12.292-6.957,20.195-14.958,24.02
			c-13.608,6.506-36.854,2.148-67.221-12.604c-13.858-6.731-26.298-14.278-34.422-19.516c5.542-3.575,13.089-8.22,21.71-12.938
			l-7.775-14.207c-18.952,10.372-32.604,20.164-33.176,20.575l-9.128,6.571l9.128,6.571c0.846,0.609,21.014,15.062,46.381,27.41
			c23.566,11.471,43.555,17.224,59.747,17.224c8.236,0,15.491-1.489,21.733-4.47c3.002-1.434,5.729-3.194,8.2-5.256
			c-0.758,12.985-0.419,24.195,0.023,31.492c-31.827,1.491-62.66,11.06-89.664,27.946l8.587,13.732
			c26.9-16.822,57.968-25.712,89.844-25.712c93.598,0,169.745,76.147,169.745,169.744c0,93.598-76.147,169.745-169.745,169.745
			c-93.597,0-169.744-76.147-169.744-169.745c0-49.411,21.493-96.284,58.968-128.598l-10.577-12.265
			C93.601,220.59,70.06,271.933,70.06,326.06c0,102.528,83.412,185.941,185.94,185.941s185.941-83.412,185.941-185.941
			C441.94,226.041,362.556,144.227,263.488,140.283z"/>
	</g>
</g>
<g>
	<g>
		<rect x="180.55" y="210.177" width="21.557" height="16.196"/>
	</g>
</g>
<g>
	<g>
		<rect x="158.998" y="231.729" width="21.557" height="16.196"/>
	</g>
</g>
<g>
	<g>
		<rect x="202.111" y="231.729" width="21.557" height="16.196"/>
	</g>
</g>
<g>
	<g>
		<path d="M371.852,342.227c0,57.939-47.136,105.075-105.075,105.075v16.196c66.869,0,121.27-54.401,121.27-121.27H371.852z"/>
	</g>
</g>
<g>
	<g>
		<rect x="371.853" y="293.726" width="16.196" height="26.946"/>
	</g>
</g>
<g>
</g>
<g>
</g>
<g>
</g>
<g>
</g>
<g>
</g>
<g>
</g>
<g>
</g>
<g>
</g>
<g>
</g>
<g>
</g>
<g>
</g>
<g>
</g>
<g>
</g>
<g>
</g>
<g>
</g>
</svg>
