<?xml version="1.0" encoding="iso-8859-1"?>
<!-- Generator: Adobe Illustrator 19.0.0, SVG Export Plug-In . SVG Version: 6.00 Build 0)  -->
<svg version="1.1" id="Layer_1" xmlns="http://www.w3.org/2000/svg" xmlns:xlink="http://www.w3.org/1999/xlink" x="0px" y="0px"
	 viewBox="0 0 512 512" style="enable-background:new 0 0 512 512;" xml:space="preserve">
<g>
	<g>
		<path d="M388.603,444.205c-36.735,32.066-83.828,49.724-132.603,49.724c-111.265,0-201.788-90.523-201.788-201.788
			c0-57.034,24.323-111.673,66.732-149.906l-12.099-13.42C62.64,170.467,36.141,229.998,36.141,292.141
			C36.141,413.372,134.769,512,256,512c53.146,0,104.459-19.242,144.485-54.18L388.603,444.205z"/>
	</g>
</g>
<g>
	<g>
		<path d="M289.129,74.746V0h-66.259v74.752c-33.138,5.059-64.972,17.748-92.519,36.971l10.341,14.819
			c24.524-17.114,52.752-28.576,82.178-33.485v51.507h-33.129v18.071h132.518v-18.071h-33.129V93.033
			c96.841,16.02,168.659,99.885,168.659,199.108c0,53.088-20.475,103.225-57.652,141.177l12.908,12.645
			c40.506-41.349,62.815-95.977,62.815-153.822C475.859,183.027,396.139,90.969,289.129,74.746z M271.059,144.565h-30.118V18.071
			h30.118V144.565z"/>
	</g>
</g>
<g>
	<g>
		<path d="M120.471,292.141H102.4c0,84.696,68.904,153.6,153.6,153.6v-18.071C181.27,427.671,120.471,366.872,120.471,292.141z"/>
	</g>
</g>
<g>
	<g>
		<rect x="280.094" y="427.671" width="30.118" height="18.071"/>
	</g>
</g>
<g>
	<g>
		<rect x="334.306" y="234.918" width="24.094" height="18.071"/>
	</g>
</g>
<g>
	<g>
		<rect x="358.4" y="259.012" width="24.094" height="18.071"/>
	</g>
</g>
<g>
	<g>
		<rect x="382.494" y="234.918" width="24.094" height="18.071"/>
	</g>
</g>
<g>
</g>
<g>
</g>
<g>
</g>
<g>
</g>
<g>
</g>
<g>
</g>
<g>
</g>
<g>
</g>
<g>
</g>
<g>
</g>
<g>
</g>
<g>
</g>
<g>
</g>
<g>
</g>
<g>
</g>
</svg>
