<?xml version="1.0" encoding="iso-8859-1"?>
<!-- Generator: Adobe Illustrator 19.0.0, SVG Export Plug-In . SVG Version: 6.00 Build 0)  -->
<svg version="1.1" id="Layer_1" xmlns="http://www.w3.org/2000/svg" xmlns:xlink="http://www.w3.org/1999/xlink" x="0px" y="0px"
	 viewBox="0 0 512 512" style="enable-background:new 0 0 512 512;" xml:space="preserve">
<g>
	<g>
		<path d="M501.801,16.829H10.199C4.566,16.829,0,21.396,0,27.028v71.686c0,5.632,4.566,10.199,10.199,10.199h18.575l64.798,377.783
			c0.839,4.897,5.084,8.476,10.052,8.476h304.752c4.967,0,9.212-3.579,10.052-8.476l64.798-377.783h18.575
			c5.632,0,10.199-4.567,10.199-10.199V27.028C512,21.396,507.433,16.829,501.801,16.829z M399.778,474.773H112.222L49.47,108.913
			h24.089c5.322,22.09,14.647,43.081,27.717,62.084c19.723,28.675,46.669,51.099,78.229,65.185v12.168
			c0,5.632,4.566,10.199,10.199,10.199h132.59c5.632,0,10.199-4.567,10.199-10.199v-12.182c44.672-19.98,80.29-57.149,98.226-102.78
			c2.061-5.243-0.519-11.162-5.761-13.223c-5.243-2.061-11.163,0.52-13.223,5.76c-14.857,37.8-43.33,69.083-79.241,87.611v-8.022
			c0-5.632-4.567-10.199-10.199-10.199h-132.59c-5.633,0-10.199,4.567-10.199,10.199v8.06
			c-42.296-21.669-72.76-59.749-84.924-104.661H462.53L399.778,474.773z M199.904,238.151v-22.438h112.191v22.438H199.904z
			 M491.602,88.515H90.403c-1.099-7.782-1.67-15.712-1.67-23.75c0-5.632-4.566-10.199-10.199-10.199
			c-5.633,0-10.199,4.567-10.199,10.199c0,7.992,0.506,15.92,1.494,23.75h-49.43V37.227h471.203V88.515z"/>
	</g>
</g>
<g>
	<g>
		<path d="M433.466,54.566c-5.632,0-10.199,4.567-10.199,10.199c0,1.601-0.022,3.221-0.067,4.812
			c-0.159,5.63,4.277,10.324,9.906,10.483c0.099,0.003,0.195,0.004,0.293,0.004c5.5,0,10.034-4.38,10.19-9.912
			c0.051-1.782,0.076-3.594,0.076-5.387C443.665,59.133,439.098,54.566,433.466,54.566z"/>
	</g>
</g>
<g>
	<g>
		<path d="M324.845,436.016H137.179c-5.633,0-10.199,4.567-10.199,10.199s4.566,10.199,10.199,10.199h187.665
			c5.632,0,10.199-4.567,10.199-10.199S330.477,436.016,324.845,436.016z"/>
	</g>
</g>
<g>
	<g>
		<path d="M374.821,436.016h-14.279c-5.632,0-10.199,4.567-10.199,10.199s4.567,10.199,10.199,10.199h14.279
			c5.632,0,10.199-4.567,10.199-10.199S380.453,436.016,374.821,436.016z"/>
	</g>
</g>
<g>
</g>
<g>
</g>
<g>
</g>
<g>
</g>
<g>
</g>
<g>
</g>
<g>
</g>
<g>
</g>
<g>
</g>
<g>
</g>
<g>
</g>
<g>
</g>
<g>
</g>
<g>
</g>
<g>
</g>
</svg>
