<?xml version="1.0" encoding="iso-8859-1"?>
<!-- Generator: Adobe Illustrator 19.0.0, SVG Export Plug-In . SVG Version: 6.00 Build 0)  -->
<svg version="1.1" id="Layer_1" xmlns="http://www.w3.org/2000/svg" xmlns:xlink="http://www.w3.org/1999/xlink" x="0px" y="0px"
	 viewBox="0 0 512 512" style="enable-background:new 0 0 512 512;" xml:space="preserve">
<g>
	<g>
		<path d="M422.096,166.053c-0.012-2.662-1.102-5.283-2.984-7.167l-70.738-70.738l70.738-70.738
			c2.917-2.917,3.789-7.305,2.21-11.115C419.743,2.486,416.023,0,411.899,0H256.005c-2.697,0.046-5.299,1.068-7.217,2.987
			L178.05,73.725L107.313,2.987c-2.918-2.916-7.305-3.788-11.115-2.21s-6.296,5.297-6.296,9.422v155.899
			c0,2.676,1.094,5.32,2.987,7.212l70.738,70.738l-70.738,70.738c-2.917,2.917-3.789,7.305-2.21,11.115
			c1.579,3.811,5.297,6.296,9.423,6.296H256c2.676,0,5.32-1.094,7.212-2.987l70.738-70.738l70.738,70.738
			c1.952,1.951,4.56,2.987,7.214,2.987c1.314,0,2.64-0.255,3.901-0.777c3.811-1.579,6.296-5.297,6.296-9.423V166.098
			C422.098,166.083,422.096,166.069,422.096,166.053z M387.276,155.899h-91.588c-0.726-3.971-2.046-7.733-3.872-11.193
			l42.133-42.133L387.276,155.899z M266.199,20.398h121.077L277.947,129.727c-3.572-2.254-7.527-3.946-11.748-4.958V20.398z
			 M245.8,34.822v90.504c-3.935,1.177-7.613,2.951-10.926,5.222l-42.4-42.4L245.8,34.822z M110.3,34.822l111.262,111.262
			c-1.469,3.073-2.542,6.366-3.172,9.815H110.3V34.822z M124.724,176.297h95.342c0.968,2.678,2.222,5.217,3.72,7.59l-45.736,45.736
			L124.724,176.297z M245.8,311.798L245.8,311.798H124.724l114.04-114.04c2.229,1.176,4.581,2.143,7.036,2.877V311.798z
			 M244.342,176.237c-5.873-5.719-7.404-14.861-3.633-22.153c3.756-7.264,12.011-11.418,20.084-10
			c7.083,1.244,12.99,6.623,14.923,13.545c2.332,8.346-1.479,17.387-9.037,21.594l-0.008,0.005
			c-0.333,0.186-0.671,0.359-1.012,0.522C258.614,183.112,249.971,181.718,244.342,176.237z M266.199,297.374v-96.183
			c2.696-0.647,5.286-1.564,7.735-2.734l45.59,45.59L266.199,297.374z M401.699,297.374L289.47,185.145
			c1.867-2.723,3.401-5.692,4.542-8.848h107.687V297.374z"/>
	</g>
</g>
<g>
	<g>
		<path d="M366.105,219.168l-29.101-29.102c-3.984-3.983-10.441-3.982-14.424,0c-3.983,3.983-3.983,10.441,0,14.424l29.101,29.102
			c1.992,1.992,4.601,2.987,7.212,2.987c2.61,0,5.221-0.995,7.212-2.987C370.088,229.609,370.088,223.15,366.105,219.168z"/>
	</g>
</g>
<g>
	<g>
		<path d="M390.789,243.85l-5.457-5.457c-3.984-3.983-10.442-3.984-14.425,0c-3.983,3.984-3.983,10.442,0,14.425l5.457,5.457
			c1.991,1.992,4.602,2.987,7.212,2.987c2.61,0,5.221-0.995,7.213-2.987C394.772,254.291,394.772,247.832,390.789,243.85z"/>
	</g>
</g>
<g>
	<g>
		<path d="M256,347.135c-5.633,0-10.199,4.566-10.199,10.199v144.467C245.8,507.434,250.367,512,256,512
			c5.633,0,10.199-4.566,10.199-10.199V357.334C266.199,351.701,261.633,347.135,256,347.135z"/>
	</g>
</g>
<g>
</g>
<g>
</g>
<g>
</g>
<g>
</g>
<g>
</g>
<g>
</g>
<g>
</g>
<g>
</g>
<g>
</g>
<g>
</g>
<g>
</g>
<g>
</g>
<g>
</g>
<g>
</g>
<g>
</g>
</svg>
