<?xml version="1.0" encoding="iso-8859-1"?>
<!-- Generator: Adobe Illustrator 19.0.0, SVG Export Plug-In . SVG Version: 6.00 Build 0)  -->
<svg version="1.1" id="Layer_1" xmlns="http://www.w3.org/2000/svg" xmlns:xlink="http://www.w3.org/1999/xlink" x="0px" y="0px"
	 viewBox="0 0 512.001 512.001" style="enable-background:new 0 0 512.001 512.001;" xml:space="preserve">
<g>
	<g>
		<path d="M166.577,162.29c-7.182-5.159-13.735-12.405-18.951-20.955c-2.934-4.812-9.212-6.331-14.019-3.396
			c-4.809,2.933-6.33,9.209-3.396,14.018c6.625,10.861,15.085,20.164,24.465,26.901c1.801,1.294,3.881,1.916,5.942,1.916
			c3.173,0,6.299-1.477,8.293-4.25C172.197,171.95,171.153,165.577,166.577,162.29z"/>
	</g>
</g>
<g>
	<g>
		<path d="M138.499,47.516c-4.897-2.781-11.123-1.067-13.906,3.832c-11.379,20.038-13.69,47.551-6.183,73.594
			c1.288,4.468,5.366,7.377,9.795,7.377c0.935,0,1.886-0.131,2.83-0.402c5.413-1.559,8.536-7.212,6.975-12.625
			c-6.019-20.877-4.403-42.51,4.32-57.871C145.113,56.523,143.397,50.298,138.499,47.516z"/>
	</g>
</g>
<g>
	<g>
		<path d="M498.291,291.761c-4.962-10.139-13.576-17.741-24.254-21.4l-239.87-82.242c-4.996-5.41-11.283-9.531-18.444-11.986
			c-3.488-1.195-7.056-1.948-10.638-2.271L157.091,7.372c-0.75-2.6-2.501-4.795-4.868-6.102c-2.368-1.307-5.158-1.62-7.758-0.872
			c-23.048,6.645-41.196,24.436-51.101,50.099c-9.525,24.68-10.267,53.897-2.089,82.267c5.621,19.499,15.021,37.092,27.233,51.325
			c-6.428-2.249-12.777-5.068-18.923-8.463c-22.468-12.413-40.241-31.389-48.762-52.063c-1.752-4.251-4.929-7.814-8.943-10.03
			c-5.368-2.966-11.705-3.348-17.389-1.055c-5.72,2.31-10.043,7.025-11.862,12.938c-12.783,41.544,13.135,91.142,61.625,117.932
			c20.653,11.411,43.096,17.387,64.64,17.386c5.416,0,10.776-0.377,16.035-1.141c6.086-0.884,11.862-2.284,17.32-4.117
			l92.508,229.098c3.44,10.712,11.402,19.439,21.908,23.988c5.307,2.297,10.981,3.44,16.688,3.44c6.54,0,13.121-1.502,19.23-4.491
			c20.931-10.243,29.987-34.871,20.186-54.9l-54.01-110.368l33.662-44.092l118.856,49.914c5.978,3.019,12.503,4.541,19.049,4.541
			c5.325,0,10.664-1.008,15.727-3.038c11.422-4.577,20.263-13.88,24.254-25.52C503.969,313.367,503.253,301.901,498.291,291.761z
			 M152,239.406c-21.799,3.169-45.907-1.773-67.878-13.913c-39.357-21.744-61.698-62.066-52.051-93.9
			c10.439,25.138,30.904,47.109,57.651,61.888c19.868,10.976,41.707,16.922,62.57,17.328c1.507,0.03,3.009,0.026,4.505-0.003
			c-0.115,0.641-0.221,1.281-0.309,1.924c-1.156,8.481,0.152,17.106,3.845,25.015C157.649,238.427,154.873,238.989,152,239.406z
			 M166.767,189.606c-1.083,1.279-2.095,2.617-3.029,4.014c-2.147-0.952-4.283-2.03-6.402-3.236c-2.801-1.595-5.573-3.4-8.299-5.434
			c-17.655-13.176-31.208-33.717-38.16-57.835c-12.748-44.222,0.534-87.853,29.731-103.281l44.098,152.975
			c-1.136,0.447-2.263,0.929-3.372,1.472C175.654,181.06,170.733,184.922,166.767,189.606z M183.498,201.153
			c9.744-9.744,25.505-9.782,35.204-0.084s9.661,25.459-0.084,35.204s-25.505,9.782-35.204,0.084
			C173.716,226.659,173.753,210.898,183.498,201.153z M324.448,461.574c4.858,9.926,0,22.313-10.83,27.611
			c-6.074,2.971-12.942,3.21-18.847,0.654c-5.245-2.271-9.03-6.431-10.656-11.713c-0.085-0.276-0.183-0.55-0.291-0.819
			l-86.288-213.696c1.208,0.099,2.416,0.149,3.624,0.149c6.765,0,13.496-1.545,19.751-4.606c1.219-0.597,2.392-1.249,3.532-1.939
			L324.448,461.574z M278.736,321.756l-25.842-52.806l50.094,21.038L278.736,321.756z M481.011,317.429
			c-2.064,6.022-6.638,10.835-12.547,13.203c-5.909,2.368-12.54,2.048-18.193-0.881c-0.243-0.125-0.491-0.242-0.744-0.348
			l-209.544-87.999c4.825-8.294,6.95-18.026,5.871-27.715l221.566,75.967c5.525,1.893,9.98,5.826,12.547,11.07
			C482.536,305.972,482.906,311.904,481.011,317.429z"/>
	</g>
</g>
<g>
</g>
<g>
</g>
<g>
</g>
<g>
</g>
<g>
</g>
<g>
</g>
<g>
</g>
<g>
</g>
<g>
</g>
<g>
</g>
<g>
</g>
<g>
</g>
<g>
</g>
<g>
</g>
<g>
</g>
</svg>
