<?xml version="1.0" encoding="iso-8859-1"?>
<!-- Generator: Adobe Illustrator 19.0.0, SVG Export Plug-In . SVG Version: 6.00 Build 0)  -->
<svg version="1.1" id="Layer_1" xmlns="http://www.w3.org/2000/svg" xmlns:xlink="http://www.w3.org/1999/xlink" x="0px" y="0px"
	 viewBox="0 0 512 512" style="enable-background:new 0 0 512 512;" xml:space="preserve">
<g>
	<g>
		<path d="M437.025,74.976C388.676,26.627,324.386,0,256,0c-40.202,0-78.688,9.055-114.387,26.911l7.085,14.162
			C182.177,24.326,218.28,15.835,256,15.835c64.156,0,124.469,24.98,169.828,70.337c45.358,45.358,70.337,105.67,70.337,169.828
			c0,57.199-20.338,112.302-57.356,155.711h-71.961v15.835h57.182c-44.675,43.79-104.996,68.619-168.03,68.619
			c-63.032,0-123.351-24.826-168.03-68.619h257.763v-15.835H73.191C36.174,368.307,15.835,313.203,15.835,256
			c0-38.48,9.314-76.737,26.937-110.632c17.057-32.813,41.908-61.704,71.862-83.549l-9.33-12.795
			c-31.919,23.278-58.402,54.067-76.583,89.038C9.932,174.206,0,214.987,0,256c0,62.629,22.865,122.905,64.377,169.72
			C112.891,480.552,182.735,512,256,512s143.109-31.448,191.617-86.274C489.135,378.905,512,318.629,512,256
			C512,187.614,485.373,123.324,437.025,74.976z"/>
	</g>
</g>
<g>
	<g>
		<path d="M382.68,95.01c-4.516,0-8.975,0.624-13.332,1.862c-10.881-26.338-36.842-44.089-65.843-44.089
			c-29.215,0-54.902,17.592-65.758,43.883c-11.686-7.92-25.524-12.213-39.809-12.213c-32.52,0-60.751,22.299-68.871,53.101
			c-1.687-0.211-3.364-0.318-5.026-0.318c-24.74,0-44.866,20.126-44.866,44.866s20.126,44.866,44.866,44.866h153.072
			c20.816,0,39.176-12.748,46.605-31.67h58.962c27.649,0,50.144-22.495,50.144-50.144S410.329,95.01,382.68,95.01z M277.113,211.134
			H124.041c-16.007,0-29.031-13.023-29.031-29.031s13.024-29.031,29.031-29.031c2.789,0,5.71,0.503,8.684,1.493
			c5.747,1.957,22.77,9.698,26.032,19.484l15.022-5.007c-4.674-14.023-20.374-22.837-29.525-26.914
			c6.123-24.231,28.204-41.839,53.684-41.839c8.646,0,17.076,2.028,24.674,5.827c-21.428,3.37-37.87,21.958-37.87,44.317
			c0,24.74,20.126,44.866,44.866,44.866h76.421C299.886,204.96,289.099,211.134,277.113,211.134z M382.68,179.464H229.608
			c-16.007,0-29.031-13.023-29.031-29.031s13.024-29.031,29.031-29.031c2.79,0,5.711,0.503,8.687,1.494l7.816,2.605
			c5.695,3.689,13.051,9.697,19.149,18.787l13.15-8.821c-9.233-13.764-20.922-21.887-28.314-26.016
			c6.516-24.106,28.284-40.832,53.409-40.832c22.779,0,43.14,14.092,51.448,34.918c-8.456,5.414-23.103,17-27.459,34.42
			l15.363,3.841c4.247-16.99,24.477-27.201,25.098-27.511c4.748-2.282,9.704-3.44,14.726-3.44c18.919,0,34.309,15.392,34.309,34.309
			S401.599,179.464,382.68,179.464z"/>
	</g>
</g>
<g>
	<g>
		<rect x="248.082" y="256" width="15.835" height="31.67"/>
	</g>
</g>
<g>
	<g>
		<rect x="353.649" y="256" width="15.835" height="31.67"/>
	</g>
</g>
<g>
	<g>
		<rect x="142.515" y="256" width="15.835" height="31.67"/>
	</g>
</g>
<g>
	<g>
		<rect x="168.907" y="298.227" width="15.835" height="31.67"/>
	</g>
</g>
<g>
	<g>
		<rect x="221.691" y="298.227" width="15.835" height="31.67"/>
	</g>
</g>
<g>
	<g>
		<rect x="274.474" y="298.227" width="15.835" height="31.67"/>
	</g>
</g>
<g>
	<g>
		<rect x="327.258" y="298.227" width="15.835" height="31.67"/>
	</g>
</g>
<g>
	<g>
		<rect x="195.299" y="256" width="15.835" height="31.67"/>
	</g>
</g>
<g>
	<g>
		<rect x="300.866" y="256" width="15.835" height="31.67"/>
	</g>
</g>
<g>
	<g>
		<rect x="248.082" y="340.454" width="15.835" height="31.67"/>
	</g>
</g>
<g>
	<g>
		<rect x="353.649" y="340.454" width="15.835" height="31.67"/>
	</g>
</g>
<g>
	<g>
		<rect x="142.515" y="340.454" width="15.835" height="31.67"/>
	</g>
</g>
<g>
	<g>
		<rect x="195.299" y="340.454" width="15.835" height="31.67"/>
	</g>
</g>
<g>
	<g>
		<rect x="300.866" y="340.454" width="15.835" height="31.67"/>
	</g>
</g>
<g>
	<g>
		<rect x="187.381" y="448.66" width="73.897" height="15.835"/>
	</g>
</g>
<g>
	<g>
		<rect x="282.392" y="448.66" width="42.227" height="15.835"/>
	</g>
</g>
<g>
	<g>
		<path d="M438.103,261.278c0,34.094-9.479,67.325-27.41,96.101l13.44,8.376c19.498-31.291,29.806-67.418,29.806-104.477H438.103z"
			/>
	</g>
</g>
<g>
	<g>
		<path d="M448.979,217.243l-15.417,3.617c1.898,8.092,3.223,16.581,3.936,25.234l15.781-1.3
			C452.502,235.363,451.055,226.094,448.979,217.243z"/>
	</g>
</g>
<g>
	<g>
		<path d="M73.897,261.278H58.062c0,45.798,15.211,88.807,43.989,124.376l12.311-9.96C87.89,342.976,73.897,303.411,73.897,261.278z
			"/>
	</g>
</g>
<g>
</g>
<g>
</g>
<g>
</g>
<g>
</g>
<g>
</g>
<g>
</g>
<g>
</g>
<g>
</g>
<g>
</g>
<g>
</g>
<g>
</g>
<g>
</g>
<g>
</g>
<g>
</g>
<g>
</g>
</svg>
