<?xml version="1.0" encoding="iso-8859-1"?>
<!-- Generator: Adobe Illustrator 19.0.0, SVG Export Plug-In . SVG Version: 6.00 Build 0)  -->
<svg version="1.1" id="Layer_1" xmlns="http://www.w3.org/2000/svg" xmlns:xlink="http://www.w3.org/1999/xlink" x="0px" y="0px"
	 viewBox="0 0 511.998 511.998" style="enable-background:new 0 0 511.998 511.998;" xml:space="preserve">
<g>
	<g>
		<path d="M494.661,403.401c-0.144-0.136-0.291-0.267-0.442-0.395L346.717,278.729c-4.049-3.413-10.038-3.157-13.784,0.587
			l-13.198,13.198l-58.955-58.955l93.715-93.715c8.982-8.982,13.406-21.297,12.454-34.675c-0.911-12.815-6.705-25.166-16.314-34.775
			l-19.771-19.772c-0.089-0.089-0.187-0.167-0.279-0.252c-0.084-0.091-0.159-0.186-0.247-0.273l-31.811-31.811
			c-0.008-0.008-0.016-0.014-0.024-0.021c-1.605-1.638-3.77-2.747-6.229-3.002l-23.33-2.411c-5.61-0.58-10.615,3.493-11.194,9.097
			c-0.579,5.603,3.493,10.614,9.096,11.195l19.726,2.039l22.654,22.654l-17.871,17.872l-25.126-25.126
			c-0.002-0.002-0.004-0.003-0.006-0.005c-1.598-1.637-3.753-2.75-6.206-3.013l-23.245-2.496c-5.609-0.605-10.629,3.45-11.23,9.052
			c-0.602,5.6,3.451,10.629,9.052,11.229l19.665,2.111l22.672,22.672l-17.787,17.787l-25.126-25.126
			c-0.002-0.002-0.005-0.004-0.008-0.007c-1.598-1.637-3.753-2.749-6.205-3.012L204.56,77.28
			c-5.609-0.594-10.629,3.452-11.229,9.053c-0.601,5.6,3.451,10.629,9.052,11.23l19.667,2.111l22.67,22.671l-17.788,17.788
			l-25.126-25.126c-0.003-0.003-0.007-0.006-0.01-0.009c-1.598-1.636-3.752-2.747-6.203-3.01l-23.245-2.495
			c-5.608-0.587-10.629,3.452-11.229,9.053c-0.601,5.6,3.451,10.629,9.052,11.23l19.667,2.111l22.67,22.671l-17.788,17.788
			l-25.126-25.126c0,0-0.001,0-0.001-0.001c-1.598-1.64-3.756-2.756-6.211-3.019l-23.246-2.495
			c-5.604-0.598-10.629,3.451-11.229,9.053c-0.601,5.6,3.451,10.629,9.052,11.23l19.666,2.111l22.671,22.671l-17.788,17.788
			l-25.126-25.126c-0.002-0.002-0.004-0.003-0.006-0.005c-1.598-1.637-3.753-2.75-6.206-3.013l-23.246-2.496
			c-5.604-0.609-10.629,3.45-11.23,9.052c-0.602,5.6,3.451,10.629,9.052,11.229l19.665,2.111l22.671,22.671l-17.788,17.788
			l-25.125-25.126c-0.003-0.003-0.006-0.005-0.008-0.008c-1.598-1.636-3.752-2.748-6.204-3.01l-23.245-2.496
			c-5.603-0.602-10.629,3.45-11.23,9.052c-0.602,5.6,3.451,10.629,9.052,11.229l19.666,2.111l22.671,22.672l-17.787,17.787
			l-25.126-25.126c-0.002-0.002-0.005-0.004-0.008-0.007c-1.598-1.637-3.753-2.749-6.205-3.012l-23.246-2.495
			c-5.607-0.597-10.629,3.452-11.229,9.053c-0.601,5.6,3.451,10.629,9.052,11.23l19.667,2.111l22.67,22.67l-17.788,17.788
			l-2.406-2.406c-3.983-3.982-10.441-3.982-14.424,0c-3.983,3.984-3.983,10.441,0,14.425l9.093,9.092
			c0.088,0.088,0.184,0.163,0.273,0.247c0.086,0.092,0.162,0.189,0.252,0.278l19.778,19.767
			c9.609,9.609,21.962,15.401,34.783,16.306c1.187,0.084,2.365,0.125,3.533,0.125c12.006,0,22.959-4.401,31.144-12.587
			l98.464-98.463l58.955,58.955l-13.198,13.198c-3.745,3.745-4,9.733-0.587,13.784l124.276,147.503
			c0.127,0.151,0.259,0.299,0.395,0.443c10.391,10.971,24.435,17.126,39.545,17.331c0.26,0.003,0.518,0.005,0.777,0.005
			c14.818,0,28.722-5.756,39.222-16.256c10.686-10.686,16.457-24.89,16.252-40C511.788,427.835,505.634,413.792,494.661,403.401z
			 M133.468,332.023c-4.739,4.739-11.418,7.061-18.814,6.537c-7.922-0.56-15.664-4.248-21.8-10.384l-12.559-12.559L323.654,72.259
			l12.559,12.559c6.137,6.138,9.827,13.877,10.39,21.797c0.525,7.389-1.795,14.068-6.532,18.805L133.468,332.023z M481.319,468.521
			c-6.758,6.758-15.74,10.423-25.299,10.279c-9.464-0.128-18.268-3.947-24.821-10.761l-118.039-140.1l27.577-27.576l140.1,118.04
			c6.813,6.553,10.632,15.356,10.76,24.819C491.727,452.78,488.077,461.763,481.319,468.521z"/>
	</g>
</g>
<g>
	<g>
		<path d="M26.616,272.199l-15.327-1.645c-5.601-0.587-10.629,3.452-11.229,9.053c-0.601,5.6,3.451,10.629,9.052,11.23l15.327,1.645
			c0.37,0.039,0.737,0.059,1.102,0.059c5.143,0,9.567-3.882,10.129-9.112C36.268,277.829,32.216,272.801,26.616,272.199z"/>
	</g>
</g>
<g>
	<g>
		<path d="M237.68,188.432c-3.983-3.982-10.441-3.982-14.424,0L103.609,308.079c-3.983,3.983-3.983,10.441,0,14.425
			c1.992,1.991,4.602,2.987,7.212,2.987c2.61,0,5.221-0.996,7.212-2.987L237.68,202.857
			C241.662,198.874,241.662,192.416,237.68,188.432z"/>
	</g>
</g>
<g>
	<g>
		<path d="M288.616,137.495c-3.983-3.983-10.441-3.983-14.424,0l-19.774,19.775c-3.983,3.983-3.983,10.441,0,14.425
			c1.992,1.991,4.602,2.987,7.212,2.987s5.221-0.996,7.212-2.987l19.774-19.775C292.599,147.937,292.599,141.479,288.616,137.495z"
			/>
	</g>
</g>
<g>
</g>
<g>
</g>
<g>
</g>
<g>
</g>
<g>
</g>
<g>
</g>
<g>
</g>
<g>
</g>
<g>
</g>
<g>
</g>
<g>
</g>
<g>
</g>
<g>
</g>
<g>
</g>
<g>
</g>
</svg>
