<?xml version="1.0" encoding="iso-8859-1"?>
<!-- Generator: Adobe Illustrator 19.0.0, SVG Export Plug-In . SVG Version: 6.00 Build 0)  -->
<svg version="1.1" id="Layer_1" xmlns="http://www.w3.org/2000/svg" xmlns:xlink="http://www.w3.org/1999/xlink" x="0px" y="0px"
	 viewBox="0 0 512 512" style="enable-background:new 0 0 512 512;" xml:space="preserve">
<g transform="translate(1 1)">
	<g>
		<path d="M308.76,392.387c-15.492-4.82-30.568-7.692-45.227-8.623V7.533C263.533,2.413,260.12-1,255-1
			c-5.12,0-8.533,3.413-8.533,8.533v376.031c-15.567,0.647-30.643,3.587-45.227,8.822c-3.413,0.853-5.973,4.267-5.973,7.68v102.4
			c0,5.12,3.413,8.533,8.533,8.533s8.533-3.413,8.533-8.533V406.04c5.608-1.809,11.297-3.211,17.067-4.253v100.679
			c0,5.12,3.413,8.533,8.533,8.533s8.533-3.413,8.533-8.533V399.834c5.605-0.28,11.29-0.23,17.067,0.172v102.46
			c0,5.12,3.413,8.533,8.533,8.533s8.533-3.413,8.533-8.533V402.132c5.602,1.001,11.289,2.303,17.067,3.908v96.427
			c0,5.12,3.413,8.533,8.533,8.533s8.533-3.413,8.533-7.68v-102.4C314.733,396.653,312.173,393.24,308.76,392.387z"/>
	</g>
</g>
<g>
</g>
<g>
</g>
<g>
</g>
<g>
</g>
<g>
</g>
<g>
</g>
<g>
</g>
<g>
</g>
<g>
</g>
<g>
</g>
<g>
</g>
<g>
</g>
<g>
</g>
<g>
</g>
<g>
</g>
</svg>
