<?xml version="1.0" encoding="iso-8859-1"?>
<!-- Generator: Adobe Illustrator 19.0.0, SVG Export Plug-In . SVG Version: 6.00 Build 0)  -->
<svg version="1.1" id="Layer_1" xmlns="http://www.w3.org/2000/svg" xmlns:xlink="http://www.w3.org/1999/xlink" x="0px" y="0px"
	 viewBox="0 0 512 512" style="enable-background:new 0 0 512 512;" xml:space="preserve">
<g>
	<g>
		<path d="M198.454,480.393c1.388,0.148,2.741,0.292-0.036-0.006c-2.775-0.295-1.424-0.15-0.036-0.002
			c-5.585-0.574-10.593,3.467-11.193,9.054l-1.187,11.059c-0.586,5.457,3.417,10.506,8.854,11.204
			c5.589,0.718,10.827-3.428,11.429-9.027l1.187-11.059C208.07,486.027,204.035,481.011,198.454,480.393z"/>
	</g>
</g>
<g>
	<g>
		<g>
			<path d="M502.623,9.594C515.126,22.098,502.623,9.593,502.623,9.594L502.623,9.594z"/>
			<path d="M502.623,9.594c-12.505-12.504-32.849-12.504-45.352-0.001L156.117,310.747l-59.599-59.598
				c-14.157-14.157-38.439-12.906-54.129,2.783l-14.266,14.266c-0.064,0.064-0.118,0.135-0.181,0.2
				c-0.065,0.062-0.135,0.116-0.199,0.18L4.79,291.533c-0.006,0.006-0.011,0.013-0.017,0.019c-1.626,1.603-2.726,3.761-2.979,6.209
				l-1.74,16.832c-0.565,5.459,3.458,10.494,8.898,11.171c5.591,0.695,10.814-3.471,11.393-9.073l1.368-13.231l13.625-13.625
				l8.879,8.879l-16.101,16.101c-0.004,0.004-0.007,0.007-0.011,0.011l-0.008,0.008c-0.007,0.007-0.013,0.016-0.021,0.023
				c-1.615,1.594-2.711,3.733-2.972,6.165L23.3,337.797c-0.585,5.457,3.417,10.507,8.854,11.204
				c5.589,0.718,10.828-3.428,11.429-9.027l1.417-13.193L58.64,313.14l8.819,8.818l-16.121,16.12
				c-0.031,0.031-0.056,0.064-0.086,0.095c-1.578,1.586-2.651,3.695-2.909,6.093l-1.8,16.772c-0.585,5.455,3.417,10.51,8.854,11.205
				c5.589,0.715,10.828-3.428,11.429-9.028l1.417-13.194l13.641-13.64l8.819,8.819L74.58,361.323
				c-0.023,0.023-0.043,0.05-0.066,0.073c-1.589,1.588-2.669,3.704-2.927,6.114l-1.8,16.773c-0.585,5.455,3.417,10.51,8.854,11.205
				c5.589,0.715,10.828-3.427,11.429-9.028l1.416-13.193l13.642-13.642l8.819,8.819l-16.099,16.099
				c-0.005,0.005-0.011,0.011-0.016,0.016l-0.005,0.005c-0.005,0.005-0.008,0.01-0.013,0.014c-1.619,1.595-2.719,3.737-2.98,6.173
				l-1.801,16.773c-0.585,5.457,3.417,10.505,8.854,11.204c5.589,0.718,10.828-3.428,11.429-9.027l1.417-13.193l13.641-13.642
				l8.818,8.819l-16.121,16.121c-0.04,0.04-0.073,0.085-0.113,0.125c-1.563,1.583-2.624,3.68-2.88,6.064l-1.8,16.772
				c-0.585,5.455,3.417,10.51,8.854,11.205c5.589,0.715,10.828-3.428,11.429-9.028l1.416-13.193l13.641-13.641l8.818,8.819
				l-16.121,16.121c-0.055,0.055-0.101,0.115-0.154,0.17c-1.539,1.577-2.586,3.654-2.84,6.018l-1.8,16.772
				c-0.585,5.455,3.417,10.51,8.854,11.205c5.589,0.715,10.828-3.428,11.429-9.028l1.416-13.193l13.641-13.641l8.819,8.819
				l-16.12,16.12c-0.018,0.018-0.034,0.039-0.051,0.057c-1.597,1.591-2.682,3.716-2.943,6.132l-1.801,16.772
				c-0.585,5.457,3.417,10.507,8.854,11.204c5.589,0.718,10.828-3.428,11.429-9.027l1.417-13.193l13.641-13.641l8.833,8.833
				c-3.712,4-3.633,10.246,0.259,14.139c1.992,1.991,4.602,2.987,7.212,2.987c2.61,0,5.221-0.996,7.212-2.987l6.56-6.562
				c0.064-0.064,0.118-0.134,0.18-0.199c0.065-0.062,0.135-0.116,0.199-0.18l14.267-14.265c7.417-7.417,11.889-16.974,12.591-26.907
				c0.743-10.488-2.744-20.159-9.816-27.231l-44.125-44.125L502.623,54.946C515.126,42.442,515.126,22.098,502.623,9.594z
				 M231.171,414.65c2.828,2.827,4.21,6.864,3.892,11.367c-0.356,5.035-2.724,9.978-6.667,13.921l-7.054,7.054L49.76,275.412
				l7.054-7.054c7.737-7.737,19.078-8.987,25.28-2.783L231.171,414.65z M488.199,40.522L187.045,341.675l-16.504-16.504
				L471.695,24.018c4.549-4.55,11.954-4.549,16.504-0.001C492.748,28.568,492.748,35.972,488.199,40.522z"/>
		</g>
	</g>
</g>
<g>
</g>
<g>
</g>
<g>
</g>
<g>
</g>
<g>
</g>
<g>
</g>
<g>
</g>
<g>
</g>
<g>
</g>
<g>
</g>
<g>
</g>
<g>
</g>
<g>
</g>
<g>
</g>
<g>
</g>
</svg>
