<?xml version="1.0" encoding="iso-8859-1"?>
<!-- Generator: Adobe Illustrator 19.0.0, SVG Export Plug-In . SVG Version: 6.00 Build 0)  -->
<svg version="1.1" id="Layer_1" xmlns="http://www.w3.org/2000/svg" xmlns:xlink="http://www.w3.org/1999/xlink" x="0px" y="0px"
	 viewBox="0 0 512 512" style="enable-background:new 0 0 512 512;" xml:space="preserve">
<g>
	<g>
		<path d="M500.085,29.909c0-7.989-3.112-15.5-8.761-21.148C485.674,3.111,478.165,0,470.177,0c-7.989,0-15.5,3.112-21.148,8.76
			L175.216,282.571c-11.671-1.201-23.624,1.984-33.157,9.579l-119.95-2.407c-5.538,0-10.082,4.433-10.193,9.994l-0.001,24.597
			c0,5.632,4.567,10.199,10.199,10.199s10.199-4.567,10.199-10.199v-13.986l82.425,1.655l-59.186,13.75
			c-4.831,1.122-8.051,5.506-7.883,10.282l-0.009,23.997c0,5.632,4.567,10.199,10.199,10.199c5.632,0,10.199-4.567,10.199-10.199
			v-16.243l74.226-17.244l-54.931,35.631c-3.014,1.955-4.645,5.232-4.642,8.577l-0.006,23.957c0,5.632,4.567,10.199,10.199,10.199
			s10.199-4.567,10.199-10.199v-18.434l58.932-38.227l-41.243,63.583c-1.169,1.801-1.692,3.834-1.636,5.829l-0.006,23.966
			c0,5.632,4.567,10.199,10.199,10.199c5.632,0,10.199-4.567,10.199-10.199v-21.228l33.989-52.4l-19.078,82.119
			c-0.177,0.764-0.265,1.573-0.265,2.357v23.829c0,5.632,4.567,10.199,10.199,10.199c5.632,0,10.199-4.567,10.199-10.199v-22.712
			l13.485-58.046l1.697,84.501c0.111,5.562,4.655,9.994,10.193,9.994c0.068,0,0.14-0.001,0.209-0.002
			c5.631-0.113,10.104-4.77,9.992-10.402l-2.238-111.413c7.596-9.532,10.783-21.487,9.58-33.159l273.81-273.81
			C496.973,45.408,500.085,37.897,500.085,29.909z M195.774,338.624l-11.811-11.811c-0.011-0.011-0.022-0.022-0.034-0.034
			L173.31,316.16c-0.015-0.016-0.032-0.032-0.047-0.047l-11.802-11.802c9.252-3.46,20.305-1.312,27.964,6.349
			C197.086,318.32,199.235,329.372,195.774,338.624z M476.9,36.631l-266.999,267c-1.732-2.612-3.748-5.093-6.052-7.396
			c-2.303-2.303-4.784-4.319-7.396-6.051l267-267.001c1.796-1.796,4.185-2.784,6.724-2.784c2.539,0,4.927,0.989,6.723,2.784
			c0,0.001,0,0.001,0.001,0.001c1.796,1.796,2.784,4.185,2.784,6.724C479.685,32.447,478.697,34.835,476.9,36.631z"/>
	</g>
</g>
<g>
	<g>
		<path d="M200.141,487.15c-5.632,0-10.199,4.567-10.199,10.199v4.452c0,5.632,4.567,10.199,10.199,10.199
			s10.199-4.567,10.199-10.199v-4.452C210.341,491.716,205.774,487.15,200.141,487.15z"/>
	</g>
</g>
<g>
</g>
<g>
</g>
<g>
</g>
<g>
</g>
<g>
</g>
<g>
</g>
<g>
</g>
<g>
</g>
<g>
</g>
<g>
</g>
<g>
</g>
<g>
</g>
<g>
</g>
<g>
</g>
<g>
</g>
</svg>
