<?xml version="1.0" encoding="iso-8859-1"?>
<!-- Generator: Adobe Illustrator 19.0.0, SVG Export Plug-In . SVG Version: 6.00 Build 0)  -->
<svg version="1.1" id="Layer_1" xmlns="http://www.w3.org/2000/svg" xmlns:xlink="http://www.w3.org/1999/xlink" x="0px" y="0px"
	 viewBox="0 0 512.004 512.004" style="enable-background:new 0 0 512.004 512.004;" xml:space="preserve">
<g>
	<g>
		<rect x="254.868" y="182.757" width="26.549" height="15.958"/>
	</g>
</g>
<g>
	<g>
		<polygon points="246.916,496.042 246.916,477.477 230.958,477.477 230.958,496.042 100.88,496.042 100.88,512 376.997,512 
			376.997,496.042 		"/>
	</g>
</g>
<g>
	<g>
		<path d="M381.659,364.799c-0.834-0.601-20.706-14.842-45.7-27.008c-35.03-17.051-62.043-21.279-80.281-12.566
			c-3.24,1.548-6.148,3.493-8.761,5.783v-95.124h55.741c10.255,0,18.598-8.344,18.598-18.599V37.472l-9.67,2.098
			c-0.88,0.192-19.517,4.351-38.711,16.99L238.937,0l-33.935,56.559c-19.192-12.636-37.832-16.798-38.712-16.988l-9.67-2.098
			v179.813c0,10.255,8.344,18.599,18.598,18.599h55.741v42.034c-1.201-1.057-2.457-2.049-3.79-2.951
			c-13.822-9.343-33.947-9.641-59.819-0.882l5.118,15.115c20.6-6.976,36.425-7.326,45.765-1.013
			c6.099,4.122,10.06,11.51,11.827,22.008H164.6v15.958h65.464c-2.002,12.111-6.854,19.898-14.738,23.667
			c-13.409,6.411-36.313,2.116-66.234-12.418c-13.651-6.631-25.907-14.065-33.913-19.226c9.557-6.16,25.174-15.56,42.015-22.985
			l-6.439-14.601c-28.898,12.743-53.505,30.366-54.539,31.111l-8.993,6.475l8.994,6.474c0.833,0.6,20.704,14.841,45.698,27.007
			c23.219,11.302,42.915,16.97,58.869,16.97c8.115,0,15.264-1.467,21.413-4.404c3.24-1.548,6.148-3.493,8.761-5.783v12.613
			l-0.013,0.221l0.013,0.221v84.738h15.958v-44.705c1.201,1.057,2.459,2.05,3.792,2.951c7.136,4.825,15.952,7.236,26.372,7.236
			c9.763,0,20.932-2.118,33.445-6.354l-5.118-15.115c-20.599,6.973-36.424,7.325-45.762,1.012
			c-6.099-4.122-10.061-11.509-11.828-22.007h65.459v-15.958h-65.464c2.002-12.111,6.854-19.898,14.738-23.667
			c13.409-6.41,36.313-2.115,66.234,12.418c13.653,6.632,25.91,14.067,33.916,19.228c-9.545,6.153-25.143,15.543-42.014,22.982
			l6.438,14.601c28.897-12.742,53.503-30.365,54.536-31.109l8.994-6.475L381.659,364.799z M238.937,31.016l21.204,35.339
			c-9.201,8.295-16.312,17.843-21.204,28.43c-4.893-10.584-12.003-20.133-21.203-28.429L238.937,31.016z M175.219,219.926
			c-1.432,0-2.642-1.21-2.642-2.641v-18.57h66.36v-15.958h-66.36V58.137c7.831,2.835,19.264,7.924,29.903,16.224
			c18.897,14.778,28.478,34.28,28.478,57.965v26.55h15.958v-26.55c0-23.685,9.581-43.188,28.47-57.959
			c10.646-8.305,22.082-13.396,29.911-16.23v159.148c0,1.432-1.21,2.641-2.64,2.641H175.219z"/>
	</g>
</g>
<g>
	<g>
		<rect x="398.231" y="496.047" width="26.549" height="15.958"/>
	</g>
</g>
<g>
</g>
<g>
</g>
<g>
</g>
<g>
</g>
<g>
</g>
<g>
</g>
<g>
</g>
<g>
</g>
<g>
</g>
<g>
</g>
<g>
</g>
<g>
</g>
<g>
</g>
<g>
</g>
<g>
</g>
</svg>
