<?xml version="1.0" encoding="iso-8859-1"?>
<!-- Generator: Adobe Illustrator 19.0.0, SVG Export Plug-In . SVG Version: 6.00 Build 0)  -->
<svg version="1.1" id="Layer_1" xmlns="http://www.w3.org/2000/svg" xmlns:xlink="http://www.w3.org/1999/xlink" x="0px" y="0px"
	 viewBox="0 0 512 512" style="enable-background:new 0 0 512 512;" xml:space="preserve">
<g>
	<g>
		<path d="M345.877,137.249v16.34H495.66v175.145l-60.844-28.082H174.298V153.589h149.785v-16.34H0v237.503l167.496-57.758h263.731
			L512,354.273V137.249H345.877z M157.957,302.998L16.34,351.832V153.589h141.617V302.998z"/>
	</g>
</g>
<g>
	<g>
		<path d="M43.574,175.376v139.061l87.149-26.815V175.376H43.574z M114.383,275.555l-54.468,16.76V191.717h54.468V275.555z"/>
	</g>
</g>
<g>
	<g>
		<rect x="449.362" y="175.376" width="27.234" height="16.34"/>
	</g>
</g>
<g>
	<g>
		<polygon points="196.085,175.376 196.085,243.461 212.426,243.461 212.426,191.717 340.426,191.717 340.426,175.376 		"/>
	</g>
</g>
<g>
	<g>
		<rect x="196.085" y="259.802" width="16.34" height="21.787"/>
	</g>
</g>
<g>
</g>
<g>
</g>
<g>
</g>
<g>
</g>
<g>
</g>
<g>
</g>
<g>
</g>
<g>
</g>
<g>
</g>
<g>
</g>
<g>
</g>
<g>
</g>
<g>
</g>
<g>
</g>
<g>
</g>
</svg>
