<?xml version="1.0" encoding="iso-8859-1"?>
<!-- Generator: Adobe Illustrator 19.0.0, SVG Export Plug-In . SVG Version: 6.00 Build 0)  -->
<svg version="1.1" id="Layer_1" xmlns="http://www.w3.org/2000/svg" xmlns:xlink="http://www.w3.org/1999/xlink" x="0px" y="0px"
	 viewBox="0 0 512 512" style="enable-background:new 0 0 512 512;" xml:space="preserve">
<g transform="translate(1 1)">
	<g>
		<g>
			<path d="M186.733,67.267h25.6c0,28.16,18.773,51.2,42.667,51.2s42.667-23.04,42.667-51.2h25.6c5.12,0,8.533-3.413,8.533-8.533
				s-3.413-8.533-8.533-8.533h-18.261l-4.779-27.307C297.667,9.24,285.72-1,272.067-1h-34.133c-14.507,0-25.6,10.24-28.16,23.04
				l-4.808,28.16h-18.232c-5.12,0-8.533,3.413-8.533,8.533S181.613,67.267,186.733,67.267z M255,101.4
				c-14.507,0-25.6-15.36-25.6-34.133h51.2C280.6,86.04,269.507,101.4,255,101.4z M226.84,25.453
				c0.853-5.12,5.973-9.387,11.093-9.387h34.133c5.973,0,10.24,4.267,11.093,9.387l4.267,24.747h-64.853L226.84,25.453z"/>
			<path d="M459.8,178.2H383v-26.453c0-5.12-3.413-8.533-8.533-8.533h-74.24l-23.04-15.36c-2.56-0.853-5.12-1.707-7.68-0.853
				s-4.267,2.56-5.12,5.12L255,155.16l-9.387-23.04c-0.853-2.56-2.56-4.267-5.12-5.12c-2.56,0-5.12,0-7.68,1.707l-23.04,15.36
				h-74.24c-5.12,0-8.533,3.413-8.533,8.533v25.6H50.2c-5.12,0-8.533,3.413-8.533,8.533s3.413,8.533,8.533,8.533H127v25.6
				c0,5.12,3.413,8.533,8.533,8.533h34.133v145.067c0,5.12,3.413,8.533,8.533,8.533h68.267v119.467c0,5.12,3.413,8.533,8.533,8.533
				c5.12,0,8.533-3.413,8.533-8.533V383h59.733c5.12,0,8.533-3.413,8.533-9.387V228.547h42.667c5.12,0,8.533-3.413,8.533-8.533
				v-24.747h76.8c5.12,0,8.533-3.413,8.533-8.533S464.92,178.2,459.8,178.2z M365.933,212.333h-42.667
				c-5.12,0-8.533,3.413-8.533,8.533v145.067h-128V331.8H203.8c5.12,0,8.533-3.413,8.533-8.533V306.2h8.533
				c5.12,0,8.533-3.413,8.533-8.533s-3.413-8.533-8.533-8.533H203.8c-5.12,0-8.533,3.413-8.533,8.533v17.067h-8.533v-93.867
				c0-5.12-3.413-8.533-8.533-8.533h-34.133v-51.2h68.267c1.707,0,3.413-0.853,5.12-1.707l17.067-11.093l12.8,33.28
				c0.853,3.413,4.267,5.12,7.68,5.12c3.413,0,6.827-1.707,7.68-5.12l12.8-33.28l17.067,11.093c1.707,0.853,3.413,1.707,5.12,1.707
				h68.267V212.333z"/>
			<path d="M297.667,203.8h-85.333c-5.12,0-8.533,3.413-8.533,8.533v51.2c0,5.12,3.413,8.533,8.533,8.533h85.333
				c5.12,0,8.533-3.413,8.533-8.533v-51.2C306.2,207.213,302.787,203.8,297.667,203.8z M289.133,255h-68.267v-34.133h68.267V255z"/>
		</g>
	</g>
</g>
<g>
</g>
<g>
</g>
<g>
</g>
<g>
</g>
<g>
</g>
<g>
</g>
<g>
</g>
<g>
</g>
<g>
</g>
<g>
</g>
<g>
</g>
<g>
</g>
<g>
</g>
<g>
</g>
<g>
</g>
</svg>
