<?xml version="1.0" encoding="iso-8859-1"?>
<!-- Generator: Adobe Illustrator 19.0.0, SVG Export Plug-In . SVG Version: 6.00 Build 0)  -->
<svg version="1.1" id="Layer_1" xmlns="http://www.w3.org/2000/svg" xmlns:xlink="http://www.w3.org/1999/xlink" x="0px" y="0px"
	 viewBox="0 0 512 512" style="enable-background:new 0 0 512 512;" xml:space="preserve">
<g transform="translate(1 1)">
	<g>
		<g>
			<path d="M502.467,255c-51.043,0-92.234,40.207-93.814,90.848c-8.459,10.996-14.998,26.02-20.416,40.548
				c-2.583-20.269-6.98-40.821-13.733-59.847c5.132-18.742,15.343-39.996,23.857-48.509c3.413-3.413,3.413-8.533,0-11.947
				c-3.413-3.413-8.533-3.413-11.947,0c-7.251,7.855-15.356,22.131-21.591,37.672c-5.226-10.354-11.355-19.913-18.515-28.285
				c-2.56-3.413-8.533-4.267-11.947-0.853c-3.413,2.56-4.267,8.533-0.853,11.947c12.301,14.116,21.215,32.189,27.526,51.85
				c-8.516-7.038-18.324-13.664-28.379-16.863c-5.12-0.853-9.387,1.707-11.093,5.973c-0.853,5.12,1.707,9.387,5.973,11.093
				c14.507,4.267,30.72,21.333,39.253,29.867l1.707,2.56c0.223,0.223,0.446,0.43,0.671,0.624
				c4.274,23.929,5.635,48.253,5.274,69.325c-2.564-3.236-5.395-6.317-8.468-9.232c0.404-41.587-31.572-76.108-73.424-77.783h-8.533
				v8.533c-0.853,20.48,6.827,40.107,20.48,55.467c12.483,14.043,29.25,22.359,47.684,24.337
				c8.884,8.082,14.962,17.538,18.876,27.716c0.252,1.008,0.731,1.938,1.364,2.753c-1.452,12.355-3.503,21.651-5.631,26.26
				c-1.707,4.267,0,9.387,4.267,11.093c0.853,0.853,2.56,0.853,3.413,0.853c3.413,0,5.973-1.707,6.827-4.267
				c6.005-12.717,10.543-43.427,9.87-79.647c2.114-4.72,4.229-10.584,6.343-17.633c6.409-16.824,13.57-38.911,23.602-52.142
				c50.19-2.066,89.891-43.057,89.891-93.778V255H502.467z M316.44,406.04c-8.533-9.387-13.653-20.48-15.36-33.28
				c25.6,5.12,44.373,26.453,47.787,51.2C336.067,421.4,324.973,415.427,316.44,406.04z M425.667,340.333
				c4.267-34.987,32.427-63.147,67.413-67.413C489.667,307.907,461.507,336.067,425.667,340.333z"/>
			<path d="M314.733,220.013v-24.747h51.2c5.12,0,8.533-3.413,8.533-8.533s-3.413-8.533-8.533-8.533h-51.2v-26.453
				c0-5.12-3.413-8.533-8.533-8.533h-74.24l-23.04-15.36c-2.56-0.853-5.12-1.707-7.68-0.853s-4.267,2.56-5.12,5.12l-9.387,23.04
				l-9.387-23.04c-0.853-2.56-2.56-4.267-5.12-5.12c-2.56,0-5.12,0-7.68,1.707l-23.04,15.36h-74.24c-5.12,0-8.533,3.413-8.533,8.533
				v25.6h-51.2c-5.12,0-8.533,3.413-8.533,8.533s3.413,8.533,8.533,8.533h51.2v25.6c0,5.12,3.413,8.533,8.533,8.533H101.4v145.067
				c0,5.12,3.413,8.533,8.533,8.533H178.2v119.467c0,5.12,3.413,8.533,8.533,8.533s8.533-3.413,8.533-8.533V383H255
				c5.12,0,8.533-3.413,8.533-9.387V228.547H306.2C311.32,228.547,314.733,225.133,314.733,220.013z M297.667,212.333H255
				c-5.12,0-8.533,3.413-8.533,8.533v145.067h-128V331.8h17.067c5.12,0,8.533-3.413,8.533-8.533V306.2h8.533
				c5.12,0,8.533-3.413,8.533-8.533s-3.413-8.533-8.533-8.533h-17.067c-5.12,0-8.533,3.413-8.533,8.533v17.067h-8.533v-93.867
				c0-5.12-3.413-8.533-8.533-8.533H75.8v-51.2h68.267c1.707,0,3.413-0.853,5.12-1.707l17.067-11.093l12.8,33.28
				c0.853,3.413,4.267,5.12,7.68,5.12s6.827-1.707,7.68-5.12l12.8-33.28l17.067,11.093c1.707,0.853,3.413,1.707,5.12,1.707h68.267
				V212.333z"/>
			<path d="M118.467,67.267h25.6c0,28.16,18.773,51.2,42.667,51.2s42.667-23.04,42.667-51.2H255c5.12,0,8.533-3.413,8.533-8.533
				S260.12,50.2,255,50.2h-18.261l-4.779-27.307C229.4,9.24,217.453-1,203.8-1h-34.133c-14.507,0-25.6,10.24-28.16,23.04
				l-4.808,28.16h-18.232c-5.12,0-8.533,3.413-8.533,8.533S113.347,67.267,118.467,67.267z M186.733,101.4
				c-14.507,0-25.6-15.36-25.6-34.133h51.2C212.333,86.04,201.24,101.4,186.733,101.4z M158.573,25.453
				c0.853-5.12,5.973-9.387,11.093-9.387H203.8c5.973,0,10.24,4.267,11.093,9.387L219.16,50.2h-64.853L158.573,25.453z"/>
			<path d="M229.4,203.8h-85.333c-5.12,0-8.533,3.413-8.533,8.533v51.2c0,5.12,3.413,8.533,8.533,8.533H229.4
				c5.12,0,8.533-3.413,8.533-8.533v-51.2C237.933,207.213,234.52,203.8,229.4,203.8z M220.867,255H152.6v-34.133h68.267V255z"/>
		</g>
	</g>
</g>
<g>
</g>
<g>
</g>
<g>
</g>
<g>
</g>
<g>
</g>
<g>
</g>
<g>
</g>
<g>
</g>
<g>
</g>
<g>
</g>
<g>
</g>
<g>
</g>
<g>
</g>
<g>
</g>
<g>
</g>
</svg>
