<?xml version="1.0" encoding="iso-8859-1"?>
<!-- Generator: Adobe Illustrator 19.0.0, SVG Export Plug-In . SVG Version: 6.00 Build 0)  -->
<svg version="1.1" id="Layer_1" xmlns="http://www.w3.org/2000/svg" xmlns:xlink="http://www.w3.org/1999/xlink" x="0px" y="0px"
	 viewBox="0 0 511.999 511.999" style="enable-background:new 0 0 511.999 511.999;" xml:space="preserve">
<g>
	<g>
		<path d="M328.742,404.942c-16.145-16.143-42.415-16.144-58.56,0.001c-16.143,16.144-16.143,42.414,0.001,58.559
			c8.071,8.071,18.675,12.107,29.279,12.107c10.603,0,21.207-4.036,29.279-12.107c0,0,0,0,0-0.001
			C344.885,447.356,344.885,421.087,328.742,404.942z M314.319,449.077c-8.192,8.19-21.521,8.191-29.713,0.001
			c-8.191-8.192-8.191-21.522,0.001-29.713c4.096-4.096,9.475-6.143,14.856-6.143c5.379,0,10.76,2.048,14.855,6.142
			C322.509,427.556,322.509,440.886,314.319,449.077z"/>
	</g>
</g>
<g>
	<g>
		<path d="M463.665,270.02c-7.821-7.822-18.218-12.13-29.279-12.13c-11.061,0-21.459,4.308-29.278,12.129
			c-7.822,7.821-12.13,18.218-12.13,29.279s4.308,21.459,12.129,29.279c7.821,7.821,18.218,12.129,29.279,12.129
			c11.061,0,21.459-4.308,29.279-12.129c7.821-7.821,12.129-18.218,12.129-29.279S471.485,277.84,463.665,270.02z M449.241,314.154
			c-3.968,3.968-9.243,6.153-14.855,6.153c-5.611,0-10.887-2.186-14.855-6.153c0-0.001,0-0.001-0.001-0.001
			c-3.968-3.968-6.153-9.243-6.153-14.855c0-5.611,2.186-10.887,6.154-14.856c3.968-3.968,9.243-6.153,14.855-6.153
			c5.612,0,10.887,2.186,14.856,6.154c3.968,3.968,6.153,9.243,6.153,14.855C455.395,304.91,453.21,310.185,449.241,314.154z"/>
	</g>
</g>
<g>
	<g>
		<path d="M489.292,244.392c-14.666-14.666-34.166-22.743-54.906-22.743s-40.24,8.077-54.906,22.743
			c-3.186,3.186-6.078,6.626-8.65,10.288l-122.006-66.992c-0.085-0.177-0.159-0.358-0.246-0.534
			c-3.324-6.794-8.158-12.535-14.089-16.88c2.395-6.421,4.153-13.323,5.216-20.641c3.905-26.881-2.02-56.305-16.686-82.849
			C208.355,40.239,186.6,19.56,161.764,8.556C135.965-2.874,109.901-2.62,88.373,9.272c-2.367,1.308-4.118,3.503-4.867,6.102
			c-0.75,2.599-0.435,5.389,0.872,7.756l75.811,137.222L22.967,84.543c-2.366-1.308-5.159-1.621-7.756-0.872
			c-2.6,0.749-4.795,2.5-6.102,4.867c-11.893,21.527-12.147,47.59-0.716,73.39c11.004,24.837,31.681,46.591,58.226,61.256
			c21.215,11.72,44.263,17.857,66.388,17.857c5.56,0,11.065-0.389,16.463-1.172c7.324-1.064,14.23-2.824,20.656-5.222
			c4.657,6.366,10.846,11.405,18.094,14.675l66.627,121.342c-3.661,2.572-7.102,5.464-10.289,8.65
			c-30.275,30.277-30.275,79.537,0,109.813c15.138,15.137,35.022,22.706,54.906,22.706c19.884,0,39.769-7.569,54.906-22.706
			c27.372-27.372,30.39-70.191,7.604-100.98c-0.291-0.752-0.674-1.476-1.149-2.155l-58.721-84.055l84.054,58.721
			c0.678,0.475,1.402,0.859,2.154,1.149c13.768,10.189,29.938,15.219,46.061,15.218c19.931-0.001,39.788-7.69,54.92-22.821
			C519.567,323.929,519.567,274.667,489.292,244.392z M163.674,192.458c-2.631,7.674-3.174,15.718-1.696,23.476
			c-24.133,8.679-56.151,5.608-85.497-10.605c-41.737-23.059-63.89-64.844-53.562-97.508l143.094,79.055
			C165.124,188.671,164.335,190.53,163.674,192.458z M107.66,23.09c13.87-4.368,29.79-2.996,45.84,4.115
			c20.791,9.211,39.139,26.769,51.663,49.442c12.525,22.671,17.623,47.55,14.354,70.054c-0.796,5.479-2.07,10.641-3.787,15.438
			c-9.707-1.846-19.707-0.523-28.744,3.898c-0.094,0.046-0.183,0.097-0.275,0.143L107.66,23.09z M181.587,207.595
			c0-14.363,11.644-26.007,26.007-26.007s26.007,11.644,26.007,26.007s-11.644,26.007-26.007,26.007
			S181.587,221.959,181.587,207.595z M342.21,394.966c0.38,1.166,0.974,2.273,1.775,3.261c18.49,22.805,16.753,55.683-4.041,76.476
			c-22.321,22.321-58.641,22.324-80.965,0c-22.321-22.323-22.321-58.643-0.001-80.965c4.185-4.185,8.956-7.676,14.184-10.382
			c2.442-1.264,4.269-3.458,5.07-6.088c0.801-2.629,0.506-5.471-0.817-7.881l-63.906-116.389c4.462-0.619,8.849-1.903,13.04-3.845
			l26.951,18.827L342.21,394.966z M474.868,339.78c-20.794,20.795-53.671,22.53-76.475,4.041c-0.988-0.801-2.095-1.394-3.261-1.775
			L268.15,253.336l-24.825-17.343c2.348-2.968,4.327-6.237,5.898-9.75c0.571-1.277,1.093-2.582,1.552-3.922
			c1.027-2.996,1.733-6.05,2.13-9.121l116.652,64.053c2.41,1.324,5.251,1.617,7.881,0.817c2.629-0.801,4.824-2.628,6.088-5.07
			c2.705-5.229,6.197-10,10.381-14.183c22.323-22.323,58.642-22.323,80.965,0S497.19,317.458,474.868,339.78z"/>
	</g>
</g>
<g>
	<g>
		<path d="M210.367,108.281c-1.327-5.474-6.839-8.837-12.313-7.51c-5.474,1.326-8.837,6.838-7.51,12.313
			c2.437,10.058,2.942,20.143,1.465,29.165c-0.912,5.558,2.857,10.803,8.415,11.714c0.559,0.092,1.114,0.137,1.661,0.137
			c4.907,0,9.232-3.551,10.051-8.552C214.052,133.855,213.441,120.968,210.367,108.281z"/>
	</g>
</g>
<g>
	<g>
		<path d="M199.323,80.106c-13.452-24.351-35.091-42.639-57.88-48.919c-5.432-1.496-11.046,1.692-12.543,7.122
			c-1.496,5.431,1.692,11.046,7.122,12.543c17.604,4.851,34.594,19.474,45.447,39.118c1.86,3.367,5.344,5.269,8.936,5.269
			c1.669,0,3.36-0.41,4.923-1.273C200.259,91.241,202.048,85.036,199.323,80.106z"/>
	</g>
</g>
<g>
</g>
<g>
</g>
<g>
</g>
<g>
</g>
<g>
</g>
<g>
</g>
<g>
</g>
<g>
</g>
<g>
</g>
<g>
</g>
<g>
</g>
<g>
</g>
<g>
</g>
<g>
</g>
<g>
</g>
</svg>
