<?xml version="1.0" encoding="iso-8859-1"?>
<!-- Generator: Adobe Illustrator 19.0.0, SVG Export Plug-In . SVG Version: 6.00 Build 0)  -->
<svg version="1.1" id="Layer_1" xmlns="http://www.w3.org/2000/svg" xmlns:xlink="http://www.w3.org/1999/xlink" x="0px" y="0px"
	 viewBox="0 0 512 512" style="enable-background:new 0 0 512 512;" xml:space="preserve">
<g transform="translate(1 1)">
	<g>
		<g>
			<path d="M377.027,16.828c-3.413-1.707-7.68,0-10.24,3.413s-1.707,8.533,0.853,11.093c31.573,30.72,48.64,73.387,48.64,122.88
				c0,93.867-72.533,170.667-162.133,170.667c-35.84,0-69.973-11.947-98.987-35.84c-3.413-2.56-7.68-2.56-11.093,0.853l-25.6,25.6
				L8.387,424.721C2.413,430.695-1,439.228-1,446.908c0,7.68,3.413,16.213,8.533,21.333L24.6,484.455
				c5.973,5.973,14.507,9.387,22.187,9.387s15.36-2.56,21.333-8.533l101.95-100.332c36.157,27.174,80.496,42.305,127.596,42.305
				c117.76,0,213.333-95.573,213.333-213.333C511,123.495,459.8,48.401,377.027,16.828z M56.173,472.508
				c-5.12,5.12-14.507,5.12-19.627,0l-16.213-16.213c-2.56-2.56-4.267-5.973-4.267-9.387c0-4.267,1.707-7.68,4.267-10.24
				L122.52,335.333c9.905,14.363,21.315,27.275,33.978,38.551L56.173,472.508z M297.667,410.215
				c-44.962,0-87.522-15.191-121.675-42.277c-0.386-0.422-0.795-0.833-1.205-1.243c-15.329-13.029-28.585-27.442-39.783-43.843
				l15.89-15.89c30.72,23.04,66.56,34.987,104.107,34.987c7.596,0,15.079-0.502,22.426-1.467l18.534,18.534
				c1.707,1.707,3.413,2.56,5.973,2.56s4.267,0,5.12-2.56c3.413-2.56,3.413-7.68,0-11.093l-10.961-10.961
				c7.479-1.846,14.775-4.188,21.86-6.984l16.408,17.091c1.707,1.707,3.413,2.56,5.973,2.56s4.267-0.853,5.973-3.413
				c3.413-3.413,3.413-8.533,0-11.947l-11.833-11.833c5.717-2.978,11.264-6.26,16.616-9.838l17.404,17.404
				c1.707,1.707,3.413,2.56,5.973,2.56s5.12-0.853,5.973-2.56c3.413-3.413,3.413-8.533,0-11.947l-15.619-15.619
				c42.214-34.423,69.379-88.14,69.379-148.222c0-39.253-9.387-74.24-28.16-104.107c54.613,34.133,87.893,94.72,87.893,163.84
				C493.933,322.321,406.04,410.215,297.667,410.215z"/>
			<path d="M107.373,386.321c-3.413-3.413-8.533-3.413-11.947,0s-3.413,8.533,0,11.947c3.413,3.413,8.533,3.413,11.947,0
				C110.787,394.855,110.787,388.881,107.373,386.321z"/>
			<path d="M81.773,411.921c-3.413-3.413-8.533-3.413-11.947,0c-3.413,3.413-3.413,8.533,0,11.947s8.533,3.413,11.947,0
				S85.187,414.481,81.773,411.921z"/>
			<path d="M50.2,434.961c-5.12,0-8.533,3.413-8.533,8.533s3.413,8.533,8.533,8.533s8.533-4.267,8.533-8.533
				C58.733,438.375,55.32,434.961,50.2,434.961z"/>
		</g>
	</g>
</g>
<g>
</g>
<g>
</g>
<g>
</g>
<g>
</g>
<g>
</g>
<g>
</g>
<g>
</g>
<g>
</g>
<g>
</g>
<g>
</g>
<g>
</g>
<g>
</g>
<g>
</g>
<g>
</g>
<g>
</g>
</svg>
