<?xml version="1.0" encoding="iso-8859-1"?>
<!-- Generator: Adobe Illustrator 19.0.0, SVG Export Plug-In . SVG Version: 6.00 Build 0)  -->
<svg version="1.1" id="Layer_1" xmlns="http://www.w3.org/2000/svg" xmlns:xlink="http://www.w3.org/1999/xlink" x="0px" y="0px"
	 viewBox="0 0 512 512" style="enable-background:new 0 0 512 512;" xml:space="preserve">
<g>
	<g>
		<path d="M441.647,9.256C441.161,4.011,436.76,0,431.492,0H80.509c-5.268,0-9.668,4.011-10.155,9.256
			C70.239,10.474,59.06,132.327,59.06,256s11.179,245.526,11.293,246.744C70.84,507.99,75.24,512,80.508,512h350.984
			c5.268,0,9.668-4.011,10.155-9.256c0.113-1.217,11.293-123.071,11.293-246.744S441.762,10.474,441.647,9.256z M422.141,491.602
			H89.86c-0.46-5.483-1.089-13.261-1.811-22.913h244.448c5.632,0,10.199-4.567,10.199-10.199c0-5.632-4.567-10.199-10.199-10.199
			H86.589c-3.204-46.905-7.13-119.27-7.13-192.291c0-73.002,3.927-145.377,7.131-192.291h245.907
			c5.632,0,10.199-4.567,10.199-10.199c0-5.632-4.567-10.199-10.199-10.199H88.049c0.722-9.651,1.351-17.429,1.811-22.913h332.281
			C424.71,51.01,432.543,152.859,432.543,256C432.543,359.108,424.709,460.983,422.141,491.602z"/>
	</g>
</g>
<g>
	<g>
		<path d="M397.744,43.311h-26.998c-5.632,0-10.199,4.567-10.199,10.199s4.567,10.199,10.199,10.199h26.998
			c5.632,0,10.199-4.567,10.199-10.199S403.376,43.311,397.744,43.311z"/>
	</g>
</g>
<g>
	<g>
		<path d="M397.744,448.291h-26.998c-5.632,0-10.199,4.567-10.199,10.199c0,5.632,4.567,10.199,10.199,10.199h26.998
			c5.632,0,10.199-4.567,10.199-10.199C407.943,452.858,403.376,448.291,397.744,448.291z"/>
	</g>
</g>
<g>
	<g>
		<path d="M256.001,126.557c-71.375,0-129.443,58.068-129.443,129.443s58.068,129.443,129.443,129.443S385.444,327.375,385.444,256
			S327.376,126.557,256.001,126.557z M256.001,365.045c-60.127,0-109.045-48.917-109.045-109.045s48.917-109.045,109.045-109.045
			S365.045,195.873,365.045,256S316.128,365.045,256.001,365.045z"/>
	</g>
</g>
<g>
	<g>
		<path d="M325.464,240.001c7.066-16.656,3.066-36.338-10.972-48.978c-14.037-12.64-34.03-14.561-49.856-5.792
			c-13.658-11.866-33.612-14.146-49.97-4.7c-16.359,9.444-24.364,27.864-20.916,45.625c-15.506,9.321-23.839,27.596-19.911,46.073
			c3.928,18.477,18.973,31.782,36.929,33.99c4.074,17.627,18.879,31.2,37.665,33.174c1.555,0.163,3.1,0.243,4.63,0.243
			c16.954,0,32.093-9.824,39.108-24.861c18.028,1.562,35.506-8.313,43.191-25.57C343.046,271.95,338.694,252.342,325.464,240.001z
			 M316.727,280.909c-4.817,10.819-16.906,16.165-28.122,12.433c-2.767-0.919-5.795-0.611-8.318,0.846
			c-2.525,1.457-4.305,3.927-4.892,6.781c-2.376,11.578-13.045,19.375-24.829,18.137c-11.777-1.238-20.595-11.085-20.514-22.904
			c0.02-2.915-1.209-5.699-3.375-7.65c-1.883-1.695-4.317-2.619-6.823-2.619c-0.378,0-0.758,0.021-1.137,0.064
			c-11.752,1.31-22.461-6.425-24.924-18.008c-2.461-11.583,4.178-23.014,15.445-26.588c2.779-0.882,5.047-2.911,6.233-5.574
			c1.185-2.663,1.175-5.706-0.029-8.361c-4.882-10.764-0.83-23.347,9.425-29.268c10.255-5.92,23.179-3.139,30.059,6.472
			c1.697,2.37,4.328,3.901,7.227,4.206c2.895,0.299,5.791-0.647,7.943-2.612c8.729-7.972,21.947-8.006,30.747-0.081
			c8.801,7.925,10.148,21.074,3.134,30.588c-1.73,2.346-2.373,5.321-1.766,8.173c0.606,2.852,2.403,5.308,4.938,6.747
			C317.426,257.53,321.545,270.09,316.727,280.909z"/>
	</g>
</g>
<g>
	<g>
		<path d="M283.528,248.915c-1.486-6.992-5.605-12.985-11.598-16.876c-5.994-3.892-13.142-5.218-20.134-3.732
			c-6.991,1.486-12.983,5.605-16.875,11.6c-3.892,5.993-5.217,13.144-3.732,20.132c1.486,6.991,5.604,12.983,11.599,16.876
			c4.49,2.915,9.537,4.309,14.529,4.309c8.764,0,17.36-4.293,22.479-12.176C283.688,263.055,285.014,255.904,283.528,248.915z
			 M262.689,257.938c-1.908,2.939-5.85,3.778-8.791,1.868c-2.939-1.908-3.777-5.852-1.868-8.792c0,0,0,0,0-0.001
			c0.924-1.424,2.349-2.401,4.008-2.754c0.445-0.095,0.89-0.142,1.334-0.142c1.215,0,2.406,0.351,3.45,1.028
			c1.424,0.924,2.401,2.349,2.754,4.008C263.928,254.816,263.614,256.514,262.689,257.938z"/>
	</g>
</g>
<g>
</g>
<g>
</g>
<g>
</g>
<g>
</g>
<g>
</g>
<g>
</g>
<g>
</g>
<g>
</g>
<g>
</g>
<g>
</g>
<g>
</g>
<g>
</g>
<g>
</g>
<g>
</g>
<g>
</g>
</svg>
