<?xml version="1.0" encoding="iso-8859-1"?>
<!-- Generator: Adobe Illustrator 19.0.0, SVG Export Plug-In . SVG Version: 6.00 Build 0)  -->
<svg version="1.1" id="Layer_1" xmlns="http://www.w3.org/2000/svg" xmlns:xlink="http://www.w3.org/1999/xlink" x="0px" y="0px"
	 viewBox="0 0 512.12 512.12" style="enable-background:new 0 0 512.12 512.12;" xml:space="preserve">
<g transform="translate(1 1)">
	<g>
		<g>
			<path d="M448.512,6.8c-6.827-6.827-15.36-9.387-24.747-6.827h-0.853l-46.08,17.067c-19.627,5.12-39.253,7.68-59.733,7.68H192.512
				c-20.48,0-40.107-2.56-59.733-7.68L87.552-0.026h-0.853c-9.387-2.56-19.627,0-25.6,7.68c-6.827,7.68-8.533,17.92-4.267,27.307
				l28.16,59.733c-10.24,104.96-10.24,212.48,1.707,320.853L61.952,475.28c-4.267,8.533-2.56,17.92,3.413,25.6
				c5.973,7.68,14.507,11.093,23.893,9.387l51.2-8.533c3.413-0.853,6.827-0.853,10.24-1.707c4.267,0,8.533-0.853,12.8-1.707
				c15.36-2.56,29.867-4.267,44.373-4.267h89.6c14.507,0,27.307,0.853,40.107,3.413c5.12,0.853,11.093,1.707,16.213,2.56
				c4.267,0.853,8.533,0.853,12.8,1.707l54.613,9.387c1.707,0,2.56,0,4.267,0c7.68,0,14.507-3.413,18.773-8.533
				c5.973-6.827,7.68-15.36,5.12-24.747l-23.04-61.44c12.8-106.667,12.8-215.04,0-321.707l28.16-62.293v-0.853
				C457.045,23.014,455.338,13.627,448.512,6.8z M438.272,26.427l-28.16,63.147c-0.853,0.853-0.853,2.56-0.853,4.267
				c12.8,106.667,12.8,215.04,0,322.56c0,0.853,0,2.56,0,4.267l23.893,63.147c1.707,3.413-0.853,6.827-1.707,7.68
				s-3.413,3.413-7.68,2.56l-53.76-8.533c-4.267-0.853-8.533-0.853-12.8-1.707c-5.12-0.853-11.093-1.707-16.213-2.56
				c-13.653-2.56-28.16-3.413-43.52-3.413h-89.6c-15.36,0-31.573,1.707-47.787,4.267c-4.267,0.853-7.68,0.853-11.947,1.707
				s-7.68,0.853-11.093,1.707l-51.2,8.533c-4.267,0-6.827-2.56-7.68-3.413c-1.707-0.853-3.413-4.267-1.707-8.533l24.747-61.44
				c0.853-1.707,0.853-2.56,0.853-4.267c-10.24-109.227-10.24-217.6,0-322.56c0-1.707,0-3.413-0.853-4.267l-29.013-61.44
				c-1.707-3.413-0.853-6.827,1.707-9.387c1.707-1.707,5.12-2.56,7.68-2.56l45.227,17.92h0.853c21.333,5.12,42.667,7.68,64,6.827
				h125.44c21.333,0,42.667-2.56,64-7.68h0.853l46.08-17.067c4.267-0.853,6.827,1.707,8.533,2.56
				C437.418,19.6,439.125,22.16,438.272,26.427z"/>
			<path d="M349.525,75.92H161.792c-5.12,0-8.533,3.413-8.533,8.533v136.533c0,5.12,3.413,8.533,8.533,8.533h187.733
				c5.12,0,8.533-3.413,8.533-8.533V84.454C358.058,79.334,354.645,75.92,349.525,75.92z M340.992,212.454H170.325V92.987h170.667
				V212.454z"/>
			<path d="M230.058,135.654h51.2c5.12,0,8.533-3.413,8.533-8.533s-3.413-8.533-8.533-8.533h-51.2c-5.12,0-8.533,3.413-8.533,8.533
				S224.938,135.654,230.058,135.654z"/>
			<path d="M204.458,178.32h102.4c5.12,0,8.533-3.413,8.533-8.533s-3.413-8.533-8.533-8.533h-102.4c-5.12,0-8.533,3.413-8.533,8.533
				S199.338,178.32,204.458,178.32z"/>
			<path d="M253.098,300.347c-3.413-3.413-8.533-3.413-11.947,0l-17.067,17.067c-3.413,3.413-3.413,8.533,0,11.947
				c1.707,1.707,3.413,2.56,5.973,2.56c2.56,0,4.267-0.853,5.973-2.56l17.067-17.067C256.512,308.88,256.512,303.76,253.098,300.347
				z"/>
			<path d="M232.618,343.014l-17.067,17.067c-3.413,3.413-3.413,8.533,0,11.947c1.707,1.707,3.413,2.56,5.973,2.56
				s4.267-0.853,5.973-2.56l17.067-17.067c3.413-3.413,3.413-8.533,0-11.947C241.152,339.6,236.032,339.6,232.618,343.014z"/>
			<path d="M275.285,377.147l-17.067,17.067c-3.413,3.413-3.413,8.533,0,11.947c1.707,1.707,3.413,2.56,5.973,2.56
				s4.267-0.853,5.973-2.56l17.067-17.067c3.413-3.413,3.413-8.533,0-11.947S278.698,373.734,275.285,377.147z"/>
			<path d="M283.818,325.947l-17.067,17.067c-3.413,3.413-3.413,8.533,0,11.947c1.707,1.707,3.413,2.56,5.973,2.56
				s4.267-0.853,5.973-2.56l17.067-17.067c3.413-3.413,3.413-8.533,0-11.947C292.352,322.534,287.232,322.534,283.818,325.947z"/>
			<path d="M348.787,345.637c-3.79-30.34-21.918-56.056-47.441-70.223c-0.549-0.384-1.126-0.694-1.721-0.932
				c-13.098-6.915-28.052-10.829-43.967-10.829c-52.053,0-93.867,41.813-93.867,93.867c0,2.236,0.083,4.452,0.235,6.648
				c-0.42,1.741-0.254,3.565,0.503,5.235c5.795,46.39,45.103,81.984,93.129,81.984c52.053,0,93.867-41.813,93.867-93.867
				c0-2.236-0.083-4.452-0.235-6.648C349.711,349.132,349.544,347.308,348.787,345.637z M255.658,434.32
				c-13.821,0-26.735-3.599-37.895-9.892l9.735-9.735c3.413-3.413,3.413-8.533,0-11.947c-3.413-3.413-8.533-3.413-11.947,0
				l-11.672,11.672c-12.827-11.666-21.629-27.656-24.219-45.754l13.704-13.704c3.413-3.413,3.413-8.533,0-11.947
				c-3.413-3.413-8.533-3.413-11.947,0l-1.451,1.451c6.136-36.363,37.481-63.744,75.691-63.744c9.216,0,18.031,1.599,26.193,4.527
				l-6.567,6.567c-3.413,3.413-3.413,8.533,0,11.947c1.707,1.707,3.413,2.56,5.973,2.56s4.267-0.853,5.973-2.56l10.57-10.57
				c17.991,11.752,30.659,30.856,33.855,53.185l-13.704,13.704c-3.413,3.413-3.413,8.533,0,11.947
				c1.707,1.707,3.413,2.56,5.973,2.56s4.267-0.853,5.973-2.56l1.451-1.451C325.213,406.939,293.868,434.32,255.658,434.32z"/>
		</g>
	</g>
</g>
<g>
</g>
<g>
</g>
<g>
</g>
<g>
</g>
<g>
</g>
<g>
</g>
<g>
</g>
<g>
</g>
<g>
</g>
<g>
</g>
<g>
</g>
<g>
</g>
<g>
</g>
<g>
</g>
<g>
</g>
</svg>
