<?xml version="1.0" encoding="iso-8859-1"?>
<!-- Generator: Adobe Illustrator 19.0.0, SVG Export Plug-In . SVG Version: 6.00 Build 0)  -->
<svg version="1.1" id="Layer_1" xmlns="http://www.w3.org/2000/svg" xmlns:xlink="http://www.w3.org/1999/xlink" x="0px" y="0px"
	 viewBox="0 0 512.432 512.432" style="enable-background:new 0 0 512.432 512.432;" xml:space="preserve">
<g transform="translate(1 1)">
	<g>
		<g>
			<path d="M453.189,7.53c-5.973-6.827-15.36-10.24-24.747-7.68h-0.853l-44.373,17.067c-18.773,5.12-38.4,7.68-58.027,7.68H185.242
				c-19.627,0-39.253-2.56-58.027-7.68L82.842-0.15h-0.853c-8.533-2.56-18.773,0.853-24.747,7.68
				c-6.827,7.68-8.533,17.067-4.267,25.6l23.04,59.733c-22.187,101.547-22.187,209.92,0,323.413l-20.48,58.88
				c-3.413,8.533-1.707,18.773,4.267,25.6c5.12,5.973,11.947,9.387,19.627,9.387c1.707,0,3.413,0,5.12,0l50.347-8.533
				c3.413-0.853,6.827-0.853,10.24-1.707c4.267,0,7.68-0.853,11.947-1.707c14.507-2.56,29.867-4.267,43.52-4.267h109.227
				c13.653,0,29.013,1.707,43.52,5.12c3.413,0.853,7.68,0.853,11.947,1.707c3.413,0.853,6.827,0.853,10.24,1.707l50.347,8.533
				c9.387,1.707,17.92-1.707,23.893-8.533c5.973-7.68,7.68-17.067,4.267-25.6l-19.627-59.733
				c22.187-117.76,22.187-226.133,0-323.413l23.04-59.733C461.722,24.597,460.016,15.21,453.189,7.53z M442.096,27.157
				L417.349,89.45c0,1.707,0,3.413,0,5.12c22.187,96.427,22.187,203.947,0,320.853c0,1.707,0,3.413,0,4.267l21.333,62.293
				c0.853,2.56,0,5.973-1.707,8.533c-0.853,0.853-3.413,3.413-7.68,2.56l-50.347-8.533c-3.413-0.853-6.827-0.853-10.24-1.707
				c-4.267-0.853-8.533-0.853-11.947-1.707c-16.213-2.56-32.427-4.267-46.933-4.267H200.602c-15.36,0-30.72,1.707-46.933,4.267
				c-4.267,0.853-7.68,0.853-11.947,1.707c-3.413,0.853-6.827,0.853-10.24,1.707l-50.347,8.533c-4.267,0.853-6.827-1.707-7.68-2.56
				c-1.707-2.56-2.56-5.973-0.853-9.387l20.48-61.44c0-1.707,0-2.56,0-4.267c-22.187-112.64-22.187-221.013,0-320.853
				c0-1.707,0-3.413,0-4.267L68.336,28.01c-1.707-3.413-0.853-6.827,1.707-9.387c0.853-0.853,2.56-2.56,5.12-2.56
				c0.853,0,1.707,0,1.707,0l44.373,17.92h0.853c20.48,5.12,41.813,7.68,63.147,7.68h139.947c21.333,0,42.667-2.56,62.293-8.533
				h0.853l44.373-17.067c4.267-0.853,6.827,1.707,7.68,2.56C442.949,21.183,443.802,24.597,442.096,27.157z"/>
			<path d="M349.082,75.797H161.349c-5.12,0-8.533,3.413-8.533,8.533v136.533c0,5.12,3.413,8.533,8.533,8.533h187.733
				c5.12,0,8.533-3.413,8.533-8.533V84.33C357.616,79.21,354.202,75.797,349.082,75.797z M340.549,212.33H169.882V92.863h170.667
				V212.33z"/>
			<path d="M229.616,135.53h51.2c5.12,0,8.533-3.413,8.533-8.533s-3.413-8.533-8.533-8.533h-51.2c-5.12,0-8.533,3.413-8.533,8.533
				S224.496,135.53,229.616,135.53z"/>
			<path d="M204.016,178.197h102.4c5.12,0,8.533-3.413,8.533-8.533s-3.413-8.533-8.533-8.533h-102.4
				c-5.12,0-8.533,3.413-8.533,8.533S198.896,178.197,204.016,178.197z"/>
			<path d="M264.064,336.058c-4.703,3.261-8.435,6.724-11.463,10.241c-2.654-17.329-7.452-35.153-15.305-52.049
				c-1.707-4.267-6.827-5.973-11.093-4.267c-4.267,1.707-5.973,6.827-4.267,11.093c9.53,20.647,14.091,43.067,15.712,63.828
				c-3.67-3.371-7.575-6.523-11.436-9.57c-1.142-40.214-32.57-73.105-73.396-74.738h-8.533v8.533
				c-0.853,20.48,6.827,40.107,20.48,55.467c13.359,15.028,31.623,23.502,51.588,24.66c9.528,7.421,18.121,14.883,21.865,22.946
				c-0.807,22.681-4.631,40.495-7.746,47.114c-1.707,4.267,0,9.387,4.267,11.093c0.853,0.853,2.56,0.853,3.413,0.853
				c3.413,0,5.973-1.707,7.68-5.12c4.649-10.227,10.055-36.411,9.464-67.924c0.22-0.929,0.921-2.339,1.63-3.756
				c4.117-9.057,7.465-18.109,19.191-25.633c34.414-0.695,62.749-29.459,64.435-68.234v-8.533h-8.533
				C297.489,271.241,267.726,298.933,264.064,336.058z M176.709,331.797c-8.533-9.387-13.653-20.48-15.36-33.28
				c25.6,5.12,45.227,26.453,47.787,51.2C196.336,347.157,185.242,341.183,176.709,331.797z M282.522,331.797
				c4.267-22.187,19.627-38.4,40.107-41.813C318.362,311.317,302.149,328.383,282.522,331.797z"/>
		</g>
	</g>
</g>
<g>
</g>
<g>
</g>
<g>
</g>
<g>
</g>
<g>
</g>
<g>
</g>
<g>
</g>
<g>
</g>
<g>
</g>
<g>
</g>
<g>
</g>
<g>
</g>
<g>
</g>
<g>
</g>
<g>
</g>
</svg>
