<?xml version="1.0" encoding="iso-8859-1"?>
<!-- Generator: Adobe Illustrator 19.0.0, SVG Export Plug-In . SVG Version: 6.00 Build 0)  -->
<svg version="1.1" id="Layer_1" xmlns="http://www.w3.org/2000/svg" xmlns:xlink="http://www.w3.org/1999/xlink" x="0px" y="0px"
	 viewBox="0 0 512.12 512.12" style="enable-background:new 0 0 512.12 512.12;" xml:space="preserve">
<g transform="translate(1 1)">
	<g>
		<g>
			<path d="M153.258,374.587c5.12,0,8.533-3.413,8.533-8.533s-3.413-8.533-8.533-8.533s-8.533,3.413-8.533,8.533
				S148.138,374.587,153.258,374.587z"/>
			<path d="M178.858,383.12c-5.12,0-8.533,3.413-8.533,8.533c0,5.12,3.413,8.533,8.533,8.533c5.12,0,8.533-3.413,8.533-8.533
				C187.392,386.534,183.978,383.12,178.858,383.12z"/>
			<path d="M170.325,417.254c-5.12,0-8.533,3.413-8.533,8.533s3.413,8.533,8.533,8.533c5.12,0,8.533-3.413,8.533-8.533
				S175.445,417.254,170.325,417.254z"/>
			<path d="M153.258,442.854c-5.12,0-8.533,3.413-8.533,8.533c0,5.12,3.413,8.533,8.533,8.533s8.533-3.413,8.533-8.533
				C161.792,446.267,158.378,442.854,153.258,442.854z"/>
			<path d="M153.258,408.72c5.12,0,8.533-3.413,8.533-8.533c0-5.12-3.413-8.533-8.533-8.533s-8.533,3.413-8.533,8.533
				C144.725,405.307,148.138,408.72,153.258,408.72z"/>
			<path d="M448.512,6.8c-6.827-6.827-15.36-9.387-24.747-6.827h-0.853l-46.08,17.067c-19.627,5.12-39.253,7.68-59.733,7.68H192.512
				c-20.48,0-40.107-2.56-59.733-7.68L87.552-0.026h-0.853c-9.387-2.56-19.627,0-25.6,7.68c-6.827,7.68-8.533,17.92-4.267,27.307
				l28.16,59.733c-10.24,104.96-10.24,212.48,1.707,320.853L61.952,475.28c-4.267,8.533-2.56,17.92,3.413,25.6
				c5.973,7.68,14.507,11.093,23.893,9.387l51.2-8.533c3.413-0.853,6.827-0.853,10.24-1.707c4.267,0,8.533-0.853,12.8-1.707
				c15.36-2.56,29.867-4.267,44.373-4.267h89.6c14.507,0,27.307,0.853,40.107,3.413c5.12,0.853,11.093,1.707,16.213,2.56
				c4.267,0.853,8.533,0.853,12.8,1.707l54.613,9.387c1.707,0,2.56,0,4.267,0c7.68,0,14.507-3.413,18.773-8.533
				c5.973-6.827,7.68-15.36,5.12-24.747l-23.04-61.44c12.8-106.667,12.8-215.04,0-321.707l28.16-62.293v-0.853
				C457.045,23.014,455.338,13.627,448.512,6.8z M438.272,26.427l-28.16,63.147c-0.853,0.853-0.853,2.56-0.853,4.267
				c12.8,106.667,12.8,215.04,0,322.56c0,0.853,0,2.56,0,4.267l23.893,63.147c1.707,3.413-0.853,6.827-1.707,7.68
				s-3.413,3.413-7.68,2.56l-54.613-8.533c-4.267-0.853-8.533-0.853-12.8-1.707s-10.24-1.707-15.36-2.56
				c-13.653-2.56-28.16-3.413-43.52-3.413h-89.6c-15.36,0-31.573,1.707-47.787,4.267c-4.267,0.853-7.68,0.853-11.947,1.707
				s-7.68,0.853-11.093,1.707l-51.2,8.533c-4.267,0-6.827-2.56-7.68-3.413c-1.707-0.853-3.413-4.267-1.707-8.533l24.747-61.44
				c0.853-1.707,0.853-2.56,0.853-4.267c-10.24-109.227-10.24-217.6,0-322.56c0-1.707,0-3.413-0.853-4.267l-29.013-61.44
				c-1.707-3.413-0.853-6.827,1.707-9.387c1.707-1.707,5.12-2.56,7.68-2.56l45.227,17.92h0.853c21.333,5.12,42.667,7.68,64,6.827
				h125.44c21.333,0,42.667-2.56,64-7.68h0.853l46.08-17.067c4.267-0.853,6.827,1.707,8.533,2.56
				C437.418,19.6,439.125,22.16,438.272,26.427z"/>
			<path d="M349.525,92.987H161.792c-5.12,0-8.533,3.413-8.533,8.533v136.533c0,5.12,3.413,8.533,8.533,8.533h187.733
				c5.12,0,8.533-3.413,8.533-8.533V101.52C358.058,96.4,354.645,92.987,349.525,92.987z M340.992,229.52H170.325V110.054h170.667
				V229.52z"/>
			<path d="M229.205,152.72h51.2c4.267,0,8.533-3.413,8.533-8.533c0-5.12-3.413-8.533-8.533-8.533h-51.2
				c-5.12,0-8.533,3.413-8.533,8.533C220.672,149.307,224.085,152.72,229.205,152.72z"/>
			<path d="M203.605,195.387h102.4c4.267,0,8.533-3.413,8.533-8.533s-3.413-8.533-8.533-8.533h-102.4
				c-5.12,0-8.533,3.413-8.533,8.533S198.485,195.387,203.605,195.387z"/>
			<path d="M220.672,273.04l-38.4,7.68l-13.653-13.653c-2.56-1.707-5.12-3.413-7.68-2.56c-2.56,0-5.12,1.707-5.973,4.267
				l-17.067,34.133c-0.853,0.853-0.853,0.853-0.853,1.707l-8.533,34.133c-0.853,3.413,0,6.827,2.56,8.533
				c1.707,0.853,3.413,1.707,5.12,1.707s2.56,0,5.12,0l20.48-10.24v1.707c0,5.12,3.413,8.533,8.533,8.533
				c5.12,0,8.533-3.413,8.533-8.533v-4.464l15.36,5.317c4.267,1.707,8.533-0.853,10.24-4.267l25.6-51.2
				c1.707-3.413,0.853-6.827-0.853-9.387C227.498,273.894,224.085,272.187,220.672,273.04z M192.512,320.827l-18.773-5.973
				c-0.867,0-1.731,0.003-2.565,0.036c-0.278-0.021-0.559-0.036-0.848-0.036c-2.338,0-4.314,0.718-5.777,1.979l-15.556,7.408
				l3.413-15.36l12.8-23.04l8.533,8.533c1.707,2.56,5.12,3.413,7.68,2.56l25.6-5.12L192.512,320.827z"/>
		</g>
	</g>
</g>
<g>
</g>
<g>
</g>
<g>
</g>
<g>
</g>
<g>
</g>
<g>
</g>
<g>
</g>
<g>
</g>
<g>
</g>
<g>
</g>
<g>
</g>
<g>
</g>
<g>
</g>
<g>
</g>
<g>
</g>
</svg>
