<?xml version="1.0" encoding="iso-8859-1"?>
<!-- Generator: Adobe Illustrator 17.1.0, SVG Export Plug-In . SVG Version: 6.00 Build 0)  -->
<!DOCTYPE svg PUBLIC "-//W3C//DTD SVG 1.1//EN" "http://www.w3.org/Graphics/SVG/1.1/DTD/svg11.dtd">
<svg version="1.1" id="Capa_1" xmlns="http://www.w3.org/2000/svg" xmlns:xlink="http://www.w3.org/1999/xlink" x="0px" y="0px"
	 viewBox="0 0 433.14 433.14" style="enable-background:new 0 0 433.14 433.14;" xml:space="preserve">
<path id="XMLID_388_" d="M110.683,217.776c-12.309,0-22.322-10.014-22.322-22.322v-50.226c0-4.418,3.582-8,8-8s8,3.582,8,8v50.226
	c0,3.486,2.836,6.322,6.322,6.322s6.322-2.836,6.322-6.322v-16.705c0-4.418,3.582-8,8-8s8,3.582,8,8v16.705
	C133.005,207.763,122.991,217.776,110.683,217.776z M68.071,165.254c-4.418,0-8,3.582-8,8v2.205c0,4.418,3.582,8,8,8s8-3.582,8-8
	v-2.205C76.071,168.836,72.489,165.254,68.071,165.254z M431.775,243.167c-3.318,4.928-8.375,8.273-14.241,9.421
	c-1.453,0.284-2.911,0.424-4.357,0.424c-1.362,0-2.711-0.139-4.039-0.386c0.246,2.194,0.385,4.411,0.385,6.654
	c0,30.214-22.976,55.157-52.373,58.291v53.302c0,12.309-10.015,22.323-22.324,22.323c-5.447,0-10.443-1.964-14.322-5.218
	c-3.879,3.254-8.875,5.218-14.322,5.218c-12.311,0-22.325-10.015-22.325-22.323v-31.93c-3.228,0.545-6.535,0.83-9.895,0.83
	c-22.782,0-42.975-12.991-52.644-32.763c-9.857,7.02-21.757,10.898-34.031,10.898c-4.639,0-9.148-0.558-13.479-1.581v54.545
	c0,12.309-10.015,22.323-22.323,22.323c-5.448,0-10.443-1.964-14.323-5.218c-3.88,3.254-8.876,5.218-14.323,5.218
	c-12.309,0-22.322-10.014-22.322-22.323v-69.235c-25.634-7.218-44.486-30.793-44.486-58.704v-16.889H40.815
	c-15.23,0-34.366-11.697-39.375-24.07c-2.874-7.101-1.405-14.192,4.03-19.456l31.384-30.39c6.746-6.536,11.591-11.229,16.088-14.634
	c5.763-21.673,25.561-37.077,48.277-37.077c10.819,0,21.066,3.432,29.479,9.593c6.752-24.924,29.556-43.317,56.587-43.317
	c11.727,0,22.862,3.385,32.356,9.705c8.781-21.729,29.915-36.457,54.318-36.457c22.521,0,42.511,12.585,52.341,32.146
	c7.66-3.548,16.012-5.394,24.59-5.394c32.329,0,58.631,26.301,58.631,58.629c0,10.979-3.101,21.718-8.847,30.961
	c12.132,11.036,19.181,26.732,19.181,43.372c0,12.925-4.123,25.121-11.742,35.204l1.613,1.086c1.384,0.932,3.063,1.265,4.736,0.938
	s3.106-1.269,4.038-2.653c2.468-3.665,7.439-4.636,11.104-2.169C433.271,234.53,434.242,239.501,431.775,243.167z M117.022,287.927
	h19.138c-4.769-8.478-7.503-18.246-7.503-28.646c0-15.877,6.321-30.812,17.521-41.801c-1.835-5.738-2.762-11.71-2.762-17.822
	c0-10.108,2.525-19.81,7.36-28.47c-12.404-9.91-20.345-24.564-21.842-40.42c-6.377-9.015-16.602-14.349-27.716-14.349
	c-16.197,0-30.211,11.515-33.32,27.38c-0.414,2.111-1.66,3.967-3.459,5.147c-4.056,2.664-8.987,7.442-16.453,14.675l-31.386,30.393
	c-0.636,0.615-0.807,0.781-0.33,1.958c2.383,5.886,15.194,14.074,24.544,14.074h23.214c4.418,0,8,3.582,8,8v24.889
	C72.029,267.743,92.213,287.927,117.022,287.927z M129.161,370.873v-66.946h-12.139c-0.17,0-0.337-0.011-0.507-0.013v66.959
	c0,3.486,2.836,6.323,6.322,6.323S129.161,374.359,129.161,370.873z M157.808,309.927c-2.999-1.753-5.829-3.761-8.46-6h-4.186
	v66.946c0,3.486,2.837,6.323,6.323,6.323c3.428,0,6.323-2.896,6.323-6.323V309.927z M312.503,370.873v-45.49
	c-3.831,3.343-8.08,6.173-12.647,8.412v37.077c0,3.486,2.838,6.323,6.325,6.323C309.607,377.196,312.503,374.301,312.503,370.873z
	 M341.149,370.873v-53.782c-4.355-0.726-8.587-1.946-12.646-3.628v57.411c0,3.486,2.836,6.323,6.322,6.323
	C338.313,377.196,341.149,374.359,341.149,370.873z M393.522,259.28c0-6.777-1.545-13.26-4.593-19.267
	c-0.008-0.016-1.192-2.093-1.021-4.493c0.205-2.866,2.64-4.923,2.648-4.93c8.576-8.136,13.299-19.121,13.299-30.933
	c0-14.104-6.969-27.279-18.643-35.243c-1.865-1.272-3.106-3.274-3.416-5.512s0.342-4.502,1.792-6.233
	c6.405-7.648,9.933-17.359,9.933-27.345c0-23.506-19.124-42.629-42.631-42.629c-8.637,0-16.954,2.571-24.053,7.435
	c-2.095,1.437-4.745,1.791-7.147,0.957c-2.399-0.834-4.26-2.758-5.014-5.183c-5.567-17.921-21.931-29.961-40.717-29.961
	c-21.038,0-38.734,15.049-42.077,35.782c-0.484,3.002-2.629,5.471-5.534,6.369c-2.904,0.896-6.068,0.072-8.163-2.132
	c-8.131-8.556-19.104-13.268-30.9-13.268c-23.506,0-42.629,19.123-42.629,42.629c0,15.071,8.092,29.174,21.118,36.807
	c1.976,1.157,3.36,3.105,3.804,5.351c0.444,2.246-0.095,4.574-1.481,6.396c-5.679,7.463-8.681,16.378-8.681,25.779
	c0,5.891,1.182,11.598,3.511,16.962c1.436,3.306,0.483,7.163-2.325,9.422c-10.134,8.146-15.945,20.262-15.945,33.239
	c0,23.506,19.123,42.629,42.629,42.629c12.005,0,23.519-5.105,31.587-14.008c1.537-1.695,3.7-2.627,5.928-2.627
	c0.653,0,1.312,0.08,1.961,0.244c2.868,0.725,5.102,2.974,5.808,5.846c4.692,19.082,21.713,32.409,41.392,32.409
	c17.479,0,33-10.474,39.542-26.683c0.926-2.292,2.857-4.027,5.235-4.702c2.374-0.676,4.934-0.212,6.924,1.252
	c7.354,5.409,16.078,8.269,25.229,8.269C374.398,301.909,393.522,282.786,393.522,259.28z M292.399,164.222
	c-3.299-2.94-8.356-2.648-11.295,0.65c-2.939,3.299-2.648,8.355,0.65,11.295c3.092,2.755,4.865,6.708,4.865,10.844
	c0,8.001-6.509,14.511-14.51,14.511c-8.002,0-14.513-6.51-14.513-14.511c0-4.418-3.582-8-8-8s-8,3.582-8,8
	c0,16.823,13.688,30.511,30.513,30.511c16.823,0,30.51-13.688,30.51-30.511C302.62,178.316,298.895,170.01,292.399,164.222z
	 M359.452,112.529c-3.301-2.938-8.357-2.647-11.295,0.652c-2.938,3.3-2.646,8.356,0.652,11.295
	c3.093,2.755,4.866,6.706,4.866,10.842c0,8.001-6.51,14.511-14.511,14.511c-8.002,0-14.512-6.51-14.512-14.511c0-4.418-3.582-8-8-8
	s-8,3.582-8,8c0,16.823,13.688,30.511,30.512,30.511c16.823,0,30.511-13.688,30.511-30.511
	C369.676,126.623,365.949,118.316,359.452,112.529z M359.374,215.915c-3.3-2.94-8.356-2.648-11.295,0.65
	c-2.939,3.299-2.648,8.355,0.65,11.295c3.093,2.756,4.866,6.708,4.866,10.844c0,8.001-6.51,14.51-14.512,14.51
	c-8.001,0-14.51-6.509-14.51-14.51c0-4.418-3.582-8-8-8s-8,3.582-8,8c0,16.823,13.687,30.51,30.51,30.51
	c16.824,0,30.512-13.687,30.512-30.51C369.596,230.01,365.87,221.704,359.374,215.915z M229.905,112.53
	c-3.299-2.94-8.356-2.647-11.295,0.65c-2.939,3.299-2.648,8.355,0.65,11.295c3.092,2.755,4.865,6.707,4.865,10.843
	c0,8.001-6.508,14.511-14.508,14.511c-8.003,0-14.514-6.51-14.514-14.511c0-4.418-3.582-8-8-8s-8,3.582-8,8
	c0,16.823,13.688,30.511,30.514,30.511c16.822,0,30.508-13.688,30.508-30.511C240.126,126.624,236.4,118.318,229.905,112.53z
	 M229.825,215.915c-3.299-2.94-8.356-2.648-11.295,0.65c-2.939,3.299-2.648,8.355,0.65,11.295c3.093,2.757,4.867,6.709,4.867,10.844
	c0,8.001-6.511,14.51-14.513,14.51c-8.001,0-14.51-6.509-14.51-14.51c0-4.418-3.582-8-8-8s-8,3.582-8,8
	c0,16.823,13.687,30.51,30.51,30.51c16.825,0,30.513-13.687,30.513-30.51C240.048,230.011,236.322,221.704,229.825,215.915z"/>
<g>
</g>
<g>
</g>
<g>
</g>
<g>
</g>
<g>
</g>
<g>
</g>
<g>
</g>
<g>
</g>
<g>
</g>
<g>
</g>
<g>
</g>
<g>
</g>
<g>
</g>
<g>
</g>
<g>
</g>
</svg>
