<?xml version="1.0" encoding="iso-8859-1"?>
<!-- Generator: Adobe Illustrator 19.0.0, SVG Export Plug-In . SVG Version: 6.00 Build 0)  -->
<svg version="1.1" id="Layer_1" xmlns="http://www.w3.org/2000/svg" xmlns:xlink="http://www.w3.org/1999/xlink" x="0px" y="0px"
	 viewBox="0 0 512 512" style="enable-background:new 0 0 512 512;" xml:space="preserve">
<g>
	<g>
		<path d="M80.338,431.661c-3.984-3.983-10.44-3.983-14.424,0l-10.032,10.032c-3.983,3.983-3.983,10.441,0,14.425
			c1.992,1.992,4.602,2.987,7.212,2.987s5.22-0.995,7.212-2.987l10.032-10.032C84.321,442.103,84.321,435.645,80.338,431.661z"/>
	</g>
</g>
<g>
	<g>
		<path d="M512,32.125c0-8.581-3.341-16.648-9.41-22.716C496.523,3.341,488.456,0,479.876,0c-8.582,0-16.648,3.341-22.716,9.41
			L155.205,311.362l-36.563-36.563c-3.984-3.983-10.44-3.983-14.425,0L2.987,376.03C1.075,377.943,0,380.536,0,383.242v118.559
			C0,507.434,4.567,512,10.199,512h118.559c2.705,0,5.298-1.075,7.212-2.987l101.231-101.23c3.983-3.983,3.983-10.441,0-14.425
			l-36.563-36.563L502.59,54.841C508.659,48.774,512,40.706,512,32.125z M215.564,400.57l-91.031,91.032H20.398V387.467
			l91.032-91.032l44.855,44.855L93.274,404.3c-3.983,3.983-3.983,10.441,0,14.424c1.992,1.992,4.602,2.987,7.212,2.987
			c2.61,0,5.221-0.996,7.212-2.987l63.012-63.011L215.564,400.57z M488.167,40.416L186.214,342.37l-16.584-16.584L471.584,23.832
			c2.214-2.214,5.16-3.434,8.292-3.434c3.131,0,6.077,1.22,8.291,3.434C492.739,28.406,492.739,35.845,488.167,40.416z"/>
	</g>
</g>
<g>
</g>
<g>
</g>
<g>
</g>
<g>
</g>
<g>
</g>
<g>
</g>
<g>
</g>
<g>
</g>
<g>
</g>
<g>
</g>
<g>
</g>
<g>
</g>
<g>
</g>
<g>
</g>
<g>
</g>
</svg>
