<?xml version="1.0" encoding="iso-8859-1"?>
<!-- Generator: Adobe Illustrator 19.0.0, SVG Export Plug-In . SVG Version: 6.00 Build 0)  -->
<svg version="1.1" id="Layer_1" xmlns="http://www.w3.org/2000/svg" xmlns:xlink="http://www.w3.org/1999/xlink" x="0px" y="0px"
	 viewBox="0 0 512 512" style="enable-background:new 0 0 512 512;" xml:space="preserve">
<g>
	<g>
		<path d="M168.848,394.152c-3.984-3.982-10.44-3.982-14.425,0l-5.81,5.809c-1.991,1.992-2.987,4.602-2.987,7.212
			s0.996,5.22,2.987,7.212c1.993,1.991,4.603,2.987,7.213,2.987c2.611,0,5.22-0.996,7.212-2.987l5.81-5.809
			c1.991-1.992,2.987-4.602,2.987-7.212S170.838,396.144,168.848,394.152z"/>
	</g>
</g>
<g>
	<g>
		<path d="M117.849,343.15c-3.984-3.982-10.44-3.982-14.424,0l-5.81,5.81c-1.991,1.992-2.987,4.602-2.987,7.212
			c0,2.61,0.996,5.22,2.987,7.212c1.992,1.991,4.602,2.987,7.212,2.987c2.61,0,5.22-0.996,7.212-2.987l5.81-5.81
			c1.991-1.992,2.987-4.602,2.987-7.212C120.836,347.752,119.839,345.142,117.849,343.15z"/>
	</g>
</g>
<g>
	<g>
		<path d="M509.013,64.188L447.812,2.987c-3.984-3.982-10.44-3.982-14.425,0c-13.559,13.559-18.692,33.076-13.941,51.282
			L194.366,279.35l-35.595-35.595c-0.112-0.111-0.226-0.221-0.344-0.327c-17.273-15.735-43.746-15.121-60.27,1.401l-95.17,95.171
			c-3.983,3.983-3.983,10.441,0,14.425l154.588,154.588c1.992,1.991,4.602,2.987,7.212,2.987s5.22-0.996,7.212-2.987l95.172-95.171
			c16.522-16.524,17.138-42.997,1.401-60.27c-0.106-0.117-0.216-0.232-0.327-0.344l-35.595-35.595L457.735,92.55
			c4.452,1.161,8.979,1.744,13.481,1.744c13.91,0,27.554-5.44,37.797-15.682C512.996,74.629,512.996,68.171,509.013,64.188z
			 M253.639,367.476c8.235,9.199,7.86,23.191-0.891,31.942l-87.959,87.959l-11.57-11.57l18.123-18.123
			c1.991-1.992,2.987-4.602,2.987-7.212s-0.996-5.22-2.987-7.212c-3.984-3.982-10.44-3.982-14.425,0l-18.123,18.123l-11.376-11.376
			l18.123-18.123c1.991-1.992,2.987-4.602,2.987-7.212s-0.996-5.22-2.987-7.212c-3.984-3.982-10.44-3.982-14.425,0l-18.123,18.123
			l-10.774-10.774l18.123-18.123c1.991-1.992,2.987-4.602,2.987-7.212s-0.996-5.22-2.987-7.212c-3.984-3.982-10.44-3.982-14.425,0
			l-18.123,18.123l-11.376-11.376l18.123-18.124c1.991-1.992,2.987-4.603,2.987-7.212c0-2.611-0.996-5.22-2.987-7.212
			c-3.984-3.982-10.44-3.982-14.425,0l-18.123,18.124l-11.376-11.376l18.124-18.123c1.991-1.992,2.987-4.602,2.987-7.212
			s-0.996-5.22-2.987-7.212c-3.983-3.981-10.439-3.982-14.425,0l-18.124,18.123l-11.569-11.569l87.959-87.959
			c8.751-8.749,22.743-9.125,31.947-0.891L253.639,367.476z M438.396,83.04L218.35,303.084l-9.435-9.435L428.96,73.603l0.003-0.022
			c1.366,1.753,2.832,3.439,4.424,5.032c1.593,1.592,3.277,3.058,5.03,4.422L438.396,83.04z M458.77,71.462
			c-4.104-1.661-7.792-4.108-10.957-7.274c-3.167-3.167-5.615-6.855-7.276-10.959c-3.673-9.073-3.103-19.073,1.196-27.475
			l44.511,44.512C477.844,74.563,467.841,75.136,458.77,71.462z"/>
	</g>
</g>
<g>
</g>
<g>
</g>
<g>
</g>
<g>
</g>
<g>
</g>
<g>
</g>
<g>
</g>
<g>
</g>
<g>
</g>
<g>
</g>
<g>
</g>
<g>
</g>
<g>
</g>
<g>
</g>
<g>
</g>
</svg>
