<?xml version="1.0" encoding="iso-8859-1"?>
<!-- Generator: Adobe Illustrator 19.0.0, SVG Export Plug-In . SVG Version: 6.00 Build 0)  -->
<svg version="1.1" id="Layer_1" xmlns="http://www.w3.org/2000/svg" xmlns:xlink="http://www.w3.org/1999/xlink" x="0px" y="0px"
	 viewBox="0 0 511.999 511.999" style="enable-background:new 0 0 511.999 511.999;" xml:space="preserve">
<g>
	<g>
		<path d="M146.95,365.051c-3.983-3.982-10.441-3.982-14.423,0l-6.983,6.983c-3.983,3.983-3.983,10.441,0,14.424
			c1.992,1.991,4.602,2.987,7.212,2.987c2.61,0,5.221-0.996,7.212-2.987l6.983-6.983
			C150.932,375.492,150.932,369.034,146.95,365.051z"/>
	</g>
</g>
<g>
	<g>
		<path d="M503.087,8.913C491.205-2.97,471.868-2.97,459.984,8.912L181.253,287.644l-33.275-33.275
			c-3.983-3.982-10.441-3.982-14.423,0L14.792,373.129c-19.079,19.08-19.79,49.651-1.618,69.596l26.424,29.005
			c0.212,0.234,0.437,0.458,0.671,0.671l29.004,26.424c9.661,8.802,21.816,13.174,33.949,13.174
			c12.916,0,25.809-4.955,35.647-14.793l118.762-118.762c3.983-3.983,3.983-10.441,0-14.424l-33.275-33.275L503.087,52.015
			C514.97,40.131,514.97,20.796,503.087,8.913z M235.996,371.234l-111.55,111.55c-11.36,11.36-29.559,11.784-41.435,0.963
			l-28.654-26.105l-26.105-28.654c-10.819-11.876-10.396-30.076,0.964-41.435l111.55-111.549l40.404,40.405l-27.612,27.612
			c-3.983,3.983-3.983,10.441,0,14.424c1.992,1.991,4.602,2.987,7.212,2.987s5.221-0.996,7.212-2.987l27.611-27.611L235.996,371.234
			z M488.664,37.591L209.931,316.323l-14.255-14.255L474.407,23.335c3.932-3.929,10.326-3.931,14.257,0
			C492.593,27.266,492.593,33.661,488.664,37.591z"/>
	</g>
</g>
<g>
</g>
<g>
</g>
<g>
</g>
<g>
</g>
<g>
</g>
<g>
</g>
<g>
</g>
<g>
</g>
<g>
</g>
<g>
</g>
<g>
</g>
<g>
</g>
<g>
</g>
<g>
</g>
<g>
</g>
</svg>
