<?xml version="1.0" encoding="iso-8859-1"?>
<!-- Generator: Adobe Illustrator 19.0.0, SVG Export Plug-In . SVG Version: 6.00 Build 0)  -->
<svg version="1.1" id="Layer_1" xmlns="http://www.w3.org/2000/svg" xmlns:xlink="http://www.w3.org/1999/xlink" x="0px" y="0px"
	 viewBox="0 0 512 512" style="enable-background:new 0 0 512 512;" xml:space="preserve">
<g>
	<g>
		<path d="M317.333,133.333V96H360V53.333h48V0H223.999v16H344v32H240v16h104v16H146.667V20.944c1.339-1.858,4.142-4.944,8-4.944h48
			V0h-48c-12.323,0-20.353,9.485-23.155,15.089l-0.845,1.69V96h32v37.333h32v21.333h-20.83L104,195.405V512h272V306.662h-16V448H192
			v16h168v32H120V208h173.333v-16H141.591l36.572-21.333h123.674L360,204.595v82.658h16v-91.847l-69.837-40.739h-20.83v-21.333
			H317.333z M360,16h32v21.333h-32V16z M269.333,154.667h-58.667v-21.333h58.667V154.667z M178.667,117.333V96h122.667v21.333
			H178.667z"/>
	</g>
</g>
<g>
	<g>
		<rect x="208" y="48" width="21.333" height="16"/>
	</g>
</g>
<g>
	<g>
		<rect x="165.333" y="48" width="21.333" height="16"/>
	</g>
</g>
<g>
	<g>
		<rect x="149.333" y="448" width="26.667" height="16"/>
	</g>
</g>
<g>
	<g>
		<rect x="141.333" y="242.667" width="16" height="170.667"/>
	</g>
</g>
<g>
</g>
<g>
</g>
<g>
</g>
<g>
</g>
<g>
</g>
<g>
</g>
<g>
</g>
<g>
</g>
<g>
</g>
<g>
</g>
<g>
</g>
<g>
</g>
<g>
</g>
<g>
</g>
<g>
</g>
</svg>
