<?xml version="1.0" encoding="iso-8859-1"?>
<!-- Generator: Adobe Illustrator 19.0.0, SVG Export Plug-In . SVG Version: 6.00 Build 0)  -->
<svg version="1.1" id="Layer_1" xmlns="http://www.w3.org/2000/svg" xmlns:xlink="http://www.w3.org/1999/xlink" x="0px" y="0px"
	 viewBox="0 0 511.999 511.999" style="enable-background:new 0 0 511.999 511.999;" xml:space="preserve">
<g>
	<g>
		<path d="M441.605,483.975L322.922,173.758V86.576h79.613c5.632,0,10.199-4.567,10.199-10.199C412.734,39.591,389.572,0,338.72,0
			H79.92c-5.632,0-10.199,4.567-10.199,10.199v61.45c0,5.632,4.567,10.199,10.199,10.199h40.18c8.801,0,17.49,1.229,25.874,3.631
			c10.77,12.686,10.169,31.836-1.781,43.785c-13.192,13.193-13.192,34.656,0,47.849c6.597,6.596,15.26,9.893,23.924,9.893
			c8.664,0,17.327-3.297,23.924-9.893c7.633-7.633,13.886-16.345,18.637-25.825c2.119,7.9,3.215,15.872,3.215,24.138
			c0,0.404,0.03,1.018,0.075,1.41L101.073,484.101c-0.413,1.126-0.625,2.317-0.625,3.518c0,13.444,10.938,24.38,24.38,24.38h293.07
			c13.444,0,24.38-10.938,24.38-24.38C442.278,486.372,442.049,485.137,441.605,483.975z M109.901,61.45H90.12V20.398h19.781V61.45z
			 M177.618,162.69c-5.237,5.239-13.763,5.239-19,0c-5.239-5.238-5.239-13.762,0-19c12.267-12.268,17.206-29.19,14.801-45.206
			c10,6.918,18.637,15.756,25.367,26.12C195.424,139.051,188.155,152.153,177.618,162.69z M154.68,66.788
			c-7.926-2.516-16.09-4.15-24.379-4.886V20.398h208.421c35.952,0,49.512,25.391,52.78,45.779h-78.778
			c-5.632,0-10.199,4.567-10.199,10.199v89.067h-68.687c-1.514-16.93-6.784-33.339-15.464-47.974
			C204.021,93.269,181.4,75.27,154.68,66.788z M417.898,491.602h-293.07c-1.725,0-3.236-1.166-3.774-2.735l8.883-24.176
			l178.059,0.041c5.632,0,10.199-4.567,10.199-10.199c0-5.632-4.567-10.199-10.199-10.199H137.416l94.977-258.491h73.312
			l115.95,303.073C421.103,490.46,419.605,491.602,417.898,491.602z"/>
	</g>
</g>
<g>
	<g>
		<path d="M368.264,444.332h-11.818c-5.632,0-10.199,4.567-10.199,10.199c0,5.632,4.567,10.199,10.199,10.199h11.818
			c5.632,0,10.199-4.567,10.199-10.199C378.463,448.9,373.896,444.332,368.264,444.332z"/>
	</g>
</g>
<g>
</g>
<g>
</g>
<g>
</g>
<g>
</g>
<g>
</g>
<g>
</g>
<g>
</g>
<g>
</g>
<g>
</g>
<g>
</g>
<g>
</g>
<g>
</g>
<g>
</g>
<g>
</g>
<g>
</g>
</svg>
