<?xml version="1.0" encoding="iso-8859-1"?>
<!-- Generator: Adobe Illustrator 19.0.0, SVG Export Plug-In . SVG Version: 6.00 Build 0)  -->
<svg version="1.1" id="Layer_1" xmlns="http://www.w3.org/2000/svg" xmlns:xlink="http://www.w3.org/1999/xlink" x="0px" y="0px"
	 viewBox="0 0 511.998 511.998" style="enable-background:new 0 0 511.998 511.998;" xml:space="preserve">
<g>
	<g>
		<path d="M411.005,378.918c-12.302-30.814-42.087-51.183-75.617-51.183c-10.346,0-20.341,1.895-29.812,5.643
			c-10.616-10.941-24.366-17.965-39.377-20.164v-29.566c4.701,2.227,9.877,3.401,15.233,3.401c9.513,0,18.458-3.704,25.184-10.432
			c10.921-10.921,23.707-52.575,27.365-65.082c1.046-3.577,0.059-7.44-2.576-10.076c-2.635-2.634-6.499-3.624-10.076-2.576
			c-9.97,2.916-38.45,11.634-55.131,20.583v-35.549c4.701,2.226,9.877,3.401,15.233,3.401c9.513,0,18.458-3.704,25.184-10.432
			c10.921-10.921,23.707-52.575,27.365-65.082c1.046-3.577,0.059-7.44-2.576-10.076c-2.635-2.634-6.499-3.623-10.076-2.576
			c-12.506,3.658-54.161,16.444-65.082,27.365c-0.083,0.083-0.159,0.169-0.241,0.252c-0.082-0.083-0.157-0.17-0.24-0.252
			c-10.922-10.921-52.577-23.707-65.083-27.365c-3.578-1.046-7.439-0.058-10.076,2.576c-2.635,2.635-3.624,6.499-2.576,10.076
			c3.658,12.506,16.445,54.161,27.366,65.081c6.727,6.727,15.67,10.432,25.184,10.432c5.349,0,10.52-1.172,15.217-3.394v35.533
			c-16.683-8.946-45.149-17.659-55.115-20.575c-3.574-1.046-7.439-0.058-10.076,2.576c-2.635,2.635-3.624,6.499-2.576,10.076
			c3.658,12.506,16.445,54.161,27.366,65.082c6.727,6.727,15.67,10.432,25.184,10.432c5.349,0,10.52-1.172,15.217-3.394v29.558
			c-15.169,2.214-29.023,9.342-39.676,20.461c-9.664-3.902-20.074-5.939-30.532-5.939c-33.779,0-63.659,20.582-75.828,51.704
			c-24.86,10.999-41.241,35.852-41.241,63.329c0,38.174,31.057,69.232,69.232,69.232h256.489c38.175,0,69.232-31.057,69.232-69.232
			C453.474,414.683,436.604,389.627,411.005,378.918z M270.671,240.674c3.699-3.699,20.161-10.394,37.9-16.381
			c-5.986,17.74-12.682,34.202-16.381,37.901c-2.874,2.874-6.695,4.457-10.76,4.457s-7.886-1.583-10.76-4.457
			c-2.874-2.874-4.457-6.695-4.457-10.76C266.213,247.369,267.797,243.548,270.671,240.674z M270.671,140.943
			c3.699-3.699,20.162-10.394,37.902-16.381c-5.984,17.737-12.679,34.198-16.383,37.901c-2.874,2.874-6.695,4.457-10.76,4.457
			s-7.886-1.583-10.761-4.457c-2.873-2.874-4.456-6.695-4.456-10.76C266.214,147.64,267.797,143.819,270.671,140.943z
			 M241.343,162.465c-2.874,2.874-6.695,4.457-10.76,4.457c-4.065,0-7.886-1.583-10.76-4.457c0,0,0,0-0.001,0
			c-3.699-3.699-10.394-20.162-16.382-37.903c17.738,5.984,34.199,12.679,37.902,16.382
			C247.277,146.877,247.277,156.532,241.343,162.465z M241.343,262.194c-2.874,2.874-6.695,4.457-10.76,4.457
			c-4.065,0-7.886-1.583-10.76-4.457c-3.7-3.699-10.395-20.162-16.382-37.901c17.74,5.987,34.202,12.682,37.901,16.381
			C247.277,246.607,247.277,256.262,241.343,262.194z M384.243,491.603H127.755c-26.927,0-48.834-21.907-48.834-48.834
			c0-20.557,12.997-39.032,32.342-45.973c0.212-0.075,0.412-0.173,0.617-0.262c0.24-0.059,0.478-0.125,0.716-0.203
			c4.873-1.59,9.974-2.396,15.158-2.396c5.632,0,10.199-4.566,10.199-10.199c0-5.633-4.567-10.199-10.199-10.199
			c-0.593,0-1.183,0.019-1.774,0.035c11.234-15.697,29.497-25.438,49.611-25.438c6.331,0,12.475,0.945,18.368,2.811
			c-4.724,9.495-7.192,19.947-7.192,30.755c0,5.633,4.567,10.199,10.199,10.199c5.632,0,10.199-4.566,10.199-10.199
			c0-10.361,3.201-20.256,9.256-28.614c0.082-0.112,0.148-0.229,0.223-0.344c0.117-0.14,0.239-0.275,0.35-0.423
			c9.33-12.362,23.547-19.453,39.004-19.453c15.297,0,29.426,6.978,38.761,19.146c0.252,0.327,0.525,0.629,0.808,0.918
			c0.182,0.338,0.378,0.669,0.602,0.991c5.668,8.177,8.663,17.782,8.663,27.777c0,5.633,4.567,10.199,10.199,10.199
			c5.632,0,10.199-4.566,10.199-10.199c0-10.884-2.518-21.442-7.329-31.015c5.631-1.69,11.477-2.551,17.487-2.551
			c20.067,0,38.335,9.74,49.581,25.418c-0.243-0.002-0.483-0.015-0.726-0.015c-5.632,0-10.199,4.566-10.199,10.199
			c0,5.633,4.567,10.199,10.199,10.199c5.29,0,10.47,0.846,15.426,2.495c0.04,0.013,0.076,0.033,0.115,0.046
			c19.912,6.682,33.292,25.287,33.292,46.293C433.076,469.696,411.17,491.603,384.243,491.603z"/>
	</g>
</g>
<g>
	<g>
		<path d="M331.405,2.987c-2.635-2.634-6.499-3.623-10.076-2.576c-12.506,3.658-54.161,16.445-65.082,27.366
			c-0.083,0.083-0.159,0.169-0.241,0.252c-0.082-0.083-0.157-0.169-0.24-0.252C244.844,16.856,203.19,4.069,190.683,0.411
			c-3.574-1.047-7.439-0.058-10.076,2.576c-2.635,2.635-3.624,6.499-2.576,10.076c3.659,12.507,16.446,54.162,27.367,65.083
			c6.727,6.727,15.67,10.432,25.184,10.432c5.349,0,10.52-1.172,15.217-3.394v15.789c0,5.633,4.567,10.199,10.199,10.199
			c5.632,0,10.199-4.566,10.199-10.199V85.175c4.701,2.227,9.877,3.401,15.234,3.401c9.513,0,18.457-3.704,25.184-10.432
			c10.921-10.921,23.707-52.575,27.365-65.082C335.027,9.486,334.04,5.623,331.405,2.987z M241.343,63.721
			c-2.874,2.874-6.695,4.457-10.76,4.457c-4.065,0-7.886-1.583-10.76-4.457c-3.7-3.699-10.395-20.162-16.382-37.901
			c17.742,5.988,34.203,12.683,37.902,16.381C247.276,48.134,247.276,57.788,241.343,63.721z M292.191,63.721
			c-2.874,2.874-6.695,4.457-10.76,4.457s-7.886-1.583-10.76-4.457c-2.874-2.874-4.457-6.695-4.457-10.76
			c0-4.065,1.584-7.885,4.458-10.76c3.699-3.699,20.161-10.394,37.9-16.381C302.586,43.561,295.89,60.022,292.191,63.721z"/>
	</g>
</g>
<g>
	<g>
		<path d="M315.154,400.83c-5.632,0-10.199,4.566-10.199,10.199v4.08c0,5.633,4.567,10.199,10.199,10.199
			c5.632,0,10.199-4.566,10.199-10.199v-4.08C325.353,405.396,320.787,400.83,315.154,400.83z"/>
	</g>
</g>
<g>
</g>
<g>
</g>
<g>
</g>
<g>
</g>
<g>
</g>
<g>
</g>
<g>
</g>
<g>
</g>
<g>
</g>
<g>
</g>
<g>
</g>
<g>
</g>
<g>
</g>
<g>
</g>
<g>
</g>
</svg>
