<?xml version="1.0" encoding="iso-8859-1"?>
<!-- Generator: Adobe Illustrator 19.0.0, SVG Export Plug-In . SVG Version: 6.00 Build 0)  -->
<svg version="1.1" id="Layer_1" xmlns="http://www.w3.org/2000/svg" xmlns:xlink="http://www.w3.org/1999/xlink" x="0px" y="0px"
	 viewBox="0 0 512 512" style="enable-background:new 0 0 512 512;" xml:space="preserve">
<g>
	<g>
		<path d="M400.864,485.347c43.134-18.289,66.889-43.619,66.889-71.322s-23.754-53.033-66.889-71.322
			c-17.979-7.624-38.55-13.724-60.845-18.158c8.786-2.248,17.078-4.838,24.752-7.755c33.798-12.848,52.414-31.069,52.414-51.309
			s-18.615-38.461-52.414-51.309c-8.814-3.35-18.461-6.255-28.719-8.719c6.427-2.085,12.49-4.494,18.097-7.215
			c24.345-11.818,37.751-28.343,37.751-46.535c0-18.192-13.407-34.717-37.751-46.535c-10.962-5.321-23.664-9.455-37.447-12.277
			c19.959-9.991,30.951-23.853,30.951-39.164c0-15.639-11.444-29.778-32.223-39.811C296.845,4.942,272.371,0,246.519,0
			c-25.853,0-50.326,4.942-68.913,13.918c-20.78,10.033-32.223,24.171-32.223,39.811s11.443,29.778,32.223,39.811
			c6.312,3.048,13.315,5.618,20.809,7.7c-3.096,1.229-6.09,2.536-8.959,3.929c-24.345,11.818-37.751,28.343-37.751,46.535
			c0,18.192,13.407,34.717,37.751,46.535c1.139,0.554,2.31,1.085,3.487,1.613c-21.6,3.075-41.469,7.904-58.355,14.322
			c-33.798,12.847-52.414,31.068-52.414,51.307s18.615,38.461,52.414,51.309c7.675,2.917,15.966,5.507,24.752,7.755
			c-22.294,4.434-42.865,10.533-60.845,18.158c-43.134,18.289-66.889,43.619-66.889,71.322s23.754,53.033,66.889,71.322
			c6.525,2.767,13.395,5.331,20.562,7.69H3.161V512h455.111v-18.963h-77.969C387.468,490.678,394.339,488.114,400.864,485.347z
			 M185.851,76.462c-13.667-6.598-21.505-14.885-21.505-22.734s7.838-16.136,21.505-22.734
			c16.068-7.758,37.612-12.031,60.668-12.031s44.6,4.273,60.668,12.031c13.667,6.598,21.505,14.885,21.505,22.734
			s-7.838,16.136-21.505,22.734c-16.068,7.758-37.612,12.031-60.668,12.031S201.919,84.221,185.851,76.462z M170.667,151.704
			c0-10.382,9.867-21.125,27.07-29.475c19.624-9.527,45.927-14.772,74.066-14.772s54.441,5.245,74.066,14.772
			c17.203,8.35,27.07,19.093,27.07,29.475s-9.867,21.125-27.07,29.475c-19.624,9.527-45.927,14.772-74.066,14.772
			s-54.441-5.245-74.066-14.772C180.534,172.828,170.667,162.085,170.667,151.704z M141.325,299.064
			c-25.165-9.565-40.189-22.12-40.189-33.582c0-11.463,15.024-24.017,40.189-33.582c28.815-10.954,67.296-16.986,108.354-16.986
			s79.539,6.031,108.354,16.986c25.165,9.565,40.189,22.12,40.189,33.582c0,11.462-15.024,24.017-40.189,33.582
			c-28.815,10.954-67.296,16.986-108.354,16.986S170.139,310.018,141.325,299.064z M105.897,467.888
			c-35.162-14.909-55.329-34.542-55.329-53.864c0-19.322,20.166-38.955,55.329-53.864c38.245-16.218,89.307-25.149,143.782-25.149
			s105.538,8.93,143.782,25.149c35.162,14.909,55.329,34.542,55.329,53.864c0,19.322-20.167,38.955-55.329,53.864
			c-38.245,16.218-89.307,25.149-143.782,25.149S144.141,484.107,105.897,467.888z"/>
	</g>
</g>
<g>
	<g>
		<path d="M88.494,420.346h18.963c0-11.878,27.654-28.444,72.691-28.444v-18.963C127.896,372.938,88.494,393.318,88.494,420.346z"/>
	</g>
</g>
<g>
	<g>
		<path d="M139.062,278.882h18.963c0-7.851,21.429-19.721,53.728-19.721v-18.963C170.313,240.198,139.062,256.828,139.062,278.882z"
			/>
	</g>
</g>
<g>
	<g>
		<path d="M202.272,162.197h18.963c0-2.411,3.444-6.436,11.138-9.993c9.375-4.334,22.595-6.82,36.27-6.82V126.42
			C230.805,126.42,202.272,141.8,202.272,162.197z"/>
	</g>
</g>
<g>
	<g>
		<path d="M191.223,61.111L207,71.629c0.099-0.147,10.058-14.741,30.037-14.741V37.926
			C207.024,37.926,191.853,60.164,191.223,61.111z"/>
	</g>
</g>
<g>
	<g>
		<rect x="477.235" y="493.037" width="31.605" height="18.963"/>
	</g>
</g>
<g>
	<g>
		<rect x="287.605" y="423.506" width="25.284" height="18.963"/>
	</g>
</g>
<g>
	<g>
		<rect x="312.889" y="398.222" width="25.284" height="18.963"/>
	</g>
</g>
<g>
	<g>
		<rect x="312.889" y="246.519" width="25.284" height="18.963"/>
	</g>
</g>
<g>
	<g>
		<rect x="287.605" y="271.802" width="25.284" height="18.963"/>
	</g>
</g>
<g>
	<g>
		<rect x="312.889" y="145.383" width="25.284" height="18.963"/>
	</g>
</g>
<g>
	<g>
		<rect x="274.963" y="44.247" width="25.284" height="18.963"/>
	</g>
</g>
<g>
	<g>
		<rect x="338.173" y="423.506" width="25.284" height="18.963"/>
	</g>
</g>
<g>
</g>
<g>
</g>
<g>
</g>
<g>
</g>
<g>
</g>
<g>
</g>
<g>
</g>
<g>
</g>
<g>
</g>
<g>
</g>
<g>
</g>
<g>
</g>
<g>
</g>
<g>
</g>
<g>
</g>
</svg>
