<?xml version="1.0" encoding="iso-8859-1"?>
<!-- Generator: Adobe Illustrator 19.0.0, SVG Export Plug-In . SVG Version: 6.00 Build 0)  -->
<svg version="1.1" id="Layer_1" xmlns="http://www.w3.org/2000/svg" xmlns:xlink="http://www.w3.org/1999/xlink" x="0px" y="0px"
	 viewBox="0 0 512 512" style="enable-background:new 0 0 512 512;" xml:space="preserve">
<g>
	<g>
		<path d="M512,256.001l-77.373-58.03l28.447-92.507l-96.709-1.366l-31.29-91.593L256,68.256l-79.075-55.751l-31.289,91.593
			l-96.709,1.366l28.446,92.507L0,256.001l77.373,58.029l-28.447,92.507l96.709,1.366l31.289,91.593L256,443.744l79.074,55.751
			l31.291-91.592l96.709-1.366l-28.447-92.507L512,256.001z M441.28,390.675l-86.532,1.221l-27.995,81.948L256,423.961
			l-70.751,49.883l-27.995-81.948l-86.533-1.221l25.448-82.759l-69.221-51.916l69.22-51.916L70.72,121.326l86.533-1.221
			l27.995-81.948L256,88.04l70.753-49.884l27.994,81.949l86.532,1.221l-25.448,82.759l69.221,51.916l-69.22,51.916L441.28,390.675z"
			/>
	</g>
</g>
<g>
	<g>
		<path d="M336.842,346.407c-22.239,19.898-50.949,30.857-80.842,30.857c-66.865,0-121.263-54.398-121.263-121.263
			c0-34.468,14.733-67.419,40.42-90.405l-10.781-12.049c-29.112,26.049-45.807,63.392-45.807,102.454
			c0,75.78,61.651,137.432,137.432,137.432c33.877,0,66.416-12.422,91.623-34.976L336.842,346.407z"/>
	</g>
</g>
<g>
	<g>
		<path d="M256,118.569c-26.524,0-52.267,7.565-74.446,21.876l8.766,13.586c19.561-12.622,42.272-19.293,65.679-19.293
			c66.864,0,121.263,54.398,121.263,121.263c0,27.886-9.191,54.095-26.581,75.792l12.617,10.112
			c19.431-24.245,30.133-54.754,30.133-85.904C393.432,180.22,331.78,118.569,256,118.569z"/>
	</g>
</g>
<g>
	<g>
		<path d="M161.684,256.001h16.168c0-43.091,35.056-78.147,78.147-78.147v-16.168C203.994,161.685,161.684,203.994,161.684,256.001z
			"/>
	</g>
</g>
<g>
	<g>
		<path d="M334.147,256.001c0,43.091-35.056,78.147-78.147,78.147v16.168c52.006,0,94.316-42.31,94.316-94.316H334.147z"/>
	</g>
</g>
<g>
	<g>
		<rect x="161.684" y="272.169" width="16.168" height="21.558"/>
	</g>
</g>
<g>
	<g>
		<rect x="334.147" y="218.274" width="16.168" height="21.558"/>
	</g>
</g>
<g>
</g>
<g>
</g>
<g>
</g>
<g>
</g>
<g>
</g>
<g>
</g>
<g>
</g>
<g>
</g>
<g>
</g>
<g>
</g>
<g>
</g>
<g>
</g>
<g>
</g>
<g>
</g>
<g>
</g>
</svg>
