<?xml version="1.0" encoding="iso-8859-1"?>
<!-- Generator: Adobe Illustrator 19.0.0, SVG Export Plug-In . SVG Version: 6.00 Build 0)  -->
<svg version="1.1" id="Layer_1" xmlns="http://www.w3.org/2000/svg" xmlns:xlink="http://www.w3.org/1999/xlink" x="0px" y="0px"
	 viewBox="0 0 512 512" style="enable-background:new 0 0 512 512;" xml:space="preserve">
<g>
	<g>
		<path d="M478.831,166.967c-20.919-32.39-50.978-59.977-86.929-79.779c-28.086-15.47-59.042-18.439-91.755-18.808
			c5.178-2.795,11.098-4.385,17.383-4.385c15.031,0,27.26-12.229,27.26-27.26c0-15.032-12.231-27.259-27.261-27.259
			c-38.942,0-72.256,24.526-85.326,58.94c-40.719-0.272-79.158,0.405-113.266,19.417c-35.632,19.861-65.408,47.408-86.108,79.664
			C11.353,200.962,0,239.083,0,277.738c0,60.308,26.808,116.925,75.485,159.421c48.284,42.151,112.392,65.367,180.515,65.367
			s132.231-23.215,180.515-65.368C485.192,394.661,512,338.044,512,277.738C512,238.87,500.53,200.566,478.831,166.967z
			 M246.992,94.326c0.164-1.825,0.399-3.629,0.7-5.412c1.217-7.224,3.531-14.075,6.764-20.386
			c11.743-22.921,35.598-38.655,63.073-38.655c3.784,0,6.862,3.078,6.862,6.862c0,3.784-3.078,6.862-6.862,6.862
			c-19.541,0-36.814,9.868-47.116,24.877c-4.17,6.077-7.199,12.994-8.768,20.444c-0.378,1.795-0.669,3.623-0.874,5.475
			c-0.229,2.076-0.357,4.182-0.357,6.317c0,3.784-3.078,6.862-6.861,6.862c-3.784,0-6.862-3.078-6.862-6.862
			C246.69,98.558,246.802,96.431,246.992,94.326z M253.553,127.971c9.082,0,17.136-4.469,22.092-11.32
			c13.944,2.754,21.795,7.576,23.032,10.039c-1.793,3.568-17.467,12.095-45.463,12.095s-43.67-8.528-45.463-12.095
			c1.252-2.498,9.313-7.42,23.628-10.151C236.33,123.453,244.421,127.971,253.553,127.971z M256,482.126
			c-129.911,0-235.602-91.688-235.602-204.389c0-69.897,40.55-134.229,108.472-172.089c27.04-15.072,59.251-16.875,93.612-16.875
			c1.523,0,3.059,0.009,4.59,0.015c-0.343,2.614-0.571,5.263-0.686,7.94c-5.953,1.187-11.483,2.769-16.372,4.725
			c-19.782,7.914-22.736,19.207-22.736,25.235c0,6.028,2.954,17.321,22.736,25.234c11.704,4.681,27.046,7.26,43.2,7.26
			s31.497-2.578,43.2-7.26c19.782-7.913,22.736-19.206,22.736-25.234c0-6.028-2.954-17.321-22.736-25.235
			c-4.623-1.849-9.822-3.365-15.407-4.528c0.291-2.827,0.913-5.557,1.81-8.158c36.438-0.259,70.704,0.567,99.243,16.287
			c68.592,37.781,109.542,102.335,109.542,172.683C491.602,390.439,385.911,482.126,256,482.126z"/>
	</g>
</g>
<g>
	<g>
		<path d="M226.459,431.964c-13.488,0-26.875-1.706-39.79-5.072c-5.45-1.424-11.021,1.846-12.441,7.297
			c-1.421,5.45,1.846,11.02,7.297,12.441c14.594,3.802,29.711,5.731,44.934,5.731c5.633,0,10.199-4.566,10.199-10.198
			S232.091,431.964,226.459,431.964z"/>
	</g>
</g>
<g>
	<g>
		<path d="M133.588,401.612c-40.162-29.487-64.141-76.836-64.141-126.662c0-5.632-4.567-10.199-10.199-10.199
			c-5.632,0-10.199,4.567-10.199,10.199c0,28.336,6.831,56.518,19.755,81.496c12.504,24.168,30.732,45.471,52.713,61.608
			c1.819,1.335,3.932,1.979,6.028,1.979c3.136,0,6.231-1.442,8.23-4.163C139.107,411.328,138.129,404.945,133.588,401.612z"/>
	</g>
</g>
<g>
</g>
<g>
</g>
<g>
</g>
<g>
</g>
<g>
</g>
<g>
</g>
<g>
</g>
<g>
</g>
<g>
</g>
<g>
</g>
<g>
</g>
<g>
</g>
<g>
</g>
<g>
</g>
<g>
</g>
</svg>
