<?xml version="1.0" encoding="iso-8859-1"?>
<!-- Generator: Adobe Illustrator 19.0.0, SVG Export Plug-In . SVG Version: 6.00 Build 0)  -->
<svg version="1.1" id="Layer_1" xmlns="http://www.w3.org/2000/svg" xmlns:xlink="http://www.w3.org/1999/xlink" x="0px" y="0px"
	 viewBox="0 0 512 512" style="enable-background:new 0 0 512 512;" xml:space="preserve">
<g transform="translate(1 1)">
	<g>
		<g>
			<path d="M502.467,341.187c-1.707-6.827-4.267-13.653-7.68-19.627c3.413-3.413,3.413-8.533,0-11.947l-17.067-17.067
				c-3.413-3.413-8.533-3.413-11.947,0c-5.973-3.413-12.8-5.973-19.627-7.68c0-5.12-3.413-8.533-8.533-8.533H413.72
				c-5.12,0-8.533,3.413-8.533,8.533c-6.827,1.707-13.653,4.267-19.627,7.68c-3.413-3.413-8.533-3.413-11.947,0l-17.067,17.067
				c-3.413,3.413-3.413,8.533,0,11.947c-3.413,5.973-5.973,12.8-7.68,19.627c-5.12,0-8.533,3.413-8.533,8.533v23.893
				c0,5.12,3.413,8.533,8.533,8.533c1.707,6.827,4.267,13.653,7.68,19.627c-3.413,3.413-3.413,8.533,0,11.947l17.067,17.067
				c3.413,3.413,8.533,3.413,11.947,0c5.973,3.413,12.8,5.973,19.627,7.68c0,5.12,3.413,8.533,8.533,8.533h23.893
				c4.267,0,8.533-3.413,8.533-8.533c6.827-1.707,13.653-4.267,19.627-7.68c3.413,3.413,8.533,3.413,11.947,0l17.067-17.067
				c3.413-3.413,3.413-8.533,0-11.947c3.413-5.973,5.973-12.8,7.68-19.627c5.12,0,8.533-3.413,8.533-8.533V349.72
				C511,344.6,507.587,341.187,502.467,341.187z M493.08,365.933c-3.413,0.853-5.973,3.413-6.827,6.827
				c-0.853,9.387-5.12,17.92-10.24,25.6c-1.707,2.56-1.707,6.827,0,9.387l-5.12,5.12c-2.56-1.707-6.827-1.707-9.387,0
				c-7.68,5.12-16.213,8.533-25.6,10.24c-3.413,0.853-5.973,3.413-6.827,6.827h-6.827c-0.853-3.413-3.413-5.973-6.827-6.827
				c-9.387-0.853-17.92-5.12-25.6-10.24c-2.56-1.707-6.827-1.707-9.387,0l-5.12-5.12c1.707-2.56,1.707-6.827,0-9.387
				c-5.12-7.68-8.533-16.213-10.24-25.6c-0.853-3.413-3.413-5.973-6.827-6.827v-6.827c3.413-0.853,5.973-3.413,6.827-6.827
				c0.853-9.387,5.12-17.92,10.24-25.6c1.707-2.56,1.707-6.827,0-9.387l5.12-5.12c2.56,1.707,6.827,1.707,9.387,0
				c7.68-5.12,16.213-8.533,25.6-10.24c3.413-0.853,5.973-3.413,6.827-6.827h6.827c0.853,3.413,3.413,5.973,6.827,6.827
				c9.387,0.853,17.92,5.12,25.6,10.24c2.56,1.707,6.827,1.707,9.387,0l5.12,5.12c-1.707,2.56-1.707,6.827,0,9.387
				c5.12,7.68,8.533,16.213,10.24,25.6c0.853,3.413,3.413,5.973,6.827,6.827V365.933z"/>
			<path d="M425.667,319C401.773,319,383,337.773,383,361.667c0,23.893,18.773,42.667,42.667,42.667s42.667-18.773,42.667-42.667
				C468.333,337.773,449.56,319,425.667,319z M425.667,387.267c-14.507,0-25.6-11.093-25.6-25.6c0-14.507,11.093-25.6,25.6-25.6
				s25.6,11.093,25.6,25.6C451.267,376.173,440.173,387.267,425.667,387.267z"/>
			<path d="M324.853,380.085c0.114-0.982,0.121-2.019,0.121-3.059c-0.853-5.12-1.707-10.24-1.707-15.36s0.853-10.24,2.56-15.36
				c0.538-1.613,0.396-3.224-0.208-4.624c2.955-15.679,9.562-30.519,19.835-43.163c0.245-0.367,0.469-0.753,0.674-1.15
				c18.814-23.204,47.519-38.103,79.54-38.103c13.653,0,27.076,2.734,39.453,7.838c0.366,0.28,0.831,0.45,1.315,0.548
				c11.097,4.755,21.318,11.431,30.058,19.774c3.413,3.413,8.533,3.413,11.947,0c3.413-3.413,3.413-8.533,0-11.947
				c-9.334-8.975-20.03-16.28-31.573-21.742V139.8c0-5.12-3.413-8.533-8.533-8.533c-23.893,0-44.373,17.067-49.493,40.96
				l-9.374,71.084c-29.802,4.086-56.19,19.27-74.832,41.218c-18.243-2.367-32.59-16.089-36.126-33.796h7.692
				c5.12,0,8.533-3.413,8.533-8.533v-22.471l41.736-34.78l20.558,20.558c1.707,1.707,3.413,2.56,5.973,2.56s4.267-0.853,5.973-2.56
				c3.413-3.413,3.413-8.533,0-11.947l-25.6-25.6c-0.365-0.487-0.806-0.915-1.293-1.293l-24.307-24.307
				c-3.413-3.413-8.533-3.413-11.947,0c-3.413,3.413-3.413,8.533,0,11.947l18.618,18.618l-29.712,24.76V191
				c0-5.12-3.413-8.533-8.533-8.533H203.8v-51.2c0-5.12-3.413-8.533-8.533-8.533h-8.533v-25.6c0-9.387,7.68-17.067,17.067-17.067
				c5.12,0,8.533-3.413,8.533-8.533S208.92,63,203.8,63c-18.773,0-34.133,15.36-34.133,34.133v25.6h-8.533
				c-5.12,0-8.533,3.413-8.533,8.533v51.2h-34.133v-18.443c10.103-3.391,17.067-12.734,17.067-24.224
				c0-14.507-11.093-25.6-25.6-25.6H75.8c-14.507,0-25.6,11.093-25.6,25.6c0,11.491,6.963,20.833,17.067,24.224v18.443
				c-23.893,0-42.667,18.773-42.667,42.667V242.2v70.598C8.863,326.825-1,347.275-1,370.2c0,42.667,34.133,76.8,76.8,76.8
				c36.791,0,67.215-25.388,74.903-59.733h158.375c1.58,7.005,3.772,13.833,6.509,20.48c0.853,3.413,4.267,5.12,7.68,5.12
				c0.853,0,2.56,0,3.413-0.853c4.267-1.707,5.973-6.827,4.267-11.093C328.149,394.392,326.122,387.353,324.853,380.085z
				 M436.76,174.787c1.707-12.8,11.093-22.187,23.04-25.6v98.009c-1.255-0.374-2.517-0.725-3.785-1.058
				c-8.99-2.624-18.062-3.938-27.789-3.938L436.76,174.787z M297.667,199.533v13.927c-0.589,1.757-0.63,3.737,0,5.522v14.685h-8.533
				H203.8v-34.133H297.667z M169.667,139.8h17.067V191v51.2v25.6h-17.067v-25.6V191V139.8z M75.8,131.267h34.133
				c5.12,0,8.533,3.413,8.533,8.533s-3.413,8.533-8.533,8.533H75.8c-5.12,0-8.533-3.413-8.533-8.533S70.68,131.267,75.8,131.267z
				 M84.333,165.4H101.4v17.067H84.333V165.4z M41.667,225.133c0-14.507,11.093-25.6,25.6-25.6H75.8h34.133H152.6v34.133H41.667
				V225.133z M41.667,301.08v-50.347H152.6v25.6c0,5.12,3.413,8.533,8.533,8.533h34.133c5.12,0,8.533-3.413,8.533-8.533v-25.6
				h77.653c3.402,22.962,20.366,41.683,42.443,48.567c-6.896,11.184-11.998,23.575-14.907,36.766H144.92
				c-12.987-25.162-36.785-41.047-64.78-42.54c-0.234-0.013-0.467-0.025-0.701-0.036c-1.206-0.054-2.418-0.091-3.639-0.091
				c-1.314,0-2.627,0.036-3.938,0.098c-0.017,0.001-0.034,0.001-0.051,0.002C61.213,294.007,50.766,296.53,41.667,301.08z
				 M75.8,429.933c-33.28,0-59.733-26.453-59.733-59.733c0-31.17,23.206-56.349,53.491-59.417c0.059-0.006,0.117-0.012,0.176-0.018
				c0.86-0.085,1.727-0.146,2.598-0.194c0.179-0.01,0.356-0.024,0.535-0.032c0.972-0.046,1.95-0.073,2.934-0.073
				c0.941,0,1.875,0.028,2.804,0.07c0.252,0.011,0.502,0.027,0.753,0.042c0.737,0.042,1.47,0.096,2.199,0.164
				c0.204,0.019,0.409,0.036,0.613,0.057c1.904,0.197,3.779,0.479,5.623,0.847c0.105,0.021,0.209,0.043,0.313,0.065
				c0.888,0.182,1.77,0.381,2.643,0.602c0.039,0.01,0.077,0.019,0.116,0.028c1.876,0.478,3.715,1.044,5.512,1.692
				c0.066,0.024,0.131,0.048,0.196,0.072c0.813,0.297,1.617,0.612,2.413,0.942c0.098,0.041,0.196,0.08,0.294,0.121
				c0.853,0.359,1.696,0.736,2.527,1.133c0.051,0.025,0.101,0.052,0.152,0.076c0.683,0.329,1.356,0.675,2.024,1.029
				c0.403,0.214,0.802,0.435,1.199,0.659c0.255,0.143,0.508,0.288,0.76,0.434c11.163,6.506,20.097,16.685,25.324,29.515
				c0.163,0.653,0.422,1.243,0.754,1.771c2.272,6.355,3.512,13.225,3.512,20.416C135.533,403.48,109.08,429.933,75.8,429.933z
				 M306.2,370.2H152.6c0-0.974-0.03-1.92-0.071-2.856c-0.132-3.671-0.52-7.27-1.141-10.786c-0.161-1.119-0.327-2.252-0.494-3.424
				H306.2c0,2.56,0,5.973,0,8.533S306.2,367.64,306.2,370.2z"/>
			<path d="M75.8,336.067c-18.773,0-34.133,15.36-34.133,34.133c0,18.773,15.36,34.133,34.133,34.133
				c18.773,0,34.133-15.36,34.133-34.133C109.933,351.427,94.573,336.067,75.8,336.067z M75.8,387.267
				c-9.387,0-17.067-7.68-17.067-17.067s7.68-17.067,17.067-17.067s17.067,7.68,17.067,17.067S85.187,387.267,75.8,387.267z"/>
			<path d="M229.4,284.867h34.133c5.12,0,8.533-3.413,8.533-8.533s-3.413-8.533-8.533-8.533H229.4c-5.12,0-8.533,3.413-8.533,8.533
				S224.28,284.867,229.4,284.867z"/>
			<path d="M212.333,310.467H280.6c5.12,0,8.533-3.413,8.533-8.533s-3.413-8.533-8.533-8.533h-68.267
				c-5.12,0-8.533,3.413-8.533,8.533S207.213,310.467,212.333,310.467z"/>
			<path d="M101.4,284.867c5.12,0,8.533-3.413,8.533-8.533s-3.413-8.533-8.533-8.533s-8.533,3.413-8.533,8.533
				S96.28,284.867,101.4,284.867z"/>
			<path d="M75.8,276.333c0-5.12-3.413-8.533-8.533-8.533s-8.533,3.413-8.533,8.533s3.413,8.533,8.533,8.533
				S75.8,281.453,75.8,276.333z"/>
		</g>
	</g>
</g>
<g>
</g>
<g>
</g>
<g>
</g>
<g>
</g>
<g>
</g>
<g>
</g>
<g>
</g>
<g>
</g>
<g>
</g>
<g>
</g>
<g>
</g>
<g>
</g>
<g>
</g>
<g>
</g>
<g>
</g>
</svg>
