<?xml version="1.0" encoding="iso-8859-1"?>
<!-- Generator: Adobe Illustrator 19.0.0, SVG Export Plug-In . SVG Version: 6.00 Build 0)  -->
<svg version="1.1" id="Layer_1" xmlns="http://www.w3.org/2000/svg" xmlns:xlink="http://www.w3.org/1999/xlink" x="0px" y="0px"
	 viewBox="0 0 503.843 503.843" style="enable-background:new 0 0 503.843 503.843;" xml:space="preserve">
<g transform="translate(1 1)">
	<g>
		<g>
			<path d="M428.744,54.515c-1.679-12.59-12.59-21.823-25.18-21.823h-35.252c-14.269,0-25.18,10.911-25.18,25.18V150.2
				c0,14.269,10.911,25.18,25.18,25.18h47.843c9.233,0,16.787-3.357,22.662-10.072c4.197-4.197,5.875-10.072,5.036-16.787
				L428.744,54.515z M425.387,155.236c-1.679,1.679-5.875,3.357-9.233,3.357h-47.843c-5.036,0-8.393-3.357-8.393-8.393V57.872
				c0-5.036,3.357-8.393,8.393-8.393h35.252c4.197,0,7.554,3.357,8.393,7.554l14.269,94.846
				C427.066,152.718,427.066,153.557,425.387,155.236z"/>
			<path d="M301.164,32.692H267.59c-14.269,0-25.18,10.911-25.18,25.18v134.295c0,10.072,5.875,19.305,15.108,23.502
				c3.357,0.839,6.715,1.679,10.072,1.679c6.715,0,12.59-2.518,17.626-7.554l33.574-33.574c5.036-4.197,7.554-10.911,7.554-17.626
				V57.872C326.344,43.603,315.433,32.692,301.164,32.692z M309.557,158.593c0,2.518-0.839,4.197-2.518,5.875l-33.574,33.574
				c-3.357,3.357-8.393,2.518-9.233,1.679c-0.839,0-5.036-2.518-5.036-7.554V57.872c0-5.036,3.357-8.393,8.393-8.393h33.574
				c5.036,0,8.393,3.357,8.393,8.393V158.593z"/>
			<path d="M82.934,393.61c-18.466,0-33.574,15.108-33.574,33.574s15.108,33.574,33.574,33.574s33.574-15.108,33.574-33.574
				S101.4,393.61,82.934,393.61z M82.934,443.971c-9.233,0-16.787-7.554-16.787-16.787s7.554-16.787,16.787-16.787
				s16.787,7.554,16.787,16.787S92.167,443.971,82.934,443.971z"/>
			<path d="M376.705,343.249c-27.698,0-50.361,22.662-50.361,50.361c0,27.698,22.662,50.361,50.361,50.361
				s50.361-22.662,50.361-50.361C427.066,365.911,404.403,343.249,376.705,343.249z M376.705,427.184
				c-18.466,0-33.574-15.108-33.574-33.574s15.108-33.574,33.574-33.574s33.574,15.108,33.574,33.574
				S395.17,427.184,376.705,427.184z"/>
			<path d="M376.705,376.823c-9.233,0-16.787,7.554-16.787,16.787c0,9.233,7.554,16.787,16.787,16.787
				c9.233,0,16.787-7.554,16.787-16.787C393.492,384.377,385.938,376.823,376.705,376.823z"/>
			<path d="M477.426,368.43h-2.518c-2.518-10.072-6.715-19.305-11.751-27.698l1.679-1.679c3.357-3.357,3.357-8.393,0-11.751
				l-21.823-21.823c-1.679-1.679-3.357-2.518-5.875-2.518s-4.197,0.839-5.875,2.518l-1.679,1.679
				c-8.393-5.036-18.466-9.233-27.698-11.751v-2.518c0-5.036-3.357-8.393-8.393-8.393h-33.574c-5.036,0-8.393,3.357-8.393,8.393
				v2.518c-10.072,2.518-19.305,6.715-27.698,11.751l-1.679-1.679c-1.679-1.679-3.357-2.518-5.875-2.518
				c-2.518,0-4.197,0.839-5.875,2.518l-21.823,21.823c-3.357,3.357-3.357,8.393,0,11.751l1.679,1.679
				c-5.036,8.393-9.233,18.466-11.751,27.698h-2.518c-5.036,0-8.393,3.357-8.393,8.393v33.574c0,5.036,3.357,8.393,8.393,8.393
				h2.518c2.518,10.072,6.715,19.305,11.751,27.698l-1.679,1.679c-3.357,3.357-3.357,8.393,0,11.751l21.823,21.823
				c3.357,3.357,8.393,3.357,11.751,0l1.679-1.679c8.393,5.036,18.466,9.233,27.698,11.751v2.518c0,5.036,3.357,8.393,8.393,8.393
				h33.574c5.036,0,8.393-3.357,8.393-8.393v-2.518c10.072-2.518,19.305-6.715,27.698-11.751l1.679,1.679
				c3.357,3.357,8.393,3.357,11.751,0l21.823-21.823c3.357-3.357,3.357-8.393,0-11.751l-1.679-1.679
				c5.036-8.393,9.233-18.466,11.751-27.698h2.518c5.036,0,8.393-3.357,8.393-8.393v-33.574
				C485.82,371.787,482.462,368.43,477.426,368.43z M469.033,402.003h-0.839c-4.197,0-7.554,2.518-8.393,6.715
				c-1.679,11.751-6.715,23.502-14.269,33.574c-2.518,3.357-1.679,8.393,0.839,10.911l0.839,0.839l-10.072,10.072l-0.839-0.839
				c-3.357-2.518-7.554-3.357-10.911-0.839c-10.072,6.715-21.823,11.751-33.574,14.269c-4.197,0.839-6.715,4.197-6.715,8.393v0.839
				h-16.787c0-5.036-2.518-8.393-6.715-9.233c-11.751-1.679-23.502-6.715-33.574-14.269c-3.357-2.518-8.393-1.679-10.911,0.839
				l-0.839,0.839L306.2,454.043l0.839-0.839c2.518-3.357,3.357-7.554,0.839-10.911c-6.715-10.072-11.751-21.823-14.269-33.574
				c-0.839-4.197-4.197-6.715-8.393-6.715h-0.839v-16.787h0.839c4.197,0,7.554-2.518,8.393-6.715
				c1.679-11.751,6.715-23.502,14.269-33.574c2.518-3.357,1.679-8.393-0.839-10.911l-0.839-0.839l10.072-10.072l0.839,0.839
				c3.357,2.518,7.554,3.357,10.911,0.839c10.072-6.715,21.823-11.751,33.574-14.269c4.197-0.839,6.715-4.197,6.715-8.393v-0.839
				h16.787v0.839c0,4.197,2.518,7.554,6.715,8.393c11.751,1.679,23.502,6.715,33.574,14.269c3.357,2.518,8.393,1.679,10.911-0.839
				l0.839-0.839l10.072,10.072l-0.839,0.839c-2.518,3.357-3.357,7.554-0.839,10.911c6.715,10.072,11.751,21.823,14.269,33.574
				c0.839,4.197,4.197,6.715,8.393,6.715h0.839V402.003z"/>
			<path d="M133.295,267.708c5.036,0,8.393-3.357,8.393-8.393c0-5.036-3.357-8.393-8.393-8.393s-8.393,3.357-8.393,8.393
				C124.902,264.351,128.259,267.708,133.295,267.708z"/>
			<path d="M166.869,267.708c5.036,0,8.393-3.357,8.393-8.393c0-5.036-3.357-8.393-8.393-8.393s-8.393,3.357-8.393,8.393
				C158.475,264.351,161.833,267.708,166.869,267.708z"/>
			<path d="M200.443,250.921c-5.036,0-8.393,3.357-8.393,8.393c0,5.036,3.357,8.393,8.393,8.393s8.393-3.357,8.393-8.393
				C208.836,254.279,205.479,250.921,200.443,250.921z"/>
			<path d="M200.443,284.495h-67.148c-5.036,0-8.393,3.357-8.393,8.393v33.574c0,5.036,3.357,8.393,8.393,8.393h67.148
				c5.036,0,8.393-3.357,8.393-8.393v-33.574C208.836,287.852,205.479,284.495,200.443,284.495z M192.049,318.069h-50.361v-16.787
				h50.361V318.069z"/>
			<path d="M477.426,194.685V35.21l15.948-23.502c1.679-2.518,1.679-5.875,0-8.393c-1.679-2.518-4.197-4.197-7.554-4.197H200.443
				c-3.357,0-5.875,1.679-6.715,5.036c-1.679,2.518-1.679,5.875,0,8.393l15.108,22.662v182.138h-58.754v-58.754
				c0-9.233,7.554-16.787,16.787-16.787c5.036,0,8.393-3.357,8.393-8.393V99.839c0-5.036-3.357-8.393-8.393-8.393
				c-36.931,0-67.148,30.216-67.148,67.148v58.754H66.148V200.39c9.655-1.183,16.787-9.081,16.787-19.134v-11.751
				c0-10.911-8.393-19.305-19.305-19.305H18.305C7.393,150.2-1,158.593-1,169.505v11.751c0,10.053,7.132,17.952,16.787,19.134
				v16.957H7.393c-5.036,0-8.393,3.357-8.393,8.393v159.475c0,5.036,3.357,8.393,8.393,8.393h7.772
				c-4.972,10.096-7.772,21.482-7.772,33.574c0,41.967,33.574,75.541,75.541,75.541s75.541-33.574,75.541-75.541
				c0-12.091-2.8-23.478-7.772-33.574h24.559v25.18v33.574c0,5.036,3.357,8.393,8.393,8.393h50.361c5.036,0,8.393-3.357,8.393-8.393
				V418.79v-32.734c4.197-71.344,62.951-126.741,134.295-126.741c44.485,0,85.613,21.823,110.793,57.915
				c1.679,3.357,5.875,4.197,9.233,3.357c3.357-0.839,5.875-4.197,5.875-7.554C503.446,287.852,503.446,209.793,477.426,194.685z
				 M15.787,169.505c0-1.679,0.839-2.518,2.518-2.518H63.63c1.679,0,2.518,0.839,2.518,2.518v11.751
				c0,1.679-0.839,2.518-2.518,2.518h-5.875H24.18h-5.875c-1.679,0-2.518-0.839-2.518-2.518V169.505z M32.574,200.561h16.787v16.787
				H32.574V200.561z M82.934,485.938c-32.734,0-58.754-26.02-58.754-58.754c0-13.289,4.289-25.472,11.574-35.256
				c0.201-0.208,0.382-0.44,0.543-0.695c1.321-1.719,2.737-3.36,4.238-4.919c11.435-11.103,26.572-17.885,42.399-17.885
				c17.626,0,34.413,8.393,45.325,21.823c0.632,0.948,1.384,1.658,2.209,2.175c7.065,9.699,11.22,21.689,11.22,34.756
				C141.689,459.918,115.669,485.938,82.934,485.938z M225.623,410.397h-33.574V393.61h33.574V410.397z M225.623,443.971h-33.574
				v-16.787h33.574V443.971z M376.705,242.528c-77.22,0-141.849,58.754-150.243,134.295h-42.807h-44.26
				c-12.088-13.562-29.028-22.68-48.206-24.731c-0.062-0.007-0.123-0.017-0.185-0.023c-1.161-0.121-2.332-0.21-3.509-0.279
				c-0.179-0.011-0.356-0.031-0.535-0.04c-1.333-0.069-2.675-0.106-4.027-0.106s-2.693,0.038-4.027,0.106
				c-0.179,0.009-0.356,0.03-0.535,0.04c-1.177,0.069-2.348,0.158-3.509,0.279c-0.062,0.007-0.123,0.017-0.185,0.023
				c-19.178,2.051-36.118,11.169-48.206,24.731H15.787v-41.967h25.18c5.036,0,8.393-3.357,8.393-8.393
				c0-5.036-3.357-8.393-8.393-8.393h-25.18v-16.787h50.361c5.036,0,8.393-3.357,8.393-8.393c0-5.036-3.357-8.393-8.393-8.393
				H15.787v-16.787h25.18c5.036,0,8.393-3.357,8.393-8.393c0-5.036-3.357-8.393-8.393-8.393h-25.18v-16.787h8.393h33.574h50.361
				c5.036,0,8.393-3.357,8.393-8.393v-67.148c0-25.18,18.466-45.325,41.967-49.521v16.787c-14.269,4.197-25.18,16.787-25.18,32.734
				v67.148c0,5.036,3.357,8.393,8.393,8.393h75.541c5.036,0,8.393-3.357,8.393-8.393V32.692c0-1.679-0.839-3.357-0.839-5.036
				l-8.393-11.751h254.321l-8.393,11.751c-0.839,1.679-1.679,3.357-1.679,5.036v167.869c0,4.197,3.357,8.393,7.554,8.393
				c9.233,0.839,16.787,36.931,17.626,80.577C457.282,259.315,418.672,242.528,376.705,242.528z"/>
		</g>
	</g>
</g>
<g>
</g>
<g>
</g>
<g>
</g>
<g>
</g>
<g>
</g>
<g>
</g>
<g>
</g>
<g>
</g>
<g>
</g>
<g>
</g>
<g>
</g>
<g>
</g>
<g>
</g>
<g>
</g>
<g>
</g>
</svg>
