<?xml version="1.0" encoding="iso-8859-1"?>
<!-- Generator: Adobe Illustrator 19.0.0, SVG Export Plug-In . SVG Version: 6.00 Build 0)  -->
<svg version="1.1" id="Layer_1" xmlns="http://www.w3.org/2000/svg" xmlns:xlink="http://www.w3.org/1999/xlink" x="0px" y="0px"
	 viewBox="0 0 512.67 512.67" style="enable-background:new 0 0 512.67 512.67;" xml:space="preserve">
<g transform="translate(1 1)">
	<g>
		<g>
			<path d="M426.336,340.668c-18.773,0-34.133,15.36-34.133,34.133s15.36,34.133,34.133,34.133s34.133-15.36,34.133-34.133
				S445.11,340.668,426.336,340.668z M426.336,391.868c-9.387,0-17.067-7.68-17.067-17.067s7.68-17.067,17.067-17.067
				s17.067,7.68,17.067,17.067S435.723,391.868,426.336,391.868z"/>
			<path d="M221.536,315.068c-23.893,0-42.667,18.773-42.667,42.667c0,23.893,18.773,42.667,42.667,42.667
				c23.893,0,42.667-18.773,42.667-42.667C264.203,333.841,245.43,315.068,221.536,315.068z M221.536,383.335
				c-14.507,0-25.6-11.093-25.6-25.6c0-14.507,11.093-25.6,25.6-25.6c14.507,0,25.6,11.093,25.6,25.6
				C247.136,372.241,236.043,383.335,221.536,383.335z"/>
			<path d="M238.603,144.401c0-5.12-3.413-8.533-8.533-8.533h-68.267c-2.56,0-5.12,0.853-6.827,2.56s-1.707,4.267-1.707,6.827
				l8.533,59.733c0.853,4.267,4.267,7.68,8.533,7.68h59.733c5.12,0,8.533-3.413,8.533-8.533V144.401z M221.536,195.601h-43.52
				l-5.973-42.667h49.493V195.601z"/>
			<path d="M298.336,229.735c0-5.12-3.413-8.533-8.533-8.533h-42.667c-5.12,0-8.533,3.413-8.533,8.533s3.413,8.533,8.533,8.533
				h42.667C294.923,238.268,298.336,234.855,298.336,229.735z"/>
			<path d="M315.403,263.868c0-5.12-3.413-8.533-8.533-8.533h-25.6c-5.12,0-8.533,3.413-8.533,8.533s3.413,8.533,8.533,8.533h25.6
				C311.99,272.401,315.403,268.988,315.403,263.868z"/>
			<path d="M332.47,280.935h-25.6c-5.12,0-8.533,3.413-8.533,8.533s3.413,8.533,8.533,8.533h25.6c5.12,0,8.533-3.413,8.533-8.533
				S337.59,280.935,332.47,280.935z"/>
			<path d="M467.296,190.481c-1.707-1.707-4.267-3.413-6.827-3.413H336.167l14.222-42.667h94.72l26.453,23.04
				c3.413,3.413,8.533,3.413,11.947,0l25.6-25.6c1.707-1.707,2.56-4.267,2.56-6.827c0-1.707-1.707-4.267-3.413-5.973L465.59,94.908
				c-1.707-0.853-3.413-1.707-5.12-1.707H323.936c-3.413,0-5.973,1.707-7.68,4.267l-40.727,89.6h-2.793v-74.24l16.213-32.427
				c1.707-2.56,1.707-5.973,0-8.533s-5.12-4.267-7.68-4.267H76.47c-3.413,0-6.827,2.56-7.68,5.973
				c-1.707,3.413-0.853,6.827,2.56,9.387l39.722,31.777l16.598,97.929l-6.345,53.1L94.39,283.218v-5.697
				c0-3.413-2.56-5.973-5.12-7.68l-34.133-17.067c-2.56-0.853-5.12-0.853-7.68,0l-34.133,17.067c-3.413,1.707-5.12,4.267-5.12,7.68
				v42.667c0,2.56,1.707,5.973,4.267,7.68l6.801,4.019L3.083,342.375c-3.413,1.707-5.12,5.973-3.413,9.387
				c1.707,3.413,5.12,5.973,8.533,5.973h110.933h17.067v11.947c0,5.12,3.413,8.533,8.533,8.533
				c1.707,6.827,4.267,13.653,7.68,19.627c-3.413,3.413-3.413,8.533,0,11.947l17.067,17.067c3.413,3.413,8.533,3.413,11.947,0
				c5.973,3.413,12.8,5.973,19.627,7.68c0,5.12,3.413,8.533,8.533,8.533h23.893c4.267,0,8.533-3.413,8.533-8.533
				c6.827-1.707,13.653-4.267,19.627-7.68c3.413,3.413,8.533,3.413,11.947,0l17.067-17.067c3.413-3.413,3.413-8.533,0-11.947
				c3.413-5.973,5.973-12.8,7.68-19.627c5.12,0,8.533-3.413,8.533-8.533v-11.947h53.375c-1.419,5.46-2.175,11.179-2.175,17.067
				c0,37.547,30.72,68.267,68.267,68.267s68.267-30.72,68.267-68.267c0-5.888-0.757-11.607-2.175-17.067h10.709
				c5.12,0,8.533-3.413,8.533-8.533v-93.867c0-1.707-0.853-3.413-1.707-5.12L467.296,190.481z M25.27,282.641l25.6-12.8l25.6,12.8
				v11.947l-40.96,26.453l-10.24-5.973V282.641z M329.056,110.268h128l33.28,26.453l-12.8,12.8l-23.893-20.48
				c-1.707-0.853-4.267-1.707-5.973-1.707H343.563c-3.413,0-6.827,2.56-7.68,5.973l-17.92,53.76h-23.04L329.056,110.268z
				 M267.616,84.668l-8.533,17.067H122.55l-21.333-17.067H267.616z M118.283,288.615l-6.827,52.053h-74.24L118.283,288.615z
				 M288.949,362.001c-3.413,0.853-5.973,3.413-6.827,6.827c-0.853,9.387-5.12,17.92-10.24,25.6c-1.707,2.56-1.707,6.827,0,9.387
				l-5.12,5.12c-2.56-1.707-6.827-1.707-9.387,0c-7.68,5.12-16.213,8.533-25.6,10.24c-3.413,0.853-5.973,3.413-6.827,6.827h-6.827
				c-0.853-3.413-3.413-5.973-6.827-6.827c-9.387-0.853-17.92-5.12-25.6-10.24c-2.56-1.707-6.827-1.707-9.387,0l-5.12-5.12
				c1.707-2.56,1.707-6.827,0-9.387c-5.12-7.68-8.533-16.213-10.24-25.6c-0.853-3.413-3.413-5.973-6.827-6.827v-6.827
				c1.661-0.415,3.115-1.241,4.273-2.366c1.711-1.173,2.942-2.987,3.407-5.314c0.853-9.387,5.12-17.92,10.24-25.6
				c1.707-2.56,1.707-6.827,0-9.387l4.267-4.267c2.56,1.707,6.827,1.707,9.387,0c7.68-5.12,16.213-8.533,25.6-10.24
				c1.914-0.478,3.544-1.508,4.771-2.909c1.186-1.038,2.093-2.37,2.635-3.918h6.248c0.853,3.413,3.413,5.973,6.827,6.827
				c9.387,0.853,17.92,5.12,25.6,10.24c2.56,1.707,6.827,1.707,9.387,0l5.12,5.12c-1.707,2.56-1.707,6.827,0,9.387
				c5.12,7.68,8.533,16.213,10.24,25.6c0.853,3.413,3.413,5.973,6.827,6.827V362.001z M426.336,426.001
				c-28.16,0-51.2-23.04-51.2-51.2c0-7.881,1.807-15.36,5.024-22.047c0.032-0.047,0.065-0.093,0.096-0.14
				c0.45-0.944,0.931-1.865,1.432-2.771c7.979-14.177,22.504-24.235,39.407-25.974c0.037-0.004,0.074-0.006,0.111-0.01
				c0.729-0.073,1.463-0.127,2.2-0.169c0.189-0.011,0.379-0.021,0.569-0.03c0.783-0.036,1.569-0.06,2.361-0.06c0,0,0,0,0,0
				c0.792,0,1.578,0.024,2.361,0.06c0.19,0.009,0.38,0.019,0.569,0.03c0.737,0.042,1.471,0.095,2.199,0.169
				c0.037,0.004,0.075,0.006,0.112,0.01c16.903,1.739,31.427,11.795,39.406,25.972c0.501,0.906,0.983,1.828,1.433,2.773
				c0.052,0.104,0.112,0.191,0.165,0.292c3.172,6.648,4.955,14.072,4.955,21.895C477.536,402.961,454.496,426.001,426.336,426.001z
				 M494.603,340.668h-9.23c-11.069-19.02-31.049-32.271-54.12-33.935c-0.224-0.017-0.447-0.036-0.671-0.051
				c-0.46-0.029-0.921-0.054-1.383-0.073c-0.953-0.043-1.907-0.073-2.863-0.073s-1.91,0.03-2.863,0.073
				c-0.462,0.019-0.923,0.045-1.383,0.073c-0.224,0.015-0.447,0.034-0.671,0.051c-23.071,1.664-43.05,14.916-54.12,33.935h-61.902
				c-1.467-2.144-3.945-3.413-7.061-3.413c-1.707-6.827-4.267-13.653-7.68-19.627c3.413-3.413,3.413-8.533,0-11.947l-17.067-17.067
				c-1.707-1.707-3.84-2.56-5.973-2.56c-0.533,0-1.067,0.053-1.593,0.16c-1.58,0.32-3.1,1.12-4.38,2.4
				c-5.973-3.413-12.8-5.973-19.627-7.68c0-0.64-0.053-1.253-0.157-1.837c-0.103-0.583-0.257-1.137-0.457-1.657
				c-0.3-0.78-0.705-1.485-1.204-2.104c-1.496-1.856-3.836-2.936-6.716-2.936H209.59c-2.56,0-4.693,0.853-6.187,2.347
				s-2.347,3.627-2.347,6.187c-2.874,0.719-5.744,1.598-8.555,2.619c-1.822,0.662-3.614,1.388-5.365,2.177
				c-1.964,0.885-3.878,1.84-5.707,2.884c-1.707-1.707-3.413-2.56-5.973-2.56s-4.267,0.853-5.973,2.56l-17.067,17.067
				c-3.413,3.413-3.413,8.533,0,11.947c-3.413,5.973-5.973,12.8-7.68,19.627h0c-3.116,0-5.594,1.27-7.061,3.413h-8.768l9.002-68.267
				c0-0.896-0.124-1.789-0.343-2.654l7.17-56.226c0-0.853,0-1.707,0-2.56l-15.36-92.16H255.67v76.8c0,5.12,3.413,8.533,8.533,8.533
				h17.067h42.667h132.267l38.4,53.76V340.668z"/>
		</g>
	</g>
</g>
<g>
</g>
<g>
</g>
<g>
</g>
<g>
</g>
<g>
</g>
<g>
</g>
<g>
</g>
<g>
</g>
<g>
</g>
<g>
</g>
<g>
</g>
<g>
</g>
<g>
</g>
<g>
</g>
<g>
</g>
</svg>
