<?xml version="1.0" encoding="iso-8859-1"?>
<!-- Generator: Adobe Illustrator 19.0.0, SVG Export Plug-In . SVG Version: 6.00 Build 0)  -->
<svg version="1.1" id="Layer_1" xmlns="http://www.w3.org/2000/svg" xmlns:xlink="http://www.w3.org/1999/xlink" x="0px" y="0px"
	 viewBox="0 0 512 512" style="enable-background:new 0 0 512 512;" xml:space="preserve">
<g transform="translate(1 1)">
	<g>
		<g>
			<path d="M365.933,220.867c14.507,0,25.6-11.093,25.6-25.6V58.733c0-14.507-11.093-25.6-25.6-25.6H144.067
				c-14.507,0-25.6,11.093-25.6,25.6v136.533c0,14.507,11.093,25.6,25.6,25.6H365.933z M135.533,195.267V58.733
				c0-5.12,3.413-8.533,8.533-8.533h221.867c5.12,0,8.533,3.413,8.533,8.533v136.533c0,5.12-3.413,8.533-8.533,8.533h-81.92
				l18.167-18.167c1.239-0.689,2.231-1.681,2.92-2.92l41.207-41.207c3.413-3.413,3.413-8.533,0-11.947s-8.533-3.413-11.947,0
				l-28.16,28.16v-13.653c0-5.12-3.413-8.533-8.533-8.533s-8.533,3.413-8.533,8.533v30.72L260.12,203.8h-78.507l18.167-18.167
				c1.239-0.689,2.231-1.681,2.92-2.92l41.207-41.207c3.413-3.413,3.413-8.533,0-11.947s-8.533-3.413-11.947,0l-28.16,28.16v-13.653
				c0-5.12-3.413-8.533-8.533-8.533s-8.533,3.413-8.533,8.533v30.72L157.72,203.8h-13.653
				C138.947,203.8,135.533,200.387,135.533,195.267z"/>
			<path d="M203.8,340.333c18.773,0,34.133-15.36,34.133-34.133s-15.36-34.133-34.133-34.133c-18.773,0-34.133,15.36-34.133,34.133
				S185.027,340.333,203.8,340.333z M203.8,289.133c9.387,0,17.067,7.68,17.067,17.067s-7.68,17.067-17.067,17.067
				c-9.387,0-17.067-7.68-17.067-17.067S194.413,289.133,203.8,289.133z"/>
			<path d="M306.2,272.067c-18.773,0-34.133,15.36-34.133,34.133s15.36,34.133,34.133,34.133s34.133-15.36,34.133-34.133
				S324.973,272.067,306.2,272.067z M306.2,323.267c-9.387,0-17.067-7.68-17.067-17.067s7.68-17.067,17.067-17.067
				s17.067,7.68,17.067,17.067S315.587,323.267,306.2,323.267z"/>
			<path d="M323.267,357.4h-34.133H255h-34.133h-34.133c-5.12,0-8.533,3.413-8.533,8.533v51.2c0,5.12,3.413,8.533,8.533,8.533
				h34.133H255h34.133h34.133c5.12,0,8.533-3.413,8.533-8.533v-51.2C331.8,360.813,328.387,357.4,323.267,357.4z M195.267,374.467
				h17.067V408.6h-17.067V374.467z M229.4,374.467h17.067V408.6H229.4V374.467z M263.533,374.467H280.6V408.6h-17.067V374.467z
				 M314.733,408.6h-17.067v-34.133h17.067V408.6z"/>
			<path d="M493.933,255c9.387,0,17.067-7.68,17.067-17.067v-17.067c0-9.387-7.68-17.067-17.067-17.067H459.8
				c-9.387,0-17.067,7.68-17.067,17.067v17.067c0,9.387,7.68,17.067,17.067,17.067h8.533v17.067h-68.267
				c-5.12,0-8.533,3.413-8.533,8.533v13.653l-17.067,17.067V255h42.667c4.267,0,8.533-3.413,8.533-7.68L442.733,8.387
				c0-2.56-0.853-5.12-2.56-6.827C438.467-0.147,436.76-1,434.2-1H75.8c-2.56,0-4.267,0.853-5.973,2.56
				c-1.707,2.56-2.56,4.267-2.56,6.827L84.333,247.32c0,4.267,4.267,7.68,8.533,7.68h42.667v56.32l-17.067-17.067V280.6
				c0-5.12-3.413-8.533-8.533-8.533H41.667V255H50.2c9.387,0,17.067-7.68,17.067-17.067v-17.067c0-9.387-7.68-17.067-17.067-17.067
				H16.067C6.68,203.8-1,211.48-1,220.867v17.067C-1,247.32,6.68,255,16.067,255H24.6v17.067H7.533C2.413,272.067-1,275.48-1,280.6
				v34.133c0,5.12,3.413,8.533,8.533,8.533h102.4c4.047,0,7.02-2.139,8.092-5.562l17.508,17.508v64.853H101.4V383
				c0-0.63-0.018-1.26-0.046-1.89c-0.013-0.314-0.033-0.625-0.053-0.936c-0.016-0.234-0.032-0.467-0.052-0.7
				c-0.571-7.267-2.893-13.969-6.558-19.701c-0.122-0.199-0.251-0.395-0.377-0.593c-0.043-0.064-0.082-0.131-0.125-0.195
				c-0.156-0.244-0.307-0.489-0.469-0.731c-0.226-0.452-0.578-0.902-1.012-1.323c-7.738-10.145-19.974-16.597-33.974-16.597H41.667
				c-14.529,0-27.155,6.949-34.828,17.762c-0.053,0.053-0.106,0.105-0.159,0.158c-0.161,0.242-0.313,0.487-0.469,0.731
				c-0.043,0.064-0.083,0.131-0.125,0.195c-0.125,0.198-0.255,0.394-0.377,0.593c-3.665,5.732-5.987,12.434-6.558,19.701
				c-0.019,0.233-0.036,0.467-0.052,0.7c-0.02,0.312-0.04,0.623-0.053,0.936C-0.982,381.74-1,382.37-1,383v17.067v42.667v25.6
				C-1,492.227,17.773,511,41.667,511h17.067c23.893,0,42.667-18.773,42.667-42.667v-17.067h34.133v25.6
				c0,5.12,3.413,8.533,8.533,8.533H229.4v17.067c0,5.12,3.413,8.533,8.533,8.533h34.133c5.12,0,8.533-3.413,8.533-8.533V485.4
				h85.333c5.12,0,8.533-3.413,8.533-8.533v-25.6H408.6v17.067c0,23.893,18.773,42.667,42.667,42.667h17.067
				C492.227,511,511,492.227,511,468.333v-25.6v-42.667V383c0-0.63-0.018-1.26-0.046-1.89c-0.013-0.314-0.033-0.625-0.053-0.936
				c-0.016-0.234-0.032-0.467-0.052-0.7c-0.571-7.267-2.893-13.968-6.557-19.7c-0.125-0.203-0.257-0.403-0.385-0.605
				c-0.04-0.06-0.077-0.123-0.118-0.183c-0.156-0.244-0.308-0.49-0.469-0.732c-0.226-0.452-0.578-0.902-1.013-1.323
				c-7.738-10.145-19.973-16.597-33.974-16.597h-17.067c-14.529,0-27.155,6.949-34.828,17.762c-0.053,0.053-0.106,0.105-0.159,0.158
				c-0.161,0.242-0.313,0.487-0.469,0.731c-0.043,0.064-0.083,0.131-0.125,0.195c-0.125,0.198-0.255,0.394-0.377,0.593
				c-3.665,5.732-5.987,12.434-6.558,19.701c-0.019,0.233-0.036,0.467-0.052,0.7c-0.02,0.312-0.04,0.623-0.053,0.936
				c-0.028,0.63-0.046,1.26-0.046,1.89v17.067h-34.133v-64.853l17.508-17.508c1.071,3.423,4.044,5.562,8.092,5.562h102.4
				c5.12,0,8.533-3.413,8.533-8.533V280.6c0-5.12-3.413-8.533-8.533-8.533H485.4V255H493.933z M16.067,220.867H50.2v17.067H16.067
				V220.867z M101.4,306.2H16.067v-17.067H101.4V306.2z M85.187,16.067h339.627L408.6,237.933h-42.667H144.067h-43.52L85.187,16.067
				z M84.333,439.32l-20.48,20.48H36.547l-20.48-20.48v-18.773L27.16,431.64c1.707,1.707,3.413,2.56,5.973,2.56h34.133
				c2.56,0,4.267-0.853,5.973-2.56l11.093-11.093V439.32z M27.16,388.973c1.707,1.707,3.413,2.56,5.973,2.56h34.133
				c2.56,0,4.267-0.853,6.827-2.56l9.954-9.954c0.188,1.293,0.286,2.622,0.286,3.981v13.653l-20.48,20.48H36.547l-20.48-20.48V383
				c0-1.366,0.099-2.701,0.289-4L27.16,388.973z M58.733,357.4c6.353,0,12.051,2.128,16.449,5.737l-11.329,11.329H36.547
				l-11.329-11.329c4.399-3.61,10.096-5.737,16.449-5.737H58.733z M58.733,493.933H41.667c-14.507,0-25.6-11.093-25.6-25.6v-5.12
				l11.093,11.093c1.707,1.707,3.413,2.56,5.973,2.56h34.133c2.56,0,4.267-0.853,5.973-2.56l11.093-11.093v5.12
				C84.333,482.84,73.24,493.933,58.733,493.933z M101.4,434.2v-17.067h34.133V434.2H101.4z M263.533,493.933h-17.067v-17.067V459.8
				h17.067v17.067V493.933z M357.4,468.333h-76.8v-17.067c0-5.12-3.413-8.533-8.533-8.533h-34.133c-5.12,0-8.533,3.413-8.533,8.533
				v17.067h-76.8v-25.6V408.6V255h204.8v153.6v34.133V468.333z M436.76,388.973c1.707,1.707,3.413,2.56,5.973,2.56h34.133
				c2.56,0,4.267-0.853,6.827-2.56l9.954-9.954c0.188,1.293,0.286,2.622,0.286,3.981v13.653l-20.48,20.48h-27.307l-20.48-20.48V383
				c0-1.366,0.099-2.701,0.289-4L436.76,388.973z M436.76,431.64c1.707,1.707,3.413,2.56,5.973,2.56h34.133
				c0.96,0,1.8-0.12,2.565-0.36c1.275-0.4,2.342-1.133,3.408-2.2l11.093-11.093v18.773l-20.48,20.48h-27.307l-20.48-20.48v-18.773
				L436.76,431.64z M468.333,493.933h-17.067c-14.507,0-25.6-11.093-25.6-25.6v-5.12l11.093,11.093
				c1.707,1.707,3.413,2.56,5.973,2.56h34.133c2.56,0,4.267-0.853,5.973-2.56l11.093-11.093v5.12
				C493.933,482.84,482.84,493.933,468.333,493.933z M468.333,357.4c6.353,0,12.051,2.128,16.449,5.737l-11.329,11.329h-27.307
				l-11.329-11.329c4.399-3.61,10.096-5.737,16.449-5.737H468.333z M408.6,417.133V434.2h-34.133v-17.067H408.6z M493.933,306.2
				H408.6v-17.067h85.333V306.2z M459.8,220.867h34.133v17.067H459.8V220.867z"/>
		</g>
	</g>
</g>
<g>
</g>
<g>
</g>
<g>
</g>
<g>
</g>
<g>
</g>
<g>
</g>
<g>
</g>
<g>
</g>
<g>
</g>
<g>
</g>
<g>
</g>
<g>
</g>
<g>
</g>
<g>
</g>
<g>
</g>
</svg>
