<?xml version="1.0" encoding="iso-8859-1"?>
<!-- Generator: Adobe Illustrator 19.0.0, SVG Export Plug-In . SVG Version: 6.00 Build 0)  -->
<svg version="1.1" id="Layer_1" xmlns="http://www.w3.org/2000/svg" xmlns:xlink="http://www.w3.org/1999/xlink" x="0px" y="0px"
	 viewBox="0 0 513.173 513.173" style="enable-background:new 0 0 513.173 513.173;" xml:space="preserve">
<g transform="translate(1 1)">
	<g>
		<g>
			<path d="M511.587,372.579v-53.504c0.82-2.034,0.77-4.381-0.149-6.608c-1.349-13.082-11.911-22.747-25.451-22.747H417.72
				c-13.126,0-23.456,9.083-25.304,21.557c-1.058,2.325-1.158,4.807-0.296,6.944v53.505c-0.404,1.103-0.598,2.229-0.58,3.328
				h-33.553v-102.4h128c5.12,0,8.533-3.413,8.533-8.533v-59.733c0-29.013-23.04-51.2-53.76-51.2h-5.973V93.453
				c0-9.387,7.68-17.067,17.067-17.067c5.12,0,8.533-3.413,8.533-8.533V33.72c0-5.12-3.413-8.533-8.533-8.533
				c-37.547,0-68.267,30.72-68.267,68.267v59.733h-25.6v-128c0-14.507-11.093-25.6-25.6-25.6h-153.6
				c-14.507,0-25.6,11.093-25.6,25.6v128h-25.6V93.453c0-37.547-30.72-68.267-68.267-68.267c-5.12,0-8.533,3.413-8.533,8.533v34.133
				c0,5.12,3.413,8.533,8.533,8.533c9.387,0,17.067,7.68,17.067,17.067v59.733h-5.973c-30.72,0-53.76,22.187-53.76,51.2v59.733
				c0,5.12,3.413,8.533,8.533,8.533h128v102.4h-33.581c-0.067-0.824-0.252-1.655-0.552-2.474v-53.504
				c0.82-2.034,0.77-4.381-0.149-6.607c-1.349-13.082-11.911-22.747-25.451-22.747H25.187c-13.126,0-23.456,9.082-25.304,21.557
				c-1.058,2.325-1.158,4.807-0.296,6.944v53.504c-0.774,2.113-0.774,4.31,0,6.229v53.504c-0.774,2.113-0.774,4.31,0,6.229v48.299
				c0,14.507,11.093,25.6,25.6,25.6h68.267c14.507,0,25.6-11.093,25.6-25.6v-47.446c0.774-1.919,0.774-4.116,0-6.229v-6.059h34.133
				v25.6c0,1.707,0,2.56,0.853,3.413l20.48,40.107c5.12,10.24,14.507,16.213,25.6,16.213h110.933c11.093,0,21.333-5.973,25.6-16.213
				l20.48-40.107c0.853-0.853,0.853-1.707,0.853-3.413v-25.6h34.133v5.206c-0.774,2.112-0.774,4.31,0,6.229v48.299
				c0,14.507,11.093,25.6,25.6,25.6h68.267c14.507,0,25.6-11.093,25.6-25.6v-47.445c0.774-1.919,0.774-4.117,0-6.229v-53.504
				C512.361,376.889,512.361,374.691,511.587,372.579z M452.493,458.822l-43.307-28.871v-3.698v-35.271l37.547,25.031
				c0.704,0.352,1.407,0.7,2.111,0.992c0.53,0.238,1.075,0.419,1.628,0.541c0.053,0.012,0.107,0.025,0.16,0.036
				c0.146,0.029,0.291,0.055,0.437,0.074c0.261,0.037,0.523,0.063,0.784,0.063c0.288,0,0.577-0.03,0.865-0.071
				c0.055-0.008,0.11-0.015,0.165-0.025c1.363-0.219,2.727-0.758,4.09-0.758l37.547-25.031v38.969L452.493,458.822z M446.733,356.28
				c0.704,0.352,1.407,0.7,2.111,0.992c0.53,0.238,1.075,0.419,1.628,0.541c0.053,0.012,0.107,0.025,0.16,0.036
				c0.146,0.029,0.291,0.055,0.437,0.074c0.261,0.037,0.523,0.063,0.784,0.063c0.288,0,0.577-0.03,0.865-0.071
				c0.055-0.008,0.11-0.015,0.165-0.025c1.363-0.219,2.727-0.758,4.09-0.758l37.547-25.031v38.969l-42.027,28.018l-43.307-28.871
				v-38.969L446.733,356.28z M417.72,306.787h68.267c3.814,0,6.678,1.896,7.893,4.978l-41.386,27.591l-42.374-28.249
				C411.466,308.414,414.186,306.787,417.72,306.787z M59.96,399.089l-43.307-28.871v-38.969L54.2,356.28
				c0.704,0.352,1.407,0.7,2.111,0.992c0.53,0.238,1.075,0.419,1.628,0.541c0.053,0.012,0.106,0.025,0.16,0.036
				c0.146,0.029,0.291,0.055,0.437,0.074c0.261,0.037,0.523,0.063,0.784,0.063c0.288,0,0.577-0.03,0.865-0.071
				c0.055-0.008,0.11-0.015,0.165-0.025c1.363-0.219,2.727-0.758,4.09-0.758l37.547-25.031v38.969L59.96,399.089z M25.187,306.787
				h68.267c3.814,0,6.678,1.896,7.893,4.978L59.96,339.356l-42.374-28.249C18.932,308.414,21.652,306.787,25.187,306.787z
				 M93.453,494.52H25.187c-5.12,0-8.533-3.413-8.533-8.533v-35.271L54.2,475.747c0.704,0.352,1.407,0.7,2.111,0.992
				c0.53,0.238,1.075,0.419,1.628,0.541c0.053,0.012,0.106,0.025,0.16,0.036c0.146,0.029,0.291,0.055,0.437,0.074
				c0.261,0.037,0.523,0.063,0.784,0.063c0.288,0,0.577-0.03,0.865-0.071c0.055-0.008,0.11-0.015,0.165-0.025
				c1.363-0.219,2.727-0.758,4.09-0.758l37.547-25.031v34.418C101.987,491.107,98.573,494.52,93.453,494.52z M101.987,430.804
				L59.96,458.822l-43.307-28.871v-38.969L54.2,416.013c0.704,0.352,1.407,0.7,2.111,0.992c0.53,0.238,1.075,0.419,1.628,0.541
				c0.053,0.012,0.106,0.025,0.16,0.036c0.146,0.029,0.291,0.055,0.437,0.074c0.261,0.037,0.523,0.063,0.784,0.063
				c0.288,0,0.577-0.03,0.865-0.071c0.055-0.008,0.11-0.015,0.165-0.025c1.363-0.219,2.727-0.758,4.09-0.758l37.547-25.031v34.418
				V430.804z M119.053,409.187V392.12h34.133v17.067H119.053z M340.067,450.147l-18.773,38.4c-1.707,3.413-5.973,5.973-10.24,5.973
				H199.267c-4.267,0-8.533-1.707-10.24-5.973l-18.773-38.4v-23.893v-51.2V271.8c0-8.533-6.827-16.213-16.213-16.213H33.72v-51.2
				c0-19.627,15.36-34.133,36.693-34.133H84.92c5.12,0,8.533-3.413,8.533-8.533V93.453c0-16.213-11.093-29.867-25.6-33.28V43.107
				c23.893,4.267,42.667,24.747,42.667,50.347v68.267c0,5.12,3.413,8.533,8.533,8.533h34.987c8.533,0,16.213-6.827,16.213-16.213
				V25.187c0-5.12,3.413-8.533,8.533-8.533h153.6c5.12,0,8.533,3.413,8.533,8.533V154.04c0,8.533,6.827,16.213,16.213,16.213h34.987
				c5.12,0,8.533-3.413,8.533-8.533V93.453c0-25.6,18.773-46.08,42.667-50.347v17.067c-14.507,4.267-25.6,17.067-25.6,33.28v68.267
				c0,5.12,3.413,8.533,8.533,8.533h14.507c21.333,0,36.693,14.507,36.693,34.133v51.2H356.28c-8.533,0-16.213,6.827-16.213,16.213
				V450.147z M357.987,409.187V392.12h34.133v17.067H357.987z M485.987,494.52H417.72c-5.12,0-8.533-3.413-8.533-8.533v-35.271
				l37.547,25.031c0.704,0.352,1.407,0.7,2.111,0.992c0.53,0.238,1.075,0.419,1.628,0.541c0.053,0.012,0.107,0.025,0.16,0.036
				c0.146,0.029,0.291,0.055,0.437,0.074c0.261,0.037,0.523,0.063,0.784,0.063c0.288,0,0.577-0.03,0.865-0.071
				c0.055-0.008,0.11-0.015,0.165-0.025c1.363-0.219,2.727-0.758,4.09-0.758l37.547-25.031v34.418
				C494.52,491.107,491.107,494.52,485.987,494.52z"/>
			<path d="M204.387,178.787h102.4c5.12,0,8.533-3.413,8.533-8.533V50.787c0-5.12-3.413-8.533-8.533-8.533h-102.4
				c-5.12,0-8.533,3.413-8.533,8.533v119.467C195.853,175.373,199.267,178.787,204.387,178.787z M212.92,59.32h85.333v102.4H212.92
				V59.32z"/>
			<path d="M221.453,229.987V212.92c0-9.387-7.68-17.067-17.067-17.067H187.32c-9.387,0-17.067,7.68-17.067,17.067v17.067
				c0,9.387,7.68,17.067,17.067,17.067h17.067C213.773,247.053,221.453,239.373,221.453,229.987z M187.32,212.92h17.067v17.067
				H187.32V212.92z"/>
			<path d="M323.853,195.853h-17.067c-9.387,0-17.067,7.68-17.067,17.067v17.067c0,9.387,7.68,17.067,17.067,17.067h17.067
				c9.387,0,17.067-7.68,17.067-17.067V212.92C340.92,203.533,333.24,195.853,323.853,195.853z M323.853,229.987h-17.067V212.92
				h17.067V229.987z"/>
			<path d="M306.787,272.653h-102.4c-5.12,0-8.533,3.413-8.533,8.533v170.667c0,1.707,0,2.56,0.853,3.413l8.533,17.067
				c1.707,3.413,4.267,5.12,7.68,5.12h85.333c3.413,0,5.973-1.707,7.68-5.12l8.533-17.067c0.853-0.853,0.853-1.707,0.853-3.413
				V281.187C315.32,276.067,311.907,272.653,306.787,272.653z M264.12,289.72v170.667h-17.067V289.72H264.12z M212.92,450.147
				V289.72h17.067v170.667H218.04L212.92,450.147z M298.253,450.147l-5.12,10.24h-11.947V289.72h17.067V450.147z"/>
			<path d="M110.52,187.32H76.387c-14.507,0-25.6,11.093-25.6,25.6v17.067c0,5.12,3.413,8.533,8.533,8.533h51.2
				c5.12,0,8.533-3.413,8.533-8.533v-34.133C119.053,190.733,115.64,187.32,110.52,187.32z M101.987,221.453H67.853v-8.533
				c0-5.12,3.413-8.533,8.533-8.533h25.6V221.453z"/>
			<path d="M400.653,238.52h51.2c5.12,0,8.533-3.413,8.533-8.533V212.92c0-14.507-11.093-25.6-25.6-25.6h-34.133
				c-5.12,0-8.533,3.413-8.533,8.533v34.133C392.12,235.107,395.533,238.52,400.653,238.52z M409.187,204.387h25.6
				c5.12,0,8.533,3.413,8.533,8.533v8.533h-34.133V204.387z"/>
		</g>
	</g>
</g>
<g>
</g>
<g>
</g>
<g>
</g>
<g>
</g>
<g>
</g>
<g>
</g>
<g>
</g>
<g>
</g>
<g>
</g>
<g>
</g>
<g>
</g>
<g>
</g>
<g>
</g>
<g>
</g>
<g>
</g>
</svg>
