<?xml version="1.0" encoding="iso-8859-1"?>
<!-- Generator: Adobe Illustrator 19.0.0, SVG Export Plug-In . SVG Version: 6.00 Build 0)  -->
<svg version="1.1" id="Layer_1" xmlns="http://www.w3.org/2000/svg" xmlns:xlink="http://www.w3.org/1999/xlink" x="0px" y="0px"
	 viewBox="0 0 512 512" style="enable-background:new 0 0 512 512;" xml:space="preserve">
<g transform="translate(1 1)">
	<g>
		<g>
			<path d="M220.867,272.067h-34.133c-9.387,0-17.067,7.68-17.067,17.067v34.133c0,9.387,7.68,17.067,17.067,17.067h34.133
				c9.387,0,17.067-7.68,17.067-17.067v-34.133C237.933,279.747,230.253,272.067,220.867,272.067z M220.867,323.267h-34.133v-34.133
				h34.133V323.267z"/>
			<path d="M323.267,272.067h-34.133c-9.387,0-17.067,7.68-17.067,17.067v34.133c0,9.387,7.68,17.067,17.067,17.067h34.133
				c9.387,0,17.067-7.68,17.067-17.067v-34.133C340.333,279.747,332.653,272.067,323.267,272.067z M323.267,323.267h-34.133v-34.133
				h34.133V323.267z"/>
			<path d="M297.667,434.2h-85.333c-5.12,0-8.533,3.413-8.533,8.533s3.413,8.533,8.533,8.533h85.333c5.12,0,8.533-3.413,8.533-8.533
				S302.787,434.2,297.667,434.2z"/>
			<path d="M237.933,417.133h34.133c5.12,0,8.533-3.413,8.533-8.533s-3.413-8.533-8.533-8.533h-34.133
				c-5.12,0-8.533,3.413-8.533,8.533S232.813,417.133,237.933,417.133z"/>
			<path d="M511,425.665V383c0-23.893-18.773-42.667-42.667-42.667h-17.067c-23.893,0-42.667,18.773-42.667,42.667v17.067h-34.133
				v-64.853l17.508-17.508c1.071,3.423,4.044,5.562,8.092,5.562h102.4c5.12,0,8.533-3.413,8.533-8.533V280.6
				c0-5.12-3.413-8.533-8.533-8.533h-102.4c-5.12,0-8.533,3.413-8.533,8.533v13.653l-17.067,17.067V255h51.2
				c5.12,0,8.533-3.413,8.533-8.533v-230.4h17.067c5.12,0,8.533-3.413,8.533-8.533S456.387-1,451.267-1h-25.6H84.333h-25.6
				C53.613-1,50.2,2.413,50.2,7.533s3.413,8.533,8.533,8.533H75.8v230.4c0,5.12,3.413,8.533,8.533,8.533h51.2v56.32l-17.067-17.067
				V280.6c0-5.12-3.413-8.533-8.533-8.533H7.533C2.413,272.067-1,275.48-1,280.6v34.133c0,5.12,3.413,8.533,8.533,8.533h102.4
				c4.047,0,7.02-2.139,8.092-5.562l17.508,17.508v64.853H101.4V383c0-23.893-18.773-42.667-42.667-42.667H41.667
				C17.773,340.333-1,359.107-1,383v85.333C-1,492.227,17.773,511,41.667,511h17.067c23.893,0,42.667-18.773,42.667-42.667v-17.067
				h34.133v25.6c0,5.12,3.413,8.533,8.533,8.533H178.2h153.6h34.133c5.12,0,8.533-3.413,8.533-8.533v-25.6H408.6v17.067
				c0,23.893,18.773,42.667,42.667,42.667h17.067C492.227,511,511,492.227,511,468.333v-42.665C511,425.667,511,425.666,511,425.665
				z M408.6,289.133h85.333V306.2H408.6V289.133z M101.4,306.2H16.067v-17.067H101.4V306.2z M425.667,408.6v-13.653l28.16,28.16
				c1.707,1.707,3.413,2.56,5.973,2.56s4.267-0.853,5.973-2.56l28.16-28.16v27.307L459.8,456.387l-34.133-34.133V408.6z
				 M451.267,357.4h17.067c10.917,0,19.899,6.284,23.677,15.576l-32.21,32.21l-32.21-32.21
				C431.367,363.684,440.349,357.4,451.267,357.4z M92.867,16.067h324.267v221.867h-51.2H144.067h-51.2V16.067z M16.067,394.947
				l28.16,28.16c1.707,1.707,3.413,2.56,5.973,2.56s4.267-0.853,5.973-2.56l28.16-28.16V408.6v13.653L50.2,456.387l-34.133-34.133
				V394.947z M41.667,357.4h17.067c10.917,0,19.899,6.284,23.677,15.576l-32.21,32.21l-32.21-32.21
				C21.767,363.684,30.749,357.4,41.667,357.4z M58.733,493.933H41.667c-14.507,0-25.6-11.093-25.6-25.6v-22.187l28.16,28.16
				c1.707,1.707,3.413,2.56,5.973,2.56s4.267-0.853,5.973-2.56l28.16-28.16v22.187C84.333,482.84,73.24,493.933,58.733,493.933z
				 M101.4,434.2v-17.067h34.133V434.2H101.4z M186.733,468.333V383h136.533v85.333H186.733z M357.4,468.333h-17.067v-93.867
				c0-5.12-3.413-8.533-8.533-8.533H178.2c-5.12,0-8.533,3.413-8.533,8.533v93.867H152.6v-25.6V408.6V255h204.8v153.6v34.133
				V468.333z M374.467,434.2v-17.067H408.6v8.532c0,0.001,0,0.002,0,0.002v8.532H374.467z M468.333,493.933h-17.067
				c-14.507,0-25.6-11.093-25.6-25.6v-22.187l28.16,28.16c1.707,1.707,3.413,2.56,5.973,2.56s4.267-0.853,5.973-2.56l28.16-28.16
				v22.187C493.933,482.84,482.84,493.933,468.333,493.933z"/>
			<path d="M391.533,220.867c5.12,0,8.533-3.413,8.533-8.533V41.667c0-5.12-3.413-8.533-8.533-8.533H118.467
				c-5.12,0-8.533,3.413-8.533,8.533v170.667c0,5.12,3.413,8.533,8.533,8.533H391.533z M127,50.2h256v153.6h-81.92l18.167-18.167
				c1.239-0.689,2.231-1.681,2.92-2.92l41.207-41.207c3.413-3.413,3.413-8.533,0-11.947c-3.413-3.413-8.533-3.413-11.947,0
				l-28.16,28.16v-13.653c0-5.12-3.413-8.533-8.533-8.533s-8.533,3.413-8.533,8.533v30.72L277.187,203.8H198.68l18.166-18.166
				c1.239-0.689,2.232-1.681,2.92-2.92l41.206-41.206c3.413-3.413,3.413-8.533,0-11.947c-3.413-3.413-8.533-3.413-11.947,0
				l-28.16,28.16v-13.653c0-5.12-3.413-8.533-8.533-8.533c-5.12,0-8.533,3.413-8.533,8.533v30.72L174.787,203.8H127V50.2z"/>
		</g>
	</g>
</g>
<g>
</g>
<g>
</g>
<g>
</g>
<g>
</g>
<g>
</g>
<g>
</g>
<g>
</g>
<g>
</g>
<g>
</g>
<g>
</g>
<g>
</g>
<g>
</g>
<g>
</g>
<g>
</g>
<g>
</g>
</svg>
