<?xml version="1.0" encoding="iso-8859-1"?>
<!-- Generator: Adobe Illustrator 19.0.0, SVG Export Plug-In . SVG Version: 6.00 Build 0)  -->
<svg version="1.1" id="Layer_1" xmlns="http://www.w3.org/2000/svg" xmlns:xlink="http://www.w3.org/1999/xlink" x="0px" y="0px"
	 viewBox="0 0 512 512" style="enable-background:new 0 0 512 512;" xml:space="preserve">
<g transform="translate(1 1)">
	<g>
		<g>
			<path d="M502.467,353.133h-0.853c-1.707-4.267-4.267-9.387-6.827-14.507c3.413-3.413,3.413-8.533,0-11.947l-17.067-17.067
				c-3.413-3.413-8.533-3.413-11.947,0c-5.12-2.56-10.24-5.12-14.507-6.827v-0.853c0-5.12-3.413-8.533-8.533-8.533H408.6
				c-5.12,0-8.533,3.413-8.533,8.533v0.853c-4.267,1.707-9.387,4.267-14.507,6.827c-3.413-3.413-8.533-3.413-11.947,0
				l-17.067,17.067c-3.413,3.413-3.413,8.533,0,11.947c-2.56,5.12-5.12,10.24-6.827,14.507h-0.853c-5.12,0-8.533,3.413-8.533,8.533
				V395.8c0,5.12,3.413,8.533,8.533,8.533h0.853c1.707,4.267,4.267,9.387,6.827,14.507c-3.413,3.413-3.413,8.533,0,11.947
				l17.067,17.067c3.413,3.413,8.533,3.413,11.947,0c5.12,2.56,10.24,5.12,14.507,6.827v0.853c0,5.12,3.413,8.533,8.533,8.533
				h34.133c5.12,0,8.533-3.413,8.533-8.533v-0.853c4.267-1.707,9.387-4.267,14.507-6.827c3.413,3.413,8.533,3.413,11.947,0
				l17.067-17.067c3.413-3.413,3.413-8.533,0-11.947c2.56-5.12,5.12-10.24,6.827-14.507h0.853c5.12,0,8.533-3.413,8.533-8.533
				v-34.133C511,356.547,507.587,353.133,502.467,353.133z M493.933,387.267c-3.413,0.853-5.973,2.56-6.827,5.973
				c-1.707,5.12-5.973,13.653-11.093,21.333c-1.707,2.56-1.707,6.827,0,9.387l-5.12,5.12c-2.56-1.707-6.827-1.707-9.387,0
				c-6.827,5.12-16.213,9.387-21.333,11.093c-3.413,0.853-5.12,3.413-5.973,6.827h-17.067c-0.853-3.413-2.56-5.973-5.973-6.827
				c-5.12-1.707-13.653-5.973-21.333-11.093c-2.56-1.707-6.827-1.707-9.387,0l-5.12-5.12c1.707-2.56,1.707-6.827,0-9.387
				c-5.12-6.827-9.387-16.213-11.093-21.333c-0.853-3.413-3.413-5.12-6.827-5.973V370.2c3.413-0.853,5.973-2.56,6.827-5.973
				c1.707-5.12,5.973-13.653,11.093-21.333c1.707-2.56,1.707-6.827,0-9.387l5.12-5.12c2.56,1.707,6.827,1.707,9.387,0
				c6.827-5.12,16.213-9.387,21.333-11.093c3.413-0.853,5.12-3.413,5.973-6.827H434.2c0.853,3.413,2.56,5.973,5.973,6.827
				c5.12,1.707,13.653,5.973,21.333,11.093c2.56,1.707,6.827,1.707,9.387,0l5.12,5.12c-1.707,2.56-1.707,6.827,0,9.387
				c5.12,6.827,9.387,16.213,11.093,21.333c0.853,3.413,3.413,5.12,6.827,5.973V387.267z"/>
			<path d="M425.667,336.067c-23.893,0-42.667,18.773-42.667,42.667s18.773,42.667,42.667,42.667s42.667-18.773,42.667-42.667
				S449.56,336.067,425.667,336.067z M425.667,404.333c-14.507,0-25.6-11.093-25.6-25.6s11.093-25.6,25.6-25.6
				s25.6,11.093,25.6,25.6S440.173,404.333,425.667,404.333z"/>
			<path d="M324.853,397.152c0.114-0.982,0.121-2.019,0.121-3.059c-0.853-5.12-1.707-10.24-1.707-15.36s0.853-10.24,2.56-15.36
				c0.538-1.613,0.396-3.224-0.208-4.624c2.955-15.679,9.562-30.52,19.834-43.163c15.933-20.089,38.052-33.429,62.704-37.739
				c0.084-0.015,0.169-0.028,0.254-0.042c0.8-0.138,1.604-0.265,2.409-0.384c0.232-0.034,0.464-0.066,0.696-0.098
				c0.667-0.094,1.335-0.18,2.005-0.261c0.297-0.036,0.595-0.07,0.893-0.103c0.613-0.068,1.228-0.129,1.844-0.186
				c0.33-0.03,0.66-0.061,0.991-0.089c0.6-0.05,1.203-0.091,1.805-0.13c0.334-0.022,0.668-0.046,1.003-0.064
				c0.638-0.035,1.278-0.06,1.918-0.083c0.295-0.011,0.589-0.026,0.885-0.034c0.933-0.025,1.868-0.04,2.805-0.04
				c1.038,0,2.079,0.022,3.122,0.053c0.309,0.009,0.618,0.021,0.927,0.034c0.797,0.031,1.595,0.073,2.393,0.123
				c0.285,0.018,0.57,0.031,0.854,0.052c0.947,0.067,1.894,0.15,2.842,0.243c0.469,0.046,0.936,0.099,1.403,0.152
				c0.513,0.057,1.025,0.12,1.538,0.185c0.555,0.071,1.11,0.141,1.663,0.22c0.07,0.01,0.139,0.022,0.209,0.033
				c1.411,0.207,2.817,0.445,4.215,0.709c0.253,0.048,0.506,0.096,0.76,0.146c2,0.394,3.984,0.849,5.953,1.358
				c0.565,0.147,1.129,0.296,1.692,0.453c0.341,0.094,0.683,0.189,1.023,0.287c9.163,2.668,18.009,6.685,26.02,12.166
				c0.663,0.331,1.457,0.66,2.327,0.891c4.937,3.265,9.592,6.957,13.886,11.056c3.413,3.413,8.533,3.413,11.947,0
				c3.413-3.413,3.413-8.533,0-11.947c-4.193-4.031-8.661-7.727-13.356-11.07l15.063-35.863C511,244.76,511,243.053,511,242.2
				V54.467c0-5.12-3.413-8.533-8.533-8.533H263.533c-5.12,0-8.533,3.413-8.533,8.533V88.6V191v8.533h-51.2v-51.2
				c0-5.12-3.413-8.533-8.533-8.533h-8.533v-25.6c0-9.387,7.68-17.067,17.067-17.067c5.12,0,8.533-3.413,8.533-8.533
				s-3.413-8.533-8.533-8.533c-18.773,0-34.133,15.36-34.133,34.133v25.6h-8.533c-5.12,0-8.533,3.413-8.533,8.533v51.2H67.267
				c-23.893,0-42.667,18.773-42.667,42.667v17.067v70.598C8.863,343.891-1,364.342-1,387.267c0,42.667,34.133,76.8,76.8,76.8
				c36.791,0,67.215-25.388,74.903-59.733h158.375c1.58,7.005,3.772,13.833,6.509,20.48c0.853,3.413,4.267,5.12,7.68,5.12
				c0.853,0,2.56,0,3.413-0.853c4.267-1.707,5.973-6.827,4.267-11.093C328.149,411.459,326.122,404.42,324.853,397.152z
				 M272.067,97.133h68.267v85.333h-68.267V97.133z M255,216.6v34.133h-51.2V216.6H255z M169.667,156.867h17.067v51.2v51.2v25.6
				h-17.067v-25.6v-51.2V156.867z M41.667,242.2c0-14.507,11.093-25.6,25.6-25.6H152.6v34.133H41.667V242.2z M41.667,318.147V267.8
				H152.6v25.6c0,5.12,3.413,8.533,8.533,8.533h34.133c5.12,0,8.533-3.413,8.533-8.533v-25.6h59.733c5.12,0,8.533-3.413,8.533-8.533
				v-51.2v-8.533h76.8c5.12,0,8.533-3.413,8.533-8.533V88.6c0-5.12-3.413-8.533-8.533-8.533h-76.8V63h221.867v177.493
				l-13.501,32.064c-7.284-3.746-14.941-6.735-22.834-8.925c-7.574-2.148-15.315-3.469-23.104-4.035
				c-0.149-0.011-0.297-0.022-0.446-0.032c-0.748-0.052-1.497-0.099-2.246-0.136c-0.468-0.024-0.937-0.042-1.406-0.061
				c-0.525-0.02-1.049-0.044-1.574-0.057c-1.051-0.028-2.102-0.045-3.155-0.045c-1.103,0-2.201,0.018-3.297,0.048
				c-0.25,0.007-0.498,0.02-0.748,0.029c-0.874,0.029-1.747,0.066-2.616,0.114c-0.206,0.012-0.411,0.027-0.616,0.039
				c-0.959,0.058-1.915,0.127-2.867,0.209c-0.079,0.007-0.157,0.014-0.236,0.021c-52.299,4.557-95.22,43.182-106.297,93.407H144.92
				c-12.987-25.162-36.785-41.047-64.78-42.54c-0.234-0.013-0.467-0.025-0.701-0.036c-1.206-0.054-2.418-0.091-3.639-0.091
				c-1.314,0-2.627,0.036-3.938,0.098c-0.017,0.001-0.034,0.001-0.051,0.002C61.213,311.074,50.766,313.597,41.667,318.147z
				 M75.8,447c-33.28,0-59.733-26.453-59.733-59.733c0-31.17,23.206-56.349,53.491-59.417c0.059-0.006,0.117-0.012,0.176-0.018
				c0.86-0.085,1.727-0.146,2.598-0.194c0.179-0.01,0.356-0.024,0.535-0.032c0.972-0.046,1.95-0.073,2.934-0.073
				c0.941,0,1.875,0.028,2.804,0.07c0.252,0.011,0.502,0.027,0.753,0.042c0.737,0.042,1.47,0.096,2.199,0.164
				c0.204,0.019,0.409,0.036,0.613,0.057c1.904,0.197,3.779,0.479,5.623,0.847c0.105,0.021,0.209,0.043,0.313,0.065
				c0.888,0.182,1.77,0.381,2.643,0.602c0.039,0.01,0.077,0.019,0.116,0.028c1.876,0.478,3.715,1.044,5.512,1.692
				c0.066,0.024,0.131,0.048,0.196,0.072c0.813,0.297,1.617,0.612,2.413,0.942c0.098,0.041,0.196,0.08,0.294,0.121
				c0.853,0.359,1.696,0.736,2.527,1.133c0.051,0.025,0.101,0.052,0.152,0.076c0.683,0.329,1.356,0.675,2.024,1.029
				c0.403,0.214,0.802,0.435,1.199,0.659c0.255,0.143,0.508,0.288,0.76,0.434c11.163,6.506,20.097,16.685,25.324,29.515
				c0.163,0.653,0.422,1.243,0.754,1.771c2.272,6.355,3.512,13.225,3.512,20.416C135.533,420.547,109.08,447,75.8,447z
				 M306.2,387.267H152.6c0-0.974-0.03-1.92-0.071-2.856c-0.132-3.671-0.52-7.27-1.141-10.786c-0.161-1.119-0.327-2.252-0.494-3.424
				H306.2c0,2.56,0,5.973,0,8.533S306.2,384.707,306.2,387.267z"/>
			<path d="M75.8,353.133c-18.773,0-34.133,15.36-34.133,34.133c0,18.773,15.36,34.133,34.133,34.133
				c18.773,0,34.133-15.36,34.133-34.133C109.933,368.493,94.573,353.133,75.8,353.133z M75.8,404.333
				c-9.387,0-17.067-7.68-17.067-17.067S66.413,370.2,75.8,370.2s17.067,7.68,17.067,17.067S85.187,404.333,75.8,404.333z"/>
			<path d="M383,199.533h85.333c5.12,0,8.533-3.413,8.533-8.533V88.6c0-5.12-3.413-8.533-8.533-8.533H383
				c-5.12,0-8.533,3.413-8.533,8.533V191C374.467,196.12,377.88,199.533,383,199.533z M391.533,97.133H459.8v85.333h-68.267V97.133z
				"/>
			<path d="M272.067,301.933h42.667c5.12,0,8.533-3.413,8.533-8.533c0-5.12-3.413-8.533-8.533-8.533h-42.667
				c-5.12,0-8.533,3.413-8.533,8.533C263.533,298.52,266.947,301.933,272.067,301.933z"/>
			<path d="M246.467,336.067h42.667c5.12,0,8.533-3.413,8.533-8.533S294.253,319,289.133,319h-42.667
				c-5.12,0-8.533,3.413-8.533,8.533S241.347,336.067,246.467,336.067z"/>
		</g>
	</g>
</g>
<g>
</g>
<g>
</g>
<g>
</g>
<g>
</g>
<g>
</g>
<g>
</g>
<g>
</g>
<g>
</g>
<g>
</g>
<g>
</g>
<g>
</g>
<g>
</g>
<g>
</g>
<g>
</g>
<g>
</g>
</svg>
