<?xml version="1.0" encoding="iso-8859-1"?>
<!-- Generator: Adobe Illustrator 19.0.0, SVG Export Plug-In . SVG Version: 6.00 Build 0)  -->
<svg version="1.1" id="Layer_1" xmlns="http://www.w3.org/2000/svg" xmlns:xlink="http://www.w3.org/1999/xlink" x="0px" y="0px"
	 viewBox="0 0 512 512" style="enable-background:new 0 0 512 512;" xml:space="preserve">
<g transform="translate(1 1)">
	<g>
		<g>
			<path d="M502.467,365.933h-3.413c-2.56-11.093-7.68-22.187-13.653-32.427l2.56-2.56c1.707-1.707,2.56-3.413,2.56-5.973
				c0-2.56-0.853-4.267-2.56-5.973l-23.893-23.893c-3.413-3.413-8.533-3.413-11.947,0l-2.56,2.56
				c-10.24-6.827-20.48-11.093-32.427-13.653V280.6c0-5.12-3.413-8.533-8.533-8.533h-34.133c-5.12,0-8.533,3.413-8.533,8.533v3.413
				c-11.093,2.56-22.187,7.68-32.427,13.653l-2.56-2.56c-1.707-1.707-3.413-2.56-5.973-2.56c-2.56,0-4.267,0.853-5.973,2.56
				L295.107,319c-1.707,1.707-2.56,3.413-2.56,5.973c0,2.56,0.853,4.267,2.56,5.973l2.56,2.56
				c-6.827,10.24-11.093,20.48-13.653,32.427H280.6c-5.12,0-8.533,3.413-8.533,8.533V408.6c0,5.12,3.413,8.533,8.533,8.533h3.413
				c2.56,11.093,7.68,22.187,13.653,32.427l-2.56,2.56c-3.413,3.413-3.413,8.533,0,11.947L319,487.96
				c1.707,1.707,3.413,2.56,5.973,2.56c2.56,0,4.267-0.853,5.973-2.56l2.56-2.56c10.24,6.827,20.48,11.093,32.427,13.653v3.413
				c0,5.12,3.413,8.533,8.533,8.533H408.6c5.12,0,8.533-3.413,8.533-8.533v-3.413c11.093-2.56,22.187-7.68,32.427-13.653l2.56,2.56
				c1.707,1.707,3.413,2.56,5.973,2.56c2.56,0,4.267-0.853,5.973-2.56l23.893-23.893c3.413-3.413,3.413-8.533,0-11.947l-2.56-2.56
				c6.827-10.24,11.093-20.48,13.653-32.427h3.413c5.12,0,8.533-3.413,8.533-8.533v-34.133
				C511,369.347,507.587,365.933,502.467,365.933z M493.933,400.067h-1.707c-4.267,0-7.68,2.56-8.533,6.827
				c-2.56,13.653-7.68,26.453-16.213,38.4c-2.56,3.413-1.707,8.533,0.853,11.093l0.853,0.853l-11.947,11.947l-0.853-0.853
				c-3.413-2.56-7.68-3.413-11.093-0.853c-11.093,8.533-24.747,13.653-38.4,16.213c-3.413,0.853-6.827,4.267-6.827,8.533v1.707H383
				v-1.707c0-4.267-2.56-7.68-6.827-8.533c-13.653-2.56-26.453-7.68-38.4-16.213c-3.413-2.56-8.533-1.707-11.093,0.853l-0.853,0.853
				L313.88,457.24l0.853-0.853c2.56-3.413,3.413-7.68,0.853-11.093c-8.533-11.093-13.653-24.747-16.213-38.4
				c-0.853-3.413-4.267-6.827-8.533-6.827h-1.707V383h1.707c4.267,0,7.68-2.56,8.533-6.827c2.56-13.653,7.68-26.453,16.213-38.4
				c2.56-3.413,1.707-8.533-0.853-11.093l-0.853-0.853l11.947-11.947l0.853,0.853c3.413,2.56,7.68,3.413,11.093,0.853
				c11.093-8.533,24.747-13.653,38.4-16.213c3.413-0.853,6.827-4.267,6.827-8.533v-1.707h17.067v1.707
				c0,4.267,2.56,7.68,6.827,8.533c13.653,2.56,26.453,7.68,38.4,16.213c3.413,2.56,8.533,1.707,11.093-0.853l0.853-0.853
				l11.947,11.947l-0.853,0.853c-2.56,3.413-3.413,7.68-0.853,11.093c8.533,11.093,13.653,24.747,16.213,38.4
				c0.853,3.413,4.267,6.827,8.533,6.827h1.707V400.067z"/>
			<path d="M383,203.8h65.707c9.387,0,17.067-3.413,23.04-9.387c4.267-5.12,5.973-11.093,5.12-17.92l-15.36-87.04
				c-1.707-12.8-12.8-22.187-25.6-22.187H383c-14.507,0-25.6,11.093-25.6,25.6V178.2C357.4,192.707,368.493,203.8,383,203.8z
				 M374.467,92.867c0-5.12,3.413-8.533,8.533-8.533h52.907c4.267,0,7.68,3.413,8.533,7.68l14.507,87.893
				c0.853,0.853,0.853,1.707-0.853,3.413c-1.707,1.707-5.973,3.413-9.387,3.413H383c-5.12,0-8.533-3.413-8.533-8.533V92.867z"/>
			<path d="M252.44,243.907c3.413,1.707,7.68,2.56,11.093,2.56c5.973,0,11.093-1.707,16.213-5.973l51.2-40.96
				c5.973-4.267,9.387-11.947,9.387-19.627v-87.04c0-14.507-11.093-25.6-25.6-25.6h-51.2c-14.507,0-25.6,11.093-25.6,25.6v128
				C237.933,231.107,243.907,239.64,252.44,243.907z M255,92.867c0-5.12,3.413-8.533,8.533-8.533h52.053
				c5.12,0,8.533,3.413,8.533,8.533v87.04c0,2.56-1.707,5.12-3.413,6.827l-51.2,40.96c-2.56,1.707-5.973,2.56-9.387,0.853
				s-5.12-4.267-5.12-7.68V92.867z"/>
			<path d="M391.533,331.8c-33.28,0-59.733,26.453-59.733,59.733c0,33.28,26.453,59.733,59.733,59.733
				c33.28,0,59.733-26.453,59.733-59.733C451.267,358.253,424.813,331.8,391.533,331.8z M391.533,434.2
				c-23.893,0-42.667-18.773-42.667-42.667c0-23.893,18.773-42.667,42.667-42.667c23.893,0,42.667,18.773,42.667,42.667
				C434.2,415.427,415.427,434.2,391.533,434.2z"/>
			<path d="M391.533,383c5.12,0,8.533-3.413,8.533-8.533s-3.413-8.533-8.533-8.533c-5.12,0-8.533,3.413-8.533,8.533
				S386.413,383,391.533,383z"/>
			<path d="M374.467,383c-5.12,0-8.533,3.413-8.533,8.533c0,5.12,3.413,8.533,8.533,8.533s8.533-3.413,8.533-8.533
				C383,386.413,379.587,383,374.467,383z"/>
			<path d="M408.6,383c-5.12,0-8.533,3.413-8.533,8.533c0,5.12,3.413,8.533,8.533,8.533s8.533-3.413,8.533-8.533
				C417.133,386.413,413.72,383,408.6,383z"/>
			<path d="M391.533,400.067c-5.12,0-8.533,3.413-8.533,8.533s3.413,8.533,8.533,8.533c5.12,0,8.533-3.413,8.533-8.533
				S396.653,400.067,391.533,400.067z"/>
			<path d="M161.133,255H67.267c-5.12,0-8.533,3.413-8.533,8.533v51.2c0,5.12,3.413,8.533,8.533,8.533h93.867
				c18.773,0,34.133-15.36,34.133-34.133C195.267,270.36,179.907,255,161.133,255z M161.133,306.2H75.8v-34.133h85.333
				c9.387,0,17.067,7.68,17.067,17.067S170.52,306.2,161.133,306.2z"/>
			<path d="M502.467-1h-307.2c-2.56,0-5.973,1.707-7.68,3.413c-0.853,2.56-1.707,5.973,0,8.533L203.8,43.373v168.96h-51.2V127
				c0-4.267-2.56-7.68-5.973-8.533c2.56-5.12,7.68-8.533,14.507-8.533c5.12,0,8.533-3.413,8.533-8.533V67.267
				c0-5.12-3.413-8.533-8.533-8.533c-34.133,0-63.147,26.453-67.413,59.733h-0.853c-5.12,0-8.533,3.413-8.533,8.533v85.333h-76.8
				c-5.12,0-8.533,3.413-8.533,8.533v170.667c0,5.12,3.413,8.533,8.533,8.533h7.901c-5.055,10.264-7.901,21.84-7.901,34.133
				c0,42.667,34.133,76.8,76.8,76.8c42.667,0,76.8-34.133,76.8-76.8c0-12.293-2.847-23.869-7.901-34.133H178.2v25.6V459.8v34.133
				c0,5.12,3.413,8.533,8.533,8.533h51.2c5.12,0,8.533-3.413,8.533-8.533V459.8v-34.133v-34.133
				c0-80.213,64.853-145.067,145.067-145.067c40.107,0,76.8,16.213,104.96,45.227c2.56,2.56,5.973,3.413,9.387,1.707
				c3.413-0.853,5.12-4.267,5.12-7.68V41.667V7.533C511,2.413,507.587-1,502.467-1z M493.933,16.067v17.067h-276.48l-8.533-17.067
				H493.933z M101.4,135.533c5.12,0,8.533-3.413,8.533-8.533c0-25.6,18.773-46.08,42.667-50.347V93.72
				C138.093,97.987,127,110.787,127,127c0,5.12,3.413,8.533,8.533,8.533v76.8H101.4V135.533z M84.333,493.933
				c-33.28,0-59.733-26.453-59.733-59.733c0-16.239,6.31-30.842,16.627-41.55c11.626-11.289,27.015-18.184,43.106-18.184
				c17.92,0,34.987,8.533,46.08,22.187c0.643,0.964,1.407,1.685,2.246,2.211c7.182,9.861,11.407,22.051,11.407,35.336
				C144.067,467.48,117.613,493.933,84.333,493.933z M195.267,434.2H229.4v17.067h-34.133V434.2z M229.4,417.133h-34.133v-17.067
				H229.4V417.133z M229.4,485.4h-34.133v-17.067H229.4V485.4z M493.933,266.093C464.92,242.2,429.08,229.4,391.533,229.4
				c-87.04,0-157.867,68.267-162.133,153.6h-42.667h-44.998c-12.29-13.788-29.512-23.058-49.009-25.143
				c-0.063-0.007-0.125-0.017-0.188-0.024c-1.178-0.123-2.365-0.213-3.559-0.283c-0.185-0.011-0.368-0.032-0.553-0.042
				c-1.355-0.07-2.719-0.108-4.093-0.108s-2.738,0.038-4.093,0.108c-0.185,0.01-0.368,0.031-0.553,0.042
				c-1.194,0.07-2.381,0.16-3.559,0.283c-0.063,0.007-0.124,0.017-0.187,0.023c-19.498,2.085-36.72,11.355-49.01,25.144H16.067
				V229.4h76.8h51.2h68.267c5.12,0,8.533-3.413,8.533-8.533V50.2h273.067V266.093z"/>
			<path d="M84.333,400.067c-18.773,0-34.133,15.36-34.133,34.133c0,18.773,15.36,34.133,34.133,34.133
				c18.773,0,34.133-15.36,34.133-34.133C118.467,415.427,103.107,400.067,84.333,400.067z M84.333,451.267
				c-9.387,0-17.067-7.68-17.067-17.067s7.68-17.067,17.067-17.067c9.387,0,17.067,7.68,17.067,17.067S93.72,451.267,84.333,451.267
				z"/>
		</g>
	</g>
</g>
<g>
</g>
<g>
</g>
<g>
</g>
<g>
</g>
<g>
</g>
<g>
</g>
<g>
</g>
<g>
</g>
<g>
</g>
<g>
</g>
<g>
</g>
<g>
</g>
<g>
</g>
<g>
</g>
<g>
</g>
</svg>
