<?xml version="1.0" encoding="iso-8859-1"?>
<!-- Generator: Adobe Illustrator 19.0.0, SVG Export Plug-In . SVG Version: 6.00 Build 0)  -->
<svg version="1.1" id="Layer_1" xmlns="http://www.w3.org/2000/svg" xmlns:xlink="http://www.w3.org/1999/xlink" x="0px" y="0px"
	 viewBox="0 0 512.427 512.427" style="enable-background:new 0 0 512.427 512.427;" xml:space="preserve">
<g transform="translate(1 1)">
	<g>
		<g>
			<path d="M485.4,374.68h-2.56c-2.56-10.24-6.827-19.627-11.947-28.16l1.707-1.707c3.413-3.413,3.413-8.533,0-11.947
				l-22.187-22.187c-1.707-1.707-3.413-2.56-5.973-2.56c-2.56,0-4.267,0.853-5.973,2.56l-1.707,1.707
				c-8.533-5.12-18.773-9.387-28.16-11.947v-2.56c0-5.12-3.413-8.533-8.533-8.533h-34.133c-5.12,0-8.533,3.413-8.533,8.533v2.56
				c-10.24,2.56-19.627,6.827-28.16,11.947l-1.707-1.707c-1.707-1.707-3.413-2.56-5.973-2.56s-4.267,0.853-5.973,2.56L293.4,332.867
				c-3.413,3.413-3.413,8.533,0,11.947l1.707,1.707c-5.12,8.533-9.387,18.773-11.947,28.16h-2.56c-5.12,0-8.533,3.413-8.533,8.533
				v34.133c0,5.12,3.413,8.533,8.533,8.533h2.56c2.56,10.24,6.827,19.627,11.947,28.16l-1.707,1.707
				c-3.413,3.413-3.413,8.533,0,11.947l22.187,22.187c3.413,3.413,8.533,3.413,11.947,0l1.707-1.707
				c8.533,5.12,18.773,9.387,28.16,11.947v2.56c0,5.12,3.413,8.533,8.533,8.533h34.133c5.12,0,8.533-3.413,8.533-8.533v-2.56
				c10.24-2.56,19.627-6.827,28.16-11.947l1.707,1.707c3.413,3.413,8.533,3.413,11.947,0l22.187-22.187
				c3.413-3.413,3.413-8.533,0-11.947l-1.707-1.707c5.12-8.533,9.387-18.773,11.947-28.16h2.56c5.12,0,8.533-3.413,8.533-8.533
				v-34.133C493.933,378.093,490.52,374.68,485.4,374.68z M476.867,408.813h-0.853c-4.267,0-7.68,2.56-8.533,6.827
				c-1.707,11.947-6.827,23.893-14.507,34.133c-2.56,3.413-1.707,8.533,0.853,11.093l0.853,0.853l-10.24,10.24l-0.853-0.853
				c-3.413-2.56-7.68-3.413-11.093-0.853c-10.24,6.827-22.187,11.947-34.133,14.507c-4.267,0.853-6.827,4.267-6.827,8.533v0.853
				h-17.067c0-5.12-2.56-8.533-6.827-9.387c-11.947-1.707-23.893-6.827-34.133-14.507c-3.413-2.56-8.533-1.707-11.093,0.853
				l-0.853,0.853l-10.24-10.24l0.853-0.853c2.56-3.413,3.413-7.68,0.853-11.093c-6.827-10.24-11.947-22.187-14.507-34.133
				c-0.853-4.267-4.267-6.827-8.533-6.827h-0.853v-17.067h0.853c4.267,0,7.68-2.56,8.533-6.827
				c1.707-11.947,6.827-23.893,14.507-34.133c2.56-3.413,1.707-8.533-0.853-11.093l-0.853-0.853l10.24-10.24l0.853,0.853
				c3.413,2.56,7.68,3.413,11.093,0.853c10.24-6.827,22.187-11.947,34.133-14.507c4.267-0.853,6.827-4.267,6.827-8.533v-0.853
				h17.067v0.853c0,4.267,2.56,7.68,6.827,8.533c11.947,1.707,23.893,6.827,34.133,14.507c3.413,2.56,8.533,1.707,11.093-0.853
				l0.853-0.853l10.24,10.24l-0.853,0.853c-2.56,3.413-3.413,7.68-0.853,11.093c6.827,10.24,11.947,22.187,14.507,34.133
				c0.853,4.267,4.267,6.827,8.533,6.827h0.853V408.813z"/>
			<path d="M383,349.08c-28.16,0-51.2,23.04-51.2,51.2c0,28.16,23.04,51.2,51.2,51.2c28.16,0,51.2-23.04,51.2-51.2
				C434.2,372.12,411.16,349.08,383,349.08z M383,434.413c-18.773,0-34.133-15.36-34.133-34.133
				c0-18.773,15.36-34.133,34.133-34.133c18.773,0,34.133,15.36,34.133,34.133C417.133,419.053,401.773,434.413,383,434.413z"/>
			<path d="M383,383.213c-9.387,0-17.067,7.68-17.067,17.067s7.68,17.067,17.067,17.067s17.067-7.68,17.067-17.067
				S392.387,383.213,383,383.213z"/>
			<path d="M84.333,408.813c-18.773,0-34.133,15.36-34.133,34.133c0,18.773,15.36,34.133,34.133,34.133
				c18.773,0,34.133-15.36,34.133-34.133C118.467,424.173,103.107,408.813,84.333,408.813z M84.333,460.013
				c-9.387,0-17.067-7.68-17.067-17.067s7.68-17.067,17.067-17.067c9.387,0,17.067,7.68,17.067,17.067S93.72,460.013,84.333,460.013
				z"/>
			<path d="M408.6,33.347H383c-23.893,0-42.667,18.773-42.667,42.667v85.333c0,23.893,18.773,42.667,42.667,42.667h25.6
				c23.893,0,42.667-18.773,42.667-42.667V76.013C451.267,52.12,432.493,33.347,408.6,33.347z M434.2,161.347
				c0,14.507-11.093,25.6-25.6,25.6H383c-14.507,0-25.6-11.093-25.6-25.6V76.013c0-14.507,11.093-25.6,25.6-25.6h25.6
				c14.507,0,25.6,11.093,25.6,25.6V161.347z"/>
			<path d="M152.6,76.013c0,5.12,3.413,8.533,8.533,8.533s8.533-3.413,8.533-8.533V58.947c0-5.12-3.413-8.533-8.533-8.533
				s-8.533,3.413-8.533,8.533V76.013z"/>
			<path d="M144.067,41.88c5.12,0,8.533-3.413,8.533-8.533V16.28c0-5.12-3.413-8.533-8.533-8.533c-5.12,0-8.533,3.413-8.533,8.533
				v17.067C135.533,38.467,138.947,41.88,144.067,41.88z"/>
			<path d="M493.933,209.133V35.907l16.213-23.893c1.707-2.56,1.707-5.973,0-8.533s-4.267-4.267-7.68-4.267h-281.6
				c-3.413,0-5.973,1.707-6.827,5.12c-1.707,2.56-1.707,5.973,0,8.533l15.36,23.04v5.973v153.6v17.067h-42.667v-59.733
				c0-5.12-3.413-8.533-8.533-8.533v-25.6c0-2.56-0.853-5.12-3.413-6.827l-34.133-25.6c-2.56-1.707-5.973-2.56-8.533-0.853
				c-3.413,1.707-5.12,4.267-5.12,7.68v51.2c-5.12,0-8.533,3.413-8.533,8.533v59.733H84.333v-17.24
				c9.816-1.203,17.067-9.232,17.067-19.453v-11.947c0-11.093-8.533-19.627-19.627-19.627h-46.08
				c-11.093,0-19.627,8.533-19.627,19.627v11.947c0,10.221,7.251,18.251,17.067,19.453v18.066C13.452,217.232-1,234.25-1,255.213
				v93.867v17.067c0,18.664,11.456,34.205,27.859,40.112c-6.815,10.615-10.792,23.206-10.792,36.688
				c0,37.547,30.72,68.267,68.267,68.267c37.547,0,68.267-30.72,68.267-68.267c0-12.416-3.375-24.074-9.23-34.133h26.296v8.533
				v34.133c0,5.12,3.413,8.533,8.533,8.533h68.267c5.12,0,8.533-3.413,8.533-8.533v-34.133v-34.133v-30.72
				c19.627-52.907,70.827-88.747,128-88.747c46.933,0,87.893,20.48,112.64,56.32c1.707,3.413,5.973,4.267,9.387,3.413
				c3.413-1.707,5.973-5.12,5.973-8.533v-85.333c0-2.56-0.853-4.267-2.56-5.973L493.933,209.133z M246.467,50.413h25.6
				c14.507,0,25.6,11.093,25.6,25.6v85.333c0,14.507-11.093,25.6-25.6,25.6h-25.6V50.413z M144.067,110.147l17.067,12.8v21.333
				h-17.067V110.147z M135.533,161.347h34.133v51.2h-34.133V161.347z M50.2,195.48h17.067v17.067H50.2V195.48z M33.133,163.907
				c0-1.707,0.853-2.56,2.56-2.56h46.08c1.707,0,2.56,0.853,2.56,2.56v11.947c0,1.707-0.853,2.56-2.56,2.56H75.8H41.667h-5.973
				c-1.707,0-2.56-0.853-2.56-2.56V163.907z M84.333,494.147c-28.16,0-51.2-23.04-51.2-51.2c0-28.16,23.04-51.2,51.2-51.2
				c28.16,0,51.2,23.04,51.2,51.2C135.533,471.107,112.493,494.147,84.333,494.147z M129.56,391.747
				c-11.876-10.293-25.959-16.169-41.561-16.965c-0.069-0.004-0.138-0.01-0.207-0.014c-1.145-0.055-2.297-0.088-3.458-0.088
				s-2.313,0.033-3.458,0.088c-0.069,0.004-0.138,0.01-0.208,0.014c-15.602,0.796-29.685,6.672-41.561,16.965
				c-12.8-1.707-23.04-11.947-23.04-25.6v-8.533h153.6v25.6v8.533H129.56z M186.733,400.28v-8.533h51.2v17.067h-51.2V400.28z
				 M237.933,374.68h-51.2v-17.067h51.2V374.68z M237.933,442.947h-51.2V425.88h51.2V442.947z M493.933,291.053
				C465.773,262.893,426.52,246.68,383,246.68c-62.293,0-118.613,37.547-142.507,93.867H178.2H16.067v-25.6h25.6
				c5.12,0,8.533-3.413,8.533-8.533s-3.413-8.533-8.533-8.533h-25.6v-17.067H50.2c5.12,0,8.533-3.413,8.533-8.533
				c0-5.12-3.413-8.533-8.533-8.533H16.067v-8.533c0-14.507,11.093-25.6,25.6-25.6H75.8H127h51.2h59.733
				c5.12,0,8.533-3.413,8.533-8.533v-17.067h25.6c23.893,0,42.667-18.773,42.667-42.667V76.013
				c0-23.893-18.773-42.667-42.667-42.667h-25.6c0-1.707-0.853-3.413-0.853-5.12L237.08,16.28h250.027l-8.533,11.947
				c-0.853,1.707-1.707,3.413-1.707,5.12v179.2c0,2.56,0.853,4.267,2.56,5.973l14.507,14.507V291.053z"/>
			<path d="M220.867,246.68h-51.2c-5.12,0-8.533,3.413-8.533,8.533v51.2c0,5.12,3.413,8.533,8.533,8.533h51.2
				c5.12,0,8.533-3.413,8.533-8.533v-51.2C229.4,250.093,225.987,246.68,220.867,246.68z M212.333,297.88H178.2v-34.133h34.133
				V297.88z"/>
			<path d="M135.533,272.28h-51.2c-5.12,0-8.533,3.413-8.533,8.533v34.133c0,5.12,3.413,8.533,8.533,8.533h51.2
				c5.12,0,8.533-3.413,8.533-8.533v-34.133C144.067,275.693,140.653,272.28,135.533,272.28z M127,306.413H92.867v-17.067H127
				V306.413z"/>
		</g>
	</g>
</g>
<g>
</g>
<g>
</g>
<g>
</g>
<g>
</g>
<g>
</g>
<g>
</g>
<g>
</g>
<g>
</g>
<g>
</g>
<g>
</g>
<g>
</g>
<g>
</g>
<g>
</g>
<g>
</g>
<g>
</g>
</svg>
