<?xml version="1.0" encoding="iso-8859-1"?>
<!-- Generator: Adobe Illustrator 17.1.0, SVG Export Plug-In . SVG Version: 6.00 Build 0)  -->
<!DOCTYPE svg PUBLIC "-//W3C//DTD SVG 1.1//EN" "http://www.w3.org/Graphics/SVG/1.1/DTD/svg11.dtd">
<svg version="1.1" id="Capa_1" xmlns="http://www.w3.org/2000/svg" xmlns:xlink="http://www.w3.org/1999/xlink" x="0px" y="0px"
	 viewBox="0 0 431.075 431.075" style="enable-background:new 0 0 431.075 431.075;" xml:space="preserve">
<path id="XMLID_691_" d="M288.516,206.621c0,3.962,3.224,7.186,7.187,7.186c3.962,0,7.185-3.224,7.185-7.186c0-4.418,3.582-8,8-8
	s8,3.582,8,8c0,12.785-10.4,23.186-23.185,23.186c-12.785,0-23.187-10.401-23.187-23.186c0-4.418,3.582-8,8-8
	S288.516,202.203,288.516,206.621z M285.894,92.948c-4.418,0-8,3.582-8,8c0,3.962-3.224,7.186-7.186,7.186
	c-3.963,0-7.187-3.224-7.187-7.186c0-4.418-3.582-8-8-8s-8,3.582-8,8c0,12.785,10.401,23.186,23.187,23.186
	c12.784,0,23.186-10.401,23.186-23.186C293.894,96.529,290.312,92.948,285.894,92.948z M290.588,275.997
	c23.705,0,44.854-14.165,53.881-36.087c1.683-4.085-0.266-8.761-4.352-10.443c-4.089-1.681-8.762,0.267-10.443,4.352
	c-6.548,15.903-21.891,26.179-39.086,26.179c-12.492,0-24.278-5.49-32.337-15.063c-2.541-3.02-6.905-3.733-10.274-1.685
	c-9.747,5.923-20.965,9.054-32.44,9.054c-11.475,0-22.692-3.131-32.439-9.054c-3.372-2.047-7.733-1.334-10.273,1.684
	c-8.062,9.573-19.849,15.064-32.338,15.064c-17.196,0-32.537-10.275-39.083-26.178c-1.682-4.085-6.356-6.032-10.443-4.353
	c-4.085,1.682-6.034,6.357-4.353,10.443c9.024,21.922,30.173,36.087,53.878,36.087c14.992,0,29.246-5.734,40.015-15.923
	c10.833,5.4,22.821,8.229,35.037,8.229c12.216,0,24.204-2.83,35.037-8.229C261.34,270.262,275.594,275.997,290.588,275.997z
	 M194.197,278.899c-4.418,0-8,3.582-8,8v18.144c-7.194-3.897-13.58-9.215-18.768-15.674c-2.769-3.446-7.804-3.994-11.247-1.228
	c-3.445,2.767-3.994,7.803-1.228,11.247c8.305,10.339,19.055,18.355,31.243,23.33v56.803c-8.986,4.066-17.044,9.97-23.665,17.349
	h-45.609c-4.418,0-8,3.582-8,8s3.582,8,8,8h49.307c2.425,0,4.718-1.1,6.237-2.99c6.409-7.979,14.857-14.01,24.431-17.443
	c3.179-1.14,5.3-4.153,5.3-7.53v-98.007C202.197,282.48,198.615,278.899,194.197,278.899z M114.479,161.325
	c12.785,0,23.186-10.401,23.186-23.187c0-4.418-3.582-8-8-8s-8,3.582-8,8c0,3.963-3.224,7.187-7.186,7.187s-7.186-3.224-7.186-7.187
	c0-4.418-3.582-8-8-8s-8,3.582-8,8C91.293,150.924,101.694,161.325,114.479,161.325z M397.61,179.825
	c6.832-15.696,8-33.223,3.246-49.786c-7.824-27.272-30.809-47.465-59.122-52.311c-8.693-14.89-22.095-26.476-38.073-32.302
	c-1.172-4.409-2.865-8.674-5.058-12.729c-7.371-13.634-19.609-23.582-34.462-28.011c-14.854-4.429-30.539-2.809-44.173,4.562
	c-0.061,0.033-0.121,0.066-0.18,0.1C207.429,3.225,193.864,0,179.821,0c-41.135,0-77.773,28.632-90.501,70.156
	c-28.5,10.679-48.045,39.815-48.045,72.449c0,7.999,1.136,15.831,3.383,23.351c-15.928,15.8-24.963,37.815-24.963,61.239
	c0,20.061,6.743,39.456,18.985,54.613c6.167,7.634,13.517,13.951,21.649,18.713c7.363,27.121,36.379,43.172,64.993,35.828
	c5.751-1.477,11.178-3.814,16.129-6.949c3.733-2.363,4.844-7.305,2.48-11.039c-2.363-3.733-7.304-4.844-11.039-2.48
	c-3.536,2.238-7.422,3.911-11.549,4.97c-14.935,3.834-29.979-1.213-38.833-11.699c1.23,0.262,2.469,0.492,3.714,0.69
	c4.361,0.694,8.463-2.279,9.158-6.643s-2.279-8.463-6.643-9.158c-30.241-4.815-53.045-33.553-53.045-66.847
	c0-20.669,8.54-39.931,23.43-52.847c2.524-2.19,3.421-5.718,2.25-8.847c-2.721-7.27-4.1-14.973-4.1-22.896
	c0-27.226,16.817-51.306,40.896-58.559c2.667-0.803,4.725-2.936,5.431-5.631C113.24,41.666,144.583,16,179.821,16
	c21.139,0,41.023,8.935,55.989,25.158c2.996,3.247,8.057,3.452,11.305,0.456c3.247-2.996,3.451-8.057,0.455-11.305
	c-3.55-3.849-7.333-7.356-11.316-10.508c7.565-2.13,15.595-2.084,23.315,0.218c10.757,3.208,19.621,10.413,24.959,20.287
	c2.162,3.999,3.654,8.272,4.437,12.701c0.531,3.013,2.734,5.458,5.676,6.3c21.008,6.017,37.083,24.749,40.954,47.723
	c0.733,4.357,4.867,7.296,9.218,6.56c4.356-0.734,7.294-4.861,6.56-9.218c-0.458-2.717-1.053-5.387-1.777-8.002
	c17.164,6.416,30.855,20.56,35.883,38.082c2.921,10.18,2.987,20.823,0.297,30.873c-0.176-0.171-0.354-0.342-0.53-0.511
	c-3.198-3.052-8.263-2.932-11.311,0.266c-3.05,3.197-2.931,8.261,0.266,11.311c13.461,12.842,21.182,31.359,21.182,50.804
	c0,33.295-22.805,62.033-53.046,66.847c-4.363,0.694-7.337,4.795-6.643,9.158c0.694,4.364,4.795,7.337,9.158,6.643
	c2.112-0.336,4.204-0.765,6.271-1.283c-8.781,10.889-24.105,16.196-39.321,12.292c-4.128-1.06-8.015-2.732-11.553-4.972
	c-3.735-2.361-8.676-1.251-11.038,2.482c-2.363,3.733-1.252,8.675,2.481,11.038c4.953,3.134,10.381,5.472,16.131,6.949
	c4.695,1.205,9.399,1.78,14.019,1.78c23.735,0,45.185-15.193,51.129-38.193c0.076-0.292,0.135-0.586,0.177-0.878
	c7.181-4.565,13.695-10.373,19.25-17.25c12.243-15.157,18.985-34.552,18.985-54.613C411.38,210.145,406.492,193.642,397.61,179.825z
	 M363.459,396.869h-49.031c-4.418,0-8,3.582-8,8s3.582,8,8,8h49.031c4.418,0,8-3.582,8-8S367.877,396.869,363.459,396.869z
	 M290.407,402.16c-2.225,16.214-15.281,28.915-29.725,28.915c-1.795,0-3.558-0.199-5.267-0.592c-1.71,0.394-3.472,0.592-5.267,0.592
	c-14.442,0-27.5-12.701-29.726-28.915c-1.418-10.343,2.037-20.85,8.801-26.769c4.344-3.802,9.602-5.356,14.98-4.479
	c-1.283-1.86-2.92-3.49-4.852-4.784c-3.67-2.459-4.652-7.428-2.193-11.099c2.46-3.67,7.427-4.654,11.1-2.193
	c6.851,4.59,11.727,11.434,13.898,19.188c0.724-0.174,1.472-0.377,2.247-0.612c5.941-1.795,12.123-0.445,16.975,3.697
	C288.2,380.934,291.828,391.805,290.407,402.16z M270.989,387.275c-0.988-0.842-1.501-0.685-1.954-0.548
	c-10.786,3.262-18.616,2.381-27.052,0.054h-0.001c-0.59-0.165-1.206-0.237-2.221,0.65c-2.254,1.973-4.242,7.043-3.486,12.555
	c1.104,8.038,7.587,15.089,13.874,15.089c0.886,0,1.728-0.145,2.5-0.429c0.893-0.329,1.83-0.494,2.767-0.494
	c0.938,0,1.875,0.165,2.768,0.494c0.771,0.285,1.612,0.429,2.499,0.429c6.287,0,12.771-7.052,13.873-15.09
	C275.298,394.571,273.325,389.271,270.989,387.275z M236.877,278.899c-4.418,0-8,3.582-8,8v43.306c0,4.418,3.582,8,8,8s8-3.582,8-8
	v-7.487c12.189-4.975,22.939-12.991,31.243-23.329c2.767-3.445,2.217-8.48-1.228-11.247c-3.445-2.766-8.48-2.217-11.247,1.228
	c-5.188,6.459-11.573,11.776-18.769,15.674v-18.144C244.877,282.48,241.295,278.899,236.877,278.899z"/>
<g>
</g>
<g>
</g>
<g>
</g>
<g>
</g>
<g>
</g>
<g>
</g>
<g>
</g>
<g>
</g>
<g>
</g>
<g>
</g>
<g>
</g>
<g>
</g>
<g>
</g>
<g>
</g>
<g>
</g>
</svg>
