<?xml version="1.0" encoding="iso-8859-1"?>
<!-- Generator: Adobe Illustrator 19.0.0, SVG Export Plug-In . SVG Version: 6.00 Build 0)  -->
<svg version="1.1" id="Layer_1" xmlns="http://www.w3.org/2000/svg" xmlns:xlink="http://www.w3.org/1999/xlink" x="0px" y="0px"
	 viewBox="0 0 512 512" style="enable-background:new 0 0 512 512;" xml:space="preserve">
<g>
	<g>
		<path d="M224.33,15.835H76.536c-10.186,0-18.474,8.288-18.474,18.474v263.918c0,10.186,8.288,18.474,18.474,18.474h65.979v81.814
			h15.835v-81.814h65.979c10.186,0,18.474-8.288,18.474-18.474V34.309C242.804,24.123,234.516,15.835,224.33,15.835z
			 M226.969,298.227c0,1.43-1.209,2.639-2.639,2.639h-65.979v-78.534l34.63-34.63l-11.197-11.197l-23.433,23.433v-77.893
			l29.352-29.352l-11.198-11.198l-25.007,25.007l-27.367-25.229l-10.734,11.643l29.119,26.843v37.951l-23.432-23.432l-11.198,11.197
			l34.629,34.63v72.614l-18.153-18.153l-11.198,11.198l29.351,29.352v25.751H76.536c-1.43,0-2.639-1.209-2.639-2.639V34.309
			c0-1.43,1.209-2.639,2.639-2.639H224.33c1.43,0,2.639,1.209,2.639,2.639V298.227z"/>
	</g>
</g>
<g>
	<g>
		<rect x="97.649" y="190.021" width="21.113" height="15.835"/>
	</g>
</g>
<g>
	<g>
		<rect x="87.093" y="263.918" width="21.113" height="15.835"/>
	</g>
</g>
<g>
	<g>
		<rect x="171.546" y="242.804" width="21.113" height="15.835"/>
	</g>
</g>
<g>
	<g>
		<rect x="192.66" y="263.918" width="21.113" height="15.835"/>
	</g>
</g>
<g>
	<g>
		<rect x="182.103" y="137.237" width="21.113" height="15.835"/>
	</g>
</g>
<g>
	<g>
		<rect x="192.66" y="52.783" width="21.113" height="15.835"/>
	</g>
</g>
<g>
	<g>
		<rect x="87.093" y="63.34" width="21.113" height="15.835"/>
	</g>
</g>
<g>
	<g>
		<rect x="139.876" y="52.783" width="21.113" height="15.835"/>
	</g>
</g>
<g>
	<g>
		<path d="M435.464,15.835H287.67c-10.186,0-18.474,8.288-18.474,18.474v263.918c0,10.186,8.288,18.474,18.474,18.474h65.979v81.814
			h15.835v-81.814h65.979c10.186,0,18.474-8.288,18.474-18.474V34.309C453.938,24.123,445.65,15.835,435.464,15.835z
			 M438.103,298.227c0,1.43-1.209,2.639-2.639,2.639h-65.979v-78.534l34.63-34.63l-11.197-11.197l-23.433,23.433v-77.893
			l29.352-29.352l-11.198-11.198l-25.007,25.007l-27.367-25.229l-10.734,11.643l29.119,26.843v37.951l-23.432-23.432l-11.197,11.197
			l34.629,34.63v72.614l-18.153-18.153l-11.198,11.198l29.351,29.352v25.751H287.67c-1.43,0-2.639-1.209-2.639-2.639V34.309
			c0-1.43,1.209-2.639,2.639-2.639h147.794c1.43,0,2.639,1.209,2.639,2.639V298.227z"/>
	</g>
</g>
<g>
	<g>
		<rect x="308.784" y="190.021" width="21.113" height="15.835"/>
	</g>
</g>
<g>
	<g>
		<rect x="298.227" y="263.918" width="21.113" height="15.835"/>
	</g>
</g>
<g>
	<g>
		<rect x="382.68" y="242.804" width="21.113" height="15.835"/>
	</g>
</g>
<g>
	<g>
		<rect x="403.794" y="263.918" width="21.113" height="15.835"/>
	</g>
</g>
<g>
	<g>
		<rect x="393.237" y="137.237" width="21.113" height="15.835"/>
	</g>
</g>
<g>
	<g>
		<rect x="403.794" y="52.783" width="21.113" height="15.835"/>
	</g>
</g>
<g>
	<g>
		<rect x="298.227" y="63.34" width="21.113" height="15.835"/>
	</g>
</g>
<g>
	<g>
		<rect x="351.01" y="52.783" width="21.113" height="15.835"/>
	</g>
</g>
<g>
	<g>
		<polygon points="229.606,416.99 229.606,432.825 496.165,432.825 496.165,480.33 15.835,480.33 15.835,464.495 308.784,464.495 
			308.784,448.66 15.835,448.66 15.835,432.825 208.493,432.825 208.493,416.99 0,416.99 0,496.165 512,496.165 512,416.99 		"/>
	</g>
</g>
<g>
	<g>
		<rect x="329.897" y="448.66" width="21.113" height="15.835"/>
	</g>
</g>
<g>
</g>
<g>
</g>
<g>
</g>
<g>
</g>
<g>
</g>
<g>
</g>
<g>
</g>
<g>
</g>
<g>
</g>
<g>
</g>
<g>
</g>
<g>
</g>
<g>
</g>
<g>
</g>
<g>
</g>
</svg>
