<?xml version="1.0" encoding="iso-8859-1"?>
<!-- Generator: Adobe Illustrator 19.0.0, SVG Export Plug-In . SVG Version: 6.00 Build 0)  -->
<svg version="1.1" id="Layer_1" xmlns="http://www.w3.org/2000/svg" xmlns:xlink="http://www.w3.org/1999/xlink" x="0px" y="0px"
	 viewBox="0 0 512.001 512.001" style="enable-background:new 0 0 512.001 512.001;" xml:space="preserve">
<g>
	<g>
		<path d="M494.354,414.741c-0.144-0.136-0.291-0.267-0.442-0.395L343.659,287.752c-4.05-3.412-10.038-3.157-13.784,0.587
			l-13.578,13.578l-41.839-41.839l63.448-63.448c12.141-12.142,17.338-29.433,13.901-46.256
			c-3.437-16.822-14.999-30.691-30.928-37.098L45.342,2.452C32.889-2.557,19.256,0.227,9.765,9.718S-2.511,32.842,2.497,45.296
			l110.825,275.537c6.407,15.93,20.277,27.492,37.099,30.928c3.417,0.698,6.851,1.039,10.258,1.039
			c13.374,0,26.323-5.265,35.998-14.94l63.356-63.356l41.839,41.839l-13.578,13.578c-3.744,3.745-4,9.733-0.587,13.784
			l126.594,150.253c0.128,0.151,0.259,0.299,0.395,0.442c10.549,11.138,24.806,17.387,40.146,17.596
			c0.264,0.003,0.527,0.005,0.79,0.005c15.043,0,29.157-5.843,39.819-16.504c10.848-10.848,16.707-25.269,16.499-40.609
			C511.741,439.547,505.492,425.29,494.354,414.741z M239.224,224.845c-3.983-3.981-10.44-3.982-14.424,0
			c-3.983,3.983-3.983,10.441,0,14.424l20.81,20.81l-63.356,63.356c-7.392,7.393-17.505,10.431-27.75,8.341
			c-10.243-2.093-18.355-8.856-22.256-18.554L21.422,37.684c-2.868-7.131,1.392-12.168,2.766-13.541
			c1.041-1.041,4.184-3.738,8.747-3.738c1.46,0,3.067,0.276,4.796,0.971l275.537,110.825c9.699,3.901,16.462,12.013,18.554,22.256
			c2.093,10.243-0.947,20.358-8.34,27.75l-63.448,63.448L239.224,224.845z M481.028,481.073
			c-6.802,6.803-15.806,10.529-25.405,10.529c-0.167,0-0.337-0.001-0.505-0.004c-9.694-0.132-18.71-4.044-25.421-11.024
			L309.34,337.722l28.338-28.337l142.851,120.358c6.981,6.711,10.894,15.727,11.025,25.421
			C491.686,464.951,487.948,474.153,481.028,481.073z"/>
	</g>
</g>
<g>
	<g>
		<path d="M80.289,89.192L68.566,60.418c-2.124-5.217-8.077-7.725-13.293-5.597c-5.217,2.125-7.723,8.077-5.597,13.292
			l11.723,28.773c1.611,3.957,5.425,6.354,9.448,6.354c1.281,0,2.584-0.243,3.845-0.757C79.908,100.359,82.414,94.408,80.289,89.192
			z"/>
	</g>
</g>
<g>
	<g>
		<path d="M131.722,215.434l-36.146-88.723c-2.124-5.216-8.076-7.725-13.293-5.596c-5.217,2.125-7.723,8.077-5.597,13.293
			l36.146,88.723c1.611,3.956,5.425,6.353,9.448,6.353c1.281,0,2.584-0.243,3.845-0.757
			C131.342,226.601,133.847,220.65,131.722,215.434z"/>
	</g>
</g>
<g>
</g>
<g>
</g>
<g>
</g>
<g>
</g>
<g>
</g>
<g>
</g>
<g>
</g>
<g>
</g>
<g>
</g>
<g>
</g>
<g>
</g>
<g>
</g>
<g>
</g>
<g>
</g>
<g>
</g>
</svg>
