<?xml version="1.0" encoding="iso-8859-1"?>
<!-- Generator: Adobe Illustrator 19.0.0, SVG Export Plug-In . SVG Version: 6.00 Build 0)  -->
<svg version="1.1" id="Layer_1" xmlns="http://www.w3.org/2000/svg" xmlns:xlink="http://www.w3.org/1999/xlink" x="0px" y="0px"
	 viewBox="0 0 512 512" style="enable-background:new 0 0 512 512;" xml:space="preserve">
<g>
	<g>
		<path d="M316.371,0h-3.207c-2.486,0-4.888,0.904-6.757,2.542l-21.825,19.134L262.758,2.543c-3.867-3.39-9.647-3.39-13.515,0
			l-21.825,19.134L205.594,2.543C203.725,0.904,201.323,0,198.837,0h-3.207c-11.358,0-20.599,9.241-20.599,20.599v101.767
			c0,41.172,30.898,75.242,70.72,80.298v80.216c0,5.661,4.59,10.249,10.249,10.249c5.66,0,10.249-4.589,10.249-10.249v-80.216
			c39.821-5.056,70.72-39.125,70.72-80.298V20.599C336.97,9.241,327.729,0,316.371,0z M256.001,23.88l13.034,11.427l-13.034,11.427
			l-13.034-11.427L256.001,23.88z M195.53,20.98l25.133,22.034l6.712,5.885l13.078,11.466L195.53,99.75V20.98z M316.471,122.365
			c0,33.344-27.128,60.47-60.47,60.47c-31.83,0-57.994-24.722-60.304-55.971l67.062-58.794c0.001,0,0.001-0.001,0.001-0.001
			l53.712-47.09V122.365z"/>
	</g>
</g>
<g>
	<g>
		<path d="M299.048,88.143c-5.66,0-10.249,4.589-10.249,10.249v1.025c0,5.661,4.589,10.249,10.249,10.249
			c5.66,0,10.249-4.589,10.249-10.249v-1.025C309.297,92.732,304.707,88.143,299.048,88.143z"/>
	</g>
</g>
<g>
	<g>
		<path d="M300.22,120.106c-5.554-1.082-10.938,2.543-12.021,8.1c-2.999,15.389-16.54,26.558-32.198,26.558
			c-5.66,0-10.249,4.589-10.249,10.249s4.59,10.249,10.249,10.249c25.444,0,47.448-18.141,52.318-43.136
			C309.403,126.57,305.776,121.189,300.22,120.106z"/>
	</g>
</g>
<g>
	<g>
		<path d="M256.001,302.352c-5.66,0-10.249,4.589-10.249,10.249V329c0,5.661,4.59,10.249,10.249,10.249
			c5.66,0,10.249-4.589,10.249-10.249v-16.399C266.25,306.941,261.661,302.352,256.001,302.352z"/>
	</g>
</g>
<g>
	<g>
		<path d="M314.601,278.167c-4.599-1.346-9.509,0.672-11.837,4.858c-0.282,0.507-24.864,44.787-46.575,87.389
			c-21.71-42.602-46.294-86.883-46.576-87.389c-2.327-4.185-7.239-6.205-11.837-4.858c-4.596,1.345-7.648,5.691-7.352,10.471
			c0.357,5.759,8.858,141.448,19.218,176.866C220.732,503.412,239.505,512,254.234,512h3.91c14.728,0,33.502-8.59,44.59-46.497
			c10.361-35.418,18.862-171.107,19.218-176.866C322.249,283.858,319.197,279.511,314.601,278.167z M224.983,438.168
			c-4.326-27.915-8.161-70.79-10.736-103.696c9.536,17.834,20.688,39.077,30.514,58.809
			C234.915,413.441,228.401,428.223,224.983,438.168z M283.06,459.748c-4.272,14.601-12.067,31.747-25.128,31.746
			c-0.343,0-0.692-0.012-1.042-0.036c-1.438-0.098-2.933-0.373-4.442-0.814c-5.788-1.693-9.367-4.896-11.261-10.078
			c-2.676-7.321-1.942-18.54,2.125-32.444c1.835-6.273,7.153-20.096,22.068-50.329c10.341-20.962,22.483-44.117,32.751-63.322
			C294.724,378.043,289.105,439.086,283.06,459.748z"/>
	</g>
</g>
<g>
</g>
<g>
</g>
<g>
</g>
<g>
</g>
<g>
</g>
<g>
</g>
<g>
</g>
<g>
</g>
<g>
</g>
<g>
</g>
<g>
</g>
<g>
</g>
<g>
</g>
<g>
</g>
<g>
</g>
</svg>
