<?xml version="1.0" encoding="iso-8859-1"?>
<!-- Generator: Adobe Illustrator 19.0.0, SVG Export Plug-In . SVG Version: 6.00 Build 0)  -->
<svg version="1.1" id="Layer_1" xmlns="http://www.w3.org/2000/svg" xmlns:xlink="http://www.w3.org/1999/xlink" x="0px" y="0px"
	 viewBox="0 0 512 512" style="enable-background:new 0 0 512 512;" xml:space="preserve">
<g transform="translate(1 1)">
	<g>
		<g>
			<path d="M35.693,206.36c-3.413,3.413-3.413,8.533,0,11.947c3.413,3.413,8.533,3.413,11.947,0c3.413-3.413,3.413-8.533,0-11.947
				S39.107,202.947,35.693,206.36z"/>
			<path d="M47.64,286.573c3.413-3.413,3.413-8.533,0-11.947s-8.533-3.413-11.947,0c-3.413,3.413-3.413,8.533,0,11.947
				C39.107,289.987,44.227,289.987,47.64,286.573z"/>
			<path d="M474.307,286.573c3.413-3.413,3.413-8.533,0-11.947s-8.533-3.413-11.947,0c-3.413,3.413-3.413,8.533,0,11.947
				C465.773,289.987,470.893,289.987,474.307,286.573z"/>
			<path d="M462.36,206.36c-3.413,3.413-3.413,8.533,0,11.947c3.413,3.413,8.533,3.413,11.947,0c3.413-3.413,3.413-8.533,0-11.947
				S465.773,202.947,462.36,206.36z"/>
			<path d="M502.467,118.467H434.2c-5.12,0-8.533,3.413-8.533,8.533v42.667h-40.07c37.744-48.289,63.36-102.929,39.216-126.293
				c-24.509-24.509-79.261,1.853-124.159,36.511c0.297-12.184-0.692-23.49-2.988-33.951c-0.853-4.267-3.413-6.827-7.68-6.827
				s-7.68,2.56-8.533,5.973c0,0.658-7.619,25.69-22.461,47.676c-9.523-23.528-32.382-39.262-62.405-42.083
				c3.878-13.539,15.397-30.844,21.719-37.166c3.413-3.413,3.413-8.533,0-11.947s-8.533-3.413-11.947,0
				c-5.147,5.147-14.325,17.436-20.803,30.872c-3.189-5.152-6.731-9.766-9.917-12.952c-2.56-3.413-8.533-4.267-11.947-0.853
				s-4.267,8.533-0.853,11.947c5.609,5.609,10.466,13.787,13.146,20.196c-39.397,4.111-66.053,30.854-66.053,67.697
				c0,15.089,4.417,33.484,11.908,51.2H84.333V127c0-5.12-3.413-8.533-8.533-8.533H7.533C2.413,118.467-1,121.88-1,127v51.2v68.267
				v68.267c0,5.12,3.413,8.533,8.533,8.533h76.8v42.667c0,5.12,3.413,8.533,8.533,8.533h95.253L110.787,498.2
				c-1.707,2.56-1.707,5.973,0,8.533s4.267,4.267,7.68,4.267h51.2c2.56,0,5.973-1.707,6.827-4.267L255,381.123l78.507,125.611
				c0.853,2.56,4.267,4.267,6.827,4.267h51.2c3.413,0,5.973-1.707,7.68-4.267c1.707-2.56,1.707-5.973,0-8.533L321.88,374.467h95.253
				c5.12,0,8.533-3.413,8.533-8.533v-42.667h76.8c5.12,0,8.533-3.413,8.533-8.533v-68.267V178.2V127
				C511,121.88,507.587,118.467,502.467,118.467z M16.067,186.733H75.8h59.733h70.827h0.853h62.293h98.133h66.56h59.733v51.2H16.067
				V186.733z M442.733,135.533h51.2v34.133h-51.2V135.533z M412.867,54.467c12.8,12.8-1.707,58.88-48.64,115.2h-82.773
				c1.601-4.642,3.111-9.194,4.526-13.662c6.314-19.488,10.598-37.46,12.853-54.007C354.159,56.124,400.091,41.691,412.867,54.467z
				 M284.013,85.187c-1.707,23.893-8.533,52.053-20.48,84.48H219.16c7.68-18.773,20.48-30.72,33.28-43.52l3.413-2.56
				c1.718-1.595,3.377-3.268,4.989-4.989c0.044-0.044,0.087-0.087,0.131-0.131c0.072-0.072,0.134-0.154,0.203-0.23
				C270.619,108.064,278.237,96.018,284.013,85.187z M127,118.467c0-34.987,29.867-51.2,59.733-51.2
				c32.151,0,54.225,15.945,58.757,42c-0.523,0.514-1.049,1.023-1.583,1.52l-2.56,2.56c-12.373,11.754-24.743,23.513-33.864,40.47
				c-2.635,4.79-5.031,10.03-7.096,15.85h-59.733C132.12,152.6,127,132.973,127,118.467z M16.067,135.533h51.2v34.133h-51.2V135.533
				z M164.547,493.933h-30.72l75.093-119.467h30.72L164.547,493.933z M376.173,493.933h-30.72L270.36,374.467h30.72L376.173,493.933
				z M408.6,357.4H307.053h-51.2h-1.707h-51.2H101.4v-34.133h307.2V357.4z M493.933,306.2h-76.8H92.867h-76.8V255h477.867V306.2z"/>
			<path d="M376.173,103.107c1.707,0,4.267-0.853,5.973-2.56L394.093,88.6c3.413-3.413,3.413-8.533,0-11.947s-8.533-3.413-11.947,0
				L370.2,88.6c-3.413,3.413-3.413,8.533,0,11.947C371.907,102.253,373.613,103.107,376.173,103.107z"/>
			<path d="M346.307,148.333c1.707,1.707,3.413,2.56,5.973,2.56c1.707,0,4.267-0.853,5.973-2.56l11.947-11.947
				c3.413-3.413,3.413-8.533,0-11.947c-3.413-3.413-8.533-3.413-11.947,0l-11.947,11.947
				C342.893,139.8,342.893,144.92,346.307,148.333z"/>
			<path d="M327.533,115.053c2.56,0,4.267-0.853,5.973-2.56l11.947-11.947c3.413-3.413,3.413-8.533,0-11.947s-8.533-3.413-11.947,0
				l-11.947,11.947c-3.413,3.413-3.413,8.533,0,11.947C323.267,114.2,324.973,115.053,327.533,115.053z"/>
			<path d="M306.2,164.547c1.707,1.707,3.413,2.56,5.973,2.56c1.707,0,4.267-0.853,5.973-2.56l10.24-10.24
				c3.413-3.413,3.413-8.533,0-11.947c-3.413-3.413-8.533-3.413-11.947,0L306.2,152.6
				C302.787,156.013,302.787,161.133,306.2,164.547z"/>
			<path d="M152.6,92.867c-5.12,0-8.533,3.413-8.533,8.533v8.533c0,5.12,3.413,8.533,8.533,8.533c5.12,0,8.533-3.413,8.533-8.533
				V101.4C161.133,96.28,157.72,92.867,152.6,92.867z"/>
			<path d="M178.2,127c-5.12,0-8.533,3.413-8.533,8.533v8.533c0,5.12,3.413,8.533,8.533,8.533s8.533-3.413,8.533-8.533v-8.533
				C186.733,130.413,183.32,127,178.2,127z"/>
			<path d="M212.333,109.933V101.4c0-5.12-3.413-8.533-8.533-8.533c-5.12,0-8.533,3.413-8.533,8.533v8.533
				c0,5.12,3.413,8.533,8.533,8.533C208.92,118.467,212.333,115.053,212.333,109.933z"/>
		</g>
	</g>
</g>
<g>
</g>
<g>
</g>
<g>
</g>
<g>
</g>
<g>
</g>
<g>
</g>
<g>
</g>
<g>
</g>
<g>
</g>
<g>
</g>
<g>
</g>
<g>
</g>
<g>
</g>
<g>
</g>
<g>
</g>
</svg>
