<?xml version="1.0" encoding="iso-8859-1"?>
<!-- Generator: Adobe Illustrator 19.0.0, SVG Export Plug-In . SVG Version: 6.00 Build 0)  -->
<svg version="1.1" id="Layer_1" xmlns="http://www.w3.org/2000/svg" xmlns:xlink="http://www.w3.org/1999/xlink" x="0px" y="0px"
	 viewBox="0 0 512 512" style="enable-background:new 0 0 512 512;" xml:space="preserve">
<g>
	<g>
		<path d="M357.122,117.365C310.407,54.591,262.283,6.28,261.802,5.8L256.001,0L250.2,5.8c-0.47,0.47-47.536,47.716-93.738,109.446
			l13.134,9.831c36.02-48.123,72.544-87.283,86.4-101.711c31.637,33.008,181.568,195.348,176.428,301.429
			c-1.199,24.719-10.595,43.991-28.743,58.93c-28.312,23.426-78,35.305-147.68,35.305c-69.569,0-119.26-11.882-147.695-35.319
			c-64.692-53.253-8.272-161.998,50.45-243.847l-13.331-9.564c-38.213,53.261-63.457,100.844-75.033,141.429
			c-15.635,54.827-6.389,96.766,27.482,124.647c31.447,25.919,84.649,39.062,158.126,39.062c73.6,0,126.806-13.146,158.122-39.057
			c21.604-17.785,33.276-41.605,34.688-70.799C451.373,272.615,420.526,202.562,357.122,117.365z"/>
	</g>
</g>
<g>
	<g>
		<path d="M441.163,392.266l-6.168,15.203c23.53,9.546,37.025,20.737,37.025,30.701c0,15.492-30.881,30.056-59.782,38.517
			c-41.64,12.191-97.127,18.906-156.237,18.906s-114.596-6.715-156.237-18.906c-28.901-8.461-59.782-23.025-59.782-38.517
			c0-9.958,13.481-21.144,36.987-30.688l-6.172-15.201c-21.542,8.747-47.222,23.808-47.222,45.889
			C23.574,486.125,143.325,512,256,512s232.426-25.875,232.426-73.829C488.427,416.079,462.725,401.014,441.163,392.266z"/>
	</g>
</g>
<g>
	<g>
		<path d="M384.519,427.233c0,14.494-50.065,35.547-128.518,35.547s-128.518-21.054-128.518-35.547h-16.407
			c0,11.001,7.94,26.653,45.763,38.753c26.611,8.513,61.828,13.201,99.161,13.201c37.334,0,72.55-4.688,99.161-13.201
			c37.824-12.1,45.763-27.752,45.763-38.753H384.519z"/>
	</g>
</g>
<g>
	<g>
		<path d="M223.689,126.605L211.75,115.35c-4.857,5.153-118.804,127.128-104.911,209.977c3.998,23.842,17.942,42.174,41.447,54.484
			l7.614-14.533c-18.975-9.939-29.73-23.892-32.879-42.656c-5.116-30.476,10.435-73.806,44.968-125.304
			C194.669,157.533,223.401,126.909,223.689,126.605z"/>
	</g>
</g>
<g>
	<g>
		<path d="M173.044,371.184l-9.095,13.655c1.891,1.261,18.849,12.316,31.894,12.316v-16.407
			C189.723,380.748,178.611,374.882,173.044,371.184z"/>
	</g>
</g>
<g>
</g>
<g>
</g>
<g>
</g>
<g>
</g>
<g>
</g>
<g>
</g>
<g>
</g>
<g>
</g>
<g>
</g>
<g>
</g>
<g>
</g>
<g>
</g>
<g>
</g>
<g>
</g>
<g>
</g>
</svg>
