<?xml version="1.0" encoding="iso-8859-1"?>
<!-- Generator: Adobe Illustrator 19.0.0, SVG Export Plug-In . SVG Version: 6.00 Build 0)  -->
<svg version="1.1" id="Layer_1" xmlns="http://www.w3.org/2000/svg" xmlns:xlink="http://www.w3.org/1999/xlink" x="0px" y="0px"
	 viewBox="0 0 512.001 512.001" style="enable-background:new 0 0 512.001 512.001;" xml:space="preserve">
<g>
	<g>
		<path d="M423.884,110.084c-33.862,0-64.181,18.89-79.124,49.297c-2.484,5.056-0.401,11.168,4.655,13.652
			c5.057,2.486,11.168,0.401,13.652-4.655c11.487-23.375,34.79-37.896,60.817-37.896c37.34,0,67.719,30.378,67.719,67.719
			c0,34.845-26.457,63.617-60.335,67.308v-65.786c0-5.633-4.566-10.199-10.199-10.199H196.99l-92.631-87.126
			c9.2-22.778,4.076-49.391-13.646-67.112c-3.983-3.983-10.441-3.983-14.425,0L2.987,108.586c-3.983,3.983-3.983,10.441,0,14.425
			c17.514,17.513,43.902,22.731,66.544,13.867l113.217,119.977v212.649c0,5.633,4.566,10.199,10.199,10.199h228.121
			c5.633,0,10.199-4.566,10.199-10.199V286.005c45.146-3.763,80.734-41.703,80.734-87.804
			C512.001,149.613,472.472,110.084,423.884,110.084z M410.868,238.328H296.611c-5.633,0-10.199,4.566-10.199,10.199
			c0,5.633,4.566,10.199,10.199,10.199h114.257v200.579H203.146V252.801c0-2.603-0.995-5.107-2.781-7L79.315,117.524
			c-3.194-3.385-8.277-4.179-12.35-1.928c-13.077,7.227-28.945,6.702-41.433-0.706L82.6,57.822
			c7.514,12.633,7.952,28.673,0.467,41.857c-2.322,4.092-1.546,9.241,1.882,12.465l101.011,95.008c1.891,1.78,4.391,2.77,6.987,2.77
			h217.921V238.328z"/>
	</g>
</g>
<g>
	<g>
		<path d="M256.001,238.328h-20.306c-5.633,0-10.199,4.566-10.199,10.199c0,5.633,4.566,10.199,10.199,10.199h20.306
			c5.633,0,10.199-4.566,10.199-10.199C266.2,242.894,261.634,238.328,256.001,238.328z"/>
	</g>
</g>
<g>
</g>
<g>
</g>
<g>
</g>
<g>
</g>
<g>
</g>
<g>
</g>
<g>
</g>
<g>
</g>
<g>
</g>
<g>
</g>
<g>
</g>
<g>
</g>
<g>
</g>
<g>
</g>
<g>
</g>
</svg>
