<?xml version="1.0" encoding="iso-8859-1"?>
<!-- Generator: Adobe Illustrator 19.0.0, SVG Export Plug-In . SVG Version: 6.00 Build 0)  -->
<svg version="1.1" id="Layer_1" xmlns="http://www.w3.org/2000/svg" xmlns:xlink="http://www.w3.org/1999/xlink" x="0px" y="0px"
	 viewBox="0 0 512.336 512.336" style="enable-background:new 0 0 512.336 512.336;" xml:space="preserve">
<g transform="translate(1)">
	<g>
		<path d="M502.803,213.676h-40.349c-3.026-0.905-6.206,0.045-8.476,2.321c-0.031,0.031-0.06,0.063-0.091,0.095
			c-0.532,0.548-1.018,1.162-1.431,1.851l-48.873,89.6h-49.687l44.8-89.6c1.707-2.56,1.707-5.973,0-8.533
			c-1.707-2.56-4.267-4.267-6.827-4.267l-85.854-3.816c0.895-28.261-1.768-49.424-8.012-71.278l4.267-23.04
			c1.707-5.973-0.853-12.8-5.973-17.067c-5.12-4.267-12.8-5.973-17.92-3.413l-24.747,7.68h-65.707l-25.6-6.827
			c-5.973-2.56-12.8-1.707-17.92,2.56s-7.68,10.24-5.973,17.067l4.267,23.04c-5.364,19.157-7.966,38.335-7.825,63.671L7.869,188.076
			c-3.413,0-5.973,1.707-7.68,5.12s-1.707,6.827,0.853,9.387l100.693,117.476v22.443c-19.681,3.86-34.133,20.878-34.133,41.841
			c0,23.893,18.773,42.667,42.667,42.667c23.893,0,42.667-18.773,42.667-42.667c0-20.963-14.452-37.981-34.133-41.841v-17.892
			h120.135l6.159,70.827c0.853,17.92,16.213,31.573,34.133,31.573c14.507,0,28.16-9.387,32.427-23.893l26.169-78.507h2.844h68.267
			c0.424,0,0.832-0.032,1.232-0.078c0.005-0.001,0.01-0.001,0.015-0.002c2.632-0.306,4.716-1.581,5.968-3.559
			c0.158-0.206,0.319-0.409,0.465-0.628l48.873-89.6h37.314c5.12,0,8.533-3.413,8.533-8.533
			C511.336,217.089,507.923,213.676,502.803,213.676z M161.469,133.463c0-1.707,0-2.56,0-4.267l-5.12-25.6c0,0-0.853-0.853,0-0.853
			c0.853-0.853,0.853,0,1.707,0l26.453,8.533c0.853,0,1.707,0,2.56,0h68.267c0.853,0,1.707,0,2.56,0l27.307-8.533c0,0,0,0,0.853,0
			v0.853l-5.12,25.6c0,0.853,0,2.56,0.853,4.267c5.952,20.408,8.513,39.973,7.687,67.129l-17.073-0.759v-45.89
			c0-5.12-3.413-8.533-8.533-8.533h-85.333c-2.56,0-4.267,0.853-5.973,2.56s-2.56,3.413-2.56,5.973v41.339l-17.065-0.758
			C152.968,165.743,156.372,148.755,161.469,133.463z M187.069,195.756v-33.28h68.267v36.599l-17.067-0.759L187.069,195.756z
			 M142.463,211.031c0.356,0.05,0.717,0.085,1.087,0.085l33.272,1.479c0.565,0.145,1.139,0.228,1.715,0.228l34.134,1.365
			l84.48,3.755c0.435,0,0.853-0.033,1.262-0.082l79.804,3.495l-42.667,86.187h-3.413h-85.333H114.536l-14.629-17.067h27.429
			c5.12,0,8.533-3.413,8.533-8.533c0-5.12-3.413-8.533-8.533-8.533H85.279L70.65,256.343h31.086c5.12,0,8.533-3.413,8.533-8.533
			s-3.413-8.533-8.533-8.533H56.022l-28.526-33.28L142.463,211.031z M135.869,384.343c0,14.507-11.093,25.6-25.6,25.6
			s-25.6-11.093-25.6-25.6c0-11.491,6.963-20.833,17.067-24.224v24.224c0,5.12,3.413,8.533,8.533,8.533s8.533-3.413,8.533-8.533
			v-24.224C128.906,363.51,135.869,372.852,135.869,384.343z M295.443,397.996c-1.707,6.827-8.533,11.947-16.213,11.947
			c-8.533,0-16.213-6.827-17.067-16.213l-5.973-69.12h64L295.443,397.996z"/>
	</g>
</g>
<g>
</g>
<g>
</g>
<g>
</g>
<g>
</g>
<g>
</g>
<g>
</g>
<g>
</g>
<g>
</g>
<g>
</g>
<g>
</g>
<g>
</g>
<g>
</g>
<g>
</g>
<g>
</g>
<g>
</g>
</svg>
