<?xml version="1.0" encoding="iso-8859-1"?>
<!-- Generator: Adobe Illustrator 19.0.0, SVG Export Plug-In . SVG Version: 6.00 Build 0)  -->
<svg version="1.1" id="Layer_1" xmlns="http://www.w3.org/2000/svg" xmlns:xlink="http://www.w3.org/1999/xlink" x="0px" y="0px"
	 viewBox="0 0 512 512" style="enable-background:new 0 0 512 512;" xml:space="preserve">
<g>
	<g>
		<path d="M501.78,81.507h-47.995c-2.423,0-4.646,0.847-6.398,2.258c-0.602,0.388-1.174,0.841-1.702,1.367l-64.578,64.578H10.219
			c-3.739,0-7.179,2.042-8.971,5.324c-1.79,3.282-1.646,7.281,0.377,10.425l84.218,130.88v38.886
			c-21.613,4.715-37.849,23.991-37.849,46.998c0,26.528,21.583,48.111,48.111,48.111s48.111-21.583,48.111-48.111
			c0-23.036-16.278-42.333-37.933-47.017v-19.809h148.901l77.47,103.49c0.292,0.389,0.611,0.758,0.956,1.103
			c6.89,6.889,15.76,10.502,24.912,10.502c4.611,0,9.295-0.918,13.829-2.796c13.536-5.606,21.944-18.191,21.944-32.843V165.427
			l63.481-63.481h44.003c5.643,0,10.22-4.575,10.22-10.22S507.423,81.507,501.78,81.507z M123.777,382.224
			c0,15.258-12.414,27.672-27.672,27.672s-27.672-12.414-27.672-27.672c0-11.633,7.219-21.605,17.41-25.69v24.125
			c0,5.644,4.575,10.22,10.22,10.22c5.644,0,10.22-4.575,10.22-10.22V356.5C116.518,360.564,123.777,370.559,123.777,382.224z
			 M109.26,294.959L28.947,170.149h344.909v124.809H109.26z M373.858,394.854L373.858,394.854c-0.001,6.322-3.488,11.54-9.328,13.96
			c-5.636,2.336-11.574,1.275-16.001-2.828l-67.812-90.588h93.141V394.854z"/>
	</g>
</g>
<g>
	<g>
		<path d="M221.146,187.601H86.001c-5.644,0-10.22,4.575-10.22,10.22c0,5.644,4.575,10.22,10.22,10.22h135.144
			c5.644,0,10.22-4.575,10.22-10.22C231.365,192.177,226.79,187.601,221.146,187.601z"/>
	</g>
</g>
<g>
	<g>
		<path d="M272.929,187.601h-11.367c-5.644,0-10.22,4.575-10.22,10.22c0,5.644,4.575,10.22,10.22,10.22h11.367
			c5.643,0,10.22-4.575,10.22-10.22C283.149,192.177,278.573,187.601,272.929,187.601z"/>
	</g>
</g>
<g>
</g>
<g>
</g>
<g>
</g>
<g>
</g>
<g>
</g>
<g>
</g>
<g>
</g>
<g>
</g>
<g>
</g>
<g>
</g>
<g>
</g>
<g>
</g>
<g>
</g>
<g>
</g>
<g>
</g>
</svg>
