<?xml version="1.0" encoding="iso-8859-1"?>
<!-- Generator: Adobe Illustrator 19.0.0, SVG Export Plug-In . SVG Version: 6.00 Build 0)  -->
<svg version="1.1" id="Layer_1" xmlns="http://www.w3.org/2000/svg" xmlns:xlink="http://www.w3.org/1999/xlink" x="0px" y="0px"
	 viewBox="0 0 503.607 503.607" style="enable-background:new 0 0 503.607 503.607;" xml:space="preserve">
<g transform="translate(1 1)">
	<g>
		<path d="M495.052,293.61l-239.77-116.177l-1.961-34.905c-0.685-8.216-1.929-15.873-4.642-23.427l75.986-69.74
			c1.679-1.679,1.679-5.036,1.679-6.715c0-1.679-0.839-4.197-2.518-5.875L288.574,1.518C286.895-0.161,285.216-1,282.698-1
			c-1.679,0-4.197,0.839-5.875,2.518l-65.181,71.018c-13.966-8.929-30.625-13.943-47.291-13.943c-16.729,0-32.824,5.05-47.2,14.042
			L51.879,1.518C50.2-0.161,48.521-1,46.003-1c-2.518,0-5.036,0.839-6.715,3.357L4.036,37.61c-1.679,1.679-2.518,3.357-2.518,5.875
			c0,2.518,0.839,4.197,2.518,5.875l76.141,69.407c-2.379,7.391-4.127,14.888-4.797,22.921l-4.022,71.598L4.875,274.305
			c-1.679,1.679-2.518,3.357-2.518,5.875c0,1.679,0.839,4.197,2.518,5.875l35.253,35.253c1.679,1.679,3.357,2.518,5.875,2.518
			c2.518,0,4.197-0.839,5.875-2.518l13.837-14.972L55.236,494.213c0,1.679,0.839,4.197,2.518,5.875
			c1.679,1.679,3.357,2.518,5.875,2.518h75.541h50.361h75.541h58.754h117.508h50.361c5.036,0,8.393-3.357,8.393-8.393V301.164
			C500.089,297.807,497.57,295.289,495.052,293.61z M236.534,143.367l2.518,40.288c0,0,0,0,0,0v12.073l-36.931-33.896l32.764-30.071
			C235.715,135.89,236.534,139.22,236.534,143.367z M128.259,84.613c21.823-12.59,50.361-12.59,72.184,0l-36.092,39.449
			L128.259,84.613z M126.54,161.031l-37.73,35.215l3.357-52.879c0-4.197,0.839-7.554,1.679-11.751l27.485,24.666L126.54,161.031z
			 M46.003,304.521L22.502,281.02l122.542-114.149l0.002-0.002l0,0l0,0c0.839-0.839,1.469-1.888,1.888-2.938
			c0.315-0.787,0.511-1.574,0.59-2.272c0.026-0.233,0.039-0.456,0.039-0.666c0-0.839-0.21-1.889-0.63-2.938
			c-0.42-1.049-1.049-2.098-1.888-2.938L22.502,42.646l22.662-23.502l112.472,123.384c1.728,1.728,4.124,2.56,6.5,2.509
			c0.073,0.001,0.14,0.009,0.215,0.009c2.518,0,4.197-0.839,5.875-2.518l48.682-52.879c0.635-0.635,1.148-1.39,1.543-2.219
			l62.247-68.286L306.2,42.646L183.656,155.957c-1.679,1.679-2.518,4.197-2.518,5.875c0,1.679,0.839,4.197,2.518,5.875
			l40.676,37.812c0.358,0.576,0.781,1.128,1.291,1.638l80.139,73.461l-23.064,23.064l-21.326-23.236
			c-0.293-0.648-0.688-1.296-1.336-1.945l-88.971-96.525c-0.125-0.125-0.259-0.235-0.391-0.351l-0.449-0.489
			c-1.679-1.679-3.357-2.518-5.875-2.518c-2.518,0-4.197,0.839-5.875,3.357l-88.971,96.525c-0.972,0.486-1.654,1.538-2.063,2.661
			L46.003,304.521z M147.564,485.82v-67.148c0-9.233,7.554-16.787,16.787-16.787s16.787,7.554,16.787,16.787v67.148H147.564z
			 M197.925,485.82v-67.148c0-18.466-15.108-33.574-33.574-33.574s-33.574,15.108-33.574,33.574v67.148H72.023l11.751-198.925
			l80.577-87.292l58.97,64.251c0.346,0.73,0.829,1.424,1.462,2.057l20.144,21.823l1.428,25.188l9.484,172.898H197.925z
			 M415.147,485.82h-65.133l32.567-23.262L415.147,485.82z M397.017,452.246l35.924-25.66v51.32L397.017,452.246z M382.58,441.934
			l-32.567-23.262h65.133L382.58,441.934z M368.144,452.246l-35.924,25.66v-51.32L368.144,452.246z M483.302,485.82h-33.574v-75.541
			c0-5.036-3.357-8.393-8.393-8.393H325.318c-1.472-0.289-2.934-0.122-4.264,0.385c-2.549,0.746-4.389,2.553-5.182,5.071
			c-0.611,1.479-0.723,2.99-0.439,4.406v74.072h-42.36l-9.247-177.834l12.997,14.161c0.839,1.679,3.357,2.518,5.875,2.518
			c2.518,0,5.036-0.839,6.715-3.357l35.252-35.253c1.679-1.679,2.518-3.357,2.518-5.875c0-2.518-0.839-4.197-2.518-5.875
			l-67.167-61.647l-0.82-15.573L483.302,306.2V485.82z"/>
	</g>
</g>
<g>
</g>
<g>
</g>
<g>
</g>
<g>
</g>
<g>
</g>
<g>
</g>
<g>
</g>
<g>
</g>
<g>
</g>
<g>
</g>
<g>
</g>
<g>
</g>
<g>
</g>
<g>
</g>
<g>
</g>
</svg>
