<?xml version="1.0" encoding="iso-8859-1"?>
<!-- Generator: Adobe Illustrator 19.0.0, SVG Export Plug-In . SVG Version: 6.00 Build 0)  -->
<svg version="1.1" id="Layer_1" xmlns="http://www.w3.org/2000/svg" xmlns:xlink="http://www.w3.org/1999/xlink" x="0px" y="0px"
	 viewBox="0 0 504.446 504.446" style="enable-background:new 0 0 504.446 504.446;" xml:space="preserve">
<g transform="translate(1 1)">
	<g>
		<g>
			<path d="M330.01,226.816l-5.357-63.523l116.263-98.823c2.518-1.679,3.357-3.357,3.357-5.875c0-2.518-0.839-5.036-2.518-6.715
				L391.393,1.518C389.715-0.161,387.197-1,384.679-1c-2.518,0.839-4.197,1.679-5.875,3.357l-81.842,97.995
				c-12.715-10.715-28.927-16.579-45.738-16.579c-17.07,0-32.923,6.045-46.05,16.566l-82.37-97.983
				C121.125-0.161,119.446-1,116.928-1c-1.679,0-4.197,0.839-5.875,3.357L60.692,52.718c-1.679,0.839-2.518,3.357-2.518,5.875
				c0,1.679,0.839,4.197,3.357,5.875l116.317,98.324l-5.242,64.397L61.531,320.469c-2.518,1.679-3.357,3.357-3.357,5.875
				s0.839,4.197,2.518,5.875l50.361,50.361c1.679,1.679,3.357,2.518,5.875,2.518c2.518,0,5.036-0.839,6.715-2.518l39.761-46.778
				l-12.902,158.411c0,2.518,0.839,5.036,2.518,6.715c1.679,1.679,3.357,2.518,5.875,2.518h67.148h50.361h67.148
				c2.518,0,4.197-0.839,5.875-2.518c1.679-1.679,2.518-4.197,2.518-6.715l-13.691-159.971l40.55,48.338
				c1.679,2.518,3.357,3.357,5.875,3.357s5.036-0.839,6.715-2.518l50.361-50.361c1.679-1.679,2.518-4.197,2.518-6.715
				c-0.839-2.518-1.679-4.197-3.357-5.875L330.01,226.816z M310.816,210.515l-20.984-17.626l18.483-15.711L310.816,210.515z
				 M251.223,100.561c12.376,0,24.745,4.067,34.729,12.973l-34.311,41.083l-34.832-41.466
				C226.043,104.757,238.633,100.561,251.223,100.561z M194.107,176.536l19.345,16.353l-22.635,19.008L194.107,176.536z
				 M234.436,486.659v-50.361h33.574v50.361H234.436z M334.318,486.659h-49.521v-58.754c0-5.036-3.357-8.393-8.393-8.393h-50.361
				c-5.036,0-8.393,3.357-8.393,8.393v58.754h-49.521l14.219-173.143l69.707-82.008l0.008-0.009l0.009,0.011l68.02,81.084
				L334.318,486.659z M387.197,364.954l-127.58-151.921c-0.992-1.488-2.28-2.378-3.684-2.867c-1.414-0.957-3.059-1.33-4.709-1.33
				c-2.518,0-5.036,1.679-6.715,3.357l-77.22,91.489c-0.652,1.304-1.299,2.608-1.557,3.912l-48.803,57.36l-37.771-37.771
				l153.6-126.741c2.518-1.679,3.357-4.197,3.357-6.715c0-2.518-1.679-5.036-3.357-6.715L79.157,57.754l36.931-37.771l81.767,96.633
				c0.152,0.25,0.313,0.495,0.489,0.731l47.003,55.397c1.679,2.518,4.197,3.357,6.715,3.357s5.036-0.839,5.875-2.518l0.197-0.237
				c0.225-0.199,0.44-0.401,0.642-0.603l31.686-38.191l13.639-16.367c0.488-0.488,0.878-0.995,1.196-1.514l80.22-96.689
				l37.77,37.771l-151.921,128.42c-2.518,1.679-3.357,4.197-3.357,6.715s1.679,5.036,3.357,6.715l153.6,127.58L387.197,364.954z"/>
			<path d="M217.649,318.79c-5.036,0-8.393,3.357-8.393,8.393v50.361c0,5.036,3.357,8.393,8.393,8.393h67.148
				c5.036,0,8.393-3.357,8.393-8.393v-50.361c0-5.036-3.357-8.393-8.393-8.393H217.649z M276.403,369.151h-50.361v-33.574h50.361
				V369.151z"/>
		</g>
	</g>
</g>
<g>
</g>
<g>
</g>
<g>
</g>
<g>
</g>
<g>
</g>
<g>
</g>
<g>
</g>
<g>
</g>
<g>
</g>
<g>
</g>
<g>
</g>
<g>
</g>
<g>
</g>
<g>
</g>
<g>
</g>
</svg>
