<?xml version="1.0" encoding="iso-8859-1"?>
<!-- Generator: Adobe Illustrator 19.0.0, SVG Export Plug-In . SVG Version: 6.00 Build 0)  -->
<svg version="1.1" id="Layer_1" xmlns="http://www.w3.org/2000/svg" xmlns:xlink="http://www.w3.org/1999/xlink" x="0px" y="0px"
	 viewBox="0 0 512 512" style="enable-background:new 0 0 512 512;" xml:space="preserve">
<g transform="translate(1 1)">
	<g>
		<path d="M413.72,85.187c-2.56-0.853-5.973-1.707-8.533,0l-66.56,33.28h-58.852c-1.087-5.542-3.22-10.667-6.188-15.173l54.8-54.8
			c3.413-3.413,3.413-8.533,0-11.947s-8.533-3.413-11.947,0l-54.8,54.8c-4.507-2.968-9.631-5.101-15.173-6.188V7.533
			c0-5.12-3.413-8.533-8.533-8.533S229.4,2.413,229.4,7.533v77.625c-5.542,1.087-10.667,3.22-15.173,6.188l-54.8-54.8
			c-3.413-3.413-8.533-3.413-11.947,0s-3.413,8.533,0,11.947l54.8,54.8c-2.968,4.507-5.101,9.631-6.188,15.173h-77.625
			c-5.12,0-8.533,3.413-8.533,8.533s3.413,8.533,8.533,8.533h77.625c1.087,5.542,3.22,10.667,6.188,15.173l-54.8,54.8
			c-3.413,3.413-3.413,8.533,0,11.947c1.707,1.707,3.413,2.56,5.973,2.56s4.267-0.853,5.973-2.56l54.8-54.8
			c4.507,2.968,9.631,5.101,15.173,6.188v69.092h-31.847c-2.742-0.919-6.04-0.513-8.26,1.707c-2.112,1.584-3.24,4.475-2.988,7.258
			l-49.407,247.035H101.4c-5.12,0-8.533,3.413-8.533,8.533S96.28,511,101.4,511h42.667H331.8h42.667c5.12,0,8.533-3.413,8.533-8.533
			s-3.413-8.533-8.533-8.533h-35.499l-49.38-246.9c-0.028-0.989-0.236-1.987-0.619-2.949c-1.065-3.858-4.333-6.151-8.369-6.151
			h-34.133v-69.092c5.542-1.087,10.667-3.22,15.173-6.188l54.8,54.8c1.707,1.707,3.413,2.56,5.973,2.56s4.267-0.853,5.973-2.56
			c3.413-3.413,3.413-8.533,0-11.947l-54.8-54.8c2.968-4.507,5.101-9.631,6.188-15.173h58.852l66.56,33.28
			c0.853,0.853,1.707,0.853,3.413,0.853c1.707,0,3.413-0.853,4.267-0.853c2.56-1.707,4.267-5.12,4.267-7.68V92.867
			C417.133,90.307,415.427,86.893,413.72,85.187z M293.154,351.905l-43.893-53.204l26.764-32.441L293.154,351.905z M227.309,298.701
			l-44.822,54.33l17.492-87.458L227.309,298.701z M238.285,312.005l57.282,69.432l-57.634,42.025l-57.194-41.704L238.285,312.005z
			 M173.564,397.646l49.887,36.376l-66.922,48.797L173.564,397.646z M237.933,444.582l67.682,49.351H170.252L237.933,444.582z
			 M252.416,434.022l49.887-36.376l17.035,85.173L252.416,434.022z M238.285,285.397L213.208,255h50.155L238.285,285.397z
			 M255.853,144.92c-0.604,0.604-1.095,1.263-1.486,1.955c-4.396,3.602-10.089,5.725-16.434,5.725
			c-6.346,0-12.038-2.123-16.434-5.725c-0.39-0.692-0.882-1.351-1.486-1.955s-1.263-1.095-1.955-1.486
			c-3.602-4.397-5.725-10.089-5.725-16.434c0-6.402,2.163-12.137,5.823-16.549c0.668-0.372,1.308-0.823,1.857-1.371
			c0.604-0.604,1.095-1.263,1.486-1.955c4.397-3.602,10.089-5.725,16.435-5.725c6.345,0,12.038,2.123,16.434,5.725
			c0.39,0.692,0.882,1.351,1.486,1.955c0.664,0.664,1.33,1.195,2.045,1.601c3.546,4.381,5.635,10.028,5.635,16.319
			c0,6.345-2.123,12.038-5.725,16.434C257.117,143.825,256.457,144.316,255.853,144.92z M400.067,147.48L359.107,127l40.96-20.48
			V147.48z"/>
	</g>
</g>
<g>
</g>
<g>
</g>
<g>
</g>
<g>
</g>
<g>
</g>
<g>
</g>
<g>
</g>
<g>
</g>
<g>
</g>
<g>
</g>
<g>
</g>
<g>
</g>
<g>
</g>
<g>
</g>
<g>
</g>
</svg>
